<?xml version="1.0" encoding="utf-8"?>
<!-- Generator: Adobe Illustrator 22.1.0, SVG Export Plug-In . SVG Version: 6.00 Build 0)  -->
<svg version="1.1" id="Livello_1" xmlns="http://www.w3.org/2000/svg" xmlns:xlink="http://www.w3.org/1999/xlink" x="0px" y="0px"
	 viewBox="0 0 887.3 865" style="enable-background:new 0 0 887.3 865;" xml:space="preserve">
<style type="text/css">
	.st0{fill:#a7a5a5;}
</style>
<path class="st0" d="M222.2,133c-58.8,0-107.6,17.2-144.1,47.5C161.4,68.5,301.4,0,448.6,0C638.5,0,816.3,113.9,876,288.5
	C828.2,203.3,731.5,149.9,629,149.9c-81.6,0-159.6,33.9-212.1,90.8C381.5,173,306.7,133,222.2,133 M487,409.3c0,86.7,64,150,142,150
	c78,0,142-63.4,142-150c0-69.4-64-132.7-142-132.7C551,276.6,487,339.9,487,409.3 M629,686c-72.8,0-136.4-23.3-184.4-63.9v94H104.8
	C185.1,809.5,306,865,448.6,865c225.6,0,397.1-139,438.8-347C847.6,620.4,751.1,686,629,686 M347.9,511.6l-87,81.1H415
	c-23.1-27.2-40.7-59.4-51.5-95.7C358.5,501.8,353.3,506.7,347.9,511.6 M223,467c32.7-35.7,64-86.3,64-137.6
	c0-35.7-25.3-72.9-64-72.9c-39.4,0-61,30.5-61,68.4c0,7.4,0.7,15.6,2.2,23.8H5.8C2,370.9,0,393.8,0,417.4
	c0,86.4,20.4,164.4,57,230.1L223,467z"/>
</svg>
