<svg version="1.1" viewBox="0 0 1600.4 865" xml:space="preserve" xmlns="http://www.w3.org/2000/svg"><style type="text/css">
	.st0{fill:#a7a5a5;}
</style><path class="st0" d="m222.2 133c-58.8 0-107.6 17.2-144.1 47.5 83.3-112 223.3-180.5 370.5-180.5 189.9 0 367.7 113.9 427.4 288.5-47.8-85.2-144.5-138.6-247-138.6-81.6 0-159.6 33.9-212.1 90.8-35.4-67.7-110.2-107.7-194.7-107.7m264.8 276.3c0 86.7 64 150 142 150s142-63.4 142-150c0-69.4-64-132.7-142-132.7s-142 63.3-142 132.7m142 276.7c-72.8 0-136.4-23.3-184.4-63.9v94h-339.8c80.3 93.4 201.2 148.9 343.8 148.9 225.6 0 397.1-139 438.8-347-39.8 102.4-136.3 168-258.4 168m-281.1-174.4-87 81.1h154.1c-23.1-27.2-40.7-59.4-51.5-95.7-5 4.8-10.2 9.7-15.6 14.6m-124.9-44.6c32.7-35.7 64-86.3 64-137.6 0-35.7-25.3-72.9-64-72.9-39.4 0-61 30.5-61 68.4 0 7.4 0.7 15.6 2.2 23.8h-158.4c-3.8 22.2-5.8 45.1-5.8 68.7 0 86.4 20.4 164.4 57 230.1z" fill="#010202"/><path d="m1081.2 247.48-0.8869 7.0171-33.224 260.51h519.1l34.131-267.53zm69.479 29.627h32.424l-10.847 85.768h108.3l10.915-85.768h32.454l-26.314 207.78h-32.454l11.403-88.299h-108.59l-11.149 88.299h-32.464zm211.15 0h61.009c18.907 0 34.501 3.3136 46.391 9.3563h0.098c12.28 6.2374 22.123 14.326 29.335 23.975 7.3093 9.7457 12.572 20.661 15.69 32.552 3.1187 12.085 4.678 23.975 4.678 35.183 0 15.594-2.339 30.115-6.7247 43.175-4.5805 13.254-10.818 24.462-18.712 33.818-7.7967 9.4533-17.25 16.763-27.873 21.929-10.525 5.1653-22.026 7.7967-34.403 7.7967h-95.606zm28.946 27.289-0.8771 7.0171-18.225 146.19h43.954c11.793 0 22.513-2.2416 31.577-7.017 8.6736-4.5806 16.081-10.818 21.733-18.419 5.5552-7.6018 9.6488-16.275 12.182-25.826 2.6313-9.551 3.9959-19.2 3.9959-28.848 0-9.8434-1.5594-19.394-4.5805-28.263-3.0214-8.8684-7.5044-16.666-13.45-23.293v-0.0975c-6.0425-6.6272-13.546-11.89-22.22-15.691-8.8682-3.8984-19.004-5.7501-30.115-5.7501z" color="#000000" color-rendering="auto" fill="#a7a5a5" image-rendering="auto" shape-rendering="auto" solid-color="#000000" stroke-width="9.7457" style="font-feature-settings:normal;font-variant-alternates:normal;font-variant-caps:normal;font-variant-ligatures:normal;font-variant-numeric:normal;font-variant-position:normal;isolation:auto;mix-blend-mode:normal;shape-padding:0;text-decoration-color:#000000;text-decoration-line:none;text-decoration-style:solid;text-indent:0;text-transform:none;white-space:normal"/></svg>
