<svg width="200mm" height="204.19mm" version="1.1" viewBox="0 0 200 204.19" xmlns="http://www.w3.org/2000/svg">
 <g transform="translate(253.55 -66.428)">
  <path d="m-53.553 168.52a100 102.1 0 0 1-100 102.1 100 102.1 0 0 1-100-102.1 100 102.1 0 0 1 100-102.1 100 102.1 0 0 1 100 102.1z" fill="#d61a28" fill-rule="evenodd" opacity=".99" style="paint-order:stroke markers fill"/>
  <path d="m-121.25 193.37c-0.12889-0.24364-21.623-48.392-21.789-48.802-0.0514-0.12783 2.7516-0.16026 13.772-0.16026h13.837l1.8462 5.4816c1.9406 5.762 4.3391 12.879 6.1898 18.368 0.60633 1.7984 1.5294 4.5371 2.0514 6.0864 0.5219 1.5491 0.99691 2.8659 1.0556 2.9262 0.103 0.10591 0.35711-0.57992 1.7469-4.717 0.35535-1.0579 2.6292-7.8089 5.0532-15.002l4.4069-13.079 13.819-0.0327c12.043-0.0284 13.81-8e-3 13.749 0.15363-0.0585 0.15654-11.184 21.431-22.668 43.349l-2.9564 5.6419-29.971 0.0654-0.14367-0.27595zm-118.78-0.46163c-2.0646-3.3253-2.9042-8.3778-2.1608-13.007 1.0824-6.74 6.3292-11.156 15.515-13.058 3.9477-0.81766 5.5069-0.94636 19.345-1.5968 10.906-0.5126 12.571-0.62815 13.958-0.96883 1.1991-0.29434 1.8372-0.6056 2.3757-1.159 0.53202-0.54675 0.71892-0.95425 0.89939-1.9607 0.58352-3.2544-1.8324-5.3346-7.0329-6.0561-2.0878-0.28936-6.6178-0.29192-8.585-5e-3 -4.3212 0.63045-6.857 2.2764-7.806 5.0675l-0.28805 0.84713-12.233 0.0328c-11.593 0.0312-12.233 0.0209-12.232-0.19231 4.9e-4 -0.12373 0.16578-0.88918 0.36724-1.7009 1.6217-6.5339 4.5292-10.366 9.8643-13.002 0.78835-0.38952 2.1228-0.94089 2.9655-1.2252l1.5321-0.51696h40.418v18.205l11.292 0.067 0.0722 11.925c0.0691 11.388 0.0842 12.002 0.34067 13.647 0.27982 1.7946 0.71431 3.524 1.1445 4.5554 0.1385 0.3321 0.25187 0.62788 0.25187 0.65728 0 0.0293-15.666 0.0534-34.814 0.0534h-34.814l-0.37842-0.60907zm38.789-4.8939c5.5864-0.87052 9.1532-2.9778 10.763-6.3587 0.77153-1.6204 0.8966-2.2622 0.95919-4.9221l0.0555-2.3572-0.3022 0.0779c-1.7308 0.44644-6.5068 1.0269-15.498 1.8838-3.2057 0.30549-5.7764 0.61274-6.3999 0.76501-2.0415 0.49826-3.1304 1.261-3.8022 2.6634-0.394 0.82243-0.41053 0.91772-0.40513 2.3347 5e-3 1.2268 0.0538 1.6023 0.2898 2.2148 0.78878 2.0473 2.761 3.3683 5.7785 3.8706 1.6498 0.27459 6.2938 0.18109 8.5617-0.17237zm33.463 4.8931c-0.35175-0.81723-0.82014-2.5451-1.0516-3.8794-0.38821-2.2376-0.44236-4.26-0.4436-16.573l-1e-3 -12.406h-11.354v-15.644l34.991 0.0652 3.4134 7.6294c1.8774 4.1962 3.4432 7.7016 3.4796 7.7897 0.0519 0.12558-0.584 0.16026-2.9451 0.16026h-3.0112l0.0358 10.803c0.0401 12.128-3e-3 11.561 0.96402 12.69 1.0846 1.2662 2.1866 1.4439 8.392 1.3527l4.5924-0.0676-0.0329 4.3122-0.0329 4.3122-36.733 0.0652-0.26225-0.60932z" fill="#fff" stroke-width=".42162"/>
 </g>
 <style type="text/css">.st0{fill:#FFFFFF;}
	.st1{fill:#D61F2C;}
	.st2{fill:#F3F2F3;}
	.st3{fill:#9B9696;}
	.st4{fill:#EFEFEF;}
	.st5{fill:#9A9595;}</style>
</svg>
