<?xml version="1.0" encoding="UTF-8" standalone="no"?>
<svg xmlns="http://www.w3.org/2000/svg" data-name="Layer 1" viewBox="0 0 600 466.66666" height="466.67" width="600" version="1.1">
 <defs>
  <linearGradient id="a" y2="-10.73" gradientUnits="userSpaceOnUse" x2="170.73" gradientTransform="scale(3.3333)" y1="148.13" x1="11.87">
   <stop stop-color="#00803f" offset="0"/>
   <stop stop-color="#0094c9" offset="1"/>
  </linearGradient>
 </defs>
 <title>logo-bbc-earth</title>
 <path stroke-width="3.3333" fill="url(#a)" d="m0 466.67h600v-466.67h-600z"/>
 <g stroke-width="3.3333" fill="#fff">
  <path d="m159.37 239.4a49.033 49.033 0 1 0 44.667 68.933h-12.367a37.933 37.933 0 0 1 -70 -14.567h86.367c-0.01-1.76 0.46-3.66 0.46-5.43a49.033 49.033 0 0 0 -49.13 -48.93zm-37.57 43.5a38.067 38.067 0 0 1 75.333 0z"/>
  <path d="m301.63 260.83a44.367 44.367 0 0 0 -38.3 -21.433 49.033 49.033 0 1 0 0 98.033 44.733 44.733 0 0 0 38.3 -21.433v18.7h11.1v-92.6h-11.1zm-38.3 65.567a38.067 38.067 0 1 1 38.3 -38.067 38.067 38.067 0 0 1 -38.3 38.067z"/>
  <path d="m384.13 221.17h-11.06v20.93h-8.5a30.633 30.633 0 0 0 -27.5 14.567v-14.57h-10.9v92.6h10.9v-57.07c0.63-14.56 13.86-24.63 27.46-24.63h8.5v60a21.933 21.933 0 0 0 21.833 21.767h8.4667v-11.07h-8.3667a10.733 10.733 0 0 1 -10.76 -10.73v-60h19.133v-10.87h-19.13v-20.933z"/>
  <path d="m452.5 239.4a36.067 36.067 0 0 0 -31.167 18.4v-45.7h-11.067v122.63h11.067v-57.1c0.5-15.2 15.733-27.367 31.167-27.367 15.433 0 26.333 10.4 26.333 26.067v58.37h10.77v-58.37c0-21.73-13.97-36.93-37.1-36.93z"/>
  <path d="m145.9 169.57h8.6a15.1 15.1 0 0 1 8.6667 2.0667 5.9333 5.9333 0 0 1 2.6 5.0333 6.2667 6.2667 0 0 1 -2.1 4.8667 13.033 13.033 0 0 1 -8.7333 2.4h-9v-14.367zm0-21.867h6.3667a10.2 10.2 0 0 1 6.9 1.9333 5.5333 5.5333 0 0 1 1.7667 4.3667 6.1333 6.1333 0 0 1 -2.5 5.4667 14.1 14.1 0 0 1 -8.1667 1.8667h-4.37zm7.1667-8.2333h-16.67v52.73h19.533a22.033 22.033 0 0 0 15 -4.6667 13 13 0 0 0 4.5 -9.7667 14.1 14.1 0 0 0 -11.53 -13.64 13 13 0 0 0 4.53 -3.63 11.433 11.433 0 0 0 2.24 -7.17 12.767 12.767 0 0 0 -4.27 -9.53 19.433 19.433 0 0 0 -13.33 -4.3m-37.133-10.267h78.1v73.333h-78.1z"/>
  <path d="m235.87 169.57h8.6a15.067 15.067 0 0 1 8.6333 2.0667 5.8667 5.8667 0 0 1 2.6333 5.0333 6.2 6.2 0 0 1 -2.1 4.8667 12.967 12.967 0 0 1 -8.7333 2.4h-9v-14.367zm0-21.867h6.3667a10.2 10.2 0 0 1 6.9 1.9333 5.5333 5.5333 0 0 1 1.76 4.37 6.1333 6.1333 0 0 1 -2.5 5.4667 14.067 14.067 0 0 1 -8.1667 1.8667h-4.3667zm7.1667-8.2333h-16.67v52.73h19.53a22.067 22.067 0 0 0 15 -4.6667 12.967 12.967 0 0 0 4.5 -9.7667 14.1 14.1 0 0 0 -11.53 -13.64 13 13 0 0 0 4.53 -3.63 11.367 11.367 0 0 0 2.2333 -7.1667 12.7 12.7 0 0 0 -4.2667 -9.5333 19.4 19.4 0 0 0 -13.333 -4.3m-37.13-10.27h78.1v73.333h-78.1z"/>
  <path d="m338.37 138.8a32.367 32.367 0 0 0 -22 7.8667 26.367 26.367 0 0 0 -8.7333 20 25.733 25.733 0 0 0 7.2667 17.3 30.7 30.7 0 0 0 22.967 8.9667 43.033 43.033 0 0 0 20 -4.5667l0.46666-0.23333v-10l-1.24 0.77a36.667 36.667 0 0 1 -18.6 5.6333c-12.767 0-21.2-7.6-21.233-18.567-0.0333-10.967 8.8-18.7 20.933-18.733a36.667 36.667 0 0 1 18.47 5.17l1.2333 0.66666v-9.7333l-0.53333-0.2a50.767 50.767 0 0 0 -19 -4.2667m-42.5-9.6333h78.1v73.333h-78.1z"/>
 </g>
</svg>
