<svg width="600" height="450.01" version="1.1" viewBox="0 0 158.75 119.06631" xmlns="http://www.w3.org/2000/svg">
 <g transform="translate(-26.458 -89.3)">
  <path d="m26.458 89.3v119.07h158.75v-119.07zm42.575 15.567h22.257v20.944h-22.257zm25.664 0h22.257v20.944h-22.257zm25.633 0h22.257v20.944h-22.257zm12.097 2.7352c-2.5164 0-4.7201 0.82843-6.2674 2.2507-1.563 1.4223-2.4852 3.4073-2.4852 5.7048 0 1.5942 0.65657 3.4696 2.0789 4.9545 1.4067 1.4848 3.5789 2.5633 6.5486 2.5633h0.0159c2.4695 0 4.173-0.54711 5.7204-1.313l0.12516-0.0626v-2.86l-0.3596 0.21887c-1.688 1.0628-3.5637 1.6252-5.2829 1.6252-3.6417-0.0156-6.0485-2.1725-6.0485-5.3141 0-3.079 2.5163-5.3452 5.9548-5.3608 1.7662 0 3.3447 0.4532 5.2359 1.5004l0.34373 0.18744v-2.8133l-0.1563-0.0623c-2.1413-0.844-3.7822-1.2192-5.4234-1.2192zm-57.548 0.2033v15.083h5.5641c1.985 0 3.3761-0.53165 4.2826-1.3444 0.89089-0.79711 1.2815-1.844 1.2815-2.7975 0.03126-1.8912-1.266-3.3448-3.2822-3.8918 0.54704-0.28133 0.98479-0.62512 1.2974-1.0315 0.422-0.56267 0.62518-1.2506 0.62518-2.0477 0-0.98466-0.39086-1.985-1.2192-2.7352-0.82837-0.75022-2.0945-1.2345-3.7981-1.2345zm25.633 0v15.083h5.5796c1.985 0 3.3761-0.53165 4.2826-1.3444 0.89089-0.79711 1.2815-1.844 1.2815-2.7975 0-1.8912-1.266-3.3448-3.2822-3.8918 0.54703-0.28133 0.98479-0.62512 1.2974-1.0315 0.422-0.56267 0.62518-1.2506 0.62518-2.0477 0-0.98466-0.39086-1.985-1.2192-2.7352s-2.0944-1.2345-3.8137-1.2345zm-22.913 2.36h1.8133c1.0003 0 1.6098 0.23444 1.9693 0.54703 0.35948 0.31259 0.50002 0.75022 0.50002 1.2504 0 0.73459-0.23438 1.2191-0.7189 1.563-0.48452 0.34386-1.2504 0.53147-2.3289 0.53147h-1.2504zm25.617 0h1.8288c0.98466 0 1.6098 0.23444 1.9693 0.54703s0.50003 0.75022 0.50003 1.2504c0 0.73459-0.23439 1.2191-0.71891 1.563-0.48451 0.34386-1.2504 0.53147-2.3289 0.53147h-1.2504zm-25.633 6.2518h2.454c1.141 0 1.9535 0.23426 2.4693 0.59374 0.50015 0.35948 0.73478 0.84418 0.73478 1.4381 0 0.50015-0.15636 1.0004-0.60962 1.3911-0.45326 0.39074-1.2192 0.68745-2.4852 0.68745h-2.5633zm25.664 0h2.4537c1.141 0 1.9538 0.23426 2.4696 0.59374 0.50015 0.35948 0.73447 0.84418 0.73446 1.4381 0 0.50015-0.15635 1.0004-0.60961 1.3911-0.43763 0.39074-1.2192 0.68745-2.4852 0.68745h-2.563zm-11.582 19.568c3.5948 0 6.5959 1.141 9.0029 3.423 2.3913 2.2819 3.5948 5.1422 3.5948 8.5807s-1.2193 6.283-3.6263 8.5337c-2.4226 2.2507-5.4704 3.3759-9.1433 3.3759-3.5167 0-6.4393-1.1253-8.7837-3.3759-2.3444-2.2507-3.5167-5.0795-3.5167-8.4711 0-3.4854 1.1722-6.3614 3.5322-8.6433 2.3601-2.2819 5.3296-3.423 8.94-3.423zm-48.608 0.34403h3.3604l6.424 16.067 6.4704-16.067h3.1574l6.5019 16.067 6.377-16.067h3.3289l-9.4245 23.413h-0.73478l-7.6271-18.959-7.7055 18.959h-0.73447zm65.051 0h5.8455c2.3601 0 4.2354 0.57818 5.6108 1.7504 1.391 1.1722 2.0789 2.7509 2.0789 4.7359 0 1.3598-0.34386 2.532-1.0159 3.5167-0.67207 0.98467-1.6566 1.7348-2.9226 2.2193 0.75022 0.48452 1.4692 1.1567 2.1882 2.0007 0.71896 0.844 1.7191 2.313 3.0008 4.423 0.81275 1.3285 1.4692 2.3131 1.9537 2.9852l1.2348 1.6726h-3.97l-1.0159-1.5318c-0.0312-0.0625-0.0939-0.15611-0.2033-0.28115l-0.65633-0.92221-1.0315-1.7037-1.1096-1.813c-0.68771-0.9534-1.3131-1.7192-1.8914-2.2819s-1.0938-0.96916-1.5471-1.2192c-0.46889-0.25008-1.2348-0.37518-2.3289-0.37518h-0.8752v10.144h-3.3448zm21.241 0h3.3445v20.272h10.488v3.0322h-13.832zm17.818 0h7.8615c3.1728 0 5.6737 0.46883 7.5337 1.4222 1.8443 0.95341 3.3134 2.3443 4.4074 4.1886 1.0941 1.8443 1.6411 3.8608 1.6411 6.0333-0.0312 1.5786-0.34391 3.0633-0.92221 4.4856-0.59393 1.4223-1.4536 2.6727-2.5633 3.7511-1.141 1.1097-2.4537 1.9536-3.9541 2.5163-0.87526 0.34386-1.688 0.57836-2.4226 0.68777s-2.1413 0.17186-4.2044 0.17186h-7.3771zm-35.714 2.7975v7.3929h1.2659c1.688 0 2.8444-0.14079 3.4852-0.43776 0.62518-0.28133 1.1254-0.71871 1.4692-1.3126 0.34385-0.5783 0.53147-1.2505 0.53147-2.0007 0-0.7346-0.18744-1.3912-0.57817-2.0007-0.39074-0.59393-0.93777-1.0159-1.6411-1.2659-0.70333-0.25007-1.8756-0.37517-3.5167-0.37517zm-19.662 0.0314c-2.6727 0-4.8608 0.82837-6.58 2.5007-1.7193 1.6724-2.5789 3.7981-2.5789 6.3926 0 2.5164 0.85963 4.6106 2.5789 6.283 1.7193 1.6724 3.8762 2.5007 6.4707 2.5007 2.5945 0 4.7669-0.84413 6.5174-2.5478 1.7349-1.7036 2.61-3.8135 2.61-6.3611 0-2.4695-0.87514-4.5483-2.61-6.2363-1.7193-1.688-3.8605-2.5319-6.4081-2.5319zm58.705 0.14073v17.333h4.2514c1.6724 0 2.9694-0.10928 3.8915-0.34373 0.92214-0.23444 1.6881-0.51571 2.3133-0.8752 0.60956-0.34385 1.188-0.7816 1.6881-1.2974 1.6411-1.6724 2.4693-3.7824 2.4693-6.33 0.0312-2.4851-0.82831-4.517-2.5163-6.0956-0.62518-0.59393-1.344-1.0783-2.1411-1.4534-0.81274-0.37511-1.5788-0.62531-2.2977-0.75035-0.71896-0.12503-1.891-0.18743-3.4852-0.18743zm-3.4071 28.477c1.9381 0 3.7353 0.54704 5.3608 1.6411v3.7822c-1.6724-1.6099-3.4853-2.4226-5.4234-2.4226-1.0941 0-1.9852 0.25019-2.6885 0.75034-0.70334 0.50014-1.0471 1.1566-1.0471 1.9381 0 0.70334 0.26571 1.3598 0.78149 1.9537 0.51577 0.60956 1.3442 1.2502 2.4852 1.9223l2.5474 1.5163c2.8446 1.7036 4.267 3.8605 4.267 6.4863-0.0312 1.8756-0.65632 3.4071-1.9067 4.5637-1.2504 1.1722-2.876 1.7507-4.8766 1.7507-2.2976 0-4.3918-0.70357-6.283-2.1259v-4.2356c1.7974 2.2819 3.8918 3.423 6.2518 3.423 1.0472 0 1.9223-0.2969 2.61-0.8752 0.68771-0.5783 1.0474-1.3129 1.0474-2.1882 0-1.4223-1.0318-2.7666-3.0636-4.0326l-2.5319-1.5474c-1.5942-0.96903-2.7194-1.9223-3.3915-2.86-0.67208-0.93777-1.0159-2.0163-1.0159-3.2511 0-1.8287 0.6407-3.329 1.9067-4.47 1.266-1.141 2.9229-1.7193 4.9704-1.7193zm-88.792 0.31259h2.704l15.723 18.099v-18.099h3.1729v23.304h-2.8759l-15.583-17.958v17.958h-3.1418zm27.618 0h13.223v2.9696h-9.8778v7.1115h9.5496v2.9852h-9.5496v7.2366h10.19v2.9696h-13.535zm16.583 0h3.3604l6.4237 16.067 6.4707-16.067h3.1571l6.5022 16.067 6.3611-16.067h3.3292l-9.4559 23.413h-0.73478l-7.5959-18.959-7.7055 18.959h-0.7189z" fill="#fff"/>
 </g>
</svg>
