<svg width="200mm" height="248.36mm" version="1.1" viewBox="0 0 200 248.36" xmlns="http://www.w3.org/2000/svg">
 <g transform="translate(343.47 238.41)">
  <g id="#005fafff" transform="matrix(.88645 0 0 .88645 -417.14 -279.91)" fill="#005faf">
   <path d="m192.49 73.5c13.19-6.28 24.86-15.59 34.34-26.68-4.37 32.9-8.68 65.8-13 98.7-26.88-20.64-53.77-41.28-80.53-62.08 20.12 1.45 40.89-1.09 59.19-9.94z"/>
   <path d="m230.63 69.68c9.6 20.02 25.08 37.4 44.7 48.03 10.4 5.8 21.78 9.66 33.4 12.16-30.38 12.71-60.84 25.23-91.28 37.77 4.38-32.65 8.73-65.31 13.18-97.96z"/>
   <path d="m110.51 74.73c26.96 20.5 53.88 41.08 80.71 61.76-30.62 12.62-61.19 25.37-91.83 37.93 11.58-17.15 18.8-37.6 18.37-58.44 0.29-14.07-2.88-27.96-7.25-41.25z"/>
   <path d="m200.32 182.72c30.72-12.56 61.46-25.07 92.16-37.68-11.87 17.23-19.15 37.94-18.74 58.99-0.25 13.94 2.86 27.69 7.11 40.88-26.84-20.74-53.7-41.45-80.53-62.19z"/>
   <path d="m83.11 189.84c30.57-12.84 61.12-25.72 91.76-38.4-4.27 32.85-8.52 65.7-12.93 98.53-9.89-21.66-27.44-39.62-48.78-50.15-9.47-4.74-19.63-8.07-30.05-9.98z"/>
   <path d="m178.36 176.1c27.05 20.54 54.26 40.88 81.29 61.45-20.5-1.52-41.66 1.54-60.11 10.92-12.79 6.33-23.84 15.72-33.17 26.46 3.96-32.95 7.97-65.89 11.99-98.83z"/>
   <path d="m108.01 282.24c14.01 0.02 28.03-0.01 42.04 0.02 4.03 0.19 8.62 1.24 11.06 4.74 3.62 5.42 3.04 14.49-3.7 17.18 2.92 0.72 5.8 2.49 6.7 5.53 1.28 4.25 1.21 9.27-1.31 13.06-2.78 3.47-7.61 4.08-11.76 4.23h-43.04c0-14.92-0.01-29.84 0.01-44.76m13.75 10.01c-0.01 2.41-0.01 4.82 0 7.24 7.41 0.02 14.82-0.02 22.24 0.03 1.46-0.11 3.41 0.19 4.35-1.25 1.49-2.16 0.25-5.84-2.61-5.87-7.98-0.35-15.99-0.04-23.98-0.15m0 16.51c-0.02 2.66-0.01 5.32 0 7.99 7.74 0.01 15.47-0.04 23.2 0.02 1.34-0.12 2.93 0.31 4.06-0.64 2.75-1.96 1.48-7.32-2.05-7.34-8.4-0.1-16.81-0.01-25.21-0.03z"/>
   <path d="m170.49 282.26c17.09-0.04 34.18 0 51.26-0.01 0 3.66 0.02 7.34-0.02 11.01-6.25-0.02-12.49-0.01-18.73-0.01-0.01 11.25 0.01 22.5 0 33.75-4.59 0-9.17 0-13.75-0.01-0.01-11.24 0-22.49-0.01-33.73-6.25-0.02-12.49 0-18.74-0.02 0-3.66 0-7.32-0.01-10.98z"/>
   <path d="m225.73 282.24c5.04 0.01 10.09 0.02 15.13-0.01 5.54 11.09 11.29 22.08 16.71 33.24 5.95-11.03 11.74-22.14 17.58-33.23 4.98 0.01 9.97 0.01 14.95 0-7.99 14.94-16.02 29.86-24.07 44.76-5.56-0.01-11.11 0.01-16.67-0.01-7.77-14.97-15.73-29.84-23.63-44.75z"/>
  </g>
 </g>
</svg>
