<svg xmlns="http://www.w3.org/2000/svg" height="600" width="600" version="1.1" viewBox="0 0 158.75 158.75002">
 <g transform="translate(-193.95 42.749)">
  <g fill-rule="evenodd">
   <ellipse rx="79.299" ry="79.375" cy="36.626" cx="273.25" fill="#55585d"/>
   <ellipse rx="63.931" ry="64.164" cy="38.806" cx="288.77" fill="#7d8085"/>
   <ellipse rx="46.831" ry="46.702" cy="44.171" cx="305.42" fill="#fff"/>
  </g>
  <ellipse rx="7.2588" ry="6.0949" cy="32.042" cx="310.68" fill="none"/>
  <g fill-rule="evenodd">
   <path d="m310.75 14.159c-13.199-0.239-22.335 5.3253-22.432 15.737-0.0613 6.504 2.64 9.43 6.982 12.125-7.1839 3.965-9.1746 6.8447-8.869 15.021 0.4033 10.789 9.8703 16.929 24.319 16.86 14.223 0.14425 23.855-6.1572 24.189-16.86 0.2285-7.325-1.883-11.58-8.8725-15.021 4.9979-1.9015 7.3012-5.7869 7.2197-12.125-0.11125-8.657-6.2218-15.511-22.537-15.737z" fill="#3d4142"/>
   <ellipse rx="8.1847" ry="7.5618" cy="54.278" cx="310.81" fill="#fff"/>
   <ellipse rx="7.4547" ry="6.0909" cy="31.774" cx="311.01" fill="#fff"/>
  </g>
 </g>
</svg>
