<?xml version="1.0" encoding="UTF-8" standalone="no"?>
<!-- Generator: Adobe Illustrator 22.1.0, SVG Export Plug-In . SVG Version: 6.00 Build 0)  -->

<svg
   xmlns:dc="http://purl.org/dc/elements/1.1/"
   xmlns:cc="http://creativecommons.org/ns#"
   xmlns:rdf="http://www.w3.org/1999/02/22-rdf-syntax-ns#"
   xmlns:svg="http://www.w3.org/2000/svg"
   xmlns="http://www.w3.org/2000/svg"
   xmlns:sodipodi="http://sodipodi.sourceforge.net/DTD/sodipodi-0.dtd"
   xmlns:inkscape="http://www.inkscape.org/namespaces/inkscape"
   version="1.1"
   id="Livello_1"
   x="0px"
   y="0px"
   viewBox="0 0 1286.6 1077.5"
   style="enable-background:new 0 0 1286.6 1077.5;"
   xml:space="preserve"
   sodipodi:docname="canale5.default.svg"
   inkscape:version="0.92.3 (2405546, 2018-03-11)"><metadata
   id="metadata17"><rdf:RDF><cc:Work
       rdf:about=""><dc:format>image/svg+xml</dc:format><dc:type
         rdf:resource="http://purl.org/dc/dcmitype/StillImage" /><dc:title></dc:title></cc:Work></rdf:RDF></metadata><defs
   id="defs15" /><sodipodi:namedview
   pagecolor="#ffffff"
   bordercolor="#666666"
   borderopacity="1"
   objecttolerance="10"
   gridtolerance="10"
   guidetolerance="10"
   inkscape:pageopacity="0"
   inkscape:pageshadow="2"
   inkscape:window-width="1920"
   inkscape:window-height="983"
   id="namedview13"
   showgrid="false"
   inkscape:zoom="0.69301044"
   inkscape:cx="646.18595"
   inkscape:cy="538.75"
   inkscape:window-x="0"
   inkscape:window-y="27"
   inkscape:window-maximized="1"
   inkscape:current-layer="g10" />
<style
   type="text/css"
   id="style2">
	.st0{fill:#163764;}
</style>
<g
   id="g10">
	<path
   class="st0"
   d="M395.6,662.5L441,456.8c134.9,0,315.1-0.3,446.7,0.6c76.3,0.5,151,11.4,222,41.2   c224.1,93.9,219.8,335.3,73.4,460.9c-78.2,67.1-170.7,100.8-271.3,112.1c-119.3,13.4-237.2,5.2-350.3-39   c-65-25.4-122.8-61.4-161.4-122.1c-22.1-34.7-31.9-71.2-31.9-114c0-12.8,0.4-17.5,0.4-17.5c80.1,0.5,189.2,0.2,269.2,0.7   c0,0,0.6,2.4,2.2,6c24.7,54.1,89.3,71.1,125.7,76.6c45.4,6.8,124.4,9.9,182.5-19.5c14.5-7.3,28.6-16.7,40.3-27.7   c39.7-37.3,34.5-91.9-10.9-122.5c-37.3-25.1-80.1-29.3-123.3-29.5C710.9,662.5,395.6,662.5,395.6,662.5z"
   id="path4" />
	<path
   class="st0"
   d="M1223.4,353.3h-760L502,175.6c85.1,0.2,225.2,0.7,310.2-2.2c95.4-3.3,167.5-16.5,256.6-53.3   C1127.2,96,1175,65.7,1206.1,8.2c2.7-5,3.5-8.2,3.5-8.2h14.4c0,0,0,8.1,0,12.2C1224,123.7,1223.4,353.3,1223.4,353.3z"
   id="path6" />
	<path
   class="st0"
   d="M381.3,304.2c0-29-21.7-53.1-49.5-56.8c-1.5-0.2-2.2-1.9-1.3-3.1c7.1-9.5,11.4-21.5,11.4-34.6   c0-31.6-25.5-57.3-57.3-57.3c-19.3,0-30.5,7.8-35.3,12.2c-1.1,1.1-3,0.4-3.2-1.2c-3.9-26.8-27.3-46.2-55.5-46.2   c-28.1,0-51.1,20.5-55.4,47.2c-0.3,1.6-2.2,2.2-3.3,1.1c-4.8-4.6-15.9-12.8-34.9-12.8c-31.5,0-57.3,25.7-57.3,57.3   c0,13.5,4.7,25.9,12.4,35.6c1,1.2,0.2,2.9-1.3,3.1C22.2,252.2,0,276.5,0,305.9s22.4,53.3,51,56.7c1.5,0.2,2.2,1.9,1.3,3.1   c-7.3,9.6-11.7,21.8-11.7,34.7c0,31.6,25.8,57.4,57.3,57.4c12.4,0,23.9-3.9,33.3-10.6c1.2-0.8,2.8-0.2,3,1.3   c4.6,27,28,47.7,56.4,47.7c29.3,0,53.1-21.8,56.7-49.9c0.2-1.5,1.9-2.2,3.1-1.3c9.7,7.3,21.6,11.6,34.7,11.6   c31.8,0,57.3-25.8,57.3-57.4c0-18.5-7.6-29.8-11.9-34.7c-1-1.2-0.3-3.1,1.2-3.3C359.6,357.3,381.3,333.3,381.3,304.2 M191,364.5   c-33.4,0-60.1-27.1-60.1-60.3s26.7-60.3,60.1-60.3s60.4,27.1,60.4,60.3S224.4,364.5,191,364.5"
   id="path8" />
</g>
</svg>