<?xml version="1.0" encoding="UTF-8" standalone="no"?>
<!-- Created with Inkscape (http://www.inkscape.org/) -->
<svg xmlns:dc="http://purl.org/dc/elements/1.1/" xmlns:cc="http://creativecommons.org/ns#" xmlns:rdf="http://www.w3.org/1999/02/22-rdf-syntax-ns#" xmlns:svg="http://www.w3.org/2000/svg" xmlns="http://www.w3.org/2000/svg" xmlns:sodipodi="http://sodipodi.sourceforge.net/DTD/sodipodi-0.dtd" xmlns:inkscape="http://www.inkscape.org/namespaces/inkscape" version="1.0" width="122" height="93" id="svg2" inkscape:version="0.48.4 r9939" sodipodi:docname="CNN Türk logo.svg">
  <title id="title2987">CNN Türk logo</title>
  <metadata id="metadata10">
    <rdf:RDF>
      <cc:Work rdf:about="">
        <dc:format>image/svg+xml</dc:format>
        <dc:type rdf:resource="http://purl.org/dc/dcmitype/StillImage"/>
        <dc:title>CNN Türk logo</dc:title>
      </cc:Work>
    </rdf:RDF>
  </metadata>
  <sodipodi:namedview pagecolor="#ffffff" bordercolor="#666666" borderopacity="1" objecttolerance="10" gridtolerance="10" guidetolerance="10" inkscape:pageopacity="0" inkscape:pageshadow="2" inkscape:window-width="1600" inkscape:window-height="844" id="namedview8" showgrid="false" inkscape:zoom="1" inkscape:cx="43.5" inkscape:cy="46.5" inkscape:window-x="-4" inkscape:window-y="-4" inkscape:window-maximized="1" inkscape:current-layer="svg2"/>
  <defs id="defs4"/>
  <g id="layer1" transform="matrix(1.0758384,0,0,1.1256678,-4.4239043,-6.4073433)">
    <path d="m 5,60 0,14 0,14 56,0 56,0 0,-14 0,-14 -56,0 -56,0 z m 32.21875,4.177411 4.833359,0 L 42,67.09375 l -4.78125,0 0,-2.916339 z m 11.8125,0.03125 4.75,-0.05211 0,2.905948 -4.75,0 0,-2.853839 z M 66,64 l 6,0 c 9.746119,-0.436383 11.118767,5.052402 6.125,10.65625 1.409837,2.958165 2.911807,5.639754 4.3125,9.125 -1.324896,0.17478 -3.233756,0.321498 -4.65625,0.125 -1.956731,-3.868294 -3.455269,-6.636578 -4.625,-7.59375 -0.542256,-0.443723 -1.108773,-0.399753 -1.4375,-0.0625 -0.689357,0.707235 -0.704255,3.576677 -0.75,7.46875 C 69.371517,83.712551 67.390135,83.53579 66,83.65625 65.955701,82.455252 66,79.9375 66,74 l 0,-10 z m 41.21875,0.3125 c 0.7345,-0.01884 1.38834,-0.0042 1.96875,0.09375 -1.47739,3.077126 -3.31647,6.124969 -5.1875,9.15625 L 111.15625,84 c -1.92634,-0.112981 -3.73902,-0.122159 -5.53125,-0.09375 L 98.125,74.75 98.25,84.03125 92.75,84 c 0.05779,-0.788765 -0.0397,-18.892166 -0.02613,-19.302108 0.814611,0.02449 4.099368,-0.01428 5.18238,0.02086 L 98.1875,73.125 c 2.32906,-2.804686 4.37102,-5.8485 6.59375,-8.6875 0.88783,-0.05378 1.703,-0.106156 2.4375,-0.125 z m -93.25,0.03125 c 4.446624,-0.02629 12.50861,0.02568 13.5,0.03125 0.07656,0.97029 0.122878,1.992306 0.0625,2.65625 L 22,67 c 0.0017,0.461411 0.05194,16.169089 0.03125,16.9375 -1.529762,0.149714 -3.758052,0.0759 -5.375,-0.09375 -0.01489,-1.444136 0.08849,-15.686147 -0.0625,-16.5625 -1.643982,-0.06493 -3.599695,0.08092 -5.3125,-0.0625 0.03559,-0.752571 -0.03498,-2.02512 -0.15625,-2.8125 0.284006,-0.02802 1.361542,-0.05374 2.84375,-0.0625 z m 37.375,4.5625 c 0.944735,0.0028 1.937151,0.05983 2.625,0.15625 C 54.009099,69.933712 54,71.723707 54,74.375 54,78.077012 53.452127,80.403778 52.25,81.78125 49.313257,85.146353 42.26434,85.390439 38.75,82.25 37.461298,81.098407 37,79.148027 37,74.84375 c 0,-3.088099 0.06591,-4.568057 0.0625,-5.625 1.360386,-0.09613 3.483256,-0.09037 4.875,-0.09375 0.01468,0.93122 0.03125,1.971098 0.03125,4.71875 0,9.474967 7.111813,8.51488 7.09375,0.3125 -0.0061,-2.790394 0.08962,-3.983929 0,-5.125 0.439463,-0.07657 1.336515,-0.12785 2.28125,-0.125 z" id="path2552" style="fill:#000000" inkscape:connector-curvature="0"/>
    <path d="m 71.375,67.71875 c -0.272166,1.225195 -0.292937,2.688504 -0.125,3.9375 5.368989,1.640388 6.249799,-4.792889 0.125,-3.9375 z" id="path2558" style="fill:#000000" inkscape:connector-curvature="0"/>
    <path d="m 50.71875,6 c -2.787353,0.5836486 -5.272506,0.6635953 -6.479714,4.163421 -0.974549,2.825323 -0.934773,8.060856 -0.957786,16.180329 l -0.25,16.375 -6.4375,0.09375 C 26.780524,43.31837 21,39.3459 21,32.09375 21,25.062833 26.274228,21 35.4375,21 L 41,21 l 0,-6.90625 -7.46875,0.125 c -5.948188,0.381732 -8.323539,1.023378 -11.59375,3.1875 -4.735542,3.133834 -7.873203,9.113252 -7.90625,15 -0.03916,6.975866 5.756796,14.467825 12.875,16.625 6.971719,0.58425 15.243657,1.54159 22.0625,-0.5 1.319715,-8.902868 0.60296,-18.271546 0.8125,-27.34375 0.223363,-7.962979 0.315448,-8.305855 2.4375,-8 1.668011,0.240413 4.962885,4.770247 13.34375,18.3125 6.126794,9.9 12.446188,18.375001 12.9375,18.375 0.491313,0 0.727047,-7.185964 0.65625,-17.78125 -0.10023,-15.000187 0.127092,-18.278399 1.4375,-18.78125 2.27422,-0.872701 3.688739,0.90485 14.875,18.8125 5.5802,8.933118 11.1224,16.936633 11.78125,17.15625 0.90587,0.301956 0.75,-5.365893 0.75,-21.6875 L 108,6 l -6.21875,0 0,11.75 L 101.5,29.5 96.53125,21.03125 C 89.494748,9.049148 86.620631,6.1754571 82.34375,6 75.030875,5.6999927 72.720315,9.1854108 72,20.25 l -0.5,7.71875 -5.84375,-9.5 C 59.453934,8.374755 56.616718,5.8480451 50.71875,6 z M 110,6 l 0,21.4375 c 0,18.20005 -0.15985,21.496618 -1.28125,23.28125 -0.65412,1.04098 -2.22316,0.618789 -2.71875,0.3125 -0.49559,-0.30629 -5.97716,-8.219986 -12.09375,-18.09375 -6.116588,-9.873765 -12.037766,-18 -12.53125,-18 -0.493483,0 -0.366579,7.6 -0.375,16.8125 -0.0084,9.2125 0.03248,17.664635 -0.4375,18.40625 -2.305359,3.637773 -6.291021,-2.158611 -24.4375,-30.625 -2.589746,-4.062535 -3.465896,-4.069161 -4.6875,-4.875 -0.475616,-0.313743 -0.218749,8.283669 -0.21875,17.84375 0,11.417323 -0.0061,17.184528 -0.71875,17.625 C 48.426192,51.406683 26.967192,51.78623 23,49.5 17.278214,46.202625 12.037173,38.566728 12.083283,31.531401 12.106892,27.929189 15.286962,20.930351 18.625,17.8125 22.638915,14.063357 26.049852,12.895783 34.0625,12.895783 L 41,12.687349 41,6.15625 32.75,6.1875 C 22.853701,6.730588 18.004947,8.9392887 12.3125,15.40625 7.803913,20.528275 6,25.500687 6,32.90625 6,44.354627 13.156584,53.44684 25,57.0625 28.650383,58.17692 49.28389,57.641128 52.375,57.03125 57.687199,55.983149 58.306117,52.486554 58,42.8125 l 0,-7.3125 6.5,9.875 c 3.560361,5.430967 7.244762,10.479711 8.21875,11.21875 2.995794,2.273146 9.026981,1.723016 11.8125,-1.0625 C 87.01668,53.045819 87.393996,50.903802 87.125,40.25 87.06598,37.9125 87.206611,36 87.4375,36 c 0.230894,0 2.548467,3.4875 5.15625,7.75 C 99.52193,55.074336 102.54211,58 107.25,58 c 3.61767,0.212689 6.51611,-1.56418 8.38171,-4.155576 1.07174,-1.921699 0.97556,-2.511867 0.97556,-2.511867 L 116.57602,5.9263074 110,6 z" id="path2477" style="fill:#cf0125;fill-opacity:1" inkscape:connector-curvature="0"/>
  </g>
</svg>