<svg width="200mm" height="74.786mm" version="1.1" viewBox="0 0 200 74.786" xmlns="http://www.w3.org/2000/svg">
 <g transform="translate(258.36 -41.386)">
  <g stroke-width=".35846">
   <path d="m-232.76 60.668c-1.5698 0-3.0377 0.28931-4.4201 0.87327-1.3715 0.58934-2.5663 1.3983-3.5842 2.4377-1.018 1.0394-1.8162 2.2394-2.4055 3.5896-0.58934 1.3555-0.88399 2.8074-0.88399 4.3771v13.849c0 1.5858 0.29467 3.0645 0.8947 4.4305 0.59469 1.3769 1.4037 2.5663 2.4109 3.5681 1.0126 1.0072 2.202 1.8162 3.5628 2.4216 1.3662 0.61077 2.8395 0.91614 4.4255 0.91614h17.364v-8.4165h-15.628c-1.2858 0-2.368-0.44466-3.2627-1.3287-0.88399-0.88399-1.3287-1.993-1.3287-3.3163v-10.405c0-1.2965 0.43933-2.4002 1.3233-3.311 0.88936-0.90542 1.9716-1.3555 3.2681-1.3555h15.628v-8.3309h-17.364zm29.82-0.17144c-1.3876 0-2.6895 0.26252-3.9057 0.78756-1.2269 0.52503-2.2823 1.2322-3.1663 2.1269-0.88937 0.88399-1.5912 1.9341-2.1055 3.1395-0.50897 1.2054-0.7715 2.4913-0.7715 3.8412v1.6662c0 1.3822 0.26252 2.6627 0.77684 3.8573 0.51968 1.1894 1.2269 2.2448 2.1216 3.1663 0.8947 0.92148 1.9501 1.6394 3.1556 2.1537 1.2054 0.51969 2.502 0.78218 3.895 0.78218h14.69c0.93758 0 1.7144 0.3161 2.3413 0.94829 0.62148 0.63217 0.92685 1.3876 0.92685 2.2769v0.809c0 0.92148-0.31074 1.7037-0.93757 2.368-0.63217 0.65361-1.409 0.98045-2.3305 0.98045h-21.885v7.4684h23.616c1.3822 0 2.6788-0.25715 3.8788-0.77684 1.2054-0.5197 2.2662-1.2269 3.1824-2.1269 0.92152-0.90542 1.6448-1.9609 2.1591-3.1824 0.5197-1.2162 0.78219-2.5073 0.78219-3.8735v-1.6662c0-1.334-0.26252-2.6091-0.77684-3.8201-0.51432-1.2054-1.2269-2.2609-2.1377-3.161-0.91614-0.90008-1.9823-1.6073-3.1931-2.1269-1.2215-0.51969-2.518-0.78756-3.895-0.78756h-14.685c-0.90542 0-1.6769-0.31609-2.3198-0.9483-0.63754-0.63755-0.959-1.4144-0.959-2.3413v-0.809c0-0.92686 0.32145-1.7037 0.959-2.3359 0.63218-0.63217 1.409-0.94829 2.3198-0.94829h21.934v-7.4684h-23.67zm-55.424-6.4077v49.381c0 8.39 4.3448 12.703 12.821 12.703h72.326c8.4757 0 12.821-4.3129 12.821-12.703v-49.381c0-8.3954-4.3448-12.703-12.821-12.703h-72.326c-8.4757 0-12.821 4.3076-12.821 12.703m6.9325 4.0341c0-4.8915 3.236-8.138 8.1007-8.138h66.698c4.87 0 8.1061 3.2467 8.1061 8.138v41.312c0 4.8915-3.236 8.138-8.1061 8.138h-66.698c-4.8646 0-8.1007-3.2467-8.1007-8.138z" fill="#ee3430"/>
   <path d="m-152.28 81.301v-7.3344h7.0078v-7.8115c0-2.1484 0.88935-3.852 2.6573-5.1273 1.5591-1.1144 3.4556-1.6715 5.6951-1.6715h7.4845v7.3344h-8.2183v7.2756h8.2183v7.3344h-8.2183v15.74h-7.6182v-15.74h-7.0078z" fill="#3b3996"/>
   <path d="m-118.19 62.754c2.4698 0 3.6968 1.1036 3.6968 3.311 0 1.0554-0.30538 1.9341-0.92685 2.6413-0.6697 0.77147-1.559 1.1626-2.6627 1.1626-1.1519 0-2.0894-0.3536-2.8127-1.0608-0.73397-0.71254-1.0983-1.6233-1.0983-2.743 0-2.2073 1.2697-3.311 3.8039-3.311m3.8093 34.283h-7.6132v-23.075h7.6132z" fill="#3b3996"/>
   <path d="m-99.237 97.04h-7.6132v-37.681h7.6132z" fill="#3b3996"/>
   <path d="m-70.56 81.301v15.74h-7.6132v-15.74h-4.913v15.74h-7.6132v-23.075h24.146c2.0894 0 3.9376 0.64827 5.5503 1.9501 1.7573 1.4197 2.6413 3.1342 2.6413 5.1485v15.976h-7.6183v-15.74h-4.5807z" fill="#3b3996"/>
  </g>
 </g>
</svg>
