<svg width="200mm" height="82.35mm" version="1.1" viewBox="0 0 200 82.35" xmlns="http://www.w3.org/2000/svg">
 <g transform="translate(158.8 -17.5)">
  <path d="m-130.73 38.637c-1.7208 0-3.33 0.31714-4.8454 0.95728-1.5035 0.64605-2.8132 1.5329-3.929 2.6722-1.1159 1.1394-1.991 2.4549-2.637 3.9349-0.64605 1.4859-0.96907 3.0774-0.96907 4.7982v15.182c0 1.7384 0.32303 3.3594 0.98081 4.8568 0.6519 1.5094 1.5387 2.8132 2.6429 3.9115 1.11 1.1041 2.4138 1.991 3.9055 2.6546 1.4976 0.66952 3.1127 1.0043 4.8513 1.0043h19.035v-9.2263h-17.132c-1.4095 0-2.5959-0.48746-3.5766-1.4565-0.96904-0.96904-1.4565-2.1848-1.4565-3.6354v-11.406c0-1.4213 0.48159-2.6311 1.4506-3.6295 0.97493-0.99253 2.1613-1.4859 3.5825-1.4859h17.132v-9.1324h-19.035zm32.689-0.18794c-1.5211 0-2.9483 0.28778-4.2815 0.86334-1.3449 0.57554-2.5019 1.3508-3.471 2.3316-0.97494 0.96904-1.7443 2.1202-2.3081 3.4416-0.55792 1.3214-0.84572 2.731-0.84572 4.2108v1.8265c0 1.5152 0.28777 2.9189 0.85158 4.2285 0.56968 1.3038 1.3449 2.4608 2.3257 3.471 0.9808 1.0101 2.1378 1.7971 3.4592 2.361 1.3214 0.56969 2.7427 0.85744 4.2697 0.85744h16.104c1.0278 0 1.8794 0.34651 2.5665 1.0395 0.68128 0.693 1.016 1.5211 1.016 2.496v0.88683c0 1.0101-0.34063 1.8676-1.0278 2.5959-0.69299 0.71649-1.5446 1.0748-2.5548 1.0748h-23.991v8.187h25.888c1.5152 0 2.9365-0.2819 4.2521-0.85159 1.3214-0.56969 2.4843-1.3449 3.4886-2.3316 1.0102-0.99252 1.803-2.1495 2.3668-3.4886 0.5697-1.3332 0.85743-2.7486 0.85743-4.2462v-1.8265c0-1.4624-0.28777-2.8602-0.85158-4.1876-0.5638-1.3214-1.3449-2.4784-2.3433-3.4651-1.0043-0.98668-2.173-1.7619-3.5003-2.3316-1.339-0.56969-2.7603-0.86333-4.2697-0.86333h-16.098c-0.99253 0-1.8383-0.34651-2.543-1.0395-0.69889-0.69888-1.0513-1.5505-1.0513-2.5665v-0.88683c0-1.016 0.35238-1.8676 1.0513-2.5606 0.69299-0.693 1.5446-1.0395 2.543-1.0395h24.044v-8.187h-25.947zm-60.757-7.0243v54.132c0 9.1973 4.7629 13.925 14.054 13.925h79.284c9.2911 0 14.054-4.7279 14.054-13.925v-54.132c0-9.2031-4.7629-13.925-14.054-13.925h-79.284c-9.2912 0-14.054 4.722-14.054 13.925m7.5995 4.4222c0-5.3621 3.5473-8.921 8.8801-8.921h73.115c5.3385 0 8.886 3.5591 8.886 8.921v45.287c0 5.3621-3.5473 8.921-8.886 8.921h-73.115c-5.3326 0-8.8801-3.559-8.8801-8.921z" fill="#ee3430" stroke-width=".39294"/>
  <path d="m-40.712 86.721v-6.1173h5.8449v-6.5152c0-1.7919 0.74177-3.2127 2.2164-4.2765 1.3003-0.92944 2.8822-1.3942 4.7501-1.3942h6.2425v6.1173h-6.8545v6.0682h6.8545v6.1173h-6.8545v13.128h-6.354v-13.128h-5.8449z" fill="#3b3996" stroke-width=".29897"/>
  <path d="m-12.283 71.252c2.06 0 3.0833 0.92051 3.0833 2.7615 0 0.8803-0.25471 1.6131-0.77305 2.203-0.55857 0.64344-1.3003 0.96965-2.2209 0.96965-0.96071 0-1.7427-0.29492-2.346-0.88478-0.61217-0.5943-0.91604-1.354-0.91604-2.2879 0-1.841 1.059-2.7615 3.1727-2.7615m3.1772 28.594h-6.3499v-19.246h6.3499z" fill="#3b3996" stroke-width=".29897"/>
  <path d="m3.5267 99.849h-6.3499v-31.428h6.3499z" fill="#3b3996" stroke-width=".29897"/>
  <path d="m27.444 86.721v13.128h-6.3498v-13.128h-4.0977v13.128h-6.3499v-19.246h20.139c1.7427 0 3.2842 0.54069 4.6293 1.6265 1.4657 1.1841 2.203 2.6141 2.203 4.2941v13.325h-6.354v-13.128h-3.8206z" fill="#3b3996" stroke-width=".29897"/>
  <path d="m-43.903 39.331s-0.23727-13.228 5.3516-6.3176c5.5929 6.9107 2.2245-0.01695 7.5167-2.2626 1.8474-0.77964 3.6226-0.32203 4.9701 0.2627 1.3516 0.59319 2.4406 1.5338 3.2711 2.8304 0.76692-1.9364 1.6906-3.3814 2.7711-4.3261 1.0805-0.94912 2.5041-1.6101 4.2837-1.983 2.6482-0.55506 4.9321-0.05503 6.8387 1.4999 1.9109 1.555 3.2923 4.2711 4.1396 8.1395l2.8346 12.902-9.9106 2.0889-2.4914-11.334c-0.24576-1.1228-0.61862-1.9152-1.1016-2.3897-0.67795-0.68641-1.3856-0.9576-2.1228-0.79658-0.91946 0.19067-1.5762 0.74151-1.966 1.6525-0.39404 0.90674-0.38133 2.3008 0.02972 4.1778l2.1609 9.8428-9.9148 2.0804-2.3643-10.767c-0.25847-1.1567-0.4788-1.9194-0.66525-2.2796-0.29236-0.55083-0.67795-0.96607-1.1525-1.2372-0.47455-0.27118-0.97877-0.35168-1.5084-0.23728-0.89826 0.18643-1.5508 0.74572-1.9575 1.6779-0.40679 0.92791-0.39404 2.377 0.04237 4.3515l2.1143 9.6478-9.9106 2.0847-1.2584-19.308z" fill="#8fc742" stroke-width=".29897"/>
  <path d="m-2.1127 53.5 6.093-0.53388v-23.308c0.41524-0.44489 0.77539-0.94486 1.0593-1.4872 0.72031 0.4449 1.5677 0.70336 2.4787 0.70336 2.5889 0 4.6906-2.0762 4.6906-4.6397 0-2.5592-2.1016-4.6397-4.6906-4.6397-1.2499 0-2.3897 0.48725-3.2328 1.2796-1.2415-1.5211-3.144-2.4999-5.2753-2.4999-3.75 0-6.7879 3.0041-6.7879 6.7158 0 2.6567 1.5593 4.9489 3.8262 6.038l1.8389 22.372z" fill="#ffca2c" stroke-width=".29897"/>
  <path d="m-6.0501 25.211c0 2.8304 2.3219 5.1313 5.1821 5.1313 2.3558 0 4.3473-1.5635 4.9785-3.6947 0.63134 0.76268 1.5932 1.2499 2.6736 1.2499 1.9025 0 3.4489-1.5338 3.4489-3.4193 0-1.8855-1.5465-3.4152-3.4489-3.4152-1.3177 0-2.4618 0.72878-3.0465 1.7966-0.86015-1.6482-2.5974-2.7711-4.6057-2.7711-2.86 0-5.1821 2.2923-5.1821 5.1226" fill="#e9e9ea" stroke-width=".29897"/>
  <path d="m-4.3221 25.211c0-1.8855 1.5465-3.4151 3.4531-3.4151 1.9109 0 3.4531 1.5296 3.4531 3.4151 0 1.8855-1.5423 3.4193-3.4531 3.4193-1.9067 0-3.4531-1.5338-3.4531-3.4193" stroke-width=".29897"/>
  <path d="m4.8055 24.479c0-1.2118 0.99573-2.1948 2.2203-2.1948 1.2288 0 2.2245 0.98302 2.2245 2.1948 0 1.2161-0.99573 2.1991-2.2245 2.1991-1.2245 0-2.2203-0.98302-2.2203-2.1991" stroke-width=".29897"/>
  <path d="m-6.9291 19.061 1.0805 2.8643 5.2287-2.0804-0.75844-1.805-5.5507 1.0211z" stroke-width=".29897"/>
  <path d="m4.2733 20.481 5.6057 1.3559 0.29236-2.9194-5.6141-0.48727-0.28389 2.0508z" stroke-width=".29897"/>
  <path d="m8.157 34.088s4.843-12.033 7.309-3.7796c2.4872 8.309 2.055 0.78387 7.8091 0.66521 2.0126-0.04667 3.4872 1.0169 4.521 2.0508 1.0338 1.0338 1.6864 2.2965 1.9618 3.788 1.4745-1.4915-0.30507 8.1861-0.6483 10.067l-1.805 9.8598-10.051-1.8813 1.9745-10.716c0.21186-1.1525 0.30082-1.9236 0.26693-2.3177-0.0635-0.61862-0.25422-1.1356-0.58896-1.555-0.33048-0.42371-0.76692-0.68219-1.3008-0.77538-0.89826-0.16102-1.716 0.10588-2.4448 0.80082-0.73302 0.69911-1.2796 2.0211-1.6398 3.9659l-1.7711 9.5632-9.8385-1.8389 6.2455-17.898z" fill="#ee322b" stroke-width=".29897"/>
  <path d="m28.263 33.666c0 2.0889 0.99997 3.9363 2.555 5.11l1.2754 16.063s8.6226-0.24152 8.1479-0.95337c-0.34322-0.5127-1.661-9.4828-2.3897-14.597 1.9957-1.0932 3.3473-3.2032 3.3473-5.6228 0-3.5506-2.8982-6.4234-6.47-6.4234-3.5719 0-6.4659 2.8728-6.4659 6.4234" fill="#5dc8db" stroke-width=".29897"/>
  <path d="m29.22 33.427c0-2.6313 2.144-4.7584 4.7922-4.7584 2.644 0 4.788 2.127 4.788 4.7584 0 2.627-2.144 4.7539-4.788 4.7539-2.6482 0-4.7922-2.127-4.7922-4.7539" fill="#e9e9ea" stroke-width=".29897"/>
  <path d="m30.2 32.093c0-1.2161 0.99572-2.1948 2.2202-2.1948 1.2288 0 2.216 0.97878 2.216 2.1948s-0.98727 2.1948-2.216 2.1948c-1.2245 0-2.2202-0.97878-2.2202-2.1948" stroke-width=".29897"/>
  <path d="m4.2733 20.481 5.6057 1.3559 0.29236-2.9194-5.6141-0.48727-0.28389 2.0508z" stroke-width=".29897"/>
 </g>
</svg>
