<svg width="600" height="314.5" version="1.1" viewBox="0 0 158.75 83.212537" xmlns="http://www.w3.org/2000/svg">
 <g transform="translate(-150.09 -21.174)">
  <g transform="matrix(.99009 0 0 .99009 2.2729 .62186)" shape-rendering="auto">
   <path d="m247.34 41.553 14.727 41.781 0.59179-0.03125c4.0406-0.20899 8.0724 0.56839 11.746 2.2637l0.1582 0.07227h0.0762c1.224 0.60521 2.4847 1.1339 3.7852 1.5508l0.73437 0.23438 16.168-45.871h-13.768v0.66601l-10.064 30.244-10.287-30.91zm2.2441 1.5879h10.479l11.432 34.354 11.432-34.354h10.156l-14.887 42.244c-1.0357-0.3664-2.0656-0.75292-3.0469-1.248l-0.16797-0.08398h-0.13672c-3.6591-1.649-7.6399-2.4039-11.648-2.291z" color="#000000" color-rendering="auto" dominant-baseline="auto" fill="#fff" image-rendering="auto" solid-color="#000000" style="font-feature-settings:normal;font-variant-alternates:normal;font-variant-caps:normal;font-variant-east-asian:normal;font-variant-ligatures:normal;font-variant-numeric:normal;font-variant-position:normal;isolation:auto;mix-blend-mode:normal;paint-order:markers stroke fill;shape-padding:0;text-decoration-color:#000000;text-decoration-line:none;text-decoration-style:solid;text-indent:0;text-orientation:mixed;text-transform:none;white-space:normal"/>
   <path d="m282.35 42.347-10.859 32.633-10.859-32.633h-12.173l14.156 40.164c4.169-0.21564 8.328 0.58567 12.118 2.3349h0.0553c1.2481 0.62976 2.5438 1.1605 3.8751 1.5872l15.538-44.086h-11.851z" color="#000000" color-rendering="auto" dominant-baseline="auto" fill="#cf0a2c" image-rendering="auto" solid-color="#000000" style="font-feature-settings:normal;font-variant-alternates:normal;font-variant-caps:normal;font-variant-east-asian:normal;font-variant-ligatures:normal;font-variant-numeric:normal;font-variant-position:normal;isolation:auto;mix-blend-mode:normal;paint-order:markers stroke fill;shape-padding:0;text-decoration-color:#000000;text-decoration-line:none;text-decoration-style:solid;text-indent:0;text-orientation:mixed;text-transform:none;white-space:normal"/>
  </g>
  <g transform="matrix(.99009 0 0 .99009 2.2729 .62186)" shape-rendering="auto">
   <path d="m206.06 41.553v11.188l1.0137-0.60938h13.018v31.146l0.73632 0.05273c3.0099 0.21751 5.9559 0.97472 8.6973 2.2363l0.1582 0.07227h0.0488c0.80215 0.39737 1.6195 0.76369 2.457 1.0801l1.0742 0.40625v-34.994h14.031v-10.578zm1.5879 1.5879h38.059v7.4043h-14.031v34.217c-0.47488-0.20473-0.95815-0.39181-1.4199-0.625l-0.16797-0.08398h-0.10156c-2.6307-1.185-5.4382-1.8973-8.3066-2.1855v-31.322h-14.031z" color="#000000" color-rendering="auto" dominant-baseline="auto" fill="#fff" image-rendering="auto" solid-color="#000000" style="font-feature-settings:normal;font-variant-alternates:normal;font-variant-caps:normal;font-variant-east-asian:normal;font-variant-ligatures:normal;font-variant-numeric:normal;font-variant-position:normal;isolation:auto;mix-blend-mode:normal;paint-order:markers stroke fill;shape-padding:0;text-decoration-color:#000000;text-decoration-line:none;text-decoration-style:solid;text-indent:0;text-orientation:mixed;text-transform:none;white-space:normal"/>
   <path d="m206.85 51.338h14.031v31.2c3.1049 0.22437 6.144 1.006 8.9719 2.3074h0.0416c0.83624 0.4223 1.6944 0.79978 2.5707 1.1309v-34.639h14.032v-8.991h-39.647v8.991z" color="#000000" color-rendering="auto" dominant-baseline="auto" fill="#cf0a2c" image-rendering="auto" solid-color="#000000" style="font-feature-settings:normal;font-variant-alternates:normal;font-variant-caps:normal;font-variant-east-asian:normal;font-variant-ligatures:normal;font-variant-numeric:normal;font-variant-position:normal;isolation:auto;mix-blend-mode:normal;paint-order:markers stroke fill;shape-padding:0;text-decoration-color:#000000;text-decoration-line:none;text-decoration-style:solid;text-indent:0;text-orientation:mixed;text-transform:none;white-space:normal"/>
  </g>
  <path d="m215.07 51.451h5.899v30.891a25.471 25.471 0 0 1 5.6347 1.0485 40.926 40.926 0 0 0 0.21304 -40.842h-18.716a26.281 26.281 0 0 1 6.969 8.9019z" fill="#e05551"/>
  <g transform="matrix(.99009 0 0 .99009 2.2729 .62186)" shape-rendering="auto">
   <path d="m229.6 30.404a0.52922 0.52922 0 0 0 -0.5293 0.52734v1.6035a0.52922 0.52922 0 0 0 0.5293 0.5293h2.7148l-3.3262 4.2773a0.52922 0.52922 0 0 0 -0.11133 0.32422v1.5527a0.52922 0.52922 0 0 0 0.5293 0.5293h6.7266a0.52922 0.52922 0 0 0 0.52149 -0.53711l8e-3 0.0078v-1.6035a0.52922 0.52922 0 0 0 -0.5293 -0.5293h-3.1191l3.3203-4.248a0.52922 0.52922 0 0 0 0.11329 -0.32617v-1.5801a0.52922 0.52922 0 0 0 -0.5293 -0.52734zm0.5293 1.0566h5.2598v0.86914l-3.877 4.959a0.52922 0.52922 0 0 0 0.41797 0.85547h3.6758v0.54492h-5.6699v-0.8418l3.8789-4.9863a0.52922 0.52922 0 0 0 -0.41797 -0.85547h-3.2676z" color="#000000" color-rendering="auto" dominant-baseline="auto" fill="#fff" image-rendering="auto" solid-color="#000000" style="font-feature-settings:normal;font-variant-alternates:normal;font-variant-caps:normal;font-variant-east-asian:normal;font-variant-ligatures:normal;font-variant-numeric:normal;font-variant-position:normal;isolation:auto;mix-blend-mode:normal;paint-order:markers stroke fill;shape-padding:0;text-decoration-color:#000000;text-decoration-line:none;text-decoration-style:solid;text-indent:0;text-orientation:mixed;text-transform:none;white-space:normal"/>
   <path d="m236.13 39.219h-6.7282v-1.5527l3.9904-5.1302h-3.7966v-1.6032h6.3186v1.5801l-3.9892 5.1029h4.2049v1.6032z" color="#000000" color-rendering="auto" dominant-baseline="auto" fill="#001a71" image-rendering="auto" solid-color="#000000" style="font-feature-settings:normal;font-variant-alternates:normal;font-variant-caps:normal;font-variant-east-asian:normal;font-variant-ligatures:normal;font-variant-numeric:normal;font-variant-position:normal;isolation:auto;mix-blend-mode:normal;paint-order:markers stroke fill;shape-padding:0;text-decoration-color:#000000;text-decoration-line:none;text-decoration-style:solid;text-indent:0;text-orientation:mixed;text-transform:none;white-space:normal"/>
  </g>
  <g transform="matrix(.99009 0 0 .99009 2.2729 .62186)" shape-rendering="auto">
   <path d="m238.66 30.404a0.52922 0.52922 0 0 0 -0.52929 0.52734v8.2871a0.52922 0.52922 0 0 0 0.52929 0.5293h5.793a0.52922 0.52922 0 0 0 0.5293 -0.5293v-1.6035l-8e-3 0.0078a0.52922 0.52922 0 0 0 -0.52149 -0.53711h-3.209v-0.98828h2.9394a0.52922 0.52922 0 0 0 0.5293 -0.5293v-1.6035a0.52922 0.52922 0 0 0 -0.5293 -0.5293h-2.9394v-0.37109h3.209a0.52922 0.52922 0 0 0 0.5293 -0.5293v-1.6035a0.52922 0.52922 0 0 0 -0.5293 -0.52734zm0.5293 1.0566h4.7363v0.54492h-3.2109a0.52922 0.52922 0 0 0 -0.5293 0.5293v1.4297a0.52922 0.52922 0 0 0 0.5293 0.5293h2.9394v0.54492h-2.9394a0.52922 0.52922 0 0 0 -0.5293 0.5293v2.0469a0.52922 0.52922 0 0 0 0.5293 0.5293h3.2109v0.54492h-4.7363z" color="#000000" color-rendering="auto" dominant-baseline="auto" fill="#fff" image-rendering="auto" solid-color="#000000" style="font-feature-settings:normal;font-variant-alternates:normal;font-variant-caps:normal;font-variant-east-asian:normal;font-variant-ligatures:normal;font-variant-numeric:normal;font-variant-position:normal;isolation:auto;mix-blend-mode:normal;paint-order:markers stroke fill;shape-padding:0;text-decoration-color:#000000;text-decoration-line:none;text-decoration-style:solid;text-indent:0;text-orientation:mixed;text-transform:none;white-space:normal"/>
   <path d="m244.46 37.615h-3.7391v-2.0479h3.4686v-1.6021h-3.4686v-1.4298h3.7391v-1.6032h-5.7934v8.2861h5.7934v-1.6032z" color="#000000" color-rendering="auto" dominant-baseline="auto" fill="#001a71" image-rendering="auto" solid-color="#000000" style="font-feature-settings:normal;font-variant-alternates:normal;font-variant-caps:normal;font-variant-east-asian:normal;font-variant-ligatures:normal;font-variant-numeric:normal;font-variant-position:normal;isolation:auto;mix-blend-mode:normal;paint-order:markers stroke fill;shape-padding:0;text-decoration-color:#000000;text-decoration-line:none;text-decoration-style:solid;text-indent:0;text-orientation:mixed;text-transform:none;white-space:normal"/>
  </g>
  <g transform="matrix(.99009 0 0 .99009 2.2729 .62186)" shape-rendering="auto">
   <path d="m247.29 30.404a0.52922 0.52922 0 0 0 -0.5293 0.52734v8.2871a0.52922 0.52922 0 0 0 0.5293 0.5293h5.791a0.52922 0.52922 0 0 0 0.5293 -0.5293v-1.6035a0.52922 0.52922 0 0 0 -0.5293 -0.5293h-3.209v-0.98828h2.9414a0.52922 0.52922 0 0 0 0.5293 -0.5293v-1.6035a0.52922 0.52922 0 0 0 -0.5293 -0.5293h-2.9414v-0.37109h3.209a0.52922 0.52922 0 0 0 0.5293 -0.5293v-1.6035a0.52922 0.52922 0 0 0 -0.5293 -0.52734zm0.52929 1.0566h4.7324v0.54492h-3.209a0.52922 0.52922 0 0 0 -0.5293 0.5293v1.4297a0.52922 0.52922 0 0 0 0.5293 0.5293h2.9414v0.54492h-2.9414a0.52922 0.52922 0 0 0 -0.5293 0.5293v2.0469a0.52922 0.52922 0 0 0 0.5293 0.5293h3.209v0.54492h-4.7324z" color="#000000" color-rendering="auto" dominant-baseline="auto" fill="#fff" image-rendering="auto" solid-color="#000000" style="font-feature-settings:normal;font-variant-alternates:normal;font-variant-caps:normal;font-variant-east-asian:normal;font-variant-ligatures:normal;font-variant-numeric:normal;font-variant-position:normal;isolation:auto;mix-blend-mode:normal;paint-order:markers stroke fill;shape-padding:0;text-decoration-color:#000000;text-decoration-line:none;text-decoration-style:solid;text-indent:0;text-orientation:mixed;text-transform:none;white-space:normal"/>
   <path d="m253.08 37.615h-3.7384v-2.0479h3.4699v-1.6021h-3.4699v-1.4298h3.7385v-1.6032h-5.7916v8.2861h5.7916z" color="#000000" color-rendering="auto" dominant-baseline="auto" fill="#001a71" image-rendering="auto" solid-color="#000000" style="font-feature-settings:normal;font-variant-alternates:normal;font-variant-caps:normal;font-variant-east-asian:normal;font-variant-ligatures:normal;font-variant-numeric:normal;font-variant-position:normal;isolation:auto;mix-blend-mode:normal;paint-order:markers stroke fill;shape-padding:0;text-decoration-color:#000000;text-decoration-line:none;text-decoration-style:solid;text-indent:0;text-orientation:mixed;text-transform:none;white-space:normal"/>
  </g>
  <g transform="matrix(.99009 0 0 .99009 2.2729 .62186)" shape-rendering="auto">
   <path d="m255.92 30.404a0.52922 0.52922 0 0 0 -0.5293 0.52734v8.2871a0.52922 0.52922 0 0 0 0.5293 0.5293h5.7754a0.52922 0.52922 0 0 0 0.52929 -0.5293v-1.6035l-8e-3 0.0078a0.52922 0.52922 0 0 0 -6e-3 -0.08398 0.52922 0.52922 0 0 0 -0.0703 -0.19726 0.52922 0.52922 0 0 0 -0.0293 -0.04297 0.52922 0.52922 0 0 0 -0.0723 -0.07813 0.52922 0.52922 0 0 0 -0.041 -0.0332 0.52922 0.52922 0 0 0 -0.0449 -0.0293 0.52922 0.52922 0 0 0 -0.14649 -0.05859 0.52922 0.52922 0 0 0 -0.10351 -0.01367 0.52922 0.52922 0 0 0 -8e-3 0h-3.1816v-6.1543a0.52922 0.52922 0 0 0 -0.5293 -0.52734zm0.52929 1.0566h1.0059v6.1543a0.52922 0.52922 0 0 0 0.5293 0.5293h3.1816v0.54492h-4.7168z" color="#000000" color-rendering="auto" dominant-baseline="auto" fill="#fff" image-rendering="auto" solid-color="#000000" style="font-feature-settings:normal;font-variant-alternates:normal;font-variant-caps:normal;font-variant-east-asian:normal;font-variant-ligatures:normal;font-variant-numeric:normal;font-variant-position:normal;isolation:auto;mix-blend-mode:normal;paint-order:markers stroke fill;shape-padding:0;text-decoration-color:#000000;text-decoration-line:none;text-decoration-style:solid;text-indent:0;text-orientation:mixed;text-transform:none;white-space:normal"/>
   <path d="m261.69 37.615h-3.7106v-6.6829h-2.0639v8.2861h5.7744v-1.6032z" color="#000000" color-rendering="auto" dominant-baseline="auto" fill="#001a71" image-rendering="auto" solid-color="#000000" style="font-feature-settings:normal;font-variant-alternates:normal;font-variant-caps:normal;font-variant-east-asian:normal;font-variant-ligatures:normal;font-variant-numeric:normal;font-variant-position:normal;isolation:auto;mix-blend-mode:normal;paint-order:markers stroke fill;shape-padding:0;text-decoration-color:#000000;text-decoration-line:none;text-decoration-style:solid;text-indent:0;text-orientation:mixed;text-transform:none;white-space:normal"/>
  </g>
  <g transform="matrix(.99009 0 0 .99009 2.2729 .62186)" shape-rendering="auto">
   <path d="m266.1 30.404a0.52922 0.52922 0 0 0 -0.5 0.35156l-2.957 8.2852a0.52922 0.52922 0 0 0 0.49805 0.70703h2.0801a0.52922 0.52922 0 0 0 0.50195 -0.36133l0.4375-1.3145h2.1992l0.43945 1.3145a0.52922 0.52922 0 0 0 0.50195 0.36133h2.1328a0.52922 0.52922 0 0 0 0.49804 -0.70703l-2.959-8.2852a0.52922 0.52922 0 0 0 -0.49805 -0.35156zm0.37305 1.0586h1.6289l2.5801 7.2266h-1l-0.4375-1.3145a0.52922 0.52922 0 0 0 -0.50195 -0.36133h-2.9629a0.52922 0.52922 0 0 0 -0.50195 0.36133l-0.4375 1.3145h-0.94922zm0.76172 1.0664a0.52922 0.52922 0 0 0 -0.47461 0.36133l-0.98633 2.9668a0.52922 0.52922 0 0 0 0.50195 0.69531h1.9688a0.52922 0.52922 0 0 0 0.50391 -0.69531l-0.98438-2.9668a0.52922 0.52922 0 0 0 -0.52929 -0.36133zm0.0273 2.207 0.25 0.75781h-0.50195z" color="#000000" color-rendering="auto" dominant-baseline="auto" fill="#fff" image-rendering="auto" solid-color="#000000" style="font-feature-settings:normal;font-variant-alternates:normal;font-variant-caps:normal;font-variant-east-asian:normal;font-variant-ligatures:normal;font-variant-numeric:normal;font-variant-position:normal;isolation:auto;mix-blend-mode:normal;paint-order:markers stroke fill;shape-padding:0;text-decoration-color:#000000;text-decoration-line:none;text-decoration-style:solid;text-indent:0;text-orientation:mixed;text-transform:none;white-space:normal"/>
   <path d="m266.1 30.934-2.9577 8.2849h2.0798l0.55846-1.6754h2.9623l0.55846 1.6754h2.1327l-2.9577-8.2849zm1.1629 2.1235 0.98361 2.9669h-1.9695z" color="#000000" color-rendering="auto" dominant-baseline="auto" fill="#001a71" image-rendering="auto" solid-color="#000000" style="font-feature-settings:normal;font-variant-alternates:normal;font-variant-caps:normal;font-variant-east-asian:normal;font-variant-ligatures:normal;font-variant-numeric:normal;font-variant-position:normal;isolation:auto;mix-blend-mode:normal;paint-order:markers stroke fill;shape-padding:0;text-decoration-color:#000000;text-decoration-line:none;text-decoration-style:solid;text-indent:0;text-orientation:mixed;text-transform:none;white-space:normal"/>
  </g>
  <g transform="matrix(.99009 0 0 .99009 2.2729 .62186)" shape-rendering="auto">
   <path d="m273.69 30.404a0.52922 0.52922 0 0 0 -0.5293 0.52734v8.2871a0.52922 0.52922 0 0 0 0.5293 0.5293h1.8926a0.52922 0.52922 0 0 0 0.5293 -0.5293v-3.7715l2.416 4.043a0.52922 0.52922 0 0 0 0.45508 0.25781h1.9902a0.52922 0.52922 0 0 0 0.5293 -0.5293v-8.2871a0.52922 0.52922 0 0 0 -0.5293 -0.52734h-1.8945a0.52922 0.52922 0 0 0 -0.52929 0.52734v2.877l-1.9395-3.1543a0.52922 0.52922 0 0 0 -0.45117 -0.25zm0.5293 1.0566h1.6445l2.7637 4.4961a0.52922 0.52922 0 0 0 0.98047 -0.27734v-4.2188h0.83594v7.2285h-1.1602l-3.2461-5.4297a0.52922 0.52922 0 0 0 -0.98438 0.27148v5.1582h-0.83398z" color="#000000" color-rendering="auto" dominant-baseline="auto" fill="#fff" image-rendering="auto" solid-color="#000000" style="font-feature-settings:normal;font-variant-alternates:normal;font-variant-caps:normal;font-variant-east-asian:normal;font-variant-ligatures:normal;font-variant-numeric:normal;font-variant-position:normal;isolation:auto;mix-blend-mode:normal;paint-order:markers stroke fill;shape-padding:0;text-decoration-color:#000000;text-decoration-line:none;text-decoration-style:solid;text-indent:0;text-orientation:mixed;text-transform:none;white-space:normal"/>
   <path d="m280.97 30.933h-1.8933v4.7468l-2.9201-4.7468h-2.4685v8.2861h1.8927v-5.6875l3.3997 5.6875h1.9896v-8.2861z" color="#000000" color-rendering="auto" dominant-baseline="auto" fill="#001a71" image-rendering="auto" solid-color="#000000" style="font-feature-settings:normal;font-variant-alternates:normal;font-variant-caps:normal;font-variant-east-asian:normal;font-variant-ligatures:normal;font-variant-numeric:normal;font-variant-position:normal;isolation:auto;mix-blend-mode:normal;paint-order:markers stroke fill;shape-padding:0;text-decoration-color:#000000;text-decoration-line:none;text-decoration-style:solid;text-indent:0;text-orientation:mixed;text-transform:none;white-space:normal"/>
  </g>
  <g transform="matrix(.99009 0 0 .99009 2.2729 .62186)" shape-rendering="auto">
   <path d="m284.11 30.404a0.52922 0.52922 0 0 0 -0.5293 0.5293v8.2852a0.52922 0.52922 0 0 0 0.5293 0.5293h2.8184c0.59104 0.0075 1.1809-0.04437 1.7617-0.1543a0.52922 0.52922 0 0 0 6e-3 -2e-3c0.51814-0.10462 1.013-0.30128 1.4609-0.58203a0.52922 0.52922 0 0 0 6e-3 -0.0039c0.61746-0.39815 1.1227-0.94768 1.4688-1.5957 0.3894-0.7126 0.58665-1.5143 0.57421-2.3262 0.0171-0.80863-0.16389-1.6094-0.53125-2.3301a0.52922 0.52922 0 0 0 -4e-3 -0.0059c-0.34657-0.65812-0.85979-1.2136-1.4883-1.6113a0.52922 0.52922 0 0 0 -6e-3 -0.0039c-0.41903-0.25796-0.87873-0.44346-1.3594-0.54883-0.59204-0.12905-1.1969-0.18916-1.8027-0.17969zm0.5293 1.0586h2.375a0.52922 0.52922 0 0 0 0.01 0c0.52616-0.0087 1.0522 0.04433 1.5664 0.15625 0.36316 0.07961 0.7105 0.21958 1.0273 0.41406 0.46982 0.29793 0.85537 0.7132 1.1152 1.2051 0.28819 0.56696 0.43101 1.1981 0.41601 1.834a0.52922 0.52922 0 0 0 0 0.02148c0.011 0.63177-0.14231 1.2541-0.44531 1.8086a0.52922 0.52922 0 0 0 -2e-3 0.0059c-0.26047 0.48924-0.64218 0.90395-1.1074 1.2051-0.33979 0.21299-0.71434 0.36204-1.1074 0.44141-0.5096 0.09606-1.0264 0.14138-1.5449 0.13476a0.52922 0.52922 0 0 0 -8e-3 0h-2.2949zm1.5371 0.48633a0.52922 0.52922 0 0 0 -0.5293 0.5293v5.1855a0.52922 0.52922 0 0 0 0.5293 0.5293h0.50781c0.39324 0.01043 0.78706-0.01388 1.1758-0.07422a0.52922 0.52922 0 0 0 0.0254 -0.0059c0.28986-0.05999 0.56845-0.16301 0.82617-0.30859a0.52922 0.52922 0 0 0 2e-3 -2e-3c0.45545-0.25976 0.8192-0.65278 1.043-1.127a0.52922 0.52922 0 0 0 8e-3 -0.01563c0.21715-0.50184 0.32087-1.0453 0.30664-1.5918 0.0136-0.55939-0.0991-1.1131-0.33399-1.6211a0.52922 0.52922 0 0 0 -8e-3 -0.01563c-0.24851-0.49555-0.65257-0.89675-1.1484-1.1445-0.24917-0.12831-0.51517-0.21976-0.79101-0.26953a0.52922 0.52922 0 0 0 -0.0215 -0.0039c-0.35508-0.05-0.71179-0.07118-1.0703-0.06445zm0.52929 1.0586a0.52922 0.52922 0 0 0 4e-3 0c0.30203-0.0061 0.60315 0.01308 0.90234 0.05469 0.17011 0.03174 0.33458 0.08644 0.48829 0.16602a0.52922 0.52922 0 0 0 8e-3 0.0039c0.29046 0.14475 0.5234 0.38046 0.66992 0.66992 0.16485 0.36096 0.2475 0.75362 0.23633 1.1504a0.52922 0.52922 0 0 0 0 0.03125c0.0119 0.39257-0.0644 0.78153-0.21875 1.1426-0.13122 0.27536-0.34043 0.50509-0.60547 0.65625-0.15751 0.08876-0.32917 0.15135-0.50586 0.18945-0.32136 0.04906-0.64767 0.07307-0.97266 0.06445a0.52922 0.52922 0 0 0 -6e-3 0z" color="#000000" color-rendering="auto" dominant-baseline="auto" fill="#fff" image-rendering="auto" solid-color="#000000" style="font-feature-settings:normal;font-variant-alternates:normal;font-variant-caps:normal;font-variant-east-asian:normal;font-variant-ligatures:normal;font-variant-numeric:normal;font-variant-position:normal;isolation:auto;mix-blend-mode:normal;paint-order:markers stroke fill;shape-padding:0;text-decoration-color:#000000;text-decoration-line:none;text-decoration-style:solid;text-indent:0;text-orientation:mixed;text-transform:none;white-space:normal"/>
   <path d="m284.11 30.934v8.2849h2.8244c0.55577 0.0071 1.1109-0.04142 1.657-0.14478 0.45562-0.09199 0.89085-0.26562 1.2847-0.51249 0.54321-0.35027 0.98782-0.83364 1.2916-1.4042 0.34701-0.63502 0.52283-1.3494 0.51019-2.0729 0.0171-0.72502-0.14638-1.4429-0.47572-2.089-0.30345-0.57624-0.75275-1.0628-1.303-1.4111-0.36843-0.22682-0.77243-0.38997-1.195-0.48261-0.55469-0.12091-1.1215-0.1772-1.6892-0.16776zm2.066 1.5444h0.52168c0.33353-0.0067 0.66706 0.01324 0.9974 0.05975 0.22584 0.04075 0.44429 0.11511 0.64808 0.22062 0.39459 0.19664 0.71475 0.51598 0.91238 0.91007 0.20253 0.43809 0.30086 0.91713 0.28727 1.3996 0.0144 0.47422-0.0759 0.94578-0.26429 1.3812-0.1774 0.37591-0.46627 0.68805-0.82734 0.89398-0.21001 0.11863-0.43717 0.20391-0.67336 0.2528-0.35724 0.05545-0.71875 0.07852-1.0801 0.06894h-0.52168z" color="#000000" color-rendering="auto" dominant-baseline="auto" fill="#001a71" image-rendering="auto" solid-color="#000000" style="font-feature-settings:normal;font-variant-alternates:normal;font-variant-caps:normal;font-variant-east-asian:normal;font-variant-ligatures:normal;font-variant-numeric:normal;font-variant-position:normal;isolation:auto;mix-blend-mode:normal;paint-order:markers stroke fill;shape-padding:0;text-decoration-color:#000000;text-decoration-line:none;text-decoration-style:solid;text-indent:0;text-orientation:mixed;text-transform:none;white-space:normal"/>
  </g>
  <g transform="matrix(.99009 0 0 .99009 2.2729 .62186)" shape-rendering="auto">
   <path d="m192.27 20.77c-22.185-0.53789-43.064 17.011-42.975 42.018v0.0039c1e-3 30.271 31.154 50.602 58.863 38.426 0.19079-0.0733 0.37899-0.15612 0.56055-0.25l-0.0273 0.0137c6.631-3.1233 14.309-3.1196 20.938 0.01l0.16211 0.0762h0.0859c7.4971 3.7216 16.315 3.6985 23.773-0.12305l-0.0254 0.0137c6.6194-3.0981 14.273-3.086 20.883 0.0332l0.16211 0.0762h0.0977c7.3959 3.6703 16.071 3.6703 23.467 0h0.13476l0.16211-0.0781c3.2194-1.5369 6.7411-2.3381 10.309-2.3437h0.79297v-16.957h-0.79492c-3.6858 0.0043-7.3187 0.82658-10.666 2.3652h-0.14844l-0.16992 0.08789c-7.1239 3.6616-15.575 3.6616-22.699 0l-0.16992-0.08789h-0.13282c-7.0495-3.2114-15.162-3.1536-22.148 0.21094l-4e-3 0.0039-6e-3 2e-3c-7.0725 3.5294-15.4 3.4819-22.432-0.12891l-0.17188-0.08789h-0.11523c-6.881-3.1357-14.773-3.1357-21.654 0h-0.0664l-0.16211 0.07617c-3.644 1.7321-7.4975 2.9856-11.463 3.7305-0.0177 0.0029-0.0397 0.0073-0.0684 0.01367-17.815 3.8801-33.848-11.461-30.758-29.43 3.0901-17.969 23.326-27.073 38.822-17.465l0.625 0.38867 9.6074-13.178-0.69336-0.45898c-6.9572-4.5924-14.499-6.7816-21.895-6.9609zm-0.0742 1.5566c6.8654 0.17506 13.855 2.2035 20.365 6.3184l-7.7812 10.676c-16.318-9.5126-37.313 0.08397-40.541 18.854-3.2716 19.025 13.798 35.358 32.66 31.25h6e-3c-3e-3 6.52e-4 -8e-3 0.0013 6e-3 -2e-3h2e-3l0.01-2e-3c4.0321-0.75741 7.9478-2.0361 11.66-3.7812h0.0312l0.16016-0.07422c6.5764-3.0681 14.172-3.0681 20.748 0l0.16016 0.07422h0.084c7.4323 3.7288 16.188 3.768 23.637 0.05078l-0.01 0.0059c6.6294-3.1924 14.34-3.2414 21.008-0.13086l0.16016 0.07422h0.10351c7.4538 3.7407 16.224 3.7407 23.678 0h0.1289l0.16016-0.07422c2.951-1.3888 6.1602-2.0885 9.4141-2.2012v13.785c-3.4504 0.11359-6.8461 0.86951-9.9785 2.3301h-0.14453l-0.16993 0.08594c-7.071 3.5952-15.431 3.5952-22.502 0l-0.16992-0.08594h-0.11719c-6.9864-3.2198-15.035-3.2233-22.01 0.04102l-0.0137 0.0059-0.0117 0.0059c-7.0834 3.6296-15.476 3.6418-22.57 0.0332l-0.16992-0.08594h-0.10352c-7.0064-3.2304-15.081-3.2265-22.068 0.06445l-0.0137 0.0078-0.0137 0.0059c-0.13374 0.06916-0.27137 0.13007-0.41211 0.18359l-0.0176 0.0078-0.0195 0.0078c-26.721 11.759-56.658-7.7748-56.656-36.969h-0.52929l0.52929-2e-3c-0.088-24.124 19.958-41.003 41.312-40.459z" color="#000000" color-rendering="auto" dominant-baseline="auto" fill="#fff" image-rendering="auto" solid-color="#000000" style="font-feature-settings:normal;font-variant-alternates:normal;font-variant-caps:normal;font-variant-east-asian:normal;font-variant-ligatures:normal;font-variant-numeric:normal;font-variant-position:normal;isolation:auto;mix-blend-mode:normal;paint-order:markers stroke fill;shape-padding:0;text-decoration-color:#000000;text-decoration-line:none;text-decoration-style:solid;text-indent:0;text-orientation:mixed;text-transform:none;white-space:normal"/>
   <path d="m150.09 62.787c-1e-3 29.738 30.551 49.674 57.77 37.696 0.16888-0.0642 0.33397-0.13802 0.49447-0.22101 6.845-3.224 14.773-3.2204 21.615 0.01h0.0292c7.3203 3.7237 15.982 3.7109 23.292-0.0344 6.833-3.1981 14.736-3.1855 21.558 0.0344h0.0422c7.2964 3.7098 15.926 3.7098 23.223 0h0.0779c3.3258-1.5877 6.9636-2.4146 10.649-2.4204v-15.37c-3.6461 0.0043-7.2466 0.81133-10.546 2.3639h-0.0778c-7.351 3.7783-16.073 3.7783-23.424 0h-0.0553c-6.8835-3.2109-14.845-3.1619-21.688 0.13363-7.2979 3.6419-15.894 3.5923-23.149-0.13363h-0.0415c-6.7887-3.1672-14.631-3.1672-21.42 0h-5e-3c-3.7058 1.7614-7.6236 3.0367-11.656 3.7942-0.0155 0.0025-0.0321 0.0054-0.047 0.0089-18.339 3.994-34.89-11.843-31.71-30.34 3.1809-18.497 24.072-27.895 40.023-18.004l8.6831-11.912c-27.337-18.045-63.756 1.639-63.637 34.394" color="#000000" color-rendering="auto" dominant-baseline="auto" fill="#001a71" image-rendering="auto" solid-color="#000000" style="font-feature-settings:normal;font-variant-alternates:normal;font-variant-caps:normal;font-variant-east-asian:normal;font-variant-ligatures:normal;font-variant-numeric:normal;font-variant-position:normal;isolation:auto;mix-blend-mode:normal;paint-order:markers stroke fill;shape-padding:0;text-decoration-color:#000000;text-decoration-line:none;text-decoration-style:solid;text-indent:0;text-orientation:mixed;text-transform:none;white-space:normal"/>
  </g>
 </g>
</svg>
