<svg width="600" height="311.3" version="1.1" viewBox="0 0 158.75 82.366101" xmlns="http://www.w3.org/2000/svg">
 <g transform="translate(-150.09 -21.605)">
  <path d="m282.35 42.347-10.859 32.633-10.859-32.633h-12.173l14.156 40.164a25.748 25.748 0 0 1 12.118 2.3349h0.0553a26.687 26.687 0 0 0 3.8751 1.5872l15.538-44.086h-11.851z" fill="#cf0a2c"/>
  <path d="m206.85 51.338h14.031v31.2a25.931 25.931 0 0 1 8.9719 2.3074h0.0416a26.402 26.402 0 0 0 2.5707 1.1309v-34.639h14.032v-8.991h-39.647v8.991z" fill="#cf0a2c"/>
  <path d="m214.93 51.338h5.9581v31.2a25.726 25.726 0 0 1 5.691 1.059 41.335 41.335 0 0 0 0.21517 -41.25h-18.903a26.544 26.544 0 0 1 7.0387 8.991z" fill="#e05551"/>
  <g fill="#001a71">
   <path d="m236.13 39.219h-6.7282v-1.5527l3.9904-5.1302h-3.7966v-1.6032h6.3186v1.5801l-3.9892 5.1029h4.2049v1.6032z"/>
   <path d="m244.46 37.615h-3.7391v-2.0479h3.4686v-1.6021h-3.4686v-1.4298h3.7391v-1.6032h-5.7934v8.2861h5.7934v-1.6032z"/>
   <path d="m253.08 37.615h-3.7384v-2.0479h3.4699v-1.6021h-3.4699v-1.4298h3.7385v-1.6032h-5.7916v8.2861h5.7916z"/>
   <path d="m261.69 37.615h-3.7106v-6.6829h-2.0639v8.2861h5.7744v-1.6032z"/>
   <path d="m266.1 30.934-2.9577 8.2849h2.0798l0.55846-1.6754h2.9623l0.55846 1.6754h2.1327l-2.9577-8.2849zm1.1629 2.1235 0.98361 2.9669h-1.9695z"/>
   <path d="m280.97 30.933h-1.8933v4.7468l-2.9201-4.7468h-2.4685v8.2861h1.8927v-5.6875l3.3997 5.6875h1.9896v-8.2861z"/>
   <path d="m284.11 30.934v8.2849h2.8244a8.3381 8.3381 0 0 0 1.657 -0.14478 3.8556 3.8556 0 0 0 1.2847 -0.51249 3.79 3.79 0 0 0 1.2916 -1.4042 4.171 4.171 0 0 0 0.51019 -2.0729 4.3731 4.3731 0 0 0 -0.47572 -2.089 3.7228 3.7228 0 0 0 -1.303 -1.4111 3.8537 3.8537 0 0 0 -1.195 -0.48261 7.3571 7.3571 0 0 0 -1.6892 -0.16776zm2.066 1.5444h0.52168a6.2481 6.2481 0 0 1 0.9974 0.05975 2.2964 2.2964 0 0 1 0.64808 0.22062 2.0371 2.0371 0 0 1 0.91238 0.91007 3.1255 3.1255 0 0 1 0.28727 1.3996 3.2317 3.2317 0 0 1 -0.26429 1.3812 2.0232 2.0232 0 0 1 -0.82734 0.89398 2.3288 2.3288 0 0 1 -0.67336 0.2528 6.0043 6.0043 0 0 1 -1.0801 0.06894h-0.52168z"/>
   <path d="m150.09 62.787a41.182 41.182 0 0 0 57.77 37.696 4.7621 4.7621 0 0 0 0.49447 -0.22101 25.338 25.338 0 0 1 21.615 0.01h0.0292a25.612 25.612 0 0 0 23.292 -0.0344 25.342 25.342 0 0 1 21.558 0.0344h0.0422a25.62 25.62 0 0 0 23.223 0h0.0779a24.809 24.809 0 0 1 10.649 -2.4204v-15.37a24.834 24.834 0 0 0 -10.546 2.3639h-0.0778a25.62 25.62 0 0 1 -23.424 0h-0.0553a25.319 25.319 0 0 0 -21.688 0.13363 25.626 25.626 0 0 1 -23.149 -0.13363h-0.0415a25.332 25.332 0 0 0 -21.42 0h-5e-3a47.639 47.639 0 0 1 -11.656 3.7942c-0.0155 0.0025-0.0321 0.0054-0.047 0.0089a26.461 26.461 0 1 1 8.3136 -48.344l8.6831-11.912a41.032 41.032 0 0 0 -63.637 34.394"/>
  </g>
 </g>
</svg>
