<svg width="600" height="596.59" version="1.1" viewBox="0 0 158.75 157.84849" xmlns="http://www.w3.org/2000/svg">
 <g transform="translate(101.3 67.322)">
  <path d="m-64.221-67.322-37.076 36.475v121.37h122.37l36.385-36.581v-121.27z" fill="#5c9fd3"/>
  <g fill="#fff">
   <path d="m-19.268 20.754c-0.72124 3.0971-1.9239 5.7712-3.5768 7.9955-1.6683 2.211-3.8776 3.9832-6.6428 5.2749-2.7802 1.278-6.1468 1.9256-10.114 1.9256-3.006 0-5.8162-0.52826-8.4162-1.5635-2.5851-1.065-4.8393-2.4964-6.7029-4.3134-1.8634-1.802-3.5168-3.9662-4.6138-6.4771-1.1123-2.4964-1.8336-5.2004-1.8336-8.1156v-4.3437h12.489v3.6083c0 2.2834 0.82647 4.3134 2.1642 6.1167 1.3377 1.8319 3.6671 2.735 6.8381 2.735 2.1041 0 3.7873-0.29821 4.9595-0.90315 1.1873-0.61772 2.0892-1.457 2.7052-2.5561 0.61602-1.0821 1.0071-2.4325 1.1571-4.0599 0.17893-1.6061 0.27265-3.3826 0.27265-5.3205 0-2.2707-0.08946-4.1323-0.25561-5.5757-0.14911-1.457-0.51079-2.6285-1.022-3.5146-0.52613-0.88611-1.2623-1.6061-2.2093-2.1812-0.9317-0.57086-2.1642-1.1715-3.7123-1.8191l-8.8821-3.6382c-5.3653-2.1812-8.9722-5.0645-10.791-8.6566-1.8187-3.5913-2.7354-8.0853-2.7354-13.511 0-3.2292 0.45072-6.2969 1.3377-9.2126 0.88654-2.9139 2.1944-5.3955 3.9675-7.4991 1.7283-2.1173 3.9526-3.7702 6.6277-5.0346 2.675-1.2482 5.8162-1.8787 9.378-1.8787 3.0959 0 5.9214 0.55382 8.4613 1.6998 2.5697 1.1417 4.7642 2.6157 6.5977 4.4936 1.8187 1.8489 3.1261 3.9236 4.103 6.2369 0.97685 2.3005 1.3526 4.6593 1.3526 7.0787v6.8231h-12.489v-3.5444c0-2.8245-0.52613-5.2753-1.8787-7.3343-1.3377-2.0747-3.5168-3.0801-6.6878-3.0801-1.7134 0-3.0809 0.29821-4.1779 0.9628-1.097 0.64754-1.9239 1.474-2.5399 2.4794-0.60111 1.0054-1.022 2.1812-1.2776 3.5189-0.22579 1.3206-0.36211 2.7222-0.36211 4.1792 0 1.6998 0.07668 3.1397 0.17893 4.2985 0.11928 1.1715 0.43581 2.1812 0.9317 3.0375 0.48097 0.84351 1.1873 1.5933 2.1343 2.2238 0.91678 0.66032 2.194 1.3079 3.8324 1.9554l9.4983 3.7575c2.7653 1.0395 5.0046 2.2834 6.7029 3.6978 1.7134 1.4144 3.0358 3.0673 3.9675 4.9592 0.91678 1.8915 1.563 4.0897 1.8787 6.553 0.31525 2.4496 0.49588 5.26 0.49588 8.4159 0 3.6211-0.36211 7.0037-1.1123 10.114"/>
   <path d="m27.126-25.43h-11.602v-5.0044c0-2.4198-0.60111-4.5239-1.9989-6.2969-1.3828-1.7722-3.216-2.6626-5.5607-2.6626-3.0809 0-5.0948 0.94575-6.1167 2.8415-1.022 1.8915-1.4727 4.2981-1.4727 7.2137v44.08c0 2.5092 0.52613 4.6137 1.6231 6.3123 1.0821 1.6998 3.0358 2.5391 5.8913 2.5391 0.81156 0 1.6683-0.1278 2.6149-0.42602 0.9317-0.29821 1.7735-0.74979 2.5399-1.3846 0.78131-0.66032 1.3377-1.5464 1.8336-2.6754 0.48097-1.1289 0.64626-2.5561 0.64626-4.2389v-3.7404h11.602v4.8395c0 2.6456-0.01465 5.1999-1.0369 7.6197-1.022 2.4325-2.1791 4.5383-3.9675 6.357-1.7884 1.8319-3.757 3.2761-6.1468 4.3586-2.4049 1.0991-4.9144 1.6402-7.6798 1.6402-2.3597 0-4.7191-0.29821-7.1537-0.96279-2.4347-0.64754-4.6139-1.7594-6.5676-3.3357-1.9537-1.5763-3.547-3.6382-4.8092-6.2369-1.2474-2.5859-1.8787-5.8611-1.8787-9.8137v-47.491c0-2.8245 0.48097-5.4556 1.4578-7.8753 0.97685-2.4198 2.3597-4.5085 4.1481-6.282 1.7884-1.802 3.9227-3.1866 6.4023-4.209 2.4798-0.99262 5.215-1.5038 8.2208-1.5038 2.8402 0 5.4855 0.51122 7.9202 1.5038 2.4347 1.0224 4.5538 2.4325 6.3422 4.2389 1.7735 1.8319 2.6903 4.0131 3.7123 6.5675 1.022 2.5263 1.0369 5.3052 1.0369 8.2809z"/>
   <path d="m46.738 36.113h-12.489v-86.506h12.489z"/>
  </g>
 </g>
</svg>
