<svg width="600" height="729.53" version="1.1" viewBox="0 0 158.75 193.02154" xmlns="http://www.w3.org/2000/svg">
 <g transform="translate(-26.458 -52.323)">
  <path d="m63.533 52.329-37.075 36.474v121.37h122.37l36.384-36.58v-121.27z" fill="#5c9fd3" stroke-width=".99997"/>
  <g fill="#fff" stroke-width=".99997">
   <path d="m108.48 140.4c-0.72123 3.097-1.9238 5.771-3.5767 7.9953-1.6682 2.2109-3.8775 3.9831-6.6426 5.2747-2.7801 1.278-6.1466 1.9256-10.114 1.9256-3.0059 0-5.816-0.52826-8.4159-1.5635-2.585-1.065-4.8392-2.4963-6.7027-4.3133-1.8633-1.8019-3.5167-3.9661-4.6137-6.4769-1.1123-2.4963-1.8335-5.2002-1.8335-8.1154v-4.3435h12.489v3.6082c0 2.2833 0.82644 4.3132 2.1641 6.1165 1.3377 1.8318 3.667 2.7349 6.8379 2.7349 2.104 0 3.7872-0.29821 4.9593-0.90313 1.1873-0.61768 2.0891-1.457 2.7051-2.556 0.616-1.0821 1.0071-2.4324 1.1571-4.0598 0.17892-1.606 0.27264-3.3825 0.27264-5.3203 0-2.2706-0.08944-4.1322-0.2556-5.5755-0.14913-1.457-0.51078-2.6284-1.022-3.5145-0.52612-0.88608-1.2623-1.606-2.2092-2.1811-0.93168-0.57084-2.1641-1.1715-3.7122-1.819l-8.8818-3.6381c-5.3651-2.1811-8.9719-5.0643-10.791-8.6563-1.8186-3.5912-2.7353-8.085-2.7353-13.511 0-3.2291 0.45072-6.2967 1.3377-9.2123 0.88652-2.9138 2.1943-5.3953 3.9674-7.4989 1.7282-2.1172 3.9525-3.7701 6.6275-5.0345 2.6749-1.2481 5.816-1.8786 9.3777-1.8786 3.0958 0 5.9212 0.5538 8.461 1.6997 2.5696 1.1417 4.7641 2.6156 6.5975 4.4935 1.8186 1.8489 3.126 3.9235 4.1029 6.2367 0.97682 2.3004 1.3526 4.6592 1.3526 7.0785v6.8229h-12.489v-3.5443c0-2.8244-0.52612-5.2751-1.8786-7.3341-1.3377-2.0746-3.5167-3.08-6.6876-3.08-1.7133 0-3.0808 0.2982-4.1778 0.96278-1.097 0.64752-1.9238 1.474-2.5398 2.4793-0.60109 1.0054-1.022 2.1811-1.2776 3.5188-0.22578 1.3205-0.36209 2.7221-0.36209 4.1791 0 1.6998 0.07662 3.1396 0.17894 4.2984 0.1192 1.1715 0.43579 2.1811 0.93166 3.0374 0.48095 0.84348 1.1873 1.5932 2.1342 2.2237 0.91675 0.66031 2.1939 1.3078 3.8323 1.9553l9.498 3.7574c2.7652 1.0395 5.0044 2.2833 6.7027 3.6977 1.7133 1.4144 3.0357 3.0672 3.9674 4.959 0.91676 1.8914 1.563 4.0896 1.8786 6.5528 0.31525 2.4495 0.49586 5.2598 0.49586 8.4156 0 3.621-0.36209 7.0035-1.1123 10.114"/>
   <path d="m154.88 94.219h-11.602v-5.0042c0-2.4197-0.60109-4.5238-1.9988-6.2967-1.3828-1.7722-3.2159-2.6625-5.5605-2.6625-3.0808 0-5.0946 0.94573-6.1165 2.8414-1.022 1.8914-1.4726 4.298-1.4726 7.2135v44.079c0 2.5091 0.52612 4.6135 1.6231 6.3121 1.0821 1.6998 3.0357 2.539 5.8911 2.539 0.81153 0 1.6682-0.12775 2.6148-0.42602 0.93165-0.29819 1.7734-0.74974 2.5398-1.3845 0.7813-0.6603 1.3377-1.5464 1.8335-2.6753 0.48095-1.1288 0.64624-2.556 0.64624-4.2388v-3.7403h11.602v4.8393c0 2.6455-0.0148 5.1997-1.0369 7.6194-1.022 2.4324-2.179 4.5382-3.9674 6.3568-1.7883 1.8318-3.7569 3.276-6.1466 4.3585-2.4048 1.0991-4.9142 1.6401-7.6796 1.6401-2.3596 0-4.719-0.2982-7.1535-0.96276-2.4346-0.64753-4.6138-1.7593-6.5674-3.3356-1.9536-1.5762-3.5469-3.6381-4.809-6.2367-1.2474-2.5858-1.8786-5.8609-1.8786-9.8134v-47.489c0-2.8244 0.48097-5.4554 1.4578-7.875 0.97682-2.4197 2.3596-4.5084 4.148-6.2818 1.7884-1.8019 3.9226-3.1865 6.4021-4.2089 2.4797-0.99259 5.2148-1.5037 8.2205-1.5037 2.8401 0 5.4853 0.5112 7.92 1.5037 2.4346 1.0224 4.5537 2.4324 6.342 4.2388 1.7735 1.8319 2.6902 4.013 3.7122 6.5673 1.022 2.5262 1.0369 5.305 1.0369 8.2807z"/>
   <path d="m174.49 155.76h-12.489v-86.503h12.489z"/>
  </g>
  <path d="m50.019 245.34v-27.859h-6.129v11.024h-11.303v-11.024h-6.129v27.859h6.129v-11.184h11.303v11.184z" fill="#5c9fd3"/>
  <path d="m56.696 217.48v27.859h10.865c2.1757 0 4.1654-0.35756 5.9696-1.074 1.8308-0.71638 3.3959-1.6987 4.696-2.9457 1.3266-1.247 2.3483-2.7192 3.0647-4.4173 0.71638-1.6981 1.0748-3.5287 1.0748-5.4921v-0.0799c0-1.9634-0.35842-3.7806-1.0748-5.4522-0.71638-1.6981-1.7381-3.1712-3.0647-4.4182-1.3001-1.247-2.8653-2.2151-4.696-2.905-1.8042-0.71638-3.7939-1.0748-5.9696-1.0748zm6.1294 5.5321h4.7359c1.247 0 2.3876 0.2127 3.4224 0.63723 1.0348 0.39799 1.9107 0.96828 2.6271 1.7112 0.74292 0.7429 1.3132 1.6314 1.7112 2.6662 0.42452 1.0348 0.63639 2.1628 0.63639 3.3833v0.0791c0 1.247-0.21186 2.3751-0.63639 3.3833-0.39799 1.0082-0.96827 1.8834-1.7112 2.6263-0.71638 0.74292-1.5923 1.3141-2.6271 1.712-1.0348 0.39798-2.1753 0.59645-3.4224 0.59645h-4.7359z" fill="#5c9fd3"/>
 </g>
</svg>
