<svg xmlns="http://www.w3.org/2000/svg" enable-background="new 0 0 793.708 595.28" xml:space="preserve" height="155.16" viewBox="0 0 599.99999 155.15871" width="600" version="1.1" y="0px" x="0px"><rect stroke-linejoin="round" height="155.16" width="600" y="0" x="0" stroke-width="9.9747" fill="#00794e"/><g fill="#fff"><path d="m294.23 127h-25.81v-37.655h-28.88v37.655h-25.81v-94.948h25.817v34.586h28.874v-34.586h25.815z" stroke-width=".72598"/><path d="m355.44 30.518c-27.736 0-47.103 20.401-47.103 49.611 0 28.501 18.756 48.411 45.612 48.411 28.86 0 47.51-19.581 47.51-49.882 0-28.795-18.493-48.14-46.019-48.14zm-0.41004 21.101c13.394 0 19.394 13.919 19.394 27.709 0 17.075-7.6116 28.106-19.394 28.106-11.942 0-19.661-10.873-19.661-27.706 0-17.075 7.7196-28.109 19.661-28.109z" stroke-width=".72598"/><path stroke-width=".72974" d="m434.49 42.077h-28.621v-10.454h69.67v10.454h-28.764v84.771h-12.285z"/><path stroke-width=".73118" d="m512.75 126.85-30.97-95.228h13.314l14.716 46.907c3.9256 12.856 7.4289 24.441 10.092 35.603h0.28073c2.6642-11.019 6.4498-23.029 10.792-35.46l15.981-47.048h13.035l-33.78 95.224z"/><path d="m114.73 127h-63.404v-94.948h61.505v21.638h-35.69v13.749h33.657v21.504h-33.66v16.417h37.59z" stroke-width=".72598"/><path d="m175 128.4c-30.676 0-50.497-18.687-50.497-47.607 0-29.994 21.111-50.147 52.534-50.147 11.716 0 19.986 2.2368 23.817 4.3348l1.7162 0.93726-5.606 20.682-2.8016-1.195c-3.341-1.4222-8.8839-3.121-16.311-3.121-16.562 0-26.448 10.208-26.448 27.305 0 16.846 9.9373 26.906 26.583 26.906 5.8108 0 12.377-1.0977 16.34-2.7348l3.0107-1.2414 3.8986 20.927-1.7395 0.82327c-4.3407 2.0574-13.598 4.1309-24.496 4.1309z" stroke-width=".72598"/></g></svg>
