<svg width="200mm" height="80.78mm" version="1.1" viewBox="0 0 200 80.78" xmlns="http://www.w3.org/2000/svg">
 <g transform="translate(103.57 70.938)">
  <path d="m49.452-70.938c-0.48449 0.01247-0.67262 0.85645-0.10379 0.95236 1.0048 0.64197 2.164 0.92264 3.1916 1.4959 1.8095 0.5393 3.4297 1.5477 5.1979 2.2077 0.48066 0.32375 1.0012 0.53256 1.5445 0.72343 0.61317 0.50766 1.4429 0.5017 2.0569 0.99361 0.69869 0.32303 1.3384 0.7769 2.0862 0.96153 0.53277 0.47899 1.2269 0.71472 1.8121 1.1224 0.63339 0.2512 1.1552 0.69521 1.7562 0.99475 0.27307 0.32704 0.72054 0.40716 1.0209 0.63979 0.33294 0.39599 0.86802 0.54348 1.2388 0.90103 0.57419 0.27666 0.97337 0.76514 1.5456 1.0387 0.69022 0.52733 1.3229 1.1341 2.0871 1.5475 2.6249 1.7113 3.4149 3.1187 5.1673 4.8296 0.59765 0.70644 0.76624 0.76356 2.6869 3.6543 0.49987 0.88011 1.067 1.7152 1.4847 2.6325 0.47769 0.92284 0.63158 1.99 0.98168 2.9682 0.26736 1.6595 0.72694 3.3531 0.34008 5.0395-0.20066 1.1987-0.30115 2.4272-0.80823 3.5457-0.31434 1.2651-1.0368 2.4132-1.5241 3.6096-0.48505 0.43622-0.52799 1.1542-1.0243 1.5628-0.50943 0.82388-1.0931 1.5865-1.7626 2.2954-0.86616 1.0064-1.6283 2.0972-2.6506 2.9632-0.69642 0.56455-1.2782 1.3144-2.0392 1.7743-0.66758 0.60803-1.4122 1.146-2.0653 1.7837-0.47329 0.45873-1.0404 0.79164-1.5951 1.1112-0.44853 0.45092-1.1426 0.58981-1.5317 1.0837-0.50492 0.18852-0.87565 0.66165-1.4169 0.81693-0.34715 0.17442-0.49949 0.5253-0.90378 0.58365-0.68697 0.40432-1.3687 0.78775-2.039 1.2145-0.94464 0.34874-1.6731 1.1042-2.6362 1.4384-0.55278 0.36454-1.1477 0.60299-1.7709 0.81212-0.33324 0.2174-0.62099 0.46695-1.0284 0.53324-0.55075 0.32028-1.0915 0.61023-1.7182 0.76697-0.4339 0.22356-0.81949 0.5099-1.311 0.61528-0.82901 0.51941-1.7995 0.68496-2.6635 1.1436-1.5494 0.62108-3.0645 1.3354-4.6796 1.787-1.2897 0.49629-2.6088 0.89111-3.9273 1.3005-1.6294 0.60663-3.3467 0.93115-4.9779 1.532-0.92471 0.12053-1.7916 0.47243-2.6779 0.74106-1.2909 0.27405-2.5625 0.62693-3.844 0.93746-1.124 0.44222-2.3612 0.40947-3.4987 0.82908-1.2322 0.23278-2.4645 0.45326-3.6734 0.78841-1.7798 0.2315-3.5207 0.73164-5.3158 0.897-2.225 0.42522-4.4905 0.62927-6.7119 1.0855-2.1798 0.15655-4.3085 0.78316-6.5044 0.76359-3.5957 0.46061-7.2237 0.61318-10.83 1.0111-5.1184 0.30516-10.251 0.35864-15.376 0.54695-6.6262 0.12159-13.25-0.19926-19.87-0.44819-2.82-0.16713-5.633-0.46989-8.4519-0.6306-1.999-0.21471-3.9917-0.5215-6.0002-0.62738-1.5806-0.17067-3.1283-0.55891-4.7209-0.63946-1.8993-0.34482-3.8212-0.56529-5.717-0.92268-3.4973-0.61418-6.9908-1.2368-10.463-1.9873-2.4788-0.49863-4.9087-1.2085-7.3696-1.788-1.0873-0.45001-2.287-0.52834-3.3586-1.0298-1.1293-0.25244-2.2-0.72088-3.3448-0.89122-0.84976-0.36265-1.77-0.51373-2.6194-0.85978-0.91434-0.40286-1.8972-0.61704-2.811-1.0273-1.9381-0.49237-3.6519-1.6453-5.5943-2.1265-0.64762-0.5196-1.7252-0.81568-2.3214-0.0509-0.0934 0.3812 0.50332 0.77128 0.79098 1.0656 1.4702 1.207 3.1208 2.1706 4.8181 3.0062 0.36586 0.1228 0.56353 0.5132 0.98419 0.58734 1.3723 0.55106 2.6543 1.3042 3.9687 1.9684 1.3923 0.50535 2.697 1.253 4.1005 1.723 0.977 0.49969 2.0061 0.87899 3.0438 1.2065 0.70685 0.50779 1.6191 0.56829 2.3681 1.0046 1.0617 0.27269 2.0127 0.86063 3.1007 1.0513 2.2155 0.68422 4.4258 1.4249 6.6772 1.9754 1.2155 0.39881 2.4545 0.73217 3.6802 1.0924 0.99656 0.21014 1.9634 0.64327 2.9964 0.73191 1.2233 0.30331 2.4284 0.67198 3.6872 0.81389 1.0994 0.25799 2.1909 0.58883 3.3175 0.64787 1.6566 0.4925 3.398 0.61962 5.0799 1.0172 2.4869 0.34772 4.9557 0.81956 7.4508 1.1055 2.0268 0.39622 4.1108 0.46774 6.1553 0.78506 3.0666 0.23728 6.1239 0.57424 9.19 0.82661 5.4032 0.25516 10.802 0.70253 16.215 0.61048 6.7326-0.024945 13.473 1.927e-4 20.191-0.51053 3.1948-0.16834 6.3726-0.53896 9.5626-0.76985 2.9778-0.33917 5.9544-0.68636 8.9152-1.1444 2.1085-0.20296 4.167-0.74211 6.2785-0.92007 1.1987-0.19801 2.3576-0.54362 3.5726-0.65647 1.3484-0.27825 2.6764-0.61239 4.0339-0.84723 1.3645-0.34042 2.7785-0.47201 4.1076-0.95328 1.3569-0.20058 2.6332-0.70135 3.9755-0.96433 1.5082-0.52384 3.0873-0.82454 4.5896-1.3747 1.0839-0.34447 2.2474-0.50111 3.269-0.97892 0.96618-0.14098 1.7931-0.68851 2.7498-0.85153 0.93447-0.44453 1.9823-0.55844 2.8672-1.1082 0.82178-0.18285 1.5075-0.71339 2.3387-0.83457 0.66855-0.33324 1.375-0.54434 2.0647-0.79883 0.69176-0.40184 1.4849-0.62427 2.1362-1.0777 0.83373-0.14442 1.5628-0.65024 2.3415-0.94364 0.50453-0.52739 1.3256-0.46308 1.8807-0.94548 0.48656-0.16369 0.90866-0.41706 1.3137-0.72436 0.7489-0.26302 1.3738-0.76572 2.1036-1.0759 0.50526-0.37463 1.1545-0.48632 1.6174-0.93815 0.65446-0.28248 1.1888-0.8077 1.8742-1.0667 0.69611-0.41293 1.363-0.86326 2.036-1.2904 0.27061-0.44713 0.87072-0.50621 1.2541-0.85336 0.36714-0.14559 0.66154-0.33248 0.89828-0.63314 1.1896-0.78409 2.1998-1.802 3.3151-2.6838 3.0737-2.7998 4.9572-4.2532 7.1606-7.9358 0.31291-0.5526 0.7593-1.0595 0.99654-1.6754 0.33075-0.69577 0.9064-1.2654 1.0361-2.046 0.26816-0.63527 1.211-2.9762 1.1668-3.7125 0.19926-0.51449 0.82039-3.618 0.75903-4.1958 0.02457-3.3766-0.18535-3.7618-0.61855-5.1106-0.12125-0.46805-0.51567-1.5471-0.70306-2.0769-0.29246-0.739-0.63588-1.4511-0.90491-2.1969-0.4503-0.68591-0.65711-1.311-1.27-2.0965-0.43705-0.50469-0.52923-0.9037-1.154-1.6059-0.58096-1.028-1.6337-1.967-2.4735-2.9103-1.0672-1.0173-2.0425-2.1818-3.2528-3.0234-0.2708-0.10427-1.2378-1.1436-1.5715-1.357-1.1883-0.9216-1.3542-1.1048-2.6565-1.8616-0.9853-0.75431-2.0426-1.3942-3.0934-2.0377-0.31109-0.19432-0.34613-0.27844-0.70098-0.46976-0.65918-0.30363-1.177-0.69783-1.8389-1.0511-0.35754-0.29758-0.82501-0.43528-1.2122-0.63521-1.3714-0.86181-2.9335-1.4121-4.2609-2.3234-0.80218-0.24234-1.4674-0.79971-2.3117-0.93127-1.3417-0.59484-2.7148-1.166-4.0484-1.8014-0.82716-0.21052-1.531-0.74547-2.3802-0.89209-0.60265-0.30062-1.2377-0.52769-1.8593-0.75689-0.90856-0.40769-1.8582-0.71582-2.7968-1.0495-0.91407-0.24975-1.7571-0.71548-2.7026-0.86162-1.1567-0.48606-2.3852-0.78298-3.6012-1.0755-0.51735-0.07748-1.0428-0.13693-1.5664-0.13138z" fill="#7d7e82" style="paint-order:stroke markers fill"/>
  <path d="m60.654-46.547c-2.0346 0.0672-4.3142-0.28616-6.0732 0.99131-1.3256 0.83943-2.0786 2.4469-2.0417 3.9893 0.16021 1.2184 0.62412 2.4274 1.6256 3.1985 1.5071 1.5371 3.7108 1.9475 5.6749 2.6038 1.6237 0.40847 3.2689 0.75921 4.7812 1.504 1.3464 0.47815 2.6146 1.845 2.1517 3.3514-0.46683 1.4677-2.2008 1.9974-3.5911 2.0816-3.3138 0.19801-6.6491 0.057-9.9626 0.12832-0.79764 0.5243-0.82036 1.9848 0.13705 2.3241 3.5165 0.12741 7.0435 0.15266 10.56 0.02873 2.0887-0.18735 4.5071-0.96755 5.3843-3.0693 0.69386-1.7945 0.8612-4.0815-0.48239-5.6299-1.7978-2.1111-4.7009-2.6614-7.2811-3.202-1.7971-0.43659-3.7856-0.62712-5.2918-1.7961-0.73817-0.67472-1.0301-1.8174-0.55203-2.7317 0.42119-1.0761 1.7614-1.3144 2.786-1.4124 3.032-0.18931 6.0838-0.1188 9.1168-0.22174 0.58046-0.33357 0.85691-1.151 0.34647-1.6675-0.38904-0.77292-1.2965-0.38074-1.9817-0.4716-1.7689 1.81e-4 -3.5378-4.89e-4 -5.3067 1e-3z" style="paint-order:stroke markers fill"/>
  <path d="m41.991-47.423c-3.5891-0.10575-7.2688 1.5349-9.2825 4.5673-1.4219 1.9345-1.9738 4.3637-1.8491 6.7355 0.05749 2.674 0.8464 5.4968 2.8785 7.351 1.3708 1.5586 3.3974 2.3904 5.3975 2.765 2.8631 0.34042 5.9744 0.35974 8.5191-1.1917 1.139-0.6602 2.146-1.5445 2.9253-2.6182 1.3486-1.6722 2.2143-3.7152 2.6364-5.81 0.12215-0.63549-0.38973-1.2647-1.0562-1.1542-0.95303-0.10387-1.5964 0.76979-1.733 1.62-0.94526 2.7707-3.054 5.3582-5.9375 6.2035-1.2349 0.2284-2.5079 0.71345-3.749 0.30395-2.126-0.32478-4.2323-1.3434-5.4203-3.2066-0.59089-0.81289-0.88273-1.7954-1.2163-2.7292-0.13013-1.2419-0.26351-2.5841 0.03704-3.8149 0.55774-1.8228 1.689-3.5196 3.3254-4.5359 1.9501-1.1868 4.3593-1.8072 6.5841-1.0822 1.0979 0.34293 2.3111 0.71032 3.113 1.5653-0.28849 0.97306-1.4771 1.2198-2.1708 1.8259-2.9916 1.9591-5.9999 3.8992-8.9633 5.8972-0.74497 0.45576-0.63857 1.4474-0.19892 2.0773 0.28214 0.64331 1.0663 1.1092 1.7159 0.65699 2.3221-1.3749 4.4904-3.0022 6.7728-4.4444 2.376-1.6238 4.8586-3.1 7.1789-4.7994 0.56445-0.367 0.49317-1.1354 0.0486-1.5681-1.2289-1.6566-2.8904-2.9925-4.805-3.7652-1.4732-0.55239-3.0193-0.96547-4.608-0.84987l-0.11732 5e-4z" style="paint-order:stroke markers fill"/>
  <path d="m19.278-47.421c-1.9838 0.0379-3.9623 0.70878-5.6097 1.8055-2.0147 1.4486-3.712 3.5284-4.1262 6.0345-0.48605 1.6227-0.21464 3.3565-0.31253 5.0253 0.013984 5.6045-0.086816 11.213 0.092787 16.815 0.22152 0.74185 1.2223 0.72262 1.8515 0.70854 0.63893 0.1748 0.87254-0.53393 0.86666-1.0323 0.2284-4.4484 0.05401-8.9087 0.12533-13.362 0.06331-2.2945-0.0692-4.6071 0.14986-6.8912 0.30992-1.7095 1.0294-3.3982 2.4357-4.4878 1.2781-1.0781 2.9015-1.8496 4.6076-1.6996 3.1116-0.19443 6.1837 1.8388 7.2522 4.7694 0.66176 1.8756 0.58891 3.9937 0.0813 5.8998-0.63813 1.912-2.0686 3.5943-3.8309 4.5848-1.5418 0.72483-3.3307 1.1029-5.0125 0.71977-1.4934-0.41501-2.8036-1.2375-3.9476-2.2613-0.49669-0.52589-1.6057-0.36624-1.5766 0.46931 0.03175 0.68487 0.15613 1.4172 0.69411 1.9201 1.834 1.9482 4.6156 2.802 7.2476 2.5621 3.2068-0.01474 6.5061-1.5395 8.2286-4.3083 0.97741-1.666 1.6376-3.5628 1.5481-5.5164 0.10299-2.0952 0.06724-4.2931-0.94697-6.1908-1.267-2.5748-3.7933-4.4198-6.5338-5.1777-1.0623-0.35326-2.1732-0.41625-3.2847-0.38704z" style="paint-order:stroke markers fill"/>
  <path d="m-2.6333-47.366c-3.2273 0.0793-6.4665 1.7538-8.0611 4.6233-1.1839 1.8233-1.7068 3.9862-1.8887 6.1336 0.03477 1.6846 0.47372 3.3605 1.0848 4.9247 1.3341 3.2962 4.7127 5.7818 8.3329 5.6003 1.6649-0.0079 3.3877 0.07978 4.9584-0.5667 1.0008-0.20478 1.842-0.94352 2.6096-1.5922 0.39584-0.64859 0.46082-1.4907 0.41569-2.2308-0.1965-0.45705-0.73063-0.70136-1.1563-0.36503-0.91857 0.92473-2.1781 1.5431-3.4281 1.9453-1.3777 0.5205-2.8755 0.66725-4.3062 0.29722-2.3863-0.52311-4.4516-2.3065-5.2258-4.642-0.74838-1.5519-0.58774-3.3122-0.51284-4.9834 0.42777-2.4422 1.9587-4.7217 4.2443-5.7757 1.2506-0.82802 2.7953-0.69158 4.2234-0.65547 1.5903 0.20227 3.0765 0.99443 4.3388 1.9613 1.3816 1.1461 2.3508 2.8567 2.2913 4.688 0.16328 3.6274-0.11191 7.2663 0.11709 10.89 0.019653 0.9164 1.1326 0.8694 1.789 0.82564 0.8253 0.05038 0.94284-0.95528 0.89318-1.5644 0.060094-3.7576 0.15288-7.5277-0.10284-11.279-0.26744-2.7106-2.0067-5.0917-4.2015-6.6081-1.9343-1.1193-4.1849-1.6644-6.4149-1.6263z" style="paint-order:stroke markers fill"/>
  <path d="m-14.274-47.291c-3.1516 0.0927-6.5048 0.43246-9.0227 2.5427-2.3303 1.5673-3.5811 4.361-3.4398 7.1397-0.25451 2.8969 0.14033 6.1188 2.4022 8.1911 2.2541 2.4608 5.6796 3.4682 8.947 3.2106 1.084-0.27337 2.9431 0.54773 3.4863-0.50991 0.45114-0.89046 0.12261-2.4546-1.1545-2.2474-3.0573-0.06021-6.4155-0.51048-8.579-2.9098-2.9355-2.8082-2.6741-8.2151 0.85474-10.425 1.9359-1.5653 4.4611-1.599 6.8265-1.7152 1.1399 0.12097 2.602-0.64859 2.2186-1.9796-0.24008-1.191-1.5198-1.3906-2.5395-1.297z" style="paint-order:stroke markers fill"/>
  <path d="m-34.16-46.613c-2.6471 0.21165-5.4482-0.31941-7.9956 0.56509-2.6336 1.0833-3.8328 4.717-1.9565 6.9974 2.4689 3.0135 6.7714 3.0088 10.138 4.3851 1.7177 0.45783 3.7433 2.0222 3.0175 4.0102-0.94014 2.0935-3.6382 1.6622-5.5205 1.7965-2.7535 0.20122-5.6109-0.1499-8.3084 0.45834-0.66937 0.70846-0.2606 2.2574 0.92073 1.9579 4.0551 0.04161 8.1542 0.2118 12.185-0.2626 2.4247-0.57151 4.0759-2.9767 3.7946-5.4437 0.14048-2.3706-1.7946-4.1974-3.917-4.8562-2.973-1.3128-6.4448-1.1602-9.2711-2.8048-1.6576-0.94316-1.2882-3.5457 0.49268-4.1078 3.4771-0.74165 7.1332 0.01671 10.602-0.73145 1.0436-0.53531 0.09948-2.1674-0.93723-1.9217-1.0794-0.075-2.1631-0.0429-3.2443-0.0422z" style="paint-order:stroke markers fill"/>
  <path d="m-67.673-53.671c-2.5901-0.049-5.1326 0.53122-7.6477 1.0348-3.198 1.0511-6.513 1.795-9.5758 3.2503-7.6055 3.3774-14.894 8.8516-18.167 16.737-1.0013 3.0012-0.56625 6.6402 1.8681 8.8531 2.6765 3.0343 6.6097 4.4709 10.257 5.9647 2.727 0.87106 5.5138 1.6446 8.3463 2.0112 2.064 0.72217 4.2971 0.32787 6.3956 0.88773 6.7385 0.37693 13.522 0.60025 20.258 0.09472 2.5369-0.52254 5.1437-0.41684 7.6519-1.0897 1.8992-0.13096 3.8883-0.36937 5.5932-1.2471 0.65432-0.39703 0.3326-1.1843-0.4033-1.1389-2.7568 0.34095-5.5664 0.58443-8.3592 0.73105-3.9709 0.49671-7.9759 0.72962-11.968 0.2716-6.3588-0.71182-12.885-1.1883-18.904-3.504-3.0507-1.3352-6.0457-2.9737-8.1276-5.6529-1.8906-1.903-3.2114-4.447-3.5656-7.0923 0.25663-3.726 2.8346-6.8892 5.4901-9.3416 4.2667-3.3576 9.1431-6.1403 14.504-7.2284 1.3502-0.58922 2.8873-0.52428 4.2966-0.93586 3.9226-0.48911 8.5736-0.0997 11.288 3.1339 1.1294 1.5247 1.4375 3.6939 0.87582 5.4511-0.56307 1.6933-1.3838 3.3152-2.6284 4.6408-1.3792 1.5978-2.8871 3.1139-4.7013 4.193-3.5258 2.7788-7.7578 4.5121-11.749 6.4676-2.6326 0.76238-5.0734 2.2306-7.6074 3.2013-0.19555 0.86679 1.1964 0.59518 1.6604 0.47206 1.4662-0.41202 2.9928-0.53222 4.3663-1.2072 3.83-1.0559 7.5995-2.402 11.109-4.2925 5.4138-2.5412 10.457-6.0958 14.158-10.834 1.2879-1.9666 1.9706-4.379 1.9886-6.7137-0.41107-2.7081-2.5923-4.7287-5.1064-5.5744-1.8687-0.92466-3.9771-1.0184-5.9932-1.389-1.8633-0.14955-3.7347-0.17433-5.6033-0.15454z" fill="#03548b" style="paint-order:stroke markers fill"/>
  <text x="69.383522" y="-44.733078" fill="#000000" font-family="sans-serif" font-size="19.899px" letter-spacing="0px" stroke-width=".49746" word-spacing="0px" style="line-height:1.25" xml:space="preserve"><tspan x="69.383522" y="-44.733078" font-family="Verdana" font-size="2.6531px" font-weight="bold" stroke-width=".49746">TM</tspan></text>
 </g>
</svg>
