<?xml version="1.0"?><svg xmlns="http://www.w3.org/2000/svg" viewBox="0 0 1500 283.2"><path fill="#c00" d="m1256.3 3.647h200.68s43.42-2.122 40.37 33.46l-10.45 103.3s-3.7 30.9-33.35 30.9h-119.5l-3.21 32.92h149.8l-7.345 71.6h-249l15.29-128.9s1.85-37.21 35.31-37.21h118.5l2.557-32.59h-148.4m-982.4 102.27l8.705-70.73h-253.7l-18.17 174.1h250.9l9.358-80.08h-150.6l3.7-23.29h149.9zm20.7-70.7c-1.36 7.181-2.231 22.41 2.666 41.02 7.726 28.02 37.49 26.44 37.49 26.44l136.8-1.632-4.896 28.24-181.7.707-8.05 79.32h230.5c17.84 0 41.46-14.25 52.83-47.71 1.904-6.855 9.847-80.14 9.684-85.04-.87-18.93-11.37-34.17-26.09-41.35zm570.4 0l-18.28 174.1h96.9l21.16-174.1zm183.7 0l-18.28 174.1h97.33l20.95-174.1zm105-28.4l.218-47.6c-3-19.27-17-30.36-39-32.32h-237.4l-8.487 79.92h285.1zm-586.59 202.5h97.77l10.83-108.9h133.8c30.96-4.624 44.34-39.55 45.05-65.23l-269.03.015zm290.4-256.42c-8.6-15.07-18.9-24.04-37.9-26h-466.4c-18 1.63-27.9 8.104-40.9 24.53-10.5 12.74-13.6 43.64-14.5 55.39h561.39c1.47-11.75 4.46-43.03-1.69-53.92m-561.75-26h-255.2l-8.378 79.92h254.11z"/></svg>