<?xml version="1.0" encoding="UTF-8" standalone="no"?>
<svg
   xmlns:dc="http://purl.org/dc/elements/1.1/"
   xmlns:cc="http://creativecommons.org/ns#"
   xmlns:rdf="http://www.w3.org/1999/02/22-rdf-syntax-ns#"
   xmlns:svg="http://www.w3.org/2000/svg"
   xmlns="http://www.w3.org/2000/svg"
   xmlns:sodipodi="http://sodipodi.sourceforge.net/DTD/sodipodi-0.dtd"
   xmlns:inkscape="http://www.inkscape.org/namespaces/inkscape"
   viewBox="0 0 512 512"
   id="svg2"
   version="1.1"
   inkscape:version="0.91 r13725"
   sodipodi:docname="espnu.lightt.svg">
  <metadata
     id="metadata14">
    <rdf:RDF>
      <cc:Work
         rdf:about="">
        <dc:format>image/svg+xml</dc:format>
        <dc:type
           rdf:resource="http://purl.org/dc/dcmitype/StillImage" />
        <dc:title></dc:title>
      </cc:Work>
    </rdf:RDF>
  </metadata>
  <defs
     id="defs12" />
  <sodipodi:namedview
     pagecolor="#ffffff"
     bordercolor="#666666"
     borderopacity="1"
     objecttolerance="10"
     gridtolerance="10"
     guidetolerance="10"
     inkscape:pageopacity="0"
     inkscape:pageshadow="2"
     inkscape:window-width="1280"
     inkscape:window-height="737"
     id="namedview10"
     showgrid="false"
     inkscape:zoom="0.921875"
     inkscape:cx="187.50945"
     inkscape:cy="256"
     inkscape:window-x="-8"
     inkscape:window-y="-8"
     inkscape:window-maximized="1"
     inkscape:current-layer="svg2" />
  <path
     fill="#231f20"
     d="m510.97 315.09-33.756-76.77 33.664-76.7h-94.57v-40.21h36.37v-117.75h-12.42-171.33v117.47l17.954-.031s-.031 16.17-.092 40.52h-65.21v-40.52l17.216.031v-117.47h-178.96v117.75h32.25v40.21h-91.03l33.664 76.7-33.756 76.77h91.12v114.98l77.26 78.21h169.7l77.26-78.21v-114.98h94.66"
     id="path4"
     style="fill:#ffffff" />
  <path
     fill="#c00"
     d="m379.08 84.17h36.37v-43.23h-110.95v43.19l18.507-.031.123 77.53h55.953v-77.47zm-55.57 320.29-25.394 24.01h-89.86l-23.98-24.01.184-89.37h-55.09v99.67l55.58 56.26h138.56l55.58-56.26v-99.67h-55.738l.154 89.37m-138.7-242.82l.184-77.53h18.292v-43.16h-106.16v43.23h32.25v77.47h55.43z"
     id="path6" />
  <path
     fill="#fff"
     d="m148.84 284.02 2.921-24.687-49.5-.061 1.383-10.514 49.558-.061 2.828-21.551h-80.09l-6.825 56.875h79.72m262.09-56.52l-7.132 56.35h30.19l7.132-56.35h-30.19m-28.53 0h-31.11l-7.717 56.2h30.743l8.09-56.2m-53.886 20.83c9.377 0 13.404-6.179 14.726-12.758.615-3.197 1.445-8.09 1.445-8.09h-85.8l-7.163 56.38h30.16l5.01-35.539h41.626m-168.75 11.007-2.951 24.533s64.93.092 66.71 0c2.183-.184 13.742 1.629 21.459-11.713 2.89-4.98 4.488-17.8 4.827-24.441.707-14.726-8.331-20.567-19.03-20.659-5.288-.061-52.725-.061-68.34.092-2.337 14.849 5.903 20.813 14.265 21.12 5.964.246 42.918.154 42.918.154l-1.076 10.852-58.781.061m196.05-68.279-3.136 26.16 90.05.092c0-.215.061-1.076.338-4.089 1.599-17.19-9.1-22.17-19.706-22.23-16.509-.061-67.54.061-67.54.061m86.914 26.266h-.031c0 .154.031 0 .031 0m-277.83-8.54c-.584 3.966-1.23 8.454-1.23 8.454l182.22.092s.953-4.796.861-9.161c-.215-9.346-7.348-16.54-16.355-16.694-8.885-.123-127.8 0-142.65 0-12.02 0-21.766 10.02-22.842 17.308m-7.684 8.461 2.951-26.04-79.53-.031-3.29 26.07h79.871"
     id="path8"
     style="fill:#000000" />
  <path
     style="opacity:0;fill:#000000;fill-opacity:1;stroke:#000000;stroke-width:1.08474576;stroke-opacity:1"
     d="m 78.260332,214.50847 c 0.05129,-1.34237 0.66146,-6.83389 1.355932,-12.20339 l 1.262677,-9.76271 39.462859,-0.28486 39.46286,-0.28487 -0.63285,4.08148 c -0.34807,2.24481 -0.96691,7.86452 -1.3752,12.48825 l -0.74233,8.40678 -39.4436,0 -39.443603,0 0.09325,-2.44068 z"
     id="path4142"
     inkscape:connector-curvature="0" />
  <path
     style="opacity:0;fill:#ff00ff;fill-opacity:1;stroke:#000000;stroke-width:1.08474576;stroke-opacity:1"
     d="m 69.965788,280.67797 c 0.284905,-1.34238 1.836401,-13.78983 3.447768,-27.66102 l 2.929758,-25.22034 39.420356,0 c 30.81238,0 39.42066,0.29609 39.42174,1.35593 7.6e-4,0.74577 -0.56135,5.38305 -1.24913,10.30509 l -1.25051,8.94915 -24.7183,0 -24.71831,0 -0.73952,4.93147 c -0.40673,2.7123 -0.4987,5.17228 -0.20436,5.46662 0.29433,0.29433 11.33619,0.83706 24.53746,1.20605 20.4885,0.57268 24.0023,0.91295 24.0023,2.32432 0,0.90938 -0.55199,5.95767 -1.22666,11.21841 l -1.22666,9.56499 -39.47197,0 -39.471973,0 0.518011,-2.44067 z"
     id="path4144"
     inkscape:connector-curvature="0" />
  <path
     style="opacity:0;fill:#ff00ff;fill-opacity:1;stroke:#000000;stroke-width:1.08474576;stroke-opacity:1"
     d="m 69.965788,280.67797 c 0.284905,-1.34238 1.836401,-13.78983 3.447768,-27.66102 l 2.929758,-25.22034 39.420356,0 c 30.81238,0 39.42066,0.29609 39.42174,1.35593 7.6e-4,0.74577 -0.56135,5.38305 -1.24913,10.30509 l -1.25051,8.94915 -24.7183,0 -24.71831,0 -0.73952,4.93147 c -0.40673,2.7123 -0.4987,5.17228 -0.20436,5.46662 0.29433,0.29433 11.33619,0.83706 24.53746,1.20605 20.4885,0.57268 24.0023,0.91295 24.0023,2.32432 0,0.90938 -0.55199,5.95767 -1.22666,11.21841 l -1.22666,9.56499 -39.47197,0 -39.471973,0 0.518011,-2.44067 z"
     id="path4146"
     inkscape:connector-curvature="0" />
  <path
     style="opacity:0;fill:#ff00ff;fill-opacity:1;stroke:#000000;stroke-width:1.08474576;stroke-opacity:1"
     d="m 69.965788,280.67797 c 0.284905,-1.34238 1.836401,-13.78983 3.447768,-27.66102 l 2.929758,-25.22034 39.420356,0 c 30.81238,0 39.42066,0.29609 39.42174,1.35593 7.6e-4,0.74577 -0.56135,5.38305 -1.24913,10.30509 l -1.25051,8.94915 -24.7183,0 -24.71831,0 -0.73952,4.93147 c -0.40673,2.7123 -0.4987,5.17228 -0.20436,5.46662 0.29433,0.29433 11.33619,0.83706 24.53746,1.20605 20.4885,0.57268 24.0023,0.91295 24.0023,2.32432 0,0.90938 -0.55199,5.95767 -1.22666,11.21841 l -1.22666,9.56499 -39.47197,0 -39.471973,0 0.518011,-2.44067 z"
     id="path4148"
     inkscape:connector-curvature="0" />
  <path
     style="opacity:0;fill:#ff00ff;fill-opacity:1;stroke:#000000;stroke-width:1.08474576;stroke-opacity:1"
     d="m 78.260332,214.50847 c 0.05129,-1.34237 0.66146,-6.83389 1.355932,-12.20339 l 1.262677,-9.76271 39.462859,-0.28486 39.46286,-0.28487 -0.63285,4.08148 c -0.34807,2.24481 -0.96691,7.86452 -1.3752,12.48825 l -0.74233,8.40678 -39.4436,0 -39.443603,0 0.09325,-2.44068 z"
     id="path4150"
     inkscape:connector-curvature="0" />
  <path
     style="opacity:0;fill:#ff00ff;fill-opacity:1;stroke:#000000;stroke-width:1.08474576;stroke-opacity:1"
     d="m 78.260332,214.50847 c 0.05129,-1.34237 0.66146,-6.83389 1.355932,-12.20339 l 1.262677,-9.76271 39.462859,-0.28486 39.46286,-0.28487 -0.63285,4.08148 c -0.34807,2.24481 -0.96691,7.86452 -1.3752,12.48825 l -0.74233,8.40678 -39.4436,0 -39.443603,0 0.09325,-2.44068 z"
     id="path4152"
     inkscape:connector-curvature="0" />
  <path
     style="opacity:0;fill:#ff00ff;fill-opacity:1;stroke:#000000;stroke-width:1.08474576;stroke-opacity:1"
     d="m 78.260332,214.50847 c 0.05129,-1.34237 0.66146,-6.83389 1.355932,-12.20339 l 1.262677,-9.76271 39.462859,-0.28486 39.46286,-0.28487 -0.63285,4.08148 c -0.34807,2.24481 -0.96691,7.86452 -1.3752,12.48825 l -0.74233,8.40678 -39.4436,0 -39.443603,0 0.09325,-2.44068 z"
     id="path4154"
     inkscape:connector-curvature="0" />
</svg>
