<svg xmlns="http://www.w3.org/2000/svg" height="71.225" width="600" version="1.1" viewBox="0 0 158.75006 18.844845">
 <g stroke-width=".23647" fill="#fff" transform="translate(-46.113 -99.345)">
  <path d="m55.231 99.352c-5.0268 0-9.1178 4.2175-9.1178 9.4005 0 5.185 4.0909 9.4015 9.1178 9.4015 3.4248 0 6.531-1.953 8.108-5.0968l0.22531-0.45785h-2.4567c-0.0856 0.14022-0.16774 0.26233-0.22686 0.34674-1.311 1.8747-3.4168 2.9946-5.6498 2.9946-3.2491 0-6.1123-2.3808-6.8068-5.6606l-0.02532-0.11938h15.883c0.09506-0.64461 0.0677-1.3477 0.0677-1.3477 0.000048-0.0198 0.0011-0.0402 0.0011-0.0605 0-5.1829-4.0908-9.4005-9.1188-9.4005zm0 2.2133c3.4936 0 6.4647 2.6953 6.9107 6.2715l0.01447 0.10955h-13.85l0.01292-0.10955c0.44787-3.5761 3.4193-6.2715 6.9117-6.2715z"/>
  <path d="m74.578 118.16c-1.0116 0-1.9797-0.18114-2.8769-0.53821-0.89054-0.35564-1.678-0.87091-2.3415-1.5311-0.67701-0.67157-1.2041-1.4708-1.5664-2.3748-0.37575-0.94398-0.52709-1.9731-0.52212-3.0599l-0.000237-10.938h2.1098l-0.000237 10.76c-0.0031 0.84159 0.09955 1.629 0.37622 2.3406 0.26224 0.67724 0.64272 1.2764 1.131 1.7808 0.47483 0.48996 1.0345 0.87162 1.6633 1.1339 0.63799 0.26602 1.3188 0.40105 2.0225 0.40105 0.71981-0.00072 1.4032-0.13621 2.0402-0.40295 0.63184-0.2646 1.1937-0.64745 1.6697-1.1379 0.48854-0.50179 0.87186-1.1003 1.1395-1.7794 0.28211-0.71531 0.45426-1.5025 0.45591-2.3382v-10.764h2.1055l-0.000238 10.94c-0.0035 1.0896-0.22535 2.1176-0.60583 3.0549-0.36771 0.90449-0.89763 1.703-1.5756 2.3744-0.66944 0.6614-1.4585 1.1764-2.3465 1.5314-0.89716 0.35848-1.8655 0.54056-2.8778 0.54198h-0.000529z"/>
  <path d="m84.997 117.67v-10.35c0.0011-0.76994 0.09222-1.5236 0.2717-2.2401 0.24687-0.9934 0.6562-1.8794 1.2169-2.6333 0.69711-0.93831 1.6295-1.6754 2.7709-2.1899 1.3223-0.59424 2.9419-0.89503 4.8138-0.89503h0.35399v2.2505l-0.34501-0.00023c-1.3654 0-2.5364 0.17971-3.4877 0.53323-0.83686 0.31048-1.5255 0.76143-2.0462 1.3401-0.45331 0.50509-0.79075 1.1183-1.0024 1.821-0.18114 0.60229-0.2743 1.2805-0.27667 2.0157v10.352h-2.2694z"/>
  <path d="m128.33 117.67v-9.459c0.003-0.73258-0.0747-1.4131-0.31096-2.0228-0.21826-0.56634-0.53324-1.0648-0.93642-1.4826-0.3871-0.40106-0.84348-0.71319-1.3559-0.92767-0.52519-0.21944-1.087-0.33082-1.6695-0.33082-0.59259 0.00048-1.1599 0.11232-1.6853 0.33271-0.51551 0.21684-0.97449 0.53087-1.3642 0.93311-0.40413 0.41665-0.72218 0.91607-0.94564 1.4845-0.24096 0.61364-0.39537 1.2932-0.39632 2.0204l-0.00023 9.4524h-4.1748l-0.00053-9.6413c0.004-1.2452 0.25775-2.4231 0.69403-3.5012 0.42706-1.053 1.0428-1.9835 1.831-2.7664 0.77916-0.77255 1.6969-1.3741 2.7274-1.7877 1.0348-0.41429 2.1476-0.62546 3.3082-0.62735 1.1625 0 2.276 0.20975 3.3101 0.62333 1.0357 0.41452 1.953 1.0168 2.7262 1.7896 0.7872 0.78389 1.3999 1.7156 1.8208 2.769 0.43132 1.087 0.60583 2.2673 0.6004 3.5092v9.6325z"/>
  <path d="m143.67 99.345c-5.0283 0-9.1168 4.2177-9.1168 9.4025 0 5.1832 4.0885 9.3994 9.1168 9.3994 3.4222 0 6.5275-1.952 8.1024-5.0932l0.12505-0.25012h-4.4369c-0.0336 0.0319-0.29973 0.26149-0.29973 0.26149-0.99648 0.8579-2.2062 1.3121-3.4907 1.3121-2.3637 0-4.4488-1.5516-5.1873-3.8602l-0.061-0.19275h14.236l0.0217-0.14211c0.0705-0.47365 0.10593-0.95569 0.10593-1.4345 0-5.1848-4.0891-9.4025-9.1157-9.4025zm0 3.7698c2.364 0 4.4474 1.5512 5.1852 3.8613l0.0605 0.19276h-10.494l0.061-0.19276c0.73849-2.3101 2.8235-3.8613 5.1873-3.8613z"/>
  <path d="m154.21 99.823v-0.10688h4.522c0.55263 4.3295 1.9717 11.194 3.1985 14.298 1.2984-3.1034 2.8135-9.9683 3.3676-14.298h3.7511c0.57722 4.3295 2.0689 10.907 3.3912 14.298 1.2268-3.3912 2.6215-9.9683 3.1989-14.298h4.4974v0.10712c-1.0338 6.7592-3.0062 13.709-4.6899 17.846h-5.6275c-0.93783-2.2609-2.0686-5.7242-2.6458-8.8269-0.55334 3.1027-1.7794 6.7587-2.6215 8.8269h-5.6282c-1.9736-4.5213-4.1174-12.105-4.7138-17.846"/>
  <path d="m181.99 116.88v-3.4288h0.1887c1.0168 0.30788 3.2162 0.734 4.8003 0.734h0.9227c1.4649 0 2.577-0.44977 2.577-1.9395 0-1.1112-0.96976-1.5597-2.0339-1.844l-2.7667-0.73258c-2.0332-0.52023-3.6884-1.9398-3.6884-4.99 0-3.5934 2.9558-5.0834 6.549-5.0834h0.9227c1.1107 0 3.334 0.28447 4.3503 0.66235v3.4049h-0.18894c-0.92246-0.26059-3.1446-0.54364-4.1616-0.54364h-0.82764c-1.2999 0-2.412 0.25917-2.412 1.5598 0 1.0175 0.7567 1.4188 1.6796 1.6553l2.7664 0.75647c2.6707 0.7094 4.0656 2.2937 4.0656 5.1545 0 3.9727-2.8601 5.4619-6.8323 5.4619h-0.9227c-1.3952 0.00024-3.7118-0.37764-4.9883-0.8274"/>
  <path d="m204.86 113.92c0 2.0928-1.6964 3.7889-3.7889 3.7889s-3.7887-1.6964-3.7887-3.7889 1.6964-3.7887 3.7887-3.7887c2.0925 0 3.7889 1.6964 3.7889 3.7887"/>
  <path d="m104.26 99.388c-5.0661 0-9.1731 4.2088-9.1731 9.401 0 5.1921 4.107 9.401 9.1731 9.401s9.1731-4.2091 9.1731-9.401-4.107-9.401-9.1731-9.401zm0 2.5637c3.5343 0 6.4099 3.0668 6.4099 6.8368s-2.8757 6.8373-6.4099 6.8373c-3.5343 0-6.4099-3.0673-6.4099-6.8373s2.8757-6.8368 6.4099-6.8368z"/>
 </g>
</svg>
