<?xml version="1.0" encoding="UTF-8" standalone="no"?>
<!-- Generator: Adobe Illustrator 16.0.0, SVG Export Plug-In . SVG Version: 6.00 Build 0)  -->

<svg
   xmlns:dc="http://purl.org/dc/elements/1.1/"
   xmlns:cc="http://creativecommons.org/ns#"
   xmlns:rdf="http://www.w3.org/1999/02/22-rdf-syntax-ns#"
   xmlns:svg="http://www.w3.org/2000/svg"
   xmlns="http://www.w3.org/2000/svg"
   xmlns:sodipodi="http://sodipodi.sourceforge.net/DTD/sodipodi-0.dtd"
   xmlns:inkscape="http://www.inkscape.org/namespaces/inkscape"
   version="1.1"
   id="svg9180"
   x="0px"
   y="0px"
   width="1214.3204"
   height="598.35242"
   viewBox="0 0 1214.3204 598.3524"
   enable-background="new 0 0 1213.712 771.059"
   xml:space="preserve"
   inkscape:version="0.91 r13725"
   sodipodi:docname="foxsportseredivisie1.default.svg"><metadata
     id="metadata138"><rdf:RDF><cc:Work
         rdf:about=""><dc:format>image/svg+xml</dc:format><dc:type
           rdf:resource="http://purl.org/dc/dcmitype/StillImage" /><dc:title></dc:title></cc:Work></rdf:RDF></metadata><defs
     id="defs136" /><sodipodi:namedview
     pagecolor="#ffffff"
     bordercolor="#666666"
     borderopacity="1"
     objecttolerance="10"
     gridtolerance="10"
     guidetolerance="10"
     inkscape:pageopacity="0"
     inkscape:pageshadow="2"
     inkscape:window-width="640"
     inkscape:window-height="480"
     id="namedview134"
     showgrid="false"
     fit-margin-top="0"
     fit-margin-left="0"
     fit-margin-right="0"
     fit-margin-bottom="0"
     inkscape:zoom="0.23728858"
     inkscape:cx="533.10582"
     inkscape:cy="212.82275"
     inkscape:window-x="0"
     inkscape:window-y="0"
     inkscape:window-maximized="0"
     inkscape:current-layer="svg9180" /><path
     id="path3118"
     d="m 542.96067,162.53115 0,0.844 c -1.579,-0.059 -3.156,-0.125 -4.75,-0.125 -72.386,0 -131.094,61.006 -131.094,136.25 0,75.244 58.708,136.25 131.094,136.25 1.595,0 3.17,-0.066 4.75,-0.125 l 0,0.188 258.469,0 17.25,0 258.50003,0 0,-0.219 c 1.82,0.078 3.631,0.156 5.469,0.156 72.387,0 131.063,-61.007 131.063,-136.25 0,-75.243 -58.677,-136.25 -131.063,-136.25 -1.838,0 -3.648,0.079 -5.469,0.156 l 0,-0.875 -258.50003,0 -17.25,0 -258.469,0 z"
     inkscape:connector-curvature="0"
     style="fill:#002c55;stroke:#032a61;stroke-width:1.21749997" /><g
     id="layer1"
     transform="translate(2019.5433,-1694.4867)"><g
       id="g10283"
       transform="matrix(0.1864481,0,0,0.1864481,-1643.0035,1865.3435)"><path
         id="path10049"
         d="m 656.137,2292.84 c -1404.359,0 -2675.679,-668.218 -2675.679,-1620.1 0,-817.87 1126.953,-1589.117 2678.675,-1589.117 1543.708,0 2679.382,762.877 2679.382,1585.702 0,944.633 -1234.065,1623.515 -2682.378,1623.515 l 0,0 z"
         inkscape:connector-curvature="0"
         style="fill:#93a1be" /><path
         id="path10043"
         d="m 718.204,2226.331 c 1230.822,0 2543.935,-604.8 2543.935,-1559.128 0,-863.365 -1268.015,-1516.844 -2543.935,-1516.844 l 0,1347.941 0,1638.634 0,89.397 z"
         inkscape:connector-curvature="0"
         style="fill:#f3f5fa" /><path
         id="path10041"
         d="m 600.942,2226.331 c -1230.822,0 -2543.935,-604.8 -2543.935,-1559.128 0,-808.73 1178.728,-1516.844 2543.935,-1516.844 l 0,1347.941 0,1638.634 0,89.397 z"
         inkscape:connector-curvature="0"
         style="fill:#f8f9fc" /><path
         id="path10137"
         d="m 2611.881,688.565 c 0,792.637 -874.647,1435.201 -1953.581,1435.201 -1078.934,0 -1953.581,-642.564 -1953.581,-1435.201 0,-792.64 874.647,-1435.204 1953.581,-1435.204 1078.934,0 1953.581,642.564 1953.581,1435.204 z"
         inkscape:connector-curvature="0"
         style="fill:#fbfbfd" /><radialGradient
         id="path10271_1_"
         cx="4155.1592"
         cy="-5591.1504"
         r="1935.0106"
         gradientTransform="matrix(0.0011,0.5363,0.1903,-4.314372e-4,1672.3889,-2255.0854)"
         gradientUnits="userSpaceOnUse"><stop
           offset="0"
           style="stop-color:#FFFFFF;stop-opacity:0"
           id="stop11" /><stop
           offset="0.6816"
           style="stop-color:#E5E9F1"
           id="stop13" /><stop
           offset="1"
           style="stop-color:#C2CBDD"
           id="stop15" /></radialGradient><path
         id="path10271"
         d="m 653.947,2111.489 -373.146,-20.731 -416.493,-88.57 -393.871,-169.608 -314.724,-207.309 -254.417,-339.221 -195.995,-665.253 147.939,-367.492 C -919.569,116.627 -743.461,60.135 -743.461,60.135 L -120.612,30.924 113.074,196.766 437.221,-25.611 727.443,-10.534 1010.128,110.078 1236.277,42.234 1654.656,98.77 1880.8,0.771 c 255.082,62.769 619.083,266.668 619.083,266.668 l 74.444,604.003 -128.151,410.842 -184.692,239.332 -165.842,143.231 -344.872,209.184 -373.146,156.419 -491.874,71.621 -231.803,9.418 z"
         inkscape:connector-curvature="0"
         style="fill:url(#path10271_1_)" /><path
         id="path10126"
         d="m 1377.999,1020.362 -376,0 366.572,-639.429 -345.569,-596.571 386.999,0 151.999,267 155,-267.001 373.628,0 -339.467,592.91 373.842,643.09 -386.523,0 -181.424,-313.268 -179.057,313.269 z"
         inkscape:connector-curvature="0"
         style="fill:#ffffff;stroke:#ffffff;stroke-width:43.79999924" /><path
         id="path9243"
         d="m -761.997,1022.362 0,-1240.001 745.998,0 L 7,121.362 l -419.002,0 0,162 341.002,0 0,338.001 -343.003,0 0,401 -347.994,0 z"
         inkscape:connector-curvature="0"
         style="fill:#ffffff;stroke:#ffffff;stroke-width:44" /><radialGradient
         id="path9241_1_"
         cx="4903.9961"
         cy="-2165.4507"
         r="1443.5"
         gradientTransform="matrix(-0.001,0.1653,0.221,0.0014,1091.2688,-1055.8271)"
         gradientUnits="userSpaceOnUse"><stop
           offset="0"
           style="stop-color:#4372A1"
           id="stop21" /><stop
           offset="1"
           style="stop-color:#002C55"
           id="stop23" /></radialGradient><path
         id="path9241"
         d="m -761.997,1022.362 0,-1240.001 745.998,0 L 7,121.362 l -419.002,0 0,162 341.002,0 0,338.001 -343.003,0 0,401 -347.994,0 z"
         inkscape:connector-curvature="0"
         style="fill:url(#path9241_1_)" /><radialGradient
         id="path10013_1_"
         cx="4903.9751"
         cy="-2165.4507"
         r="1443.5001"
         gradientTransform="matrix(-0.001,0.1653,0.221,0.0014,1091.2688,-1055.8271)"
         gradientUnits="userSpaceOnUse"><stop
           offset="0"
           style="stop-color:#4372A1"
           id="stop27" /><stop
           offset="1"
           style="stop-color:#002C55"
           id="stop29" /></radialGradient><path
         id="path10013"
         d="m 587.313,-199.063 c -339.425,0 -589.846,285.647 -589.846,603.658 0,300.231 235.451,602.188 591.407,602.188 335.56,0 590.501,-277.536 590.501,-603.969 0,-321.555 -254.082,-601.877 -592.062,-601.877 z M 590,48.374 c 60.574,0 105.001,54.653 105.001,109.002 l 0,492 c 0,60.145 -48.386,103 -105.001,103 -63.444,0 -100.999,-54.347 -100.999,-105 l 0,-485 C 489.001,100.804 531.694,48.374 590,48.374 Z"
         inkscape:connector-curvature="0"
         style="fill:url(#path10013_1_)" /><radialGradient
         id="path10017_1_"
         cx="4903.9541"
         cy="-2165.4507"
         r="1443.5022"
         gradientTransform="matrix(-0.001,0.1653,0.221,0.0014,1091.2688,-1055.8271)"
         gradientUnits="userSpaceOnUse"><stop
           offset="0"
           style="stop-color:#4372A1"
           id="stop33" /><stop
           offset="1"
           style="stop-color:#002C55"
           id="stop35" /></radialGradient><path
         id="path10017"
         d="m 1377.999,1020.362 -376,0 366.572,-639.429 -345.569,-596.571 386.999,0 151.999,267 155,-267.001 373.628,0 -339.467,592.91 373.842,643.09 -386.523,0 -181.424,-313.268 -179.057,313.269 z"
         inkscape:connector-curvature="0"
         style="fill:url(#path10017_1_)" /><path
         id="path10045"
         d="m -1851.998,722.362 419.997,0 c 15.86,488.543 356.416,957.864 954.145,1237.778 l -11.423,42.279 c -763.953,-230.02 -1336.337,-699.037 -1362.719,-1280.057 z"
         inkscape:connector-curvature="0"
         style="fill:#002c55" /><path
         id="path10047"
         d="m 3169.813,722.362 -420.002,0 c -15.86,488.543 -356.416,957.864 -954.145,1237.778 l 11.429,42.279 c 763.947,-230.02 1336.33,-699.037 1362.718,-1280.057 z"
         inkscape:connector-curvature="0"
         style="fill:#002c55" /><linearGradient
         id="path10053_1_"
         gradientUnits="userSpaceOnUse"
         x1="-22104.053"
         y1="1761.9861"
         x2="-20954.465"
         y2="2466.8154"
         gradientTransform="matrix(0.1864,0,0,-0.1864,2495.979,424.468)"><stop
           offset="0"
           style="stop-color:#32608F"
           id="stop41" /><stop
           offset="0.2"
           style="stop-color:#245583"
           id="stop43" /><stop
           offset="0.4"
           style="stop-color:#154976"
           id="stop45" /><stop
           offset="0.6031"
           style="stop-color:#083F69"
           id="stop47" /><stop
           offset="0.8"
           style="stop-color:#01335D"
           id="stop49" /><stop
           offset="1"
           style="stop-color:#002C55"
           id="stop51" /></linearGradient><path
         id="path10053"
         d="m -1489.998,152.361 -143,-68.999 c 235.226,-314.753 680.621,-569.445 1143.855,-709.318 l 11.492,42.394 c -281.763,132.386 -523.458,317.67 -682.349,523.924 l -329.998,211.999 z"
         inkscape:connector-curvature="0"
         style="fill:url(#path10053_1_)" /><path
         id="path10051"
         d="m -1850.003,618.364 420.003,0 c 15.331,-251.186 110.972,-476.994 269.999,-678.002 -277.175,50.442 -472.998,143 -472.998,143 -130.435,172.298 -202.17,350.231 -217.004,535.002 z"
         inkscape:connector-curvature="0"
         style="fill:#002c55" /><linearGradient
         id="path10063_1_"
         gradientUnits="userSpaceOnUse"
         x1="2314.3101"
         y1="1831.2498"
         x2="1178.0153"
         y2="2517.2371"
         gradientTransform="matrix(0.1864,0,0,-0.1864,2495.979,424.468)"><stop
           offset="0"
           style="stop-color:#32608F"
           id="stop56" /><stop
           offset="0.2"
           style="stop-color:#245583"
           id="stop58" /><stop
           offset="0.4"
           style="stop-color:#154976"
           id="stop60" /><stop
           offset="0.6031"
           style="stop-color:#083F69"
           id="stop62" /><stop
           offset="0.8"
           style="stop-color:#01335D"
           id="stop64" /><stop
           offset="1"
           style="stop-color:#002C55"
           id="stop66" /></linearGradient><path
         id="path10063"
         d="m 2808.824,152.361 143,-68.999 c -235.226,-314.753 -680.626,-569.445 -1143.86,-709.318 l -11.492,42.394 c 281.763,132.386 523.463,317.67 682.349,523.924 l 330.003,211.999 z"
         inkscape:connector-curvature="0"
         style="fill:url(#path10063_1_)" /><path
         id="path10061"
         d="m 3168.823,618.364 -420.002,0 c -15.331,-251.186 -110.966,-476.994 -270,-678.002 277.175,50.442 473.003,143 473.003,143 130.435,172.298 202.171,350.231 216.999,535.002 z"
         inkscape:connector-curvature="0"
         style="fill:#002c55" /><path
         id="path10128"
         d="m -790.998,1562.859 0,-63.628 32.5,-31.887 266.553,0 9.946,-9.983 0,-69.002 -7.998,-7.993 -247,0 -54.001,-54.001 0,-157.006 62.999,-62.997 357.998,0 0,68.999 -26,26 -260,0 -9.999,10.004 0,67.001 7.998,7.993 246,0 55.001,55.006 0,158.996 -62.502,62.497 -371.495,0 z"
         inkscape:connector-curvature="0"
         style="fill:#ffffff;stroke:#ffffff;stroke-width:43" /><path
         id="path10130"
         d="m 1700.659,1562.859 0,-63.628 32.5,-31.887 266.558,0 9.941,-9.983 0,-69.002 -7.998,-7.993 -247,0 -54.001,-54.001 0,-157.006 62.999,-62.997 358.003,0 0,68.999 -26,26 -260,0 -10.004,10.004 0,67.001 8.003,7.993 246,0 55.001,55.006 0,158.996 -62.502,62.497 -371.5,0 z"
         inkscape:connector-curvature="0"
         style="fill:#ffffff;stroke:#ffffff;stroke-width:43" /><radialGradient
         id="path10019_1_"
         cx="18812.281"
         cy="-8808.1006"
         r="1462.8293"
         gradientTransform="matrix(-0.1803,6.793944e-4,5.250435e-4,0.1394,4015.636,1686.0991)"
         gradientUnits="userSpaceOnUse"><stop
           offset="0"
           style="stop-color:#4372A1"
           id="stop73" /><stop
           offset="0.7459"
           style="stop-color:#113D68"
           id="stop75" /><stop
           offset="1"
           style="stop-color:#002C55"
           id="stop77" /></radialGradient><path
         id="path10019"
         d="m -790.998,1562.859 0,-63.628 32.5,-31.887 266.553,0 9.946,-9.983 0,-69.002 -7.998,-7.993 -247,0 -54.001,-54.001 0,-157.006 62.999,-62.997 357.998,0 0,68.999 -26,26 -260,0 -9.999,10.004 0,67.001 7.998,7.993 246,0 55.001,55.006 0,158.996 -62.502,62.497 -371.495,0 z"
         inkscape:connector-curvature="0"
         style="fill:url(#path10019_1_)" /><radialGradient
         id="path10021_1_"
         cx="18812.26"
         cy="-8808.1006"
         r="1462.8329"
         gradientTransform="matrix(-0.1803,6.793944e-4,5.250435e-4,0.1394,4015.636,1686.0991)"
         gradientUnits="userSpaceOnUse"><stop
           offset="0"
           style="stop-color:#4372A1"
           id="stop81" /><stop
           offset="0.7459"
           style="stop-color:#113D68"
           id="stop83" /><stop
           offset="1"
           style="stop-color:#002C55"
           id="stop85" /></radialGradient><path
         id="path10021"
         d="m -278,1106.375 0,456.504 124.998,0 0,-146.499 247,0 70.002,-70.007 0,-169.996 -70.002,-70.002 -371.998,0 z m 124.998,96.003 172.001,0 19.002,18.997 0,87.999 -19.002,19.002 -172.002,0 0,-125.998 z"
         inkscape:connector-curvature="0"
         style="fill:url(#path10021_1_)" /><radialGradient
         id="path10025_1_"
         cx="18812.281"
         cy="-8808.1289"
         r="1462.838"
         gradientTransform="matrix(-0.1803,6.793944e-4,5.250435e-4,0.1394,4015.636,1686.0991)"
         gradientUnits="userSpaceOnUse"><stop
           offset="0"
           style="stop-color:#4372A1"
           id="stop89" /><stop
           offset="0.6581"
           style="stop-color:#113D68"
           id="stop91" /><stop
           offset="1"
           style="stop-color:#002C55"
           id="stop93" /></radialGradient><path
         id="path10025"
         d="m 300.998,1106.375 -69.997,70.002 0,316.997 68.996,69.505 308.999,0 70.002,-69.505 0,-316.997 -70.002,-70.002 -307.998,0 z m 80.001,98.999 147.002,0 26,25.005 0,200.437 -25.811,25.56 -147.19,0 -26,-26 0,-199.002 25.999,-26 z"
         inkscape:connector-curvature="0"
         style="fill:url(#path10025_1_)" /><radialGradient
         id="path10029_1_"
         cx="18812.307"
         cy="-8808.0713"
         r="1462.8203"
         gradientTransform="matrix(-0.1803,6.793944e-4,5.250435e-4,0.1394,4015.636,1686.0991)"
         gradientUnits="userSpaceOnUse"><stop
           offset="0"
           style="stop-color:#4372A1"
           id="stop97" /><stop
           offset="0.7459"
           style="stop-color:#113D68"
           id="stop99" /><stop
           offset="1"
           style="stop-color:#002C55"
           id="stop101" /></radialGradient><path
         id="path10029"
         d="m 762.001,1106.375 0,456.504 124.999,0 0,-165.501 134.002,0 58.998,165.994 139.999,0 -79.996,-187.531 60.999,-60.464 0,-146.001 -62.999,-62.999 -376.002,0 z m 124.999,93.001 170,0 18.002,18.002 0,67.001 -18.002,17.997 -170,0 0,-103 z"
         inkscape:connector-curvature="0"
         style="fill:url(#path10029_1_)" /><radialGradient
         id="path10033_1_"
         cx="18812.281"
         cy="-8808.0508"
         r="1462.8215"
         gradientTransform="matrix(-0.1803,6.793944e-4,5.250435e-4,0.1394,4015.636,1686.0991)"
         gradientUnits="userSpaceOnUse"><stop
           offset="0"
           style="stop-color:#4372A1"
           id="stop105" /><stop
           offset="0.7459"
           style="stop-color:#113D68"
           id="stop107" /><stop
           offset="1"
           style="stop-color:#002C55"
           id="stop109" /></radialGradient><path
         id="path10033"
         d="m 1388.999,1562.859 0,-351.493 -145.001,0 0,-105.003 416.001,0 0,105.003 -145.499,0 0,351.493 -125.501,0 z"
         inkscape:connector-curvature="0"
         style="fill:url(#path10033_1_)" /><radialGradient
         id="path10035_1_"
         cx="18812.354"
         cy="-8808.1006"
         r="1462.834"
         gradientTransform="matrix(-0.1803,6.793944e-4,5.250435e-4,0.1394,4015.636,1686.0991)"
         gradientUnits="userSpaceOnUse"><stop
           offset="0"
           style="stop-color:#4372A1"
           id="stop113" /><stop
           offset="0.7459"
           style="stop-color:#113D68"
           id="stop115" /><stop
           offset="1"
           style="stop-color:#002C55"
           id="stop117" /></radialGradient><path
         id="path10035"
         d="m 1700.659,1562.859 0,-63.628 32.5,-31.887 266.558,0 9.941,-9.983 0,-69.002 -7.998,-7.993 -247,0 -54.001,-54.001 0,-157.006 62.999,-62.997 358.003,0 0,68.999 -26,26 -260,0 -10.004,10.004 0,67.001 8.003,7.993 246,0 55.001,55.006 0,158.996 -62.502,62.497 -371.5,0 z"
         inkscape:connector-curvature="0"
         style="fill:url(#path10035_1_)" /><path
         id="path10039"
         d="m 657.467,-765.062 c -1159.422,0 -2001.621,696.227 -2001.621,1440.75 0,845.771 930.471,1465.121 2000.621,1465.121 1029.17,0 2005.974,-583.776 2005.974,-1472.902 C 2662.44,-56.674 1834.089,-765.062 657.467,-765.062 Z m 0.597,51.217 c 570.927,0 1109.03,173.127 1493.871,498.846 197.923,228.05 352.19,530.607 352.19,905.282 0,366.868 -150.38,669.216 -351.247,900.377 -345.051,297.324 -876.559,499.867 -1495.411,499.867 -619.004,0 -1148.873,-205.329 -1494.594,-500.056 -226.369,-263.95 -350.875,-573.583 -350.875,-902.064 0,-350.723 136.883,-653.547 349.969,-901.501 329.102,-282.605 858.839,-500.751 1496.097,-500.751 z"
         inkscape:connector-curvature="0"
         style="fill:#60779c" /></g></g><g
     id="text3259"
     transform="matrix(1,0,-0.21999295,1,-3.6414264e-4,2.265337e-4)"><path
       id="path3404"
       d="m 1100.287,207.518 67.478,0 0,183.307 -50.477,0 0,-145.851 -33.734,0 0,-21.517 16.733,-15.939 z"
       inkscape:connector-curvature="0"
       style="fill:#ffffff" /></g></svg>