<svg xmlns="http://www.w3.org/2000/svg" height="370.3" width="600" version="1.1" xmlns:xlink="http://www.w3.org/1999/xlink" viewBox="0 0 158.75 97.975419">
 <defs>
  <linearGradient id="b" y2="568.01" gradientUnits="userSpaceOnUse" x2="1551.5" gradientTransform="matrix(0.12 0 0 -0.12 -124.21 266.9)" y1="1360" x1="1482.2">
   <stop stop-color="#649dcb" offset="0"/>
   <stop stop-color="#619bca" offset=".0067"/>
   <stop stop-color="#4c8fc7" offset=".0557"/>
   <stop stop-color="#3f88c6" offset=".1039"/>
   <stop stop-color="#3b86c5" offset="0.15"/>
   <stop stop-color="#488cc6" offset=".29660"/>
   <stop stop-color="#6199c9" offset=".5"/>
   <stop stop-color="#5193c7" offset=".63810"/>
   <stop stop-color="#2882c2" offset=".90610"/>
   <stop stop-color="#187cc0" offset="1"/>
  </linearGradient>
  <linearGradient id="a" y2="739.92" gradientUnits="userSpaceOnUse" x2="1577.6" gradientTransform="matrix(0.12 0 0 -0.12 -124.21 266.9)" y1="1228.6" x1="1577.6">
   <stop stop-color="#fff" offset=".5"/>
   <stop stop-color="#bfbfbf" offset="1"/>
  </linearGradient>
 </defs>
 <g transform="translate(-26.458 -99.846)">
  <g stroke-width="0.12">
   <path d="m26.458 182.85c0 1.32 1.0565 2.6245 2.3476 2.8989l56.566 12.02c1.2914 0.27445 2.3476-0.58106 2.3476-1.9011v-94.071c0-1.32-1.0565-2.1755-2.3476-1.9011l-56.566 12.021c-1.2911 0.27444-2.3476 1.579-2.3476 2.899z" fill="#187cc0"/>
   <path d="m27.118 182.03c0 1.32 1.0565 2.6245 2.3476 2.8989l55.187 11.73c1.2912 0.27445 2.3476-0.58105 2.3476-1.9011v-91.844c0-1.32-1.0565-2.1755-2.3476-1.9011l-55.187 11.73c-1.2911 0.27445-2.3476 1.579-2.3476 2.899z" fill="url(#b)"/>
   <path d="m26.993 114.33s53.982-6.4268 60.726 8.1628l0.001 29.357s-0.40572 17.707-8.6966 20.365l-27.2 5.7725s-23.58 7.893-25.107-42.28c-0.71162-16.327 0.27733-21.377 0.27733-21.377z" fill="#187cc0"/>
   <path d="m87.717 153.13c-1.8184-6.4001-7.045-9.8278-14.335-10.643 0.0064 0 7.5764-5.5781 14.338-11.061v-11.97h-43.474l-0.0015 13.32h24.503c-0.04988 0.0393-15.348 11.871-15.348 11.871l5.731 8.5686s3.4446-1.7745 6.55-1.7745c5.5022 0 7.668 2.3055 7.668 7.5012 0 5.6326-2.5834 8.1212-7.7778 8.1212-6.2919 0-7.581-4.4976-7.581-7.7247h-15.471c-0.29065 10.948 6.4016 18.765 22.296 18.765 12.302 0 20.532-4.29 22.903-13.522v-11.462z" fill="url(#a)"/>
  </g>
  <g fill="#187cc0">
   <path d="m113.24 148.63q0-1.6764-0.49432-2.4716-0.49433-0.79521-1.7194-0.79521t-1.9128 0.79521q-0.68776 0.79523-0.68776 2.751 0 0.81672 0.12895 1.526 0.12896 0.68777 0.42986 1.2036 0.3009 0.49433 0.79522 0.77373 0.49433 0.2794 1.2466 0.2794 0.83821 0 1.268-0.30089 0.45135-0.32239 0.66628-0.8597 0.21491-0.53732 0.23641-1.2681 0.043-0.75224 0.043-1.6334zm-7.6943-5.2657h2.88v1.3325q0.15045-0.25792 0.38687-0.53732 0.25791-0.2794 0.62327-0.51582 0.36538-0.25791 0.90269-0.40835 0.53732-0.17194 1.311-0.17194 1.2466 0 2.1278 0.47283 0.88119 0.45134 1.44 1.2681 0.55881 0.81671 0.79523 1.9343 0.25791 1.0961 0.25791 2.3857 0 1.2036-0.23642 2.2782-0.21492 1.0531-0.75224 1.8484-0.53731 0.77373-1.44 1.2251-0.90269 0.45133-2.2782 0.45133-1.2896 0-1.9988-0.38686-0.70925-0.40836-1.0316-0.90269v4.7069h-2.9875z"/>
   <path d="m118.13 143.36h2.9875v11.262h-2.9875zm0-4.277h2.9875v2.8155h-2.9875z"/>
   <path d="m130.98 147.23q-0.0645-0.32238-0.12896-0.64477-0.043-0.34388-0.2794-0.62328-0.21493-0.27941-0.66627-0.45135-0.42985-0.17194-1.268-0.17194-0.81672 0-1.3325 0.3009-0.51582 0.2794-0.81672 0.75224-0.2794 0.47283-0.38686 1.0961-0.10746 0.62328-0.10746 1.2896 0 0.96716 0.10746 1.7194 0.12895 0.73075 0.40836 1.2466 0.3009 0.49433 0.77373 0.75224 0.49432 0.23641 1.2251 0.23641 0.92417 0 1.397-0.19343 0.49434-0.19343 0.70926-0.49432 0.21493-0.3224 0.25791-0.73075 0.043-0.42985 0.10746-0.8812h2.9445q0 0.66627-0.21493 1.4615-0.21493 0.77372-0.79522 1.4615-0.5803 0.66627-1.6334 1.1176-1.0316 0.45133-2.6866 0.45133-2.6866 0-4.1266-1.483-1.4185-1.483-1.4185-4.4919 0-1.268 0.30089-2.3427 0.3009-1.0746 0.96717-1.8698 0.68776-0.79522 1.7839-1.2251 1.1176-0.45134 2.7296-0.45134 1.397 0 2.3427 0.34387 0.96716 0.34388 1.5475 0.92418 0.60179 0.5803 0.8597 1.3325 0.2579 0.75225 0.2579 1.569z"/>
   <path d="m140.03 152.76q1.354 0 1.9343-0.66627 0.60179-0.66626 0.5803-1.7624v-1.1606q-0.17194 0.10746-0.34388 0.17194-0.51582 0.25791-1.1821 0.32239-0.64478 0.0645-1.2251 0.19343-0.55881 0.12895-0.94567 0.47283-0.38687 0.32239-0.38687 1.0961 0 0.42984 0.15045 0.70925 0.15045 0.25791 0.38686 0.40835 0.23642 0.12895 0.49433 0.17194 0.2794 0.043 0.53731 0.043zm-4.1051-5.846v-0.49433q0.0215-0.70926 0.27939-1.311 0.25792-0.62329 0.81672-1.0746 0.5803-0.45134 1.526-0.70926 0.94567-0.2579 2.3642-0.2579 2.2997 0 3.3958 0.8382 1.1176 0.83821 1.1176 2.9015v4.7928q0 0.36538 0.043 0.51583 0.043 0.12895 0.10747 0.17193 0.0645 0.043 0.21492 0.10747 0.17194 0.0645 0.45134 0.043v2.1922h-1.483q-0.40836 0-0.73074-0.0645-0.3224-0.0859-0.62328-0.34388-0.23643-0.21492-0.36538-0.47284-0.12896-0.2794-0.23641-0.47283-0.3009 0.51582-0.62329 0.85969-0.32239 0.32241-0.73075 0.49434-0.38686 0.17194-0.8597 0.23642-0.47283 0.0645-1.0316 0.0645-2.1708 0-3.1379-0.96716-0.94567-0.96716-0.94567-2.6866 0-1.2251 0.45135-1.8484 0.45134-0.62328 1.0961-0.94567 0.53731-0.23641 1.3325-0.34388 0.79522-0.10746 1.5904-0.17194 0.79522-0.0645 1.44-0.12895 0.64478-0.0645 0.8812-0.23642 0.12896-0.10746 0.19344-0.40836 0.0859-0.30089 0.0859-0.68776 0-0.60179-0.36538-0.96716-0.36537-0.36538-1.4185-0.36538-0.79523 0-1.2036 0.15046-0.40836 0.12895-0.60179 0.38686-0.19343 0.23641-0.23641 0.55881-0.043 0.30088-0.0645 0.64477z"/>
   <path d="m148.48 143.36h2.6651v2.1063q0.15045-0.42986 0.32239-0.8597 0.17194-0.42985 0.47283-0.77374 0.32239-0.34388 0.83821-0.55881 0.51582-0.21491 1.354-0.21491 0.36538 0 0.73074 0.043 0.36538 0.0215 0.73076 0.0645v2.4716h-1.8269q-0.51581 0-0.96715 0.15045-0.45135 0.15045-0.77374 0.53731-0.36537 0.47284-0.47283 1.1391-0.086 0.66626-0.086 1.0746v6.0824h-2.9875z"/>
   <path d="m163.84 149.02q0-1.9558-0.60179-2.8155-0.5803-0.8812-1.9343-0.8812-0.68776 0-1.1391 0.17195-0.42985 0.17193-0.68776 0.58029t-0.36537 1.0531q-0.10747 0.64477-0.10747 1.6119 0 0.88119 0.0859 1.6119 0.0859 0.70925 0.32238 1.2251 0.25792 0.49433 0.68776 0.77373 0.45135 0.25791 1.1606 0.25791 0.92418 0 1.44-0.34389 0.53731-0.34387 0.77373-0.88119 0.25791-0.53731 0.30089-1.1606 0.0645-0.64477 0.0645-1.2036zm-3.1379-5.9534q0.73075 0 1.2251 0.12896 0.49433 0.10745 0.83821 0.30088 0.34388 0.19344 0.5588 0.42985 0.23642 0.23642 0.42985 0.45134v-5.2872h2.9875v15.539h-2.837v-1.3755q-0.15045 0.23641-0.36537 0.53731-0.21493 0.2794-0.5803 0.53731-0.34388 0.25791-0.88119 0.42986-0.53732 0.17193-1.311 0.17193-2.3857 0-3.5678-1.6119t-1.1821-4.406q0-1.311 0.23643-2.3857 0.2579-1.0961 0.81671-1.8484 0.5588-0.77373 1.44-1.1821 0.90269-0.42984 2.1922-0.42984z"/>
   <path d="m169.24 143.36h2.9875v11.262h-2.9875zm0-4.277h2.9875v2.8155h-2.9875z"/>
   <path d="m182.12 147.86q0-0.49433-0.0859-0.94567-0.0645-0.45134-0.30089-0.79523-0.21493-0.36537-0.64478-0.5588-0.42985-0.21493-1.1606-0.21493-0.90268 0-1.4185 0.23643-0.51582 0.2364-0.79522 0.60178-0.25792 0.36536-0.34388 0.81672-0.0859 0.42984-0.15045 0.8597zm-4.9648 2.0848q0 1.354 0.5803 2.0418 0.5803 0.68775 2.1708 0.68775 0.68775 0 1.0746-0.10745 0.40836-0.12896 0.62329-0.32239 0.21491-0.19343 0.30089-0.42985 0.10746-0.25791 0.17194-0.51582h2.923q-0.0859 0.51582-0.3009 1.1606-0.21492 0.62328-0.77372 1.1821-0.55881 0.53731-1.569 0.92418-1.0102 0.36537-2.6866 0.36537-2.88 0-4.191-1.4615-1.2896-1.483-1.2896-4.4275 0-1.354 0.27939-2.4501 0.3009-1.0961 0.94568-1.8699 0.66627-0.79522 1.7409-1.2251 1.0746-0.42984 2.6436-0.42984 1.8698 0 2.966 0.62328 1.0961 0.62328 1.6549 1.6119 0.55881 0.96716 0.68776 2.1922 0.15045 1.2251 0.0859 2.4502z"/>
  </g>
 </g>
</svg>
