<svg xmlns="http://www.w3.org/2000/svg" height="344.35" width="600" version="1.1" xmlns:xlink="http://www.w3.org/1999/xlink" viewBox="0 0 158.75 91.109292">
 <defs>
  <linearGradient id="b" y2="568.01" gradientUnits="userSpaceOnUse" x2="1551.5" gradientTransform="matrix(.11159 0 0 -.11159 -113.65 258.63)" y1="1360" x1="1482.2">
   <stop stop-color="#649dcb" offset="0"/>
   <stop stop-color="#619bca" offset=".0067"/>
   <stop stop-color="#4c8fc7" offset=".0557"/>
   <stop stop-color="#3f88c6" offset=".1039"/>
   <stop stop-color="#3b86c5" offset="0.15"/>
   <stop stop-color="#488cc6" offset=".29660"/>
   <stop stop-color="#6199c9" offset=".5"/>
   <stop stop-color="#5193c7" offset=".63810"/>
   <stop stop-color="#2882c2" offset=".90610"/>
   <stop stop-color="#187cc0" offset="1"/>
  </linearGradient>
  <linearGradient id="a" y2="739.92" gradientUnits="userSpaceOnUse" x2="1577.6" gradientTransform="matrix(.11159 0 0 -.11159 -113.65 258.63)" y1="1228.6" x1="1577.6">
   <stop stop-color="#fff" offset=".5"/>
   <stop stop-color="#bfbfbf" offset="1"/>
  </linearGradient>
 </defs>
 <g transform="translate(-26.458 -103.28)">
  <g stroke-width=".11159">
   <path d="m26.458 180.46c0 1.2275 0.98248 2.4405 2.1831 2.6958l52.602 11.181c1.2009 0.2552 2.1831-0.54035 2.1831-1.7679v-87.478c0-1.2275-0.98248-2.0231-2.1831-1.7679l-52.602 11.181c-1.2006 0.25521-2.1831 1.4684-2.1831 2.6959z" fill="#187cc0"/>
   <path d="m27.072 179.7c0 1.2275 0.98247 2.4406 2.1831 2.6958l51.319 10.908c1.2007 0.25523 2.1831-0.54033 2.1831-1.7678v-85.407c0-1.2275-0.98246-2.0231-2.1831-1.7679l-51.319 10.908c-1.2006 0.25522-2.1831 1.4684-2.1831 2.6959z" fill="url(#b)"/>
   <path d="m26.956 116.75s50.199-5.9764 56.47 7.5907l0.000929 27.299s-0.37729 16.466-8.0872 18.938l-25.294 5.368s-21.927 7.3398-23.348-39.317c-0.66175-15.183 0.25789-19.878 0.25789-19.878z" fill="#187cc0"/>
   <path d="m83.424 152.83c-1.691-5.9516-6.5513-9.1391-13.33-9.897 0.0059 0 7.0455-5.1872 13.334-10.286v-11.13h-40.428l-0.0017 12.386h22.786c-0.04639 0.0366-14.273 11.039-14.273 11.039l5.3294 7.9681s3.2032-1.6502 6.091-1.6502c5.1166 0 7.1306 2.1439 7.1306 6.9755 0 5.2379-2.4024 7.5521-7.2327 7.5521-5.851 0-7.0497-4.1824-7.0497-7.1834h-14.388c-0.27028 10.181 5.9529 17.45 20.733 17.45 11.44 0 19.093-3.9894 21.298-12.574v-10.658z" fill="url(#a)"/>
  </g>
  <g fill="#187cc0">
   <path d="m107.16 137.18q0-1.5589-0.45969-2.2984-0.45968-0.7395-1.5989-0.7395t-1.7788 0.7395q-0.63956 0.73949-0.63956 2.5582 0 0.75949 0.11992 1.419 0.11992 0.63957 0.39973 1.1192 0.27982 0.45968 0.73949 0.71951 0.45969 0.25982 1.1592 0.25982 0.77948 0 1.1792-0.27981 0.41971-0.29979 0.61958-0.79945 0.19986-0.49966 0.21985-1.1792 0.04-0.69952 0.04-1.519zm-7.1551-4.8966h2.6782v1.2392q0.13992-0.23985 0.35975-0.49967 0.23984-0.25982 0.5796-0.47967 0.33977-0.23984 0.83943-0.37973 0.49967-0.1599 1.2192-0.1599 1.1592 0 1.9786 0.4397 0.81944 0.41971 1.3391 1.1792 0.51964 0.75948 0.73949 1.7988 0.23984 1.0193 0.23984 2.2185 0 1.1192-0.21985 2.1186-0.19986 0.97933-0.69952 1.7188-0.49966 0.71949-1.3391 1.1392-0.83943 0.41971-2.1186 0.41971-1.1992 0-1.8587-0.35975-0.65955-0.37975-0.95934-0.83943v4.377h-2.7781z"/>
   <path d="m111.83 132.29h2.4783v1.9586q0.1399-0.39972 0.29979-0.79944 0.15989-0.39973 0.4397-0.71952 0.29979-0.31978 0.77947-0.51964 0.47966-0.19986 1.2591-0.19986 0.33976 0 0.67953 0.04 0.33977 0.02 0.67953 0.06v2.2984h-1.6988q-0.47968 0-0.89939 0.1399-0.41971 0.13991-0.7195 0.49966-0.33977 0.43969-0.43971 1.0593-0.0799 0.61958-0.0799 0.99932v5.6561h-2.7781z"/>
   <path d="m126.56 137.26q0-1.6189-0.51964-2.3784-0.49967-0.77947-1.7988-0.77947-0.69952 0-1.1992 0.15989-0.49965 0.13991-0.81944 0.51965-0.31978 0.35976-0.47966 1.0193-0.13991 0.65955-0.13991 1.6788 0 1.8587 0.51964 2.6782 0.51965 0.79945 1.8188 0.79945 0.83942 0 1.3591-0.23984 0.51963-0.23983 0.79944-0.69952 0.27982-0.47967 0.35975-1.1592 0.0999-0.6995 0.0999-1.5989zm-2.5183 5.776q-2.5782 0-3.8973-1.2991t-1.3191-4.1372q0-1.6389 0.39973-2.7181 0.39972-1.0793 1.1192-1.7188 0.71951-0.63957 1.6788-0.89939 0.97933-0.25982 2.1186-0.25982 2.6382 0 3.9173 1.3191t1.2791 4.1772q0 1.2391-0.27981 2.2584-0.25981 1.0193-0.87939 1.7588-0.61957 0.71949-1.6389 1.1192-0.99932 0.39973-2.4983 0.39973z"/>
   <path d="m129.4 132.29h3.0179l2.1385 7.4349 2.1186-7.4349h2.938l-3.7774 10.473h-2.6382z"/>
   <path d="m147.56 136.47q0-0.45969-0.0799-0.8794-0.06-0.41972-0.27981-0.7395-0.19986-0.33976-0.59959-0.51963-0.39973-0.19987-1.0793-0.19987-0.83943 0-1.3191 0.21985-0.47967 0.21984-0.73949 0.55962-0.23984 0.33977-0.31979 0.75948-0.0799 0.39972-0.1399 0.79945zm-4.6168 1.9387q0 1.2591 0.53964 1.8987 0.53963 0.63956 2.0186 0.63956 0.63955 0 0.99931-0.0999 0.37974-0.11993 0.57961-0.2998 0.19985-0.17988 0.2798-0.39973 0.0999-0.23982 0.15989-0.47967h2.7181q-0.0799 0.47967-0.2798 1.0793-0.19987 0.5796-0.71952 1.0992-0.51964 0.49966-1.459 0.85941-0.93936 0.33977-2.4983 0.33977-2.6782 0-3.8973-1.3591-1.1992-1.3791-1.1992-4.1172 0-1.2591 0.25982-2.2784 0.27981-1.0193 0.8794-1.7388 0.61958-0.73949 1.6189-1.1392 0.99932-0.39972 2.4583-0.39972 1.7388 0 2.7581 0.5796 1.0193 0.57961 1.539 1.499 0.51964 0.89938 0.63955 2.0386 0.13991 1.1392 0.0799 2.2784z"/>
   <path d="m152.26 132.29h2.6782v1.419q0.0799-0.23984 0.17987-0.53963 0.11992-0.2998 0.39974-0.53964 0.29979-0.25982 0.81942-0.43969 0.51965-0.17988 1.399-0.17988 0.89938 0 1.5989 0.17988 0.69952 0.15988 1.1592 0.55961 0.45967 0.37975 0.69952 1.0193 0.23983 0.63956 0.23983 1.5789v7.4149h-2.7781v-6.9352q0-0.77947-0.37975-1.1992-0.37975-0.43969-1.459-0.43969-0.8794 0-1.3391 0.37972-0.4397 0.35977-0.4397 1.439v6.7554h-2.7781z"/>
   <path d="m170.72 135.89q-0.06-0.29981-0.11993-0.5996-0.04-0.31978-0.25982-0.57961-0.19987-0.25981-0.61957-0.41971-0.39973-0.15989-1.1792-0.15989-0.75949 0-1.2392 0.27981-0.47968 0.25982-0.75948 0.69952-0.25982 0.4397-0.35975 1.0193-0.0999 0.5796-0.0999 1.1992 0 0.89938 0.0999 1.5989 0.11992 0.67953 0.37974 1.1592 0.2798 0.45969 0.7195 0.69953 0.45969 0.21984 1.1392 0.21984 0.85942 0 1.2991-0.17986 0.45967-0.17989 0.65955-0.4597 0.19986-0.2998 0.23983-0.67953 0.04-0.39973 0.0999-0.81945h2.7381q0 0.61958-0.19985 1.3591-0.19987 0.7195-0.73949 1.3591-0.53964 0.61957-1.519 1.0393-0.95935 0.41971-2.4983 0.41971-2.4983 0-3.8374-1.3791-1.3191-1.379-1.3191-4.1771 0-1.1792 0.2798-2.1785 0.27982-0.99931 0.8994-1.7388 0.63955-0.73948 1.6589-1.1392 1.0393-0.41971 2.5383-0.41971 1.2991 0 2.1785 0.31978 0.89938 0.31978 1.439 0.85941 0.55961 0.53964 0.79944 1.2392 0.23985 0.69952 0.23985 1.459z"/>
   <path d="m182.33 136.47q0-0.45969-0.0799-0.8794-0.06-0.41972-0.2798-0.7395-0.19986-0.33976-0.59959-0.51963-0.39972-0.19987-1.0793-0.19987-0.83942 0-1.3191 0.21985-0.47966 0.21984-0.7395 0.55962-0.23984 0.33977-0.31978 0.75948-0.0799 0.39972-0.13991 0.79945zm-4.6168 1.9387q0 1.2591 0.53963 1.8987 0.53962 0.63956 2.0186 0.63956 0.63956 0 0.99932-0.0999 0.37975-0.11993 0.5796-0.2998 0.19988-0.17988 0.27982-0.39973 0.0999-0.23982 0.15989-0.47967h2.7181q-0.0799 0.47967-0.27981 1.0793-0.19986 0.5796-0.71951 1.0992-0.51964 0.49966-1.459 0.85941-0.93936 0.33977-2.4983 0.33977-2.6782 0-3.8973-1.3591-1.1992-1.3791-1.1992-4.1172 0-1.2591 0.25982-2.2784 0.27981-1.0193 0.8794-1.7388 0.61958-0.73949 1.6189-1.1392 0.99932-0.39972 2.4583-0.39972 1.7388 0 2.7581 0.5796 1.0193 0.57961 1.5389 1.499 0.51964 0.89938 0.63958 2.0386 0.13989 1.1392 0.0799 2.2784z"/>
   <path d="m103.63 166.29q1.2591 0 1.7988-0.61958 0.55961-0.61958 0.53963-1.6389v-1.0792q-0.1599 0.0999-0.31978 0.15988-0.47968 0.23984-1.0992 0.29981-0.59959 0.06-1.1392 0.17987-0.51965 0.11992-0.8794 0.43969-0.35975 0.29981-0.35975 1.0193 0 0.39973 0.1399 0.65955 0.13991 0.23983 0.35975 0.37974 0.21985 0.11991 0.4597 0.15989 0.25982 0.04 0.49964 0.04zm-3.8174-5.4363v-0.45968q0.02002-0.65955 0.25983-1.2192 0.23983-0.57961 0.75947-0.99933 0.53963-0.41971 1.419-0.65955 0.87941-0.23983 2.1985-0.23983 2.1385 0 3.1578 0.77947 1.0393 0.77946 1.0393 2.6982v4.457q0 0.33978 0.04 0.47968 0.04 0.11992 0.0999 0.15989 0.06 0.04 0.19987 0.0999 0.15988 0.06 0.41971 0.04v2.0386h-1.3791q-0.37974 0-0.67953-0.06-0.2998-0.0799-0.5796-0.31978-0.21986-0.19987-0.33977-0.4397-0.11992-0.25982-0.21985-0.4397-0.27981 0.47967-0.57961 0.79946-0.29979 0.29979-0.67953 0.45968-0.35975 0.15988-0.79946 0.21984-0.43969 0.06-0.95934 0.06-2.0186 0-2.918-0.89938-0.8794-0.89939-0.8794-2.4983 0-1.1392 0.41971-1.7188t1.0193-0.87939q0.49967-0.21987 1.2392-0.31979 0.7395-0.0999 1.479-0.1599t1.3391-0.11991q0.59959-0.06 0.81945-0.21986 0.11991-0.0999 0.17987-0.37973 0.0799-0.27981 0.0799-0.63956 0-0.55961-0.33977-0.89939-0.33976-0.33977-1.3191-0.33977-0.73949 0-1.1192 0.13991-0.37974 0.11992-0.55961 0.35974-0.17987 0.21987-0.21985 0.51966-0.04 0.2798-0.06 0.59958z"/>
   <path d="m111.54 153.58h2.7781v14.45h-2.7781z"/>
   <path d="m124.02 162.45q0-1.559-0.4597-2.2984-0.45967-0.7395-1.5989-0.7395t-1.7788 0.7395q-0.63956 0.73949-0.63956 2.5583 0 0.75947 0.11992 1.419 0.11993 0.63956 0.39973 1.1192 0.27981 0.45969 0.73949 0.71951 0.45969 0.25982 1.1592 0.25982 0.77947 0 1.1792-0.27981 0.41971-0.29979 0.61959-0.79944 0.19985-0.49967 0.21984-1.1792 0.04-0.69952 0.04-1.519zm-7.1551-4.8966h2.6782v1.2391q0.13991-0.23983 0.35975-0.49965 0.23984-0.25982 0.57961-0.47967 0.33976-0.23985 0.83942-0.37975 0.49967-0.15989 1.2192-0.15989 1.1592 0 1.9786 0.4397 0.81944 0.41971 1.3391 1.1792 0.51965 0.75948 0.7395 1.7988 0.23983 1.0193 0.23983 2.2185 0 1.1192-0.21985 2.1186-0.19986 0.97933-0.69952 1.7188-0.49965 0.71951-1.3391 1.1392-0.83943 0.41971-2.1186 0.41971-1.1992 0-1.8587-0.35974-0.65955-0.37975-0.95934-0.83944v4.377h-2.7781z"/>
   <path d="m135.62 161.73q0-0.45968-0.0799-0.8794-0.06-0.4197-0.2798-0.73949-0.19988-0.33977-0.5996-0.51965-0.39972-0.19985-1.0793-0.19985-0.83942 0-1.3191 0.21985-0.47967 0.21984-0.73949 0.55962-0.23983 0.33976-0.31978 0.75946-0.0799 0.39974-0.1399 0.79946zm-4.6168 1.9387q0 1.2591 0.53962 1.8987 0.53964 0.63956 2.0186 0.63956 0.63956 0 0.99931-0.0999 0.37974-0.11992 0.57961-0.29979 0.19985-0.17989 0.27981-0.39973 0.0999-0.23984 0.15988-0.47968h2.7182q-0.0799 0.47968-0.27982 1.0793-0.19985 0.5796-0.71949 1.0992-0.51966 0.49966-1.459 0.85941-0.93935 0.33977-2.4983 0.33977-2.6782 0-3.8973-1.3591-1.1992-1.3791-1.1992-4.1172 0-1.2591 0.25982-2.2784 0.27981-1.0193 0.87941-1.7388 0.61958-0.73949 1.6189-1.1392 0.99931-0.39973 2.4583-0.39973 1.7388 0 2.7581 0.5796 1.0193 0.57962 1.539 1.499 0.51965 0.89937 0.63956 2.0386 0.13991 1.1392 0.0799 2.2784z"/>
   <path d="m144.55 168.31q-1.1592 0-1.9587-0.21984-0.79945-0.21986-1.3391-0.55962-0.51965-0.33977-0.81944-0.77947t-0.45969-0.8794q-0.13989-0.45968-0.17986-0.85941-0.04-0.41971-0.04-0.69953h2.6182q0.0199 0.37974 0.06 0.7395 0.04 0.33977 0.23984 0.59959 0.19986 0.25982 0.63955 0.41972 0.43971 0.13989 1.2791 0.13989 0.39974 0 0.75948-0.02 0.37975-0.02 0.65955-0.1399 0.27981-0.11993 0.4397-0.37975 0.17988-0.25982 0.17988-0.73949 0-0.35975-0.15989-0.53963-0.15988-0.19986-0.49966-0.2998-0.33977-0.11991-0.8794-0.19986-0.53963-0.0999-1.2991-0.2798-0.97933-0.19987-1.6788-0.4597-0.69951-0.25982-1.1592-0.61957-0.43971-0.35975-0.65955-0.85941-0.19986-0.49966-0.19986-1.1992 0-0.93936 0.33976-1.5589 0.35976-0.61958 0.95934-0.97934 0.59959-0.35975 1.399-0.49965 0.79945-0.15989 1.6788-0.15989 1.1192 0 1.8787 0.21985 0.75947 0.19986 1.2591 0.53963 0.49966 0.33977 0.75948 0.75948 0.25982 0.39972 0.37975 0.79945 0.1399 0.37974 0.15988 0.71951 0.02 0.33977 0.04 0.51965h-2.6182q-0.04-0.35976-0.0999-0.63957-0.06-0.2798-0.25983-0.45969-0.19986-0.19986-0.55961-0.29979-0.35976-0.0999-0.97934-0.0999-0.29979 0-0.59958 0.04-0.29979 0.02-0.53963 0.13991-0.21985 0.0999-0.37974 0.2998-0.13991 0.17987-0.13991 0.47966 0 0.31978 0.13991 0.49966t0.47967 0.31979q0.35976 0.11991 0.95934 0.23983 0.61959 0.11992 1.5589 0.31978 0.83943 0.17988 1.479 0.45969 0.65955 0.25982 1.0992 0.65954 0.4397 0.37974 0.65955 0.91937 0.21984 0.51965 0.21984 1.2591 0 1.7388-1.2392 2.5383-1.2192 0.79945-3.5775 0.79945z"/>
  </g>
 </g>
</svg>
