<svg xmlns="http://www.w3.org/2000/svg" height="287.71" width="600" version="1.1" xmlns:xlink="http://www.w3.org/1999/xlink" viewBox="0 0 158.75002 76.124337">
 <defs>
  <linearGradient id="b" y2="568.01" gradientUnits="userSpaceOnUse" x2="1551.5" gradientTransform="matrix(.093239 0 0 -.093239 -90.604 240.57)" y1="1360" x1="1482.2">
   <stop stop-color="#649dcb" offset="0"/>
   <stop stop-color="#619bca" offset=".0067"/>
   <stop stop-color="#4c8fc7" offset=".0557"/>
   <stop stop-color="#3f88c6" offset=".1039"/>
   <stop stop-color="#3b86c5" offset="0.15"/>
   <stop stop-color="#488cc6" offset=".29660"/>
   <stop stop-color="#6199c9" offset=".5"/>
   <stop stop-color="#5193c7" offset=".63810"/>
   <stop stop-color="#2882c2" offset=".90610"/>
   <stop stop-color="#187cc0" offset="1"/>
  </linearGradient>
  <linearGradient id="a" y2="739.92" gradientUnits="userSpaceOnUse" x2="1577.6" gradientTransform="matrix(.093239 0 0 -.093239 -90.604 240.57)" y1="1228.6" x1="1577.6">
   <stop stop-color="#fff" offset=".5"/>
   <stop stop-color="#bfbfbf" offset="1"/>
  </linearGradient>
 </defs>
 <g transform="translate(-26.458 -110.77)">
  <g stroke-width=".093239">
   <path d="m26.458 175.26c0 1.0256 0.82088 2.0391 1.824 2.2524l43.951 9.3419c1.0033 0.21323 1.824-0.45148 1.824-1.4771v-73.09c0-1.0256-0.82088-1.6903-1.824-1.4771l-43.951 9.342c-1.0032 0.21324-1.824 1.2268-1.824 2.2525z" fill="#187cc0"/>
   <path d="m26.971 174.62c0 1.0256 0.82088 2.0391 1.824 2.2524l42.878 9.1141c1.0033 0.21325 1.824-0.45146 1.824-1.4771v-71.36c0-1.0256-0.82088-1.6903-1.824-1.4771l-42.878 9.1142c-1.0032 0.21324-1.824 1.2268-1.824 2.2525z" fill="url(#b)"/>
   <path d="m26.874 122.02s41.943-4.9934 47.182 6.3422l0.000776 22.809s-0.31524 13.758-6.7571 15.823l-21.134 4.4851s-18.321 6.1326-19.508-32.851c-0.55292-12.686 0.21548-16.609 0.21548-16.609z" fill="#187cc0"/>
   <path d="m74.054 152.17c-1.4129-4.9727-5.4738-7.6359-11.138-8.2692 0.0049 0 5.8867-4.3341 11.141-8.5942v-9.292h-33.778l-0.0014 10.349h19.038c-0.03876 0.0306-11.925 9.2232-11.925 9.2232l4.4528 6.6576s2.6763-1.3787 5.0892-1.3787c4.275 0 5.9578 1.7913 5.9578 5.8282 0 4.3764-2.0073 6.31-6.0431 6.31-4.8886 0-5.8902-3.4945-5.8902-6.0019h-12.022c-0.22582 8.5065 4.9739 14.58 17.323 14.58 9.5582 0 15.953-3.3332 17.795-10.506v-8.9053z" fill="url(#a)"/>
  </g>
  <g fill="#187cc0">
   <path d="m93.889 139.1q0-1.3025-0.38408-1.9204-0.38408-0.61788-1.3359-0.61788-0.95186 0-1.4862 0.61788-0.53437 0.61786-0.53437 2.1375 0 0.63458 0.10019 1.1856 0.1002 0.53437 0.33399 0.93514 0.23379 0.38408 0.61787 0.60117t0.96855 0.21709q0.65126 0 0.98524-0.23379 0.35068-0.25048 0.51768-0.66796 0.16699-0.41748 0.18369-0.98525 0.03339-0.58447 0.03339-1.2691zm-5.9783-4.0913h2.2377v1.0354q0.11689-0.2004 0.30058-0.41748 0.20039-0.21709 0.48428-0.40078 0.28388-0.20039 0.70136-0.31728 0.41748-0.1336 1.0186-0.1336 0.96855 0 1.6532 0.36738 0.68466 0.35068 1.1188 0.98525 0.43418 0.63456 0.61787 1.5029 0.20039 0.85166 0.20039 1.8536 0 0.93515-0.18369 1.7701-0.16699 0.81826-0.58447 1.4361-0.41748 0.60116-1.1188 0.95185-0.70136 0.35068-1.7701 0.35068-1.0019 0-1.553-0.30058-0.55107-0.31729-0.80156-0.70137v3.6571h-2.3212z"/>
   <path d="m100.91 142.31q1.052 0 1.5029-0.51768 0.46757-0.51767 0.45087-1.3693v-0.90176q-0.1336 0.0835-0.26719 0.1336-0.40078 0.20038-0.91844 0.25048-0.50098 0.0501-0.95186 0.15029-0.43417 0.1002-0.73476 0.36739-0.30058 0.25048-0.30058 0.85165 0 0.33398 0.11689 0.55107 0.1169 0.20039 0.30058 0.31729 0.1837 0.10019 0.38408 0.13359 0.2171 0.0334 0.41749 0.0334zm-3.1895-4.5422v-0.38408q0.01673-0.55106 0.21709-1.0186 0.20039-0.48428 0.63457-0.83496 0.45087-0.35068 1.1856-0.55107 0.73476-0.20039 1.8369-0.20039 1.7868 0 2.6384 0.65127 0.86836 0.65126 0.86836 2.2544v3.7239q0 0.28389 0.0334 0.40078 0.0334 0.1002 0.0835 0.13359 0.0501 0.0334 0.16699 0.0835 0.13359 0.0501 0.35069 0.0334v1.7033h-1.1522q-0.31728 0-0.56777-0.0501-0.25048-0.0668-0.48427-0.26719-0.1837-0.16699-0.28389-0.36738-0.10019-0.21709-0.18369-0.36739-0.23378 0.40079-0.48427 0.66798-0.25049 0.25048-0.56777 0.38407-0.30058 0.1336-0.66797 0.18369-0.36737 0.0501-0.80155 0.0501-1.6866 0-2.4381-0.75146-0.73476-0.75145-0.73476-2.0874 0-0.95185 0.35068-1.4361 0.35068-0.48428 0.85166-0.73477 0.41748-0.18368 1.0353-0.26718 0.61787-0.0835 1.2357-0.13359 0.61787-0.0501 1.1188-0.1002 0.50097-0.0501 0.68467-0.18369 0.10019-0.0835 0.15029-0.31728 0.0668-0.23378 0.0668-0.53437 0-0.46757-0.28389-0.75147-0.28388-0.28389-1.1021-0.28389-0.61786 0-0.93515 0.1169-0.31728 0.1002-0.46757 0.30059-0.1503 0.18369-0.18369 0.43417-0.03339 0.23379-0.05012 0.50097z"/>
   <path d="m107.47 135.01h2.0707v1.6365q0.1169-0.33398 0.25049-0.66796 0.13359-0.33399 0.36738-0.60117 0.25048-0.26719 0.65127-0.43417 0.40077-0.167 1.052-0.167 0.28388 0 0.56777 0.0334 0.28388 0.0167 0.56777 0.0501v1.9204h-1.4194q-0.40078 0-0.75146 0.1169t-0.60116 0.41747q-0.28389 0.36739-0.36739 0.88506-0.0668 0.51767-0.0668 0.83496v4.7258h-2.3212z"/>
   <path d="m114.25 135.01h2.3212v8.7503h-2.3212zm0-3.3231h2.3212v2.1876h-2.3212z"/>
   <path d="m122.03 143.99q-0.96855 0-1.6365-0.18369-0.66796-0.18369-1.1188-0.46757-0.43417-0.28389-0.68466-0.65127-0.25049-0.36739-0.38408-0.73476-0.1169-0.38408-0.15029-0.71806-0.0334-0.35069-0.0334-0.58447h2.1876q0.0167 0.31728 0.0501 0.61786 0.0334 0.28389 0.20039 0.50098 0.16699 0.21708 0.53437 0.35068 0.36738 0.11689 1.0687 0.11689 0.33399 0 0.63457-0.0167 0.31729-0.0167 0.55108-0.11689 0.23378-0.10019 0.36737-0.31729 0.15029-0.21708 0.15029-0.61786 0-0.30059-0.13358-0.45088-0.1336-0.16699-0.41748-0.25049-0.28389-0.10019-0.73477-0.16698-0.45087-0.0835-1.0854-0.23379-0.81826-0.167-1.4027-0.38408-0.58447-0.21709-0.96855-0.51768-0.36738-0.30058-0.55107-0.71806-0.16699-0.41747-0.16699-1.0019 0-0.78487 0.28389-1.3025 0.30058-0.51767 0.80155-0.81825 0.50097-0.30059 1.1689-0.41749 0.66797-0.13359 1.4027-0.13359 0.93515 0 1.5697 0.18369 0.63457 0.167 1.052 0.45088 0.41748 0.28388 0.63457 0.63456 0.21709 0.33399 0.31728 0.66797 0.11689 0.31728 0.1336 0.60117 0.0167 0.28389 0.0334 0.43418h-2.1876q-0.0334-0.30058-0.0835-0.53437t-0.2171-0.38408q-0.16698-0.167-0.46757-0.25049-0.30058-0.0835-0.81825-0.0835-0.25049 0-0.50098 0.0334-0.25049 0.0167-0.45088 0.1169-0.18369 0.0835-0.31728 0.25049-0.11689 0.15029-0.11689 0.40078 0 0.26718 0.11689 0.41747 0.1169 0.15029 0.40078 0.26719 0.30058 0.10019 0.80155 0.20039 0.51768 0.10019 1.3025 0.26718 0.70137 0.1503 1.2357 0.38409 0.55106 0.21708 0.91845 0.55107 0.36737 0.31728 0.55107 0.76816 0.18369 0.43417 0.18369 1.052 0 1.4528-1.0354 2.1208-1.0186 0.66796-2.9891 0.66796z"/>
   <path d="m87.009 155.17 0.90176-2.5383h2.0206l0.90175 2.5383h-1.0353l-0.86836-1.2691-0.86835 1.2691zm0.70136 0.95186h2.3045v8.7503h-2.3045z"/>
   <path d="m91.967 152.8h2.3212v12.073h-2.3212z"/>
   <path d="m102.11 159.61q0-0.38407-0.0668-0.73476-0.0501-0.35067-0.23379-0.61787-0.16699-0.28388-0.50097-0.43417-0.33399-0.16699-0.90175-0.16699-0.70137 0-1.1022 0.18369-0.40077 0.18369-0.61787 0.46758-0.20038 0.28388-0.26719 0.63456-0.06678 0.33398-0.11689 0.66796zm-3.8575 1.6198q0 1.052 0.45087 1.5864 0.45087 0.53438 1.6866 0.53438 0.53438 0 0.83496-0.0835 0.31729-0.1002 0.48427-0.25049 0.16699-0.1503 0.23379-0.33398 0.0835-0.2004 0.13359-0.40079h2.2711q-0.0668 0.40079-0.23378 0.90176-0.167 0.48427-0.60118 0.91845-0.43417 0.41748-1.219 0.71806-0.78486 0.28389-2.0874 0.28389-2.2377 0-3.2563-1.1355-1.0019-1.1522-1.0019-3.44 0-1.052 0.21709-1.9037 0.23379-0.85166 0.73476-1.4528 0.51767-0.61787 1.3526-0.95186 0.83495-0.33398 2.054-0.33398 1.4528 0 2.3045 0.48427 0.85165 0.48429 1.2858 1.2524 0.43417 0.75145 0.53437 1.7033 0.11689 0.95186 0.0668 1.9037z"/>
   <path d="m105.72 159.19h3.941v2.0373h-3.941z"/>
   <path d="m117.02 160.51q0-1.5196-0.46758-2.1876-0.45087-0.68466-1.5029-0.68466-0.53437 0-0.88505 0.13359-0.33398 0.1336-0.53437 0.45088t-0.28389 0.81826q-0.0835 0.50097-0.0835 1.2524 0 0.68467 0.0668 1.2524 0.0668 0.55108 0.25049 0.95186 0.20039 0.38408 0.53437 0.60116 0.35068 0.20039 0.90175 0.20039 0.71807 0 1.1188-0.26718 0.41748-0.26718 0.60118-0.68467 0.20038-0.41748 0.23378-0.90174 0.0501-0.50098 0.0501-0.93516zm-2.4381-4.6257q0.56777 0 0.95185 0.10019 0.38408 0.0835 0.65127 0.23379 0.26718 0.15029 0.43418 0.33399 0.18369 0.18369 0.33398 0.35067v-4.108h2.3212v12.073h-2.2043v-1.0687q-0.11689 0.18369-0.28389 0.41748-0.16698 0.21709-0.45087 0.41747-0.26719 0.20039-0.68466 0.33399-0.41748 0.13359-1.0186 0.13359-1.8536 0-2.7721-1.2524-0.91845-1.2524-0.91845-3.4233 0-1.0186 0.18369-1.8536 0.20039-0.85165 0.63457-1.4361 0.43417-0.60117 1.1188-0.91846 0.70136-0.33398 1.7033-0.33398z"/>
   <path d="m127.12 159.61q0-0.38407-0.0668-0.73476-0.0501-0.35067-0.23379-0.61787-0.167-0.28388-0.50098-0.43417-0.33398-0.16699-0.90175-0.16699-0.70136 0-1.1021 0.18369-0.40078 0.18369-0.61787 0.46758-0.20039 0.28388-0.26718 0.63456-0.0668 0.33398-0.1169 0.66796zm-3.8575 1.6198q0 1.052 0.45087 1.5864 0.45089 0.53438 1.6866 0.53438 0.53437 0 0.83495-0.0835 0.31729-0.1002 0.48428-0.25049 0.16699-0.1503 0.23379-0.33398 0.0835-0.2004 0.13359-0.40079h2.2711q-0.0668 0.40079-0.2338 0.90176-0.16699 0.48427-0.60116 0.91845-0.43418 0.41748-1.219 0.71806-0.78486 0.28389-2.0874 0.28389-2.2377 0-3.2563-1.1355-1.002-1.1522-1.002-3.44 0-1.052 0.21709-1.9037 0.23379-0.85166 0.73476-1.4528 0.51768-0.61787 1.3526-0.95186 0.83496-0.33398 2.054-0.33398 1.4528 0 2.3045 0.48427 0.85166 0.48429 1.2858 1.2524 0.43417 0.75145 0.53437 1.7033 0.11689 0.95186 0.0668 1.9037z"/>
   <path d="m130.72 159.19h3.941v2.0373h-3.941z"/>
   <path d="m135.67 156.12h1.1522v-1.219q0-0.51767 0.1336-0.91845 0.15029-0.40078 0.53437-0.71806 0.38408-0.30059 0.91845-0.38407 0.53437-0.0835 0.96855-0.0835h1.219v1.7701h-0.65126q-0.21709 0-0.41747 0.0334-0.18369 0.0167-0.2672 0.11689-0.0668 0.0835-0.10019 0.18369-0.0167 0.1002-0.0167 0.28389v0.93516h1.4528v1.5029h-1.4528v7.2474h-2.3212v-7.2474h-1.1522z"/>
   <path d="m141.7 156.12h2.0707v1.6365q0.1169-0.33398 0.25049-0.66796 0.13359-0.33399 0.36738-0.60117 0.25049-0.26719 0.65126-0.43418 0.40078-0.16699 1.052-0.16699 0.28389 0 0.56777 0.0334 0.28388 0.0167 0.56777 0.0501v1.9204h-1.4194q-0.40078 0-0.75146 0.11688-0.35069 0.1169-0.60117 0.41748-0.28389 0.36738-0.36739 0.88506-0.0668 0.51768-0.0668 0.83495v4.7258h-2.3212z"/>
   <path d="m151.08 163.42q1.052 0 1.5029-0.51768 0.46757-0.51767 0.45087-1.3693v-0.90176q-0.13359 0.0835-0.26718 0.13359-0.40078 0.20039-0.91846 0.2505-0.50096 0.0501-0.95184 0.15028-0.43418 0.1002-0.73476 0.36739-0.30059 0.25049-0.30059 0.85165 0 0.33398 0.11689 0.55107 0.11689 0.20039 0.30059 0.31728 0.18369 0.1002 0.38408 0.13361 0.21709 0.0334 0.41748 0.0334zm-3.1895-4.5422v-0.38407q0.0167-0.55107 0.21708-1.0186 0.20039-0.48429 0.63456-0.83497 0.45089-0.35068 1.1856-0.55106 0.73476-0.2004 1.8369-0.2004 1.7868 0 2.6385 0.65127 0.86835 0.65126 0.86835 2.2544v3.7239q0 0.2839 0.0334 0.40079 0.0334 0.10019 0.0835 0.13359t0.167 0.0835q0.13359 0.0501 0.35068 0.0334v1.7033h-1.1522q-0.31728 0-0.56777-0.0501-0.25049-0.0668-0.48427-0.26718-0.18369-0.16699-0.28389-0.36738-0.1002-0.21709-0.18369-0.36738-0.23379 0.40077-0.48427 0.66797-0.25049 0.25049-0.56778 0.38407-0.30058 0.13359-0.66795 0.18369-0.36739 0.0501-0.80157 0.0501-1.6866 0-2.4381-0.75146-0.73475-0.75146-0.73475-2.0874 0-0.95186 0.35067-1.4361 0.35068-0.48427 0.85165-0.73475 0.41748-0.18369 1.0354-0.26719 0.61787-0.0835 1.2357-0.1336 0.61786-0.0501 1.1188-0.10019 0.50097-0.0501 0.68466-0.18369 0.10019-0.0835 0.15029-0.31729 0.0668-0.23378 0.0668-0.53436 0-0.46758-0.28388-0.75147-0.28389-0.28389-1.1021-0.28389-0.61787 0-0.93516 0.1169-0.31727 0.10019-0.46757 0.30059-0.15029 0.18369-0.18369 0.43417-0.0334 0.23379-0.0501 0.50097z"/>
   <path d="m157.68 156.12h2.2377v1.1856q0.0668-0.20039 0.1503-0.45087 0.10019-0.2505 0.33398-0.45089 0.25049-0.21709 0.68466-0.36738 0.43418-0.15029 1.1689-0.15029 0.75146 0 1.3359 0.15029 0.58447 0.13359 0.96855 0.46758 0.38408 0.31729 0.58447 0.85166t0.20039 1.3192v6.1954h-2.3212v-5.7946q0-0.65127-0.31728-1.002-0.31729-0.36737-1.219-0.36737-0.73476 0-1.1188 0.31728-0.36739 0.30058-0.36739 1.2023v5.6443h-2.3212z"/>
   <path d="m173.1 159.13q-0.0501-0.25049-0.10019-0.50097-0.0334-0.26719-0.21708-0.48428-0.167-0.21709-0.51768-0.35068-0.33399-0.13359-0.98525-0.13359-0.63457 0-1.0354 0.23379-0.40078 0.21708-0.63457 0.58447-0.21709 0.36737-0.30059 0.85165t-0.0835 1.002q0 0.75146 0.0835 1.3359 0.1002 0.56776 0.31729 0.96855 0.23379 0.38408 0.60118 0.58447 0.38407 0.18369 0.95184 0.18369 0.71807 0 1.0854-0.1503 0.38407-0.15029 0.55107-0.38408 0.16698-0.25048 0.20038-0.56776 0.0334-0.33399 0.0835-0.68467h2.2878q0 0.51767-0.16699 1.1355-0.16699 0.60117-0.61787 1.1355-0.45088 0.51768-1.2691 0.86835-0.80155 0.35069-2.0874 0.35069-2.0874 0-3.2062-1.1522-1.1021-1.1522-1.1021-3.4901 0-0.98525 0.23378-1.8202 0.23379-0.83495 0.75146-1.4528 0.53437-0.61787 1.386-0.95184 0.86836-0.35069 2.1208-0.35069 1.0854 0 1.8202 0.26719 0.75146 0.26718 1.2023 0.71806 0.46757 0.45088 0.66796 1.0354 0.20039 0.58447 0.20039 1.219z"/>
   <path d="m182.81 159.61q0-0.38407-0.0668-0.73476-0.0501-0.35067-0.23379-0.61787-0.167-0.28388-0.50097-0.43417-0.33399-0.16699-0.90176-0.16699-0.70137 0-1.1021 0.18369-0.40079 0.18369-0.61787 0.46758-0.2004 0.28388-0.26719 0.63456-0.0668 0.33398-0.1169 0.66796zm-3.8575 1.6198q0 1.052 0.45087 1.5864 0.45088 0.53438 1.6866 0.53438 0.53437 0 0.83495-0.0835 0.31729-0.1002 0.48428-0.25049 0.16699-0.1503 0.23379-0.33398 0.0835-0.2004 0.13359-0.40079h2.2711q-0.0668 0.40079-0.23379 0.90176-0.16699 0.48427-0.60116 0.91845-0.43418 0.41748-1.219 0.71806-0.78485 0.28389-2.0874 0.28389-2.2377 0-3.2563-1.1355-1.002-1.1522-1.002-3.44 0-1.052 0.21708-1.9037 0.2338-0.85166 0.73477-1.4528 0.51767-0.61787 1.3526-0.95186 0.83495-0.33398 2.054-0.33398 1.4528 0 2.3045 0.48427 0.85165 0.48429 1.2858 1.2524 0.43418 0.75145 0.53438 1.7033 0.11689 0.95186 0.0668 1.9037z"/>
  </g>
 </g>
</svg>
