<svg xmlns="http://www.w3.org/2000/svg" height="407.57" width="600" version="1.1" xmlns:xlink="http://www.w3.org/1999/xlink" viewBox="0 0 158.75 107.83621">
 <defs>
  <linearGradient id="b" y2="568.01" gradientUnits="userSpaceOnUse" x2="1551.5" gradientTransform="matrix(.13208 0 0 -.13208 -242.18 404.27)" y1="1360" x1="1482.2">
   <stop stop-color="#649dcb" offset="0"/>
   <stop stop-color="#619bca" offset=".0067"/>
   <stop stop-color="#4c8fc7" offset=".0557"/>
   <stop stop-color="#3f88c6" offset=".1039"/>
   <stop stop-color="#3b86c5" offset="0.15"/>
   <stop stop-color="#488cc6" offset=".29660"/>
   <stop stop-color="#6199c9" offset=".5"/>
   <stop stop-color="#5193c7" offset=".63810"/>
   <stop stop-color="#2882c2" offset=".90610"/>
   <stop stop-color="#187cc0" offset="1"/>
  </linearGradient>
  <linearGradient id="a" y2="739.92" gradientUnits="userSpaceOnUse" x2="1577.6" gradientTransform="matrix(.13208 0 0 -.13208 -242.18 404.27)" y1="1228.6" x1="1577.6">
   <stop stop-color="#fff" offset=".5"/>
   <stop stop-color="#bfbfbf" offset="1"/>
  </linearGradient>
 </defs>
 <g transform="translate(76.351 -220.4)">
  <g stroke-width=".13208">
   <path d="m-76.351 311.76c0 1.4529 1.1628 2.8886 2.5839 3.1907l62.259 13.234c1.4213 0.30207 2.5839-0.63954 2.5839-2.0924v-103.54c0-1.4529-1.1628-2.3945-2.5839-2.0924l-62.259 13.234c-1.4211 0.30207-2.5839 1.7379-2.5839 3.1908z" fill="#187cc0"/>
   <path d="m-75.625 310.86c0 1.4529 1.1628 2.8886 2.5839 3.1907l60.741 12.911c1.4212 0.30207 2.5839-0.63954 2.5839-2.0924v-101.09c0-1.4529-1.1628-2.3945-2.5839-2.0924l-60.741 12.911c-1.4211 0.30207-2.5839 1.7379-2.5839 3.1908z" fill="url(#b)"/>
   <path d="m-75.762 236.34s59.415-7.0736 66.838 8.9843l0.001 32.311s-0.44656 19.489-9.5719 22.414l-29.938 6.3535s-25.953 8.6874-27.634-46.535c-0.78324-17.97 0.30524-23.528 0.30524-23.528z" fill="#187cc0"/>
   <path d="m-8.9276 279.05c-2.0014-7.0443-7.7541-10.817-15.778-11.714 0.0071 0 8.3389-6.1395 15.782-12.174v-13.16h-47.849l-0.0016 14.66h26.969c-0.05495 0.0433-16.893 13.065-16.893 13.065l6.3078 9.431s3.7913-1.9531 7.2093-1.9531c6.0559 0 8.4397 2.5375 8.4397 8.2561 0 6.1995-2.8434 8.9386-8.5606 8.9386-6.9251 0-8.344-4.9503-8.344-8.5022h-17.029c-0.3199 12.05 7.0459 20.653 24.539 20.653 13.54 0 22.599-4.7218 25.208-14.883v-12.615z" fill="url(#a)"/>
  </g>
  <g fill="#187cc0">
   <path d="m14.983 278.64q1.4903 0 2.129-0.73332 0.66235-0.73332 0.6387-1.9398v-1.2774q-0.18925 0.11828-0.37849 0.18925-0.56774 0.28386-1.3011 0.35483-0.70967 0.071-1.3484 0.2129-0.61505 0.14193-1.0408 0.52042-0.4258 0.35484-0.4258 1.2064 0 0.47311 0.16559 0.78064 0.16559 0.28385 0.4258 0.44944 0.26021 0.14193 0.54408 0.18924 0.30753 0.0473 0.59139 0.0473zm-4.5182-6.4343v-0.54408q0.0237-0.78065 0.30752-1.443 0.28387-0.68601 0.89892-1.1828 0.6387-0.49677 1.6795-0.78065 1.0408-0.28386 2.6021-0.28386 2.5311 0 3.7376 0.92257 1.2301 0.92256 1.2301 3.1935v5.2752q0 0.40215 0.0473 0.56774 0.0473 0.14193 0.11828 0.18924 0.071 0.0473 0.23656 0.11827 0.18924 0.071 0.49677 0.0473v2.4129h-1.6322q-0.44945 0-0.80429-0.071-0.35483-0.0946-0.68601-0.37849-0.26022-0.23655-0.40215-0.52043-0.14193-0.30752-0.26021-0.52042-0.33118 0.56774-0.68602 0.94622-0.35483 0.35485-0.80429 0.54409-0.4258 0.18924-0.94623 0.26021-0.52042 0.071-1.1355 0.071-2.3892 0-3.4537-1.0645-1.0408-1.0645-1.0408-2.957 0-1.3484 0.49677-2.0344 0.49677-0.68601 1.2064-1.0408 0.59139-0.26021 1.4666-0.37849 0.87526-0.11828 1.7505-0.18925 0.87526-0.071 1.5849-0.14193 0.70967-0.071 0.96989-0.26021 0.14193-0.11828 0.2129-0.44946 0.0946-0.33118 0.0946-0.75698 0-0.66236-0.40215-1.0645-0.40214-0.40216-1.5613-0.40216-0.87526 0-1.3247 0.1656-0.44946 0.14193-0.66236 0.4258-0.2129 0.26021-0.26021 0.61505-0.0473 0.33117-0.071 0.70967z"/>
   <path d="m24.348 263.6h3.2881v17.103h-3.288z"/>
   <path d="m35.573 281.03q-1.372 0-2.3183-0.26021-0.94623-0.26021-1.5849-0.66236-0.61505-0.40215-0.96988-0.92257-0.35484-0.52043-0.54408-1.0408-0.16559-0.54408-0.2129-1.0172-0.0473-0.49677-0.0473-0.82794h3.0989q0.0237 0.44945 0.071 0.87526 0.0473 0.40214 0.28386 0.70967 0.23656 0.30751 0.75699 0.49676 0.52042 0.16558 1.514 0.16558 0.47311 0 0.89892-0.0237 0.44945-0.0237 0.78063-0.16559 0.33118-0.14194 0.52043-0.44945 0.2129-0.30753 0.2129-0.87526 0-0.4258-0.18925-0.6387-0.18924-0.23656-0.59139-0.35484-0.40215-0.14193-1.0408-0.23655-0.6387-0.11828-1.5376-0.33119-1.1591-0.23655-1.9871-0.54408-0.82795-0.30752-1.372-0.73332-0.52043-0.4258-0.78064-1.0172-0.23656-0.5914-0.23656-1.4193 0-1.1118 0.40215-1.8452 0.4258-0.73331 1.1355-1.1591 0.70967-0.4258 1.6559-0.59138 0.94623-0.18925 1.9871-0.18925 1.3247 0 2.2236 0.26021 0.89891 0.23656 1.4903 0.6387t0.89891 0.8989q0.30753 0.47312 0.44946 0.94624 0.16559 0.44945 0.18925 0.8516 0.0237 0.40214 0.0473 0.61505h-3.0989q-0.0473-0.4258-0.11828-0.75699-0.071-0.33117-0.30752-0.54408-0.23656-0.23655-0.66236-0.35483t-1.1591-0.11828q-0.35483 0-0.70967 0.0473-0.35483 0.0237-0.6387 0.1656-0.26021 0.11828-0.44946 0.35483-0.16559 0.2129-0.16559 0.56774 0 0.37848 0.16559 0.59139 0.16559 0.2129 0.56774 0.37849 0.4258 0.14193 1.1355 0.28387 0.73333 0.14193 1.8451 0.37849 0.99354 0.2129 1.7505 0.54408 0.78064 0.30752 1.3011 0.78063 0.52042 0.44946 0.78063 1.0882 0.26022 0.61504 0.26022 1.4903 0 2.058-1.4667 3.0043-1.443 0.94623-4.2344 0.94623z"/>
   <path d="m47.774 278.64q1.4903 0 2.129-0.73332 0.66235-0.73332 0.6387-1.9398v-1.2774q-0.18925 0.11828-0.37849 0.18925-0.56774 0.28386-1.3011 0.35483-0.70967 0.071-1.3484 0.2129-0.61505 0.14193-1.0408 0.52042-0.4258 0.35484-0.4258 1.2064 0 0.47311 0.16559 0.78064 0.16559 0.28385 0.4258 0.44944 0.26021 0.14193 0.54408 0.18924 0.30753 0.0473 0.59139 0.0473zm-4.5182-6.4343v-0.54408q0.0237-0.78065 0.30752-1.443 0.28387-0.68601 0.89892-1.1828 0.6387-0.49677 1.6795-0.78065 1.0408-0.28386 2.6021-0.28386 2.5311 0 3.7376 0.92257 1.2301 0.92256 1.2301 3.1935v5.2752q0 0.40215 0.0473 0.56774 0.0473 0.14193 0.11828 0.18924 0.071 0.0473 0.23656 0.11827 0.18924 0.071 0.49677 0.0473v2.4129h-1.6322q-0.44945 0-0.80429-0.071-0.35483-0.0946-0.68601-0.37849-0.26022-0.23655-0.40215-0.52043-0.14193-0.30752-0.26021-0.52042-0.33118 0.56774-0.68602 0.94622-0.35483 0.35485-0.80429 0.54409-0.4258 0.18924-0.94623 0.26021-0.52042 0.071-1.1355 0.071-2.3892 0-3.4537-1.0645-1.0408-1.0645-1.0408-2.957 0-1.3484 0.49677-2.0344 0.49677-0.68601 1.2064-1.0408 0.59139-0.26021 1.4666-0.37849 0.87526-0.11828 1.7505-0.18925 0.87526-0.071 1.5849-0.14193 0.70967-0.071 0.96988-0.26021 0.14194-0.11828 0.21291-0.44946 0.0946-0.33118 0.0946-0.75698 0-0.66236-0.40215-1.0645-0.40214-0.40216-1.5613-0.40216-0.87526 0-1.3247 0.1656-0.44946 0.14193-0.66236 0.4258-0.2129 0.26021-0.26021 0.61505-0.0473 0.33117-0.071 0.70967z"/>
   <path d="m65.253 272.56q-0.071-0.35483-0.14194-0.70967-0.0473-0.37849-0.30752-0.68601-0.23656-0.30753-0.73333-0.49677-0.47311-0.18925-1.3957-0.18925-0.89892 0-1.4667 0.33118-0.56773 0.30752-0.89891 0.82795-0.30752 0.52042-0.4258 1.2064-0.11828 0.68602-0.11828 1.4194 0 1.0645 0.11828 1.8924 0.14193 0.8043 0.44945 1.372 0.33118 0.54408 0.85161 0.82794 0.54408 0.26021 1.3484 0.26021 1.0172 0 1.5376-0.2129 0.54408-0.2129 0.78064-0.54407 0.23656-0.35484 0.28387-0.80429 0.0473-0.47312 0.11828-0.96989h3.2408q0 0.73333-0.23655 1.6086-0.23656 0.85159-0.87526 1.6086-0.63871 0.73333-1.7978 1.2301-1.1355 0.49676-2.957 0.49676-2.957 0-4.5419-1.6322-1.5613-1.6322-1.5613-4.944 0-1.3957 0.33118-2.5785t1.0645-2.058q0.75698-0.87525 1.9634-1.3484 1.2301-0.49677 3.0043-0.49677 1.5376 0 2.5785 0.37849 1.0645 0.37849 1.7032 1.0172 0.66235 0.6387 0.94622 1.4666 0.28387 0.82796 0.28387 1.7269z"/>
   <path d="m78.995 273.25q0-0.54408-0.0946-1.0408-0.071-0.49677-0.33118-0.87527-0.23655-0.40214-0.70967-0.61504-0.47311-0.23656-1.2774-0.23656-0.99354 0-1.5613 0.26022-0.56773 0.2602-0.87526 0.66235-0.28387 0.40214-0.37849 0.89892-0.0946 0.47311-0.16559 0.94623zm-5.4645 2.2946q0 1.4903 0.6387 2.2473 0.6387 0.75697 2.3892 0.75697 0.75698 0 1.1828-0.11827 0.44945-0.14194 0.68601-0.35483 0.23656-0.2129 0.33118-0.47311 0.11828-0.28387 0.18925-0.56774h3.2172q-0.0946 0.56774-0.33118 1.2774-0.23656 0.68602-0.85161 1.3011-0.61504 0.59139-1.7269 1.0172-1.1118 0.40215-2.957 0.40215-3.1699 0-4.6129-1.6086-1.4193-1.6322-1.4193-4.8731 0-1.4903 0.30753-2.6967 0.33118-1.2064 1.0408-2.058 0.73332-0.87525 1.9161-1.3484 1.1828-0.47311 2.9096-0.47311 2.058 0 3.2645 0.68602 1.2064 0.68601 1.8215 1.7742 0.61505 1.0645 0.75699 2.4129 0.16559 1.3484 0.0946 2.6968z"/>
  </g>
 </g>
</svg>
