<svg xmlns="http://www.w3.org/2000/svg" height="275.83" width="600" version="1.1" xmlns:xlink="http://www.w3.org/1999/xlink" viewBox="0 0 158.75 72.981223">
 <defs>
  <linearGradient id="b" y2="568.01" gradientUnits="userSpaceOnUse" x2="1551.5" gradientTransform="matrix(.089390 0 0 -.089390 -85.77 236.78)" y1="1360" x1="1482.2">
   <stop stop-color="#649dcb" offset="0"/>
   <stop stop-color="#619bca" offset=".0067"/>
   <stop stop-color="#4c8fc7" offset=".0557"/>
   <stop stop-color="#3f88c6" offset=".1039"/>
   <stop stop-color="#3b86c5" offset="0.15"/>
   <stop stop-color="#488cc6" offset=".29660"/>
   <stop stop-color="#6199c9" offset=".5"/>
   <stop stop-color="#5193c7" offset=".63810"/>
   <stop stop-color="#2882c2" offset=".90610"/>
   <stop stop-color="#187cc0" offset="1"/>
  </linearGradient>
  <linearGradient id="a" y2="739.92" gradientUnits="userSpaceOnUse" x2="1577.6" gradientTransform="matrix(.089390 0 0 -.089390 -85.77 236.78)" y1="1228.6" x1="1577.6">
   <stop stop-color="#fff" offset=".5"/>
   <stop stop-color="#bfbfbf" offset="1"/>
  </linearGradient>
 </defs>
 <g transform="translate(-26.458 -112.34)">
  <g stroke-width=".089390">
   <path d="m26.458 174.17c0 0.98329 0.78698 1.955 1.7487 2.1594l42.136 8.9562c0.96192 0.20444 1.7487-0.43282 1.7487-1.4161v-70.073c0-0.98329-0.78699-1.6206-1.7487-1.4161l-42.136 8.9563c-0.96174 0.20444-1.7487 1.1762-1.7487 2.1595z" fill="#187cc0"/>
   <path d="m26.95 173.56c0 0.98329 0.78698 1.955 1.7487 2.1594l41.108 8.7378c0.96183 0.20443 1.7487-0.43283 1.7487-1.4161v-68.41c0-0.98328-0.78698-1.6205-1.7487-1.4161l-41.108 8.7378c-0.96174 0.20444-1.7487 1.1762-1.7487 2.1595z" fill="url(#b)"/>
   <path d="m26.857 123.13s40.211-4.7873 45.234 6.0804l0.000677 21.868s-0.30222 13.19-6.4781 15.17l-20.261 4.2999s-17.564 5.8794-18.702-31.494c-0.53008-12.162 0.20658-15.923 0.20658-15.923z" fill="#187cc0"/>
   <path d="m72.089 152.03c-1.3545-4.7674-5.2478-7.3206-10.678-7.9278 0.0047 0 5.6436-4.1551 10.681-8.2393v-8.9084h-32.383l-0.0014 9.9217h18.251c-0.03722 0.0293-11.433 8.8423-11.433 8.8423l4.269 6.3827s2.5658-1.3218 4.8791-1.3218c4.0985 0 5.7118 1.7174 5.7118 5.5876 0 4.1957-1.9244 6.0494-5.7936 6.0494-4.6868 0-5.647-3.3502-5.647-5.7541h-11.524c-0.2165 8.1553 4.7685 13.978 16.608 13.978 9.1635 0 15.294-3.1956 17.06-10.072v-8.5376z" fill="url(#a)"/>
  </g>
  <g fill="#187cc0">
   <path d="m85.31 135.58h2.1453v1.1367q0.06402-0.19212 0.14409-0.43227 0.09606-0.24014 0.32019-0.43225 0.24015-0.20813 0.6564-0.35221 0.41624-0.14409 1.1207-0.14409 0.72044 0 1.2808 0.14409 0.56034 0.12807 0.92856 0.44827 0.36822 0.30418 0.56034 0.81649 0.19211 0.51231 0.19211 1.2648v5.9396h-2.2253v-5.5553q0-0.62438-0.30418-0.96058-0.30418-0.35221-1.1687-0.35221-0.70442 0-1.0726 0.30417-0.35221 0.28819-0.35221 1.1527v5.4113h-2.2253z"/>
   <path d="m100.36 139.57q0-1.2968-0.41625-1.9051-0.40024-0.62438-1.4409-0.62438-0.56034 0-0.96058 0.12807-0.40024 0.11208-0.65639 0.41626-0.25615 0.28817-0.38423 0.81649-0.11207 0.52832-0.11207 1.3448 0 1.4889 0.41625 2.1453 0.41625 0.64039 1.4569 0.64039 0.67241 0 1.0887-0.19213 0.41625-0.19211 0.64039-0.56033 0.22413-0.38423 0.28817-0.92855 0.08-0.56034 0.08-1.2808zm-2.0172 4.6268q-2.0652 0-3.1219-1.0406-1.0566-1.0406-1.0566-3.314 0-1.3128 0.3202-2.1773 0.32019-0.86452 0.89653-1.3768 0.57635-0.5123 1.3448-0.72043 0.78447-0.20812 1.697-0.20812 2.1133 0 3.1379 1.0566t1.0246 3.346q0 0.9926-0.22413 1.8091-0.20813 0.8165-0.70443 1.4089-0.4963 0.57634-1.3128 0.89654-0.80048 0.32018-2.0012 0.32018z"/>
   <path d="m104.13 135.58h1.9852v1.5689q0.11207-0.32019 0.24014-0.64038 0.12808-0.3202 0.35221-0.57636 0.24015-0.25615 0.62438-0.41625 0.38423-0.16009 1.0086-0.16009 0.27216 0 0.54432 0.032 0.27217 0.016 0.54433 0.048v1.8411h-1.3608q-0.38423 0-0.72043 0.11206-0.3362 0.11208-0.57635 0.40025-0.27216 0.35221-0.35221 0.84851-0.064 0.49629-0.064 0.80048v4.5307h-2.23z"/>
   <path d="m115.57 139.79q0-1.4569-0.44827-2.0973-0.43226-0.6564-1.4409-0.6564-0.5123 0-0.84851 0.12807-0.32019 0.12809-0.5123 0.43227-0.19212 0.30418-0.27217 0.78446-0.08 0.4803-0.08 1.2007 0 0.65638 0.064 1.2007 0.064 0.52832 0.24015 0.91255 0.19211 0.36821 0.51231 0.57634 0.3362 0.19212 0.86452 0.19212 0.68841 0 1.0726-0.25615 0.40024-0.25616 0.57634-0.6564 0.19212-0.40025 0.22414-0.86452 0.048-0.4803 0.048-0.89654zm-2.3374-4.4347q0.54433 0 0.91255 0.0961 0.36823 0.08 0.62438 0.22413 0.25615 0.14409 0.41625 0.3202 0.17611 0.1761 0.32019 0.3362v-3.9384h2.2253v11.575h-2.1133v-1.0246q-0.11207 0.1761-0.27217 0.40024-0.16009 0.20812-0.43225 0.40024-0.25616 0.19212-0.6564 0.3202-0.40024 0.12806-0.97659 0.12806-1.7771 0-2.6576-1.2007-0.88054-1.2007-0.88054-3.282 0-0.97657 0.17611-1.7771 0.19212-0.81648 0.60836-1.3768 0.41626-0.57634 1.0726-0.88053 0.6724-0.32019 1.633-0.32019z"/>
   <path d="m91.105 159.74q0-1.2488-0.36822-1.8411-0.36822-0.59236-1.2808-0.59236-0.91255 0-1.4249 0.59236-0.51231 0.59236-0.51231 2.0492 0 0.60837 0.09606 1.1367 0.09606 0.51231 0.3202 0.89654 0.22414 0.36822 0.59236 0.57635 0.36822 0.20812 0.92856 0.20812 0.62438 0 0.94457-0.22413 0.3362-0.24015 0.4963-0.64039t0.1761-0.94457q0.03201-0.56034 0.03201-1.2167zm-5.7314-3.9224h2.1453v0.9926q0.11207-0.19213 0.28817-0.40025 0.19212-0.20812 0.46428-0.38423 0.27216-0.19211 0.67241-0.30418 0.40024-0.12807 0.97658-0.12807 0.92856 0 1.585 0.35221 0.6564 0.3362 1.0726 0.94457 0.41625 0.60836 0.59236 1.4409 0.19212 0.8165 0.19212 1.7771 0 0.89654-0.1761 1.697-0.1601 0.78448-0.56034 1.3768-0.40024 0.57635-1.0726 0.91255-0.67241 0.3362-1.697 0.3362-0.96058 0-1.4889-0.28817-0.52832-0.30418-0.76846-0.6724v3.5061h-2.2253z"/>
   <path d="m97.837 162.82q1.0086 0 1.4409-0.49631 0.44827-0.49629 0.43226-1.3128v-0.86452q-0.12807 0.08-0.25615 0.12807-0.38423 0.19212-0.88053 0.24015-0.48029 0.0481-0.91255 0.14409-0.41625 0.096-0.70442 0.35221-0.28817 0.24015-0.28817 0.81649 0 0.3202 0.11207 0.52832 0.11207 0.19212 0.28817 0.30418 0.17611 0.0961 0.36822 0.12808 0.20813 0.032 0.40025 0.032zm-3.0578-4.3546v-0.36822q0.01604-0.52832 0.20813-0.97659 0.19211-0.46429 0.60836-0.80048 0.43226-0.33621 1.1367-0.52832 0.70442-0.19211 1.7611-0.19211 1.713 0 2.5295 0.62437 0.8325 0.62438 0.8325 2.1613v3.5702q0 0.27217 0.032 0.38423 0.032 0.0961 0.08 0.12808 0.0481 0.032 0.1601 0.08 0.12807 0.0481 0.3362 0.032v1.633h-1.1047q-0.30418 0-0.54433-0.0481-0.24014-0.064-0.46427-0.25615-0.17611-0.1601-0.27217-0.35222-0.09605-0.20812-0.1761-0.35221-0.22414 0.38423-0.46428 0.64039-0.24014 0.24015-0.54433 0.36822-0.28817 0.12808-0.64039 0.1761-0.35221 0.0481-0.76846 0.0481-1.617 0-2.3374-0.72044-0.70442-0.72043-0.70442-2.0012 0-0.91255 0.3362-1.3768 0.3362-0.46428 0.81649-0.70442 0.40024-0.17611 0.9926-0.25616 0.59236-0.08 1.1847-0.12808 0.59236-0.048 1.0726-0.096 0.48029-0.048 0.6564-0.17611 0.09606-0.08 0.14409-0.30418 0.06402-0.22414 0.06402-0.51231 0-0.44827-0.27217-0.72043-0.27217-0.27217-1.0566-0.27217-0.59236 0-0.89654 0.11207-0.30418 0.0961-0.44827 0.28818-0.14409 0.1761-0.1761 0.41624-0.03201 0.22414-0.04805 0.48028z"/>
   <path d="m107.55 164.43q-0.92855 0-1.5689-0.1761-0.64038-0.17611-1.0726-0.44827-0.41624-0.27217-0.65639-0.62438-0.24014-0.35221-0.36822-0.70442-0.11207-0.36822-0.14409-0.68842-0.032-0.3362-0.032-0.56034h2.0973q0.016 0.30419 0.0481 0.59236 0.032 0.27217 0.19212 0.48029 0.1601 0.20813 0.51231 0.3362 0.35221 0.11207 1.0246 0.11207 0.3202 0 0.60837-0.016 0.30418-0.016 0.52832-0.11207 0.22413-0.0961 0.35221-0.30418 0.14408-0.20813 0.14408-0.59236 0-0.28817-0.12807-0.43226-0.12808-0.1601-0.40024-0.24015-0.27217-0.0961-0.70442-0.16009-0.43227-0.08-1.0406-0.22413-0.78447-0.1601-1.3448-0.36822-0.56034-0.20813-0.92856-0.49631-0.35221-0.28817-0.52832-0.68841-0.16009-0.40024-0.16009-0.96057 0-0.75246 0.27216-1.2488 0.28818-0.4963 0.76846-0.78447 0.48029-0.28818 1.1207-0.40024 0.64039-0.12808 1.3448-0.12808 0.89654 0 1.5049 0.17611 0.60837 0.1601 1.0086 0.43225 0.40024 0.27217 0.60837 0.60837 0.20812 0.32019 0.30418 0.64039 0.11206 0.30418 0.12807 0.57635 0.016 0.27216 0.032 0.41625h-2.0973q-0.032-0.28817-0.08-0.51231-0.048-0.22413-0.20813-0.36822-0.16009-0.1601-0.44827-0.24015-0.28818-0.08-0.78447-0.08-0.24015 0-0.48029 0.032-0.24015 0.016-0.43226 0.11207-0.17611 0.08-0.30418 0.24015-0.11207 0.14408-0.11207 0.38423 0 0.25615 0.11207 0.40024t0.38423 0.25616q0.28817 0.096 0.76846 0.19211 0.4963 0.0961 1.2488 0.25616 0.6724 0.14408 1.1847 0.36822 0.52831 0.20812 0.88052 0.52831 0.35221 0.30419 0.52832 0.73644 0.17611 0.41626 0.17611 1.0086 0 1.3928-0.9926 2.0332-0.97659 0.64039-2.8657 0.64039z"/>
   <path d="m112.54 158.77h3.7783v1.9532h-3.7783z"/>
   <path d="m123.39 160.03q0-1.4569-0.44827-2.0973-0.43226-0.6564-1.4409-0.6564-0.51231 0-0.84851 0.12808-0.32019 0.12808-0.51231 0.43226-0.19212 0.30419-0.27217 0.78448-0.08 0.48028-0.08 1.2007 0 0.65639 0.064 1.2007 0.064 0.52831 0.24014 0.91255 0.19211 0.36822 0.51231 0.57635 0.3362 0.19211 0.86452 0.19211 0.68842 0 1.0726-0.25615 0.40024-0.25615 0.57634-0.6564 0.19212-0.40024 0.22414-0.86452 0.048-0.48028 0.048-0.89654zm-2.3374-4.4347q0.54432 0 0.91254 0.0961 0.36823 0.08 0.62438 0.22413 0.25616 0.14409 0.41625 0.3202 0.17611 0.1761 0.3202 0.3362v-3.9384h2.2253v11.575h-2.1133v-1.0246q-0.11206 0.17611-0.27216 0.40024-0.1601 0.20813-0.43226 0.40024-0.25615 0.19211-0.6564 0.32019-0.40024 0.12808-0.97658 0.12808-1.7771 0-2.6576-1.2007-0.88054-1.2007-0.88054-3.282 0-0.97659 0.17611-1.7771 0.19211-0.8165 0.60837-1.3768 0.41625-0.57635 1.0726-0.88054 0.67241-0.32018 1.633-0.32018z"/>
   <path d="m133.06 159.17q0-0.36822-0.064-0.70442-0.048-0.33621-0.22413-0.59236-0.1601-0.27216-0.48029-0.41624-0.32019-0.1601-0.86452-0.1601-0.6724 0-1.0566 0.1761-0.38424 0.17611-0.59236 0.44827-0.19212 0.27217-0.25615 0.60837-0.064 0.32019-0.11207 0.64038zm-3.6982 1.5529q0 1.0086 0.43226 1.5209 0.43227 0.51231 1.617 0.51231 0.51232 0 0.80049-0.08 0.30418-0.0961 0.46427-0.24015 0.1601-0.14409 0.22414-0.32019 0.08-0.19212 0.12808-0.38424h2.1773q-0.064 0.38424-0.22414 0.86453-0.16009 0.46427-0.57634 0.88053-0.41625 0.40023-1.1687 0.68841-0.75245 0.27216-2.0012 0.27216-2.1453 0-3.1219-1.0886-0.96057-1.1047-0.96057-3.298 0-1.0086 0.20812-1.8251 0.22413-0.8165 0.70442-1.3928 0.4963-0.59235 1.2968-0.91255 0.80048-0.32018 1.9692-0.32018 1.3928 0 2.2093 0.46427 0.81649 0.46429 1.2327 1.2007 0.41625 0.72042 0.51231 1.633 0.11207 0.91255 0.064 1.8251z"/>
   <path d="m136.52 158.77h3.7783v1.9532h-3.7783z"/>
   <path d="m147.46 158.7q-0.048-0.24014-0.0961-0.48028-0.032-0.25616-0.20812-0.46429-0.1601-0.20812-0.4963-0.33621-0.32019-0.12806-0.94457-0.12806-0.60837 0-0.99259 0.22413-0.38424 0.20812-0.60837 0.56034-0.20813 0.35221-0.28818 0.81649-0.08 0.46428-0.08 0.96058 0 0.72043 0.08 1.2808 0.0961 0.54432 0.30419 0.92856 0.22413 0.36822 0.57634 0.56034 0.36822 0.1761 0.91255 0.1761 0.68842 0 1.0406-0.14409 0.36822-0.14408 0.52832-0.36822 0.16009-0.24015 0.19211-0.54432 0.032-0.3202 0.08-0.6564h2.1933q0 0.4963-0.16009 1.0886-0.1601 0.57635-0.59236 1.0887-0.43227 0.4963-1.2167 0.8325-0.76847 0.3362-2.0012 0.3362-2.0012 0-3.0738-1.1047-1.0566-1.1047-1.0566-3.346 0-0.94456 0.22414-1.745 0.22413-0.80048 0.72044-1.3928 0.5123-0.59236 1.3288-0.91255 0.8325-0.3362 2.0332-0.3362 1.0406 0 1.745 0.25614 0.72043 0.25616 1.1527 0.68842 0.44827 0.43226 0.64038 0.9926 0.19212 0.56034 0.19212 1.1687z"/>
   <path d="m154.19 162.82q1.0086 0 1.4409-0.49631 0.44827-0.49629 0.43226-1.3128v-0.86452q-0.12807 0.08-0.25615 0.12807-0.38423 0.19212-0.88053 0.24015-0.48029 0.0481-0.91255 0.14409-0.41625 0.096-0.70442 0.35221-0.28818 0.24015-0.28818 0.81649 0 0.3202 0.11207 0.52832 0.11206 0.19212 0.28817 0.30418 0.17611 0.0961 0.36823 0.12808 0.20812 0.032 0.40023 0.032zm-3.0578-4.3546v-0.36822q0.016-0.52832 0.20813-0.97659 0.19212-0.46429 0.60836-0.80048 0.43227-0.33621 1.1367-0.52832t1.7611-0.19211q1.713 0 2.5295 0.62437 0.8325 0.62438 0.8325 2.1613v3.5702q0 0.27217 0.032 0.38423 0.032 0.0961 0.08 0.12808 0.0481 0.032 0.1601 0.08 0.12808 0.0481 0.33621 0.032v1.633h-1.1047q-0.30418 0-0.54433-0.0481-0.24014-0.064-0.46428-0.25615-0.1761-0.1601-0.27216-0.35222-0.0961-0.20812-0.17611-0.35221-0.22413 0.38423-0.46427 0.64039-0.24015 0.24015-0.54434 0.36822-0.28817 0.12808-0.64038 0.1761-0.35221 0.0481-0.76846 0.0481-1.617 0-2.3374-0.72044-0.70443-0.72043-0.70443-2.0012 0-0.91255 0.3362-1.3768 0.3362-0.46428 0.81649-0.70442 0.40025-0.17611 0.9926-0.25616 0.59236-0.08 1.1847-0.12808 0.59236-0.048 1.0726-0.096 0.48029-0.048 0.65639-0.17611 0.0961-0.08 0.14409-0.30418 0.064-0.22414 0.064-0.51231 0-0.44827-0.27216-0.72043-0.27216-0.27217-1.0566-0.27217-0.59235 0-0.89654 0.11207-0.30418 0.0961-0.44826 0.28818-0.14409 0.1761-0.17611 0.41624-0.032 0.22414-0.048 0.48028z"/>
   <path d="m160.53 152.63h2.2253v11.575h-2.2253z"/>
   <path d="m167.7 162.82q1.0086 0 1.4409-0.49631 0.44827-0.49629 0.43226-1.3128v-0.86452q-0.12808 0.08-0.25615 0.12807-0.38423 0.19212-0.88053 0.24015-0.48029 0.0481-0.91255 0.14409-0.41625 0.096-0.70443 0.35221-0.28817 0.24015-0.28817 0.81649 0 0.3202 0.11207 0.52832 0.11207 0.19212 0.28817 0.30418 0.17611 0.0961 0.36822 0.12808 0.20813 0.032 0.40025 0.032zm-3.0578-4.3546v-0.36822q0.016-0.52832 0.20813-0.97659 0.19211-0.46429 0.60837-0.80048 0.43225-0.33621 1.1367-0.52832 0.70442-0.19211 1.7611-0.19211 1.713 0 2.5295 0.62437 0.8325 0.62438 0.8325 2.1613v3.5702q0 0.27217 0.032 0.38423 0.032 0.0961 0.08 0.12808 0.0481 0.032 0.1601 0.08 0.12808 0.0481 0.33621 0.032v1.633h-1.1047q-0.30417 0-0.54432-0.0481-0.24014-0.064-0.46428-0.25615-0.17611-0.1601-0.27216-0.35222-0.0961-0.20812-0.17611-0.35221-0.22413 0.38423-0.46428 0.64039-0.24014 0.24015-0.54433 0.36822-0.28817 0.12808-0.64038 0.1761-0.35221 0.0481-0.76846 0.0481-1.617 0-2.3374-0.72044-0.70443-0.72043-0.70443-2.0012 0-0.91255 0.33621-1.3768 0.3362-0.46428 0.81649-0.70442 0.40024-0.17611 0.99259-0.25616 0.59236-0.08 1.1847-0.12808 0.59235-0.048 1.0726-0.096 0.48029-0.048 0.6564-0.17611 0.0961-0.08 0.14409-0.30418 0.064-0.22414 0.064-0.51231 0-0.44827-0.27216-0.72043-0.27216-0.27217-1.0566-0.27217-0.59235 0-0.89654 0.11207-0.30418 0.0961-0.44827 0.28818-0.14408 0.1761-0.1761 0.41624-0.032 0.22414-0.048 0.48028z"/>
   <path d="m173.89 155.82h2.2253v8.389h-2.2253zm0-3.1859h2.2253v2.0973h-2.2253z"/>
   <path d="m181.35 164.43q-0.92856 0-1.5689-0.1761-0.64038-0.17611-1.0726-0.44827-0.41624-0.27217-0.65639-0.62438-0.24014-0.35221-0.36822-0.70442-0.11207-0.36822-0.14409-0.68842-0.032-0.3362-0.032-0.56034h2.0973q0.016 0.30419 0.048 0.59236 0.032 0.27217 0.19212 0.48029 0.16009 0.20813 0.51231 0.3362 0.3522 0.11207 1.0246 0.11207 0.3202 0 0.60837-0.016 0.30418-0.016 0.52831-0.11207 0.22414-0.0961 0.35222-0.30418 0.14408-0.20813 0.14408-0.59236 0-0.28817-0.12807-0.43226-0.12808-0.1601-0.40025-0.24015-0.27216-0.0961-0.70442-0.16009-0.43226-0.08-1.0406-0.22413-0.78446-0.1601-1.3448-0.36822-0.56034-0.20813-0.92856-0.49631-0.35222-0.28817-0.52832-0.68841-0.1601-0.40024-0.1601-0.96057 0-0.75246 0.27217-1.2488 0.28817-0.4963 0.76846-0.78447 0.48029-0.28818 1.1207-0.40024 0.64039-0.12808 1.3448-0.12808 0.89655 0 1.5049 0.17611 0.60837 0.1601 1.0086 0.43225 0.40024 0.27217 0.60836 0.60837 0.20813 0.32019 0.30418 0.64039 0.11207 0.30418 0.12808 0.57635 0.016 0.27216 0.032 0.41625h-2.0973q-0.032-0.28817-0.08-0.51231-0.0481-0.22413-0.20813-0.36822-0.1601-0.1601-0.44827-0.24015-0.28818-0.08-0.78447-0.08-0.24015 0-0.48029 0.032-0.24015 0.016-0.43226 0.11207-0.17611 0.08-0.30419 0.24015-0.11206 0.14408-0.11206 0.38423 0 0.25615 0.11206 0.40024 0.11207 0.14409 0.38424 0.25616 0.28817 0.096 0.76846 0.19211 0.4963 0.0961 1.2488 0.25616 0.6724 0.14408 1.1847 0.36822 0.52831 0.20812 0.88052 0.52831 0.35221 0.30419 0.52832 0.73644 0.17611 0.41626 0.17611 1.0086 0 1.3928-0.9926 2.0332-0.97659 0.64039-2.8657 0.64039z"/>
  </g>
 </g>
</svg>
