<svg xmlns="http://www.w3.org/2000/svg" height="283.89" width="600" version="1.1" xmlns:xlink="http://www.w3.org/1999/xlink" viewBox="0 0 158.75 75.112661">
 <defs>
  <linearGradient id="b" y2="568.01" gradientUnits="userSpaceOnUse" x2="1551.5" gradientTransform="matrix(0.092 0 0 -0.092 151.34 221.64)" y1="1360" x1="1482.2">
   <stop stop-color="#649dcb" offset="0"/>
   <stop stop-color="#619bca" offset=".0067"/>
   <stop stop-color="#4c8fc7" offset=".0557"/>
   <stop stop-color="#3f88c6" offset=".1039"/>
   <stop stop-color="#3b86c5" offset="0.15"/>
   <stop stop-color="#488cc6" offset=".29660"/>
   <stop stop-color="#6199c9" offset=".5"/>
   <stop stop-color="#5193c7" offset=".63810"/>
   <stop stop-color="#2882c2" offset=".90610"/>
   <stop stop-color="#187cc0" offset="1"/>
  </linearGradient>
  <linearGradient id="a" y2="739.92" gradientUnits="userSpaceOnUse" x2="1577.6" gradientTransform="matrix(0.092 0 0 -0.092 151.34 221.64)" y1="1228.6" x1="1577.6">
   <stop stop-color="#fff" offset=".5"/>
   <stop stop-color="#bfbfbf" offset="1"/>
  </linearGradient>
 </defs>
 <g transform="translate(-266.85 -93.563)">
  <g stroke-width="0.092">
   <path d="m266.85 157.2c0 1.012 0.80998 2.012 1.7998 2.2224l43.366 9.2178c0.99001 0.21041 1.7998-0.44547 1.7998-1.4575v-72.12c0-1.012-0.80997-1.6679-1.7998-1.4575l-43.366 9.2179c-0.98983 0.2104-1.7998 1.2105-1.7998 2.2225z" fill="#187cc0"/>
   <path d="m267.36 156.57c0 1.012 0.80996 2.012 1.7998 2.2225l42.309 8.9929c0.98992 0.21042 1.7998-0.44546 1.7998-1.4575v-70.406c0-1.012-0.80998-1.6679-1.7998-1.4575l-42.309 8.993c-0.98984 0.21041-1.7998 1.2105-1.7998 2.2226z" fill="url(#b)"/>
   <path d="m267.26 104.67s41.385-4.9271 46.555 6.258l0.00069 22.506s-0.31104 13.575-6.6672 15.613l-20.853 4.4255s-18.077 6.0511-19.249-32.414c-0.54556-12.517 0.21262-16.388 0.21262-16.388z" fill="#187cc0"/>
   <path d="m313.81 134.41c-1.3941-4.9066-5.4011-7.5345-10.99-8.1593 0.005 0 5.8084-4.2765 10.993-8.4799v-9.1686h-33.329l-0.001 10.211h18.785c-0.0382 0.0302-11.767 9.1006-11.767 9.1006l4.3937 6.5691s2.6408-1.3604 5.0216-1.3604c4.2182 0 5.8786 1.7675 5.8786 5.7508 0 4.3182-1.9806 6.2261-5.9628 6.2261-4.8237 0-5.8119-3.4481-5.8119-5.9222h-11.861c-0.22282 8.3935 4.9078 14.386 17.093 14.386 9.4311 0 15.741-3.2889 17.559-10.367v-8.787z" fill="url(#a)"/>
  </g>
  <g stroke-width=".24819" fill="#fa4b00">
   <path d="m383.81 130.12h-1.4209c-1.915-5.154-4.2198-11.67-5.5285-15.039-1.0119-2.605-2.7301-3.5769-2.7301-3.5769h4.7156l5.2609 13.913s3.1344-7.9392 3.9428-10.533c0.70015-2.2466-1.7743-3.3799-1.7743-3.3799h4.732z"/>
   <path d="m394.02 129.81 0.32662-0.91335v-13.732c0-2.394-1.3546-3.6613-1.3546-3.6613h4.6218v14.645c0 2.3941 1.3348 3.6611 1.3348 3.6611h-4.9286z"/>
   <path d="m413.72 129.81s-0.62048 0-1.7304-2.6475c-0.37874-0.90342-0.78851-2.2531-1.2956-3.6047h-5.6044c-0.36608 1.0139-0.80662 2.0992-1.0982 3.2387-0.58748 2.2968 1.7177 3.0136 1.7177 3.0136h-4.6471s5.9566-15.547 6.2048-16.912c0.2482-1.3651-0.99276-1.8163-0.99276-1.8163h3.4064c1.7741 4.9006 3.1436 8.892 4.9743 13.736 0.92948 2.4784 1.4427 4.2339 3.0361 4.9926zm-5.7295-14.11h-0.0564c-0.84485 2.1687-1.6053 4.3654-2.3938 6.4778h4.703z"/>
   <path d="m343.71 133.08c-1.8024 0-2.9006 1.2956-2.9006 2.8723 0 1.7463 1.1543 2.6755 3.5484 3.8869 2.6753 1.3231 4.9286 2.8162 4.9286 5.7451 0 3.126-2.6475 5.5761-6.6466 5.5761-1.0705 0-2.028-0.16901-2.788-0.39412-0.76046-0.25365-1.2675-0.45048-1.6056-0.6195-0.25341-0.67607-0.61949-3.0418-0.8168-4.6191 0 0 2.9852 4.5345 5.7452 4.5345 1.8872 0 3.0418-1.2392 3.0418-3.126 0-1.8026-1.3517-2.8443-3.464-3.9713-2.5068-1.2673-4.8159-2.7599-4.8159-5.6325 0-2.957 2.3377-5.3227 6.2239-5.3227 1.6053 0 3.0696 0.45048 3.774 0.70437 0.11243 1.0136 0.28169 2.197 0.5351 3.9708 0.00018 0-2.4219-3.605-4.7596-3.605z"/>
   <path d="m362.72 133.56h-3.2022v13.547c0 2.3092 0.2534 2.7559 2.8162 2.9535v0.6793h-8.7867v-0.6793c2.4504-0.19757 2.7038-0.61601 2.7038-2.9535v-13.547h-3.2104c-1.1796 0.20624-2.6405 1.7455-2.9783 3.0977l0.2482-4.2245h15.14l0.24819 4.2245c-0.00019 0.00018-1.1481-3.0977-2.9786-3.0977z"/>
   <path d="m381.62 146.59c-0.16901 1.1546-0.73936 3.3092-0.99277 4.154h-11.665c0.86271 0 1.069-2.3894 1.0168-3.6611v-12.158c0-2.4782-2.3377-2.4871-2.3377-2.4871h12.49l0.24819 4.3091c-0.2534-1.0705-0.99376-1.8872-1.4442-2.4224-0.45071-0.5634-1.2109-0.7602-2.9572-0.7602h-1.6614c-0.98606 0-1.0704 0.0566-1.0704 0.95727v6.1681h2.914c3.1389-0.0807 2.9406-1.5458 2.9406-1.5458l-0.45866 4.2193c-0.28319-1.5289-2.9783-1.3782-2.9783-1.3782h-2.4176v5.0127c0 1.3521 0.14048 2.028 0.67583 2.3099 0.5351 0.28171 1.5209 0.30974 2.7038 0.30974 1.7182 0 3.1061-0.19755 3.7539-0.92972 0.53486-0.59119 1.2407-2.0977 1.2407-2.0977z"/>
   <path d="m408.26 146.59-0.99277 4.154h-11.169s0.80439-0.23752 0.8719-1.4239v-14.395c0-2.3941-2.4499-2.4871-2.4499-2.4871l5.7171-0.00019v14.73c0 1.3802 0.11219 1.9153 0.67608 2.1685 0.50656 0.22511 4.5568 0.41994 5.361-0.26383 0.20128-0.17175 1.7426-1.9399 1.9853-2.4819z"/>
   <path d="m394.9 146.59-0.99277 4.154h-11.169s0.80439-0.23752 0.8719-1.4239v-14.395c0-2.3941-2.4499-2.4871-2.4499-2.4871l5.7174-0.00019v14.73c0 1.3802 0.11218 1.9153 0.67583 2.1685 0.50681 0.22511 4.5568 0.41994 5.361-0.26383 0.20153-0.17175 1.7428-1.9399 1.9853-2.4819z"/>
   <path d="m421.63 150.74s-0.62048 0-1.7304-2.6472c-0.37874-0.90367-0.7885-2.2531-1.2956-3.6047h-5.6044c-0.36608 1.0139-0.80687 2.0992-1.0982 3.2387-0.58747 2.297 1.7177 3.0136 1.7177 3.0136h-4.6472s5.9566-15.547 6.2048-16.912c0.24818-1.365-0.99277-1.8163-0.99277-1.8163h3.4064c1.7741 4.9006 3.1436 8.892 4.9743 13.736 0.92948 2.4782 1.4427 4.2339 3.0361 4.9924h-3.9708zm-5.7295-14.11h-0.0564c-0.84484 2.1687-1.6053 4.3655-2.3938 6.4778h4.703z"/>
  </g>
  <g fill="#187cc0">
   <path d="m333.1 119.68q-0.0495-0.24742-0.099-0.49485-0.033-0.26392-0.21443-0.47835-0.16495-0.21442-0.51134-0.34638-0.3299-0.13197-0.9732-0.13197-0.62681 0-1.0227 0.23094-0.39587 0.21443-0.6268 0.57731-0.21443 0.36289-0.2969 0.84124-0.0825 0.47835-0.0825 0.98969 0 0.74227 0.0825 1.3196 0.099 0.56082 0.3134 0.9567 0.23092 0.37938 0.5938 0.57731 0.3794 0.18145 0.94022 0.18145 0.70928 0 1.0722-0.14845 0.37938-0.14845 0.54433-0.37938 0.16495-0.24742 0.19793-0.56082 0.033-0.32991 0.0825-0.6763h2.2598q0 0.51135-0.16495 1.1216-0.16495 0.59382-0.61031 1.1216-0.44536 0.51134-1.2536 0.85774-0.79174 0.34639-2.0618 0.34639-2.0619 0-3.167-1.1381-1.0887-1.1382-1.0887-3.4474 0-0.9732 0.23093-1.7979 0.23092-0.82475 0.74226-1.4351 0.52784-0.61031 1.3691-0.94021 0.85773-0.34639 2.0948-0.34639 1.0722 0 1.798 0.26392 0.74226 0.26392 1.1876 0.70928 0.46185 0.44536 0.65979 1.0227 0.19794 0.57731 0.19794 1.2041z"/>
   <path d="m342.93 120.82q0-1.3361-0.42886-1.9629-0.41238-0.64329-1.4845-0.64329-0.57733 0-0.98969 0.13196-0.41238 0.11547-0.6763 0.42887-0.26391 0.2969-0.39587 0.84124-0.11547 0.54432-0.11547 1.3856 0 1.534 0.42886 2.2103 0.42887 0.65979 1.501 0.65979 0.69279 0 1.1217-0.19793 0.42886-0.19794 0.65979-0.57733 0.23093-0.39587 0.29691-0.9567 0.0825-0.57731 0.0825-1.3196zm-2.0784 4.767q-2.1278 0-3.2165-1.0722t-1.0887-3.4144q0-1.3526 0.3299-2.2433 0.32991-0.89072 0.92372-1.4186 0.59382-0.52784 1.3856-0.74227 0.80825-0.21444 1.7485-0.21444 2.1773 0 3.233 1.0887t1.0557 3.4474q0 1.0227-0.23093 1.8639-0.21444 0.84123-0.72577 1.4516-0.51134 0.59382-1.3526 0.92371-0.82475 0.3299-2.0619 0.3299z"/>
   <path d="m346.81 116.71h2.0454v1.6165q0.11547-0.3299 0.24742-0.6598 0.13196-0.3299 0.36289-0.59382 0.24742-0.26392 0.6433-0.42887t1.0392-0.16495q0.28041 0 0.56082 0.033 0.28042 0.0165 0.56083 0.0495v1.8969h-1.4021q-0.39588 0-0.74227 0.11546-0.34639 0.11547-0.59382 0.41238-0.28041 0.36288-0.36289 0.87423-0.066 0.51134-0.066 0.82474v4.668h-2.2928z"/>
   <path d="m356.52 125.59q-0.95671 0-1.6165-0.18144-0.65979-0.18145-1.1052-0.46186-0.42887-0.28041-0.67629-0.6433-0.24743-0.36288-0.37939-0.72578-0.11546-0.37937-0.14845-0.70927-0.033-0.34639-0.033-0.57733h2.1608q0.0165 0.3134 0.0495 0.61031 0.033 0.28042 0.19794 0.49485 0.16495 0.21444 0.52783 0.34639 0.36289 0.11547 1.0557 0.11547 0.32989 0 0.6268-0.0165 0.31341-0.0165 0.54433-0.11546 0.23093-0.099 0.36289-0.31341 0.14846-0.21443 0.14846-0.6103 0-0.29691-0.13196-0.44536-0.13196-0.16495-0.41238-0.24743-0.28041-0.099-0.72577-0.16495-0.44536-0.0825-1.0722-0.23093-0.80825-0.16495-1.3856-0.37938-0.57732-0.21443-0.9567-0.51134-0.36289-0.29691-0.54433-0.70928-0.16495-0.41238-0.16495-0.98969 0-0.77526 0.28041-1.2866 0.29691-0.51134 0.79176-0.80825 0.49484-0.2969 1.1546-0.41236 0.6598-0.13196 1.3856-0.13196 0.92371 0 1.5505 0.18144 0.6268 0.16495 1.0392 0.44536 0.41238 0.28042 0.62681 0.62681 0.21443 0.32989 0.3134 0.65979 0.11547 0.3134 0.13196 0.59382 0.0165 0.28041 0.033 0.42887h-2.1608q-0.033-0.29691-0.0825-0.52784t-0.21444-0.37938q-0.16495-0.16495-0.46186-0.24743-0.2969-0.0825-0.80824-0.0825-0.24743 0-0.49485 0.033-0.24743 0.0165-0.44536 0.11546-0.18144 0.0825-0.3134 0.24742-0.11547 0.14846-0.11547 0.39588 0 0.26391 0.11547 0.41237 0.11546 0.14845 0.39587 0.26392 0.29691 0.099 0.79176 0.19794 0.51134 0.099 1.2866 0.26392 0.69278 0.14845 1.2206 0.37938 0.54433 0.21443 0.90722 0.54433 0.36288 0.3134 0.54433 0.75877 0.18144 0.42886 0.18144 1.0392 0 1.4351-1.0227 2.0948-1.0062 0.65979-2.9526 0.65979z"/>
   <path d="m367.67 120.16q0-0.37937-0.066-0.72577-0.0495-0.34639-0.23093-0.61031-0.16495-0.28042-0.49485-0.42887-0.3299-0.16495-0.89072-0.16495-0.69279 0-1.0887 0.18144-0.39587 0.18144-0.61031 0.46186-0.19793 0.28042-0.26392 0.62681-0.066 0.3299-0.11546 0.65979zm-3.8103 1.6q0 1.0392 0.44536 1.567 0.44537 0.52783 1.666 0.52783 0.52783 0 0.82474-0.0825 0.3134-0.099 0.47835-0.24743 0.16496-0.14845 0.23093-0.32989 0.0825-0.19794 0.13196-0.39588h2.2433q-0.066 0.39588-0.23092 0.89072-0.16495 0.47835-0.59382 0.90722-0.42887 0.41237-1.2041 0.70928-0.77526 0.28041-2.0618 0.28041-2.2103 0-3.2165-1.1216-0.98969-1.1381-0.98969-3.398 0-1.0392 0.21443-1.8804 0.23093-0.84123 0.72578-1.435 0.51134-0.61031 1.3361-0.94021 0.82475-0.3299 2.0289-0.3299 1.435 0 2.2763 0.47835 0.84124 0.47836 1.2701 1.2371 0.42887 0.74227 0.52784 1.6825 0.11547 0.94021 0.066 1.8804z"/>
  </g>
 </g>
</svg>
