<svg xmlns="http://www.w3.org/2000/svg" height="376.16" width="600" version="1.1" xmlns:xlink="http://www.w3.org/1999/xlink" viewBox="0 0 158.75002 99.525719">
 <defs>
  <linearGradient id="b" y2="568.01" gradientUnits="userSpaceOnUse" x2="1551.5" gradientTransform="matrix(.12190 0 0 -.12190 -126.59 268.77)" y1="1360" x1="1482.2">
   <stop stop-color="#649dcb" offset="0"/>
   <stop stop-color="#619bca" offset=".0067"/>
   <stop stop-color="#4c8fc7" offset=".0557"/>
   <stop stop-color="#3f88c6" offset=".1039"/>
   <stop stop-color="#3b86c5" offset="0.15"/>
   <stop stop-color="#488cc6" offset=".29660"/>
   <stop stop-color="#6199c9" offset=".5"/>
   <stop stop-color="#5193c7" offset=".63810"/>
   <stop stop-color="#2882c2" offset=".90610"/>
   <stop stop-color="#187cc0" offset="1"/>
  </linearGradient>
  <linearGradient id="a" y2="739.92" gradientUnits="userSpaceOnUse" x2="1577.6" gradientTransform="matrix(.12190 0 0 -.12190 -126.59 268.77)" y1="1228.6" x1="1577.6">
   <stop stop-color="#fff" offset=".5"/>
   <stop stop-color="#bfbfbf" offset="1"/>
  </linearGradient>
 </defs>
 <g transform="translate(-26.458 -99.07)">
  <g stroke-width=".12190">
   <path d="m26.458 183.39c0 1.3409 1.0732 2.666 2.3848 2.9448l57.461 12.214c1.3118 0.27878 2.3848-0.59027 2.3848-1.9312v-95.559c0-1.3409-1.0732-2.21-2.3848-1.9312l-57.461 12.221c-1.3115 0.27879-2.3848 1.604-2.3848 2.9449z" fill="#187cc0"/>
   <path d="m27.129 182.55c0 1.3409 1.0732 2.666 2.3848 2.9448l56.06 11.916c1.3117 0.2788 2.3848-0.59024 2.3848-1.9312v-93.297c0-1.3409-1.0732-2.21-2.3848-1.9312l-56.06 11.916c-1.3115 0.27879-2.3848 1.604-2.3848 2.9449z" fill="url(#b)"/>
   <path d="m27.002 113.78s54.836-6.5285 61.687 8.2919l0.001 29.821s-0.41214 17.987-8.8342 20.687l-27.631 5.8639s-23.953 8.0179-25.505-42.949c-0.72288-16.585 0.28172-21.715 0.28172-21.715z" fill="#187cc0"/>
   <path d="m88.686 153.19c-1.8472-6.5014-7.1565-9.9833-14.562-10.811 0.0065 0 7.6963-5.6664 14.565-11.236v-12.14h-44.161l-0.0018 13.53h24.89c-0.05067 0.04-15.591 12.058-15.591 12.058l5.8217 8.7042s3.4991-1.8026 6.6537-1.8026c5.5892 0 7.7893 2.342 7.7893 7.6199 0 5.7217-2.6243 8.2497-7.9008 8.2497-6.3914 0-7.7009-4.5688-7.7009-7.847h-15.716c-0.29525 11.122 6.5029 19.062 22.648 19.062 12.496 0 20.857-4.3579 23.265-13.736v-11.643z" fill="url(#a)"/>
  </g>
  <g fill="#187cc0">
   <path d="m114.62 136.11q0-1.703-0.50214-2.5108-0.50216-0.8078-1.7466-0.8078t-1.9431 0.8078q-0.69864 0.80781-0.69864 2.7946 0 0.82965 0.13099 1.5501 0.13099 0.69865 0.43665 1.2226 0.30565 0.50215 0.80781 0.78598 0.50214 0.28382 1.2663 0.28382 0.85148 0 1.2881-0.30566 0.45849-0.32748 0.6768-0.8733 0.21833-0.54582 0.24016-1.2881 0.0437-0.76415 0.0437-1.6593zm-7.8161-5.349h2.9256v1.3536q0.15283-0.262 0.39299-0.54582 0.26198-0.28383 0.63313-0.52399 0.37117-0.26199 0.91697-0.41481 0.54582-0.17466 1.3318-0.17466 1.2663 0 2.1614 0.48031 0.89512 0.45848 1.4628 1.2881 0.56765 0.82963 0.80781 1.9649 0.262 1.1135 0.262 2.4234 0 1.2226-0.24015 2.3142-0.21834 1.0698-0.76415 1.8776-0.54582 0.78596-1.4628 1.2444-0.91697 0.45848-2.3143 0.45848-1.31 0-2.0304-0.39298-0.72048-0.41483-1.048-0.91698v4.7813h-3.0347z"/>
   <path d="m123.8 140.3q1.3754 0 1.9649-0.67681 0.61131-0.67681 0.58948-1.7903v-1.179q-0.17466 0.10917-0.34931 0.17467-0.52399 0.26198-1.2008 0.32748-0.65498 0.0655-1.2445 0.1965-0.56765 0.131-0.96064 0.48032-0.39299 0.32748-0.39299 1.1135 0 0.43665 0.15283 0.72047 0.15284 0.26199 0.39299 0.41483 0.24016 0.13098 0.50214 0.17466 0.28382 0.0436 0.54583 0.0436zm-4.17-5.9385v-0.50215q0.0219-0.72047 0.28382-1.3318 0.26201-0.63315 0.82966-1.0916 0.58947-0.45849 1.5501-0.72047 0.96063-0.26199 2.4016-0.26199 2.3361 0 3.4496 0.85148 1.1353 0.85146 1.1353 2.9474v4.8687q0 0.37115 0.0437 0.52398 0.0437 0.13099 0.10916 0.17466 0.0655 0.0437 0.21832 0.10916 0.17466 0.0655 0.45848 0.0437v2.23h-1.5064q-0.41482 0-0.7423-0.0655-0.32751-0.0873-0.63315-0.34933-0.24016-0.21831-0.37115-0.48032-0.13101-0.28383-0.24016-0.48032-0.30567 0.52399-0.63315 0.87331-0.32748 0.32749-0.74231 0.50215-0.39298 0.17466-0.8733 0.24015-0.48032 0.0655-1.048 0.0655-2.2051 0-3.1876-0.98247-0.96063-0.98247-0.96063-2.7291 0-1.2445 0.45847-1.8776 0.4585-0.63315 1.1135-0.96063 0.5458-0.24016 1.3536-0.34933 0.8078-0.10916 1.6156-0.17466 0.80781-0.0655 1.4628-0.13098 0.65497-0.0655 0.89514-0.24017 0.13099-0.10916 0.19649-0.41482 0.0873-0.30566 0.0873-0.69864 0-0.61132-0.37117-0.98247-0.37114-0.37116-1.4409-0.37116-0.80782 0-1.2226 0.15283-0.41481 0.131-0.61131 0.39299-0.1965 0.24016-0.24015 0.56764-0.0437 0.30566-0.0655 0.65498z"/>
   <path d="m130.39 130.76h3.1876l2.7291 7.8161 2.4671-7.8161h3.2094l-4.2792 11.091q-0.30565 0.78597-0.54582 1.3536-0.24016 0.56765-0.45848 0.96064-0.21833 0.41482-0.43665 0.69864-0.21833 0.28383-0.4585 0.48032-0.26197 0.24016-0.58947 0.34932-0.30566 0.13099-0.61131 0.19649-0.28382 0.0655-0.54581 0.0655-0.24017 0.0218-0.37116 0.0218h-2.2269v-2.5326h1.3973q0.50215 0 0.67681-0.0219 0.19649-0.0219 0.32748-0.10917 0.10918-0.0655 0.21832-0.30565 0.13101-0.21833 0.24018-0.48032l0.45848-1.1135z"/>
   <path d="m147.28 142.51q-1.2663 0-2.1396-0.24016-0.87331-0.24015-1.4628-0.6113-0.56765-0.37117-0.89514-0.85147-0.32748-0.48033-0.50214-0.96064-0.15283-0.50215-0.19649-0.93881-0.0437-0.45849-0.0437-0.76414h2.8601q0.0219 0.41483 0.0655 0.80781 0.0437 0.37116 0.26198 0.65498 0.21832 0.28382 0.69865 0.45848 0.48031 0.15282 1.3973 0.15282 0.43665 0 0.82963-0.0219 0.41482-0.0219 0.72048-0.15283 0.30566-0.13099 0.48032-0.41482 0.19649-0.28382 0.19649-0.80781 0-0.39298-0.17466-0.58947-0.17466-0.21833-0.54582-0.3275-0.37116-0.13099-0.96063-0.21832-0.58947-0.10916-1.4191-0.30565-1.0698-0.21833-1.8339-0.50215-0.76413-0.28383-1.2663-0.67682-0.48032-0.39298-0.72048-0.93881-0.21832-0.54581-0.21832-1.3099 0-1.0261 0.37115-1.703 0.39299-0.6768 1.048-1.0698 0.65498-0.39299 1.5283-0.54581 0.8733-0.17466 1.8339-0.17466 1.2226 0 2.0523 0.24016 0.82962 0.21832 1.3754 0.58947 0.54582 0.37116 0.82964 0.82965 0.28381 0.43665 0.41482 0.8733 0.15283 0.41482 0.17466 0.78596 0.0219 0.37117 0.0437 0.56766h-2.8601q-0.0436-0.39298-0.10916-0.69864-0.0655-0.30566-0.28382-0.50215-0.21833-0.21833-0.61132-0.32749-0.39298-0.10917-1.0698-0.10917-0.32749 0-0.65497 0.0437-0.32749 0.0219-0.58949 0.15282-0.24016 0.10917-0.41481 0.3275-0.15284 0.19649-0.15284 0.52398 0 0.34932 0.15284 0.54582 0.15283 0.19649 0.52398 0.34932 0.39299 0.13099 1.048 0.26199 0.67681 0.131 1.7029 0.34932 0.91698 0.1965 1.6156 0.50215 0.72048 0.28382 1.2008 0.72046 0.48031 0.41483 0.72047 1.0043 0.24017 0.56764 0.24017 1.3754 0 1.8994-1.3536 2.7727-1.3318 0.87332-3.908 0.87332z"/>
   <path d="m168.87 136.5q0-1.9868-0.61131-2.8601-0.58948-0.89516-1.9649-0.89516-0.69864 0-1.1571 0.17467-0.43665 0.17465-0.69864 0.58948-0.262 0.41483-0.37115 1.0698-0.10917 0.65497-0.10917 1.6374 0 0.89513 0.0873 1.6374 0.0873 0.72047 0.32749 1.2445 0.26199 0.50215 0.69864 0.78597 0.45847 0.26199 1.179 0.26199 0.9388 0 1.4628-0.34931 0.54581-0.34933 0.78597-0.89515 0.26199-0.54582 0.30565-1.179 0.0655-0.65497 0.0655-1.2226zm-3.1876-6.0476q0.74231 0 1.2445 0.131 0.50214 0.10915 0.85147 0.30564 0.34933 0.1965 0.56765 0.43665 0.24016 0.24017 0.43665 0.45849v-5.3708h3.0347v15.785h-2.8819v-1.3973q-0.15283 0.24015-0.37116 0.5458-0.21832 0.28382-0.58947 0.54583-0.34932 0.26198-0.89516 0.43665-0.5458 0.17465-1.3318 0.17465-2.4234 0-3.6242-1.6374t-1.2008-4.4757q0-1.3318 0.24018-2.4234 0.26198-1.1135 0.82963-1.8776 0.56764-0.78596 1.4628-1.2008 0.91698-0.43664 2.2269-0.43664z"/>
   <path d="m182.07 135.32q0-0.50215-0.0873-0.96063-0.0655-0.45849-0.30566-0.80781-0.21832-0.37115-0.65498-0.56764-0.43665-0.21833-1.179-0.21833-0.91697 0-1.441 0.24016-0.52397 0.24015-0.8078 0.61131-0.262 0.37116-0.34933 0.82964-0.0873 0.43665-0.15282 0.8733zm-5.0433 2.1178q0 1.3755 0.58948 2.0741 0.58948 0.69864 2.2051 0.69864 0.69866 0 1.0916-0.10915 0.41483-0.131 0.63316-0.3275 0.21833-0.19649 0.30566-0.43664 0.10916-0.26199 0.17465-0.52399h2.9692q-0.0873 0.52399-0.30567 1.179-0.21832 0.63315-0.78597 1.2008-0.56765 0.54582-1.5938 0.9388-1.0261 0.37116-2.7291 0.37116-2.9256 0-4.2574-1.4846-1.31-1.5064-1.31-4.4975 0-1.3754 0.28383-2.4889 0.30565-1.1135 0.96063-1.8994 0.67681-0.80781 1.7684-1.2445 1.0916-0.43664 2.6854-0.43664 1.8994 0 3.0129 0.63314 1.1135 0.63315 1.6811 1.6374 0.56764 0.98246 0.69864 2.2269 0.15282 1.2445 0.0873 2.4889z"/>
   <path d="m106.74 154.02h3.0347v15.785h-3.0347z"/>
   <path d="m116.51 167.9q1.3754 0 1.9649-0.67683 0.61131-0.67681 0.58946-1.7903v-1.179q-0.17465 0.10917-0.34931 0.17466-0.52398 0.26199-1.2008 0.3275-0.65498 0.0655-1.2445 0.19648-0.56764 0.131-0.96064 0.48032-0.39299 0.3275-0.39299 1.1135 0 0.43666 0.15283 0.72048 0.15283 0.26199 0.39299 0.41482 0.24017 0.13099 0.50214 0.17466 0.28383 0.0437 0.54583 0.0437zm-4.17-5.9385v-0.50214q0.0219-0.72047 0.28383-1.3318 0.26199-0.63316 0.82964-1.0916 0.58949-0.45849 1.5501-0.72048t2.4016-0.26199q2.3361 0 3.4496 0.85147 1.1353 0.85147 1.1353 2.9474v4.8687q0 0.37117 0.0437 0.524 0.0436 0.13099 0.10916 0.17466 0.0655 0.0437 0.21832 0.10915 0.17466 0.0655 0.45849 0.0437v2.2269h-1.5064q-0.41481 0-0.74232-0.0655-0.32748-0.0873-0.63313-0.34931-0.24015-0.21833-0.37116-0.48032-0.131-0.28382-0.24015-0.48031-0.30567 0.52397-0.63315 0.8733-0.32749 0.32749-0.74232 0.50214-0.39297 0.17467-0.8733 0.24016-0.48031 0.0655-1.048 0.0655-2.2051 0-3.1876-0.98246-0.96062-0.98248-0.96062-2.7291 0-1.2444 0.45847-1.8776 0.45849-0.63314 1.1135-0.96062 0.54581-0.24018 1.3536-0.34933 0.80781-0.10917 1.6156-0.17467 0.8078-0.0655 1.4628-0.13099 0.65498-0.0655 0.89514-0.24016 0.13099-0.10915 0.1965-0.41482 0.0873-0.30565 0.0873-0.69864 0-0.6113-0.37117-0.98247-0.37115-0.37116-1.4409-0.37116-0.80781 0-1.2226 0.15284-0.41481 0.13099-0.61131 0.39298-0.19649 0.24017-0.24016 0.56766-0.0436 0.30564-0.0655 0.65496z"/>
   <path d="m132.14 154.02h3.0347v15.785h-3.0347z"/>
   <path d="m145.73 163.8q0-1.7684-0.56764-2.5981-0.54582-0.85147-1.965-0.85147-0.76414 0-1.3099 0.17467-0.54582 0.15283-0.89515 0.56766-0.34932 0.39297-0.52398 1.1134-0.15282 0.72048-0.15282 1.834 0 2.0304 0.56765 2.9256 0.56764 0.87331 1.9868 0.87331 0.91697 0 1.4846-0.26199 0.56764-0.262 0.87331-0.76414 0.30565-0.52397 0.39298-1.2663 0.10916-0.76414 0.10916-1.7466zm-2.7509 6.3096q-2.8164 0-4.2574-1.4191t-1.441-4.5194q0-1.7903 0.43666-2.9692 0.43665-1.179 1.2226-1.8776 0.78598-0.69866 1.834-0.98248 1.0698-0.28382 2.3143-0.28382 2.8819 0 4.2792 1.441t1.3973 4.563q0 1.3536-0.30566 2.4671-0.28383 1.1135-0.96064 1.9213-0.67682 0.78598-1.7903 1.2226-1.0916 0.43664-2.7291 0.43664z"/>
   <path d="m150.74 158.36h3.0347v11.44h-3.0347zm0-4.3447h3.0347v2.8601h-3.0347z"/>
   <path d="m156.24 158.36h2.7072v2.1396q0.15281-0.43665 0.32748-0.87331 0.17467-0.43665 0.48032-0.78596 0.32749-0.34933 0.85147-0.56766 0.52399-0.21832 1.3755-0.21832 0.37115 0 0.7423 0.0437 0.37116 0.0219 0.74231 0.0655v2.5108h-1.8558q-0.52398 0-0.98247 0.15284-0.45848 0.15282-0.78597 0.5458-0.37117 0.48032-0.48031 1.1571-0.0873 0.67682-0.0873 1.0916v6.1786h-3.0347z"/>
   <path d="m172 162.92q0-0.50214-0.0873-0.96064-0.0655-0.45847-0.30566-0.8078-0.21833-0.37115-0.65498-0.56765-0.43666-0.21831-1.179-0.21831-0.91696 0-1.441 0.24014-0.52398 0.24016-0.80781 0.61133-0.26198 0.37115-0.34932 0.82962-0.0873 0.43666-0.15282 0.87331zm-5.0433 2.1178q0 1.3754 0.58947 2.0741 0.58948 0.69864 2.2051 0.69864 0.69866 0 1.0916-0.10915 0.41482-0.131 0.63313-0.32749 0.21834-0.1965 0.30567-0.43666 0.10916-0.26199 0.17465-0.52398h2.9692q-0.0873 0.52398-0.30566 1.179-0.21832 0.63314-0.78597 1.2008-0.56764 0.54582-1.5938 0.9388-1.0261 0.37116-2.7291 0.37116-2.9256 0-4.2574-1.4846-1.31-1.5065-1.31-4.4975 0-1.3754 0.28382-2.4889 0.30567-1.1135 0.96064-1.8994 0.67681-0.80781 1.7684-1.2445 1.0916-0.43665 2.6854-0.43665 1.8994 0 3.0129 0.63315t1.6811 1.6374q0.56764 0.98246 0.69865 2.2269 0.15283 1.2445 0.0873 2.4889z"/>
  </g>
 </g>
</svg>
