<svg xmlns="http://www.w3.org/2000/svg" height="380.97" width="600" version="1.1" xmlns:xlink="http://www.w3.org/1999/xlink" viewBox="0 0 158.75 100.79822">
 <defs>
  <linearGradient id="b" y2="568.01" gradientUnits="userSpaceOnUse" x2="1551.5" gradientTransform="matrix(.12346 0 0 -.12346 -128.55 270.3)" y1="1360" x1="1482.2">
   <stop stop-color="#649dcb" offset="0"/>
   <stop stop-color="#619bca" offset=".0067"/>
   <stop stop-color="#4c8fc7" offset=".0557"/>
   <stop stop-color="#3f88c6" offset=".1039"/>
   <stop stop-color="#3b86c5" offset="0.15"/>
   <stop stop-color="#488cc6" offset=".29660"/>
   <stop stop-color="#6199c9" offset=".5"/>
   <stop stop-color="#5193c7" offset=".63810"/>
   <stop stop-color="#2882c2" offset=".90610"/>
   <stop stop-color="#187cc0" offset="1"/>
  </linearGradient>
  <linearGradient id="a" y2="739.92" gradientUnits="userSpaceOnUse" x2="1577.6" gradientTransform="matrix(.12346 0 0 -.12346 -128.55 270.3)" y1="1228.6" x1="1577.6">
   <stop stop-color="#fff" offset=".5"/>
   <stop stop-color="#bfbfbf" offset="1"/>
  </linearGradient>
 </defs>
 <g transform="translate(-26.458 -98.434)">
  <g stroke-width=".12346">
   <path d="m26.458 183.83c0 1.3581 1.0869 2.7001 2.4153 2.9824l58.196 12.37c1.3286 0.28235 2.4153-0.5978 2.4153-1.9559v-96.781c0-1.3581-1.087-2.2382-2.4153-1.9559l-58.195 12.376c-1.3283 0.28235-2.4153 1.6245-2.4153 2.9826z" fill="#187cc0"/>
   <path d="m27.138 182.98c0 1.3581 1.0869 2.7001 2.4153 2.9824l56.777 12.068c1.3284 0.28237 2.4153-0.59779 2.4153-1.9558v-94.49c0-1.3581-1.0869-2.2382-2.4153-1.9559l-56.777 12.076c-1.3283 0.28235-2.4153 1.6245-2.4153 2.9826z" fill="url(#b)"/>
   <path d="m27.009 113.34s55.537-6.612 62.475 8.3979l0.001 30.203s-0.41741 18.217-8.9472 20.951l-27.984 5.9388s-24.259 8.1204-25.831-43.498c-0.73212-16.797 0.28532-21.992 0.28532-21.992z" fill="#187cc0"/>
   <path d="m89.482 153.25c-1.8708-6.5845-7.248-10.111-14.748-10.949 0.0065 0 7.7947-5.7388 14.752-11.38v-12.3h-44.727l-0.0019 13.703h25.209c-0.05141 0.0405-15.791 12.213-15.791 12.213l5.8961 8.8155s3.5438-1.8256 6.7387-1.8256c5.6607 0 7.8889 2.3719 7.8889 7.7173 0 5.7949-2.6579 8.3552-8.0019 8.3552-6.4732 0-7.7994-4.6272-7.7994-7.9473h-15.918c-0.29903 11.264 6.586 19.305 22.938 19.305 12.656 0 21.124-4.4136 23.563-13.912v-11.792z" fill="url(#a)"/>
  </g>
  <g fill="#187cc0">
   <path d="m106.79 130.53h1.5257v-1.6142q0-0.68547 0.1769-1.2161 0.19901-0.53069 0.70758-0.95081 0.50857-0.39801 1.2161-0.50856 0.70757-0.11057 1.2825-0.11057h1.6142v2.3438h-0.86237q-0.28745 0-0.55279 0.0442-0.24323 0.0222-0.35379 0.15479-0.0884 0.11056-0.13267 0.24323-0.0221 0.13267-0.0221 0.3759v1.2383h1.9237v1.9901h-1.9237v9.5965h-3.0735v-9.5965h-1.5257z"/>
   <path d="m114.78 130.53h2.7419v2.167q0.15478-0.44223 0.33168-0.88447 0.17689-0.44223 0.48645-0.79602 0.33168-0.35379 0.86236-0.57491t1.393-0.22112q0.3759 0 0.75181 0.0442 0.37589 0.0222 0.75179 0.0664v2.5429h-1.8795q-0.53069 0-0.99504 0.15478-0.46434 0.15479-0.79602 0.55279-0.3759 0.48646-0.48646 1.1719-0.0884 0.68546-0.0884 1.1056v6.2576h-3.0735z"/>
   <path d="m127.2 140.19q1.393 0 1.9901-0.68546 0.61913-0.68546 0.59702-1.8132v-1.194q-0.17689 0.11055-0.35379 0.1769-0.53069 0.26533-1.2162 0.33167-0.66335 0.0664-1.2604 0.199-0.5749 0.13267-0.97292 0.48647-0.39801 0.33167-0.39801 1.1277 0 0.44224 0.15478 0.72969 0.15479 0.26534 0.39801 0.42013 0.24324 0.13266 0.50858 0.17688 0.28745 0.0442 0.55279 0.0442zm-4.2234-6.0144v-0.50857q0.0222-0.72969 0.28746-1.3488 0.26534-0.64124 0.84024-1.1056 0.59703-0.46434 1.5699-0.72969 0.97292-0.26534 2.4323-0.26534 2.366 0 3.4937 0.86238 1.1498 0.86235 1.1498 2.9851v4.9309q0 0.3759 0.0442 0.53069 0.0442 0.13267 0.11056 0.17689 0.0664 0.0442 0.22112 0.11056 0.17689 0.0664 0.46435 0.0442v2.2554h-1.5257q-0.42012 0-0.7518-0.0664-0.33168-0.0884-0.64124-0.3538-0.24323-0.22112-0.3759-0.48646-0.13267-0.28745-0.24323-0.48646-0.30957 0.53069-0.64125 0.88448-0.33167 0.33167-0.75179 0.50857-0.39801 0.17688-0.88448 0.24322-0.48645 0.0664-1.0614 0.0664-2.2333 0-3.2283-0.99504-0.97291-0.99503-0.97291-2.764 0-1.2604 0.46434-1.9016 0.46435-0.64124 1.1277-0.97292 0.5528-0.24323 1.3709-0.35379 0.81814-0.11055 1.6363-0.17689 0.81814-0.0664 1.4815-0.13268 0.66336-0.0664 0.90659-0.24322 0.13266-0.11056 0.199-0.42013 0.0884-0.30956 0.0884-0.70757 0-0.61912-0.37591-0.99503-0.37589-0.3759-1.4594-0.3759-0.81813 0-1.2383 0.15478-0.42012 0.13267-0.61913 0.39801-0.199 0.24323-0.24322 0.57491-0.0442 0.30956-0.0664 0.66335z"/>
   <path d="m135.93 130.53h2.963v1.5699q0.0884-0.26535 0.199-0.59703 0.13267-0.33167 0.44223-0.59701 0.33167-0.28745 0.90658-0.48646t1.5478-0.19901q0.99503 0 1.7689 0.19901 0.77392 0.17689 1.2825 0.61913 0.50857 0.42013 0.77391 1.1277t0.26534 1.7468v8.2035h-3.0735v-7.6728q0-0.86235-0.42013-1.3267-0.42011-0.48647-1.6142-0.48647-0.97292 0-1.4815 0.42013-0.48646 0.39801-0.48646 1.592v7.4738h-3.0735z"/>
   <path d="m156.36 134.51q-0.0664-0.33167-0.13266-0.66335-0.0442-0.35379-0.28745-0.64124-0.22112-0.28744-0.68547-0.46435-0.44223-0.17689-1.3046-0.17689-0.84025 0-1.3709 0.30956-0.53067 0.28746-0.84024 0.77391-0.28745 0.48647-0.39801 1.1277-0.11056 0.64125-0.11056 1.3267 0 0.99503 0.11056 1.7689 0.13267 0.7518 0.42012 1.2825 0.30957 0.50857 0.79602 0.77391 0.50857 0.24323 1.2604 0.24323 0.95081 0 1.4373-0.199 0.50857-0.19901 0.72969-0.50858 0.22111-0.33168 0.26534-0.7518 0.0442-0.44224 0.11055-0.90658h3.0293q0 0.68546-0.22111 1.5036-0.22112 0.79602-0.81814 1.5036-0.59702 0.68547-1.6805 1.1498-1.0614 0.46435-2.764 0.46435-2.764 0-4.2454-1.5257-1.4594-1.5257-1.4594-4.6214 0-1.3046 0.30957-2.4102 0.30956-1.1056 0.99502-1.9237 0.70758-0.81813 1.8353-1.2604 1.1498-0.46436 2.8082-0.46436 1.4373 0 2.4102 0.35379 0.99502 0.3538 1.592 0.95081 0.61913 0.59701 0.88447 1.3709 0.26534 0.77391 0.26534 1.6142z"/>
   <path d="m161.53 142.12v-15.987h3.0735v5.7712q0.17689-0.46435 0.39801-0.77391 0.22112-0.33169 0.5749-0.5307 0.37591-0.19899 0.9287-0.28744 0.5749-0.0884 1.4594-0.0884 0.50857 0 1.1498 0.0884 0.66335 0.0664 1.2161 0.46434 0.57491 0.39801 0.9508 1.2162 0.39802 0.81813 0.39802 2.2996v7.8276h-3.0735v-7.6507q0-0.61913-0.15479-0.97292-0.15478-0.37589-0.42012-0.57489-0.26534-0.19902-0.64125-0.24324-0.35378-0.0664-0.7739-0.0664-1.0835 0-1.5478 0.46435-0.46435 0.44224-0.46435 1.6363v7.4074z"/>
   <path d="m182.03 135.15q0-0.50857-0.0884-0.97292-0.0664-0.46435-0.30957-0.81814-0.22112-0.3759-0.66335-0.5749-0.44224-0.22112-1.194-0.22112-0.92869 0-1.4594 0.24323-0.53068 0.24323-0.81813 0.61913-0.26535 0.3759-0.3538 0.84024-0.0884 0.44225-0.15478 0.88448zm-5.1078 2.1448q0 1.393 0.59701 2.1006 0.59702 0.70758 2.2333 0.70758 0.70758 0 1.1056-0.11056 0.42013-0.13267 0.64124-0.33167 0.22112-0.19901 0.30956-0.44224 0.11056-0.26533 0.1769-0.53068h3.0072q-0.0884 0.53068-0.30957 1.194-0.22112 0.64124-0.79602 1.2162-0.5749 0.55279-1.6142 0.9508-1.0393 0.37591-2.764 0.37591-2.963 0-4.3118-1.5036-1.3267-1.5257-1.3267-4.555 0-1.393 0.28746-2.5207 0.30956-1.1277 0.97292-1.9237 0.68546-0.81814 1.791-1.2604 1.1056-0.44224 2.7198-0.44224 1.9237 0 3.0514 0.64125 1.1277 0.64123 1.7026 1.6584 0.5749 0.99503 0.70758 2.2554 0.15478 1.2604 0.0884 2.5208z"/>
   <path d="m115.35 162.46q-0.0664-0.33167-0.13268-0.66335-0.0442-0.35379-0.28745-0.64124-0.22112-0.28746-0.68547-0.46435-0.44223-0.1769-1.3046-0.1769-0.84025 0-1.3709 0.30957-0.53069 0.28746-0.84026 0.77391-0.28744 0.48646-0.398 1.1277-0.11056 0.64125-0.11056 1.3267 0 0.99504 0.11056 1.769 0.13266 0.75179 0.42012 1.2825 0.30957 0.50858 0.79602 0.77391 0.50857 0.24323 1.2604 0.24323 0.95081 0 1.4373-0.199 0.50857-0.19901 0.72969-0.50857 0.22112-0.33167 0.26534-0.75181 0.0442-0.44223 0.11057-0.90658h3.0293q0 0.68547-0.22111 1.5036-0.22112 0.79602-0.81814 1.5036-0.59702 0.68547-1.6805 1.1498-1.0614 0.46434-2.764 0.46434-2.764 0-4.2455-1.5257-1.4594-1.5257-1.4594-4.6214 0-1.3046 0.30957-2.4102 0.30956-1.1056 0.99503-1.9237 0.70758-0.81813 1.8353-1.2604 1.1498-0.46435 2.8082-0.46435 1.4373 0 2.4102 0.3538 0.99502 0.35377 1.592 0.9508 0.61913 0.59702 0.88447 1.3709 0.26533 0.77392 0.26533 1.6142z"/>
   <path d="m128.52 163.99q0-1.7911-0.5749-2.6313-0.5528-0.86235-1.9901-0.86235-0.77391 0-1.3267 0.17689-0.55279 0.15478-0.90658 0.5749-0.35379 0.39801-0.53068 1.1277-0.15478 0.72969-0.15478 1.8574 0 2.0564 0.5749 2.963 0.5749 0.88447 2.0122 0.88447 0.92869 0 1.5036-0.26533 0.57491-0.26535 0.88447-0.77391 0.30956-0.5307 0.39801-1.2825 0.11056-0.77391 0.11056-1.7689zm-2.7861 6.3903q-2.8524 0-4.3118-1.4373t-1.4594-4.5771q0-1.8132 0.44223-3.0072 0.44224-1.194 1.2383-1.9016 0.79603-0.70757 1.8574-0.99502 1.0835-0.28746 2.3438-0.28746 2.9188 0 4.3339 1.4594 1.4152 1.4594 1.4152 4.6214 0 1.3709-0.30956 2.4986-0.28746 1.1277-0.97291 1.9458-0.68547 0.79604-1.8132 1.2383-1.1056 0.44224-2.764 0.44224z"/>
   <path d="m133.66 158.48h2.9188v1.5699q0.1769-0.39801 0.33168-0.72969 0.17689-0.35377 0.48646-0.59702 0.33168-0.26533 0.84025-0.398 0.53068-0.15479 1.4152-0.15479 0.88447 0 1.4373 0.199 0.57491 0.1769 0.90658 0.46435 0.33168 0.28746 0.48646 0.66335 0.17689 0.35379 0.28745 0.70758 0.37591-1.0171 1.0835-1.5257 0.72969-0.50857 2.2554-0.50857 0.7518 0 1.4373 0.22112 0.70757 0.199 1.2383 0.64124 0.55279 0.42012 0.86235 1.0835 0.33167 0.66335 0.33167 1.5699v8.3804h-3.0735v-7.63q0-0.9066-0.46434-1.3488-0.44224-0.44224-1.2162-0.44224-1.8574 0-1.8574 1.8132v7.6064h-3.0735v-7.7612q0-1.7026-1.6805-1.7026-0.66335 0-1.0614 0.2211-0.3759 0.199-0.55279 0.53068t-0.22112 0.70758q-0.0442 0.37591-0.0442 0.70758v7.2969h-3.0735z"/>
   <path d="m151.49 158.48h1.5257v-3.6706h3.0735v3.6706h1.9016v2.0343h-1.9016v5.9923q0 0.44224 0.0222 0.66336 0.0221 0.22111 0.17689 0.3759 0.13267 0.13266 0.30956 0.15478 0.19902 0.0222 0.39802 0.0222h0.99502v2.3439h-1.791q-0.30956 0-0.66335 0-0.35379-0.0222-0.70757-0.0664-0.35379-0.0664-0.66336-0.1769-0.30956-0.13267-0.53068-0.33167-0.22111-0.19901-0.35379-0.48646-0.11056-0.30957-0.17689-0.61913-0.0664-0.33168-0.0884-0.64124 0-0.33168 0-0.59701v-6.6335h-1.5257z"/>
   <path d="m164.25 157.22 1.1498-3.4052h2.6092l-2.2996 3.4052zm3.1399 5.8817q0-0.50857-0.0884-0.97291-0.0664-0.46434-0.30957-0.81814-0.22111-0.37589-0.66335-0.57491-0.44223-0.22112-1.194-0.22112-0.92869 0-1.4594 0.24324-0.53067 0.24323-0.81813 0.61914-0.26535 0.37588-0.35379 0.84023-0.0884 0.44223-0.15478 0.88447zm-5.1078 2.1448q0 1.393 0.59702 2.1006 0.59702 0.70758 2.2333 0.70758 0.70757 0 1.1056-0.11056 0.42013-0.13266 0.64125-0.33167t0.30956-0.44224q0.11056-0.26535 0.17689-0.53068h3.0072q-0.0884 0.53068-0.30957 1.194-0.22112 0.64124-0.79602 1.2162-0.57491 0.55279-1.6142 0.9508-1.0392 0.3759-2.764 0.3759-2.963 0-4.3118-1.5036-1.3267-1.5257-1.3267-4.555 0-1.393 0.28745-2.5208 0.30957-1.1277 0.97292-1.9237 0.68547-0.81814 1.791-1.2604 1.1056-0.44224 2.7198-0.44224 1.9237 0 3.0514 0.64125 1.1277 0.64123 1.7026 1.6584 0.5749 0.99503 0.70757 2.2554 0.15478 1.2604 0.0884 2.5207z"/>
  </g>
 </g>
</svg>
