<svg xmlns="http://www.w3.org/2000/svg" height="431.81" width="600" version="1.1" xmlns:xlink="http://www.w3.org/1999/xlink" viewBox="0 0 158.75 114.25073">
 <defs>
  <linearGradient id="b" y2="568.01" gradientUnits="userSpaceOnUse" x2="1551.5" gradientTransform="matrix(.13994 0 0 -.13994 -149.23 286.52)" y1="1360" x1="1482.2">
   <stop stop-color="#649dcb" offset="0"/>
   <stop stop-color="#619bca" offset=".0067"/>
   <stop stop-color="#4c8fc7" offset=".0557"/>
   <stop stop-color="#3f88c6" offset=".1039"/>
   <stop stop-color="#3b86c5" offset="0.15"/>
   <stop stop-color="#488cc6" offset=".29660"/>
   <stop stop-color="#6199c9" offset=".5"/>
   <stop stop-color="#5193c7" offset=".63810"/>
   <stop stop-color="#2882c2" offset=".90610"/>
   <stop stop-color="#187cc0" offset="1"/>
  </linearGradient>
  <linearGradient id="a" y2="739.92" gradientUnits="userSpaceOnUse" x2="1577.6" gradientTransform="matrix(.13994 0 0 -.13994 -149.23 286.52)" y1="1228.6" x1="1577.6">
   <stop stop-color="#fff" offset=".5"/>
   <stop stop-color="#bfbfbf" offset="1"/>
  </linearGradient>
 </defs>
 <g transform="translate(-26.458 -91.708)">
  <g stroke-width=".13994">
   <path d="m26.458 188.5c0 1.5393 1.232 3.0604 2.7376 3.3805l65.963 14.021c1.5059 0.32004 2.7376-0.67758 2.7376-2.2169v-109.7c0-1.5393-1.232-2.5369-2.7376-2.2169l-65.963 14.021c-1.5056 0.32004-2.7376 1.8413-2.7376 3.3806z" fill="#187cc0"/>
   <path d="m27.228 187.54c0 1.5393 1.232 3.0604 2.7376 3.3805l64.354 13.679c1.5057 0.32004 2.7376-0.67758 2.7376-2.2169v-107.1c0-1.5393-1.232-2.5369-2.7376-2.2169l-64.354 13.687c-1.5056 0.32004-2.7376 1.8413-2.7376 3.3806z" fill="url(#b)"/>
   <path d="m27.082 108.6s62.949-7.4944 70.813 9.5187l0.0012 34.233s-0.47313 20.649-10.141 23.748l-31.719 6.7314s-27.497 9.2041-29.278-49.304c-0.82983-19.039 0.3234-24.928 0.3234-24.928z" fill="#187cc0"/>
   <path d="m97.893 153.84c-2.1205-7.4633-8.2153-11.46-16.716-12.411 0.0074 0 8.835-6.5047 16.72-12.898v-13.95h-50.696l-0.0021 15.532h28.573c-0.05817 0.0459-17.898 13.843-17.898 13.843l6.683 9.992s4.0168-2.0693 7.6381-2.0693c6.4161 0 8.9417 2.6885 8.9417 8.7472 0 6.5683-3.0126 9.4703-9.0698 9.4703-7.3371 0-8.8403-5.2447-8.8403-9.0079h-18.042c-0.33893 12.767 7.465 21.882 25.999 21.882 14.345 0 23.943-5.0026 26.708-15.768v-13.365z" fill="url(#a)"/>
  </g>
  <g fill="#187cc0">
   <path d="m118.54 128.09h3.1078v2.4562q0.17544-0.50126 0.37595-1.0025 0.20049-0.50126 0.55137-0.90227 0.37595-0.401 0.97745-0.65162 0.60151-0.25063 1.579-0.25063 0.42607 0 0.85213 0.0501 0.42607 0.0251 0.85214 0.0752v2.8822h-2.1303q-0.60151 0-1.1278 0.17544-0.52632 0.17544-0.90226 0.62657-0.42607 0.55139-0.55138 1.3283-0.10023 0.77695-0.10023 1.2531v7.0928h-3.4837z"/>
   <path d="m128.86 141.22v-18.12h3.4837v6.5414q0.20051-0.52632 0.45113-0.8772 0.25063-0.37594 0.65164-0.6015 0.42607-0.22556 1.0526-0.32582 0.65164-0.10023 1.6541-0.10023 0.57645 0 1.3033 0.10023 0.75188 0.0752 1.3784 0.52632 0.65164 0.45112 1.0777 1.3784 0.45113 0.92732 0.45113 2.6065v8.8722h-3.4837v-8.6717q0-0.70176-0.17544-1.1028-0.17544-0.42607-0.4762-0.65163-0.30075-0.22557-0.72681-0.27569-0.40101-0.0752-0.8772-0.0752-1.2281 0-1.7544 0.52632-0.52632 0.50127-0.52632 1.8546v8.396z"/>
   <path d="m146.76 126.66 1.3534-3.8096h3.0326l1.3534 3.8096h-1.5539l-1.3033-1.9048-1.3033 1.9048zm5.7143 7.6692q0-2.0301-0.65163-2.9825-0.62657-0.97745-2.2556-0.97745-0.8772 0-1.5038 0.2005-0.62658 0.17544-1.0276 0.65164-0.401 0.45112-0.6015 1.2782-0.17544 0.82707-0.17544 2.1053 0 2.3308 0.65164 3.3584 0.65162 1.0025 2.2807 1.0025 1.0526 0 1.7043-0.30076 0.65163-0.30074 1.0025-0.87718 0.35088-0.60151 0.45114-1.4536 0.12531-0.87719 0.12531-2.005zm-3.1579 7.2431q-3.2331 0-4.8872-1.6291t-1.6541-5.188q0-2.0552 0.50126-3.4085 0.50126-1.3534 1.4035-2.1554 0.90226-0.80201 2.1053-1.1278 1.2281-0.32581 2.6566-0.32581 3.3083 0 4.9123 1.6541 1.604 1.6542 1.604 5.2381 0 1.5539-0.35088 2.8321-0.32581 1.2782-1.1028 2.2055-0.77695 0.90226-2.0552 1.4035-1.2531 0.50125-3.1328 0.50125z"/>
   <path d="m158.42 128.09h3.3584v1.7794q0.10022-0.30075 0.22556-0.67669 0.15038-0.37595 0.50126-0.67669 0.37594-0.32582 1.0276-0.55139 0.65164-0.22556 1.7544-0.22556 1.1278 0 2.005 0.22556 0.8772 0.20051 1.4536 0.70176 0.57644 0.4762 0.8772 1.2782 0.30075 0.80201 0.30075 1.98v9.2983h-3.4837v-8.6968q0-0.97745-0.4762-1.5038-0.47619-0.55138-1.8296-0.55138-1.1028 0-1.6792 0.4762-0.55138 0.45113-0.55138 1.8045v8.4712h-3.4837z"/>
   <path d="m181.6 133.32q0-0.57645-0.10023-1.1028-0.0752-0.52632-0.35089-0.92732-0.25063-0.42607-0.75188-0.65164-0.50126-0.25063-1.3534-0.25063-1.0526 0-1.6542 0.27569-0.6015 0.2757-0.92732 0.70176-0.30075 0.42607-0.40101 0.95239-0.10022 0.50125-0.17544 1.0025zm-5.7895 2.4311q0 1.579 0.67669 2.381t2.5313 0.802q0.80202 0 1.2531-0.12531 0.47619-0.15039 0.72682-0.37595t0.35088-0.50125q0.12532-0.30076 0.20051-0.60151h3.4085q-0.10022 0.60151-0.35088 1.3534-0.25063 0.72682-0.90226 1.3784-0.65163 0.62657-1.8296 1.0777-1.178 0.42606-3.1329 0.42606-3.3584 0-4.8872-1.7043-1.5038-1.7293-1.5038-5.1629 0-1.579 0.32582-2.8572 0.35088-1.2782 1.1028-2.1804 0.77694-0.92733 2.0301-1.4286 1.2531-0.50125 3.0827-0.50125 2.1805 0 3.4587 0.72681 1.2782 0.72683 1.9298 1.8797 0.65163 1.1278 0.80201 2.5564 0.17544 1.4286 0.10023 2.8572z"/>
   <path d="m123.23 170.72q1.579 0 2.2556-0.77695 0.70176-0.77694 0.67669-2.0551v-1.3534q-0.2005 0.12532-0.40101 0.20051-0.6015 0.30075-1.3784 0.37594-0.75188 0.0752-1.4286 0.22556-0.65164 0.15038-1.1028 0.55139-0.45113 0.37593-0.45113 1.2782 0 0.50125 0.17544 0.82706 0.17544 0.30076 0.45113 0.4762 0.27568 0.15038 0.57644 0.20051 0.32581 0.0501 0.62657 0.0501zm-4.787-6.8171v-0.57645q0.0251-0.82706 0.32581-1.5288 0.30076-0.72682 0.95239-1.2531 0.6767-0.52632 1.7795-0.82707t2.7569-0.30075q2.6817 0 3.9599 0.97744 1.3033 0.97745 1.3033 3.3835v5.589q0 0.42607 0.0501 0.60151 0.0501 0.15037 0.12532 0.20049 0.0752 0.0501 0.25062 0.12532 0.20051 0.0752 0.52632 0.0501v2.5564h-1.7293q-0.4762 0-0.85213-0.0752-0.37595-0.10022-0.72683-0.401-0.27569-0.25062-0.42606-0.55138-0.15038-0.32581-0.2757-0.55138-0.35088 0.60151-0.72681 1.0025-0.37595 0.37595-0.85213 0.57644-0.45114 0.20051-1.0025 0.27569-0.55138 0.0752-1.203 0.0752-2.5314 0-3.6592-1.1278-1.1028-1.1278-1.1028-3.1328 0-1.4286 0.52632-2.1554 0.52632-0.72683 1.2782-1.1028 0.62657-0.27569 1.5539-0.40101 0.92733-0.12531 1.8546-0.2005 0.92732-0.0752 1.6792-0.15038 0.75189-0.0752 1.0276-0.27568 0.15037-0.12532 0.22556-0.4762 0.10023-0.35088 0.10023-0.80201 0-0.70176-0.42606-1.1278-0.42608-0.42607-1.6542-0.42607-0.92733 0-1.4035 0.17544-0.4762 0.15038-0.70176 0.45114-0.22556 0.27569-0.2757 0.65162-0.0501 0.35088-0.0752 0.75189z"/>
   <path d="m133.15 154.78h3.4837v18.12h-3.4837z"/>
   <path d="m148.8 165.91q0-1.9549-0.57644-2.8822-0.57646-0.92732-2.005-0.92732-1.4286 0-2.2306 0.92732-0.80202 0.92732-0.80202 3.208 0 0.95239 0.15038 1.7795 0.15037 0.80201 0.50125 1.4035 0.35088 0.57644 0.92733 0.90227 0.57644 0.32581 1.4536 0.32581 0.97745 0 1.4787-0.35088 0.52632-0.37594 0.77694-1.0025 0.25063-0.62656 0.27569-1.4787 0.0501-0.8772 0.0501-1.9048zm-8.9725-6.1404h3.3584v1.5539q0.17544-0.30076 0.45114-0.62657 0.30074-0.32582 0.72681-0.60151 0.42607-0.30076 1.0526-0.4762 0.62657-0.20049 1.5288-0.20049 1.4536 0 2.4812 0.55137 1.0276 0.52632 1.6792 1.4787 0.65164 0.95238 0.92733 2.2556 0.30075 1.2782 0.30075 2.782 0 1.4035-0.2757 2.6566-0.25062 1.2281-0.87719 2.1554-0.62657 0.90226-1.6792 1.4286-1.0526 0.52632-2.6566 0.52632-1.5038 0-2.3308-0.45113-0.82708-0.4762-1.203-1.0526v5.4888h-3.4837z"/>
   <path d="m163.35 165.01q0-0.57644-0.10023-1.1028-0.0752-0.52631-0.35088-0.92732-0.25063-0.42607-0.75188-0.65163-0.50126-0.25063-1.3534-0.25063-1.0526 0-1.6542 0.27569-0.6015 0.27569-0.92733 0.70176-0.30074 0.42607-0.401 0.95239-0.10023 0.50125-0.17544 1.0025zm-5.7895 2.4311q0 1.579 0.67669 2.381 0.67669 0.80202 2.5313 0.80202 0.802 0 1.2531-0.12531 0.47619-0.15039 0.72682-0.37595 0.25063-0.22557 0.35088-0.50125 0.12531-0.30076 0.2005-0.60151h3.4085q-0.10023 0.60151-0.35088 1.3534-0.25063 0.72682-0.90227 1.3784-0.65162 0.62657-1.8296 1.0777-1.178 0.42607-3.1328 0.42607-3.3584 0-4.8872-1.7043-1.5038-1.7293-1.5038-5.1629 0-1.579 0.32582-2.8572 0.35088-1.2782 1.1028-2.1805 0.77694-0.92732 2.0301-1.4286 1.2531-0.50125 3.0827-0.50125 2.1805 0 3.4587 0.72681 1.2782 0.72683 1.9298 1.8797 0.65162 1.1278 0.80201 2.5564 0.17544 1.4286 0.10022 2.8572z"/>
   <path d="m174.55 173.25q-1.4536 0-2.4562-0.27569-1.0025-0.27569-1.6792-0.70176-0.65164-0.42607-1.0276-0.97745-0.37594-0.55138-0.57645-1.1028-0.17544-0.57644-0.22556-1.0777-0.0501-0.5263-0.0501-0.87718h3.2832q0.0251 0.47618 0.0752 0.92732 0.0501 0.42606 0.30076 0.75188 0.25063 0.32581 0.802 0.52632 0.55139 0.17544 1.604 0.17544 0.50126 0 0.95239-0.0251 0.47619-0.0251 0.82707-0.17544 0.35088-0.15037 0.55138-0.47619 0.22556-0.32582 0.22556-0.92733 0-0.45112-0.20048-0.67669-0.20052-0.25063-0.62658-0.37594-0.42607-0.15038-1.1028-0.25062-0.67671-0.12532-1.6291-0.35088-1.2281-0.25064-2.1053-0.57645-0.8772-0.32582-1.4536-0.77695-0.55138-0.45113-0.82708-1.0777-0.25061-0.62657-0.25061-1.5038 0-1.178 0.42605-1.9549 0.45115-0.77694 1.203-1.2281 0.75188-0.45114 1.7544-0.62658 1.0025-0.20049 2.1053-0.20049 1.4035 0 2.3559 0.27568 0.95239 0.25063 1.579 0.67669 0.62657 0.42608 0.95239 0.95239 0.32581 0.50126 0.47618 1.0025 0.17544 0.47618 0.20051 0.90225 0.0251 0.42607 0.0501 0.65164h-3.2832q-0.0501-0.45113-0.12532-0.80201-0.0752-0.35088-0.32581-0.57644-0.25063-0.25063-0.70176-0.37595-0.45114-0.12531-1.2281-0.12531-0.37595 0-0.75188 0.0501-0.37595 0.0251-0.67671 0.17544-0.27568 0.12531-0.47618 0.37595-0.17544 0.22556-0.17544 0.60151 0 0.401 0.17544 0.62656 0.17544 0.22557 0.6015 0.40101 0.45114 0.15037 1.203 0.30075 0.77695 0.15038 1.9549 0.40101 1.0526 0.22556 1.8546 0.57644 0.82707 0.32581 1.3784 0.82706 0.55139 0.4762 0.82708 1.1529 0.27568 0.65162 0.27568 1.579 0 2.1805-1.5539 3.183-1.5288 1.0025-4.4862 1.0025z"/>
  </g>
 </g>
</svg>
