<svg xmlns="http://www.w3.org/2000/svg" height="414.44" width="600" version="1.1" xmlns:xlink="http://www.w3.org/1999/xlink" viewBox="0 0 158.75 109.65523">
 <defs>
  <linearGradient id="b" y2="568.01" gradientUnits="userSpaceOnUse" x2="1551.5" gradientTransform="matrix(.13431 0 0 -.13431 36.994 388.22)" y1="1360" x1="1482.2">
   <stop stop-color="#649dcb" offset="0"/>
   <stop stop-color="#619bca" offset=".0067"/>
   <stop stop-color="#4c8fc7" offset=".0557"/>
   <stop stop-color="#3f88c6" offset=".1039"/>
   <stop stop-color="#3b86c5" offset="0.15"/>
   <stop stop-color="#488cc6" offset=".29660"/>
   <stop stop-color="#6199c9" offset=".5"/>
   <stop stop-color="#5193c7" offset=".63810"/>
   <stop stop-color="#2882c2" offset=".90610"/>
   <stop stop-color="#187cc0" offset="1"/>
  </linearGradient>
  <linearGradient id="a" y2="739.92" gradientUnits="userSpaceOnUse" x2="1577.6" gradientTransform="matrix(.13431 0 0 -.13431 36.994 388.22)" y1="1228.6" x1="1577.6">
   <stop stop-color="#fff" offset=".5"/>
   <stop stop-color="#bfbfbf" offset="1"/>
  </linearGradient>
 </defs>
 <g transform="translate(-205.62 -201.24)">
  <g stroke-width=".13431">
   <path d="m205.62 294.14c0 1.4774 1.1825 2.9373 2.6275 3.2445l63.31 13.457c1.4453 0.30716 2.6275-0.65033 2.6275-2.1277v-105.28c0-1.4774-1.1825-2.4349-2.6275-2.1277l-63.31 13.457c-1.445 0.30717-2.6275 1.7672-2.6275 3.2446z" fill="#187cc0"/>
   <path d="m206.36 293.22c0 1.4774 1.1825 2.9373 2.6275 3.2445l61.765 13.129c1.4452 0.30716 2.6275-0.65033 2.6275-2.1277v-102.78c0-1.4774-1.1824-2.4349-2.6275-2.1277l-61.765 13.129c-1.445 0.30716-2.6275 1.7672-2.6275 3.2446z" fill="url(#b)"/>
   <path d="m206.22 217.45s60.417-7.1929 67.965 9.1358l0.001 32.856s-0.45408 19.818-9.7334 22.792l-30.443 6.4607s-26.391 8.8339-28.101-47.32c-0.79645-18.273 0.31039-23.925 0.31039-23.925z" fill="#187cc0"/>
   <path d="m274.18 260.88c-2.0352-7.1631-7.8849-10.999-16.044-11.912 0.007 0 8.4796-6.2431 16.048-12.38v-13.385h-48.656l-0.002 14.908h27.424c-0.0558 0.044-17.178 13.286-17.178 13.286l6.4142 9.5901s3.8552-1.986 7.3309-1.986c6.1581 0 8.5821 2.5804 8.5821 8.3954 0 6.3041-2.8914 9.0894-8.705 9.0894-7.042 0-8.4847-5.0338-8.4847-8.6456h-17.316c-0.3253 12.253 7.1647 21.002 24.953 21.002 13.768 0 22.98-4.8014 25.633-15.134v-12.828z" fill="url(#a)"/>
  </g>
  <g fill="#187cc0">
   <path d="m302.32 254.28q-0.0722-0.36081-0.14434-0.72164-0.0481-0.38487-0.3127-0.69758-0.24055-0.31272-0.7457-0.50515-0.48109-0.19244-1.4192-0.19244-0.91408 0-1.4914 0.33677-0.57732 0.3127-0.91409 0.84191-0.3127 0.5292-0.43298 1.2268-0.12027 0.69759-0.12027 1.4433 0 1.0825 0.12027 1.9244 0.14433 0.81787 0.45704 1.3952 0.33677 0.55326 0.86597 0.84192 0.55325 0.2646 1.3711 0.2646 1.0344 0 1.5636-0.21649 0.55325-0.21649 0.7938-0.55326 0.24055-0.36083 0.28866-0.81786 0.0481-0.4811 0.12028-0.98625h3.2955q0 0.7457-0.24054 1.6357-0.24055 0.86596-0.89002 1.6357-0.64949 0.7457-1.8282 1.2508-1.1546 0.50514-3.0068 0.50514-3.0068 0-4.6185-1.6598-1.5876-1.6598-1.5876-5.0274 0-1.4192 0.33677-2.622 0.33675-1.2027 1.0825-2.0928 0.76975-0.89003 1.9965-1.3711 1.2508-0.50515 3.055-0.50515 1.5636 0 2.622 0.38488 1.0824 0.38487 1.7319 1.0344 0.67353 0.64948 0.96218 1.4914 0.28865 0.84193 0.28865 1.756z"/>
   <path d="m316.29 254.98q0-0.55325-0.0962-1.0584-0.0722-0.50515-0.33677-0.89004-0.24055-0.40892-0.72164-0.62541-0.4811-0.24055-1.299-0.24055-1.0103 0-1.5876 0.26461-0.57732 0.26459-0.89003 0.67352-0.28865 0.40892-0.38487 0.91408-0.0962 0.48109-0.16838 0.96219zm-5.5566 2.3333q0 1.5154 0.64947 2.2852 0.64949 0.76975 2.4295 0.76975 0.76975 0 1.2027-0.12026 0.45704-0.14434 0.69758-0.36083 0.24056-0.21649 0.33677-0.48109 0.12028-0.28866 0.19244-0.57732h3.2714q-0.0962 0.57732-0.33677 1.299-0.24055 0.69759-0.86596 1.323-0.62543 0.60136-1.756 1.0343-1.1306 0.40894-3.0068 0.40894-3.2233 0-4.6906-1.6357-1.4433-1.6598-1.4433-4.9553 0-1.5154 0.3127-2.7422 0.33677-1.2268 1.0584-2.0928 0.74569-0.89003 1.9484-1.3711 1.2027-0.48109 2.9587-0.48109 2.0928 0 3.3195 0.6976 1.2268 0.69758 1.8522 1.8041 0.62541 1.0825 0.76974 2.4536 0.16839 1.3711 0.0962 2.7422z"/>
   <path d="m321.94 249.95h3.2233v1.7079q0.0962-0.28865 0.21649-0.64947 0.14432-0.36083 0.48109-0.64949 0.36082-0.3127 0.98625-0.5292 0.62541-0.21649 1.6838-0.21649 1.0825 0 1.9244 0.21649 0.84191 0.19244 1.3952 0.67354 0.55326 0.45703 0.84192 1.2268 0.28864 0.76975 0.28864 1.9003v8.9243h-3.3436v-8.347q0-0.93813-0.45703-1.4433-0.45704-0.52919-1.756-0.52919-1.0584 0-1.6117 0.45703-0.5292 0.43299-0.5292 1.732v8.1305h-3.3436z"/>
   <path d="m334.59 249.95h1.6598v-3.9931h3.3436v3.9931h2.0687v2.213h-2.0687v6.5188q0 0.48109 0.0241 0.72164t0.19244 0.40893q0.14433 0.14433 0.33677 0.16838 0.21649 0.0241 0.43298 0.0241h1.0825v2.5498h-1.9484q-0.33677 0-0.72164 0-0.38488-0.0241-0.76975-0.0722-0.38489-0.0722-0.72164-0.19243-0.33677-0.14433-0.57732-0.36082t-0.38487-0.52921q-0.12028-0.33676-0.19244-0.67352-0.0722-0.36083-0.0962-0.69759 0-0.36082 0-0.64948v-7.2164h-1.6598z"/>
   <path d="m343.54 249.95h2.9828v2.3574q0.16838-0.4811 0.36083-0.96219 0.19244-0.48109 0.5292-0.86597 0.36082-0.38488 0.93813-0.62543 0.57731-0.24054 1.5154-0.24054 0.40894 0 0.81787 0.0481 0.40892 0.0241 0.81786 0.0722v2.7663h-2.0446q-0.57732 0-1.0825 0.16838-0.50515 0.16838-0.86596 0.60136-0.40893 0.52921-0.52921 1.2749-0.0962 0.74569-0.0962 1.2027v6.8075h-3.3436z"/>
   <path d="m360.91 254.98q0-0.55325-0.0962-1.0584-0.0722-0.50515-0.33677-0.89004-0.24055-0.40892-0.72164-0.62541-0.4811-0.24055-1.299-0.24055-1.0103 0-1.5876 0.26461-0.5773 0.26459-0.89002 0.67352-0.28865 0.40892-0.38487 0.91408-0.0962 0.48109-0.16839 0.96219zm-5.5566 2.3333q0 1.5154 0.64947 2.2852 0.64947 0.76975 2.4295 0.76975 0.76975 0 1.2027-0.12026 0.45703-0.14434 0.69758-0.36083t0.33677-0.48109q0.12027-0.28866 0.19244-0.57732h3.2714q-0.0962 0.57732-0.33676 1.299-0.24055 0.69759-0.86598 1.323-0.62541 0.60136-1.756 1.0343-1.1306 0.40894-3.0068 0.40894-3.2233 0-4.6907-1.6357-1.4433-1.6598-1.4433-4.9553 0-1.5154 0.31272-2.7422 0.33677-1.2268 1.0584-2.0928 0.74568-0.89003 1.9484-1.3711 1.2027-0.48109 2.9587-0.48109 2.0928 0 3.3196 0.6976 1.2268 0.69758 1.8522 1.8041 0.62542 1.0825 0.76976 2.4536 0.16838 1.3711 0.0962 2.7422z"/>
  </g>
 </g>
</svg>
