<svg xmlns="http://www.w3.org/2000/svg" height="344.27" width="600" version="1.1" xmlns:xlink="http://www.w3.org/1999/xlink" viewBox="0 0 158.75 91.086965">
 <defs>
  <linearGradient id="b" y2="568.01" gradientUnits="userSpaceOnUse" x2="1551.5" gradientTransform="matrix(.11157 0 0 -.11157 -113.61 258.6)" y1="1360" x1="1482.2">
   <stop stop-color="#649dcb" offset="0"/>
   <stop stop-color="#619bca" offset=".0067"/>
   <stop stop-color="#4c8fc7" offset=".0557"/>
   <stop stop-color="#3f88c6" offset=".1039"/>
   <stop stop-color="#3b86c5" offset="0.15"/>
   <stop stop-color="#488cc6" offset=".29660"/>
   <stop stop-color="#6199c9" offset=".5"/>
   <stop stop-color="#5193c7" offset=".63810"/>
   <stop stop-color="#2882c2" offset=".90610"/>
   <stop stop-color="#187cc0" offset="1"/>
  </linearGradient>
  <linearGradient id="a" y2="739.92" gradientUnits="userSpaceOnUse" x2="1577.6" gradientTransform="matrix(.11157 0 0 -.11157 -113.61 258.6)" y1="1228.6" x1="1577.6">
   <stop stop-color="#fff" offset=".5"/>
   <stop stop-color="#bfbfbf" offset="1"/>
  </linearGradient>
 </defs>
 <g transform="translate(-26.458 -103.29)">
  <g stroke-width=".11157">
   <path d="m26.458 180.46c0 1.2272 0.98223 2.44 2.1826 2.6951l52.589 11.178c1.2006 0.25515 2.1826-0.5402 2.1826-1.7674v-87.457c0-1.2272-0.98223-2.0226-2.1826-1.7674l-52.589 11.178c-1.2003 0.25515-2.1826 1.468-2.1826 2.6952z" fill="#187cc0"/>
   <path d="m27.072 179.69c0 1.2272 0.98223 2.44 2.1826 2.6951l51.306 10.905c1.2004 0.25516 2.1826-0.5402 2.1826-1.7674v-85.386c0-1.2272-0.98223-2.0226-2.1826-1.7674l-51.306 10.906c-1.2003 0.25515-2.1826 1.468-2.1826 2.6952z" fill="url(#b)"/>
   <path d="m26.956 116.76s50.187-5.9749 56.456 7.5888l0.0011 27.293s-0.3772 16.462-8.0852 18.933l-25.288 5.3667s-21.922 7.338-23.342-39.308c-0.66159-15.179 0.25783-19.874 0.25783-19.874z" fill="#187cc0"/>
   <path d="m83.409 152.82c-1.6906-5.9502-6.5497-9.1368-13.327-9.8946 0.006 0 7.0437-5.1859 13.33-10.283v-11.118h-40.417l-0.0014 12.383h22.78c-0.04642 0.0366-14.269 11.036-14.269 11.036l5.3281 7.9662s3.2024-1.6497 6.0895-1.6497c5.1153 0 7.1289 2.1434 7.1289 6.9738 0 5.2366-2.4018 7.5502-7.2309 7.5502-5.8495 0-7.048-4.1814-7.048-7.1816h-14.383c-0.27021 10.179 5.9515 17.445 20.728 17.445 11.437 0 19.089-3.9884 21.293-12.571v-10.656z" fill="url(#a)"/>
  </g>
  <g fill="#187cc0">
   <path d="m103.61 152.48q1.2588 0 1.7983-0.61943 0.55947-0.61942 0.53949-1.6385v-1.079q-0.15985 0.0999-0.3197 0.15986-0.47956 0.23977-1.099 0.29972-0.59944 0.06-1.1389 0.17982-0.51952 0.1199-0.87918 0.43959-0.35967 0.29974-0.35967 1.0191 0 0.39963 0.13987 0.65939 0.13987 0.23977 0.35967 0.37964 0.21979 0.11989 0.45957 0.15985 0.25976 0.04 0.49953 0.04zm-3.8164-5.4349v-0.45958q0.02002-0.65939 0.25975-1.2189 0.23978-0.57947 0.7593-0.99907 0.53949-0.41961 1.4187-0.6594 0.87919-0.23977 2.198-0.23977 2.138 0 3.1571 0.77927 1.039 0.77928 1.039 2.6975v4.4558q0 0.3397 0.04 0.47956 0.04 0.11989 0.0999 0.15985 0.06 0.04 0.19981 0.0999 0.15985 0.06 0.41961 0.04v2.0381h-1.3787q-0.37964 0-0.67937-0.06-0.29971-0.0799-0.57946-0.3197-0.2198-0.19981-0.33968-0.4396-0.11989-0.25975-0.2198-0.43957-0.27974 0.47955-0.57946 0.79924-0.29972 0.29974-0.67937 0.45958-0.35966 0.15985-0.79926 0.2198-0.43958 0.06-0.9591 0.06-2.0181 0-2.9173-0.89916-0.87918-0.89916-0.87918-2.4977 0-1.139 0.41961-1.7184 0.41961-0.57945 1.0191-0.87918 0.49953-0.21979 1.2388-0.3197 0.73932-0.0999 1.4786-0.15986 0.73931-0.06 1.3388-0.11988 0.59944-0.06 0.81924-0.2198 0.11988-0.0999 0.17983-0.37964 0.0799-0.27975 0.0799-0.63941 0-0.55948-0.33969-0.89916-0.33968-0.33969-1.3188-0.33969-0.73931 0-1.119 0.13987-0.37965 0.1199-0.55948 0.35967-0.17983 0.21979-0.2198 0.51952-0.04 0.27973-0.06 0.59945z"/>
   <path d="m111.46 143.75h2.7774v6.9735q0 1.5985 1.7783 1.5985 1.059 0 1.4586-0.41962 0.39963-0.41961 0.39963-1.3188v-6.8336h2.7774v10.47h-2.7175v-1.1589q-0.15986 0.27974-0.31971 0.5395-0.13987 0.25976-0.45957 0.45958-0.29972 0.1998-0.83922 0.3197-0.51952 0.11988-1.4187 0.11988-1.1989 0-1.8783-0.33969-0.67936-0.35966-1.039-0.83922-0.33969-0.49953-0.43959-1.019-0.0799-0.51952-0.0799-0.85919z"/>
   <path d="m121.93 143.75h3.0172l2.138 7.4331 2.118-7.4331h2.9373l-3.7765 10.47h-2.6376z"/>
   <path d="m140.08 147.93q0-0.45957-0.0799-0.87918-0.06-0.41961-0.27974-0.73933-0.19982-0.33967-0.59944-0.51951-0.39964-0.1998-1.079-0.1998-0.83922 0-1.3188 0.21979-0.47955 0.21978-0.73931 0.55947-0.23977 0.33968-0.3197 0.7593-0.0799 0.39963-0.13987 0.79926zm-4.6157 1.9382q0 1.2588 0.5395 1.8982 0.53949 0.63941 2.0181 0.63941 0.6394 0 0.99907-0.0999 0.37965-0.11989 0.57946-0.29972 0.19982-0.17984 0.27974-0.39963 0.0999-0.23978 0.15986-0.47956h2.7175q-0.0799 0.47956-0.27974 1.079-0.19982 0.57947-0.71933 1.099-0.51952 0.49953-1.4586 0.85919-0.93913 0.33969-2.4977 0.33969-2.6775 0-3.8964-1.3587-1.1989-1.3787-1.1989-4.1162 0-1.2588 0.25976-2.2779 0.27974-1.019 0.87918-1.7384 0.61942-0.7393 1.6185-1.1389 0.99907-0.39962 2.4577-0.39962 1.7384 0 2.7574 0.57946 1.019 0.57947 1.5386 1.4986 0.51951 0.89916 0.63941 2.0381 0.13987 1.1389 0.0799 2.2779z"/>
   <path d="m144.74 143.75h2.4777v1.9582q0.13987-0.39963 0.29973-0.79926 0.15985-0.39962 0.43959-0.71933 0.29972-0.31971 0.77927-0.51952 0.47956-0.19981 1.2588-0.19981 0.33969 0 0.67937 0.04 0.33968 0.02 0.67937 0.06v2.2979h-1.6984q-0.47954 0-0.89915 0.13986-0.41962 0.13987-0.71934 0.49954-0.33968 0.43959-0.43959 1.059-0.0799 0.61943-0.0799 0.99906v5.6548h-2.7774z"/>
   <path d="m158.8 148.54q0-1.4986-0.41961-2.2379-0.39963-0.73931-1.5586-0.73931-1.2388 0-1.7983 0.6594-0.5395 0.6394-0.5395 2.198 0 0.57945 0.04 1.1389 0.04 0.55947 0.23978 0.99907 0.21979 0.43959 0.67936 0.71933 0.45957 0.25975 1.2988 0.25975 0.71933 0 1.119-0.25975 0.4196-0.27974 0.61942-0.71933 0.21979-0.4396 0.25976-0.95911 0.06-0.5395 0.06-1.059zm-2.3578 9.1315q-1.2388 0-2.0581-0.25975-0.79925-0.25976-1.2788-0.69935-0.45957-0.4396-0.65938-1.039-0.17983-0.57948-0.17983-1.2389h2.4977q0.02 0.27974 0.06 0.47955 0.04 0.2198 0.19981 0.35967 0.17983 0.13988 0.5395 0.19981 0.37965 0.0799 1.099 0.0799 0.95911 0 1.5186-0.23977 0.57946-0.2198 0.57946-0.99908v-1.9782q-0.04 0.06-0.15985 0.25975-0.11989 0.17985-0.41961 0.39963-0.27974 0.2198-0.7593 0.39963-0.47955 0.15986-1.2388 0.15986-0.93913 0-1.7584-0.23979-0.81924-0.25976-1.4187-0.81924-0.59944-0.57946-0.95911-1.5186-0.33968-0.93913-0.33968-2.3178 0-1.1989 0.25975-2.158 0.25977-0.95911 0.77928-1.6185 0.51952-0.67937 1.3188-1.039 0.81923-0.37964 1.9382-0.37964 0.77928 0 1.2988 0.17983 0.51952 0.17982 0.8592 0.45956 0.33968 0.25977 0.53949 0.57947 0.19982 0.29972 0.31971 0.5395v-1.4786h2.5177v10.41q0 1.8183-1.2388 2.6575-1.2388 0.8592-3.8564 0.8592z"/>
   <path d="m163.85 143.75h2.6775v1.4187q0.0799-0.23977 0.17984-0.53949 0.11988-0.29973 0.39962-0.53951 0.29973-0.25976 0.81925-0.43959 0.51951-0.17983 1.3987-0.17983 0.89917 0 1.5985 0.17983 0.69935 0.15985 1.1589 0.55948 0.45957 0.37964 0.69934 1.019 0.23978 0.63941 0.23978 1.5785v7.4131h-2.7774v-6.9336q0-0.77928-0.37964-1.1989-0.37965-0.43959-1.4586-0.43959-0.87918 0-1.3388 0.37964-0.43959 0.35968-0.43959 1.4387v6.7537h-2.7774z"/>
   <path d="m182.33 147.93q0-0.45957-0.0799-0.87918-0.06-0.41961-0.27974-0.73933-0.19981-0.33967-0.59945-0.51951-0.39962-0.1998-1.079-0.1998-0.83922 0-1.3188 0.21979-0.47955 0.21978-0.73931 0.55947-0.23978 0.33968-0.3197 0.7593-0.0799 0.39963-0.13987 0.79926zm-4.6157 1.9382q0 1.2588 0.5395 1.8982 0.5395 0.63941 2.0181 0.63941 0.6394 0 0.99907-0.0999 0.37965-0.11989 0.57946-0.29972 0.19981-0.17984 0.27974-0.39963 0.0999-0.23978 0.15985-0.47956h2.7175q-0.0799 0.47956-0.27973 1.079-0.19982 0.57947-0.71933 1.099-0.51952 0.49953-1.4586 0.85919-0.93913 0.33969-2.4977 0.33969-2.6775 0-3.8964-1.3587-1.1989-1.3787-1.1989-4.1162 0-1.2588 0.25976-2.2779 0.27974-1.019 0.87918-1.7384 0.61943-0.7393 1.6185-1.1389 0.99907-0.39962 2.4577-0.39962 1.7384 0 2.7574 0.57946 1.019 0.57947 1.5386 1.4986 0.51952 0.89916 0.6394 2.0381 0.13987 1.1389 0.0799 2.2779z"/>
  </g>
 </g>
</svg>
