<svg xmlns="http://www.w3.org/2000/svg" height="316.14" width="600" version="1.1" xmlns:xlink="http://www.w3.org/1999/xlink" viewBox="0 0 158.75 83.645098">
 <defs>
  <linearGradient id="b" y2="568.01" gradientUnits="userSpaceOnUse" x2="1551.5" gradientTransform="matrix(.10245 0 0 -.10245 -102.17 249.63)" y1="1360" x1="1482.2">
   <stop stop-color="#649dcb" offset="0"/>
   <stop stop-color="#619bca" offset=".0067"/>
   <stop stop-color="#4c8fc7" offset=".0557"/>
   <stop stop-color="#3f88c6" offset=".1039"/>
   <stop stop-color="#3b86c5" offset="0.15"/>
   <stop stop-color="#488cc6" offset=".29660"/>
   <stop stop-color="#6199c9" offset=".5"/>
   <stop stop-color="#5193c7" offset=".63810"/>
   <stop stop-color="#2882c2" offset=".90610"/>
   <stop stop-color="#187cc0" offset="1"/>
  </linearGradient>
  <linearGradient id="a" y2="739.92" gradientUnits="userSpaceOnUse" x2="1577.6" gradientTransform="matrix(.10245 0 0 -.10245 -102.17 249.63)" y1="1228.6" x1="1577.6">
   <stop stop-color="#fff" offset=".5"/>
   <stop stop-color="#bfbfbf" offset="1"/>
  </linearGradient>
 </defs>
 <g transform="translate(-26.458 -107.01)">
  <g stroke-width=".10245">
   <path d="m26.458 177.87c0 1.127 0.90198 2.2406 2.0042 2.4749l48.293 10.265c1.1025 0.23429 2.0043-0.49608 2.0043-1.623v-80.312c0-1.127-0.90198-1.8573-2.0043-1.623l-48.293 10.265c-1.1023 0.2343-2.0042 1.348-2.0042 2.475z" fill="#187cc0"/>
   <path d="m27.022 177.17c0 1.127 0.90198 2.2406 2.0042 2.4749l47.115 10.014c1.1024 0.23431 2.0042-0.49607 2.0042-1.623v-78.41c0-1.127-0.90198-1.8573-2.0042-1.623l-47.115 10.015c-1.1023 0.23431-2.0042 1.348-2.0042 2.475z" fill="url(#b)"/>
   <path d="m26.915 119.38s46.086-5.4868 51.844 6.9688l0.001 25.063s-0.34639 15.117-7.4246 17.386l-23.222 4.9282s-20.131 6.7385-21.435-36.096c-0.60754-13.939 0.23676-18.25 0.23676-18.25z" fill="#187cc0"/>
   <path d="m78.757 152.5c-1.5524-5.464-6.0146-8.3903-12.238-9.0862 0.0055 0 6.4683-4.7622 12.241-9.4432v-10.21h-37.116l-0.0012 11.371h20.919c-0.04262 0.0336-13.103 10.134-13.103 10.134l4.8928 7.3153s2.9408-1.515 5.592-1.515c4.6974 0 6.5464 1.9683 6.5464 6.404 0 4.8087-2.2056 6.9334-6.6402 6.9334-5.3716 0-6.4721-3.8398-6.4721-6.5949h-13.209c-0.24814 9.3469 5.4653 16.02 19.034 16.02 10.502 0 17.529-3.6625 19.553-11.544v-9.7851z" fill="url(#a)"/>
  </g>
  <g fill="#187cc0">
   <path d="m100.61 148.57q0-0.49541-0.0734-0.97249-0.0734-0.49541-0.29358-0.88074-0.20184-0.38533-0.58717-0.62387-0.38533-0.25689-1.0092-0.25689-0.66056 0-1.1009 0.25689-0.42202 0.23854-0.67891 0.66056-0.23854 0.42203-0.33028 0.99084-0.09175 0.55047-0.09175 1.1927 0 0.47706 0.03669 1.0459 0.05507 0.55045 0.27524 1.0275 0.22018 0.47707 0.64221 0.80735 0.44038 0.31194 1.211 0.31194 0.69726 0 1.0826-0.25689 0.40368-0.27523 0.60552-0.73395 0.20184-0.47708 0.25688-1.1376 0.0551-0.66056 0.0551-1.4312zm-6.6974-8.0552h2.5505v4.4955q0.23854-0.2202 0.47708-0.42203 0.23854-0.20184 0.53212-0.34863 0.29358-0.16514 0.67891-0.23854 0.40367-0.0917 0.97249-0.0917 0.99084 0 1.6697 0.29358 0.69726 0.29358 1.1376 0.7523 0.45873 0.45873 0.69727 1.0276 0.23853 0.55047 0.34863 1.0826 0.11009 0.53212 0.12844 0.99085 0.0184 0.45872 0.0184 0.69726 0 1.156-0.22018 2.1285-0.22019 0.9725-0.73396 1.6698-0.49542 0.69725-1.3028 1.1009-0.78901 0.38532-1.945 0.38532-0.60551 0-1.0275-0.12843-0.42203-0.1101-0.69726-0.31193-0.27524-0.20185-0.45872-0.45873-0.16514-0.25688-0.27524-0.53212v1.1743h-2.5505z"/>
   <path d="m111.48 148.73q0-1.4862-0.47707-2.1835-0.45872-0.71561-1.6514-0.71561-0.64222 0-1.1009 0.1468-0.45872 0.12844-0.7523 0.47708-0.29359 0.33027-0.44038 0.93579-0.12844 0.60551-0.12844 1.5413 0 1.7064 0.47707 2.4588 0.47707 0.73396 1.6698 0.73396 0.77065 0 1.2477-0.22019 0.47707-0.22018 0.73396-0.64221 0.25688-0.44037 0.33028-1.0642 0.0917-0.64221 0.0917-1.4679zm-2.312 5.3028q-2.367 0-3.578-1.1927t-1.211-3.7982q0-1.5046 0.36698-2.4955 0.36698-0.99084 1.0275-1.578 0.66057-0.58717 1.5413-0.82571 0.8991-0.23853 1.945-0.23853 2.4221 0 3.5964 1.211t1.1743 3.8349q0 1.1376-0.25688 2.0734-0.23854 0.93579-0.80735 1.6147-0.56882 0.66056-1.5046 1.0276-0.91744 0.36696-2.2936 0.36696z"/>
   <path d="m115.8 144.16h2.5505v6.4038q0 1.4679 1.6331 1.4679 0.97249 0 1.3395-0.38534 0.36698-0.38533 0.36698-1.211v-6.2753h2.5505v9.6148h-2.4954v-1.0642q-0.14679 0.25689-0.29358 0.49543-0.12844 0.23853-0.42203 0.42203-0.27523 0.18348-0.77065 0.29357-0.47707 0.11009-1.3028 0.11009-1.1009 0-1.7248-0.31193-0.62387-0.33028-0.95415-0.77066-0.31193-0.45872-0.40367-0.93578-0.0734-0.47708-0.0734-0.789z"/>
   <path d="m126.44 144.16h2.2753v1.7982q0.12844-0.36698 0.27523-0.73396 0.14679-0.36697 0.40368-0.66056 0.27523-0.29359 0.7156-0.47708 0.44038-0.18348 1.156-0.18348 0.31193 0 0.62386 0.0367 0.31193 0.0184 0.62387 0.0551v2.1101h-1.5597q-0.44037 0-0.82569 0.12844-0.38533 0.12844-0.66057 0.45872-0.31193 0.40368-0.40367 0.9725-0.0734 0.56882-0.0734 0.91743v5.1928h-2.5505z"/>
   <path d="m139.35 148.57q0-1.3762-0.38532-2.0551-0.36698-0.67891-1.4312-0.67891-1.1376 0-1.6514 0.60553-0.49542 0.58715-0.49542 2.0184 0 0.53211 0.0367 1.0459 0.0367 0.51376 0.22019 0.91744 0.20183 0.40368 0.62386 0.66056 0.42202 0.23853 1.1927 0.23853 0.66056 0 1.0275-0.23853 0.38533-0.25688 0.56881-0.66056 0.20184-0.40368 0.23855-0.88074 0.0551-0.49543 0.0551-0.97251zm-2.1652 8.3855q-1.1376 0-1.8899-0.23853-0.73395-0.23854-1.1743-0.64222-0.42203-0.40368-0.60552-0.95414-0.16514-0.53213-0.16514-1.1376h2.2936q0.0184 0.25688 0.0551 0.44037 0.0367 0.20184 0.18349 0.33029 0.16514 0.12845 0.49542 0.18348 0.34863 0.0734 1.0092 0.0734 0.88074 0 1.3945-0.22018 0.53212-0.20184 0.53212-0.91745v-1.8165q-0.0367 0.0551-0.14679 0.23853-0.1101 0.16516-0.38533 0.36698-0.25688 0.20184-0.69726 0.36698-0.44037 0.1468-1.1376 0.1468-0.8624 0-1.6147-0.2202-0.7523-0.23853-1.3028-0.75231-0.55047-0.53211-0.88075-1.3945-0.31193-0.8624-0.31193-2.1285 0-1.1009 0.23853-1.9817 0.23854-0.88075 0.71561-1.4863 0.47707-0.62386 1.211-0.95414 0.75231-0.34862 1.7798-0.34862 0.71561 0 1.1927 0.16514 0.47707 0.16513 0.789 0.42202 0.31194 0.23854 0.49543 0.53212 0.18348 0.27523 0.29358 0.49542v-1.3578h2.312v9.5598q0 1.6698-1.1376 2.4404-1.1376 0.789-3.5414 0.789z"/>
   <path d="m150.6 148.73q0-1.4862-0.47708-2.1835-0.45872-0.71561-1.6514-0.71561-0.64222 0-1.1009 0.1468-0.45872 0.12844-0.75231 0.47708-0.29358 0.33027-0.44037 0.93579-0.12844 0.60551-0.12844 1.5413 0 1.7064 0.47707 2.4588 0.47707 0.73396 1.6698 0.73396 0.77066 0 1.2477-0.22019 0.47708-0.22018 0.73395-0.64221 0.25689-0.44037 0.33029-1.0642 0.0918-0.64221 0.0918-1.4679zm-2.312 5.3028q-2.367 0-3.578-1.1927t-1.211-3.7982q0-1.5046 0.36697-2.4955 0.36699-0.99084 1.0275-1.578 0.66056-0.58717 1.5413-0.82571 0.8991-0.23853 1.945-0.23853 2.4221 0 3.5964 1.211t1.1743 3.8349q0 1.1376-0.25688 2.0734-0.23854 0.93579-0.80735 1.6147-0.56882 0.66056-1.5046 1.0276-0.91744 0.36696-2.2936 0.36696z"/>
   <path d="m160.96 148.57q0-1.3762-0.38533-2.0551-0.36698-0.67891-1.4312-0.67891-1.1376 0-1.6514 0.60553-0.49542 0.58715-0.49542 2.0184 0 0.53211 0.0367 1.0459 0.0367 0.51376 0.22019 0.91744 0.20183 0.40368 0.62386 0.66056 0.42202 0.23853 1.1927 0.23853 0.66056 0 1.0275-0.23853 0.38533-0.25688 0.56882-0.66056 0.20184-0.40368 0.23853-0.88074 0.0551-0.49543 0.0551-0.97251zm-2.1652 8.3855q-1.1376 0-1.89-0.23853-0.73395-0.23854-1.1743-0.64222-0.42202-0.40368-0.60551-0.95414-0.16514-0.53213-0.16514-1.1376h2.2936q0.0184 0.25688 0.0551 0.44037 0.0367 0.20184 0.18349 0.33029 0.16514 0.12845 0.49542 0.18348 0.34863 0.0734 1.0092 0.0734 0.88074 0 1.3945-0.22018 0.53213-0.20184 0.53213-0.91745v-1.8165q-0.0367 0.0551-0.14679 0.23853-0.1101 0.16516-0.38534 0.36698-0.25687 0.20184-0.69725 0.36698-0.44037 0.1468-1.1376 0.1468-0.8624 0-1.6147-0.2202-0.75231-0.23853-1.3028-0.75231-0.55047-0.53211-0.88075-1.3945-0.31193-0.8624-0.31193-2.1285 0-1.1009 0.23855-1.9817 0.23852-0.88075 0.7156-1.4863 0.47707-0.62386 1.211-0.95414 0.75232-0.34862 1.7798-0.34862 0.71561 0 1.1927 0.16514 0.47707 0.16513 0.78901 0.42202 0.31193 0.23854 0.49542 0.53212 0.18349 0.27523 0.29358 0.49542v-1.3578h2.312v9.5598q0 1.6698-1.1376 2.4404-1.1376 0.789-3.5413 0.789z"/>
   <path d="m165.6 144.16h2.4588v1.3028q0.0734-0.22018 0.16514-0.49541 0.1101-0.27524 0.36697-0.49543 0.27524-0.23853 0.75231-0.40367 0.47708-0.16514 1.2844-0.16514 0.82571 0 1.4679 0.16514 0.64222 0.14678 1.0642 0.51377 0.42203 0.34862 0.64222 0.93579 0.22018 0.58717 0.22018 1.4496v6.8074h-2.5505v-6.3671q0-0.71562-0.34863-1.101-0.34863-0.40367-1.3395-0.40367-0.80734 0-1.2294 0.34863-0.40368 0.33028-0.40368 1.3211v6.2019h-2.5505z"/>
   <path d="m182.57 148q0-0.42202-0.0734-0.80735-0.0551-0.38533-0.25688-0.67892-0.18349-0.31193-0.55047-0.47707-0.36697-0.18348-0.99085-0.18348-0.77065 0-1.211 0.20184-0.44038 0.20183-0.67892 0.51376-0.22018 0.31193-0.29357 0.69726-0.0734 0.36698-0.12845 0.73396zm-4.2386 1.7798q0 1.156 0.49542 1.7431 0.49542 0.58716 1.8532 0.58716 0.58717 0 0.91745-0.0917 0.34863-0.1101 0.53212-0.27523 0.18348-0.16515 0.25689-0.36699 0.0917-0.22019 0.14679-0.44038h2.4955q-0.0734 0.44038-0.25689 0.99085-0.18349 0.53212-0.66057 1.0092-0.47707 0.45872-1.3395 0.789-0.8624 0.31193-2.2936 0.31193-2.4588 0-3.578-1.2477-1.1009-1.2661-1.1009-3.7799 0-1.156 0.23853-2.0918 0.25688-0.93579 0.80736-1.5964 0.5688-0.6789 1.4862-1.0459 0.91746-0.36697 2.2569-0.36697 1.5964 0 2.5321 0.53212 0.9358 0.53212 1.4129 1.3762 0.47707 0.82569 0.58716 1.8716 0.12844 1.0459 0.0734 2.0918z"/>
  </g>
 </g>
</svg>
