<svg xmlns="http://www.w3.org/2000/svg" height="378.92" width="600" version="1.1" xmlns:xlink="http://www.w3.org/1999/xlink" viewBox="0 0 158.75 100.25523">
 <defs>
  <linearGradient id="b" y2="568.01" gradientUnits="userSpaceOnUse" x2="1551.5" gradientTransform="matrix(.12280 0 0 -.12280 -127.71 269.65)" y1="1360" x1="1482.2">
   <stop stop-color="#649dcb" offset="0"/>
   <stop stop-color="#619bca" offset=".0067"/>
   <stop stop-color="#4c8fc7" offset=".0557"/>
   <stop stop-color="#3f88c6" offset=".1039"/>
   <stop stop-color="#3b86c5" offset="0.15"/>
   <stop stop-color="#488cc6" offset=".29660"/>
   <stop stop-color="#6199c9" offset=".5"/>
   <stop stop-color="#5193c7" offset=".63810"/>
   <stop stop-color="#2882c2" offset=".90610"/>
   <stop stop-color="#187cc0" offset="1"/>
  </linearGradient>
  <linearGradient id="a" y2="739.92" gradientUnits="userSpaceOnUse" x2="1577.6" gradientTransform="matrix(.12280 0 0 -.12280 -127.71 269.65)" y1="1228.6" x1="1577.6">
   <stop stop-color="#fff" offset=".5"/>
   <stop stop-color="#bfbfbf" offset="1"/>
  </linearGradient>
 </defs>
 <g transform="translate(-26.458 -98.706)">
  <g stroke-width=".12280">
   <path d="m26.459 183.64c0 1.3508 1.0811 2.6855 2.4023 2.9664l57.883 12.303c1.3214 0.28083 2.4023-0.59459 2.4023-1.9453v-96.26c0-1.3507-1.0811-2.2262-2.4023-1.9453l-57.883 12.305c-1.3212 0.28083-2.4023 1.6158-2.4023 2.9665z" fill="#187cc0"/>
   <path d="m27.134 182.8c0 1.3508 1.0811 2.6856 2.4022 2.9664l56.471 12.003c1.3213 0.28085 2.4022-0.59457 2.4022-1.9453v-93.981c0-1.3508-1.0811-2.2262-2.4022-1.9453l-56.471 12.005c-1.3212 0.28083-2.4022 1.6157-2.4022 2.9665z" fill="url(#b)"/>
   <path d="m27.006 113.53s55.238-6.5763 62.139 8.3527l0.00093 30.04s-0.41517 18.119-8.899 20.839l-27.833 5.9068s-24.128 8.0766-25.692-43.264c-0.72818-16.707 0.28378-21.874 0.28378-21.874z" fill="#187cc0"/>
   <path d="m89.142 153.23c-1.8607-6.549-7.209-10.056-14.669-10.89 0.0065 0 7.7527-5.7079 14.672-11.318v-12.24h-44.485l-0.0019 13.63h25.073c-0.05104 0.0403-15.705 12.147-15.705 12.147l5.8643 8.768s3.5247-1.8158 6.7024-1.8158c5.6302 0 7.8464 2.3592 7.8464 7.6757 0 5.7637-2.6435 8.3102-7.9588 8.3102-6.4383 0-7.7574-4.6022-7.7574-7.9045h-15.832c-0.29741 11.203 6.5505 19.201 22.814 19.201 12.588 0 21.01-4.3898 23.436-13.837v-11.728z" fill="url(#a)"/>
  </g>
  <g fill="#187cc0">
   <path d="m107.33 138.86h3.057v15.901h-3.057z"/>
   <path d="m121.02 148.71q0-1.7814-0.5718-2.6171-0.54982-0.85771-1.9794-0.85771-0.76974 0-1.3195 0.17595-0.54983 0.15395-0.90171 0.57182-0.35187 0.39585-0.52783 1.1216-0.15394 0.72576-0.15394 1.8474 0 2.0453 0.57182 2.947 0.57181 0.87971 2.0013 0.87971 0.9237 0 1.4955-0.26392 0.5718-0.2639 0.87971-0.76973 0.30789-0.52782 0.39586-1.2756 0.10996-0.76974 0.10996-1.7594zm-2.7711 6.3559q-2.837 0-4.2886-1.4295-1.4515-1.4295-1.4515-4.5525 0-1.8034 0.43985-2.991 0.43986-1.1876 1.2316-1.8914 0.79172-0.70377 1.8474-0.98968 1.0776-0.2859 2.3312-0.2859 2.903 0 4.3106 1.4515 1.4075 1.4515 1.4075 4.5965 0 1.3635-0.3079 2.4852-0.2859 1.1216-0.96769 1.9353-0.68176 0.79174-1.8034 1.2316-1.0996 0.43984-2.7491 0.43984z"/>
   <path d="m126.19 143.24h2.7271v2.1553q0.15394-0.43986 0.3299-0.87971 0.17592-0.43985 0.48383-0.79173 0.32989-0.35189 0.85771-0.57182 0.52783-0.21992 1.3855-0.21992 0.37388 0 0.74775 0.044 0.37388 0.022 0.74775 0.066v2.5292h-1.8694q-0.52782 0-0.98967 0.15394-0.46185 0.15395-0.79173 0.54982-0.37387 0.48384-0.48384 1.1656-0.0879 0.68178-0.0879 1.0996v6.2239h-3.057z"/>
   <path d="m135.25 143.24h2.7271v2.1553q0.15394-0.43986 0.3299-0.87971 0.17593-0.43985 0.48383-0.79173 0.3299-0.35189 0.85771-0.57182 0.52783-0.21992 1.3855-0.21992 0.37387 0 0.74774 0.044 0.37389 0.022 0.74776 0.066v2.5292h-1.8694q-0.52781 0-0.98967 0.15394-0.46184 0.15395-0.79173 0.54982-0.37387 0.48384-0.48383 1.1656-0.0879 0.68178-0.0879 1.0996v6.2239h-3.057z"/>
   <path d="m147.61 152.85q1.3855 0 1.9793-0.68178 0.6158-0.68176 0.59379-1.8034v-1.1876q-0.17592 0.10996-0.35188 0.17595-0.52782 0.2639-1.2096 0.32989-0.65979 0.066-1.2536 0.19792-0.5718 0.13196-0.96767 0.48383-0.39587 0.3299-0.39587 1.1216 0 0.43985 0.15395 0.72576 0.15395 0.2639 0.39587 0.41785 0.24192 0.13195 0.50583 0.17593 0.2859 0.044 0.54982 0.044zm-4.2006-5.982v-0.50583q0.022-0.72576 0.2859-1.3416 0.26391-0.6378 0.83574-1.0996 0.59379-0.46185 1.5615-0.72578 0.96768-0.2639 2.4192-0.2639 2.3532 0 3.4748 0.85771 1.1436 0.85771 1.1436 2.969v4.9043q0 0.37389 0.044 0.52783 0.044 0.13196 0.10995 0.17594 0.066 0.044 0.21994 0.10996 0.17594 0.066 0.46184 0.044v2.2432h-1.5175q-0.41786 0-0.74777-0.066-0.32988-0.088-0.63777-0.35189-0.24192-0.21992-0.37389-0.48384-0.13195-0.2859-0.24191-0.48382-0.30789 0.52782-0.63778 0.87969-0.32989 0.32991-0.74776 0.50584-0.39587 0.17593-0.87971 0.24192-0.48382 0.066-1.0556 0.066-2.2212 0-3.2109-0.98966-0.96767-0.98968-0.96767-2.7491 0-1.2536 0.46185-1.8914 0.46184-0.63778 1.1216-0.96768 0.54982-0.24191 1.3636-0.35188 0.81372-0.10996 1.6274-0.17594 0.81373-0.066 1.4735-0.13195 0.65978-0.066 0.9017-0.24192 0.13195-0.10997 0.19794-0.41785 0.0879-0.30791 0.0879-0.70378 0-0.61579-0.37387-0.98966-0.37386-0.37389-1.4515-0.37389-0.81373 0-1.2316 0.15396-0.41786 0.13196-0.6158 0.39587-0.19793 0.24191-0.24191 0.57181-0.044 0.30789-0.066 0.65979z"/>
   <path d="m156.12 143.24h3.057v11.524h-3.057zm0-4.3765h3.057v2.881h-3.057z"/>
   <path d="m161.7 143.24h2.947v1.5615q0.088-0.2639 0.19793-0.59379 0.13195-0.3299 0.43984-0.59381 0.32991-0.2859 0.90171-0.48384 0.57181-0.19793 1.5395-0.19793 0.98968 0 1.7594 0.19793 0.76973 0.17594 1.2756 0.6158 0.50585 0.41785 0.76975 1.1216 0.26392 0.70377 0.26392 1.7374v8.1593h-3.057v-7.6314q0-0.85772-0.41785-1.3196-0.41785-0.48383-1.6055-0.48383-0.96767 0-1.4735 0.41785-0.48384 0.39588-0.48384 1.5835v7.4335h-3.057z"/>
   <path d="m182.04 147.83q0-0.50583-0.088-0.96767-0.066-0.46185-0.3079-0.81374-0.21993-0.37387-0.65979-0.5718-0.43984-0.21992-1.1876-0.21992-0.9237 0-1.4515 0.24191-0.52782 0.24191-0.81373 0.61579-0.2639 0.37387-0.35187 0.83572-0.0879 0.43985-0.15395 0.87971zm-5.0803 2.1333q0 1.3855 0.5938 2.0893 0.5938 0.70376 2.2212 0.70376 0.70376 0 1.0996-0.10996 0.41784-0.13196 0.63778-0.32988 0.21992-0.19794 0.30789-0.43986 0.10998-0.26391 0.17596-0.52783h2.991q-0.088 0.52783-0.3079 1.1876-0.21993 0.63779-0.79174 1.2096-0.57181 0.54982-1.6054 0.94568-1.0337 0.37388-2.7491 0.37388-2.947 0-4.2886-1.4955-1.3196-1.5175-1.3196-4.5305 0-1.3855 0.28591-2.5072 0.30789-1.1216 0.96768-1.9134 0.68176-0.81372 1.7814-1.2536 1.0996-0.43985 2.7051-0.43985 1.9134 0 3.035 0.63779t1.6934 1.6494q0.57182 0.98967 0.70377 2.2432 0.15396 1.2536 0.0879 2.5072z"/>
  </g>
 </g>
</svg>
