<svg xmlns="http://www.w3.org/2000/svg" height="341.86" width="600" version="1.1" xmlns:xlink="http://www.w3.org/1999/xlink" viewBox="0 0 158.75 90.450409">
 <defs>
  <linearGradient id="b" y2="568.01" gradientUnits="userSpaceOnUse" x2="1551.5" gradientTransform="matrix(.11079 0 0 -.11079 85.426 316.48)" y1="1360" x1="1482.2">
   <stop stop-color="#649dcb" offset="0"/>
   <stop stop-color="#619bca" offset=".0067"/>
   <stop stop-color="#4c8fc7" offset=".0557"/>
   <stop stop-color="#3f88c6" offset=".1039"/>
   <stop stop-color="#3b86c5" offset="0.15"/>
   <stop stop-color="#488cc6" offset=".29660"/>
   <stop stop-color="#6199c9" offset=".5"/>
   <stop stop-color="#5193c7" offset=".63810"/>
   <stop stop-color="#2882c2" offset=".90610"/>
   <stop stop-color="#187cc0" offset="1"/>
  </linearGradient>
  <linearGradient id="a" y2="739.92" gradientUnits="userSpaceOnUse" x2="1577.6" gradientTransform="matrix(.11079 0 0 -.11079 85.426 316.48)" y1="1228.6" x1="1577.6">
   <stop stop-color="#fff" offset=".5"/>
   <stop stop-color="#bfbfbf" offset="1"/>
  </linearGradient>
 </defs>
 <g transform="translate(-224.52 -162.25)">
  <g stroke-width=".11079">
   <path d="m224.52 238.88c0 1.2186 0.97537 2.4229 2.1673 2.6763l52.222 11.1c1.1922 0.25336 2.1673-0.53643 2.1673-1.7551v-86.846c0-1.2186-0.97537-2.0084-2.1673-1.7551l-52.222 11.1c-1.192 0.25337-2.1673 1.4577-2.1673 2.6764z" fill="#187cc0"/>
   <path d="m225.13 238.12c0 1.2186 0.97536 2.4229 2.1673 2.6763l50.948 10.829c1.1921 0.25338 2.1673-0.53642 2.1673-1.7551v-84.79c0-1.2186-0.97536-2.0084-2.1673-1.7551l-50.948 10.829c-1.192 0.25337-2.1673 1.4577-2.1673 2.6764z" fill="url(#b)"/>
   <path d="m225.01 175.62s49.836-5.9332 56.062 7.5358l0.00084 27.102s-0.37456 16.347-8.0287 18.801l-25.111 5.3292s-21.769 7.2868-23.179-39.033c-0.65696-15.073 0.25603-19.735 0.25603-19.735z" fill="#187cc0"/>
   <path d="m281.07 211.44c-1.6788-5.9086-6.5039-9.073-13.234-9.8254 0.006 0 6.9945-5.1497 13.237-10.212v-11.04h-40.135l-0.002 12.297h22.621c-0.046 0.0363-14.169 10.959-14.169 10.959l5.2908 7.9105s3.18-1.6382 6.0469-1.6382c5.0796 0 7.079 2.1284 7.079 6.925 0 5.2-2.385 7.4975-7.1804 7.4975-5.8086 0-6.9987-4.1522-6.9987-7.1314h-14.283c-0.26833 10.107 5.9099 17.323 20.583 17.323 11.357 0 18.955-3.9605 21.144-12.483v-10.58z" fill="url(#a)"/>
  </g>
  <g fill="#187cc0">
   <path d="m297.36 191.05h2.6191v1.4088q0.15873-0.35714 0.29762-0.65478 0.15875-0.31746 0.43652-0.53573 0.29763-0.2381 0.75399-0.35715 0.47621-0.13889 1.2699-0.13889 0.79365 0 1.2897 0.17857 0.51588 0.15874 0.81351 0.41668 0.29762 0.25794 0.43652 0.59526 0.15873 0.31746 0.25794 0.63493 0.33731-0.91272 0.97225-1.3691 0.65477-0.45636 2.0239-0.45636 0.67462 0 1.2897 0.19842 0.63494 0.17858 1.1112 0.57541 0.49604 0.37699 0.77383 0.97225 0.29763 0.59525 0.29763 1.4088v7.52h-2.758v-6.8454q0-0.81349-0.41668-1.2103-0.39684-0.39685-1.0913-0.39685-1.6667 0-1.6667 1.627v6.8256h-2.758v-6.9645q0-1.5278-1.508-1.5278-0.59525 0-0.9524 0.19842-0.33731 0.17858-0.49604 0.47621-0.15875 0.29762-0.19843 0.63494-0.0397 0.33729-0.0397 0.63492v6.5478h-2.758z"/>
   <path d="m314.27 191.05h2.758v10.397h-2.758zm0-3.9485h2.758v2.5993h-2.758z"/>
   <path d="m326.01 196.27q0-1.8056-0.55557-2.5993-0.53574-0.81351-1.7858-0.81351-0.63494 0-1.0516 0.15873-0.39682 0.15874-0.63492 0.53573-0.23812 0.37699-0.33731 0.97224-0.0992 0.59525-0.0992 1.4881 0 0.81352 0.0793 1.4881 0.0794 0.65479 0.29762 1.131 0.2381 0.45636 0.63494 0.7143 0.41669 0.23811 1.0715 0.23811 0.8532 0 1.3294-0.31747 0.49603-0.31747 0.71431-0.81351 0.2381-0.49606 0.27778-1.0715 0.0596-0.59525 0.0596-1.1112zm-2.8969-5.4962q0.67461 0 1.131 0.11905 0.45636 0.0992 0.77383 0.27778t0.51588 0.39684q0.21827 0.21826 0.39684 0.41668v-4.8811h2.758v14.346h-2.6191v-1.2699q-0.1389 0.21826-0.33732 0.49604-0.19842 0.25795-0.53572 0.49605-0.31748 0.2381-0.81351 0.39684-0.49606 0.15874-1.2104 0.15874-2.2024 0-3.2937-1.4881t-1.0913-4.0676q0-1.2104 0.21826-2.2024 0.23809-1.0119 0.75398-1.7064 0.51588-0.7143 1.3294-1.0913 0.83334-0.39683 2.0239-0.39683z"/>
   <path d="m331 191.05h2.758v10.397h-2.758zm0-3.9485h2.758v2.5993h-2.758z"/>
   <path d="m304.64 221q0-1.5476-0.45637-2.2818-0.45635-0.73415-1.5873-0.73415t-1.7659 0.73415q-0.63494 0.73414-0.63494 2.5397 0 0.75399 0.11905 1.4088 0.11907 0.63494 0.39684 1.1111 0.2778 0.45637 0.73415 0.71431 0.45637 0.25794 1.1508 0.25794 0.77383 0 1.1707-0.27779 0.41667-0.29762 0.6151-0.79367 0.19842-0.49604 0.21826-1.1706 0.0397-0.69447 0.0397-1.508zm-7.1034-4.8612h2.6588v1.2302q0.13891-0.23809 0.35716-0.49603 0.2381-0.25796 0.57542-0.47622 0.3373-0.2381 0.83334-0.37699 0.49605-0.15873 1.2104-0.15873 1.1508 0 1.9643 0.43652 0.81353 0.41667 1.3294 1.1707 0.5159 0.75399 0.73415 1.7858 0.2381 1.0119 0.2381 2.2024 0 1.1111-0.21826 2.1032-0.19841 0.97225-0.69446 1.7064-0.49604 0.7143-1.3294 1.131-0.83337 0.41668-2.1032 0.41668-1.1905 0-1.8453-0.35715-0.65478-0.377-0.95241-0.83335v4.3453h-2.758z"/>
   <path d="m308.2 216.14h2.8969l2.4802 7.1034 2.2421-7.1034h2.9167l-3.889 10.08q-0.27777 0.71432-0.49603 1.2302-0.21826 0.51589-0.41669 0.87303-0.19841 0.377-0.39684 0.63495-0.1984 0.25794-0.41667 0.43651-0.2381 0.21827-0.53573 0.31747-0.27778 0.11905-0.55558 0.17857-0.25794 0.0596-0.49603 0.0596-0.21826 0.0199-0.33731 0.0199h-2.0239v-2.3016h1.2699q0.45635 0 0.6151-0.0199 0.17858-0.0199 0.29762-0.0992 0.0992-0.0596 0.19842-0.27779 0.11904-0.19842 0.21825-0.43652l0.41669-1.0119z"/>
   <path d="m320.04 216.14h2.4604v1.9445q0.13889-0.39684 0.29762-0.79367 0.15873-0.39684 0.43652-0.71431 0.29763-0.31746 0.77383-0.51589 0.47621-0.19841 1.25-0.19841 0.3373 0 0.67463 0.0397 0.33731 0.0199 0.67461 0.0595v2.2818h-1.6866q-0.47619 0-0.89287 0.13889-0.41669 0.13889-0.71431 0.49605-0.33731 0.43652-0.43653 1.0516-0.0793 0.61509-0.0793 0.99209v5.6152h-2.758z"/>
   <path d="m332.28 215 1.0318-3.0556h2.3413l-2.0636 3.0556zm2.8175 5.2779q0-0.45637-0.0793-0.87305-0.0596-0.41668-0.27779-0.73414-0.19841-0.3373-0.59526-0.51588-0.39684-0.19842-1.0714-0.19842-0.83335 0-1.3096 0.21825-0.4762 0.21826-0.73414 0.55557-0.2381 0.33732-0.31748 0.754-0.0793 0.39683-0.1389 0.79367zm-4.5835 1.9246q0 1.25 0.53573 1.885 0.53573 0.63494 2.004 0.63494 0.63494 0 0.9921-0.0992 0.37698-0.11906 0.5754-0.29764 0.19842-0.17857 0.27778-0.39682 0.0992-0.23812 0.15875-0.47621h2.6985q-0.0794 0.47621-0.27778 1.0714-0.19842 0.57542-0.71431 1.0913-0.51588 0.49603-1.4484 0.85318-0.93257 0.33732-2.4802 0.33732-2.6588 0-3.8692-1.3492-1.1905-1.3691-1.1905-4.0874 0-1.25 0.25796-2.262 0.27778-1.0119 0.87304-1.7262 0.61508-0.73416 1.6072-1.131 0.99209-0.39684 2.4405-0.39684 1.7262 0 2.7382 0.57541 1.0119 0.57541 1.5278 1.4881 0.51588 0.89289 0.63493 2.0239 0.1389 1.131 0.0794 2.2619z"/>
   <path d="m339.76 216.14h2.6588v1.4088q0.0793-0.23811 0.17858-0.53573 0.11905-0.29763 0.39682-0.53572 0.29763-0.25794 0.81351-0.43653 0.51589-0.17857 1.3889-0.17857 0.89288 0 1.5874 0.17857 0.69445 0.15873 1.1508 0.55557 0.45636 0.377 0.69446 1.0119 0.2381 0.63493 0.2381 1.5675v7.3613h-2.758v-6.8851q0-0.77383-0.37699-1.1905-0.377-0.43652-1.4484-0.43652-0.87305 0-1.3294 0.37699-0.43651 0.35716-0.43651 1.4286v6.7065h-2.758z"/>
   <path d="m355.29 215 1.0318-3.0556h2.3413l-2.0635 3.0556zm2.8175 5.2779q0-0.45637-0.0793-0.87305-0.0596-0.41668-0.27779-0.73414-0.19842-0.3373-0.59525-0.51588-0.39684-0.19842-1.0715-0.19842-0.83335 0-1.3096 0.21825-0.4762 0.21826-0.73414 0.55557-0.23811 0.33732-0.31747 0.754-0.0793 0.39683-0.1389 0.79367zm-4.5834 1.9246q0 1.25 0.53572 1.885 0.53573 0.63494 2.004 0.63494 0.63494 0 0.99209-0.0992 0.37699-0.11906 0.57541-0.29764 0.19842-0.17857 0.27778-0.39682 0.0992-0.23812 0.15873-0.47621h2.6985q-0.0794 0.47621-0.27779 1.0714-0.19841 0.57542-0.71429 1.0913-0.51589 0.49603-1.4485 0.85318-0.93256 0.33732-2.4802 0.33732-2.6588 0-3.8691-1.3492-1.1905-1.3691-1.1905-4.0874 0-1.25 0.25794-2.262 0.2778-1.0119 0.87305-1.7262 0.61509-0.73416 1.6072-1.131 0.99208-0.39684 2.4405-0.39684 1.7262 0 2.7382 0.57541 1.0119 0.57541 1.5278 1.4881 0.51588 0.89289 0.63494 2.0239 0.1389 1.131 0.0794 2.2619z"/>
   <path d="m369.62 220.28q0-0.45637-0.0794-0.87305-0.0596-0.41668-0.27779-0.73414-0.19843-0.3373-0.59524-0.51588-0.39683-0.19842-1.0715-0.19842-0.83334 0-1.3095 0.21825-0.47622 0.21826-0.73415 0.55557-0.2381 0.33732-0.31747 0.754-0.0793 0.39683-0.13889 0.79367zm-4.5834 1.9246q0 1.25 0.53574 1.885 0.53572 0.63494 2.004 0.63494 0.63494 0 0.99208-0.0992 0.377-0.11906 0.57541-0.29764 0.19842-0.17857 0.2778-0.39682 0.0992-0.23812 0.15873-0.47621h2.6985q-0.0794 0.47621-0.27779 1.0714-0.19841 0.57542-0.7143 1.0913-0.51589 0.49603-1.4484 0.85318-0.93255 0.33732-2.4802 0.33732-2.6588 0-3.8692-1.3492-1.1905-1.3691-1.1905-4.0874 0-1.25 0.25794-2.262 0.27778-1.0119 0.87304-1.7262 0.6151-0.73416 1.6072-1.131t2.4406-0.39684q1.7262 0 2.7381 0.57541t1.5278 1.4881q0.51588 0.89289 0.63494 2.0239 0.13888 1.131 0.0794 2.2619z"/>
   <path d="m378.49 226.81q-1.1508 0-1.9445-0.21826-0.79368-0.21826-1.3294-0.55557-0.51588-0.33732-0.81351-0.77383-0.29762-0.43653-0.45636-0.87304-0.13889-0.45635-0.17858-0.8532-0.0397-0.41667-0.0397-0.69446h2.5993q0.0199 0.37699 0.0596 0.73415 0.0397 0.3373 0.23811 0.59525 0.19842 0.25794 0.63493 0.41669 0.43653 0.13888 1.2699 0.13888 0.39684 0 0.75398-0.0199 0.377-0.0199 0.65478-0.13889 0.2778-0.11905 0.43653-0.377 0.17857-0.25794 0.17857-0.73414 0-0.35715-0.15873-0.53573-0.15875-0.19842-0.49605-0.29763-0.33731-0.11905-0.87303-0.19841-0.53574-0.0992-1.2897-0.27779-0.97225-0.19842-1.6667-0.45636-0.69447-0.25795-1.1508-0.6151-0.43651-0.35715-0.65478-0.85318-0.19841-0.49605-0.19841-1.1905 0-0.93257 0.3373-1.5477 0.35716-0.6151 0.95242-0.97225 0.59524-0.35715 1.3889-0.49605 0.79367-0.15873 1.6667-0.15873 1.1111 0 1.8651 0.21826 0.754 0.19842 1.25 0.53573 0.49604 0.33731 0.75398 0.75399 0.25794 0.39683 0.37701 0.79367 0.13889 0.37699 0.15873 0.7143 0.0199 0.33732 0.0397 0.51589h-2.5993q-0.0397-0.35715-0.0992-0.63493-0.0596-0.27779-0.25794-0.45636-0.19842-0.19843-0.55557-0.29764-0.35715-0.0992-0.97225-0.0992-0.29763 0-0.59526 0.0397-0.29763 0.0199-0.53573 0.13889-0.21827 0.0992-0.37699 0.29763-0.13889 0.17858-0.13889 0.4762 0 0.31748 0.13889 0.49605 0.1389 0.17858 0.4762 0.31747 0.35716 0.11905 0.95241 0.2381 0.61509 0.11905 1.5476 0.31747 0.83337 0.17858 1.4683 0.45635 0.65479 0.25794 1.0913 0.65477 0.43653 0.377 0.65479 0.91273 0.21826 0.51589 0.21826 1.25 0 1.7262-1.2302 2.5199-1.2104 0.79367-3.5517 0.79367z"/>
  </g>
 </g>
</svg>
