<svg xmlns="http://www.w3.org/2000/svg" height="347.35" width="600" version="1.1" xmlns:xlink="http://www.w3.org/1999/xlink" viewBox="0 0 158.75 91.902363">
 <defs>
  <linearGradient id="b" y2="568.01" gradientUnits="userSpaceOnUse" x2="1551.5" gradientTransform="matrix(.11256 0 0 -.11256 -114.87 259.58)" y1="1360" x1="1482.2">
   <stop stop-color="#649dcb" offset="0"/>
   <stop stop-color="#619bca" offset=".0067"/>
   <stop stop-color="#4c8fc7" offset=".0557"/>
   <stop stop-color="#3f88c6" offset=".1039"/>
   <stop stop-color="#3b86c5" offset="0.15"/>
   <stop stop-color="#488cc6" offset=".29660"/>
   <stop stop-color="#6199c9" offset=".5"/>
   <stop stop-color="#5193c7" offset=".63810"/>
   <stop stop-color="#2882c2" offset=".90610"/>
   <stop stop-color="#187cc0" offset="1"/>
  </linearGradient>
  <linearGradient id="a" y2="739.92" gradientUnits="userSpaceOnUse" x2="1577.6" gradientTransform="matrix(.11256 0 0 -.11256 -114.87 259.58)" y1="1228.6" x1="1577.6">
   <stop stop-color="#fff" offset=".5"/>
   <stop stop-color="#bfbfbf" offset="1"/>
  </linearGradient>
 </defs>
 <g transform="translate(-26.458 -102.88)">
  <g stroke-width=".11256">
   <path d="m26.458 180.74c0 1.2382 0.99102 2.4618 2.2021 2.7192l53.06 11.278c1.2113 0.25743 2.2021-0.54505 2.2021-1.7833v-88.24c0-1.2382-0.99102-2.0407-2.2021-1.7832l-53.06 11.278c-1.2111 0.25744-2.2021 1.4811-2.2021 2.7193z" fill="#187cc0"/>
   <path d="m27.077 179.97c0 1.2382 0.99102 2.4618 2.2021 2.7192l51.766 11.003c1.2112 0.25744 2.2021-0.54504 2.2021-1.7832v-86.151c0-1.2382-0.99102-2.0407-2.2021-1.7832l-51.766 11.003c-1.2111 0.25743-2.2021 1.4811-2.2021 2.7193z" fill="url(#b)"/>
   <path d="m26.96 116.47s50.636-6.0284 56.962 7.6568l0.0011 27.537s-0.38058 16.61-8.1576 19.102l-25.514 5.4147s-22.118 7.4037-23.551-39.659c-0.66751-15.315 0.26014-20.052 0.26014-20.052z" fill="#187cc0"/>
   <path d="m83.919 152.86c-1.7057-6.0034-6.6083-9.2186-13.446-9.9832 0.0061 0 7.1068-5.2324 13.45-10.375v-11.22h-40.779l-0.0014 12.494h22.984c-0.04683 0.0369-14.397 11.135-14.397 11.135l5.3758 8.0375s3.2311-1.6645 6.144-1.6645c5.1611 0 7.1927 2.1626 7.1927 7.0362 0 5.2834-2.4233 7.6178-7.2957 7.6178-5.9019 0-7.1111-4.2188-7.1111-7.2459h-14.514c-0.27263 10.27 6.0048 17.602 20.914 17.602 11.539 0 19.26-4.0241 21.483-12.684v-10.751z" fill="url(#a)"/>
  </g>
  <g fill="#187cc0">
   <path d="m104.3 152.51q1.2701 0 1.8144-0.62497 0.56448-0.62497 0.54433-1.6532v-1.0886q-0.16129 0.1008-0.32257 0.16129-0.48385 0.24191-1.1088 0.3024-0.60481 0.0605-1.1491 0.18143-0.52417 0.12097-0.88706 0.44353-0.36289 0.30241-0.36289 1.0282 0 0.4032 0.14112 0.66529 0.14113 0.24192 0.3629 0.38304 0.22176 0.12096 0.46367 0.16128 0.2621 0.0403 0.50402 0.0403zm-3.8506-5.4836v-0.46369q0.0202-0.66529 0.26208-1.2298 0.24193-0.58466 0.7661-1.008 0.54432-0.42338 1.4314-0.66531 0.88704-0.24192 2.2176-0.24192 2.1571 0 3.1853 0.78625 1.0483 0.78625 1.0483 2.7217v4.4957q0 0.34274 0.0403 0.48385 0.0403 0.12097 0.1008 0.16129 0.0605 0.0403 0.2016 0.10079 0.16128 0.0605 0.42337 0.0403v2.0563h-1.3911q-0.38304 0-0.68545-0.0605-0.3024-0.0806-0.58465-0.32256-0.22177-0.2016-0.34272-0.44353-0.12096-0.26208-0.22177-0.44351-0.28225 0.48385-0.58465 0.80639-0.3024 0.30243-0.68545 0.4637-0.36288 0.16128-0.80641 0.22177-0.44352 0.0605-0.96769 0.0605-2.0362 0-2.9434-0.90721-0.88705-0.90722-0.88705-2.52 0-1.1491 0.42336-1.7338 0.42337-0.58464 1.0282-0.88705 0.504-0.22176 1.2499-0.32256 0.74594-0.10081 1.4919-0.16129 0.74593-0.0605 1.3507-0.12096 0.6048-0.0605 0.82657-0.22176 0.12097-0.1008 0.18144-0.38304 0.0806-0.28225 0.0806-0.64513 0-0.56449-0.34272-0.90721-0.34272-0.34274-1.3306-0.34274-0.74593 0-1.129 0.14113-0.38304 0.12097-0.56449 0.36288-0.18144 0.22177-0.22176 0.52417-0.0403 0.28224-0.0605 0.60482z"/>
   <path d="m119.11 148.7q0-1.5322-0.54434-2.3588-0.54432-0.82657-1.7741-0.82657-0.72578 0-1.1693 0.30241-0.42337 0.3024-0.64513 0.80641-0.22176 0.48385-0.30241 1.1491-0.0605 0.64515-0.0605 1.3508 0 0.70559 0.0403 1.3104 0.0605 0.58466 0.26208 1.0282 0.2016 0.44351 0.6048 0.68543 0.40322 0.24194 1.0887 0.24194 0.80642 0 1.2903-0.2621 0.50401-0.28224 0.7661-0.76609 0.28224-0.48385 0.36288-1.1491 0.0806-0.68545 0.0806-1.512zm0 9.052v-4.5562q-0.16128 0.22176-0.38305 0.46369-0.2016 0.24192-0.52416 0.44353-0.32256 0.18143-0.80641 0.3024-0.48386 0.14112-1.1693 0.14112-2.2378 0-3.3466-1.3507-1.0886-1.3507-1.0886-4.1732 0-2.7015 1.0886-4.153 1.1088-1.4516 3.3264-1.4516 0.74593 0 1.25 0.1613 0.52415 0.1411 0.86689 0.38304 0.36287 0.22176 0.58463 0.504 0.22178 0.28224 0.34274 0.56448v-1.3306h2.6612v14.052z"/>
   <path d="m124.26 143.7h2.8023v7.0359q0 1.6128 1.7943 1.6128 1.0685 0 1.4717-0.42338 0.4032-0.42336 0.4032-1.3306v-6.8948h2.8023v10.564h-2.7418v-1.1693q-0.1613 0.28225-0.32257 0.54434-0.14112 0.26208-0.46368 0.46369-0.30242 0.20159-0.84674 0.32256-0.52417 0.12096-1.4314 0.12096-1.2096 0-1.8951-0.34273-0.68545-0.36289-1.0483-0.84674-0.34273-0.504-0.44353-1.0282-0.0806-0.52417-0.0806-0.86688z"/>
   <path d="m135.83 143.7h2.8023v10.564h-2.8023zm0-4.0119h2.8023v2.641h-2.8023z"/>
   <path d="m139.86 143.7h1.3911v-3.3466h2.8023v3.3466h1.7338v1.8548h-1.7338v5.4634q0 0.4032 0.0202 0.6048 0.0202 0.20161 0.16128 0.34273 0.12097 0.12096 0.28224 0.14112 0.18145 0.0202 0.3629 0.0202h0.9072v2.137h-1.633q-0.28224 0-0.60481 0-0.32256-0.0202-0.64513-0.0605-0.32256-0.0605-0.60481-0.16128-0.28224-0.12097-0.48385-0.30241-0.20159-0.18144-0.32256-0.44353-0.1008-0.28224-0.16128-0.56448-0.0605-0.30241-0.0806-0.58466 0-0.3024 0-0.54432v-6.0481h-1.3911z"/>
   <path d="m150.74 152.51q1.2701 0 1.8144-0.62497 0.56449-0.62497 0.54434-1.6532v-1.0886q-0.16129 0.1008-0.32257 0.16129-0.48385 0.24191-1.1088 0.3024-0.60481 0.0605-1.1491 0.18143-0.52417 0.12097-0.88706 0.44353-0.36288 0.30241-0.36288 1.0282 0 0.4032 0.14112 0.66529 0.14113 0.24192 0.36289 0.38304 0.22176 0.12096 0.46368 0.16128 0.26208 0.0403 0.50401 0.0403zm-3.8506-5.4836v-0.46369q0.0202-0.66529 0.26208-1.2298 0.24192-0.58466 0.76609-1.008 0.54432-0.42338 1.4314-0.66531 0.88705-0.24192 2.2176-0.24192 2.1572 0 3.1853 0.78625 1.0483 0.78625 1.0483 2.7217v4.4957q0 0.34274 0.0403 0.48385 0.0403 0.12097 0.1008 0.16129 0.0605 0.0403 0.2016 0.10079 0.16129 0.0605 0.42337 0.0403v2.0563h-1.3911q-0.38305 0-0.68545-0.0605-0.30241-0.0806-0.58465-0.32256-0.22177-0.2016-0.34272-0.44353-0.12097-0.26208-0.22177-0.44351-0.28224 0.48385-0.58465 0.80639-0.30241 0.30243-0.68545 0.4637-0.36288 0.16128-0.80641 0.22177-0.44352 0.0605-0.96769 0.0605-2.0362 0-2.9434-0.90721-0.88705-0.90722-0.88705-2.52 0-1.1491 0.42337-1.7338 0.42336-0.58464 1.0282-0.88705 0.50401-0.22176 1.2499-0.32256 0.74593-0.10081 1.4919-0.16129 0.74593-0.0605 1.3507-0.12096 0.60481-0.0605 0.82657-0.22176 0.12097-0.1008 0.18144-0.38304 0.0806-0.28225 0.0806-0.64513 0-0.56449-0.34272-0.90721-0.34274-0.34274-1.3306-0.34274-0.74593 0-1.129 0.14113-0.38305 0.12097-0.5645 0.36288-0.18143 0.22177-0.22176 0.52417-0.0403 0.28224-0.0605 0.60482z"/>
   <path d="m158.54 143.7h2.8023v10.564h-2.8023zm0-4.0119h2.8023v2.641h-2.8023z"/>
   <path d="m163.66 143.7h2.7015v1.4314q0.0806-0.24192 0.18145-0.54432 0.12095-0.30242 0.4032-0.54434 0.30241-0.26208 0.82658-0.44353 0.52416-0.18144 1.4112-0.18144 0.90722 0 1.6128 0.18144 0.70561 0.16128 1.1693 0.56449 0.46369 0.38304 0.70561 1.0282 0.24192 0.64513 0.24192 1.5927v7.4795h-2.8023v-6.9956q0-0.78626-0.38303-1.2096-0.38305-0.44352-1.4717-0.44352-0.88705 0-1.3507 0.38304-0.44352 0.36289-0.44352 1.4516v6.8142h-2.8023z"/>
   <path d="m182.31 147.92q0-0.46368-0.0806-0.88705-0.0605-0.42337-0.28225-0.74594-0.20159-0.34272-0.6048-0.52416-0.4032-0.2016-1.0886-0.2016-0.84673 0-1.3306 0.22176-0.48385 0.22176-0.74593 0.56448-0.24193 0.34272-0.32256 0.7661-0.0806 0.4032-0.14112 0.80641zm-4.657 1.9556q0 1.2701 0.54434 1.9152 0.54433 0.64513 2.0362 0.64513 0.64513 0 1.008-0.10079 0.38305-0.12097 0.58465-0.3024 0.20161-0.18145 0.28224-0.40322 0.10081-0.24192 0.16129-0.48385h2.7418q-0.0806 0.48385-0.28224 1.0887-0.20162 0.58466-0.72578 1.1088-0.52417 0.504-1.4717 0.86689-0.94753 0.34273-2.52 0.34273-2.7015 0-3.9313-1.3709-1.2096-1.3911-1.2096-4.153 0-1.2701 0.26208-2.2983 0.28224-1.0282 0.88705-1.754 0.62498-0.74592 1.633-1.1491 1.008-0.40321 2.4797-0.40321 1.7539 0 2.7821 0.58466 1.0282 0.58465 1.5523 1.512 0.52417 0.90721 0.64513 2.0564 0.14112 1.1491 0.0806 2.2983z"/>
  </g>
 </g>
</svg>
