<svg xmlns="http://www.w3.org/2000/svg" height="300.66" width="600" version="1.1" xmlns:xlink="http://www.w3.org/1999/xlink" viewBox="0 0 158.75 79.550557">
 <defs>
  <linearGradient id="b" y2="568.01" gradientUnits="userSpaceOnUse" x2="1551.5" gradientTransform="matrix(.097436 0 0 -.097436 -95.873 244.7)" y1="1360" x1="1482.2">
   <stop stop-color="#649dcb" offset="0"/>
   <stop stop-color="#619bca" offset=".0067"/>
   <stop stop-color="#4c8fc7" offset=".0557"/>
   <stop stop-color="#3f88c6" offset=".1039"/>
   <stop stop-color="#3b86c5" offset="0.15"/>
   <stop stop-color="#488cc6" offset=".29660"/>
   <stop stop-color="#6199c9" offset=".5"/>
   <stop stop-color="#5193c7" offset=".63810"/>
   <stop stop-color="#2882c2" offset=".90610"/>
   <stop stop-color="#187cc0" offset="1"/>
  </linearGradient>
  <linearGradient id="a" y2="739.92" gradientUnits="userSpaceOnUse" x2="1577.6" gradientTransform="matrix(.097436 0 0 -.097436 -95.873 244.7)" y1="1228.6" x1="1577.6">
   <stop stop-color="#fff" offset=".5"/>
   <stop stop-color="#bfbfbf" offset="1"/>
  </linearGradient>
 </defs>
 <g transform="translate(-26.458 -109.06)">
  <g stroke-width=".097436">
   <path d="m26.458 176.45c0 1.0718 0.85783 2.1309 1.9061 2.3538l45.929 9.7624c1.0485 0.22283 1.9061-0.4718 1.9061-1.5436v-76.38c0-1.0718-0.85783-1.7664-1.9061-1.5436l-45.929 9.7625c-1.0483 0.22284-1.9061 1.2821-1.9061 2.3539z" fill="#187cc0"/>
   <path d="m26.994 175.78c0 1.0718 0.85783 2.1309 1.9061 2.3538l44.808 9.5243c1.0484 0.22285 1.9061-0.47178 1.9061-1.5436v-74.572c0-1.0718-0.85783-1.7664-1.9061-1.5436l-44.808 9.5244c-1.0483 0.22283-1.9061 1.282-1.9061 2.3538z" fill="url(#b)"/>
   <path d="m26.893 120.82s43.83-5.2182 49.306 6.6277l0.000959 23.836s-0.32943 14.377-7.0612 16.535l-22.085 4.687s-19.145 6.4087-20.386-34.329c-0.5778-13.256 0.22517-17.357 0.22517-17.357z" fill="#187cc0"/>
   <path d="m76.196 152.32c-1.4764-5.1965-5.7202-7.9796-11.639-8.6414 0.0052 0 6.1516-4.5291 11.642-8.981v-9.7103h-35.298l-0.0012 10.815h19.895c-0.04054 0.0319-12.462 9.6383-12.462 9.6383l4.6532 6.9572s2.7968-1.4408 5.3183-1.4408c4.4674 0 6.226 1.872 6.226 6.0905 0 4.5734-2.0976 6.594-6.3151 6.594-5.1087 0-6.1553-3.6518-6.1553-6.272h-12.562c-0.23599 8.8894 5.1977 15.236 18.103 15.236 9.9884 0 16.671-3.4832 18.596-10.979v-9.3061z" fill="url(#a)"/>
  </g>
  <g fill="#187cc0">
   <path d="m96.61 137.53q-0.05238-0.26176-0.10471-0.52352-0.03489-0.27921-0.22686-0.50607-0.17451-0.22685-0.54098-0.36646-0.34901-0.13961-1.0296-0.13961-0.66313 0-1.0819 0.24431-0.41882 0.22686-0.66313 0.61077-0.22686 0.38392-0.31411 0.88999-0.08725 0.50608-0.08725 1.047 0 0.78529 0.08725 1.3961 0.1047 0.59332 0.33157 1.0121 0.24431 0.40137 0.62822 0.61078 0.40137 0.19195 0.99469 0.19195 0.75039 0 1.1343-0.15705 0.40137-0.15706 0.57588-0.40137 0.17451-0.26176 0.20941-0.59333 0.03489-0.34901 0.08725-0.71548h2.3908q0 0.54098-0.17451 1.1867-0.17451 0.62822-0.64568 1.1866-0.47117 0.54098-1.3263 0.90744-0.83763 0.36647-2.1813 0.36647-2.1813 0-3.3505-1.2041-1.1518-1.2041-1.1518-3.6472 0-1.0296 0.24431-1.9021 0.24431-0.87253 0.78528-1.5182 0.55842-0.64567 1.4484-0.99468 0.90743-0.36648 2.2162-0.36648 1.1343 0 1.9021 0.27921 0.78528 0.27922 1.2565 0.75039 0.48861 0.47117 0.69802 1.0819 0.20941 0.61078 0.20941 1.2739z"/>
   <path d="m100.69 143.53v-12.617h2.4256v4.5546q0.13961-0.36646 0.31411-0.61077 0.17451-0.26177 0.45372-0.41882 0.29667-0.15705 0.73293-0.22686 0.45372-0.0698 1.1518-0.0698 0.40136 0 0.90744 0.0698 0.52352 0.0524 0.95979 0.36647 0.45372 0.31411 0.75038 0.95978 0.31411 0.64568 0.31411 1.8149v6.1776h-2.4256v-6.038q0-0.48862-0.12215-0.76783-0.12216-0.29666-0.33157-0.45371-0.20941-0.15707-0.50607-0.19197-0.27921-0.0524-0.61077-0.0524-0.85509 0-1.2216 0.36646-0.36647 0.34902-0.36647 1.2914v5.846z"/>
   <path d="m114.07 142.01q1.0994 0 1.5706-0.54097 0.48862-0.54097 0.47117-1.431v-0.94235q-0.1396 0.0873-0.27921 0.13961-0.41881 0.20941-0.95979 0.26176-0.52352 0.0524-0.99469 0.15706-0.45372 0.1047-0.76783 0.38392-0.31411 0.26175-0.31411 0.88998 0 0.34901 0.12215 0.57587 0.12216 0.20941 0.31411 0.33157 0.19196 0.1047 0.40137 0.1396 0.22686 0.0349 0.43627 0.0349zm-3.3331-4.7466v-0.40136q0.0175-0.57588 0.22686-1.0645 0.20941-0.50607 0.66313-0.87253 0.47117-0.36647 1.239-0.57588t1.9196-0.20941q1.8672 0 2.7572 0.68058 0.90744 0.68058 0.90744 2.3559v3.8915q0 0.29666 0.0349 0.41882 0.0349 0.10471 0.0873 0.13961t0.17451 0.0873q0.13961 0.0524 0.36646 0.0349v1.78h-1.2041q-0.33156 0-0.59332-0.0524-0.26176-0.0698-0.50607-0.27922-0.19196-0.17451-0.29667-0.38392-0.1047-0.22686-0.19196-0.38392-0.24431 0.41882-0.50606 0.69804-0.26177 0.26175-0.59333 0.40136-0.31411 0.1396-0.69803 0.19196-0.38392 0.0524-0.83763 0.0524-1.7625 0-2.5478-0.78529-0.76783-0.78528-0.76783-2.1813 0-0.99469 0.36647-1.5008 0.36646-0.50607 0.88999-0.76784 0.43626-0.19195 1.0819-0.27921 0.64568-0.0872 1.2914-0.1396 0.64568-0.0524 1.1692-0.10471 0.52352-0.0524 0.71548-0.19195 0.1047-0.0873 0.15705-0.33157 0.0698-0.2443 0.0698-0.55842 0-0.48861-0.29666-0.78528-0.29666-0.29666-1.1518-0.29666-0.64568 0-0.97723 0.12215-0.33157 0.1047-0.48863 0.31411-0.15705 0.19196-0.19196 0.45372-0.0349 0.24431-0.0524 0.52353z"/>
   <path d="m120.88 134.39h2.3035v1.239q0.13962-0.31411 0.26177-0.57588 0.1396-0.27921 0.38391-0.47117 0.26177-0.2094 0.66313-0.31411 0.41881-0.12216 1.1168-0.12216 0.69803 0 1.1343 0.15706 0.45372 0.13961 0.71548 0.36646 0.26176 0.22687 0.38392 0.52353 0.1396 0.27921 0.22685 0.55842 0.29668-0.80274 0.85509-1.2041 0.57588-0.40137 1.78-0.40137 0.59333 0 1.1343 0.17451 0.55843 0.15706 0.97725 0.50607 0.43626 0.33156 0.68057 0.85509 0.26176 0.52352 0.26176 1.239v6.6138h-2.4256v-6.0205q0-0.71548-0.36648-1.0645-0.34901-0.34901-0.95979-0.34901-1.4659 0-1.4659 1.431v6.0031h-2.4256v-6.1252q0-1.3437-1.3262-1.3437-0.52353 0-0.83764 0.1745-0.29666 0.15706-0.43626 0.41882-0.13961 0.26177-0.17451 0.55842-0.0349 0.29667-0.0349 0.55842v5.7588h-2.4256z"/>
   <path d="m142.21 138.66q0-1.3612-0.40137-2.0068-0.40136-0.64568-1.3961-0.64568-0.99468 0-1.5531 0.64568t-0.55842 2.2337q0 0.66313 0.1047 1.239 0.10471 0.55843 0.34901 0.97724 0.24432 0.40137 0.64568 0.62823 0.40138 0.22686 1.0121 0.22686 0.68059 0 1.0296-0.24431 0.36646-0.26176 0.54098-0.69803 0.1745-0.43627 0.19195-1.0296 0.0349-0.61078 0.0349-1.3263zm-6.2474-4.2754h2.3384v1.082q0.12216-0.20941 0.31412-0.43627 0.2094-0.22686 0.50606-0.41881 0.29667-0.20941 0.73293-0.33156 0.43627-0.13962 1.0645-0.13962 1.0122 0 1.7276 0.38392 0.71547 0.36647 1.1692 1.0296t0.64568 1.5706q0.20941 0.88999 0.20941 1.937 0 0.97725-0.19196 1.8498-0.1745 0.85508-0.61077 1.5008-0.43626 0.62823-1.1692 0.99469-0.73294 0.36647-1.8498 0.36647-1.047 0-1.6229-0.31412-0.57587-0.33156-0.83763-0.73293v3.8217h-2.4257z"/>
   <path d="m149.55 142.01q1.0994 0 1.5706-0.54097 0.48862-0.54097 0.47118-1.431v-0.94235q-0.13962 0.0873-0.27921 0.13961-0.41882 0.20941-0.9598 0.26176-0.52351 0.0524-0.9947 0.15706-0.45371 0.1047-0.76783 0.38392-0.31411 0.26175-0.31411 0.88998 0 0.34901 0.12216 0.57587 0.12215 0.20941 0.31411 0.33157 0.19196 0.1047 0.40136 0.1396 0.22688 0.0349 0.43627 0.0349zm-3.3331-4.7466v-0.40136q0.0175-0.57588 0.22685-1.0645 0.20941-0.50607 0.66313-0.87253 0.47118-0.36647 1.239-0.57588t1.9196-0.20941q1.8672 0 2.7572 0.68058 0.90744 0.68058 0.90744 2.3559v3.8915q0 0.29666 0.0349 0.41882 0.0349 0.10471 0.0873 0.13961t0.1745 0.0873q0.13961 0.0524 0.36646 0.0349v1.78h-1.2041q-0.33155 0-0.59331-0.0524-0.26176-0.0698-0.50608-0.27922-0.19195-0.17451-0.29665-0.38392-0.10471-0.22686-0.19196-0.38392-0.24432 0.41882-0.50608 0.69804-0.26176 0.26175-0.59332 0.40136-0.31411 0.1396-0.69803 0.19196-0.38392 0.0524-0.83763 0.0524-1.7625 0-2.5478-0.78529-0.76783-0.78528-0.76783-2.1813 0-0.99469 0.36646-1.5008 0.36647-0.50607 0.88999-0.76784 0.43626-0.19195 1.0819-0.27921 0.64568-0.0872 1.2914-0.1396 0.64568-0.0524 1.1692-0.10471 0.52352-0.0524 0.71548-0.19195 0.10471-0.0873 0.15706-0.33157 0.0698-0.2443 0.0698-0.55842 0-0.48861-0.29667-0.78528-0.29666-0.29666-1.1517-0.29666-0.64568 0-0.97725 0.12215-0.33157 0.1047-0.48862 0.31411-0.15706 0.19196-0.19196 0.45372-0.0349 0.24431-0.0524 0.52353z"/>
   <path d="m162.14 138.58q0-1.3088-0.36647-1.9545-0.34902-0.64568-1.3612-0.64568-1.0819 0-1.5706 0.57588-0.47116 0.55842-0.47116 1.9196 0 0.50609 0.0349 0.9947t0.20941 0.87253q0.19195 0.38392 0.59332 0.62823 0.40137 0.22686 1.1343 0.22686 0.62823 0 0.97724-0.22686 0.36647-0.24431 0.54097-0.62823 0.19197-0.38392 0.22686-0.83763 0.0524-0.47117 0.0524-0.9249zm-2.0592 7.975q-1.082 0-1.7974-0.22686-0.69804-0.22686-1.1169-0.61077-0.40135-0.38392-0.57587-0.90744-0.15706-0.50607-0.15706-1.082h2.1813q0.0175 0.24431 0.0524 0.41882 0.0349 0.19196 0.1745 0.31411 0.15706 0.12216 0.47118 0.17451 0.33155 0.0698 0.95978 0.0698 0.83763 0 1.3263-0.20941 0.50606-0.19195 0.50606-0.87253v-1.7276q-0.0349 0.0524-0.1396 0.22687-0.1047 0.15705-0.36646 0.34901-0.24432 0.19195-0.66313 0.34901-0.41882 0.13962-1.082 0.13962-0.82018 0-1.5357-0.20942-0.71548-0.22686-1.239-0.71548-0.52351-0.50607-0.83763-1.3262-0.29666-0.82019-0.29666-2.0243 0-1.047 0.22686-1.8847 0.22686-0.83764 0.68058-1.4135 0.45371-0.59333 1.1518-0.90744 0.71547-0.33156 1.6927-0.33156 0.68058 0 1.1343 0.15705 0.45372 0.15706 0.75037 0.40136 0.29666 0.22687 0.47118 0.50608 0.17449 0.26175 0.27921 0.47116v-1.2914h2.1988v9.0918q0 1.588-1.082 2.321-1.0819 0.75038-3.368 0.75038z"/>
   <path d="m166.56 134.39h2.3384v1.239q0.0698-0.20941 0.15707-0.47118 0.1047-0.26175 0.34902-0.47116 0.26175-0.22686 0.71547-0.38392t1.2216-0.15706q0.78528 0 1.396 0.15706 0.61078 0.13961 1.0122 0.48862 0.40136 0.33157 0.61078 0.88999 0.2094 0.55842 0.2094 1.3786v6.4742h-2.4256v-6.0554q0-0.68057-0.33157-1.047-0.33157-0.38392-1.2739-0.38392-0.76783 0-1.1692 0.33157-0.38392 0.31411-0.38392 1.2564v5.8984h-2.4257z"/>
   <path d="m182.7 138.03q0-0.40137-0.0698-0.76784-0.0524-0.36646-0.24432-0.64567-0.17449-0.29667-0.52351-0.45372-0.34902-0.17451-0.94234-0.17451-0.73293 0-1.1518 0.19196-0.41881 0.19196-0.64568 0.48862-0.20941 0.29666-0.27921 0.66313-0.0698 0.34901-0.12216 0.69803zm-4.0311 1.6927q0 1.0994 0.47117 1.6578 0.47116 0.55842 1.7625 0.55842 0.55843 0 0.87254-0.0873 0.33156-0.1047 0.50606-0.26175 0.17452-0.15706 0.24432-0.34902 0.0873-0.2094 0.1396-0.41882h2.3733q-0.0698 0.41882-0.24431 0.94234-0.17451 0.50607-0.62823 0.95979-0.45372 0.43627-1.2739 0.75038-0.82018 0.29667-2.1813 0.29667-2.3384 0-3.4029-1.1867-1.047-1.2041-1.047-3.5948 0-1.0994 0.22687-1.9894 0.24432-0.88999 0.76783-1.5182 0.54097-0.64568 1.4135-0.99469 0.87253-0.34902 2.1464-0.34902 1.5182 0 2.4082 0.50608 0.88998 0.50606 1.3437 1.3088 0.45372 0.78528 0.55843 1.78 0.12216 0.9947 0.0698 1.9894z"/>
   <path d="m93.835 164.07q1.0994 0 1.5706-0.54098 0.48861-0.54097 0.47117-1.431v-0.94234q-0.13961 0.0873-0.27921 0.13961-0.41882 0.20941-0.95979 0.26176-0.52352 0.0524-0.9947 0.15706-0.45372 0.10471-0.76783 0.38391-0.31411 0.26177-0.31411 0.88999 0 0.34902 0.12216 0.57587 0.12216 0.20941 0.31411 0.33157 0.19196 0.1047 0.40137 0.13961 0.22686 0.0349 0.43627 0.0349zm-3.3331-4.7466v-0.40136q0.01748-0.57588 0.22686-1.0645 0.2094-0.50606 0.66312-0.87253 0.47117-0.36647 1.239-0.57588t1.9196-0.20941q1.8672 0 2.7572 0.68058 0.90744 0.68058 0.90744 2.3558v3.8915q0 0.29665 0.03489 0.41881 0.03489 0.10472 0.08725 0.13962 0.05238 0.0349 0.1745 0.0872 0.13961 0.0524 0.36647 0.0349v1.78h-1.2041q-0.33156 0-0.59332-0.0524-0.26176-0.0698-0.50608-0.2792-0.19196-0.17452-0.29666-0.38392-0.1047-0.22686-0.19196-0.38391-0.24431 0.41881-0.50608 0.69803-0.26176 0.26176-0.59332 0.40136-0.31411 0.1396-0.69803 0.19195-0.38391 0.0524-0.83763 0.0524-1.7625 0-2.5478-0.78528-0.76783-0.78529-0.76783-2.1814 0-0.99469 0.36646-1.5008 0.36646-0.50606 0.88999-0.76783 0.43627-0.19196 1.0819-0.27921 0.64568-0.0873 1.2914-0.13961 0.64568-0.0524 1.1692-0.1047 0.52352-0.0524 0.71548-0.19196 0.1047-0.0873 0.15705-0.33157 0.06979-0.24431 0.06979-0.55841 0-0.48863-0.29666-0.78529t-1.1517-0.29666q-0.64568 0-0.97724 0.12216-0.33156 0.1047-0.48862 0.31411-0.15706 0.19195-0.19196 0.45372-0.03489 0.24431-0.05238 0.52352z"/>
   <path d="m100.69 156.45h2.1639v1.7102q0.12215-0.34902 0.26176-0.69803t0.38392-0.62822q0.26176-0.27922 0.68058-0.45373 0.41881-0.17451 1.0994-0.17451 0.29666 0 0.59333 0.0349 0.29665 0.0175 0.59332 0.0524v2.0068h-1.4833q-0.41882 0-0.78529 0.12215-0.36646 0.12216-0.62822 0.43628-0.29666 0.38391-0.38392 0.92489-0.0698 0.54096-0.0698 0.87253v4.9386h-2.4256z"/>
   <path d="m113.17 161.04q0-1.588-0.48862-2.286-0.47117-0.71548-1.5706-0.71548-0.55842 0-0.92488 0.13961-0.34902 0.13961-0.55843 0.47117t-0.29666 0.85508q-0.0873 0.52353-0.0873 1.3088 0 0.71547 0.0698 1.3088 0.0698 0.57588 0.26176 0.9947 0.20941 0.40136 0.55843 0.62822 0.36646 0.20941 0.94234 0.20941 0.75038 0 1.1692-0.27921 0.43626-0.27922 0.62822-0.71548 0.20941-0.43627 0.24431-0.94234 0.0524-0.52353 0.0524-0.97725zm-2.5478-4.8338q0.59332 0 0.99469 0.10471 0.40137 0.0873 0.68058 0.24431 0.27921 0.15706 0.45372 0.34902 0.19196 0.19196 0.34901 0.36646v-4.2929h2.4256v12.617h-2.3035v-1.1168q-0.12216 0.19196-0.29666 0.43627-0.17451 0.22687-0.47118 0.43627-0.27921 0.20941-0.71547 0.34901-0.43627 0.13961-1.0645 0.13961-1.937 0-2.8968-1.3088-0.95979-1.3088-0.95979-3.5774 0-1.0645 0.19196-1.937 0.20941-0.88998 0.66313-1.5008 0.45372-0.62824 1.1692-0.9598 0.73293-0.34902 1.78-0.34902z"/>
   <path d="m123.71 160.1q0-0.40137-0.0698-0.76783-0.0524-0.36646-0.24431-0.64568-0.17451-0.29666-0.52352-0.45372-0.34902-0.17451-0.94233-0.17451-0.73294 0-1.1518 0.19196-0.41882 0.19196-0.64568 0.48863-0.2094 0.29665-0.27921 0.66312-0.0698 0.34901-0.12216 0.69803zm-4.0311 1.6927q0 1.0994 0.47117 1.6578 0.47117 0.55842 1.7625 0.55842 0.55843 0 0.87255-0.0873 0.33155-0.1047 0.50606-0.26175 0.17451-0.15707 0.24431-0.34902 0.0873-0.20942 0.13961-0.41882h2.3733q-0.0698 0.41882-0.24431 0.94233-0.17451 0.50608-0.62823 0.9598-0.45372 0.43626-1.2739 0.75037-0.82018 0.29667-2.1813 0.29667-2.3384 0-3.4029-1.1866-1.047-1.2041-1.047-3.5948 0-1.0994 0.22686-1.9894 0.24431-0.88998 0.76783-1.5182 0.54097-0.64568 1.4135-0.9947 0.87254-0.34902 2.1464-0.34902 1.5182 0 2.4082 0.50608 0.88998 0.50607 1.3437 1.3088 0.45372 0.78529 0.55843 1.78 0.12216 0.9947 0.0698 1.9894z"/>
   <path d="m127.81 156.45h2.3384v1.239q0.0698-0.20939 0.15705-0.47116 0.1047-0.26176 0.34901-0.47117 0.26177-0.22686 0.71548-0.38392 0.45372-0.15706 1.2216-0.15706 0.78527 0 1.396 0.15706 0.61078 0.13961 1.0122 0.48862 0.40136 0.33157 0.61077 0.89 0.20941 0.55841 0.20941 1.3786v6.4742h-2.4256v-6.0554q0-0.68059-0.33157-1.047-0.33156-0.38392-1.2739-0.38392-0.76784 0-1.1692 0.33157-0.38392 0.31411-0.38392 1.2564v5.8984h-2.4256z"/>
   <path d="m137.93 156.45h2.3384v1.239q0.0698-0.20939 0.15705-0.47116 0.10472-0.26176 0.34902-0.47117 0.26176-0.22686 0.71549-0.38392 0.45372-0.15706 1.2216-0.15706 0.78528 0 1.3961 0.15706 0.61077 0.13961 1.0121 0.48862 0.40137 0.33157 0.61078 0.89 0.20941 0.55841 0.20941 1.3786v6.4742h-2.4256v-6.0554q0-0.68059-0.33157-1.047-0.33156-0.38392-1.2739-0.38392-0.76782 0-1.1692 0.33157-0.38392 0.31411-0.38392 1.2564v5.8984h-2.4256z"/>
   <path d="m154.07 160.1q0-0.40137-0.0698-0.76783-0.0524-0.36646-0.2443-0.64568-0.17452-0.29666-0.52353-0.45372-0.34901-0.17451-0.94234-0.17451-0.73294 0-1.1518 0.19196-0.41882 0.19196-0.64568 0.48863-0.2094 0.29665-0.2792 0.66312-0.0698 0.34901-0.12215 0.69803zm-4.0311 1.6927q0 1.0994 0.47116 1.6578 0.47117 0.55842 1.7625 0.55842 0.55842 0 0.87253-0.0873 0.33157-0.1047 0.50608-0.26175 0.1745-0.15707 0.2443-0.34902 0.0872-0.20942 0.13962-0.41882h2.3733q-0.0698 0.41882-0.24431 0.94233-0.1745 0.50608-0.62822 0.9598-0.45373 0.43626-1.2739 0.75037-0.82018 0.29667-2.1814 0.29667-2.3384 0-3.4029-1.1866-1.047-1.2041-1.047-3.5948 0-1.0994 0.22686-1.9894 0.2443-0.88998 0.76783-1.5182 0.54098-0.64568 1.4135-0.9947 0.87253-0.34902 2.1464-0.34902 1.5182 0 2.4082 0.50608 0.88999 0.50607 1.3437 1.3088 0.45372 0.78529 0.55842 1.78 0.12215 0.9947 0.0698 1.9894z"/>
  </g>
 </g>
</svg>
