<svg xmlns="http://www.w3.org/2000/svg" height="329.4" width="600" version="1.1" xmlns:xlink="http://www.w3.org/1999/xlink" viewBox="0 0 158.75002 87.15468">
 <defs>
  <linearGradient id="b" y2="568.01" gradientUnits="userSpaceOnUse" x2="1551.5" gradientTransform="matrix(.10675 0 0 -.10675 -107.57 253.86)" y1="1360" x1="1482.2">
   <stop stop-color="#649dcb" offset="0"/>
   <stop stop-color="#619bca" offset=".0067"/>
   <stop stop-color="#4c8fc7" offset=".0557"/>
   <stop stop-color="#3f88c6" offset=".1039"/>
   <stop stop-color="#3b86c5" offset="0.15"/>
   <stop stop-color="#488cc6" offset=".29660"/>
   <stop stop-color="#6199c9" offset=".5"/>
   <stop stop-color="#5193c7" offset=".63810"/>
   <stop stop-color="#2882c2" offset=".90610"/>
   <stop stop-color="#187cc0" offset="1"/>
  </linearGradient>
  <linearGradient id="a" y2="739.92" gradientUnits="userSpaceOnUse" x2="1577.6" gradientTransform="matrix(.10675 0 0 -.10675 -107.57 253.86)" y1="1228.6" x1="1577.6">
   <stop stop-color="#fff" offset=".5"/>
   <stop stop-color="#bfbfbf" offset="1"/>
  </linearGradient>
 </defs>
 <g transform="translate(-26.458 -105.26)">
  <g stroke-width=".10675">
   <path d="m26.458 179.09c0 1.1742 0.93982 2.3346 2.0883 2.5788l50.319 10.696c1.1487 0.24414 2.0883-0.51688 2.0883-1.6911v-83.681c0-1.1742-0.93983-1.9353-2.0883-1.6911l-50.319 10.696c-1.1485 0.24413-2.0883 1.4046-2.0883 2.5789z" fill="#187cc0"/>
   <path d="m27.046 178.36c0 1.1742 0.93982 2.3346 2.0883 2.5788l49.092 10.435c1.1486 0.24414 2.0883-0.51688 2.0883-1.6911v-81.7c0-1.1742-0.93982-1.9353-2.0883-1.6911l-49.092 10.435c-1.1485 0.24414-2.0883 1.4046-2.0883 2.5789z" fill="url(#b)"/>
   <path d="m26.934 118.14s48.02-5.717 54.019 7.2612l0.000889 26.115s-0.36091 15.751-7.7362 18.116l-24.196 5.135s-20.975 7.0213-22.335-37.611c-0.63302-14.524 0.2467-19.016 0.2467-19.016z" fill="#187cc0"/>
   <path d="m80.951 152.65c-1.6176-5.6933-6.267-8.7424-12.752-9.4674 0.0057 0 6.7396-4.962 12.755-9.8394v-10.63h-38.672l-0.0016 11.849h21.797c-0.04437 0.035-13.653 10.56-13.653 10.56l5.098 7.6222s3.0641-1.5785 5.8266-1.5785c4.8945 0 6.8211 2.0509 6.8211 6.6727 0 5.0105-2.2981 7.2243-6.9188 7.2243-5.597 0-6.7437-4.0009-6.7437-6.8716h-13.764c-0.25856 9.7391 5.6946 16.692 19.833 16.692 10.943 0 18.265-3.8162 20.374-12.029v-10.196z" fill="url(#a)"/>
  </g>
  <g fill="#187cc0">
   <path d="m103.66 137.69q0-1.4913-0.43974-2.1987-0.43973-0.7074-1.5295-0.7074t-1.7016 0.7074-0.6118 2.4472q0 0.72652 0.11472 1.3574 0.11471 0.61181 0.38237 1.0706 0.26766 0.43973 0.70739 0.68828t1.1089 0.24855q0.74563 0 1.128-0.26767 0.40149-0.28678 0.59268-0.76475t0.21031-1.128q0.0382-0.66916 0.0382-1.453zm-6.8445-4.6841h2.5619v1.1854q0.13383-0.22943 0.34414-0.47797 0.22943-0.24854 0.55445-0.45886 0.32502-0.22942 0.80299-0.36326 0.47797-0.15294 1.1662-0.15294 1.1089 0 1.8928 0.42061 0.78388 0.40149 1.281 1.128 0.49709 0.72651 0.7074 1.7207 0.22942 0.97506 0.22942 2.1222 0 1.0707-0.21031 2.0266-0.19119 0.93682-0.66916 1.6442-0.47797 0.68827-1.281 1.0898-0.80299 0.40149-2.0266 0.40149-1.1471 0-1.778-0.34413-0.63091-0.36326-0.9177-0.803v4.187h-2.6575z"/>
   <path d="m115.04 137.77q0-1.5486-0.49709-2.2751-0.47797-0.74563-1.7207-0.74563-0.66916 0-1.1471 0.15294-0.47797 0.13384-0.78387 0.49709-0.3059 0.34414-0.45886 0.97506-0.13383 0.63093-0.13383 1.606 0 1.778 0.49709 2.5619 0.49709 0.76475 1.7398 0.76475 0.80299 0 1.3001-0.22943 0.49709-0.22942 0.76476-0.66915 0.26766-0.45886 0.34414-1.1089 0.0956-0.66915 0.0956-1.5295zm-2.409 5.5253q-2.4663 0-3.7282-1.2427-1.2618-1.2427-1.2618-3.9576 0-1.5678 0.38238-2.6002 0.38237-1.0324 1.0706-1.6442 0.68828-0.6118 1.606-0.86035 0.93682-0.24854 2.0266-0.24854 2.5237 0 3.7473 1.2618t1.2236 3.9958q0 1.1854-0.26767 2.1604-0.24854 0.97506-0.84122 1.6824-0.59269 0.68829-1.5677 1.0707-0.95595 0.38237-2.3899 0.38237z"/>
   <path d="m119.43 133.01h2.6575v10.018h-2.6575zm0-3.8046h2.6575v2.5046h-2.6575z"/>
   <path d="m123.25 133.01h1.3192v-3.1737h2.6575v3.1737h1.6442v1.7589h-1.6442v5.1812q0 0.38238 0.0192 0.57357t0.15295 0.32502q0.11472 0.11471 0.26766 0.13383 0.17207 0.0192 0.34414 0.0192h0.86035v2.0266h-1.5486q-0.26766 0-0.57356 0-0.3059-0.0192-0.6118-0.0574-0.3059-0.0574-0.57357-0.15296-0.26766-0.11471-0.45885-0.28678t-0.3059-0.42061q-0.0956-0.26767-0.15295-0.53533-0.0574-0.28678-0.0765-0.55444 0-0.28679 0-0.51622v-5.7356h-1.3192z"/>
   <path d="m136.92 137.77q0-1.5486-0.49709-2.2751-0.47797-0.74563-1.7207-0.74563-0.66916 0-1.1471 0.15294-0.47797 0.13384-0.78387 0.49709-0.3059 0.34414-0.45884 0.97506-0.13384 0.63093-0.13384 1.606 0 1.778 0.49709 2.5619 0.49709 0.76475 1.7398 0.76475 0.80299 0 1.3001-0.22943 0.49708-0.22942 0.76474-0.66915 0.26767-0.45886 0.34415-1.1089 0.0956-0.66915 0.0956-1.5295zm-2.409 5.5253q-2.4663 0-3.7282-1.2427-1.2618-1.2427-1.2618-3.9576 0-1.5678 0.38237-2.6002 0.38238-1.0324 1.0707-1.6442 0.68827-0.6118 1.606-0.86035 0.93682-0.24854 2.0266-0.24854 2.5237 0 3.7473 1.2618t1.2236 3.9958q0 1.1854-0.26766 2.1604-0.24854 0.97506-0.84123 1.6824-0.59268 0.68829-1.5677 1.0707-0.95594 0.38237-2.3898 0.38237z"/>
   <path d="m141.42 133.01h2.6575v6.6725q0 1.5295 1.7016 1.5295 1.0133 0 1.3957-0.4015 0.38238-0.40148 0.38238-1.2618v-6.5386h2.6575v10.018h-2.6002v-1.1089q-0.15296 0.26766-0.3059 0.51621-0.13384 0.24854-0.43974 0.43973-0.28678 0.19119-0.80299 0.3059-0.49709 0.11471-1.3574 0.11471-1.1471 0-1.7972-0.32501-0.65003-0.34415-0.99417-0.80299-0.32502-0.47797-0.42062-0.97506-0.0764-0.4971-0.0764-0.82212z"/>
   <path d="m103.32 160.62q-0.0574-0.28678-0.11471-0.57356-0.0382-0.3059-0.24855-0.55445-0.19118-0.24854-0.59268-0.40149-0.38238-0.15295-1.128-0.15295-0.72651 0-1.1854 0.26766-0.45885 0.24854-0.72651 0.66916-0.24854 0.42061-0.34414 0.97506-0.0956 0.55444-0.0956 1.1471 0 0.86034 0.0956 1.5295 0.11472 0.65004 0.36326 1.1089 0.26766 0.43974 0.68827 0.66916 0.43974 0.21031 1.0898 0.21031 0.8221 0 1.2427-0.17207 0.43973-0.17207 0.63092-0.43973 0.19119-0.28678 0.22942-0.65004 0.0382-0.38238 0.0956-0.78388h2.6193q0 0.59269-0.19119 1.3001-0.19119 0.68828-0.7074 1.3001-0.5162 0.59268-1.453 0.99417-0.9177 0.4015-2.3898 0.4015-2.3898 0-3.6708-1.3192-1.2618-1.3192-1.2618-3.9958 0-1.128 0.26766-2.084 0.26766-0.95593 0.86034-1.6633 0.6118-0.7074 1.5869-1.0898 0.99418-0.4015 2.4281-0.4015 1.2427 0 2.084 0.3059 0.86035 0.3059 1.3766 0.82211 0.53533 0.51621 0.76476 1.1854 0.22943 0.66916 0.22943 1.3957z"/>
   <path d="m107.79 167.2v-13.823h2.6575v4.99q0.15295-0.40149 0.34415-0.66916 0.19118-0.28677 0.49708-0.45885 0.32502-0.17207 0.80299-0.24854 0.49709-0.0765 1.2618-0.0765 0.43973 0 0.99417 0.0765 0.57356 0.0574 1.0515 0.40149 0.49709 0.34414 0.82212 1.0515 0.34413 0.70739 0.34413 1.9884v6.7681h-2.6575v-6.6151q0-0.53533-0.13383-0.84123-0.13384-0.32502-0.36326-0.49709-0.22943-0.17207-0.55445-0.21031-0.3059-0.0574-0.66915-0.0574-0.93683 0-1.3383 0.4015-0.4015 0.38237-0.4015 1.4148v6.4048z"/>
   <path d="m122.45 165.53q1.2045 0 1.7207-0.59269 0.53533-0.59267 0.51622-1.5677v-1.0324q-0.15296 0.0956-0.3059 0.15295-0.45886 0.22942-1.0515 0.28678-0.57357 0.0574-1.0898 0.17207-0.49709 0.11471-0.84123 0.42062-0.34414 0.28677-0.34414 0.97506 0 0.38237 0.13383 0.63091 0.13384 0.22943 0.34414 0.36326 0.21031 0.11472 0.43973 0.15295 0.24855 0.0382 0.47797 0.0382zm-3.6517-5.2003v-0.43973q0.0191-0.63092 0.24854-1.1662 0.22943-0.55445 0.72652-0.95594 0.51621-0.4015 1.3574-0.63092 0.84123-0.22943 2.1031-0.22943 2.0457 0 3.0208 0.74564 0.99418 0.74563 0.99418 2.581v4.2635q0 0.32502 0.0382 0.45886 0.0382 0.11471 0.0956 0.15294 0.0574 0.0382 0.19119 0.0956 0.15295 0.0574 0.40149 0.0382v1.9501h-1.3192q-0.36325 0-0.65003-0.0574-0.28679-0.0764-0.55445-0.3059-0.21031-0.19118-0.32502-0.42061-0.11472-0.24854-0.2103-0.42062-0.26767 0.45886-0.55445 0.76476-0.28678 0.28679-0.65004 0.43973-0.34414 0.15296-0.76476 0.21031-0.42061 0.0574-0.9177 0.0574-1.931 0-2.7913-0.86034-0.84123-0.86035-0.84123-2.3898 0-1.0898 0.40149-1.6442 0.4015-0.55445 0.97506-0.84123 0.47797-0.21031 1.1854-0.3059 0.70739-0.0956 1.4148-0.15296 0.7074-0.0574 1.281-0.11471 0.57357-0.0574 0.78387-0.2103 0.11472-0.0956 0.17207-0.36326 0.0765-0.26766 0.0765-0.6118 0-0.53533-0.32503-0.86035-0.32502-0.32503-1.2618-0.32503-0.70739 0-1.0706 0.13384-0.36326 0.11471-0.53533 0.34414-0.17207 0.21031-0.2103 0.49708-0.0382 0.26767-0.0574 0.57357z"/>
   <path d="m129.96 157.18h2.3707v1.8736q0.13383-0.38238 0.28678-0.76475 0.15296-0.38238 0.42061-0.68828 0.28679-0.3059 0.74564-0.49709t1.2045-0.19119q0.32502 0 0.65005 0.0382 0.32501 0.0192 0.65003 0.0574v2.1987h-1.6251q-0.45886 0-0.86035 0.13383-0.4015 0.13383-0.68828 0.47797-0.32502 0.42062-0.42062 1.0133-0.0765 0.59269-0.0765 0.95595v5.4106h-2.6575z"/>
   <path d="m140.7 165.53q1.2045 0 1.7207-0.59269 0.53532-0.59267 0.5162-1.5677v-1.0324q-0.15294 0.0956-0.3059 0.15295-0.45885 0.22942-1.0515 0.28678-0.57357 0.0574-1.0898 0.17207-0.49708 0.11471-0.84123 0.42062-0.34413 0.28677-0.34413 0.97506 0 0.38237 0.13383 0.63091 0.13383 0.22943 0.34413 0.36326 0.21032 0.11472 0.43974 0.15295 0.24855 0.0382 0.47797 0.0382zm-3.6517-5.2003v-0.43973q0.0192-0.63092 0.24855-1.1662 0.22942-0.55445 0.72651-0.95594 0.51622-0.4015 1.3574-0.63092 0.84122-0.22943 2.1031-0.22943 2.0457 0 3.0208 0.74564 0.99417 0.74563 0.99417 2.581v4.2635q0 0.32502 0.0382 0.45886 0.0382 0.11471 0.0956 0.15294 0.0574 0.0382 0.19119 0.0956 0.15294 0.0574 0.40149 0.0382v1.9501h-1.3192q-0.36326 0-0.65005-0.0574-0.28678-0.0764-0.55444-0.3059-0.21031-0.19118-0.32502-0.42061-0.11471-0.24854-0.21031-0.42062-0.26766 0.45886-0.55445 0.76476-0.28678 0.28679-0.65004 0.43973-0.34413 0.15296-0.76475 0.21031-0.42061 0.0574-0.9177 0.0574-1.931 0-2.7914-0.86034-0.84123-0.86035-0.84123-2.3898 0-1.0898 0.4015-1.6442 0.40149-0.55445 0.97506-0.84123 0.47797-0.21031 1.1854-0.3059 0.7074-0.0956 1.4148-0.15296 0.7074-0.0574 1.281-0.11471 0.57357-0.0574 0.78388-0.2103 0.11471-0.0956 0.17207-0.36326 0.0765-0.26766 0.0765-0.6118 0-0.53533-0.32503-0.86035-0.32501-0.32503-1.2618-0.32503-0.7074 0-1.0707 0.13384-0.36326 0.11471-0.53533 0.34414-0.17207 0.21031-0.2103 0.49708-0.0382 0.26767-0.0574 0.57357z"/>
   <path d="m148.25 157.18h2.5619v1.3574q0.0765-0.22943 0.17207-0.5162 0.11471-0.28679 0.38238-0.51622 0.28678-0.24854 0.78387-0.42061t1.3383-0.17207q0.86035 0 1.5295 0.17207 0.66916 0.15295 1.1089 0.53533 0.43974 0.36326 0.66916 0.97506 0.22943 0.6118 0.22943 1.5104v7.0931h-2.6575v-6.6342q0-0.74563-0.36326-1.1471-0.36325-0.42061-1.3957-0.42061-0.84123 0-1.281 0.36325-0.42061 0.34414-0.42061 1.3766v6.4622h-2.6575z"/>
   <path d="m158.31 157.18h1.3192v-3.1737h2.6575v3.1737h1.6442v1.7589h-1.6442v5.1812q0 0.38237 0.0191 0.57356 0.0192 0.19119 0.15296 0.32502 0.11471 0.11471 0.26766 0.13383 0.17207 0.0191 0.34414 0.0191h0.86034v2.0266h-1.5486q-0.26767 0-0.57357 0-0.3059-0.0191-0.6118-0.0574-0.3059-0.0574-0.57356-0.15294-0.26767-0.11471-0.45885-0.28679-0.19119-0.17207-0.30591-0.42061-0.0956-0.26766-0.15295-0.53533-0.0574-0.28677-0.0764-0.55444 0-0.28678 0-0.51621v-5.7356h-1.3192z"/>
   <path d="m172.06 161.17q0-0.43974-0.0765-0.84123-0.0574-0.4015-0.26765-0.7074-0.19119-0.32501-0.57358-0.49708-0.38237-0.19119-1.0324-0.19119-0.80299 0-1.2618 0.2103-0.45885 0.21031-0.7074 0.53533-0.22942 0.32502-0.3059 0.72652-0.0765 0.38237-0.13383 0.76475zm-4.4164 1.8545q0 1.2045 0.51621 1.8163 0.5162 0.61181 1.931 0.61181 0.6118 0 0.95594-0.0956 0.36325-0.11472 0.55444-0.28678 0.1912-0.17207 0.26767-0.38238 0.0956-0.22942 0.15295-0.45885h2.6002q-0.0765 0.45885-0.26766 1.0324-0.19119 0.55444-0.68829 1.0515-0.49708 0.47797-1.3957 0.82211-0.89858 0.32502-2.3898 0.32502-2.5619 0-3.7282-1.3001-1.1471-1.3192-1.1471-3.9385 0-1.2045 0.24855-2.1796 0.26766-0.97506 0.84123-1.6633 0.59268-0.7074 1.5486-1.0898 0.95594-0.38238 2.3516-0.38238 1.6633 0 2.6384 0.55445 0.97506 0.55445 1.4722 1.4339 0.49709 0.86034 0.61181 1.9501 0.13383 1.0898 0.0764 2.1795z"/>
   <path d="m180.6 167.46q-1.1089 0-1.8736-0.21031-0.76476-0.2103-1.281-0.53532-0.4971-0.32503-0.78387-0.74564-0.28679-0.42062-0.43974-0.84123-0.13383-0.43973-0.17206-0.82211-0.0382-0.40149-0.0382-0.66915h2.5046q0.0191 0.36325 0.0574 0.7074 0.0382 0.32501 0.22942 0.57356 0.19119 0.24854 0.61181 0.4015 0.42061 0.13383 1.2236 0.13383 0.38238 0 0.72651-0.0192 0.36326-0.0191 0.63093-0.13383 0.26766-0.11471 0.42061-0.36326 0.17207-0.24854 0.17207-0.70739 0-0.34414-0.15295-0.51621-0.15295-0.1912-0.47797-0.28679-0.32502-0.11471-0.84123-0.19119-0.5162-0.0956-1.2427-0.26765-0.93683-0.19119-1.606-0.43974-0.66916-0.24854-1.1089-0.59269-0.42062-0.34413-0.63092-0.8221-0.19119-0.47797-0.19119-1.1471 0-0.89858 0.32502-1.4913 0.34414-0.59268 0.9177-0.93682t1.3383-0.47797q0.76475-0.15295 1.606-0.15295 1.0706 0 1.7972 0.21031 0.72651 0.19119 1.2045 0.5162 0.47796 0.32502 0.72651 0.72652 0.24855 0.38237 0.36326 0.76476 0.13383 0.36325 0.15295 0.68827 0.0191 0.32502 0.0382 0.49708h-2.5046q-0.0382-0.34413-0.0956-0.61179t-0.24854-0.43973q-0.19119-0.19119-0.53533-0.2868-0.34413-0.0956-0.93682-0.0956-0.28678 0-0.57356 0.0382-0.28678 0.0192-0.51621 0.13384-0.21031 0.0956-0.36326 0.28679-0.13383 0.17206-0.13383 0.45886 0 0.3059 0.13383 0.47796 0.13383 0.17207 0.45885 0.3059 0.34414 0.11471 0.91771 0.22943 0.59268 0.11471 1.4913 0.3059 0.80299 0.17207 1.4148 0.43973 0.63093 0.24854 1.0516 0.63092 0.42061 0.36326 0.63091 0.87947 0.21031 0.49709 0.21031 1.2045 0 1.6633-1.1854 2.4281-1.1662 0.76476-3.4223 0.76476z"/>
  </g>
 </g>
</svg>
