<svg xmlns="http://www.w3.org/2000/svg" height="353.48" width="600" version="1.1" xmlns:xlink="http://www.w3.org/1999/xlink" viewBox="0 0 158.75 93.524065">
 <defs>
  <linearGradient id="b" y2="568.01" gradientUnits="userSpaceOnUse" x2="1551.5" gradientTransform="matrix(.11455 0 0 -.11455 -117.36 261.54)" y1="1360" x1="1482.2">
   <stop stop-color="#649dcb" offset="0"/>
   <stop stop-color="#619bca" offset=".0067"/>
   <stop stop-color="#4c8fc7" offset=".0557"/>
   <stop stop-color="#3f88c6" offset=".1039"/>
   <stop stop-color="#3b86c5" offset="0.15"/>
   <stop stop-color="#488cc6" offset=".29660"/>
   <stop stop-color="#6199c9" offset=".5"/>
   <stop stop-color="#5193c7" offset=".63810"/>
   <stop stop-color="#2882c2" offset=".90610"/>
   <stop stop-color="#187cc0" offset="1"/>
  </linearGradient>
  <linearGradient id="a" y2="739.92" gradientUnits="userSpaceOnUse" x2="1577.6" gradientTransform="matrix(.11455 0 0 -.11455 -117.36 261.54)" y1="1228.6" x1="1577.6">
   <stop stop-color="#fff" offset=".5"/>
   <stop stop-color="#bfbfbf" offset="1"/>
  </linearGradient>
 </defs>
 <g transform="translate(-26.458 -102.07)">
  <g stroke-width=".11455">
   <path d="m26.458 181.3c0 1.26 1.0085 2.5052 2.241 2.7672l53.996 11.477c1.2327 0.26197 2.241-0.55466 2.241-1.8147v-89.797c0-1.2601-1.0085-2.0767-2.241-1.8147l-53.996 11.477c-1.2325 0.26198-2.241 1.5073-2.241 2.7673z" fill="#187cc0"/>
   <path d="m27.088 180.52c0 1.2601 1.0085 2.5052 2.241 2.7672l52.679 11.197c1.2326 0.26198 2.241-0.55465 2.241-1.8147v-87.671c0-1.2601-1.0085-2.0767-2.241-1.8147l-52.679 11.197c-1.2325 0.26198-2.241 1.5073-2.241 2.7673z" fill="url(#b)"/>
   <path d="m26.969 115.9s51.53-6.1348 57.967 7.7919l0.0011 28.023s-0.3873 16.903-8.3015 19.439l-25.964 5.5103s-22.508 7.5344-23.967-40.359c-0.67931-15.585 0.26471-20.405 0.26471-20.405z" fill="#187cc0"/>
   <path d="m84.933 152.93c-1.7358-6.1094-6.725-9.3813-13.684-10.159 0.0062 0 7.2322-5.3247 13.687-10.559v-11.41h-41.498l-0.0014 12.714h23.39c-0.04766 0.0375-14.651 11.331-14.651 11.331l5.4706 8.1793s3.2881-1.6939 6.2524-1.6939c5.2522 0 7.3196 2.2008 7.3196 7.1604 0 5.3767-2.4661 7.7522-7.4244 7.7522-6.006 0-7.2365-4.2933-7.2365-7.3738h-14.77c-0.27744 10.451 6.1107 17.912 21.283 17.912 11.743 0 19.599-4.0951 21.862-12.908v-10.941z" fill="url(#a)"/>
  </g>
  <g fill="#187cc0">
   <path d="m109.36 148.54q0-0.55393-0.082-1.0874-0.0821-0.55392-0.32827-0.98476-0.22567-0.43084-0.6565-0.69755-0.43084-0.28723-1.1284-0.28723-0.73857 0-1.231 0.28723-0.47187 0.26671-0.7591 0.73858-0.2667 0.47187-0.36928 1.1079-0.10258 0.61549-0.10258 1.3336 0 0.53341 0.041 1.1694 0.0616 0.61546 0.30774 1.1489 0.2462 0.53342 0.71806 0.90271 0.49238 0.34877 1.3541 0.34877 0.77961 0 1.2104-0.28722 0.45136-0.30774 0.67703-0.82064 0.22567-0.53341 0.28722-1.272 0.0616-0.73857 0.0616-1.6003zm-7.4884-9.0065h2.8517v5.0264q0.2667-0.2462 0.53342-0.47188 0.2667-0.22567 0.59496-0.3898 0.32825-0.18465 0.75909-0.26671 0.45135-0.10258 1.0874-0.10258 1.1079 0 1.867 0.32826 0.77962 0.32825 1.272 0.84115 0.51291 0.5129 0.77962 1.1489 0.2667 0.61549 0.3898 1.2104 0.12309 0.59497 0.14361 1.1079 0.0206 0.51289 0.0206 0.77961 0 1.2925-0.24618 2.3799-0.2462 1.0874-0.82065 1.867-0.55393 0.77961-1.4566 1.231-0.8822 0.43083-2.1747 0.43083-0.67703 0-1.1489-0.1436-0.47187-0.1231-0.77961-0.34877-0.30775-0.22569-0.5129-0.51291-0.18465-0.28722-0.30775-0.59497v1.313h-2.8517z"/>
   <path d="m114.09 143.61h2.544v2.0106q0.14362-0.41032 0.30774-0.82064 0.16413-0.41032 0.45136-0.73858 0.30773-0.32826 0.80012-0.53342 0.49238-0.20516 1.2925-0.20516 0.34877 0 0.69755 0.041 0.34877 0.0206 0.69754 0.0616v2.3594h-1.7439q-0.49239 0-0.92322 0.14361-0.43084 0.14361-0.73858 0.51289-0.34877 0.45136-0.45135 1.0874-0.0821 0.636-0.0821 1.0258v5.806h-2.8517z"/>
   <path d="m128.9 147.9q0-0.47187-0.082-0.9027-0.0616-0.43084-0.28723-0.75911-0.20516-0.34876-0.61548-0.53341-0.41033-0.20515-1.1079-0.20515-0.86168 0-1.3541 0.22567-0.49238 0.22567-0.75909 0.57444-0.24618 0.34877-0.32826 0.77962-0.082 0.41032-0.14361 0.82064zm-4.7392 1.9901q0 1.2925 0.55393 1.949 0.55394 0.65652 2.0721 0.65652 0.65651 0 1.0258-0.10258 0.38981-0.1231 0.59497-0.30773 0.20516-0.18466 0.28722-0.41033 0.10258-0.24619 0.16414-0.49239h2.7902q-0.082 0.49239-0.28721 1.1079-0.20518 0.59497-0.73859 1.1284-0.53342 0.5129-1.4977 0.88219-0.96427 0.34877-2.5645 0.34877-2.7492 0-4.0006-1.3951-1.231-1.4156-1.231-4.2263 0-1.2925 0.26672-2.3388 0.28722-1.0463 0.90271-1.7849 0.63598-0.75908 1.6618-1.1694t2.5235-0.41032q1.7849 0 2.8312 0.59497t1.5798 1.5387q0.53341 0.92322 0.6565 2.0926 0.14362 1.1694 0.082 2.3388z"/>
   <path d="m132.21 143.61h1.4156v-3.4057h2.8517v3.4057h1.7644v1.8875h-1.7644v5.5598q0 0.41031 0.0206 0.61547t0.16413 0.34878q0.12309 0.12309 0.28722 0.1436 0.18465 0.0205 0.36929 0.0205h0.92323v2.1747h-1.6618q-0.28723 0-0.61549 0-0.32826-0.0205-0.65651-0.0616-0.32826-0.0616-0.61549-0.16413-0.28722-0.1231-0.49238-0.30774-0.20516-0.18465-0.32825-0.45136-0.10258-0.28722-0.16413-0.57444-0.0616-0.30775-0.0821-0.59497 0-0.30774 0-0.55393v-6.1548h-1.4156z"/>
   <path d="m143.28 152.58q1.2925 0 1.8465-0.63601 0.57444-0.63599 0.55394-1.6823v-1.1079q-0.16415 0.10258-0.32826 0.16414-0.49239 0.24617-1.1284 0.30773-0.61548 0.0616-1.1694 0.18464-0.53341 0.1231-0.90271 0.45135-0.36929 0.30774-0.36929 1.0463 0 0.41032 0.14362 0.67703 0.14361 0.24619 0.36929 0.3898 0.22568 0.1231 0.47187 0.16413 0.2667 0.041 0.51289 0.041zm-3.9186-5.5804v-0.47187q0.0206-0.67703 0.26671-1.2515 0.24619-0.59497 0.77961-1.0258 0.55394-0.43085 1.4566-0.67705 0.90271-0.24619 2.2568-0.24619 2.1952 0 3.2415 0.80013 1.0668 0.80012 1.0668 2.7697v4.5751q0 0.34878 0.041 0.49238 0.041 0.12311 0.10259 0.16414 0.0616 0.041 0.20514 0.10257 0.16414 0.0616 0.43084 0.041v2.0926h-1.4156q-0.3898 0-0.69754-0.0616-0.30775-0.082-0.59497-0.32825-0.22567-0.20516-0.34877-0.45136-0.12311-0.2667-0.22567-0.45134-0.28723 0.49239-0.59498 0.82063-0.30773 0.30776-0.69753 0.47187-0.36929 0.16413-0.82065 0.22569-0.45135 0.0616-0.98476 0.0616-2.0722 0-2.9954-0.92321-0.9027-0.92323-0.9027-2.5645 0-1.1694 0.43083-1.7644 0.43084-0.59496 1.0463-0.9027 0.51289-0.22568 1.272-0.32826t1.5182-0.16413q0.7591-0.0616 1.3746-0.1231 0.61548-0.0616 0.84115-0.22567 0.12311-0.10258 0.18465-0.3898 0.082-0.28723 0.082-0.65652 0-0.57445-0.34878-0.92321-0.34878-0.34879-1.354-0.34879-0.75909 0-1.1489 0.14362-0.3898 0.1231-0.57445 0.36929-0.18464 0.22567-0.22567 0.53342-0.041 0.28721-0.0616 0.61549z"/>
   <path d="m158.09 148.54q0-1.5387-0.43082-2.2978-0.41033-0.75909-1.6003-0.75909-1.272 0-1.8464 0.67704-0.55392 0.6565-0.55392 2.2568 0 0.59495 0.041 1.1694 0.041 0.57444 0.24618 1.0258 0.22569 0.45136 0.69755 0.73857 0.47187 0.26671 1.3336 0.26671 0.73857 0 1.1489-0.26671 0.43085-0.28721 0.636-0.73857 0.22568-0.45136 0.26671-0.98477 0.0616-0.55394 0.0616-1.0874zm-2.4209 9.3758q-1.272 0-2.1132-0.26671-0.82065-0.2667-1.313-0.71806-0.47186-0.45136-0.67703-1.0668-0.18464-0.59498-0.18464-1.272h2.5645q0.0206 0.28722 0.0616 0.49238 0.041 0.22567 0.20515 0.3693 0.18465 0.14362 0.55394 0.20515 0.3898 0.082 1.1284 0.082 0.98476 0 1.5592-0.24618 0.59495-0.22568 0.59495-1.0258v-2.0311q-0.041 0.0616-0.16412 0.2667-0.12309 0.18466-0.43083 0.41033-0.28723 0.22567-0.77961 0.41032-0.49239 0.16414-1.272 0.16414-0.96424 0-1.8054-0.24622-0.84116-0.2667-1.4566-0.84115-0.61548-0.59496-0.98477-1.5592-0.34877-0.96426-0.34877-2.3799 0-1.231 0.26671-2.2157 0.2667-0.98477 0.80012-1.6618 0.53341-0.69754 1.3541-1.0668 0.84115-0.3898 1.9901-0.3898 0.80012 0 1.3335 0.18465 0.53342 0.18463 0.88218 0.47186 0.34878 0.26671 0.55395 0.59497 0.20514 0.30773 0.32825 0.55393v-1.5182h2.585v10.689q0 1.867-1.272 2.7286-1.272 0.88218-3.9596 0.88218z"/>
   <path d="m163.28 143.61h2.7492v1.4566q0.0821-0.24618 0.18465-0.55392 0.12308-0.30775 0.41031-0.55395 0.30775-0.2667 0.84116-0.45135 0.53342-0.18464 1.4361-0.18464 0.92322 0 1.6413 0.18464 0.71807 0.16413 1.1899 0.57445 0.47186 0.3898 0.71806 1.0463 0.24618 0.65652 0.24618 1.6208v7.6114h-2.8517v-7.1191q0-0.80013-0.3898-1.231-0.38981-0.45135-1.4977-0.45135-0.90272 0-1.3746 0.3898-0.45135 0.36929-0.45135 1.4772v6.9344h-2.8517z"/>
   <path d="m182.26 147.9q0-0.47187-0.082-0.9027-0.0616-0.43084-0.28723-0.75911-0.20515-0.34876-0.61548-0.53341-0.41032-0.20515-1.1079-0.20515-0.86166 0-1.354 0.22567-0.49239 0.22567-0.7591 0.57444-0.24619 0.34877-0.32825 0.77962-0.0821 0.41032-0.14362 0.82064zm-4.7392 1.9901q0 1.2925 0.55394 1.949 0.55392 0.65652 2.0721 0.65652 0.65652 0 1.0258-0.10258 0.38981-0.1231 0.59496-0.30773 0.20516-0.18466 0.28723-0.41033 0.10259-0.24619 0.16412-0.49239h2.7902q-0.082 0.49239-0.28724 1.1079-0.20514 0.59497-0.73856 1.1284-0.53342 0.5129-1.4977 0.88219-0.96425 0.34877-2.5645 0.34877-2.7492 0-4.0006-1.3951-1.231-1.4156-1.231-4.2263 0-1.2925 0.26671-2.3388 0.28723-1.0463 0.90271-1.7849 0.63601-0.75908 1.6618-1.1694t2.5235-0.41032q1.7849 0 2.8312 0.59497t1.5797 1.5387q0.53342 0.92322 0.65652 2.0926 0.1436 1.1694 0.082 2.3388z"/>
  </g>
 </g>
</svg>
