<svg xmlns="http://www.w3.org/2000/svg" height="366.36" width="600" version="1.1" xmlns:xlink="http://www.w3.org/1999/xlink" viewBox="0 0 158.75 96.932363">
 <defs>
  <linearGradient id="b" y2="568.01" gradientUnits="userSpaceOnUse" x2="1551.5" gradientTransform="matrix(.11873 0 0 -.11873 -56.834 299.96)" y1="1360" x1="1482.2">
   <stop stop-color="#649dcb" offset="0"/>
   <stop stop-color="#619bca" offset=".0067"/>
   <stop stop-color="#4c8fc7" offset=".0557"/>
   <stop stop-color="#3f88c6" offset=".1039"/>
   <stop stop-color="#3b86c5" offset="0.15"/>
   <stop stop-color="#488cc6" offset=".29660"/>
   <stop stop-color="#6199c9" offset=".5"/>
   <stop stop-color="#5193c7" offset=".63810"/>
   <stop stop-color="#2882c2" offset=".90610"/>
   <stop stop-color="#187cc0" offset="1"/>
  </linearGradient>
  <linearGradient id="a" y2="739.92" gradientUnits="userSpaceOnUse" x2="1577.6" gradientTransform="matrix(.11873 0 0 -.11873 -56.834 299.96)" y1="1228.6" x1="1577.6">
   <stop stop-color="#fff" offset=".5"/>
   <stop stop-color="#bfbfbf" offset="1"/>
  </linearGradient>
 </defs>
 <g transform="translate(-92.226 -134.68)">
  <g stroke-width=".11873">
   <path d="m92.226 216.8c0 1.306 1.0453 2.5965 2.3226 2.868l55.964 11.895c1.2776 0.27153 2.3226-0.57487 2.3226-1.8808v-93.069c0-1.306-1.0453-2.1524-2.3226-1.8808l-55.964 11.896c-1.2774 0.27152-2.3226 1.5622-2.3226 2.8682z" fill="#187cc0"/>
   <path d="m92.879 215.98c0 1.306 1.0453 2.5965 2.3226 2.8681l54.599 11.605c1.2775 0.27152 2.3226-0.57487 2.3226-1.8808v-90.866c0-1.306-1.0453-2.1524-2.3226-1.8808l-54.599 11.605c-1.2774 0.27152-2.3226 1.5622-2.3226 2.8682z" fill="url(#b)"/>
   <path d="m92.756 149.01s53.407-6.3584 60.079 8.0758l0.0009 29.044s-0.4014 17.519-8.604 20.148l-26.911 5.7111s-23.329 7.809-24.84-41.83c-0.70404-16.153 0.27438-21.149 0.27438-21.149z" fill="#187cc0"/>
   <path d="m152.83 187.39c-1.7991-6.332-6.97-9.7232-14.182-10.53 0.006 0 7.4958-5.5187 14.186-10.943v-11.832h-43.011l-0.002 13.178h24.242c-0.0494 0.0389-15.185 11.744-15.185 11.744l5.67 8.4774s3.4079-1.7556 6.4803-1.7556c5.4436 0 7.5863 2.281 7.5863 7.4213 0 5.5726-2.5559 8.0348-7.695 8.0348-6.2249 0-7.5003-4.4497-7.5003-7.6425h-15.307c-0.28756 10.832 6.3334 18.565 22.058 18.565 12.171 0 20.314-4.2443 22.659-13.378v-11.34z" fill="url(#a)"/>
  </g>
  <g fill="#187cc0">
   <path d="m170.41 173.5h2.9556v15.374h-2.9556z"/>
   <path d="m175.82 177.73h2.9557v11.142h-2.9557zm0-4.2315h2.9557v2.7855h-2.9557z"/>
   <path d="m181.12 177.73h2.8068v1.5097q0.17011-0.38275 0.31895-0.7017 0.17011-0.34023 0.4678-0.57413 0.31896-0.25516 0.80803-0.38274 0.51032-0.14885 1.3609-0.14885 0.85055 0 1.3822 0.19138 0.55285 0.1701 0.87181 0.44653t0.4678 0.63792q0.17011 0.34021 0.27643 0.68043 0.36148-0.97813 1.0419-1.4672 0.7017-0.48907 2.1689-0.48907 0.72296 0 1.3821 0.21263 0.68044 0.19139 1.1908 0.61666 0.53159 0.40401 0.82929 1.0419 0.31896 0.63791 0.31896 1.5097v8.059h-2.9557v-7.336q0-0.87181-0.44654-1.2971-0.42527-0.42527-1.1695-0.42527-1.7862 0-1.7862 1.7436v7.3147h-2.9556v-7.4636q0-1.6373-1.616-1.6373-0.63791 0-1.0207 0.21264-0.36149 0.19137-0.53159 0.51032-0.17011 0.31896-0.21264 0.68045-0.0425 0.36148-0.0425 0.68044v7.017h-2.96z"/>
   <path d="m207.06 183.03q0-1.7224-0.55286-2.5304-0.53159-0.82928-1.9137-0.82928-0.74424 0-1.2758 0.17011-0.53159 0.14885-0.87181 0.55286-0.34022 0.38275-0.51033 1.0844-0.14885 0.70171-0.14885 1.7862 0 1.9775 0.55286 2.8493 0.55286 0.85055 1.935 0.85055 0.89308 0 1.4459-0.25516 0.55286-0.25516 0.85055-0.74422 0.29769-0.51034 0.38275-1.2333 0.10632-0.74422 0.10632-1.7011zm-2.6792 6.1452q-2.743 0-4.1464-1.3821-1.4034-1.3822-1.4034-4.4016 0-1.7436 0.42528-2.8919 0.42527-1.1482 1.1908-1.8287 0.7655-0.68044 1.7862-0.95687 1.0419-0.27643 2.254-0.27643 2.8068 0 4.1677 1.4034t1.3609 4.4441q0 1.3184-0.29769 2.4028-0.27642 1.0844-0.9356 1.8712-0.65918 0.76549-1.7436 1.1908-1.0632 0.42527-2.658 0.42527z"/>
   <path d="m212.07 177.73h2.9557v7.421q0 1.7011 1.8925 1.7011 1.127 0 1.5522-0.44654 0.42527-0.44653 0.42527-1.4034v-7.2722h2.9557v11.142h-2.8919v-1.2333q-0.17012 0.29769-0.34022 0.57413-0.14885 0.27642-0.48907 0.48906-0.31896 0.21263-0.89307 0.34022-0.55286 0.12758-1.5097 0.12758-1.2758 0-1.9988-0.36149-0.72296-0.38274-1.1057-0.89307-0.36147-0.5316-0.46779-1.0844-0.085-0.55286-0.085-0.91434z"/>
   <path d="m228.95 189.17q-1.2333 0-2.0838-0.2339-0.85055-0.2339-1.4247-0.59538-0.55286-0.36149-0.87181-0.82929-0.31896-0.4678-0.48906-0.9356-0.14885-0.48907-0.19138-0.91435-0.0425-0.44653-0.0425-0.74422h2.7856q0.0213 0.40401 0.0638 0.78676 0.0425 0.36148 0.25516 0.63791 0.21264 0.27643 0.68043 0.44654 0.46781 0.14884 1.3609 0.14884 0.42527 0 0.80801-0.0213 0.40402-0.0213 0.70171-0.14884 0.29769-0.12758 0.46781-0.40402 0.19137-0.27642 0.19137-0.78674 0-0.38276-0.17012-0.57413-0.1701-0.21263-0.53159-0.31896-0.36148-0.12757-0.9356-0.21262-0.57412-0.10633-1.3821-0.29771-1.0419-0.21263-1.7862-0.48907-0.74422-0.27642-1.2333-0.65916-0.46781-0.38275-0.70171-0.91434-0.21264-0.53159-0.21264-1.2758 0-0.99939 0.36149-1.6586 0.38274-0.65916 1.0206-1.0419 0.63791-0.38274 1.4885-0.53157 0.85054-0.17012 1.7861-0.17012 1.1908 0 1.9988 0.2339 0.80801 0.21265 1.3396 0.57412 0.53159 0.36148 0.80802 0.80801 0.27643 0.42528 0.40401 0.85056 0.14885 0.404 0.1701 0.7655 0.0213 0.36148 0.0425 0.55286h-2.7856q-0.0425-0.38276-0.10631-0.68046-0.0638-0.29767-0.27643-0.48905-0.21264-0.21264-0.59539-0.31895-0.38274-0.10633-1.0419-0.10633-0.31895 0-0.63791 0.0425-0.31896 0.0213-0.57412 0.14886-0.2339 0.10631-0.40401 0.31895-0.14885 0.19137-0.14885 0.51032 0 0.34021 0.14885 0.53159 0.14884 0.19138 0.51033 0.34022 0.38274 0.12758 1.0206 0.25518 0.65918 0.12758 1.6586 0.34021 0.89308 0.19137 1.5735 0.48907 0.7017 0.27643 1.1695 0.70169 0.46779 0.40401 0.70169 0.97815 0.23391 0.55285 0.23391 1.3396 0 1.8499-1.3184 2.7005-1.2971 0.85055-3.8062 0.85055z"/>
   <path d="m235.82 177.73h2.9556v11.142h-2.9556zm0-4.2315h2.9556v2.7855h-2.9556z"/>
   <path d="m241.22 177.73h2.8493v1.5097q0.085-0.25516 0.19137-0.57412 0.12759-0.31896 0.42528-0.57413 0.31895-0.27642 0.87181-0.46779 0.55286-0.19138 1.4885-0.19138 0.95687 0 1.7011 0.19138 0.74423 0.1701 1.2333 0.59538 0.48907 0.404 0.74423 1.0844 0.25517 0.68044 0.25517 1.6798v7.8888h-2.9557v-7.3785q0-0.82928-0.40401-1.2758-0.40401-0.4678-1.5522-0.4678-0.9356 0-1.4247 0.404-0.46781 0.38276-0.46781 1.531v7.1871h-2.9557z"/>
  </g>
 </g>
</svg>
