<svg width="200mm" height="71.112mm" version="1.1" viewBox="0 0 200 71.112" xmlns="http://www.w3.org/2000/svg">
 <defs>
  <clipPath id="a">
   <path d="m322.38 611.08h28.687v10.205h-28.687z"/>
  </clipPath>
 </defs>
 <g transform="translate(237.58 -59.605)">
  <g transform="matrix(.75591 0 0 .75591 -336.03 54.032)">
   <g transform="matrix(9.2231,0,0,-9.2231,-2843.1,5737.5)">
    <path d="m336.61 614.13h3.045v3.041h-3.045z" fill="#ed1f24"/>
    <path d="m339.65 611.08h3.046v3.045h-3.046z" fill="#ed1f24"/>
    <g transform="translate(328.22,621.28)">
     <path d="m0 0v-4.166h-2.659v4.166h-2.889v-10.163h2.889v3.588h2.659v-3.588h2.888v10.163z" fill="#b2b1b1"/>
    </g>
    <g clip-path="url(#a)">
     <g transform="translate(328.18,611.1)">
      <path d="m0 0v10.18h3.884v-2.323c-0.098 0.013-0.205 0.021-0.321 0.021h-0.65v-1.898h0.65c0.116 0 0.223 4e-3 0.321 0.021v-4.059l-0.962 1.655v-3.597zm3.884 10.18h0.252c4.611 0 4.839-4.748 1.613-5.945-4e-3 0-0.095-0.026-0.099-0.026l2.862-4.209h-3.499l-1.129 1.942v4.059c0.688 0.094 0.97 0.513 0.97 0.928s-0.282 0.835-0.97 0.928z" fill="#b2b1b1" Googl="true"/>
     </g>
     <g transform="translate(333.58,621.19)">
      <path d="m0 0h8.948v-2.523h-2.879v-1.493h-3.04v1.493h-3.029z" fill="#b2b1b1"/>
     </g>
     <path d="m322.38 621.28h0.583v-10.163h-0.583z" fill="#e3e7e6"/>
     <path d="m327.89 621.28h0.568v-4.17h-0.568z" fill="#e3e7e6"/>
     <path d="m333.27 621.19h0.564v-2.52h-0.564z" fill="#e3e7e6"/>
     <g transform="translate(350.18,611.07)">
      <path d="m0 0v9.132h-1.834l0.437 0.813h2.286v-9.945z" fill="#e3e7e6"/>
     </g>
    </g>
   </g>
  </g>
 </g>
</svg>
