<svg width="200mm" height="67.512mm" version="1.1" viewBox="0 0 200 67.512" xmlns="http://www.w3.org/2000/svg">
 <defs>
  <clipPath id="a">
   <path d="m322.38 611.08h28.687v10.205h-28.687z"/>
  </clipPath>
 </defs>
 <g transform="translate(158.53 -27.561)">
  <g transform="matrix(1.132 0 0 1.132 20.93 -12.553)">
   <path d="m-77.202 76.299h17.403v-17.38h-17.403z" fill="#ed1f24" stroke-width="5.7152"/>
   <path d="m-59.828 93.73h17.408v-17.403h-17.408z" fill="#ed1f24" stroke-width="5.7152"/>
   <g transform="matrix(5.7152 0 0 -5.7152 -125.15 35.435)">
    <path d="m0 0v-4.166h-2.659v4.166h-2.889v-10.163h2.889v3.588h2.659v-3.588h2.888v10.163z" fill="#b2b1b1"/>
   </g>
   <g transform="matrix(5.7152 0 0 -5.7152 -2001 3586.2)" clip-path="url(#a)">
    <g transform="translate(328.18,611.1)">
     <path d="m0 0v10.18h3.884v-2.323c-0.098 0.013-0.205 0.021-0.321 0.021h-0.65v-1.898h0.65c0.116 0 0.223 4e-3 0.321 0.021v-4.059l-0.962 1.655v-3.597zm3.884 10.18h0.252c4.611 0 4.839-4.748 1.613-5.945-4e-3 0-0.095-0.026-0.099-0.026l2.862-4.209h-3.499l-1.129 1.942v4.059c0.688 0.094 0.97 0.513 0.97 0.928s-0.282 0.835-0.97 0.928z" fill="#b2b1b1" Googl="true"/>
    </g>
    <g transform="translate(333.58,621.19)">
     <path d="m0 0h8.948v-2.523h-2.879v-1.493h-3.04v1.493h-3.029z" fill="#b2b1b1"/>
    </g>
    <path d="m322.38 621.28h0.583v-10.163h-0.583z" fill="#19184a"/>
    <path d="m327.89 621.28h0.568v-4.17h-0.568z" fill="#19184a"/>
    <path d="m333.27 621.19h0.564v-2.52h-0.564z" fill="#19184a"/>
   </g>
   <path d="m-4.3293 94.96c-5.732-0.70415-11.041-4.302-13.494-9.5766-1.0162-2.1718-1.8961-4.4856-2.0978-6.892h5.4616c1.1345 3.9645 3.127 8.1338 7.1665 9.8206 3.5612 1.5366 7.7566 1.613 11.424 0.38654 4.9365-1.6554 8.7433-6.6658 8.2883-11.971-0.2333-5.3548-4.8223-9.8538-10.014-10.682-2.1649-0.50448-4.3904-0.64105-6.5959-0.87048l0.050059-5.4882c4.5917-0.13762 9.8137-1.5332 12.243-5.7859 1.9565-3.5149 0.63163-8.1739-2.5867-10.471-3.1288-2.5313-7.7218-2.8192-11.366-1.3424-3.2857 1.4258-5.1655 4.8121-6.4189 7.9835l-5.8782-0.0027c1.268-5.4093 4.6834-10.904 9.941-13.122 3.2772-1.5438 7.0279-1.4348 10.539-1.0164 5.8921 1.2482 11.282 5.768 12.406 11.853 1.0286 4.7732-0.97984 9.9695-4.9851 12.789-1.3397 0.74523-2.5187 1.6642-0.33721 2.2105 5.665 2.8694 9.3596 9.2634 8.6409 15.631-0.5776 6.9641-5.5177 13.311-12.156 15.532-3.2658 1.2407-6.7944 1.2368-10.229 1.0145z" fill="#19184a" fill-rule="evenodd"/>
  </g>
 </g>
</svg>
