<?xml version="1.0" encoding="UTF-8" standalone="no"?>
<!-- Generator: Adobe Illustrator 16.0.2, SVG Export Plug-In . SVG Version: 6.00 Build 0)  -->

<svg
   xmlns:dc="http://purl.org/dc/elements/1.1/"
   xmlns:cc="http://creativecommons.org/ns#"
   xmlns:rdf="http://www.w3.org/1999/02/22-rdf-syntax-ns#"
   xmlns:svg="http://www.w3.org/2000/svg"
   xmlns="http://www.w3.org/2000/svg"
   xmlns:xlink="http://www.w3.org/1999/xlink"
   xmlns:sodipodi="http://sodipodi.sourceforge.net/DTD/sodipodi-0.dtd"
   xmlns:inkscape="http://www.inkscape.org/namespaces/inkscape"
   version="1.1"
   id="Layer_1"
   x="0px"
   y="0px"
   width="532.15961"
   height="182.09329"
   viewBox="0 0 532.15961 182.09329"
   enable-background="new 0 0 612 792"
   xml:space="preserve"
   sodipodi:docname="stingrayiconcerts.light.svg"
   inkscape:version="0.92.1 r15371"><metadata
     id="metadata221"><rdf:RDF><cc:Work
         rdf:about=""><dc:format>image/svg+xml</dc:format><dc:type
           rdf:resource="http://purl.org/dc/dcmitype/StillImage" /><dc:title></dc:title></cc:Work></rdf:RDF></metadata><defs
     id="defs219"><filter
       style="color-interpolation-filters:sRGB;"
       inkscape:label="Invert"
       id="filter4985"><feColorMatrix
         type="hueRotate"
         values="180"
         result="color1"
         id="feColorMatrix4981" /><feColorMatrix
         values="-1 0 0 0 1 0 -1 0 0 1 0 0 -1 0 1 -0.21 -0.72 -0.07 2 0 "
         result="color2"
         id="feColorMatrix4983" /></filter><filter
       style="color-interpolation-filters:sRGB;"
       inkscape:label="Invert"
       id="filter4991"><feColorMatrix
         type="hueRotate"
         values="180"
         result="color1"
         id="feColorMatrix4987" /><feColorMatrix
         values="-1 0 0 0 1 0 -1 0 0 1 0 0 -1 0 1 -0.21 -0.72 -0.07 2 0 "
         result="color2"
         id="feColorMatrix4989" /></filter><filter
       style="color-interpolation-filters:sRGB;"
       inkscape:label="Invert"
       id="filter4997"><feColorMatrix
         type="hueRotate"
         values="180"
         result="color1"
         id="feColorMatrix4993" /><feColorMatrix
         values="-1 0 0 0 1 0 -1 0 0 1 0 0 -1 0 1 -0.21 -0.72 -0.07 2 0 "
         result="color2"
         id="feColorMatrix4995" /></filter><filter
       style="color-interpolation-filters:sRGB;"
       inkscape:label="Invert"
       id="filter5003"><feColorMatrix
         type="hueRotate"
         values="180"
         result="color1"
         id="feColorMatrix4999" /><feColorMatrix
         values="-1 0 0 0 1 0 -1 0 0 1 0 0 -1 0 1 -0.21 -0.72 -0.07 2 0 "
         result="color2"
         id="feColorMatrix5001" /></filter><filter
       style="color-interpolation-filters:sRGB;"
       inkscape:label="Invert"
       id="filter5009"><feColorMatrix
         type="hueRotate"
         values="180"
         result="color1"
         id="feColorMatrix5005" /><feColorMatrix
         values="-1 0 0 0 1 0 -1 0 0 1 0 0 -1 0 1 -0.21 -0.72 -0.07 2 0 "
         result="color2"
         id="feColorMatrix5007" /></filter><filter
       style="color-interpolation-filters:sRGB;"
       inkscape:label="Invert"
       id="filter5015"><feColorMatrix
         type="hueRotate"
         values="180"
         result="color1"
         id="feColorMatrix5011" /><feColorMatrix
         values="-1 0 0 0 1 0 -1 0 0 1 0 0 -1 0 1 -0.21 -0.72 -0.07 2 0 "
         result="color2"
         id="feColorMatrix5013" /></filter><filter
       style="color-interpolation-filters:sRGB;"
       inkscape:label="Invert"
       id="filter5021"><feColorMatrix
         type="hueRotate"
         values="180"
         result="color1"
         id="feColorMatrix5017" /><feColorMatrix
         values="-1 0 0 0 1 0 -1 0 0 1 0 0 -1 0 1 -0.21 -0.72 -0.07 2 0 "
         result="color2"
         id="feColorMatrix5019" /></filter><filter
       style="color-interpolation-filters:sRGB;"
       inkscape:label="Invert"
       id="filter5027"><feColorMatrix
         type="hueRotate"
         values="180"
         result="color1"
         id="feColorMatrix5023" /><feColorMatrix
         values="-1 0 0 0 1 0 -1 0 0 1 0 0 -1 0 1 -0.21 -0.72 -0.07 2 0 "
         result="color2"
         id="feColorMatrix5025" /></filter></defs><sodipodi:namedview
     pagecolor="#ffffff"
     bordercolor="#666666"
     borderopacity="1"
     objecttolerance="10"
     gridtolerance="10"
     guidetolerance="10"
     inkscape:pageopacity="0"
     inkscape:pageshadow="2"
     inkscape:window-width="1600"
     inkscape:window-height="838"
     id="namedview217"
     showgrid="false"
     fit-margin-top="0"
     fit-margin-left="0"
     fit-margin-right="0"
     fit-margin-bottom="0"
     inkscape:zoom="0.84281414"
     inkscape:cx="526.61948"
     inkscape:cy="31.953097"
     inkscape:window-x="-8"
     inkscape:window-y="-8"
     inkscape:window-maximized="1"
     inkscape:current-layer="Layer_1" /><g
     id="g214"
     transform="translate(-39.879691,-304.87279)"><defs
       id="defs165"><rect
         id="SVGID_1_"
         x="36"
         y="300"
         width="540"
         height="191" /></defs><clipPath
       id="SVGID_2_"><use
         xlink:href="#SVGID_1_"
         overflow="visible"
         id="use167"
         style="overflow:visible"
         x="0"
         y="0"
         width="100%"
         height="100%" /></clipPath><g
       clip-path="url(#SVGID_2_)"
       id="g212"><g
         id="g210"><path
           d="m 423.216,454.217 c 12.798,-13.474 26.721,-25.969 36.152,-42.337 6.822,-11.839 15.021,-22.751 23.497,-33.638 -2.546,-1.683 -5.311,-1.634 -7.838,-2.133 -4.351,-0.858 -4.836,-3.281 -3.561,-6.854 1.688,-4.728 5.294,-7.13 10.116,-5.318 8.451,3.175 14.459,1.304 19.997,-5.943 4.617,-6.043 10.764,-10.861 17.012,-15.362 3.107,-2.239 5.93,-2.79 8.824,0.32 3.778,4.061 5.027,9.537 2.439,12.437 -4.863,5.446 -9.891,10.747 -15.36,16.66 3.34,1.233 6.119,2.153 8.807,3.289 1.89,0.8 4.422,1.264 3.545,4.398 -0.72,2.573 -2.681,2.559 -4.771,2.397 -1.993,-0.153 -4.111,0.15 -5.966,-0.423 -7.112,-2.197 -11.437,0.8 -15.9,6.315 -15.952,19.709 -31.612,39.537 -41.998,62.932 -3.06,6.89 -5.159,14.047 -5.846,21.572 -0.129,1.418 -0.924,3.267 0.501,4.18 1.584,1.015 2.724,-0.726 3.781,-1.639 2.646,-2.284 5.27,-4.612 7.712,-7.108 16.899,-17.272 32.763,-35.483 48.846,-53.508 12.897,-14.455 29.443,-23.231 48.717,-26.19 9.007,-1.384 12.028,2.781 8.951,11.354 -1.757,4.896 -4.3,7.914 -10.296,8.173 -10.872,0.47 -20.571,5.023 -29.681,10.785 -0.981,0.62 -1.911,1.336 -2.803,2.081 -0.334,0.279 -0.493,0.768 -0.92,1.469 6.662,-1.226 12.982,-2.574 19.362,-3.51 5.878,-0.861 12.22,-1.19 15.93,4.373 3.662,5.493 -0.027,10.664 -3.091,15.149 -9.402,13.771 -21.806,23.237 -38.836,25.402 -6.096,0.775 -12.036,0.022 -17.146,-3.729 -3.503,-2.572 -5.302,-5.933 -3.459,-10.428 1.743,-4.253 8.481,-9.796 11.691,-9.127 3.201,0.666 3.005,4.015 4.089,6.296 1.116,2.347 -0.826,2.747 -2.355,3.378 -2.333,0.961 -4.443,2.254 -6.377,4.538 3.485,1.846 6.921,1.213 10.048,0.075 13.255,-4.826 21.79,-14.818 28.476,-26.715 0.494,-0.881 0.937,-1.937 0.38,-2.846 -0.86,-1.405 -2.111,-0.407 -3.124,-0.138 -5.783,1.537 -11.544,3.16 -17.314,4.747 -4.342,1.194 -8.641,2.23 -10.632,-3.841 -9.019,10.152 -17.667,20.035 -26.48,29.769 -9.063,10.008 -18.422,19.721 -29.096,28.079 -3.815,2.987 -7.743,4.527 -12.445,2.335 -4.766,-2.224 -6.636,-6.252 -6.993,-11.234 -0.616,-8.575 0.837,-16.919 2.788,-25.21 0.046,-0.398 0.095,-0.796 0.143,-1.194 -0.361,0.117 -0.723,0.234 -1.084,0.352 -5.168,5.174 -10.353,10.332 -15.498,15.528 -3.454,3.488 -6.928,3.137 -10.672,0.414 -7.525,-5.476 -8.97,-11.284 -4.709,-19.729 7.421,-14.707 16.612,-28.401 24.51,-42.836 1.16,-2.122 2.611,-4.127 3.079,-6.945 -7.913,1.36 -14.522,3.081 -19.408,10.433 -14.086,21.193 -33.143,37.608 -53.559,52.478 -3.341,2.433 -6.975,4.557 -10.703,6.342 -7.056,3.377 -12.627,1.43 -16.172,-5.545 -2.898,-5.706 -4.178,-11.824 -3.443,-18.221 -2.102,-0.824 -2.834,0.93 -3.861,1.772 -9.144,7.503 -18.458,14.754 -29.179,19.93 -2.684,1.296 -5.451,2.509 -8.301,3.356 -10.822,3.219 -18.668,-2.542 -19.198,-13.938 -0.044,-0.955 0.352,-2.01 -0.593,-2.773 0.296,0.388 0.551,0.366 0.702,-0.086 0.044,-0.132 -0.044,-0.308 -0.072,-0.464 -0.184,0.222 -0.368,0.443 -0.553,0.664 -5.203,5.328 -10.247,10.825 -15.673,15.916 -2.982,2.798 -5.883,7.029 -11.096,4.161 -5.062,-2.785 -6.27,-7.461 -5.867,-12.782 1.02,-13.466 5.445,-25.974 10.88,-38.183 2.192,-4.923 4.503,-9.792 6.808,-14.789 -0.657,-0.12 -0.874,-0.224 -0.941,-0.163 -14.014,12.731 -28.402,25.146 -37.076,42.525 -1.538,3.081 -4.23,3.127 -6.509,0.025 -2.086,-2.84 -1.644,-6.368 -2.698,-10.004 -2.148,1.498 -4.086,2.936 -6.109,4.242 -4.138,2.674 -8.329,5.043 -13.434,2.245 -2.22,-1.218 -2.879,1.039 -3.85,2.137 -4.732,5.356 -10.103,9.517 -17.328,11.073 -12.098,2.605 -20.848,-5.14 -19.301,-17.251 1.064,-8.325 4.706,-15.564 9.473,-22.262 7.138,-10.026 15.977,-18.298 26.596,-24.567 4.653,-2.747 9.474,-4.328 14.338,-0.285 0.367,0.305 1.039,0.829 1.19,0.722 4.036,-2.888 6.128,-0.151 7.852,2.856 2.631,4.592 4.336,9.422 1.829,14.688 -2.809,5.897 -6.784,11.045 -10.566,16.316 -2.517,3.508 -4.982,7.053 -7.54,10.68 2.364,1.546 3.564,-0.189 4.768,-1.28 8.869,-8.034 17.905,-15.812 23.453,-26.892 3.719,-7.428 8.704,-14.19 14.885,-19.916 2.125,-1.969 4.42,-3.616 7.545,-3.147 2.938,0.441 6.465,0.395 7.785,3.523 1.195,2.833 -2.064,4.154 -3.487,6.024 -2.418,3.178 -5.103,6.153 -7.536,9.321 -1.045,1.36 -2.439,2.761 -1.701,4.9 2.011,0.006 2.851,-1.651 4.003,-2.683 10.921,-9.777 21.834,-19.556 33.121,-28.922 3.741,-3.104 6.412,-2.4 9.442,0.581 6.073,5.975 6.612,10.11 1.747,16.964 -7.804,10.992 -15.956,21.746 -23.531,32.893 -5.616,8.264 -10.411,17.054 -12.018,27.163 -0.154,0.969 -0.144,1.963 -0.229,3.237 2.923,-0.598 4.224,-2.886 5.783,-4.632 10.212,-11.432 19.647,-23.508 29.085,-35.576 6.286,-8.039 13.173,-15.484 21.24,-21.753 3.146,-2.443 6.444,-4.744 9.891,-6.73 7.713,-4.446 13.53,-4.411 16.253,-0.22 2.64,4.063 0.105,15.72 -4.271,19.408 -0.607,0.512 -1.41,0.992 -2.174,1.091 -16.508,2.125 -26.192,13.319 -34.614,26.103 -2.941,4.465 -5.096,9.375 -6.138,14.646 -0.434,2.195 -1.586,4.984 0.293,6.647 1.969,1.742 4.437,-0.036 6.493,-0.914 7.231,-3.091 13.813,-7.346 20.079,-12.03 12.423,-9.287 24.259,-19.141 33.69,-31.728 6.736,-8.99 15.299,-16.258 25.472,-21.294 6.442,-3.189 12.683,-0.747 15.304,5.543 0.995,2.387 1.051,4.216 -2.239,4.545 6.523,5.742 7.057,8.599 2.146,15.567 -7.336,10.413 -18.175,14.905 -30.305,16.077 -5.006,0.482 -7.372,2.374 -8.774,6.879 -1.391,4.465 -2.734,8.92 -3.147,13.57 -0.4,4.508 1.034,5.53 5.176,3.744 2.274,-0.981 4.541,-2.149 6.518,-3.625 19.027,-14.208 36.481,-30.059 50.775,-49.161 0.775,-1.037 1.422,-2.171 2.511,-3.849 -3.076,0.12 -5.145,-0.712 -6.731,-2.903 -3.973,-5.486 -3.384,-7.541 2.893,-9.293 11.569,-3.228 22.422,-8.335 33.409,-13.045 4.395,-1.884 7.651,-1.298 10.505,2.379 0.918,1.183 1.878,2.334 2.779,3.529 4.891,6.488 5.784,12.584 0.54,19.867 -9.425,13.091 -18.053,26.76 -26.859,40.287 -2.52,3.87 -5.218,7.736 -6.176,12.422 -0.098,0.389 -0.381,1.037 -0.267,1.116 0.546,0.384 0.652,-0.19 0.833,-0.543 z M 194.18,406.175 c -0.995,-0.079 -1.431,-0.253 -1.611,-0.107 -13.146,10.575 -23.698,23.211 -30.41,38.808 -0.636,1.478 -1.857,3.644 0.24,4.971 1.768,1.118 3.723,0.147 5.051,-1.06 7.491,-6.806 17.363,-11.468 18.155,-23.873 0.43,-6.726 5.173,-12.428 8.575,-18.739 z m 165.748,17.749 c 11.26,-0.99 18.85,-8.802 17.563,-17.712 -6.751,4.813 -12.133,10.763 -17.563,17.712 z"
           id="path172"
           style="clip-rule:evenodd;fill:#18c6fe;fill-opacity:1;fill-rule:evenodd"
           inkscape:connector-curvature="0" /><path
           d="m 65.858,437.853 c -4.184,4.488 -8.364,8.98 -12.554,13.463 -3.39,3.626 -6.175,3.661 -9.563,-0.026 -4.269,-4.645 -4.318,-10.313 -3.348,-16.012 1.501,-8.82 5.381,-16.741 9.977,-24.314 5.196,-8.563 11.254,-16.473 18.055,-23.848 2.855,-3.097 5.246,-2.754 8.042,-0.16 5.42,5.027 5.697,8.391 0.938,13.899 -7.401,8.565 -15.184,16.841 -21.062,26.594 -3.201,5.312 -6.207,10.772 -5.969,17.425 9.39,-11.9 20.126,-22.581 28.696,-35.052 21.758,-31.662 50.659,-53.756 87.482,-65.241 6.583,-2.053 13.542,-0.903 20.176,-2.629 2.824,-0.734 4.44,1.482 4.979,3.835 0.809,3.532 3.166,7.5 -0.948,10.511 -3.215,2.354 -6.819,4.175 -10.032,6.53 -4.619,3.387 -10.067,6.115 -10.93,12.826 -0.259,2.017 -1.868,1.548 -3.069,0.801 -2.84,-1.766 -4.667,-4.24 -4.789,-7.707 -0.063,-1.802 -0.011,-3.608 -0.011,-5.635 -7.443,1.394 -13.673,4.877 -19.661,8.771 -19.23,12.511 -35.546,28.015 -47.7,47.596 -5.929,9.552 -10.458,19.696 -10.626,31.254 -0.093,6.375 2.555,8.837 8.903,8.073 4.825,-0.579 9.355,-2.259 13.744,-4.313 12.288,-5.751 23.536,-13.092 33.744,-22.03 1.341,-1.174 2.412,-2.817 4.631,-2.438 1.654,0.283 3.371,0.382 4.347,2.002 1.135,1.884 -0.178,3.277 -1.314,4.372 -16.884,16.264 -35.636,29.622 -58.831,35.119 -14.561,3.45 -23.334,-3.697 -23.77,-18.625 -0.14,-4.787 0.731,-9.604 1.137,-14.408 0.052,-0.379 0.106,-0.756 0.161,-1.133 -0.279,0.167 -0.557,0.334 -0.835,0.5 z"
           id="path174"
           style="clip-rule:evenodd;fill:#18c6fe;fill-opacity:1;fill-rule:evenodd"
           inkscape:connector-curvature="0" /><path
           d="m 78.025,375.021 c 2.087,-6.117 5.57,-12.24 10.735,-17.344 0.424,-0.419 1.248,-0.81 1.771,-0.694 4.271,0.941 6.352,4.435 8.707,7.625 1.727,2.34 0.885,4.321 -0.594,6.328 -2.865,3.888 -6.079,7.44 -9.785,10.554 -2.326,1.954 -4.643,1.376 -6.888,0.033 -2.141,-1.281 -4.309,-2.662 -3.946,-6.502 z"
           id="path190"
           style="clip-rule:evenodd;fill:#18c6fe;fill-opacity:1;fill-rule:evenodd"
           inkscape:connector-curvature="0" /><path
           d="m 274.017,449.025 c 0.185,-0.221 0.369,-0.442 0.553,-0.664 0.028,0.156 0.116,0.332 0.072,0.464 -0.151,0.452 -0.406,0.474 -0.702,0.086 z"
           id="path198"
           inkscape:connector-curvature="0"
           style="clip-rule:evenodd;fill:#fefdfc;fill-rule:evenodd" /><path
           d="m 441.647,448.646 c 0.361,-0.117 0.723,-0.234 1.084,-0.352 -0.048,0.398 -0.097,0.796 -0.143,1.194 -0.312,-0.279 -0.626,-0.56 -0.941,-0.842 z"
           id="path200"
           inkscape:connector-curvature="0"
           style="clip-rule:evenodd;fill:#fefdfc;fill-rule:evenodd" /><path
           d="m 423.216,454.217 c -0.181,0.354 -0.287,0.927 -0.833,0.546 -0.114,-0.079 0.169,-0.728 0.267,-1.116 0.187,0.189 0.376,0.379 0.566,0.57 z"
           id="path202"
           inkscape:connector-curvature="0"
           style="clip-rule:evenodd;fill:#fefdfc;fill-rule:evenodd" /><path
           d="m 65.858,437.853 c 0.277,-0.166 0.555,-0.333 0.833,-0.499 -0.054,0.377 -0.108,0.754 -0.161,1.133 -0.234,-0.199 -0.459,-0.41 -0.672,-0.634 z"
           id="path204"
           inkscape:connector-curvature="0"
           style="clip-rule:evenodd;fill:#fefdfc;fill-rule:evenodd" /></g></g></g><path
     inkscape:connector-curvature="0"
     style="stroke-width:4.80651855;filter:url(#filter5027)"
     d="m 263.71918,7.21084 v 27.87788 h 6.72901 V 7.21174 h 9.61304 V 0.9632 h -25.95507 v 6.24854 z"
     id="path82" /><path
     inkscape:connector-curvature="0"
     style="stroke-width:4.80651855;filter:url(#filter5021)"
     d="m 287.27011,0.96113 h 6.72901 v 33.64503 h -6.72841 z"
     id="path84" /><path
     inkscape:connector-curvature="0"
     style="stroke-width:4.80651855;filter:url(#filter5015)"
     d="m 326.2075,0.96113 v 22.1101 L 309.38468,0.96113 h -6.24853 v 34.12669 h 6.72901 v -22.1101 l 16.34204,22.1101 h 6.24854 V 0.96113 Z"
     id="path86" /><path
     inkscape:connector-curvature="0"
     style="stroke-width:4.80651855;filter:url(#filter5009)"
     d="m 359.35898,23.5517 h 6.24853 c -0.9613,3.84527 -3.84527,5.76776 -8.65179,5.76776 -7.69056,0 -11.05505,-5.76776 -11.05505,-11.53552 0,-5.76776 3.84527,-11.53553 10.57428,-11.53553 3.84527,0 7.20978,1.92261 7.69054,4.80652 l 0.48066,0.9613 h 6.729 V 10.57429 C 370.41385,4.32574 364.16538,0 356.9556,0 c -11.05505,0 -17.30359,9.13227 -17.30359,17.78405 0,8.6518 6.24854,17.30359 17.30359,17.30359 8.17102,0 13.93879,-4.80652 15.86157,-12.01629 h 3.3645 v -5.76777 h -16.82281 z"
     id="path88" /><path
     inkscape:connector-curvature="0"
     style="stroke-width:4.80651855;filter:url(#filter5003)"
     d="M 456.46456,14.42092 448.29354,0.96261 h -7.69055 l 12.49707,20.18731 -6.72901,13.9388 h 7.20978 l 16.82281,-34.1267 h -7.20976 z"
     id="path90" /><path
     style="stroke-width:2.97322702;filter:url(#filter4997)"
     inkscape:connector-curvature="0"
     d="m 381.9555,1.44278 v 33.64801 h 6.7296 V 23.55496 h 5.28699 l 5.287,11.05477 h 7.20917 l -5.76627,-12.49767 c 3.3645,-1.9226 5.28699,-5.76686 5.28699,-9.61214 0,-6.24853 -4.80651,-11.05625 -11.05475,-11.05625 z m 6.7296,5.76777 h 6.24884 c 2.88391,0 5.28698,2.40457 5.28698,5.28848 -0.48065,2.88391 -2.40305,5.28699 -5.28698,5.28699 h -6.24884 z"
     id="path92" /><path
     style="stroke-width:2.97322702;filter:url(#filter4991)"
     inkscape:connector-curvature="0"
     d="m 423.28335,0.96113 -11.53582,33.64503 h 7.20918 l 2.40302,-7.68996 h 10.09441 l 2.40303,7.68996 h 7.20917 L 429.05123,1.43981 Z m 2.40302,10.57398 3.3648,10.57398 h -6.72959 z"
     id="path94" /><path
     style="stroke-width:2.97322702;filter:url(#filter4985)"
     inkscape:connector-curvature="0"
     d="m 241.6073,15.38127 -6.24854,-1.44195 c -2.40326,-0.48065 -3.3645,-1.44197 -3.3645,-3.3645 0,-2.40327 1.92261,-3.84529 5.28729,-3.84529 3.36451,0 5.28729,1.92262 6.24854,3.84529 h 6.729 c -0.9613,-5.76777 -5.28728,-9.61304 -12.97754,-9.61304 -7.20977,0 -12.0163,4.32575 -12.0163,10.09381 0,5.28728 3.84528,8.17101 8.6518,9.13226 l 5.76776,1.44196 c 2.88391,0.48065 3.84528,1.9226 3.84528,3.84527 0,2.88391 -2.40326,4.32575 -5.76777,4.32575 -3.36449,0 -5.76775,-1.44196 -6.729,-4.32575 h -7.20978 c 0.9613,6.24853 6.24852,10.09381 13.93878,10.09381 7.20978,0 12.49707,-3.84528 12.49707,-10.57429 0,-5.28728 -3.3645,-8.17101 -8.6518,-9.61303"
     id="path96" /></svg>