<?xml version="1.0" encoding="UTF-8"?>
<!-- Created with Inkscape (http://www.inkscape.org/) -->
<svg width="4960" height="4332" version="1.1" viewBox="0 0 4960 4332" xmlns="http://www.w3.org/2000/svg" xmlns:cc="http://creativecommons.org/ns#" xmlns:dc="http://purl.org/dc/elements/1.1/" xmlns:rdf="http://www.w3.org/1999/02/22-rdf-syntax-ns#">
 <metadata>
  <rdf:RDF>
   <cc:Work rdf:about="">
    <dc:format>image/svg+xml</dc:format>
    <dc:type rdf:resource="http://purl.org/dc/dcmitype/StillImage"/>
    <dc:title/>
   </cc:Work>
  </rdf:RDF>
 </metadata>
 <g transform="translate(6.8391 -2.6475)">
  <path d="m0 2166v-2166h4960v4332h-4960z" fill="#fefefe"/>
  <path d="m2361.5 4330.4c-136.16-5.1031-283.54-27.964-419.5-65.073-447.65-122.18-835.88-403.32-1093.5-791.87-130.15-196.3-222.71-413.94-272.98-641.91-9.8678-44.751-22.684-114.76-21.268-116.17 0.29074-0.2907 2.6497 2.662 5.2422 6.5616 8.7729 13.196 23.454 22.405 51.012 31.998 125.59 43.72 243.07 111.37 376 216.51 64.162 50.751 109.27 89.712 242 209.02 91.887 82.598 123.52 110.4 160.5 141.08 223.65 185.53 445.82 303.82 683.5 363.91 97.713 24.704 184.33 37.849 293.5 44.541 28.457 1.7443 108.37 2.3546 138 1.0539 186.17-8.171 357.51-51.225 521.5-131.04 194.93-94.876 364.08-238.46 496.93-421.82 6.4753-8.9375 12.354-16.25 13.063-16.25 0.7092 0 5.2767 3.4251 10.15 7.6114 97.232 83.523 229.58 117.21 368.68 93.851 105.78-17.766 207.19-68.105 281.05-139.5 18.723-18.098 38.451-40.839 50.92-58.698 9.3503-13.392 8.9537-9.8761-2.2981 20.369-127.75 343.41-353.29 644.59-648.49 865.98-119.97 89.975-251.69 166.39-388.77 225.54-194.68 84.001-399.37 134.43-612.13 150.82-61.709 4.7532-159.77 6.2094-233.1 3.4613zm-32-793.56c-181.44-7.7508-352.23-47.198-513.5-118.6-24.836-10.996-87.79-42.384-115.5-57.586-91.484-50.189-182.46-110.7-289.41-192.49-41.32-31.599-60.369-46.608-155.09-122.19-93.163-74.343-116.9-92.948-157.35-123.33-178.43-134.02-318.4-207.61-470.65-247.46-18.965-4.9635-22.62-5.6237-31-5.5986-20.114 0.06-36.585 10.372-41.625 26.06-0.85024 2.6467-1.7627 5.4872-2.0278 6.3122-1.0216 3.1801-2.1588-1.7327-4.7452-20.5-12.5-90.701-17.919-171-17.919-265.5 0-94.775 5.2768-173.01 17.841-264.5 31.476-229.22 107.03-457.21 217.84-657.41 5.3002-9.5754 9.6368-17.72 9.6368-18.099s-10.912-0.4759-24.25-0.2153c-88.772 1.7345-180.42-13.656-264.73-44.459-53.166-19.424-109.1-47.83-156.24-79.351-165.53-110.67-279.64-282.82-316.18-476.97-17.291-91.878-16.959-189.13 0.9542-280.13 26.139-132.78 86.931-253.28 179.04-354.87 128.17-141.37 311.66-229.34 498.41-238.96 52.321-2.6935 111.62-0.56551 154 5.5265 101.58 14.601 202.41 52.016 289.54 107.43 85.905 54.641 162.65 129.83 218.93 214.49 38.838 58.425 70.98 126.1 90.958 191.5 21.766 71.26 32.508 143.27 32.556 218.25 0.01 12.512 0.2363 22.75 0.5074 22.75s10.284-5.5682 22.25-12.374c61.804-35.149 129.61-68.71 195.76-96.883 192.7-82.081 400.93-132.24 611-147.18 50.744-3.6095 65.909-4.0536 138.5-4.056 82.64-3e-3 113.47 1.2826 181 7.5455 386.82 35.876 755.78 190.62 1053.5 441.84 72.901 61.516 146.71 133.94 208.52 204.61 252.21 288.35 411.51 642.8 458.88 1021 33.087 264.18 11.113 534.2-64.045 787-8.2618 27.79-20.852 66.813-21.915 67.924-0.5313 0.5554-1.8728-0.1429-3.3622-1.75-1.9062-2.0568-3.4199-2.674-6.5581-2.674-5.5615 0-8.6708 1.4524-25.223 11.782-53.575 33.434-108.93 55.715-162.02 65.213-39.08 6.9918-80.47 7.8394-117.78 2.4119-79.102-11.508-155.55-48.658-225.8-109.72-23.747-20.643-62.199-61.37-62.199-65.88 0-0.9613 2.7558-8.6226 6.124-17.025 51.423-128.28 83.72-262.76 94.81-394.78 3.2376-38.541 4.3026-65.246 4.3072-108 0-42.306-1.0132-67.6-4.3057-107-22.21-265.78-130.42-522.58-308.85-733-45.126-53.213-100.86-109.12-155.08-155.54-128.62-110.13-278.92-196.22-435.5-249.44-100.42-34.131-198.06-54.245-308-63.453-42.262-3.5394-56.101-4.0381-112.5-4.0539-56.521-0.016-72.807 0.5602-114 4.0328-275.96 23.263-534.77 131.47-745 311.47-108.36 92.779-205.07 208.95-276.02 331.56-69.777 120.58-119.1 248.22-148.36 383.92-29.841 138.41-38.227 291.53-23.023 420.43 11.944 101.26 39.311 187.73 77.558 245.06 12.19 18.272 18.275 25.874 31.112 38.865 27.374 27.704 54.231 40.717 86.43 41.877 13.055 0.4704 15.099 0.2915 25.5-2.2315 28.081-6.8117 50.196-19.502 79.446-45.589 24.021-21.424 41.885-42.909 97.208-116.92 93.23-124.72 146.95-200.5 283.15-399.5 69.132-101 74.94-109.24 80.896-114.81 2.8298-2.6454 6.6962-5.4579 8.5918-6.25 7.3473-3.0698 16.38-1.006 23.691 5.4129 13.575 11.919 36.618 56.685 139.32 270.65 103.04 214.68 155.09 319.78 205.27 414.5 28.129 53.093 58.407 107.39 67.482 121 20.046 30.077 44.47 49.747 69.658 56.101 7.0752 1.7848 10.484 2.0522 21.5 1.6862 11.38-0.3781 14.298-0.8465 22.314-3.5829 26.774-9.1392 32.884-14.106 115.4-93.81 69.157-66.801 104.89-98.278 150-132.13 101.57-76.218 179.89-103.04 270.88-92.758 117.67 13.292 248.71 95.459 365.2 228.99 13.199 15.13 33.802 40.358 33.802 41.39 0 0.4297-5.223 9.0677-11.607 19.196-89.712 142.33-212.85 262.77-356.89 349.06-164.41 98.498-349.15 152.46-554 161.83-25.341 1.1586-109.01 1.1007-137-0.095zm-1246-2506.9c99.705-5.927 164.2-36.253 203.04-95.47 20.692-31.549 33.457-73.514 38.48-126.5 1.6662-17.577 2.4184-113.61 1.0948-139.77-2.7218-53.79-11.355-91.872-28.619-126.25-25.495-50.763-68.652-85.005-128.99-102.35-36.386-10.458-74.372-14.635-133-14.625-52.943 9e-3 -174.36 2.7524-202.26 4.5704l-9.261 0.60348 0.26101 41.133 0.26102 41.133 19.5 3.0424c10.725 1.6733 20.062 3.3977 20.75 3.832 0.99344 0.62749 1.25 43.341 1.25 208.11 0 164.65-0.25728 207.53-1.25 208.33-0.6875 0.55819-9.125 2.1994-18.75 3.6471-9.625 1.4477-18.512 2.8547-19.75 3.1266l-2.25 0.49442v81.839l4.25 0.528c6.9527 0.8639 109.26 4.1206 154.25 4.9101 40.259 0.7065 85.93 0.5503 101-0.3455zm-109.01-94.146c-0.27697-0.72842-0.3882-94.699-0.24717-208.82l0.25642-207.5 55 0.022c58.774 0.0235 65.495 0.45554 88 5.657 53.117 12.277 82.695 43.832 93.977 100.26 4.7745 23.881 5.0234 28.889 5.0234 101.06 0 49.412-0.3547 71.007-1.2976 79-9.3881 79.586-43.128 116.8-116.7 128.73-11.814 1.9149-18.04 2.1442-68.253 2.5143-45.222 0.33331-55.344 0.16681-55.756-0.91717zm-604.73 48.447 0.26107-41.228-2.2611-0.47405c-1.2436-0.26072-9.9111-1.2108-19.261-2.1112s-17.565-2.1041-18.255-2.6748c-0.99335-0.82099-1.2021-19.227-1-88.161l0.25547-87.123h263l0.25553 87.444c0.14054 48.094-0.0845 87.76-0.5 88.147-0.41554 0.38615-8.6305 1.4437-18.256 2.3502s-18.517 1.8628-19.761 2.1253l-2.2611 0.4772 0.26107 41.228 0.26108 41.228 191.5 0.51v-82.972l-2.25-0.47127c-1.2375-0.25919-9.9-1.208-19.25-2.1084s-17.562-2.102-18.25-2.6702c-1.8367-1.518-1.8367-418.06 0-419.58 0.6875-0.5682 8.9-1.7698 18.25-2.6702s18.012-1.8492 19.25-2.1084l2.25-0.47127v-82.972l-191.5 0.51005-0.26108 41.228-0.26107 41.228 2.2611 0.4772c1.2436 0.26246 10.136 1.2188 19.761 2.1253s17.84 1.9644 18.256 2.3511 0.64105 34.203 0.5 75.147l-0.25646 74.444h-263l-0.25637-74.122c-0.20245-58.532 8e-3 -74.341 1-75.161 0.691-0.57111 8.9064-1.7751 18.256-2.6755s18.017-1.8505 19.261-2.1112l2.2611-0.47405-0.26107-41.228-0.26108-41.228-191.52-0.51005 0.26097 41.755 0.26098 41.755 19 1.8023c14.944 1.4176 19.267 2.1521 20.25 3.4411 1.8351 2.406 1.8351 416.11 0 418.51-0.98317 1.289-5.3058 2.0236-20.25 3.4411l-19 1.8023-0.26098 41.755-0.26097 41.755 191.52-0.5101zm3133.2 1763.7c-68.99-80.312-139.8-144.7-213.01-193.67-145.29-97.199-297.32-128.76-441.8-91.73-75.666 19.395-144.46 53.168-212.71 104.41-40.06 30.084-75.304 61.379-132.63 117.77-15.795 15.538-29.154 28.25-29.687 28.25-3.1924 0-13.434-16.8-24.862-40.784-17.942-37.656-31.498-68.083-94.302-211.67-118.24-270.33-214.63-481.34-238.5-522.13-54.777-93.578-126.92-134.13-198.08-111.35-36.958 11.834-75.726 44.753-115.92 98.427-23.554 31.455-39.686 57.464-220.81 356-172.34 284.07-228.87 375.86-234.52 380.88-6.4955 5.7556-13.272-1.1533-17.689-18.036-2.1337-8.1544-8.9838-56.753-11.465-81.339-6.6136-65.538-7.6912-138.29-2.9623-200 13.303-173.6 65.134-337.17 153.68-485 64.696-108.01 150.18-206.59 249.25-287.43 144.13-117.61 316.67-197.22 500.5-230.96 64.335-11.806 120.63-17.239 189.5-18.288 41.721-0.6359 75.132 0.4547 114 3.7211 242.05 20.342 469.82 117.23 652.44 277.55 151.32 132.84 265.27 303.77 329.25 493.9 30.78 91.464 47.885 178.07 55.496 281 1.6678 22.555 1.6697 109.41 0 132-5.1668 70.032-13.974 126.66-29.242 188-8.2392 33.104-11.214 42.926-13.11 43.292-0.9611 0.1851-5.8865-4.7368-12.835-12.825zm490.46-1546.2c-0.2603-0.6893-0.5842-72.803-0.7198-160.25l-0.2465-159-160-0.24754c-149.02-0.23055-160.09-0.36375-161.25-1.9411-0.9871-1.3374-1.25-33.687-1.25-153.81s0.2629-152.47 1.25-153.81c1.1642-1.5774 12.229-1.7106 161.25-1.9411l160-0.24754 0.2531-160.44c0.2-126.83 0.5142-160.61 1.5-161.23 1.4417-0.91552 304.79-1.1283 307.17-0.21545 1.4333 0.54999 1.5818 15.621 1.5818 160.5 0 87.941 0.338 159.89 0.7512 159.89 0.4131 0 72.75-72 160.75-160l160-160h165.14c149.67 0 165.2 0.14824 165.75 1.5818 0.3339 0.86998 0.607 214.76 0.607 475.31 0 377.41-0.2541 474.07-1.25 475.43-1.1685 1.5873-11.98 1.6814-165.75 1.4412l-164.5-0.257-1-320h-320l-1 320-154.28 0.2532c-122.9 0.2016-154.38 0-154.75-1z" fill="#fce3a1"/>
  <path d="m2361.5 4330.4c-136.16-5.1031-283.54-27.964-419.5-65.073-447.65-122.18-835.88-403.32-1093.5-791.87-130.15-196.3-222.71-413.94-272.98-641.91-9.8678-44.751-22.684-114.76-21.268-116.17 0.29074-0.2907 2.6497 2.662 5.2422 6.5616 8.7729 13.196 23.454 22.405 51.012 31.998 125.59 43.72 243.07 111.37 376 216.51 64.162 50.751 109.27 89.712 242 209.02 91.887 82.598 123.52 110.4 160.5 141.08 223.65 185.53 445.82 303.82 683.5 363.91 97.713 24.704 184.33 37.849 293.5 44.541 28.457 1.7443 108.37 2.3546 138 1.0539 186.17-8.171 357.51-51.225 521.5-131.04 194.93-94.876 364.08-238.46 496.93-421.82 6.4753-8.9375 12.354-16.25 13.063-16.25 0.7092 0 5.2767 3.4251 10.15 7.6114 97.232 83.523 229.58 117.21 368.68 93.851 105.78-17.766 207.19-68.105 281.05-139.5 18.723-18.098 38.451-40.839 50.92-58.698 9.3503-13.392 8.9537-9.8761-2.2981 20.369-127.75 343.41-353.29 644.59-648.49 865.98-119.97 89.975-251.69 166.39-388.77 225.54-194.68 84.001-399.37 134.43-612.13 150.82-61.709 4.7532-159.77 6.2094-233.1 3.4613zm11-794.12c-175.98-2.5708-344.67-35.165-501.11-96.825-32.448-12.789-87.548-36.809-91.152-39.736-0.6943-0.5639-2.6071-1.1818-4.2508-1.3732-3.4973-0.4072-48.133-22.697-75.487-37.696-91.307-50.066-182.45-110.68-289.41-192.48-41.32-31.599-60.369-46.608-155.09-122.19-93.163-74.343-116.9-92.948-157.35-123.33-178.43-134.02-318.4-207.61-470.65-247.46-18.965-4.9635-22.62-5.6237-31-5.5986-20.114 0.06-36.585 10.372-41.625 26.06-0.85024 2.6467-1.7627 5.4872-2.0278 6.3122-1.0216 3.1801-2.1588-1.7327-4.7452-20.5-12.5-90.701-17.919-171-17.919-265.5 0-65.479 2.0529-113.64 7.3523-172.5 20.721-230.14 81.798-451.72 181.51-658.5 17.776-36.864 50.443-99.248 56.685-108.25 1.0488-1.5125 1.5387-2.786 1.0887-2.8299-0.44995-0.044-14.093-0.019-30.318 0.055-51.649 0.2361-93.005-3.296-140.81-12.027-255.96-46.74-469.73-228.08-559.03-474.21-20.939-57.714-34.391-118.37-40.856-184.23-2.5455-25.93-2.5455-106.07 0-132 10.86-110.63 42.346-209.97 95.873-302.5 69.06-119.38 169.13-216.09 291.78-281.99 82.289-44.215 179.05-73.604 271.54-82.473 8.8-0.84385 20.95-2.0847 27-2.7575 14.611-1.6248 81.322-1.6299 96-0.00725 6.05 0.6688 18.2 1.9243 27 2.79 235.31 23.148 448.35 162.08 565.76 368.94 63.129 111.23 95.743 234.76 95.743 362.64v26.677l14.75-8.5402c61.29-35.487 137.49-73.461 205.75-102.54 192.7-82.081 400.93-132.24 611-147.18 50.744-3.6095 65.909-4.0536 138.5-4.056 82.64-3e-3 113.47 1.2826 181 7.5455 386.82 35.876 755.78 190.62 1053.5 441.84 72.901 61.516 146.71 133.94 208.52 204.61 252.21 288.35 411.51 642.8 458.88 1021 33.087 264.18 11.113 534.2-64.045 787-8.2618 27.79-20.852 66.813-21.915 67.924-0.5313 0.5554-1.8728-0.1429-3.3622-1.75-1.9062-2.0568-3.4199-2.674-6.5581-2.674-5.5615 0-8.6708 1.4524-25.223 11.782-53.575 33.434-108.93 55.715-162.02 65.213-39.08 6.9918-80.47 7.8394-117.78 2.4119-79.102-11.508-155.55-48.658-225.8-109.72-23.747-20.643-62.199-61.37-62.199-65.88 0-0.9613 2.7558-8.6226 6.124-17.025 51.423-128.28 83.72-262.76 94.81-394.78 3.2376-38.541 4.3026-65.246 4.3072-108 0-42.306-1.0132-67.6-4.3057-107-22.21-265.78-130.42-522.58-308.85-733-45.126-53.213-100.86-109.12-155.08-155.54-128.62-110.13-278.92-196.22-435.5-249.44-100.42-34.131-198.06-54.245-308-63.453-42.262-3.5394-56.101-4.0381-112.5-4.0539-56.521-0.016-72.807 0.5602-114 4.0328-275.96 23.263-534.77 131.47-745 311.47-108.36 92.779-205.07 208.95-276.02 331.56-69.777 120.58-119.1 248.22-148.36 383.92-29.841 138.41-38.227 291.53-23.023 420.43 11.944 101.26 39.311 187.73 77.558 245.06 12.19 18.272 18.275 25.874 31.112 38.865 20.317 20.562 39.916 32.54 64.406 39.362 6.9014 1.9224 10.321 2.1818 28.83 2.1874 20.313 0.01 21.278-0.085 29.5-2.7917 27.508-9.0551 52.704-26.109 82.044-55.53 19.684-19.739 36.463-39.877 64.227-77.087 12.106-16.225 28.62-38.275 36.697-49 65.705-87.248 139.91-192.26 266.04-376.5 82.167-120.02 80.382-117.57 88.394-121.45 5.4868-2.6561 12.499-2.6535 17.714 0.01 6.2486 3.1877 11.902 9.8414 20.143 23.708 18.721 31.499 40.455 75.103 119.74 240.24 132.46 275.88 186.54 383.68 247.78 494 29.193 52.583 36.546 63.653 53.21 80.114 34.89 34.465 74.993 40.31 114.24 16.651 16.401-9.886 24.035-16.669 85.265-75.766 67.142-64.804 93.879-89.035 132.89-120.44 84.46-67.993 154.15-103.14 222.11-112 119.89-15.642 255.6 45.349 385.86 173.41 28.861 28.374 66.695 70.64 83.898 93.725 1.1203 1.5033 0.873 1.9546-13.045 23.814-58.279 91.533-133.43 177.18-216.21 246.41-183.79 153.71-411.51 241.89-666.5 258.08-16.747 1.0638-90.205 3.1265-98 2.7518-2.2-0.1058-11.2-0.2975-20-0.426zm-1276-2505.3c92.308-8.1205 152.69-37.838 190.02-93.526 20.362-30.37 32.376-66.458 39.114-117.49 2.1814-16.523 3.2196-143.75 1.371-168-9.8723-129.49-72.96-201.44-195.01-222.39-32.108-5.5122-42.993-6.0855-112-5.8981-88.64 0.24065-193.95 3.1751-196.73 5.4818-0.98739 0.81946-1.2654 10.063-1.2534 41.681 8e-3 22.345 0.38478 41.21 0.83635 41.922 0.50192 0.79118 8.3254 2.4546 20.128 4.2796 10.619 1.642 19.693 3.2236 20.164 3.5148 1.314 0.81207 1.1036 413.14-0.21114 413.95-0.58725 0.36294-9.4365 1.971-19.665 3.5734-10.228 1.6025-19.198 3.4122-19.932 4.0216-1.0738 0.89118-1.3321 9.0585-1.3198 41.736 8e-3 22.345 0.36967 41.186 0.80278 41.867 0.86625 1.364 18.769 2.3546 78.17 4.3253 86.103 2.8566 169.24 3.2598 195.51 0.9482zm-119.99-96.128c-0.28986-0.76202-0.41164-94.31-0.27061-207.89l0.25643-206.5 33.5-0.3019c77.556-0.69893 110.67 3.6428 140.11 18.371 35.134 17.578 53.599 47.534 62.12 100.77 1.9468 12.164 2.1371 18.095 2.5238 78.656 0.2743 42.966 0.037 69.972-0.6887 78.5-6.9554 81.689-39.091 121.86-107.56 134.44-19.306 3.5488-29.944 4.1801-80.229 4.7608-41.411 0.4782-49.313 0.34845-49.756-0.81701zm-605.71 91.915c1.3884-1.3884 1.7473-82.39 0.37461-84.552-0.51232-0.80688-7.688-1.9619-20.191-3.25-10.668-1.099-19.529-1.9983-19.69-1.9983-0.16138 0-0.29341-38.927-0.29341-86.504v-86.504l260.5 0.50746 0.23792 85c0.13085 46.75-0.12149 85.564-0.56077 86.253-0.51329 0.80516-7.4659 1.9386-19.457 3.172-10.262 1.0556-19.122 2.2058-19.689 2.5562-0.68128 0.42106-1.0307 14.988-1.0307 42.971 0 37.681 0.17387 42.401 1.5818 42.941 0.86998 0.3339 44.205 0.607 96.3 0.607 72.336 0 95.002-0.2836 95.918-1.2 1.4066-1.4066 1.738-82.404 0.34615-84.598-0.55141-0.86926-7.2324-1.9402-20.235-3.2434-10.676-1.0701-19.524-1.9486-19.661-1.9522-0.1375-0.00364-0.25-94.057-0.25-209.01s0.1125-209 0.25-209.01c0.1375-4e-3 8.9852-0.88216 19.661-1.9522 13.002-1.3032 19.683-2.3741 20.235-3.2434 1.3919-2.1942 1.0605-83.191-0.34615-84.598-0.91644-0.91644-23.582-1.2-95.918-1.2-52.095 0-95.43 0.27314-96.3 0.60699-1.4079 0.54027-1.5818 5.2604-1.5818 42.941 0 27.983 0.34938 42.55 1.0307 42.971 0.56686 0.35034 9.427 1.5006 19.689 2.5562 11.997 1.234 18.943 2.3665 19.454 3.172 0.4375 0.68906 0.80235 33.485 0.81077 72.88 0.0126 59.109-0.22186 71.824-1.3417 72.754-0.99413 0.82505-35.826 1.0584-130.25 0.87245l-128.89-0.25379-0.25645-73.75c-0.14104-40.562-0.14104-73.753 0-73.757 0.14105-4e-3 8.9916-0.88216 19.668-1.9522 13.002-1.3032 19.683-2.3741 20.235-3.2434 1.3919-2.1942 1.0605-83.191-0.34615-84.598-0.91653-0.91653-23.693-1.2-96.418-1.2-52.37 0-95.93 0.27314-96.8 0.60699-1.4079 0.54027-1.5818 5.2604-1.5818 42.941 0 28.826 0.33931 42.544 1.0634 42.991 0.58485 0.36146 9.3541 1.4829 19.487 2.492 10.133 1.0092 18.88 2.1166 19.437 2.4608 1.4491 0.89562 1.4049 416.15-0.0444 417.04-0.58151 0.35939-9.3307 1.4685-19.443 2.4646s-18.861 2.1052-19.443 2.4646c-1.6471 1.018-1.4582 85.207 0.19272 85.873 0.6875 0.2774 44.248 0.5399 96.8 0.5834 73.072 0.06 95.832-0.2034 96.75-1.1211zm3137.2 1724.5c-39.101-46.95-103.26-110.54-150.42-149.09-101.78-83.196-208.81-134.3-315.57-150.68-28.466-4.3658-37.926-4.9878-75.519-4.9646-48.092 0.03-72.223 2.87-115.5 13.595-39.231 9.7223-74.025 22.5-112.5 41.314-62.882 30.749-118.73 70.852-187.5 134.63-13.86 12.855-25.203 23.786-66.317 63.905l-11.816 11.531-2.6835-3.1663c-6.7319-7.9433-25-45.308-53.944-110.33-7.7116-17.325-33.599-76.275-57.527-131-97.172-222.24-141.49-320.75-204.71-455-27.262-57.893-35.096-72.773-50.013-95-25.2-37.548-53.4-64.844-83.985-81.293-33.06-17.78-68.973-21.5-102.33-10.6-44.496 14.541-88.452 55.285-136.89 126.89-15.933 23.552-55.258 87.53-166.26 270.5-106.95 176.29-127.66 210.35-166.53 274-71.914 117.74-100.31 163.01-103.57 165.15-3.4321 2.2488-6.0846 0.8481-9.4057-4.9671-3.7693-6.5998-6.1602-17.001-9.9263-43.184-14.565-101.26-16.058-200.02-4.514-298.5 37.525-320.12 214.22-607.57 483.44-786.44 168.9-112.23 360.47-174.55 567.5-184.64 26.916-1.3117 104.13-0.6807 127 1.0379 75.232 5.6545 134.37 14.908 201 31.449 162.82 40.422 312.28 115.39 443.32 222.38 48.209 39.36 102.17 92.217 144.11 141.17 60.247 70.309 114.3 152.18 155.53 235.55 64.608 130.65 101.47 264.44 113.1 410.5 2.1423 26.896 3.0039 98.64 1.5315 127.54-2.6111 51.248-8.6202 101.74-17.729 148.96-6.8568 35.549-21.776 95.468-23.95 96.193-0.5258 0.1753-3.8627-3.1714-7.4153-7.4371zm1116.7-1548.9c-0.3667-0.3666-0.6667-73.043-0.6667-161.5v-160.84l-321.5 0.50608-0.2531 159.4c-0.1838 115.79-0.5593 159.77-1.3724 160.75-0.9302 1.1209-26.764 1.3488-152.87 1.3488s-151.94-0.2279-152.87-1.3488c-0.8131-0.9797-1.1886-44.956-1.3724-160.75l-0.2531-159.4-321-1v-306l321-1 0.5076-161c0.2792-88.55 0.6167-161.11 0.75-161.25s69.044-0.25 153.14-0.25c138.5 0 152.95 0.14895 153.5 1.5818 0.3339 0.86998 0.607 73.32 0.607 161 0 105.61 0.3375 159.42 1 159.42 0.55 0 1-0.56303 1-1.2512s72.113-73.363 160.25-161.5l160.25-160.25h165.14c149.67 0 165.2 0.14824 165.75 1.5818 1.1206 2.9203 0.6947 948.39-0.4282 950.48-1.017 1.9003-3.92 1.9343-165.33 1.9343-90.364 0-164.6-0.3-164.96-0.6667z" fill="#fdca0e"/>
  <path d="m2361.5 4330.4c-136.16-5.1031-283.54-27.964-419.5-65.073-447.65-122.18-835.88-403.32-1093.5-791.87-130.15-196.3-222.71-413.94-272.98-641.91-9.8678-44.751-22.684-114.76-21.268-116.17 0.29074-0.2907 2.6497 2.662 5.2422 6.5616 8.7729 13.196 23.454 22.405 51.012 31.998 125.59 43.72 243.07 111.37 376 216.51 64.162 50.751 109.27 89.712 242 209.02 91.887 82.598 123.52 110.4 160.5 141.08 223.65 185.53 445.82 303.82 683.5 363.91 97.713 24.704 184.33 37.849 293.5 44.541 28.457 1.7443 108.37 2.3546 138 1.0539 186.17-8.171 357.51-51.225 521.5-131.04 194.93-94.876 364.08-238.46 496.93-421.82 6.4753-8.9375 12.354-16.25 13.063-16.25 0.7092 0 5.2767 3.4251 10.15 7.6114 97.232 83.523 229.58 117.21 368.68 93.851 105.78-17.766 207.19-68.105 281.05-139.5 18.723-18.098 38.451-40.839 50.92-58.698 9.3503-13.392 8.9537-9.8761-2.2981 20.369-127.75 343.41-353.29 644.59-648.49 865.98-119.97 89.975-251.69 166.39-388.77 225.54-194.68 84.001-399.37 134.43-612.13 150.82-61.709 4.7532-159.77 6.2094-233.1 3.4613zm-614.22-945.38c-105.08-52.714-210.36-120.62-336.19-216.85-41.32-31.599-60.369-46.608-155.09-122.19-93.163-74.343-116.9-92.948-157.35-123.33-178.43-134.02-318.4-207.61-470.65-247.46-18.965-4.9635-22.62-5.6237-31-5.5986-20.114 0.06-36.585 10.372-41.625 26.06-0.85024 2.6467-1.7627 5.4872-2.0278 6.3122-1.0216 3.1801-2.1588-1.7327-4.7452-20.5-12.5-90.701-17.919-171-17.919-265.5 0-65.479 2.0529-113.64 7.3523-172.5 20.721-230.14 81.798-451.72 181.51-658.5 18.556-38.482 52.579-103.23 57.323-109.08 1.4083-1.7387 3.4877-2.1476 15.133-2.9756 219.51-15.607 419.14-127.14 547.57-305.94 81.153-112.98 128.2-245.3 136.7-384.49l1.2213-19.992 14.5-8.386c61.469-35.551 137.37-73.366 205.5-102.39 192.7-82.081 400.93-132.24 611-147.18 50.744-3.6095 65.909-4.0536 138.5-4.056 82.64-3e-3 113.47 1.2826 181 7.5455 386.82 35.876 755.78 190.62 1053.5 441.84 72.901 61.516 146.71 133.94 208.52 204.61 252.21 288.35 411.51 642.8 458.88 1021 33.087 264.18 11.113 534.2-64.045 787-8.2618 27.79-20.852 66.813-21.915 67.924-0.5313 0.5554-1.8728-0.1429-3.3622-1.75-1.9062-2.0568-3.4199-2.674-6.5581-2.674-5.5615 0-8.6708 1.4524-25.223 11.782-53.575 33.434-108.93 55.715-162.02 65.213-39.08 6.9918-80.47 7.8394-117.78 2.4119-79.102-11.508-155.55-48.658-225.8-109.72-23.747-20.643-62.199-61.37-62.199-65.88 0-0.9613 2.7558-8.6226 6.124-17.025 51.423-128.28 83.72-262.76 94.81-394.78 3.2376-38.541 4.3026-65.246 4.3072-108 0-42.306-1.0132-67.6-4.3057-107-22.21-265.78-130.42-522.58-308.85-733-45.126-53.213-100.86-109.12-155.08-155.54-128.62-110.13-278.92-196.22-435.5-249.44-100.42-34.131-198.06-54.245-308-63.453-42.262-3.5394-56.101-4.0381-112.5-4.0539-56.521-0.016-72.807 0.5602-114 4.0328-275.96 23.263-534.77 131.47-745 311.47-108.36 92.779-205.07 208.95-276.02 331.56-69.777 120.58-119.1 248.22-148.36 383.92-29.841 138.41-38.227 291.53-23.023 420.43 11.944 101.26 39.311 187.73 77.558 245.06 12.19 18.272 18.275 25.874 31.112 38.865 20.347 20.592 40.164 32.691 64.406 39.323 6.2358 1.7058 11.292 2.2076 24.83 2.4644 9.35 0.1774 17.338 0.3293 17.75 0.3377 0.4125 0.01 0.75 0.4805 0.75 1.0492 0 4.7731 38.762 84.965 56.053 115.97 43.275 77.584 94.428 149.42 154.53 217 16.549 18.609 59.45 62.1 79.42 80.511 38.238 35.253 81.973 70.5 125.25 100.94 8.3549 5.8772 11.254 8.5466 9.2801 8.5466-0.2585 0-12.971-6.2714-28.25-13.936zm2877.4-2182.7c-0.3667-0.3666-0.6667-142.07-0.6667-314.89 0-285.61-0.144-314.28-1.5818-314.83-0.87-0.33385-72.87-0.60699-160-0.60699-126.15 0-158.42-0.25488-158.42-1.2512 0-0.68814 72.113-73.363 160.25-161.5l160.25-160.25h165.14c149.67 0 165.2 0.14824 165.75 1.5818 1.1206 2.9203 0.6947 948.39-0.4282 950.48-1.017 1.9003-3.92 1.9343-165.33 1.9343-90.364 0-164.6-0.3-164.96-0.6667z" fill="#5d94c5"/>
  <path d="m2397.5 4330.9c-11.55-0.3892-23.925-0.967-27.5-1.284s-15.725-1.051-27-1.6311c-315.93-16.254-626.37-112.92-897.21-279.38-188.53-115.87-356.67-264.45-494.97-437.4-191.95-240.04-323.36-522.54-382.21-821.69-5.1873-26.366-11.602-62.334-11.602-65.055 0-1.2857 1.5435-0.1125 5.096 3.8733 10.354 11.617 24.113 19.206 52.904 29.18 135.78 47.038 268.67 128.05 426.73 260.15 48.036 40.145 85.829 73.326 179.77 157.84 117.58 105.78 148.89 132.93 203.49 176.47 142.38 113.55 284.51 199.89 431.01 261.82 186.95 79.019 387.27 119.19 594.5 119.22 260.45 0.037 511.96-75.838 727-219.32 100.5-67.054 192.26-148.51 273.01-242.34 24.289-28.224 60.44-74.506 78.988-101.12 2.75-3.9466 5.45-7.1764 6-7.1775 0.55 0 5.0302 3.4205 9.956 7.6033 36.672 31.14 79.702 56.384 124.84 73.237 120.04 44.821 265.1 34.663 392.7-27.501 32.733-15.947 61.135-33.121 87.29-52.784 34.025-25.579 66.616-57.684 90.791-89.436 4.3554-5.7207 7.9189-9.8905 7.9189-9.2663 0 4.0349-30.147 80.557-45.746 116.12-27.209 62.026-58.926 125.27-91.188 181.83-103.76 181.91-236.14 345.17-393.07 484.75-322.1 286.5-729.58 455.21-1159 479.87-14.575 0.837-29.875 1.746-34 2.0201-32.961 2.1896-87.62 2.7908-128.5 1.4135zm-660-952.73c-95.38-48.728-189.78-109.22-301.5-193.2-42.95-32.286-80.708-61.873-173.5-135.95-98.854-78.919-124.98-99.372-168-131.5-131.91-98.519-236.16-160.16-345.1-204.05-46.964-18.922-118.89-41.504-144.62-45.404-8.2358-1.2484-18.836-0.1793-25.983 2.6205-10.456 4.0963-19.885 12.334-23.502 20.534-0.92283 2.0917-1.9763 3.803-2.341 3.803-0.797 0-4.9938-30.158-8.4191-60.5-20.276-179.6-15.557-359.77 14.065-537 35.296-211.18 107.7-419.14 210.64-605l9.4155-17 4.9229-0.7052c2.7076-0.3879 13.473-1.4159 23.923-2.2845 26.068-2.1668 50.516-5.7115 79.5-11.527 125.2-25.12 241.57-82.67 339.5-167.9 16.785-14.608 50.226-47.834 65.502-65.08 57.478-64.889 101.37-135.63 133.71-215.5 29.209-72.138 47.94-157.02 51.916-235.28l0.6745-13.277 22.599-12.846c147.32-83.737 304.22-147.33 466.6-189.12 212.04-54.571 431.07-72.35 651.5-52.886 247.26 21.834 487.87 91.822 708 205.94 358.31 185.75 649.48 480.09 830.94 839.97 118.02 234.06 185.33 485.17 201.04 750 3.3055 55.722 3.8291 153.55 1.0866 203-8.4004 151.46-28.763 279.67-66.067 416-9.3364 34.119-29.276 99.13-31.666 103.24-0.2368 0.4073-1.7238-0.2156-3.3045-1.3842-4.9963-3.6939-11.176-2.32-23.298 5.1793-69.873 43.229-124.77 64.383-190.72 73.498-16.003 2.2114-57.29 3.0465-75.194 1.5208-83.65-7.1279-163.72-42.323-238.8-104.96-23.596-19.686-68.979-66.63-68.996-71.369 0-0.9776 3.3711-10.31 7.4995-20.738 51.851-130.98 83.835-266.98 93.945-399.48 4.6821-61.364 4.8726-132.5 0.5128-191.5-21.502-290.96-141.82-565.68-345.32-788.5-17.15-18.778-60.375-62.154-80.145-80.426-192.34-177.76-428.15-294.97-676-336-45.106-7.4676-90.975-12.472-149-16.254-25.691-1.6749-120.99-1.6782-147 0-94.598 6.0845-172.96 18.185-257 39.683-193.53 49.508-375.24 143.76-525.59 272.6-53.417 45.779-110.14 103.12-153.82 155.5-94.729 113.59-168.83 241.23-220.56 379.9-63.203 169.44-92.014 357.42-82.46 538 8.4314 159.38 50.272 287 115.4 352 29.346 29.288 60.174 43.212 93.724 42.333 7.6276-0.1999 13.072 0.066 13.632 0.6671 0.513 0.55 3.6773 7.3786 7.0318 15.175 8.7536 20.344 23.313 50.676 35.583 74.13 85.178 162.82 208.13 304.89 357.55 413.16 8.525 6.1768 15.688 11.412 15.917 11.633 1.7975 1.7361-5.0331-1.4948-28.417-13.441zm2888.3-2491.1c-0.1401-172.65-0.6297-314.29-1.088-314.75-0.4582-0.45832-72.458-1.0583-160-1.3333l-159.17-0.5 318.99-319.5h329.51v950h-327.99z" fill="#0359a5"/>
 </g>
</svg>
