<svg width="200mm" height="29.056mm" version="1.1" viewBox="0 0 200 29.056" xmlns="http://www.w3.org/2000/svg">
 <defs>
  <linearGradient id="linearGradient-1" x1="138.82" x2="241.45" y1="51.315" y2="51.315" gradientTransform="scale(1.7105 .58463)" gradientUnits="userSpaceOnUse">
   <stop stop-color="#E1248B" offset="0"/>
   <stop stop-color="#97215D" offset="1"/>
  </linearGradient>
 </defs>
 <g transform="translate(155.93 -.71514)">
  <g id="Symbols" transform="matrix(.48426 0 0 .48426 -155.93 .71514)" fill="none" fill-rule="evenodd">
   <g transform="translate(-90,-20)">
    <g transform="translate(90,20)">
     <g>
      <rect id="rectangle-gradient" x="237.45" width="175.55" height="60" fill="url(#linearGradient-1)"/>
      <rect id="rectangle-solid" width="237.45" height="60" fill="#242424"/>
      <path d="m20.862 13.986h-7.003v31.763h7.7763l-0.17185-19.144 12.159 19.144h7.0459v-31.763h-7.7763l0.17185 19.358zm22.845 16.268v-0.04292c0-10.387 7.9911-16.826 16.756-16.826 9.7956 0 16.799 7.6403 16.799 16.482s-6.96 16.482-16.842 16.482c-10.01 0-16.713-7.9408-16.713-16.096zm8.12-0.47215v0.04292c0 4.8503 3.3082 9.4002 8.7645 9.4002 5.7571 0 8.5497-5.2366 8.5497-9.3143 0-4.1206-2.7926-9.4002-8.6356-9.4002-5.6282 0-8.6785 4.8074-8.6785 9.2714zm35.433-15.796h-7.003v31.763h7.7763l-0.17185-19.144 12.159 19.144h7.0459v-31.763h-7.7763l0.17185 19.358zm34.305 21.247c-0.21481 6.2238 3.1363 11.117 11.471 11.117 8.4208 0 11.084-5.1078 11.084-10.173 0-3.6914-1.5037-6.4385-7.4326-9.0997-5.7141-2.5754-6.5734-2.9617-6.5734-4.4211 0-1.5023 1.3748-2.4895 2.7926-2.4895 2.4919 0 2.7496 2.0174 2.9215 3.0905h8.0341c-0.12889-7.6403-6.3156-9.8723-10.698-9.8723-5.3274 0-11.127 3.3909-11.127 9.7865 0 5.9663 5.5422 8.1983 7.7763 9.0997 4.8978 2.0603 6.2296 2.5754 6.2296 4.2494 0 1.4594-1.16 3.0475-3.0933 3.0475-1.0311 0-3.3082-0.64385-3.3082-4.3352zm28.86 10.516v-24.638h-6.2726v-7.1252h20.622v7.1252h-6.2296v24.638zm13.565-15.495v-0.04292c0-10.387 7.9911-16.826 16.756-16.826 9.7956 0 16.799 7.6403 16.799 16.482s-6.96 16.482-16.842 16.482c-10.01 0-16.713-7.9408-16.713-16.096zm8.12-0.47215v0.04292c0 4.8503 3.3082 9.4002 8.7645 9.4002 5.7571 0 8.5497-5.2366 8.5497-9.3143 0-4.1206-2.7926-9.4002-8.6356-9.4002-5.6282 0-8.6786 4.8074-8.6786 9.2714zm28.43-15.796h10.397c5.8859 0 8.0771 0.90138 9.7956 2.3178 2.4919 2.0603 3.7378 5.1937 3.7378 8.4129 0 3.2192-1.3319 6.6102-3.3511 8.3271-2.1911 1.8457-4.3393 2.7471-9.28 2.7471h-3.1793v9.9582h-8.12zm8.12 7.1252v7.5545h2.9645c0.77333 0 2.0622 0 3.1363-0.47215s1.9333-1.4594 1.9333-3.348c0-1.8886-0.90222-2.79-2.0193-3.2622-1.117-0.47215-2.4489-0.47215-3.3511-0.47215z" fill="#fff"/>
      <g transform="translate(252.23 13.385)" fill="#fff">
       <path id="Combined-Shape" d="m0.45643 0.60092h10.397c5.8859 0 8.0771 0.90138 9.7956 2.3178 2.4919 2.0603 3.7378 5.1937 3.7378 8.4129 0 3.2192-1.3319 6.6102-3.3511 8.3271-2.1911 1.8457-4.3393 2.7471-9.28 2.7471h-3.1793v9.9582h-8.12zm25.939 31.763v-31.763h18.002v7.1252h-9.8815v4.9362h9.5808v7.1252h-9.5808v5.4512h9.8815v7.1252zm19.924-15.495v-0.04292c0-10.387 7.9911-16.826 16.756-16.826 9.7956 0 16.799 7.6403 16.799 16.482 0 8.8422-6.96 16.482-16.842 16.482-10.01 0-16.713-7.9408-16.713-16.096zm36.55-16.268h10.397c5.8859 0 8.0771 0.90138 9.7956 2.3178 2.4919 2.0603 3.7378 5.1937 3.7378 8.4129 0 3.2192-1.3319 6.6102-3.3511 8.3271-2.1911 1.8457-4.3393 2.7471-9.28 2.7471h-3.1793v9.9582h-8.12zm26.153 31.763v-31.763h8.12v24.638h9.4089v7.1252zm19.322 0v-31.763h18.002v7.1252h-9.8815v4.9362h9.5808v7.1252h-9.5808v5.4512h9.8815v7.1252zm-119.77-24.638v7.5545h2.9645c0.77334 0 2.0622 0 3.1363-0.47215 1.0741-0.47215 1.9333-1.4594 1.9333-3.348 0-1.8886-0.90222-2.79-2.0193-3.2622-1.117-0.47215-2.4489-0.47215-3.3511-0.47215zm45.862 8.6705v0.04292c0 4.8503 3.3082 9.4002 8.7645 9.4002 5.7571 0 8.5497-5.2366 8.5497-9.3143 0-4.1206-2.7926-9.4002-8.6356-9.4002-5.6282 0-8.6785 4.8074-8.6785 9.2714zm36.55-8.6705v7.5545h2.9645c0.77334 0 2.0622 0 3.1363-0.47215 1.0741-0.47215 1.9333-1.4594 1.9333-3.348 0-1.8886-0.90222-2.79-2.0193-3.2622-1.117-0.47215-2.4489-0.47215-3.3511-0.47215z"/>
      </g>
     </g>
    </g>
   </g>
  </g>
 </g>
</svg>
