<svg width="600" height="276.93" version="1.1" viewBox="0 0 158.75 73.27061" xmlns="http://www.w3.org/2000/svg">
 <g transform="translate(-72.571 -110.69)">
  <path d="m168.78 110.69-22.018 8.6962v2.7755h-70.494c-2.0353 0-3.7173 1.6829-3.6999 3.7007v54.397c0 2.0353 1.6646 3.7007 3.6999 3.7007h139.88c2.0323 0.0232 3.7065-1.651 3.7007-3.7007v-19.613l11.471-31.824h-11.471v-2.9599c0-2.0353-1.6655-3.7007-3.7007-3.7007h-47.366zm-2.6015 3.886v16.503h26.599l4.8912 14.074v8.9e-4l4.7836 13.766 9.2527-27.876 8e-3 -8.8e-4h16.434l-15.937 44.261-19.596-7e-3 -7.79-20.359v-8.9e-4l-4.6957-12.273h-13.95v17.782c0 1.0382 0.21648 1.861 0.64177 2.4732l8.9e-4 8.8e-4c0.59494 0.85435 1.5987 1.2926 3.0116 1.3042 0 0 3.9746-0.0939 5.5244-0.15686v11.402c-1.5257 0.20297-4.536 0.53408-7.9114 0.53408-4.1118 0-8.7934-0.15302-12.309-1.9778-2.9112-1.5118-4.666-4.0588-5.3133-7.7366h8.9e-4c-0.19011-1.0812-0.28601-2.2586-0.28601-3.5379v-41.675zm-56.447 15.727v8.9e-4c5.1252 0 17.048 1.4938 17.048 15.332v29.627h-16.8v-25.617c0-2.5182-4.3e-4 -7.7572-6.1584-7.7572-4.4974 0-7.0758 2.8272-7.0758 7.7572v25.617h-17.331v-8.7013h-8.84e-4v-35.587h17.333v4.1582s2.2902-1.6305 2.4499-1.747c1.7805-1.3009 4.2188-3.0831 10.535-3.0831zm23.155 18.132h10.916v9.0658h-10.916z" fill="#fff" stroke-width=".18502"/>
 </g>
</svg>
