<svg xmlns="http://www.w3.org/2000/svg" height="347.23" width="600" version="1.1" xmlns:xlink="http://www.w3.org/1999/xlink" viewBox="0 0 158.75 91.871567">
 <defs>
  <linearGradient id="a" y2="169.3" gradientUnits="userSpaceOnUse" x2="107.64" gradientTransform="translate(66.714 -124.25)" y1="104.09" x1="107.64">
   <stop stop-color="#67eb00" offset="0"/>
   <stop stop-color="#14ad02" offset=".5"/>
   <stop stop-color="#0e690d" offset="1"/>
  </linearGradient>
 </defs>
 <g fill-rule="evenodd" transform="translate(-94.684 19.843)">
  <path d="m131.32 16.79c0-10.113 8.2017-18.312 18.315-18.312 0.25464 0 0.5147 0 0.76961 0.013492 2.7022-10.544 12.272-18.334 23.655-18.334 13.487 0 24.424 10.935 24.424 24.427 0 1.8609-0.20738 3.6743-0.60251 5.4138 7.425 2.3375 12.815 9.2788 12.815 17.476 0 10.12-8.2017 18.319-18.319 18.319-9.6052 0-17.481-7.3868-18.257-16.79-3.3622 0-6.5076-0.65316-9.3813-1.842-3.3002 4.7991-8.8332 7.9445-15.102 7.9445-10.113 0-18.315-8.197-18.315-18.317zm51.441 10.685c4.7896-1.8967 8.8594-5.1851 11.657-9.3932 4.332 0.92693 7.5751 4.7848 7.5751 9.3932 0 5.3137-4.301 9.6172-9.6172 9.6172-5.309 0-9.6148-4.3034-9.6148-9.6172zm-42.74-10.685c0-5.309 4.3058-9.6148 9.6148-9.6148 5.3137 0 9.6195 4.3058 9.6195 9.6148 0 5.3114-4.3058 9.6172-9.6195 9.6172-5.309 0-9.6148-4.3058-9.6148-9.6172zm21.35-14.062c0.90073-6.2025 6.2383-10.973 12.689-10.973 7.0889 0 12.827 5.7451 12.827 12.829 0 7.0746-5.7379 12.815-12.827 12.815-2.2232 0-4.3058-0.56198-6.1287-1.5512-0.26951-5.2709-2.7617-9.9556-6.5599-13.12" fill="url(#a)"/>
  <g fill="#fff">
   <path d="m168.18 71.745h1.6513v-14.416h0.0524l8.3543 14.416h2.2256v-16.713h-1.6537v14.697h-0.0429l-8.502-14.697h-2.085v16.713"/>
   <path d="m192.39 69.825c-0.71485 0.46227-2.3185 0.91501-3.4194 0.91501-2.6426 0-4.0294-2.0898-4.0294-4.6728h8.3543v-0.76251c0-3.2812-1.4059-6.0596-4.8515-6.0596-3.0906 0-5.1541 2.6593-5.1541 6.3884 0 3.6672 1.506 6.3956 5.5568 6.3956 1.1271 0 2.4901-0.23352 3.5433-0.6672zm-7.4488-5.0469c0-2.0087 1.3702-4.2391 3.5886-4.2391 2.259 0 3.1168 2.1064 3.1168 4.2391h-6.7053"/>
   <path d="m201.2 59.531h-2.7784v-3.4694l-1.506 0.52899v2.9404h-2.3948v1.2939h2.3948v7.1342c0 2.2208 0.0976 4.0699 2.7808 4.0699 0.73629 0 1.4845-0.19063 1.8419-0.33121l-0.0976-1.2486c-0.43368 0.16918-0.81494 0.29071-1.3868 0.29071-1.2272 0-1.6322-0.91501-1.6322-2.0135v-7.9015h2.7784v-1.2939"/>
   <path d="m220.47 59.531h-1.506l-3.3813 10.563h-0.0406l-3.2383-10.563h-1.8157l-3.4003 10.563h-0.0452l-3.2-10.563h-1.6513l3.9269 12.214h1.8205l3.3265-10.561h0.0524l3.3217 10.561h1.8229l4.0222-12.214"/>
   <path d="m221.6 65.633c0 3.336 1.7466 6.3956 5.6974 6.3956 3.9531 0 5.7022-3.0596 5.7022-6.3956 0-3.3241-1.749-6.3884-5.7022-6.3884-3.9508 0-5.6974 3.0643-5.6974 6.3884zm1.6561 0c0-2.8189 1.413-5.0945 4.0413-5.0945 2.6354 0 4.0508 2.2756 4.0508 5.0945 0 2.8308-1.4154 5.1064-4.0508 5.1064-2.6283 0-4.0413-2.2756-4.0413-5.1064"/>
   <path d="m235.84 71.745h1.506v-6.038c0-2.2018 0.65528-4.8825 3.0429-4.8825 0.38125 0 0.79586 0.05004 1.1056 0.14535v-1.5822c-0.26927-0.06911-0.69818-0.14298-1.0628-0.14298-1.5465 0-2.5782 1.2701-3.1239 2.633h-0.0524v-2.3471h-1.5107c0.0953 0.88404 0.0953 1.3916 0.0953 2.7307v9.4837"/>
   <path d="m243.8 71.745h1.5107v-6.2764l6.0429 6.2764h2.0778l-6.6815-6.8006 5.9619-5.4138h-1.9349l-5.4662 5.0111v-10.756h-1.5107v17.96"/>
   <path d="m94.684 63.42c0 5.0755 2.7998 8.6068 8.1088 8.6068 5.2375 0 8.1112-3.6052 8.1112-8.6068s-2.919-8.5139-8.1112-8.5139c-5.2637 0-8.1088 3.4384-8.1088 8.5139zm3.4623 0c0-2.9142 1.3487-5.9023 4.6465-5.9023 3.2955 0 4.6466 2.9881 4.6466 5.9023 0 2.9881-1.2558 6.0048-4.6466 6.0048s-4.6465-3.0167-4.6465-6.0048"/>
   <path d="m113.13 62.002h5.9261l-6.1906 7.1533v2.5902h10.153v-2.471h-6.2836l6.06-7.137v-2.606h-9.6672v2.471"/>
   <path d="m124.73 65.719c0 3.5076 2.3447 6.3074 6.3813 6.3074 4.0508 0 6.4003-2.7998 6.4003-6.3074 0-4.0294-2.776-6.4742-6.4003-6.4742-3.6076 0-6.3813 2.4448-6.3813 6.4742zm3.3193-0.37649c0-1.8229 0.99602-3.6291 3.062-3.6291 2.085 0 3.081 1.7562 3.081 3.6291 0 2.0373-0.64575 4.2153-3.081 4.2153-2.421 0-3.062-2.2018-3.062-4.2153"/>
   <path d="m139.99 71.745h3.1763v-5.9762c0-1.5655 0.49802-4.0556 2.7998-4.0556 2.0421 0 2.0659 2.0183 2.0659 3.5099v6.5219h3.1763v-7.7061c0-2.7546-1.2581-4.7943-4.1509-4.7943-1.6561 0-3.0096 0.54567-4.0056 1.9468h-0.0501v-1.661h-3.0119v12.214"/>
   <path d="m156.74 64.439c0.14052-1.637 1.0413-2.8666 2.8165-2.8666 1.78 0 2.4901 1.3272 2.5901 2.8666zm7.537 4.0294c-1.1867 0.66481-2.5115 1.2343-4.0508 1.2343-1.9706 0-3.3455-1.1128-3.4861-3.081h8.4353c0-4.2677-1.2772-7.3773-5.8094-7.3773-3.7887 0-5.6616 2.9214-5.6616 6.4527 0 4.0056 2.3519 6.3288 6.3789 6.3288 1.7085 0 3.031-0.32883 4.1938-0.96982v-2.5878"/>
  </g>
 </g>
</svg>
