<svg width="600" height="513.37" version="1.1" viewBox="0 0 158.75 135.82797" xmlns="http://www.w3.org/2000/svg">
 <g transform="translate(129.71 38.031)" fill="#e63246">
  <path d="m-50.186-38.031c-22.422 0-41.852 17.599-41.852 42.412 0 14.639 6.0546 22.745 14.703 32.192l27.09 27.65 27.031-27.532c10.798-11.304 14.88-18.713 14.88-32.458 0-22.791-17.778-42.264-41.852-42.264zm0.08851 23.846c10.085 0 18.257 8.1866 18.257 18.272 0 10.085-8.1719 18.257-18.257 18.257-10.085 0-18.257-8.1716-18.257-18.257 0-10.085 8.1716-18.272 18.257-18.272z" stroke-width=".59098"/>
  <g stroke-width=".77248">
   <path d="m-67.057 82.154c0 3.9474 3.1208 5.5387 5.4073 6.7051 1.4136 0.7184 2.6342 1.3364 2.6342 2.2016 0 0.95787-0.52529 1.4909-1.4909 1.4909-1.0969 0-2.9354-1.5836-3.5534-2.1861-0.17764-0.16994-0.44804-0.40166-0.80338-0.40166-0.26264 0-0.50212 0.12361-0.72612 0.3785l-2.217 2.6033c-0.6875 0.76474-0.16224 1.3673 0.02331 1.5372 0.31672 0.33988 3.2444 3.3139 7.2767 3.3139 4.4263 0 7.7711-2.9895 7.7711-6.9446 0-4.0941-3.1749-5.7395-5.4923-6.9368-1.3364-0.68751-2.4951-1.2823-2.4951-2.0316 0-0.74157 0.53301-1.0506 1.0042-1.1046 1.0274-0.10041 1.7999 0.32442 2.1861 0.56391 0.37851 0.23948 0.6875 0.4635 0.6875 0.4635 0.20856 0.11587 0.36305 0.20086 0.63343 0.19311 0.30902 0.0076 0.57936-0.14678 0.77248-0.42488l1.7458-2.5724c0.31672-0.45575 0.58708-1.0506-0.20856-1.6608-1.2823-0.98105-2.9818-1.9853-5.8631-1.9853-4.295 0-7.2922 2.7964-7.2922 6.7978"/>
   <path d="m-118.66 75.356c-2.8273 0-5.6545 1.0815-7.8098 3.2367-2.1552 2.1629-3.2367 4.9825-3.2367 7.8175 0 2.8273 1.0815 5.6545 3.2367 7.8097 1.993 1.993 4.5576 3.0667 7.1686 3.2212 0 0 6.5815 0.21627 11.827 0.15448 0.0772-6.2725-0.15449-11.834-0.15449-11.834-0.15448-2.6032-1.2205-5.1756-3.2135-7.1686-2.1629-2.1552-4.9902-3.2367-7.8175-3.2367zm0 6.2648c1.2282 0 2.4488 0.47121 3.3834 1.4059 1.8694 1.8694 1.8694 4.8975 0 6.7669-0.9347 0.92697-2.1552 1.3982-3.3834 1.3982s-2.4488-0.47121-3.3834-1.3982c-1.8617-1.8694-1.8617-4.8975 0-6.7669 0.93469-0.9347 2.1629-1.4059 3.3834-1.4059z"/>
   <path d="m-50.457 75.604c-0.60253 0-1.0042 0.39396-1.0042 1.0119v3.368c0 0.61026 0.40167 1.0042 1.0042 1.0042h3.9165v15.604c0 0.60253 0.39396 1.0042 1.0042 1.0042h4.1173c0.61026 0 1.0042-0.40167 1.0042-1.0042v-15.604h3.9087c0.61798 0 1.0119-0.39396 1.0119-1.0042v-3.368c0-0.61798-0.39397-1.0119-1.0119-1.0119z"/>
   <path d="m-92.642 75.604c-0.60253 0-0.9965 0.39396-0.9965 1.0042v12.336c0 2.217-0.842 3.3912-2.4333 3.3912-0.56391 0-2.2943 0-2.2943-3.3912v-12.336c0-0.61026-0.38626-1.0042-0.98877-1.0042h-4.0478c-0.60253 0-0.98877 0.39396-0.98877 1.0042v12.336c0 5.8708 2.7964 8.8526 8.3196 8.8526 5.5387 0 8.4664-3.0667 8.4664-8.8526v-12.336c0-0.61026-0.39396-1.0042-0.9965-1.0042z"/>
   <path d="m-83.163 75.611c-0.61798 0-1.0119 0.39396-1.0119 1.0042v19.976c0 0.61026 0.39396 1.0042 1.0042 1.0042h12.082c0.61025 0 1.0042-0.39396 1.0042-1.0042v-3.368c0-0.61025-0.39397-1.0042-1.0042-1.0042h-6.9523v-2.9354h6.1103c0.61798 0 1.0119-0.39396 1.0119-1.0119v-3.368c0-0.61025-0.39397-1.0119-1.0119-1.0042l-6.1103-0.0076v-2.8968h6.9523c0.61025 0 1.0042-0.39396 1.0042-1.0119v-3.368c0-0.61026-0.39397-1.0042-1.0042-1.0042z"/>
   <path d="m-6.168 75.611c-0.61798 0-1.0119 0.39396-1.0119 1.0042v19.976c0 0.61026 0.39397 1.0042 1.0042 1.0042h12.082c0.61026 0 1.0042-0.39396 1.0042-1.0042v-3.368c0-0.61025-0.39397-1.0042-1.0042-1.0042h-6.9523v-2.9354h6.1103c0.61798 0 1.0119-0.39396 1.0119-1.0119v-3.368c0-0.61025-0.39397-1.0119-1.0119-1.0042l-6.1103-0.0076v-2.8968h6.9523c0.61026 0 1.0042-0.39396 1.0042-1.0119v-3.368c0-0.61026-0.39397-1.0042-1.0042-1.0042z"/>
  </g>
  <path d="m-25.13 75.611c-0.56454 0-0.92908 0.37154-0.92908 0.92894-0.01013 6.7829-0.03328 14.127-0.03191 20.11 0 0.55738 0.36455 0.92895 0.92908 0.92895h3.8089c0.56455 0 0.92895-0.37155 0.92895-0.92895-0.04439-2.287 0.04038-4.6685 0.0319-6.9103h0.89758l3.5358 7.4799s0.23008 0.28919 0.72356 0.35613c0.33265 0.04514 4.4101 0 4.4101 0s0.83833-0.32962 0.68302-1.1993c-0.13546-0.54564-3.1138-6.3377-3.6989-7.4731 1.0613-0.48708 1.9475-1.2221 2.6583-2.2057 0.87967-1.2131 1.3195-2.5835 1.3195-4.1112 0-1.9208-0.66804-3.5607-2.0043-4.9198-1.3362-1.3704-2.9619-2.0556-4.8771-2.0556h-8.0379zm4.7378 4.986h2.9131c0.51972 0 0.96268 0.20361 1.329 0.61097 0.36629 0.40738 0.54942 0.90056 0.54942 1.4794 0 0.56815-0.18314 1.0532-0.54942 1.4552-0.36132 0.39665-0.79193 0.59502-1.2919 0.59502h-2.9502z"/>
  <path d="m11.16 75.611c-0.65603 0-1.0796 0.43168-1.0796 1.0794v19.826c0 0.64774 0.42354 1.0796 1.0796 1.0796h5.9065c3.8859 0 6.8496-0.94112 8.8913-2.8235 2.0582-1.8823 3.0873-4.6174 3.0873-8.2051 0-3.5716-1.0209-6.2906-3.0626-8.1569-2.0417-1.8662-5.0137-2.7992-8.916-2.7992zm4.5239 5.3161h1.7023c1.9489 0 3.4332 0.48185 4.4529 1.4456 1.0197 0.96371 1.5297 2.3677 1.5297 4.212 0 1.8526-0.51397 3.2649-1.5419 4.2369-1.0197 0.97201-2.4999 1.4581-4.4406 1.4581h-1.7023z"/>
 </g>
</svg>
