<svg width="600" height="430.17" version="1.1" viewBox="0 0 158.75 113.81617" xmlns="http://www.w3.org/2000/svg">
 <g fill="#e63246">
  <path d="m79.348-4.2054e-4c-18.887 0-35.254 14.825-35.254 35.726 0 12.331 5.1002 19.159 12.385 27.117l22.82 23.291 22.77-23.192c9.0958-9.522 12.534-15.763 12.534-27.341 0-19.198-14.975-35.601-35.254-35.601zm0.07456 20.087c8.4952 0 15.379 6.8961 15.379 15.392 0 8.4952-6.8837 15.379-15.379 15.379-8.4952 0-15.379-6.8834-15.379-15.379 0-8.4952 6.8834-15.392 15.379-15.392z" stroke-width=".59098"/>
  <g stroke-width=".64515">
   <path d="m52.323 100.75c0 3.2967 2.6064 4.6257 4.516 5.5999 1.1806 0.59999 2.2 1.1161 2.2 1.8387 0 0.79998-0.4387 1.2452-1.2451 1.2452-0.91609 0-2.4515-1.3226-2.9677-1.8258-0.14836-0.14192-0.37419-0.33545-0.67095-0.33545-0.21935 0-0.41935 0.10324-0.60643 0.31611l-1.8516 2.1742c-0.57418 0.63869-0.1355 1.1419 0.01947 1.2838 0.26451 0.28386 2.7096 2.7676 6.0772 2.7676 3.6967 0 6.4901-2.4967 6.4901-5.7999 0-3.4192-2.6516-4.7934-4.587-5.7934-1.1161-0.57418-2.0838-1.0709-2.0838-1.6967 0-0.61933 0.44515-0.87742 0.83867-0.92252 0.85805-0.0839 1.5032 0.27094 1.8258 0.47096 0.31612 0.2 0.57418 0.38709 0.57418 0.38709 0.17418 0.0968 0.30321 0.16776 0.52902 0.16128 0.25808 6e-3 0.48386-0.12258 0.64515-0.35484l1.458-2.1484c0.26451-0.38062 0.49031-0.87742-0.17418-1.387-1.0709-0.81934-2.4903-1.658-4.8967-1.658-3.587 0-6.0902 2.3354-6.0902 5.6773"/>
   <path d="m9.2256 95.075c-2.3613 0-4.7224 0.90323-6.5225 2.7032-1.7999 1.8064-2.7032 4.1612-2.7032 6.5289 0 2.3613 0.90323 4.7224 2.7032 6.5224 1.6645 1.6645 3.8063 2.5612 5.987 2.6902 0 0 5.4966 0.18062 9.8775 0.12902 0.06447-5.2386-0.12902-9.8833-0.12902-9.8833-0.12902-2.1741-1.0193-4.3225-2.6838-5.987-1.8064-1.7999-4.1676-2.7032-6.5289-2.7032zm0 5.2321c1.0257 0 2.0452 0.39354 2.8257 1.1742 1.5613 1.5613 1.5613 4.0902 0 5.6515-0.78063 0.77418-1.7999 1.1677-2.8257 1.1677s-2.0452-0.39354-2.8257-1.1677c-1.5548-1.5612-1.5548-4.0902 0-5.6515 0.78062-0.78063 1.8064-1.1742 2.8257-1.1742z"/>
   <path d="m66.186 95.282c-0.50321 0-0.83867 0.32902-0.83867 0.8451v2.8128c0 0.50967 0.33546 0.83867 0.83867 0.83867h3.2709v13.032c0 0.50321 0.32902 0.83867 0.83867 0.83867h3.4386c0.50967 0 0.83867-0.33546 0.83867-0.83867v-13.032h3.2644c0.51612 0 0.8451-0.32902 0.8451-0.83867v-2.8128c0-0.51612-0.32903-0.8451-0.8451-0.8451z"/>
   <path d="m30.955 95.282c-0.50321 0-0.83224 0.32902-0.83224 0.83867v10.303c0 1.8516-0.70321 2.8322-2.0322 2.8322-0.47096 0-1.9161 0-1.9161-2.8322v-10.303c0-0.50967-0.32259-0.83867-0.82579-0.83867h-3.3806c-0.50321 0-0.82578 0.32902-0.82578 0.83867v10.303c0 4.9031 2.3355 7.3934 6.9482 7.3934 4.6257 0 7.0708-2.5612 7.0708-7.3934v-10.303c0-0.50967-0.32902-0.83867-0.83224-0.83867z"/>
   <path d="m38.871 95.288c-0.51611 0-0.8451 0.32902-0.8451 0.83867v16.683c0 0.50966 0.32902 0.83867 0.83867 0.83867h10.09c0.50966 0 0.83867-0.32902 0.83867-0.83867v-2.8128c0-0.50966-0.32903-0.83867-0.83867-0.83867h-5.8063v-2.4515h5.1031c0.51612 0 0.8451-0.32902 0.8451-0.8451v-2.8128c0-0.50966-0.32903-0.8451-0.8451-0.83867l-5.1031-6e-3v-2.4193h5.8063c0.50966 0 0.83867-0.32902 0.83867-0.8451v-2.8128c0-0.50967-0.32903-0.83867-0.83867-0.83867z"/>
   <path d="m103.17 95.288c-0.51611 0-0.8451 0.32902-0.8451 0.83867v16.683c0 0.50966 0.32903 0.83867 0.83867 0.83867h10.09c0.50967 0 0.83867-0.32902 0.83867-0.83867v-2.8128c0-0.50966-0.32903-0.83867-0.83867-0.83867h-5.8063v-2.4515h5.1031c0.51611 0 0.8451-0.32902 0.8451-0.8451v-2.8128c0-0.50966-0.32903-0.8451-0.8451-0.83867l-5.1031-6e-3v-2.4193h5.8063c0.50967 0 0.83867-0.32902 0.83867-0.8451v-2.8128c0-0.50967-0.32903-0.83867-0.83867-0.83867z"/>
  </g>
  <path d="m87.339 95.288c-0.47148 0-0.77594 0.3103-0.77594 0.77582-0.0085 5.6648-0.0278 11.798-0.02665 16.795 0 0.4655 0.30446 0.77582 0.77593 0.77582h3.1811c0.47149 0 0.77582-0.3103 0.77582-0.77582-0.03707-1.91 0.03373-3.899 0.02664-5.7712h0.74963l2.953 6.247s0.19216 0.24151 0.60429 0.29742c0.27782 0.0377 3.6832 0 3.6832 0s0.70014-0.27528 0.57043-1.0016c-0.11313-0.4557-2.6005-5.293-3.0892-6.2413 0.88636-0.40679 1.6265-1.0206 2.2201-1.8421 0.73467-1.0131 1.102-2.1576 1.102-3.4335 0-1.6042-0.55792-2.9738-1.6739-4.1088-1.1159-1.1445-2.4737-1.7168-4.0732-1.7168h-6.713zm3.9568 4.1641h2.4329c0.43406 0 0.804 0.17005 1.1099 0.51026 0.30591 0.34023 0.45886 0.75212 0.45886 1.2355 0 0.4745-0.15295 0.8796-0.45886 1.2153-0.30176 0.33126-0.66139 0.49694-1.0789 0.49694h-2.4639z" stroke-width=".83516"/>
  <path d="m117.65 95.288c-0.54789 0-0.90164 0.36052-0.90164 0.90148v16.558c0 0.54097 0.35373 0.90164 0.90164 0.90164h4.9329c3.2454 0 5.7205-0.78599 7.4257-2.3581 1.7189-1.572 2.5784-3.8563 2.5784-6.8526 0-2.9829-0.85262-5.2537-2.5578-6.8123-1.7052-1.5586-4.1873-2.3378-7.4463-2.3378zm3.7782 4.4398h1.4217c1.6276 0 2.8673 0.40243 3.7189 1.2073 0.85162 0.80486 1.2776 1.9774 1.2776 3.5177 0 1.5472-0.42925 2.7267-1.2877 3.5385-0.85162 0.81179-2.0878 1.2178-3.7086 1.2178h-1.4217z" stroke-width=".83516"/>
  <path d="m154.62 95.26c-0.25201 0-0.46525 0.18091-0.51048 0.42648-0.27138 1.6155-2.0419 2.8109-4.226 2.8303-0.27787 6e-3 -0.51049 0.23263-0.51049 0.51694v2.8044c0 0.28431 0.23264 0.51694 0.51695 0.51694h3.6251v10.759c0 0.28431 0.23264 0.51695 0.51695 0.51695h4.1937c0.2908 0 0.52341-0.23264 0.52341-0.51695v-17.344c0-0.28431-0.23263-0.51048-0.52341-0.51048z" stroke-width=".64618"/>
  <path d="m139.97 98.866c-0.28431 0-0.51694 0.23263-0.51694 0.51048v4.6977h-4.562c-0.28432 0-0.51049 0.23263-0.51049 0.51695v3.3149c0 0.28431 0.22615 0.51695 0.51049 0.51695h4.562v4.6913c0 0.28431 0.23263 0.51695 0.51694 0.51695h3.4183c0.29076 0 0.51694-0.23264 0.51694-0.51695v-4.6913h4.5362c0.28432 0 0.51695-0.23264 0.51695-0.51695v-3.3149c0-0.28432-0.23263-0.51695-0.51695-0.51695h-4.5362v-4.6977c0-0.27787-0.22614-0.51048-0.51694-0.51048z" stroke-width=".64618"/>
 </g>
</svg>
