<svg width="600" height="653.06" version="1.1" viewBox="0 0 158.75 172.78821" xmlns="http://www.w3.org/2000/svg">
 <g transform="translate(-28.485 -101.56)" fill="#fff">
  <path d="m137.25 186.42-1.3776-1.0824-0.98398-0.7544-0.82 0.9512c-1.4104 1.64-3.116 2.46-5.1823 2.46-1.9024 0-3.4112-0.5904-4.6575-1.7712-1.2464-1.2136-1.8368-2.6568-1.8368-4.428 0-1.148 0.26239-2.2304 0.81998-3.1816 0.5248-0.91839 1.2792-1.6728 2.296-2.2304 1.0168-0.5576 2.0664-0.81999 3.2472-0.81999 1.0824 0 2.0664 0.2296 2.9848 0.65599 0.88559 0.4264 1.64 1.0496 2.2632 1.9024l0.81998 1.0496 1.0168-0.81998 1.3776-1.0496 0.98399-0.75438-0.72159-1.0168c-0.95119-1.312-2.1976-2.3944-3.7064-3.1488-1.5416-0.75439-3.1816-1.1152-5.0511-1.1152-3.0504 0-5.6415 0.98399-7.6751 2.9848-2.0664 2.0336-3.116 4.5264-3.116 7.4455 0 2.788 0.85279 5.1823 2.5584 7.1175 2.0008 2.3288 4.7887 3.5096 8.2327 3.5096 1.8368 0 3.444-0.3608 4.9527-1.0496s2.7552-1.6728 3.772-2.952l0.78719-1.0168-0.98398-0.88558"/>
  <path d="m112.65 171.66c-1.7056 4.2312-4.5591 13.448-5.1495 13.448s-3.5424-9.1183-5.2479-13.448h-4.7231s5.2151 12.923 7.9703 19.745c0.1968 0.45919 0.7216 1.7712 2.0008 1.7712 1.2792 0 1.7384-1.2464 1.9352-1.7056 2.624-6.5599 7.9375-19.811 7.9375-19.811h-4.7231"/>
  <path d="m86.212 175.59c3.3784 0 6.1335 2.7552 6.1335 6.1663s-2.7552 6.1663-6.1335 6.1663c-3.3784 0-6.1335-2.7552-6.1335-6.1663 0.0328-3.4112 2.7552-6.1663 6.1335-6.1663m7.9047 13.054c1.6728-1.9024 2.624-4.3623 2.624-6.9207 0-5.8055-4.6903-10.529-10.496-10.529-5.8055 0-10.529 4.7231-10.529 10.529 0 5.8383 4.7231 10.529 10.529 10.529 1.5744 0 3.0832-0.36079 4.4935-1.0496l1.5088 1.9024h5.4775l-3.608-4.4608"/>
  <path d="m167.62 233.09-46.247-7.5111c-4.2968 1.312-8.8231 2.0336-13.546 2.0336-25.551 0-46.313-20.828-46.313-46.444 0-25.649 20.762-46.51 46.313-46.51 25.551 0 46.346 20.861 46.346 46.51 0 10.135-3.28 19.549-8.7903 27.191l29.159 15.547c8.1671-12.628 12.693-27.42 12.693-42.738 0-43.853-35.588-79.605-79.375-79.605-43.755 0-79.375 35.752-79.375 79.605 0 43.886 35.588 79.539 79.375 79.539 11.742 0 23.812-2.952 34.472-8.0687l25.19-19.417 0.0984-0.1312"/>
  <path d="m121.37 225.55 36.9 48.806 26.6-20.27-16.498-20.893-47.002-7.6423"/>
  <path d="m121.47 225.55 4.2312 32.964c5.6087-1.3448 11.086-3.2472 16.236-5.7071z"/>
 </g>
</svg>
