<svg width="600" height="653.06" version="1.1" viewBox="0 0 158.75 172.78821" xmlns="http://www.w3.org/2000/svg">
 <g transform="translate(-28.485 -101.56)" fill="#fff">
  <path d="m113.86 185.1-1.148-0.88559-0.78719-0.62319-0.656 0.7544c-1.148 1.3448-2.5256 2.0008-4.2312 2.0008-1.5744 0-2.788-0.45919-3.8048-1.4432-1.0168-0.98399-1.5088-2.1976-1.5088-3.6408 0-0.95118 0.2296-1.8368 0.68879-2.5912 0.4264-0.75439 1.0496-1.3448 1.8696-1.8368 0.81999-0.45919 1.7056-0.68879 2.6568-0.68879 0.88559 0 1.7056 0.19679 2.4272 0.52479 0.72158 0.3608 1.3448 0.85279 1.8696 1.5416l0.65599 0.85279 0.85279-0.65599 1.148-0.85279 0.81998-0.62319-0.59039-0.85279c-0.78719-1.0824-1.804-1.968-3.0504-2.5584-1.2464-0.62319-2.5912-0.91839-4.1328-0.91839-2.4928 0-4.6247 0.81999-6.2975 2.46-1.7056 1.6728-2.5584 3.7064-2.5584 6.1007 0 2.2632 0.72159 4.2312 2.0992 5.8383 1.64 1.9024 3.9032 2.8864 6.7567 2.8864 1.5088 0 2.8208-0.2952 4.0672-0.85279 1.2136-0.55759 2.2632-1.3776 3.0832-2.4272l0.65599-0.8528-0.88559-0.65599"/>
  <path d="m95.429 173c-1.3448 3.3456-3.608 10.693-4.0671 10.693-0.4592 0-2.788-7.2159-4.1655-10.693h-3.7392s4.1327 10.233 6.3303 15.645c0.164 0.36079 0.55759 1.4104 1.5744 1.4104 1.0168 0 1.3776-0.98398 1.5416-1.3448 2.0664-5.2151 6.2975-15.711 6.2975-15.711h-3.772"/>
  <path d="m75.52 176.12c2.6896 0 4.8543 2.1976 4.8543 4.8872 0 2.6896-2.1976 4.8871-4.8543 4.8871-2.6896 0-4.8543-2.1976-4.8543-4.8871-0.0328-2.6896 2.1648-4.8872 4.8543-4.8872m6.2647 10.365c1.3448-1.5088 2.0664-3.444 2.0664-5.4775 0-4.592-3.7392-8.3639-8.3311-8.3639-4.5919 0-8.3311 3.772-8.3311 8.3639 0 4.6247 3.7392 8.3639 8.3311 8.3639 1.2464 0 2.46-0.29519 3.5752-0.81999l1.2136 1.5088h4.3623l-2.8864-3.5752"/>
  <path d="m167.62 233.09-46.247-7.5111c-4.2968 1.312-8.8231 2.0336-13.546 2.0336-25.551 0-46.313-20.828-46.313-46.444 0-25.649 20.762-46.51 46.313-46.51 25.551 0 46.346 20.861 46.346 46.51 0 10.135-3.28 19.549-8.7903 27.191l29.159 15.547c8.1671-12.628 12.693-27.42 12.693-42.738 0-43.853-35.588-79.605-79.375-79.605-43.755 0-79.375 35.752-79.375 79.605 0 43.886 35.588 79.539 79.375 79.539 11.742 0 23.812-2.952 34.472-8.0687l25.19-19.417 0.0984-0.1312"/>
  <path d="m121.37 225.55 36.9 48.806 26.6-20.27-16.498-20.893-47.002-7.6423"/>
  <path d="m121.47 225.55 4.2312 32.964c5.6087-1.3448 11.086-3.2472 16.236-5.7071z"/>
  <path d="m130.33 189.4h-3.1816v-6.7239h-6.9863v6.7239h-3.1816v-16.367h3.1816v7.0191h6.9863v-7.0191h3.1816v16.367"/>
  <path d="m147.45 181.2c0 1.148-0.19679 2.1976-0.55758 3.1816-0.3936 0.98399-0.9184 1.8368-1.6072 2.5912-0.68879 0.72159-1.5088 1.312-2.46 1.7712-0.95118 0.42639-1.968 0.62319-3.0832 0.62319h-6.8551v-16.4h6.8551c1.1152 0 2.1648 0.2296 3.0832 0.656 0.95119 0.42639 1.7712 1.0168 2.46 1.7712 0.68879 0.72158 1.2136 1.6072 1.6072 2.5912 0.36079 1.0496 0.55758 2.0992 0.55758 3.2144m-3.2144-0.0984c0-0.68879-0.1312-1.3776-0.4264-2.0336-0.26239-0.6888-0.65599-1.2792-1.148-1.804-0.49199-0.5248-1.0496-0.9512-1.7056-1.2792-0.65599-0.328-1.3776-0.49199-2.132-0.49199h-2.7552v11.185h2.7552c0.75438 0 1.4432-0.16399 2.0992-0.45919 0.656-0.29519 1.2464-0.68879 1.7056-1.2136 0.49199-0.52479 0.88558-1.1152 1.148-1.7712 0.328-0.65599 0.4592-1.3776 0.4592-2.132"/>
 </g>
</svg>
