<svg xmlns="http://www.w3.org/2000/svg" height="419.42" width="600" version="1.1" viewBox="0 0 158.75 110.97242">
 <g transform="translate(-36.286 -88.811)">
  <g fill="#f1475f">
   <path d="m193.94 140.28c-0.74385-0.74385-1.8596-1.1941-3.3571-1.3605-0.75363-0.0783-1.4094-0.1566-1.9575-0.21532-0.61661-0.10767-1.0864-0.30342-1.4094-0.57747-0.30341-0.26426-0.46001-0.60682-0.46001-1.0375 0.01-0.46001 0.24469-0.83193 0.68512-1.1158 0.45023-0.27405 1.0081-0.41108 1.6834-0.41108 1.3605 0.0196 2.672 0.35235 3.9541 0.98854l1.4975-1.8303c-1.5464-0.94938-3.318-1.4486-5.3342-1.4779-1.6834 0.01-2.9362 0.35235-3.7486 1.0375-1.0766 0.76343-1.6051 1.7324-1.6051 2.9167 0 0.98854 0.38171 1.8303 1.1451 2.5252 0.73406 0.66555 1.8009 1.0962 3.1907 1.2822 0.77321 0.0881 1.4681 0.17618 2.0847 0.24469 1.2528 0.17618 1.8694 0.69491 1.8596 1.5562-0.0294 1.057-0.97875 1.6052-2.858 1.6247-1.6541-0.01-3.0733-0.40128-4.2576-1.1745l-0.44044 0.0685-1.5562 1.4877c1.7715 1.292 3.8465 1.9379 6.2346 1.9379 3.7486-0.0391 5.667-1.3898 5.7452-4.052 0-0.88088-0.36214-1.6834-1.0962-2.4175"/>
   <path d="m178.87 141.87c-0.0196 0.83194-0.26426 1.4388-0.73406 1.8303-0.69491 0.48937-1.5073 0.73406-2.4175 0.73406-0.91023 0-1.6443-0.21532-2.1826-0.63619-0.63618-0.45022-0.95917-1.0375-0.96896-1.752v-8.7011h-3.0537v8.7402c0.0196 1.4094 0.6264 2.535 1.8303 3.3669 1.1647 0.8613 2.623 1.292 4.375 1.3017 1.7813-0.01 3.2788-0.48937 4.4924-1.4192 1.106-0.75364 1.6737-1.8988 1.7128-3.4158v-8.5738h-3.0537z"/>
   <path d="m160.15 133.34h-3.0537v13.301h11.207v-2.5937h-8.153z"/>
   <path d="m152.44 138.71c-0.50895 0.44044-1.1158 0.66555-1.8205 0.67534h-3.2788v-3.8171h2.9656c0.6264-0.01 1.1745 0.0979 1.6541 0.32299 0.3132 0.14681 0.55789 0.33277 0.72428 0.56767 0.16638 0.27405 0.25447 0.60682 0.25447 1.0081 0 0.48937-0.16639 0.90045-0.49916 1.243m1.6247-4.4239c-0.6264-0.3915-1.2822-0.65576-1.9379-0.783-0.64597-0.10766-1.3017-0.1566-1.9673-0.1566h-5.8627v13.301h3.0439v-5.0503h3.1614c1.8107-0.0196 3.2005-0.51874 4.1792-1.4975 0.87109-0.71448 1.3115-1.5758 1.3115-2.5741 0-0.73406-0.18597-1.3702-0.53832-1.9086-0.35235-0.57747-0.81236-1.0179-1.3898-1.3311"/>
   <path d="m106.12 143.33-0.89066-0.69491-0.6264-0.47959-0.51874 0.60683c-0.91023 1.057-1.9868 1.5758-3.3277 1.5758-1.2234 0-2.1924-0.37192-2.9852-1.1451-0.783-0.77322-1.1745-1.7128-1.1745-2.8482 0-0.73406 0.17618-1.429 0.53831-2.0456 0.34256-0.58724 0.82215-1.057 1.4583-1.4192 0.65576-0.36214 1.3409-0.5481 2.0945-0.5481 0.69491 0 1.3311 0.14681 1.9086 0.42086 0.56767 0.27405 1.057 0.67534 1.4583 1.2039l0.51874 0.67534 0.65576-0.51874 0.89066-0.68512 0.64597-0.48937-0.4698-0.66555c-0.61661-0.83194-1.4192-1.5171-2.3881-2.0064-0.98854-0.47958-2.0358-0.71448-3.2397-0.71448-1.9575 0-3.6116 0.64597-4.9329 1.9281-1.3311 1.292-1.9966 2.8971-1.9966 4.7665 0 1.7911 0.55789 3.3278 1.6443 4.5708 1.2822 1.4975 3.0733 2.2609 5.3048 2.2609 1.1745 0 2.212-0.22512 3.1809-0.67534 0.95917-0.44044 1.7715-1.0766 2.4077-1.8988l0.51874-0.66555-0.67534-0.50895"/>
   <path d="m90.34 133.84c-1.106 2.7209-2.9265 8.6326-3.3082 8.6326-0.36214 0-2.2609-5.8431-3.3571-8.6326h-3.0341s3.3571 8.29 5.1286 12.665c0.12724 0.30341 0.46001 1.1354 1.2822 1.1354 0.82215 0 1.1158-0.79279 1.243-1.0864 1.6639-4.2184 5.0797-12.714 5.0797-12.714h-3.0341"/>
   <path d="m78.432 144.76c1.0766-1.2234 1.6834-2.7992 1.6834-4.4337 0-3.7192-3.0341-6.7729-6.7534-6.7729-3.7192 0-6.7436 3.0537-6.7436 6.7729 0 3.7388 3.0243 6.7729 6.7436 6.7729 0.99832 0 1.9771-0.2349 2.8873-0.67534l0.96896 1.2332h3.5137l-2.3001-2.8971m-5.0699-8.3879c2.1728 0 3.9346 1.7715 3.9346 3.9541s-1.7617 3.9541-3.9346 3.9541c-2.1728 0-3.9346-1.7715-3.9346-3.9541s1.7617-3.9541 3.9346-3.9541"/>
   <path d="m125.63 173.29-29.685-4.835c-2.7503 0.84173-5.667 1.3017-8.6913 1.3017-16.404 0-29.725-13.379-29.725-29.822 0-16.482 13.321-29.871 29.725-29.871 16.414 0 29.754 13.389 29.754 29.871 0 6.5087-2.0945 12.538-5.6376 17.451l18.704 9.9832c5.2461-8.1138 8.1432-17.608 8.1432-27.434 0-28.178-22.854-51.12-50.963-51.12-28.11 0-50.963 22.942-50.963 51.12 0 28.168 22.854 51.061 50.963 51.061 7.5461 0 15.298-1.8792 22.139-5.1776l16.179-12.45 0.0587-0.0783"/>
  </g>
  <path d="m95.927 168.44 23.695 31.34 17.069-13.008-10.59-13.419z" fill="#f6898c"/>
  <path d="m95.998 168.43 2.7209 21.17c3.6116-0.8613 7.1253-2.1043 10.433-3.6605z" fill="#ba4556"/>
 </g>
</svg>
