<svg xmlns="http://www.w3.org/2000/svg" height="350.77" width="600" version="1.1" viewBox="0 0 158.75 92.808662">
 <g transform="translate(-51.82 -97.893)">
  <g fill="#f1475f">
   <path d="m183.67 140.94c-0.6221-0.6221-1.5552-0.99863-2.8076-1.1378-0.63028-0.0655-1.1787-0.13097-1.6371-0.18008-0.51569-0.09-0.90859-0.25376-1.1787-0.48295-0.25375-0.22101-0.38472-0.5075-0.38472-0.86766 0.008-0.38472 0.20464-0.69576 0.57298-0.93314 0.37654-0.2292 0.84311-0.3438 1.4079-0.3438 1.1378 0.0164 2.2346 0.29468 3.3069 0.82674l1.2524-1.5307c-1.2933-0.79399-2.7749-1.2114-4.4611-1.236-1.4079 0.008-2.4556 0.29468-3.135 0.86766-0.9004 0.63848-1.3424 1.4488-1.3424 2.4393 0 0.82674 0.31924 1.5307 0.9577 2.1118 0.61391 0.55662 1.5061 0.91678 2.6685 1.0723 0.64665 0.0737 1.2278 0.14734 1.7435 0.20464 1.0477 0.14734 1.5634 0.58117 1.5552 1.3015-0.0246 0.88404-0.81855 1.3424-2.3902 1.3588-1.3833-0.008-2.5702-0.3356-3.5607-0.98226l-0.36835 0.0573-1.3015 1.2442c1.4816 1.0805 3.2169 1.6207 5.2142 1.6207 3.135-0.0327 4.7394-1.1623 4.8049-3.3888 0-0.7367-0.30286-1.4079-0.91677-2.0218"/>
   <path d="m171.07 142.27c-0.0164 0.69576-0.22101 1.2033-0.61391 1.5307-0.58117 0.40927-1.2606 0.61391-2.0218 0.61391-0.76125 0-1.3752-0.18007-1.8254-0.53206-0.53206-0.37653-0.80218-0.86766-0.81037-1.4652v-7.2769h-2.5539v7.3096c0.0164 1.1787 0.52388 2.12 1.5307 2.8158 0.97407 0.72033 2.1937 1.0805 3.6589 1.0887 1.4898-0.008 2.7421-0.40927 3.7571-1.1869 0.92497-0.63029 1.3997-1.588 1.4325-2.8567v-7.1705h-2.5539z"/>
   <path d="m155.41 135.14h-2.5539v11.124h9.3724v-2.1692h-6.8185z"/>
   <path d="m148.96 139.62c-0.42565 0.36835-0.93315 0.55661-1.5225 0.5648h-2.7421v-3.1923h2.4802c0.52387-0.008 0.98226 0.0819 1.3834 0.27012 0.26193 0.12278 0.46657 0.27831 0.60573 0.47476 0.13914 0.22919 0.21282 0.5075 0.21282 0.8431 0 0.40927-0.13916 0.75307-0.41746 1.0396m1.3588-3.6998c-0.52388-0.32742-1.0723-0.54843-1.6207-0.65484-0.54024-0.09-1.0887-0.13097-1.6453-0.13097h-4.9031v11.124h2.5457v-4.2237h2.6439c1.5143-0.0164 2.6767-0.43383 3.4952-1.2524 0.72851-0.59754 1.0969-1.3179 1.0969-2.1528 0-0.61391-0.15553-1.146-0.45021-1.5962-0.29467-0.48295-0.67939-0.85129-1.1623-1.1132"/>
   <path d="m110.23 143.49-0.74488-0.58117-0.52387-0.40109-0.43383 0.5075c-0.76125 0.88403-1.6616 1.3179-2.7831 1.3179-1.0232 0-1.8335-0.31104-2.4966-0.9577-0.65484-0.64666-0.98226-1.4325-0.98226-2.382 0-0.61391 0.14734-1.1951 0.45021-1.7108 0.28649-0.49112 0.68758-0.88402 1.2196-1.1869 0.54843-0.30286 1.1214-0.45839 1.7517-0.45839 0.58117 0 1.1132 0.12278 1.5962 0.35198 0.47475 0.22919 0.88402 0.5648 1.2196 1.0068l0.43384 0.56481 0.54842-0.43384 0.74488-0.57298 0.54024-0.40927-0.3929-0.55661c-0.51569-0.69577-1.1869-1.2688-1.9973-1.678-0.82674-0.40109-1.7026-0.59754-2.7094-0.59754-1.6371 0-3.0204 0.54024-4.1255 1.6125-1.1132 1.0805-1.6698 2.4229-1.6698 3.9863 0 1.4979 0.46658 2.7831 1.3752 3.8226 1.0723 1.2524 2.5702 1.8908 4.4365 1.8908 0.98226 0 1.8499-0.18827 2.6603-0.5648 0.80217-0.36835 1.4816-0.9004 2.0136-1.588l0.43383-0.55662-0.5648-0.42564"/>
   <path d="m97.027 135.55c-0.92496 2.2756-2.4475 7.2196-2.7667 7.2196-0.30286 0-1.8908-4.8867-2.8076-7.2196h-2.5375s2.8076 6.9331 4.2892 10.592c0.10641 0.25375 0.38472 0.94952 1.0723 0.94952s0.93315-0.66303 1.0396-0.90859c1.3915-3.528 4.2483-10.633 4.2483-10.633h-2.5375"/>
   <path d="m87.068 144.68c0.9004-1.0232 1.4079-2.341 1.4079-3.708 0-3.1105-2.5375-5.6644-5.648-5.6644s-5.6398 2.5539-5.6398 5.6644c0 3.1269 2.5293 5.6644 5.6398 5.6644 0.83492 0 1.6535-0.19645 2.4147-0.5648l0.81036 1.0314h2.9386l-1.9236-2.4229m-4.2401-7.015c1.8172 0 3.2906 1.4816 3.2906 3.3069 0 1.8254-1.4734 3.3069-3.2906 3.3069s-3.2906-1.4816-3.2906-3.3069c0-1.8254 1.4734-3.3069 3.2906-3.3069"/>
   <path d="m126.54 168.54-24.827-4.0436c-2.3001 0.70395-4.7394 1.0887-7.2687 1.0887-13.719 0-24.859-11.19-24.859-24.941 0-13.784 11.14-24.982 24.859-24.982 13.727 0 24.884 11.198 24.884 24.982 0 5.4433-1.7517 10.486-4.7148 14.595l15.642 8.3492c4.3874-6.7858 6.8103-14.726 6.8103-22.944 0-23.566-19.113-42.753-42.622-42.753s-42.622 19.187-42.622 42.753c0 23.558 19.113 42.704 42.622 42.704 6.311 0 12.794-1.5716 18.516-4.3301l13.531-10.412 0.0491-0.0655"/>
  </g>
  <path d="m101.7 164.49 19.817 26.21 14.275-10.878-8.8567-11.222z" fill="#f6898c"/>
  <path d="m101.76 164.48 2.2756 17.705c3.0204-0.72032 5.959-1.7599 8.7257-3.0614z" fill="#ba4556"/>
  <path d="m198.77 146.35h-2.1879v-4.6355h-4.8082v4.6355h-2.1854v-11.278h2.188v4.8365h4.8082v-4.8365h2.1879v11.279" stroke-width=".54909" fill="#f1475f"/>
  <path d="m210.57 140.7c-0.00001 0.78112-0.13176 1.5152-0.39526 2.2021-0.26351 0.67758-0.63051 1.2751-1.1011 1.7928-0.47055 0.50819-1.0352 0.91286-1.6939 1.2139-0.64935 0.29173-1.3598 0.43761-2.1315 0.43761h-4.7147v-11.293h4.7147c0.77168 0.00001 1.4822 0.15058 2.1315 0.45173 0.65875 0.30115 1.2234 0.70579 1.6939 1.2139 0.47053 0.5082 0.83758 1.1058 1.1011 1.7928 0.2635 0.68702 0.39525 1.4164 0.39526 2.188m-2.2162-0.0565c-0.00001-0.47995-0.0988-0.95047-0.29644-1.4116-0.18823-0.47052-0.45173-0.88463-0.79052-1.2423-0.32939-0.36701-0.71996-0.65875-1.1716-0.8752-0.45172-0.22585-0.94107-0.33878-1.4681-0.33879h-1.9056v7.7076h1.9056c0.51759 0 1.0022-0.10349 1.454-0.31056 0.46112-0.20703 0.85635-0.48465 1.1858-0.83285 0.33879-0.35761 0.60229-0.76696 0.79052-1.2281 0.19762-0.47054 0.29643-0.95991 0.29644-1.4681" stroke-width=".54909" fill="#f1475f"/>
 </g>
</svg>
