<svg width="600" height="310.46" version="1.1" viewBox="0 0 599.99999 310.46274" xml:space="preserve" xmlns="http://www.w3.org/2000/svg"><g fill="#4144c5"><path d="m463.8 167.81h30.404v-31.263h21.06v81.011h-21.06v-33.198h-30.404v33.198h-21.06v-81.011h21.06z"/><path d="m528.98 136.55v81.011l29.87-2e-3c11.244 0 20.914-3.8864 29.008-11.658 8.0939-7.7711 12.141-17.351 12.141-28.739 0-11.389-4.0279-20.987-12.086-28.794-8.0591-7.8064-17.747-11.747-29.063-11.819zm21.059 17.834 4.9415 0.10743c6.8046 1e-4 12.357 1.9702 16.655 5.9103 4.2974 3.94 6.4454 9.527 6.4454 16.76-9e-5 7.8803-2.31 13.63-6.9298 17.246-4.62 3.6166-10.083 5.3885-16.387 5.3185h-4.7247z"/><path d="m408.79 192.78v24.775h-54.201v-24.775h13.936v-75.1h-21.678v-23.225h50.324v98.327z"/><path d="m-0.002602 0v310.46h310.46v-310.46zm259.37 85.943c9.2907 0 16.26 7.7412 16.26 16.258 0 8.5165-6.969 16.26-16.26 16.26-9.2907 0-16.258-7.7432-16.258-16.26 0-8.5165 7.7412-16.258 16.258-16.258zm-223.75 8.5216h47.227c24.001 0 42.581 11.613 42.581 37.163 0 17.033-9.2892 30.97-26.323 34.067l37.936 49.55h-39.489l0.0059 0.76759-30.196-46.46v46.454h-31.743zm31.743 24.766v30.196h3.0958c10.065 0 21.68-1.549 21.68-15.485 0-13.936-11.615-14.709-21.68-14.709v-2e-3zm105.3 10.84c9.2908 0 19.356 3.8721 25.549 10.84v-7.7423h29.42v82.843h-29.42v-9.2912c-5.4196 8.5165-15.485 11.613-24.776 11.613-24.775 0-41.807-20.13-41.807-44.132s17.033-44.132 41.034-44.132zm72.003 3.8731h29.42v82.068h-29.42zm-64.267 22.448c-11.613 0-18.58 8.5157-18.58 18.58 0 10.839 6.9673 18.582 18.58 18.582 11.613 0 18.582-7.7435 18.582-18.582 0.77422-10.065-6.195-18.58-18.582-18.58z"/></g></svg>
