<svg width="600" height="455.68" version="1.1" viewBox="0 0 599.99999 455.67933" xml:space="preserve" xmlns="http://www.w3.org/2000/svg"><path d="m600 282.95v36.364h-79.552v-36.364h20.455v-110.23h-31.818v-34.089h73.863v144.32z" fill="#4144c5"/><path d="m-0.002602 0v455.68h455.68v-455.68zm380.69 126.14c13.636 0 23.866 11.362 23.866 23.863 0 12.5-10.229 23.866-23.866 23.866-13.636 0-23.863-11.365-23.863-23.866 0-12.5 11.362-23.863 23.863-23.863zm-328.41 12.508h69.318c35.228 0 62.498 17.044 62.498 54.545 0 25-13.634 45.456-38.635 50.002l55.681 72.726h-57.96l9e-3 1.1266-44.32-68.191v68.182h-46.591zm46.59 36.35v44.32h4.5438c14.773 0 31.821-2.2736 31.821-22.727 0-20.454-17.048-21.589-31.821-21.589v-3e-3zm154.55 15.91c13.636 0 28.41 5.6832 37.5 15.91v-11.364h43.182v121.59h-43.182v-13.637c-7.9546 12.5-22.728 17.046-36.365 17.046-36.364 0-61.363-29.546-61.363-64.774 0-35.228 25-64.774 60.227-64.774zm105.68 5.6848h43.182v120.45h-43.182zm-94.327 32.947c-17.045 0-27.271 12.499-27.271 27.271 0 15.909 10.226 27.274 27.271 27.274 17.045 0 27.274-11.365 27.274-27.274 1.1364-14.773-9.0927-27.271-27.274-27.271z" fill="#4144c5"/></svg>
