<svg width="600" height="300.01" version="1.1" viewBox="0 0 599.99999 300.01199" xml:space="preserve" xmlns="http://www.w3.org/2000/svg"><g fill="#e61c22"><path d="m468.38 162.16h29.381v-30.211h20.351v78.283h-20.351v-32.08h-29.381v32.08h-20.351v-78.283h20.351z"/><path d="m531.37 131.95v78.282h28.863c10.866 0 20.21-3.7535 28.031-11.264 7.822-7.511 11.732-16.769 11.732-27.774 0-11.005-3.8929-20.28-11.68-27.824-7.787-7.5444-17.147-11.35-28.082-11.42zm20.352 17.233 4.7754 0.10547c6.5751 0 11.939 1.9036 16.092 5.711 4.1527 3.807 6.2285 9.206 6.2286 16.195-1e-4 7.6146-2.2311 13.169-6.6954 16.664-4.464 3.4947-9.7423 5.2083-15.834 5.1407h-4.5664z"/><path d="m0-8.3738e-4v300.01h300.01v-300.01zm250.64 83.045c8.978 0 15.711 7.4836 15.711 15.713 0 8.2299-6.7324 15.711-15.711 15.711-8.978 0-15.711-7.4817-15.711-15.711 0-8.2299 7.4817-15.713 15.711-15.713zm-216.22 8.2344h45.639c23.193 0 41.149 11.222 41.149 35.912 0 16.46-8.9785 29.927-25.438 32.92l36.66 47.881h-38.153l-2e-3 0.73828-29.18-44.879v44.889h-30.676zm30.676 23.942v29.178h2.9922c9.7261 0 20.947-1.4962 20.947-14.963 0-13.466-11.221-14.215-20.947-14.215zm101.75 10.465c8.978 0 18.703 3.7395 24.688 10.473v-7.4805h28.432v80.053h-28.432v-8.9766c-5.2371 8.2298-14.962 11.221-23.94 11.221-23.941 0-40.401-19.452-40.401-42.645s16.46-42.645 39.653-42.645zm69.579 3.7442h28.43v79.301h-28.43zm-62.1 21.701c-11.222 0-17.957 8.2289-17.957 17.955 0 10.474 6.7345 17.957 17.957 17.957 11.222 0 17.955-7.4828 17.955-17.957 0.74816-9.7261-5.9843-17.955-17.955-17.955z"/><path id="XMLID_986_" d="m332.18 210.23v-26.186c35.163-20.948 52.371-40.4 52.371-56.86 0-8.2298-4.489-13.466-11.97-13.466-7.4818 0-11.97 5.9852-11.97 17.208v2.9926h-29.178v-0.74818c0-26.186 17.208-44.141 42.645-44.141 25.437 0 41.148 14.215 41.148 35.912 0 17.208-14.963 38.156-44.141 61.349h19.452v-7.4818h23.941v31.422z"/></g></svg>
