<svg width="600" height="433.52" version="1.1" viewBox="0 0 599.99999 433.51338" xml:space="preserve" xmlns="http://www.w3.org/2000/svg"><path d="m0-8.3844e-4v433.52h433.51v-433.52zm362.17 120c12.973 0 22.702 10.814 22.702 22.705 0 11.892-9.7282 22.702-22.702 22.702-12.973 0-22.702-10.811-22.702-22.702 0-11.892 10.811-22.705 22.702-22.705zm-312.44 11.899h65.948c33.514 0 59.459 16.216 59.459 51.893 0 23.785-12.974 43.244-36.757 47.569l52.974 69.188h-55.13l-3e-3 1.0668-42.165-64.85v64.864h-44.326zm44.326 34.595v42.162h4.3237c14.054 0 30.269-2.162 30.269-21.621 0-19.458-16.215-20.54-30.269-20.54zm147.03 15.122c12.973 0 27.025 5.4035 35.673 15.133v-10.809h41.084v115.68h-41.084v-12.971c-7.5676 11.892-21.619 16.214-34.592 16.214-34.595 0-58.378-28.107-58.378-61.621 0-33.514 23.785-61.621 57.297-61.621zm100.54 5.4103h41.081v114.59h-41.081zm-89.734 31.358c-16.216 0-25.948 11.891-25.948 25.945 0 15.135 9.7312 25.948 25.948 25.948 16.216 0 25.945-10.813 25.945-25.948 1.0811-14.054-8.6472-25.945-25.945-25.945z" fill="#e61c22"/><path id="XMLID_986_" d="m480 303.78v-37.839c50.81-30.27 75.676-58.378 75.676-82.162 0-11.892-6.4866-19.458-17.297-19.458-10.811 0-17.297 8.6486-17.297 24.866v4.3243h-42.162v-1.0811c0-37.839 24.866-63.784 61.622-63.784 36.756 0 59.459 20.541 59.459 51.893 0 24.865-21.621 55.135-63.784 88.649h28.108v-10.811h34.595v45.405z" fill="#e61c22"/></svg>
