<svg width="600" height="441.47" version="1.1" viewBox="0 0 599.99999 441.47421" xml:space="preserve" xmlns="http://www.w3.org/2000/svg"><path id="XMLID_1042_" d="m520.73 256.51v2.2018c0 11.009 6.6055 16.514 18.717 16.514 12.111 0 18.717-7.7064 18.717-18.717 0-13.211-9.9083-19.817-29.725-19.817h-8.8074v-33.028h4.4037c18.717 0 27.523-6.6055 27.523-20.917 0-11.009-5.5046-17.615-14.312-17.615-8.8074 0-13.211 5.5046-13.211 14.312v2.2018h-41.835c0-31.928 22.018-52.845 56.148-52.845 31.928 0 52.845 19.817 52.845 48.44 0 16.514-7.7064 29.725-25.321 35.229 22.02 6.62 34.131 20.93 34.131 40.75 0 34.128-24.22 57.249-60.551 57.249-39.634 0-61.651-20.917-61.651-56.148h42.937z" fill="#00b46e"/><path d="m0 0v441.47h441.47v-441.47zm368.81 122.2c12.11 0 23.117 11.008 23.117 23.117 0 12.11-9.9071 23.117-23.117 23.117-13.211 0-23.12-11.008-23.12-23.117 0-13.211 11.011-23.117 23.12-23.117zm-318.17 12.096h67.155c34.128 0 60.551 16.514 60.551 52.845 0 24.22-13.211 44.037-37.43 48.44l53.946 70.459h-56.154l0.0113 1.1154-42.939-66.06v66.054h-45.139zm45.133 35.245v42.937h4.4049c14.312 0 30.826-2.2024 30.826-22.019 0-18.717-16.514-20.915-30.826-20.915v-3e-3zm150.83 15.414c13.211 0 27.522 5.5052 36.329 15.414v-11.012h41.835v117.8l-1.1012-6e-3h-41.835v-13.209c-7.7065 12.11-22.017 16.513-35.228 16.513-35.229 0-59.452-28.625-59.452-62.753s24.222-62.75 59.452-62.75zm101.29 5.5005h41.835l-3e-3 116.7h-41.833zm-91.377 31.936c-16.514 0-26.421 12.112-26.421 26.424 0 15.414 9.9078 26.421 26.421 26.421s26.421-11.009 26.421-26.421c1.1009-14.312-8.8068-26.424-26.421-26.424z" fill="#00b46e"/></svg>
