<svg width="600" height="303.8" version="1.1" viewBox="0 0 599.99999 303.79788" xml:space="preserve" xmlns="http://www.w3.org/2000/svg"><g fill="#00b46e"><path d="m466.72 164.21h29.752v-30.593h20.608v79.27h-20.608v-32.485h-29.752v32.485h-20.608v-79.27h20.608z"/><path d="m530.5 133.62v79.271h29.228c11.003 1e-5 20.464-3.8031 28.384-11.408 7.9205-7.6049 11.883-16.979 11.883-28.123 0-11.144-3.9429-20.536-11.828-28.176-7.8849-7.6393-17.366-11.494-28.439-11.564zm20.607 17.451 4.8359 0.10547c6.6588 0 12.09 1.9278 16.295 5.7831 4.2052 3.856 6.3085 9.3226 6.3085 16.4 0 7.7111-2.2606 13.336-6.7812 16.875-4.521 3.5388-9.8644 5.2734-16.033 5.205h-4.625z"/><path id="XMLID_1042_" d="m358.34 176.52v1.5152c0 7.5758 4.5456 11.364 12.88 11.364 8.3338 0 12.88-5.3031 12.88-12.88 0-9.0911-6.8183-13.637-20.455-13.637h-6.0607v-22.728h3.0304c12.88 0 18.94-4.5456 18.94-14.394 0-7.5758-3.788-12.122-9.8488-12.122-6.0607 0-9.0911 3.788-9.0911 9.8488v1.5152h-28.789c0-21.971 15.152-36.365 38.638-36.365 21.971 0 36.365 13.637 36.365 33.334 0 11.364-5.3032 20.455-17.425 24.243 15.153 4.5556 23.487 14.403 23.487 28.042 0 23.485-16.667 39.396-41.668 39.396-27.274 0-42.425-14.394-42.425-38.638h29.547z"/><path d="m0 0v303.8h303.8v-303.8zm253.8 84.091c8.3335 0 15.908 7.575 15.908 15.908 0 8.3335-6.8175 15.908-15.908 15.908-9.0911 0-15.91-7.575-15.91-15.908 0-9.0911 7.577-15.908 15.91-15.908zm-218.95 8.3241h46.212c23.485 0 41.668 11.364 41.668 36.365 0 16.667-9.0909 30.304-25.758 33.334l37.123 48.486h-38.642l0.0078 0.76757-29.549-45.459v45.455h-31.062zm31.058 24.254v29.547h3.0312c9.8488 0 21.213-1.5155 21.213-15.152 0-12.88-11.364-14.392-21.213-14.392v-2e-3zm103.79 10.607c9.0911 0 18.939 3.7884 25 10.607v-7.5781h28.789v81.066l-0.75781-4e-3h-28.789v-9.0898c-5.3032 8.3335-15.151 11.363-24.242 11.363-24.243 0-40.912-19.698-40.912-43.183s16.668-43.181 40.912-43.181zm69.7 3.7851h28.789l-2e-3 80.306h-28.787zm-62.88 21.976c-11.364 0-18.181 8.3351-18.181 18.183 0 10.607 6.818 18.181 18.181 18.181s18.181-7.5755 18.181-18.181c0.75757-9.8488-6.0604-18.183-18.181-18.183z"/></g></svg>
