<svg width="600" height="428.12" version="1.1" viewBox="0 0 158.75 113.27301" xmlns="http://www.w3.org/2000/svg">
 <path d="m140.96 35.023-18.361 24.011v8.4744h19.21v3.6719h-5.0874v8.4744h20.055v-8.4744h-3.9545v-3.6722h5.9318v-8.4744h-5.9316v-24.011zm1.6968 10.169v13.56h-9.3217z" fill="#9d2fe5"/>
 <path d="m0-2.3729e-4v113.27h113.27v-113.27zm94.629 31.358c3.1073 0 5.9318 2.8245 5.9318 5.9318 0 3.3898-2.542 5.9325-5.9318 5.9325-3.3898 0-5.9318-2.8253-5.9318-5.9325 0-3.3898 2.8245-5.9318 5.9318-5.9318zm-81.636 3.3886h17.232c8.757 0 15.537 4.2366 15.537 13.559 0 6.2147-3.3896 11.3-9.6043 12.43l13.841 18.079h-14.407l7.61e-4 0.28119-10.734-16.949v16.949h-11.865zm11.582 8.7555v11.017h1.13c3.6723 0 7.9098-0.56465 7.9098-5.6491 0-4.8021-4.2375-5.3672-7.9098-5.3672v-7.63e-4zm38.416 4.2365c3.3898 0 7.062 1.4127 9.3217 3.9552v-2.826h10.734v30.224l7.62e-4 0.0029h-10.734v-3.3899c-1.9775 3.1073-5.6497 4.2372-9.0397 4.2372-9.0396 0-15.254-7.3445-15.254-16.101 0-8.757 6.2145-16.102 14.971-16.102zm26.273 1.1322h10.734l-0.0023 30.224h-10.733zm-23.45 8.1924c-4.2372 0-6.7791 3.1069-6.7791 6.7791 0 3.9549 2.5419 6.7798 6.7791 6.7798 4.2372 0 6.7798-2.8252 6.7798-6.7798 0.28248-3.6722-2.2602-6.7791-6.7798-6.7791z" fill="#9d2fe5"/>
</svg>
