<svg width="600" height="297.41" version="1.1" viewBox="0 0 158.75 78.688327" xmlns="http://www.w3.org/2000/svg">
 <g fill="#9d2fe5">
  <path d="m124.23 42.54h7.7062v-7.924h5.3377v20.533h-5.3366v-8.4142h-7.7062v8.4142h-5.3377v-20.533h5.3377z"/>
  <path d="m140.75 34.61v20.533h7.5711c2.8498 0 5.3004-0.98499 7.352-2.9549 2.0515-1.9698 3.0773-4.3982 3.0773-7.2848 0-2.8863-1.021-5.319-3.0634-7.2978-2.0426-1.9788-4.4979-2.9774-7.366-2.9957zm5.3377 4.5201 1.2526 0.0274c1.7247 0 3.1317 0.49949 4.2209 1.4981 1.0892 0.99854 1.6335 2.4145 1.6335 4.2478 0 1.9973-0.58553 3.4541-1.7565 4.3708-1.171 0.91664-2.5549 1.3665-4.1527 1.3488h-1.1979z"/>
  <path d="m97.919 24.33-12.755 16.68v5.887h13.345v2.5508h-3.5341v5.887h13.932v-5.887h-2.7471v-2.551h4.1207v-5.887h-4.1206v-16.68zm1.1787 7.0642v9.4196h-6.4756z"/>
  <path d="m0-2.3729e-4v78.689h78.689v-78.689zm65.737 21.784c2.1586 0 4.1207 1.9621 4.1207 4.1207 0 2.3548-1.7659 4.1212-4.1207 4.1212s-4.1207-1.9627-4.1207-4.1212c0-2.3548 1.9621-4.1207 4.1207-4.1207zm-56.711 2.354h11.971c6.0833 0 10.793 2.9431 10.793 9.4191 0 4.3172-2.3547 7.8496-6.6719 8.6346l9.6154 12.559h-10.008l5.29e-4 0.19534-7.4569-11.774v11.774h-8.2424zm8.046 6.0823v7.6533h0.78496c2.5511 0 5.4948-0.39225 5.4948-3.9243 0-3.3359-2.9437-3.7285-5.4948-3.7285v-5.3e-4zm26.687 2.943c2.3548 0 4.9058 0.98139 6.4756 2.7476v-1.9632h7.4569v20.996l5.29e-4 2e-3h-7.4569v-2.3549c-1.3737 2.1586-3.9247 2.9435-6.2797 2.9435-6.2796 0-10.597-5.1021-10.597-11.185 0-6.0833 4.3171-11.186 10.4-11.186zm18.251 0.78652h7.4569l-0.0016 20.996h-7.4559zm-16.29 5.6911c-2.9435 0-4.7093 2.1583-4.7093 4.7093 0 2.7474 1.7658 4.7098 4.7093 4.7098s4.7098-1.9626 4.7098-4.7098c0.19623-2.551-1.5701-4.7093-4.7098-4.7093z"/>
 </g>
</svg>
