<svg xmlns="http://www.w3.org/2000/svg" height="309.61" width="600" version="1.1" viewBox="0 0 158.75 81.916675">
 <g transform="translate(-191.95 -250.68)" fill="#ff6607">
  <path d="m191.95 250.68v81.917h158.75v-81.92zm81.836 3.2714c24.549 0.006 49.097 0.00046 73.644 0.003-0.006 25.104 0.0118 50.207-0.009 75.311-24.546-0.0148-49.091-0.00078-73.638-0.006 0.003-25.102-0.006-50.204 0.003-75.308zm-10.009 18.527c0.91058-0.0342 1.8328 0.18054 2.6024 0.67496 0.92079 0.59056 1.6638 1.4922 1.9724 2.5514 0.36956 1.2827 0.21043 2.7344-0.52498 3.8609-0.60328 0.92459-1.5024 1.6828-2.5679 2.0054-1.237 0.36958-2.6426 0.20115-3.7184-0.52799-0.99571-0.67566-1.7848-1.6943-2.0654-2.8754-0.26415-1.143-0.11957-2.3997 0.49648-3.4094 0.64773-1.0503 1.6887-1.8901 2.9054-2.1644 0.29495-0.0653 0.59645-0.10416 0.89994-0.11557zm-64.627 2.6549c3.8203-0.001 7.6424-0.003 11.463 0 2.1502 0.0203 4.3248 0.0322 6.4318 0.51598 2.3597 0.5423 4.5249 2.0236 5.7733 4.1128 1.2916 2.1616 1.607 4.772 1.395 7.2448-0.15355 1.8746-0.82021 3.7348-2.0699 5.1598-1.3551 1.6028-3.31 2.6057-5.3458 3.0299 3.518 4.6179 7.0481 9.2279 10.569 13.845-3.6476 0-7.2961 0.003-10.944 0-2.8132-4.393-5.6291-8.7838-8.4447-13.176 0.001 4.3892-0.006 8.7773 0.003 13.167-2.944 0.0203-5.8878 0.006-8.8317 0.009 0.001-11.302 0.00023-22.604 0.001-33.906zm8.8257 6.6492c0 2.8652-0.001 5.7295 0.001 8.5947 1.4542-0.0175 2.9507 0.10016 4.3528-0.36598 1.0846-0.36195 2.098-1.146 2.4599-2.2649 0.30863-0.96902 0.29679-2.0264 0.072-3.0119-0.3099-1.317-1.4406-2.3413-2.7284-2.6804-1.3526-0.37086-2.771-0.24613-4.1579-0.2714zm30.857 3.4244c0.24354-0.006 0.48697-0.003 0.7305 0.006 0.64939 0.0203 1.2963 0.0839 1.9319 0.18141 1.3196 0.18663 2.5329 0.7886 3.6404 1.5074 0.60452 0.39499 1.0938 0.9396 1.5014 1.5314-0.006-0.84076-0.001-1.6836-0.003-2.5244 2.6849-0.003 5.3716-0.00026 8.0577-0.001 0.003 7.7091 0.001 15.417 0 23.126-2.6848 0.001-5.3714 0.001-8.0562 0 0-0.95254-0.003-1.9049 0.003-2.8574-0.61219 1.0046-1.4956 1.828-2.5319 2.3804-1.0668 0.55881-2.1673 1.1256-3.3764 1.287-1.9444 0.27429-3.9349-0.11528-5.7358-0.85945-1.4389-0.61472-2.8006-1.4596-3.8788-2.6039-1.3069-1.4288-2.3456-3.1303-2.8739-5.0023-0.92203-3.311-0.55147-6.9754 1.092-10.003 1.0897-1.9901 2.555-3.8826 4.5883-4.9723 1.511-0.8093 3.2057-1.1595 4.9108-1.194zm21.031 0.75895h8.1882c0.001 7.7091 0.001 15.417 0 23.126-2.7293 0-5.4576 0.001-8.1882 0zm-18.634 6.2863c-0.18983 0.009-0.37815 0.0233-0.56547 0.0493-1.7361 0.2145-3.2803 1.3998-3.9838 2.9924-0.29592 0.70866-0.33874 1.4872-0.33748 2.2454 0.003 0.72773 0.0482 1.4768 0.33896 2.1524 0.97286 2.0994 3.4207 3.4281 5.7118 3.0014 1.3716-0.24121 2.777-0.86642 3.5594-2.0729 0.83063-1.0922 0.81153-2.5413 0.72898-3.8444-0.0877-1.2954-0.7558-2.5069-1.716-3.3629-1.0457-0.82901-2.4083-1.213-3.7364-1.1609z" stroke-width="0.127"/>
  <path d="m327.28 262.5v11.334h-20.964l-1.0954 7.1265c1.1331-0.25281 2.2726-0.44221 3.4184-0.56858 1.1457-0.12624 2.2726-0.18953 3.3806-0.18953 5.6155 0.00001 10.047 1.6869 13.296 5.0606 3.2484 3.3738 4.8726 7.9542 4.8726 13.741-0.00006 6.1662-2.0209 11.031-6.0625 14.594-4.0417 3.5632-9.5754 5.3449-16.601 5.3449-3.3492 0-6.4717-0.37908-9.3676-1.1372-2.8959-0.75816-5.4392-1.8574-7.63-3.2979l0.9821-13.419 1.1709 0.22755c1.3598 2.047 3.1729 3.658 5.4392 4.8331s4.7089 1.7627 7.3278 1.7627c3.5002 0.00003 6.2073-0.84023 8.1211-2.5208 1.9138-1.6805 2.8707-4.0497 2.8707-7.1075-0.00003-2.9315-1.0325-5.3322-3.0973-7.2023-2.0649-1.8701-4.7468-2.8051-8.0455-2.8051-2.216 0.00003-4.2179 0.37278-6.0058 1.1183-1.7879 0.74554-3.3995 1.8764-4.8349 3.3927l-1.8508-1.0993 4.5705-29.188z"/>
 </g>
</svg>
