<svg xmlns="http://www.w3.org/2000/svg" height="208.96" width="600" version="1.1" viewBox="0 0 158.75 55.287591">
 <g transform="translate(-217.75 -264)" fill="#ff6607">
  <path d="m217.75 264v55.288h107.14v-55.288zm55.233 2.2079c16.568 0.004 33.137 0.00031 49.704 0.002-0.004 16.943 0.008 33.886-0.006 50.829-16.567-0.01-33.133-0.00053-49.7-0.004 0.002-16.942-0.004-33.884 0.002-50.827zm-6.7554 12.505c0.61457-0.0231 1.237 0.12185 1.7564 0.45555 0.62146 0.39858 1.123 1.0071 1.3312 1.722 0.24943 0.86575 0.14203 1.8455-0.35432 2.6058-0.40717 0.62403-1.014 1.1358-1.7332 1.3535-0.8349 0.24944-1.7836 0.13576-2.5096-0.35635-0.67203-0.45602-1.2046-1.1435-1.394-1.9407-0.17828-0.77146-0.0807-1.6196 0.33509-2.3011 0.43717-0.70889 1.1398-1.2757 1.9609-1.4608 0.19907-0.0441 0.40256-0.0703 0.60739-0.078zm-43.618 1.7919c2.5784-0.00082 5.158-0.002 7.7364 0 1.4512 0.0137 2.9189 0.0217 4.341 0.34825 1.5926 0.36601 3.0539 1.3658 3.8965 2.7759 0.87175 1.4589 1.0846 3.2208 0.94149 4.8897-0.10363 1.2652-0.55358 2.5207-1.397 3.4825-0.91461 1.0818-2.234 1.7586-3.608 2.045 2.3744 3.1167 4.7569 6.2282 7.133 9.344-2.4618 0-4.9243 0.002-7.3861 0-1.8987-2.965-3.7992-5.9284-5.6995-8.8925 0.00092 2.9624-0.004 5.924 0.002 8.8864-1.987 0.0137-3.9738 0.004-5.9607 0.006 0.00084-7.6281 0.00015-15.256 0.001-22.884zm5.9567 4.4877c0 1.9338-0.00068 3.867 0.001 5.8008 0.98147-0.0118 1.9915 0.0676 2.9378-0.24701 0.73202-0.24429 1.416-0.77346 1.6602-1.5286 0.2083-0.65402 0.20031-1.3676 0.0486-2.0328-0.20916-0.88891-0.9723-1.5802-1.8415-1.8091-0.9129-0.2503-1.8702-0.16612-2.8063-0.18317zm20.826 2.3112c0.16437-0.004 0.32867-0.002 0.49303 0.004 0.43829 0.0137 0.87488 0.0566 1.3039 0.12244 0.89061 0.12596 1.7095 0.53224 2.457 1.0174 0.40801 0.26659 0.7382 0.63416 1.0134 1.0336-0.004-0.56745-0.001-1.1363-0.002-1.7038 1.8121-0.002 3.6254-0.00017 5.4384-0.001 0.002 5.2031 0.00083 10.405 0 15.608-1.8121 0.00082-3.6253 0.00082-5.4373 0 0-0.64289-0.002-1.2856 0.002-1.9285-0.41318 0.67804-1.0094 1.2337-1.7088 1.6066-0.72004 0.37715-1.4628 0.75973-2.2788 0.86859-1.3124 0.18513-2.6558-0.0778-3.8712-0.58006-0.97118-0.41489-1.8902-0.98514-2.6179-1.7575-0.88203-0.96431-1.5831-2.1127-1.9397-3.3762-0.6223-2.2347-0.3722-4.7079 0.737-6.7514 0.73546-1.3432 1.7244-2.6205 3.0968-3.3559 1.0198-0.54622 2.1636-0.78257 3.3144-0.80583zm14.194 0.51224h5.5264c0.00084 5.2031 0.00084 10.405 0 15.608-1.8421 0-3.6835 0.00084-5.5264 0zm-12.576 4.2428c-0.12812 0.006-0.25522 0.0157-0.38165 0.0333-1.1718 0.14477-2.2139 0.94473-2.6888 2.0196-0.19972 0.47829-0.22862 1.0037-0.22777 1.5155 0.002 0.49116 0.0325 0.99671 0.22877 1.4527 0.65661 1.4169 2.3087 2.3137 3.855 2.0257 0.92576-0.1628 1.8743-0.58477 2.4023-1.3991 0.56061-0.73718 0.54772-1.7152 0.49201-2.5947-0.0592-0.87433-0.51011-1.692-1.1581-2.2697-0.70577-0.55952-1.6254-0.8187-2.5218-0.78355z" stroke-width=".085718"/>
  <path d="m329.74 280.12c0.001 8.2126-0.00053 16.425 0 24.637h46.756v-24.635c-15.585-0.006-31.171-0.00033-46.756-0.002zm10.937 6.1996c1.2237 0 2.4482 0.002 3.6728 0 0.002 1.8181 0.00035 3.6365 0.001 5.4546 1.7606-0.00083 3.5218 0.001 5.2824-0.002-0.001-1.8172 0.00053-3.6333 0-5.4505 1.2318-0.002 2.4645-0.00018 3.6971-0.001 0 4.7059-0.00053 9.4125 0 14.119-1.2318 0.004-2.4643 0.001-3.6961 0.002-0.001-1.9389-0.00035-3.8782-0.001-5.818-1.7606 0-3.5208 0.00083-5.2814 0-0.002 1.939 0.00053 3.8791 0 5.818-1.2258 0.00083-2.4499 0.00083-3.6748 0 0-4.7068-0.00053-9.4147 0-14.122zm15.6 0c1.4238 0.00083 2.8473 0.00016 4.2711 0.001 0.86062 0.008 1.7336-0.0529 2.5805 0.14164 1.4786 0.30002 2.795 1.1727 3.7791 2.299 0.83061 0.9309 1.4226 2.0827 1.642 3.3144 0.30259 1.6766 0.0263 3.4792-0.89695 4.9261-0.76802 1.2052-1.8559 2.2282-3.1545 2.8376-0.85719 0.40288-1.8049 0.59633-2.7495 0.60234-1.8241 0.00083-3.6477 0-5.4718 0-0.00053-4.7068-0.00053-9.4147 0-14.122zm3.6748 3.118c0 2.629-0.001 5.2574 0.001 7.8872 0.63431-0.006 1.2772 0.0323 1.9012-0.10834 0.9369-0.18865 1.8055-0.73865 2.3335-1.5418 0.53662-0.81003 0.68278-1.8237 0.59022-2.7769-0.13537-1.3818-1.0207-2.764-2.375-3.2132-0.79804-0.20401-1.6314-0.235-2.4509-0.24701z" stroke-width=".085718"/>
  <path d="m309.09 271.98v7.6497h-14.149l-0.73932 4.8098c0.76478-0.17063 1.5339-0.29846 2.3072-0.38375 0.77328-0.0852 1.5338-0.12792 2.2817-0.12792 3.79 0.00001 6.7813 1.1385 8.9737 3.4155s3.2886 5.3685 3.2887 9.2743c-0.00004 4.1617-1.3639 7.445-4.0917 9.85-2.7278 2.4049-6.4626 3.6074-11.204 3.6074-2.2604 0-4.3679-0.25585-6.3224-0.76752-1.9545-0.5117-3.6711-1.2536-5.1497-2.2258l0.66284-9.0568 0.79029 0.15358c0.91776 1.3816 2.1415 2.4689 3.6711 3.262 1.5296 0.79313 3.1782 1.1897 4.9457 1.1897 2.3624 0.00002 4.1894-0.56709 5.4811-1.7014 1.2917-1.1342 1.9375-2.7332 1.9375-4.797-0.00002-1.9785-0.69684-3.5989-2.0905-4.861-1.3937-1.2622-3.2037-1.8932-5.4301-1.8933-1.4956 0.00002-2.8468 0.2516-4.0535 0.75475-1.2067 0.50318-2.2944 1.2664-3.2632 2.2898l-1.2492-0.74194 3.0847-19.7z"/>
 </g>
</svg>
