<svg width="600" height="247.28" version="1.1" viewBox="0 0 158.75 65.425389" xmlns="http://www.w3.org/2000/svg">
 <g transform="translate(-10.583 -98.734)" fill="#00a9d9">
  <g stroke-width="1.6316">
   <path d="m10.583 98.734v65.425h65.425v-65.425zm54.658 18.11c1.9579 0 3.4257 1.6309 3.4257 3.4256s-1.4678 3.4289-3.4257 3.4289c-1.9579 0-3.4289-1.6341-3.4289-3.4289 0-1.9579 1.6341-3.4256 3.4289-3.4256zm-47.153 1.794h9.9519c5.0579 0 8.9736 2.4487 8.9736 7.8328 0 3.5894-1.9585 6.5269-5.548 7.1796l7.9953 10.443h-8.3204v0.1628l-6.3638-9.7894v9.7894h-6.6888zm6.6888 5.223v6.3638h0.65326c2.121 0 4.5665-0.32622 4.5665-3.2632 0-2.7737-2.4454-3.1006-4.5665-3.1006zm22.351 2.2848c1.9579 0 4.0802 0.81324 5.3855 2.2816v-1.6316h6.2012v17.46h-6.3638v-1.9598c-1.1421 1.7947-3.265 2.4474-5.2229 2.4474-5.221 0-8.8079-4.2408-8.8079-9.2987s3.5869-9.2987 8.8079-9.2987zm15.012 0.81577h6.1981v17.294h-6.1981zm-13.543 4.729c-2.4474 0-3.9164 1.7954-3.9164 3.9164 7e-6 2.2842 1.4691 3.9164 3.9164 3.9164s3.9164-1.6322 3.9164-3.9164c0.16317-2.121-1.3059-3.9164-3.9164-3.9164z"/>
   <path d="m108.97 144.58h-4.8947v-2.7737c-2.121 2.2842-4.5684 3.2631-7.8315 3.2631-3.7526 0-7.0158-1.4684-9.6263-4.0789-2.4474-2.6105-3.7526-5.8736-3.7526-9.6263 0-3.5894 1.4684-6.8526 3.9158-9.2999 2.6105-2.4474 5.7105-3.7526 9.4631-3.7526 3.1 0 5.3842 0.81578 7.3421 2.7737v-2.2842h4.7316v8.4842h-6.5263c-1.3053-1.9579-3.1-2.9368-5.221-2.9368-4.0789 0-7.0158 3.1-7.0158 7.1789 0 4.2421 3.2631 7.5052 6.8526 7.5052 2.4474 0 4.5684-1.3052 5.8737-3.5894h-7.3421v-5.221h14.358v14.358z"/>
   <path d="m130.5 139.36h1.9579v5.221h-7.3421v-2.6106c-1.3053 1.9579-3.2631 2.9368-5.8737 2.9368-4.4052 0-6.8526-2.6105-6.8526-7.6684v-7.5052h-2.4474v-5.221h8.321v11.095c0 2.7737 0.81578 4.0789 3.1 4.0789 2.121 0 3.4263-1.4684 3.4263-4.0789v-5.7105h-2.2842v-5.221h7.9947z"/>
   <path d="m136.38 123.86h-2.4474v-5.221h8.1578v20.721h2.4474v5.221h-9.9526v-5.221h1.9579v-15.5z"/>
  </g>
  <path d="m159.54 124.35c-2.9368 0-4.7296 0.98085-6.1981 2.7756v-2.4474h-7.6703v5.2198h2.1223v15.828h-2.1223v5.2198h9.9519v-5.2198h-1.9566v-3.2632c1.3053 1.6316 3.2625 2.4474 5.873 2.4474 5.7105 0 9.7894-4.2433 9.7894-10.28 0-6.0368-4.2421-10.28-9.7894-10.28zm-1.3034 5.0604c2.7737 0 4.8947 2.1204 4.8947 5.0572s-2.121 5.0573-4.8947 5.0573-4.7316-1.9573-4.8947-5.0573c0-2.9368 2.121-5.0572 4.8947-5.0572z"/>
 </g>
</svg>
