<svg xmlns="http://www.w3.org/2000/svg" height="234.87" width="600" version="1.1" viewBox="0 0 158.75 62.142983">
 <g transform="translate(-244.01 -337.26)" stroke-width=".24389" fill="#12c3f4">
  <path d="m318.47 360.87c-0.0244 0.70728-0.0488 1.3902-0.0976 2.0487-0.0488 0.65851-0.12194 1.317-0.26828 1.9511-0.14633 0.63411-0.34144 1.2682-0.58533 1.8779-0.26828 0.60972-0.60972 1.2194-1.0243 1.8292-0.97556 1.3414-2.1462 2.3169-3.512 2.9267-1.3902 0.60971-2.9023 0.90238-4.5363 0.90238-1.5365 0-2.951-0.24389-4.2193-0.75605-1.2682-0.48778-2.3657-1.1951-3.2925-2.1218-0.92678-0.90239-1.6341-1.9999-2.1462-3.2437-0.51217-1.2682-0.75605-2.6584-0.75605-4.1949 0-1.5853 0.24388-3.0242 0.75605-4.3168 0.51216-1.2926 1.2194-2.3901 2.1706-3.3169 0.92677-0.92678 2.0487-1.634 3.3657-2.1218 1.2926-0.48778 2.7316-0.75606 4.3168-0.75606 2.0243 0 3.7803 0.46339 5.2924 1.3658 1.5121 0.90239 2.6828 2.2682 3.512 4.0973l-4.8046 2.0243c-0.34145-0.92678-0.878-1.6828-1.5853-2.2438-0.70727-0.56094-1.5853-0.8536-2.634-0.8536-0.82923 0-1.5609 0.17072-2.195 0.53655-0.63411 0.36584-1.1707 0.82922-1.5853 1.4146-0.41462 0.58533-0.73167 1.2438-0.95117 1.9755-0.2195 0.73167-0.31706 1.4633-0.31706 2.2194 0 0.75605 0.12194 1.5121 0.34145 2.2438 0.21949 0.73166 0.56094 1.3902 0.97555 1.9511 0.439 0.56094 0.97556 1.0243 1.6097 1.3902 0.65851 0.34143 1.3902 0.53655 2.2194 0.53655 1.0975 0 2.0487-0.26828 2.8047-0.85361 0.75606-0.56094 1.1951-1.4146 1.2926-2.5608h-4.1461v-3.9998l9.9994 0.0488"/>
  <path d="m325.08 358.5v7.0972c0 0.41461 0.0244 0.80483 0.0976 1.1463 0.0488 0.36583 0.17072 0.6585 0.34144 0.92678 0.17073 0.26827 0.41461 0.46339 0.73167 0.58533 0.31705 0.14633 0.70727 0.1951 1.195 0.1951 0.48777 0 0.878-0.0732 1.1951-0.1951 0.31705-0.14634 0.56094-0.34145 0.73166-0.58533 0.17073-0.2439 0.29267-0.56095 0.34145-0.92678 0.0732-0.34145 0.0976-0.73167 0.0976-1.1463v-7.0972h4.707v7.9996c0 1.0975-0.19511 1.9999-0.53655 2.7316-0.36584 0.73166-0.85362 1.317-1.4877 1.756-0.63411 0.439-1.3658 0.75605-2.2438 0.95117-0.85361 0.1951-1.8048 0.29266-2.8047 0.29266-0.99994 0-1.9267-0.0976-2.7803-0.29266-0.8536-0.19512-1.6097-0.51217-2.2438-0.95117-0.63412-0.439-1.1463-1.0243-1.5121-1.756-0.36582-0.73167-0.53655-1.6341-0.53655-2.7316v-7.9996z"/>
  <path d="m341.96 371.79h-4.707v-21.511h4.707z"/>
  <path d="m353.45 358.04c-0.78045 0-1.5362 0.17073-2.2679 0.48778-0.73166 0.31706-1.3173 0.80483-1.7563 1.4633h-0.0728v-1.4881h-4.7072v19.926h4.7072v-7.9021c0.51216 0.58533 1.1218 1.0245 1.8535 1.2928 0.73166 0.26827 1.4874 0.41441 2.2679 0.41441 0.99995 0 1.8783-0.19529 2.7076-0.56112 0.82922-0.39023 1.512-0.87773 2.0974-1.5362 0.58533-0.6585 1.0486-1.4147 1.3657-2.2684 0.31705-0.85361 0.48778-1.7559 0.48778-2.7071 0-0.92678-0.17073-1.8535-0.48778-2.7071-0.31706-0.85361-0.78035-1.6098-1.3657-2.2684-0.58533-0.65849-1.2929-1.1708-2.1221-1.561-0.80483-0.39023-1.7315-0.58496-2.7071-0.58496zm-1.1952 4.1213c0.48778 0 0.90267 0.0732 1.2685 0.24389 0.36583 0.14633 0.68298 0.36622 0.95126 0.63449 0.24389 0.26828 0.43862 0.58496 0.58495 0.95078 0.12194 0.36584 0.19531 0.75624 0.19531 1.1709 0 0.85361-0.2437 1.5607-0.78026 2.1216-0.53656 0.56095-1.2929 0.85361-2.2441 0.85361-0.97555 0-1.707-0.29266-2.2436-0.85361-0.51217-0.56095-0.78074-1.268-0.78074-2.1216 0-0.41462 0.0489-0.80502 0.19531-1.1709 0.14634-0.36582 0.34144-0.6825 0.60972-0.95078 0.26828-0.26827 0.58543-0.46377 0.95126-0.63449 0.39023-0.17072 0.80455-0.24389 1.2923-0.24389z"/>
  <path d="m244.01 337.26v48.729h11.975v13.414l12.536-13.414h24.267v-48.729zm41.851 13.56c1.4633 0 2.6342 1.1709 2.6342 2.6342 0 1.4389-1.1952 2.6342-2.6342 2.6342-1.4389 0-2.6342-1.1952-2.6342-2.6342 0-1.4389 1.1952-2.6342 2.6342-2.6342zm-37.095 1.4881h7.5605c3.8534 0 6.7798 1.8291 6.7798 5.9996 0 2.6828-1.4877 4.9996-4.268 5.5118l6.1463 7.975h-6.3168l-4.7801-7.4872h-0.049v7.4872h-5.0726zm5.0726 3.8774v4.8535h0.48778c1.6584 0 3.5121-0.31715 3.5121-2.4146 0-2.1218-1.8536-2.4389-3.5121-2.4389zm17.975 1.9268c1.5121 0 3.1215 0.56084 4.097 1.7315v-1.2923h4.7072v13.243h-4.7072v-1.4633h-0.0486c-0.82923 1.317-2.439 1.9025-3.9999 1.9025-3.9266 0-6.6826-3.2925-6.6826-7.0728 0-3.8047 2.7075-7.0485 6.6341-7.0485zm11.707 0.43918h4.7068v13.243h-4.7068zm-10.463 3.6093c-1.9267 0.0244-3.0243 1.3904-3.0243 3 0 1.6828 1.122 2.9752 3.0243 2.9752s3.0243-1.2924 3.0243-2.9752c0-1.634-1.0976-3-3.0243-3z"/>
  <path d="m363.72 351.84v20.584h39.046v-20.584zm25.705 2.0488c0.99994 0.0244 2.0245-0.049 3 0.17053 1.7072 0.34144 3.2437 1.3415 4.39 2.6585 0.95117 1.0975 1.6586 2.4147 1.9025 3.8536 0.34143 1.9511 0.0242 4.0486-1.0489 5.7314-0.878 1.3902-2.1462 2.5852-3.6583 3.2925-0.99994 0.46339-2.0973 0.7069-3.1948 0.7069h-6.3654v-16.389c1.6584 0 3.3165 0.00009 4.975-0.0243zm-22.95 0.0243h4.2438v6.3411h6.1458v-6.3411h4.2928v16.389h-4.2928v-6.7555h-6.1215v6.7555h-4.268zm22.243 3.634v9.1458c0.75606 0 1.4876 0.0488 2.2193-0.12195 1.0731-0.2195 2.0973-0.8538 2.7071-1.7806 0.60973-0.92678 0.78063-2.1216 0.68308-3.2191-0.14633-1.6097-1.1952-3.2195-2.7561-3.7317-0.92678-0.24389-1.9022-0.26809-2.8533-0.29248z"/>
 </g>
</svg>
