<svg xmlns="http://www.w3.org/2000/svg" height="321.11" width="600" version="1.1" viewBox="0 0 158.75003 84.960345">
 <g transform="translate(-222.7 -325.85)" stroke-width=".33344" fill="#12c3f4">
  <path d="m324.49 358.13c-0.0334 0.96698-0.0667 1.9006-0.13344 2.8009-0.0667 0.9003-0.16671 1.8006-0.36678 2.6675-0.20006 0.86694-0.46681 1.7339-0.80025 2.5675-0.36679 0.83359-0.83359 1.6672-1.4004 2.5008-1.3338 1.8339-2.9343 3.1677-4.8015 4.0013-1.9006 0.83358-3.9679 1.2337-6.2019 1.2337-2.1007 0-4.0346-0.33344-5.7685-1.0336-1.7339-0.66688-3.2343-1.6339-4.5014-2.9009-1.2671-1.2337-2.234-2.7342-2.9343-4.4347-0.70023-1.7339-1.0336-3.6345-1.0336-5.7351 0-2.1674 0.33342-4.1346 1.0336-5.9019 0.70021-1.7672 1.6672-3.2677 2.9676-4.5348 1.267-1.2671 2.8009-2.234 4.6014-2.9009 1.7672-0.66688 3.7345-1.0337 5.9018-1.0337 2.7676 0 5.1683 0.63353 7.2356 1.8672s3.6678 3.101 4.8015 5.6018l-6.5687 2.7676c-0.46682-1.2671-1.2004-2.3007-2.1674-3.0676-0.96697-0.76691-2.1673-1.167-3.6011-1.167-1.1337 0-2.134 0.2334-3.001 0.73355-0.86694 0.50017-1.6005 1.1337-2.1673 1.9339-0.56686 0.80025-1.0003 1.7005-1.3004 2.7009-0.30009 1.0003-0.43347 2.0006-0.43347 3.0343 0 1.0336 0.16671 2.0673 0.46682 3.0676 0.30008 1.0003 0.7669 1.9006 1.3338 2.6675 0.60019 0.7669 1.3338 1.4004 2.2007 1.9006 0.9003 0.4668 1.9006 0.73356 3.0343 0.73356 1.5005 0 2.8009-0.36678 3.8345-1.167 1.0337-0.76691 1.6339-1.934 1.7672-3.5011h-5.6685v-5.4684l13.671 0.0667"/>
  <path d="m333.53 354.89v9.7031c0 0.56685 0.0334 1.1004 0.13344 1.5672 0.0667 0.50015 0.2334 0.90028 0.46681 1.2671 0.23341 0.36677 0.56684 0.63353 1.0003 0.80025 0.43346 0.20006 0.96696 0.26673 1.6338 0.26673 0.66687 0 1.2004-0.10007 1.6339-0.26673 0.43346-0.20007 0.7669-0.46682 1.0003-0.80025 0.23342-0.33346 0.40014-0.76692 0.46683-1.2671 0.10007-0.46682 0.13343-1.0003 0.13343-1.5672v-9.7031h6.4354v10.937c0 1.5005-0.26675 2.7342-0.73356 3.7345-0.50017 1.0003-1.167 1.8006-2.034 2.4008-0.86694 0.60019-1.8673 1.0336-3.0676 1.3004-1.167 0.26674-2.4674 0.40012-3.8345 0.40012s-2.6342-0.13344-3.8012-0.40012c-1.167-0.26676-2.2007-0.70022-3.0676-1.3004-0.86695-0.60019-1.5672-1.4005-2.0673-2.4008-0.50014-1.0003-0.73356-2.234-0.73356-3.7345v-10.937z"/>
  <path d="m356.6 373.07h-6.4354v-29.409h6.4354z"/>
  <path d="m372.31 354.26c-1.067 0-2.1003 0.23342-3.1006 0.66689s-1.801 1.1003-2.4012 2.0006h-0.0995v-2.0345h-6.4356v27.242h6.4356v-10.804c0.70022 0.80025 1.5337 1.4007 2.534 1.7675 1.0003 0.36678 2.0336 0.56658 3.1006 0.56658 1.3671 0 2.568-0.267 3.7017-0.76715 1.1337-0.53352 2.0672-1.2 2.8674-2.1003 0.80024-0.90028 1.4336-1.9342 1.8671-3.1012 0.43346-1.167 0.66688-2.4006 0.66688-3.701 0-1.2671-0.23342-2.534-0.66688-3.701-0.43348-1.167-1.0669-2.2009-1.8671-3.1012-0.80025-0.90027-1.7676-1.6006-2.9013-2.1341-1.1004-0.53352-2.3673-0.79975-3.701-0.79975zm-1.634 5.6346c0.66688 0 1.2341 0.10008 1.7343 0.33344 0.50016 0.20006 0.93376 0.50069 1.3005 0.86746 0.33344 0.36678 0.59967 0.79974 0.79973 1.2999 0.16671 0.50017 0.26702 1.0339 0.26702 1.6008 0 1.167-0.33318 2.1337-1.0668 2.9007-0.73357 0.76691-1.7676 1.167-3.068 1.167-1.3338 0-2.3338-0.40012-3.0674-1.167-0.70023-0.76692-1.0674-1.7336-1.0674-2.9007 0-0.56686 0.0669-1.1006 0.26703-1.6008 0.20007-0.50014 0.4668-0.9331 0.83359-1.2999 0.36679-0.36677 0.80039-0.63406 1.3005-0.86746 0.53351-0.2334 1.1-0.33344 1.7668-0.33344z"/>
  <path d="m222.7 325.85v66.621h16.372v18.339l17.139-18.339h33.177v-66.621zm57.218 18.539c2.0006 0 3.6014 1.6008 3.6014 3.6014 0 1.9673-1.6341 3.6014-3.6014 3.6014s-3.6014-1.6341-3.6014-3.6014 1.6341-3.6014 3.6014-3.6014zm-50.716 2.0345h10.337c5.2683 0 9.2692 2.5007 9.2692 8.2025 0 3.6678-2.034 6.8353-5.8352 7.5356l8.403 10.903h-8.6362l-6.5353-10.236h-0.067v10.236h-6.9351zm6.9351 5.3012v6.6355h0.66688c2.2674 0 4.8016-0.4336 4.8016-3.3012 0-2.9009-2.5342-3.3344-4.8016-3.3344zm24.575 2.6343c2.0673 0 4.2676 0.76676 5.6014 2.3673v-1.7668h6.4356v18.105h-6.4356v-2.0006h-0.0664c-1.1337 1.8006-3.3345 2.6011-5.4685 2.6011-5.3684 0-9.1364-4.5014-9.1364-9.6697 0-5.2016 3.7016-9.6365 9.0699-9.6365zm16.005 0.60043h6.435v18.105h-6.435zm-14.305 4.9345c-2.6342 0.0334-4.1348 1.9009-4.1348 4.1016 0 2.3007 1.534 4.0677 4.1348 4.0677s4.1348-1.767 4.1348-4.0677c0-2.234-1.5006-4.1016-4.1348-4.1016z"/>
 </g>
</svg>
