<svg width="600" height="198.42" version="1.1" viewBox="0 0 158.75 52.498461" xmlns="http://www.w3.org/2000/svg">
 <g transform="translate(-42.333 -82.263)" fill="#00a9d9">
  <g stroke-width="1.3092">
   <path d="m42.333 82.263v52.498h52.498v-52.498zm43.859 14.532c1.5711 0 2.7489 1.3087 2.7489 2.7488 0 1.4401-1.1778 2.7514-2.7489 2.7514s-2.7514-1.3112-2.7514-2.7514c0-1.5711 1.3112-2.7488 2.7514-2.7488zm-37.837 1.4395h7.9856c4.0586 0 7.2006 1.9649 7.2006 6.2852 0 2.8802-1.5715 5.2373-4.4518 5.7611l6.4156 8.3797h-6.6765v0.13064l-5.1065-7.8552v7.8552h-5.3672zm5.3672 4.191v5.1064h0.52419c1.7019 0 3.6643-0.26176 3.6643-2.6185 0-2.2257-1.9622-2.488-3.6643-2.488zm17.935 1.8334c1.5711 0 3.274 0.65257 4.3214 1.8308v-1.3092h4.976v14.01h-5.1065v-1.5726c-0.91645 1.4401-2.6199 1.9638-4.191 1.9638-4.1894 0-7.0677-3.4029-7.0677-7.4615s2.8782-7.4615 7.0677-7.4615zm12.046 0.6546h4.9735v13.877h-4.9735zm-10.867 3.7946c-1.9638 0-3.1426 1.4407-3.1426 3.1426 5e-6 1.8329 1.1788 3.1426 3.1426 3.1426 1.9638 0 3.1426-1.3097 3.1426-3.1426 0.13093-1.7019-1.0479-3.1426-3.1426-3.1426z"/>
   <path d="m121.28 119.05h-3.9276v-2.2257c-1.7019 1.8329-3.6658 2.6184-6.2842 2.6184-3.0112 0-5.6296-1.1783-7.7244-3.273-1.9638-2.0947-3.0112-4.7131-3.0112-7.7244 0-2.8802 1.1783-5.4987 3.1421-7.4624 2.0947-1.9638 4.5822-3.0112 7.5934-3.0112 2.4875 0 4.3204 0.6546 5.8915 2.2257v-1.8329h3.7967v6.8079h-5.2368c-1.0474-1.5711-2.4875-2.3566-4.1894-2.3566-3.273 0-5.6296 2.4875-5.6296 5.7605 0 3.404 2.6184 6.0223 5.4987 6.0223 1.9638 0 3.6658-1.0473 4.7132-2.8802h-5.8915v-4.1894h11.521v11.521z"/>
   <path d="m138.56 114.86h1.5711v4.1894h-5.8915v-2.0948c-1.0474 1.5711-2.6184 2.3566-4.7132 2.3566-3.5348 0-5.4987-2.0947-5.4987-6.1533v-6.0223h-1.9638v-4.1894h6.677v8.9029c0 2.2257 0.6546 3.273 2.4875 3.273 1.7019 0 2.7493-1.1783 2.7493-3.273v-4.5822h-1.8329v-4.1894h6.4151z"/>
   <path d="m143.28 102.43h-1.9638v-4.1894h6.546v16.627h1.9638v4.1894h-7.9862v-4.1894h1.5711v-12.438z"/>
  </g>
  <path d="m161.86 102.82c-2.3566 0-3.7951 0.78705-4.9735 2.2272v-1.9638h-6.1548v4.1885h1.703v12.701h-1.703v4.1885h7.9856v-4.1885h-1.57v-2.6185c1.0474 1.3092 2.6179 1.9638 4.7126 1.9638 4.5822 0 7.8552-3.4049 7.8552-8.2489 0-4.8441-3.404-8.2489-7.8552-8.2489zm-1.0459 4.0606c2.2257 0 3.9276 1.7015 3.9276 4.058s-1.7019 4.0581-3.9276 4.0581-3.7967-1.5706-3.9276-4.0581c0-2.3566 1.7019-4.058 3.9276-4.058z" stroke-width=".80242"/>
  <path d="m174.55 104.99h3.1019v5.4136h5.7099v-5.4136h3.1019v14.107h-3.1019v-6.0853h-5.7099v6.0853h-3.1019z" stroke-width=".047153"/>
  <path d="m188.6 104.99h6.0854c3.6551 0 6.4014 2.2918 6.4014 6.9744 0 4.0898-2.0943 7.1325-6.4014 7.1325h-6.0854zm3.102 11.499h2.766c1.7979 0 3.5168-1.1064 3.5168-4.2281 0-2.8451-0.98789-4.6628-4.0701-4.6628h-2.2128z" stroke-width=".047153"/>
 </g>
</svg>
