<?xml version="1.0" encoding="UTF-8" standalone="no"?>
<svg xmlns="http://www.w3.org/2000/svg" height="150.37" width="600" version="1.1" viewBox="0 0 158.75 39.786461">
 <g transform="translate(-21.923 -232.51)">
  <g transform="matrix(.73845 0 0 .73845 300.33 15.295)">
   <path d="m-377.01 294.14v53.878h53.878v-53.878z" fill="#980b1c"/>
   <g fill="#fff">
    <path d="m-361.78 323.75 7.0048 9.1325h-7.2122l-5.4678-8.5715h-0.0586v8.5715h-5.7934v-22.285h8.6599c2.2068 0.0199 4.0491 0.57654 5.5269 1.67 1.4777 1.0935 2.2166 2.8324 2.2166 5.2166-0.00002 1.537-0.41869 2.9015-1.256 4.0936-0.83735 1.1921-2.044 1.9259-3.6201 2.2013zm-5.7339-8.7194v5.5571h0.56103c0.0986 0.0192 0.19723 0.0289 0.29585 0.0289 0.0986 0.00002 0.1873 0.00002 0.26609 0 0.86709-0.0391 1.6602-0.24096 2.3794-0.60567 0.71917-0.36469 1.0788-1.0888 1.0788-2.1724-0.00001-1.0836-0.35959-1.8077-1.0788-2.1724-0.71919-0.36468-1.5123-0.56658-2.3794-0.60568-0.0788 0.00002-0.16748 0.00002-0.26609 0-0.0986 0.00002-0.19724 0.00002-0.29585 0z"/>
    <path d="m-336.76 317.72v15.162h-5.3794v-1.6849h-0.0586c-0.43357 0.70956-1.0248 1.2368-1.7737 1.5816-0.74896 0.34486-1.5272 0.53683-2.3348 0.57591-0.0788 0.0198-0.15755 0.0298-0.23632 0.0298h-0.23632c-2.2465 0-4.084-0.80291-5.5124-2.4087s-2.1427-3.4926-2.1426-5.6604c-0.00001-2.1672 0.70429-4.0536 2.1129-5.6595 1.4086-1.6058 3.2362-2.4087 5.4827-2.4087 0.0986 0.00002 0.19723 0.00002 0.29585 0 0.0986 0.00002 0.19693 0.01 0.29495 0.0289 0.76847 0.0596 1.5222 0.25182 2.2613 0.57682 0.73901 0.32502 1.3548 0.78308 1.8472 1.3742v-1.5072h5.3794zm-8.6599 4.1672c-1.0836 0.0199-1.9308 0.36967-2.5418 1.0494-0.61095 0.6798-0.91642 1.4827-0.91641 2.4087-0.00001 0.96573 0.30546 1.7736 0.91641 2.4236 0.61093 0.65002 1.4582 0.97504 2.5418 0.97503 1.1034 0.00001 1.9556-0.32501 2.5567-0.97503 0.601-0.65003 0.90151-1.4579 0.90152-2.4236-0.00001-0.92602-0.30052-1.7289-0.90152-2.4087-0.60103-0.67978-1.4532-1.0197-2.5567-1.0197z"/>
    <path d="m-327.81 317.72v15.162h-5.3794v-15.16zm-2.6897-8.8376c0.82741 0.0199 1.5367 0.32534 2.1278 0.91641 0.59109 0.59112 0.88664 1.3004 0.88664 2.1278 0 0.82804-0.29555 1.5376-0.88664 2.1287-0.59111 0.59112-1.3004 0.88667-2.1278 0.88665-0.82742 0.00002-1.5367-0.29553-2.1278-0.88665-0.5911-0.59108-0.88665-1.3006-0.88665-2.1287 0-0.8274 0.29555-1.5366 0.88665-2.1278 0.59109-0.59107 1.3004-0.88662 2.1278-0.88665z"/>
   </g>
   <g fill="#980b1c">
    <path d="m-317.25 333.03 3.8162-22.481h5.7543l4.5623 12.015 4.8298-12.015h5.8143l3.3985 22.481h-5.8434l-1.6397-12.94h-0.0601l-5.3967 12.94h-2.3257l-5.1583-12.94h-0.0591l-1.879 12.94z"/>
    <path d="m-278.66 317.23c2.4646 0.02 4.6164 0.74068 6.4554 2.162 1.8389 1.4213 2.7584 3.4337 2.7584 6.0373-0.00002 2.5842-0.91949 4.5819-2.7584 5.9931-1.8389 1.4113-3.9907 2.1169-6.4554 2.1169-2.4446 0-4.5913-0.70064-6.4399-2.1019s-2.773-3.404-2.773-6.0081c0-2.6036 0.91931-4.616 2.7579-6.0373s3.9903-2.1319 6.4549-2.1319zm0 4.7106c-1.0931 0.02-1.9478 0.37292-2.5641 1.0587-0.61632 0.68578-0.92448 1.4958-0.92447 2.4299-0.00001 0.97422 0.30815 1.7892 0.92447 2.4449 0.6163 0.65575 1.471 0.98362 2.5641 0.98362 1.1131 0 1.9728-0.32787 2.5791-0.98362 0.60629-0.65574 0.90944-1.4707 0.90946-2.4449-0.00002-0.93417-0.30317-1.7441-0.90946-2.4299-0.60632-0.68576-1.466-1.0286-2.5791-1.0286z"/>
    <path d="m-263.15 317.73 3.6678 7.8416 3.6369-7.8416h6.0828l-7.9908 15.296h-3.4586l-8.0209-15.296z"/>
    <path d="m-243 317.73v15.296h-5.4267v-15.296zm-2.7134-8.9153c0.83468 0.0201 1.5502 0.3282 2.1465 0.92447 0.59628 0.59632 0.89443 1.3118 0.89444 2.1465-0.00001 0.83532-0.29816 1.5511-0.89444 2.1474-0.59631 0.59631-1.3118 0.89445-2.1465 0.89444-0.8347 0.00001-1.5502-0.29813-2.1465-0.89444-0.5963-0.59628-0.89445-1.3121-0.89445-2.1474 0-0.83467 0.29815-1.5502 0.89445-2.1465 0.59629-0.59627 1.3118-0.89442 2.1465-0.89444z"/>
    <path d="m-223.68 325.72v0.56596h-11.419c-0.00001 1.1131 0.28813 1.963 0.86442 2.5496 0.57626 0.58659 1.421 0.87988 2.5341 0.87988 0.57626 0 1.0782-0.10934 1.5059-0.32802 0.42765-0.21868 0.7904-0.57643 1.0883-1.0732l5.2174-0.03c-0.43677 1.8289-1.4055 3.1607-2.9062 3.9954-1.5008 0.83469-3.1259 1.252-4.8753 1.252-2.5247 0-4.6318-0.69077-6.3212-2.0723-1.6894-1.3816-2.5341-3.3941-2.5341-6.0377 0-2.5441 0.79011-4.5416 2.3703-5.9927 1.5802-1.451 3.6126-2.1765 6.0973-2.1765 2.6636 0.00002 4.7259 0.76525 6.1869 2.2957 1.461 1.5305 2.1915 3.5978 2.1915 6.202zm-11.33-2.5641h6.2911c-0.13893-0.71578-0.50168-1.2924-1.0883-1.7297-0.5866-0.43735-1.2475-0.65603-1.9827-0.65604-0.79527 0.00001-1.491 0.20383-2.0873 0.61145-0.5963 0.40766-0.97391 1.0091-1.1328 1.8044z"/>
    <path d="m-213.66 308.38c17.208 0.002 34.415-0.003 51.622 0.003v27.198c-17.207 0-34.414 0.00088-51.622 0 0-9.0673 0.00096-18.134-0.00097-27.201" stroke-width=".094639"/>
   </g>
   <path d="m-201.58 315.22c-0.002 5.2023 0 10.405 0 15.607 1.3524 0.002 2.7048 0.00088 4.0572 0.00088 0.003-2.1426-0.00097-4.2852 0.002-6.4279 1.9439 0.002 3.8868 0 5.8307 0.00088-0.00097 2.1426-0.00097 4.2843 0 6.426 1.3618 0 2.7237 0.003 4.0865-0.00088 0-5.2013 0.00096-10.404-0.00096-15.605-1.3628 0-2.7246-0.003-4.0865 0.00088 0.002 2.0092-0.00096 4.0174 0.00097 6.0256-1.9439 0.004-3.8878 0.00088-5.8316 0.002-0.00096-2.0101 0.002-4.0202-0.00096-6.0304-1.3524 0.002-2.7048 0.00087-4.0572 0.00087" stroke-width=".094639" fill="#fff"/>
   <path d="m-184.36 315.22c-0.002 5.2023-0.00096 10.403 0 15.605 1.9846 0.002 3.9705 0.001 5.9551 0.002 0.92841-0.009 1.8616-0.15551 2.7285-0.5 1.5918-0.62934 2.924-1.8258 3.8496-3.2539 1.7054-2.6414 1.5058-6.355-0.48828-8.7891-1.1073-1.4025-2.6491-2.513-4.4141-2.8887-0.98518-0.23187-2.0007-0.16727-3.002-0.17579-1.5436 0-3.0863 0.00088-4.6289 0zm4.0606 3.4551c0.75427-0.009 1.5072 0.0544 2.2539 0.16797 1.3363 0.19779 2.3668 1.3183 2.8144 2.543 0.37477 1.0458 0.37503 2.2134 0.0391 3.2695-0.35679 1.1111-1.2632 2.0069-2.3516 2.4082-0.87636 0.34827-1.8322 0.31522-2.7559 0.3086-0.004-2.8997-0.00094-5.7985 0-8.6973z" stroke-width=".094639" fill="#fff"/>
  </g>
 </g>
</svg>
