<svg width="600" height="177.84" version="1.1" viewBox="0 0 158.75 47.052241" xmlns="http://www.w3.org/2000/svg">
 <g transform="translate(-61.232 -200.15)" fill="#b70022">
  <polygon transform="matrix(1.1734 0 0 1.1734 61.232 200.15)" points="46.3 15.5 44.7 15.5 44.7 12.2 51.8 12.2 54.7 22.6 57.6 12.2 64.5 12.2 64.5 15.5 63 15.5 63 24.8 64.5 24.8 64.5 28.1 58.1 28.1 58.1 24.8 59.5 24.8 59.5 16.5 55.9 28.1 53.4 28.1 49.8 16.3 49.8 24.8 51.1 24.8 51.1 28.1 44.7 28.1 44.7 24.8 46.3 24.8"/>
  <path d="m145.36 218.34c-2.1121 0-4.1059 0.82186-5.514 2.2299-1.4081 1.4081-2.2298 3.285-2.2298 5.3971 0 2.1121 0.82182 3.989 2.2298 5.3971 1.5254 1.5254 3.4019 2.2299 5.514 2.2299 2.1121 0 4.1082-0.82182 5.5162-2.2299 1.5254-1.4081 2.2298-3.285 2.2298-5.3971 0-2.1121-0.82181-3.989-2.2298-5.3971-1.5254-1.4081-3.4042-2.2299-5.5162-2.2299zm0 4.1069c1.76 0 3.2864 1.5254 3.2864 3.5201 0 1.9947-1.409 3.5201-3.2864 3.5201-1.8774 0-3.401-1.5254-3.401-3.5201 0-1.9948 1.5236-3.5201 3.401-3.5201z" stroke-width=".82266"/>
  <polygon transform="matrix(1.1734 0 0 1.1734 61.232 200.15)" points="85.1 15.8 90.7 15.8 90.7 19.1 89.6 19.1 86.2 28.1 82.6 28.1 79.2 19.1 78.2 19.1 78.2 15.8 83.9 15.8 83.9 19.1 82.9 19.1 84.5 23.9 86.1 19.1 85.1 19.1"/>
  <g stroke-width=".82266">
   <path d="m170.59 222.56h-1.7601v-3.7548h5.8669v10.561h1.76v3.7548h-7.7443v-3.7548h1.7601v-6.8056z"/>
   <path d="m170.59 214.46h4.1068v3.5202h-4.1068z"/>
   <path d="m184.08 218.22c-2.1121 0-4.1059 0.82181-5.514 2.2298-1.5254 1.4081-2.2299 3.285-2.2299 5.3971s0.70447 3.989 2.2299 5.3971c1.5254 1.5254 3.2846 2.2299 5.514 2.2299 3.1681 0 5.8668-1.6427 7.0403-4.6935h-4.9273c-0.58668 0.58668-1.2916 0.82044-2.1129 0.82044-1.5254 0-2.6983-0.82-3.0504-2.1107h10.677c0.11752-0.58668 0.11929-1.1739 0.11929-1.6432 0-1.6428-0.47119-2.933-1.2926-4.2237-1.4081-2.1121-3.7548-3.4032-6.4536-3.4032zm0 3.7539c1.76 0 2.817 0.93825 3.2864 2.4636h-6.4536c0.46934-1.5254 1.6418-2.4636 3.1673-2.4636z"/>
   <path d="m61.232 200.15v47.052h47.052v-47.052zm39.309 13.024c1.4081 0 2.4636 1.173 2.4636 2.4637 0 1.2907-1.0556 2.4658-2.4636 2.4658-1.4081 0-2.4636-1.1752-2.4636-2.4658 0-1.4081 1.173-2.4637 2.4636-2.4637zm-33.911 1.2903h7.1572c3.6375 0 6.4535 1.761 6.4535 5.6331 0 2.5814-1.4062 4.694-3.9876 5.1633l5.7477 7.5101h-5.9837v0.11708l-4.5766-7.0403v7.0403h-4.8104zm4.8104 3.7562v4.5766h0.46981c1.5254 0 3.2864-0.2346 3.2864-2.3467 0-1.9947-1.761-2.2298-3.2864-2.2298zm16.076 1.6432c1.4081 0 2.9321 0.58487 3.8708 1.6409v-1.1734h4.4597v12.556h-4.5766v-1.4094c-0.82136 1.2907-2.3458 1.7601-3.7539 1.7601-3.7548 0-6.3366-3.0499-6.3366-6.6874s2.5818-6.6874 6.3366-6.6874zm10.794 0.58668h4.4597v12.437h-4.4597zm-9.7379 3.401c-1.7601 0-2.8166 1.2912-2.8166 2.8166 0 1.6428 1.0565 2.8166 2.8166 2.8166 1.7601 0 2.8142-1.1739 2.8142-2.8166 0.11734-1.5254-0.93685-2.8166-2.8142-2.8166z"/>
  </g>
  <path d="m196.2 220.52h2.7801v4.852h5.1176v-4.852h2.7801v12.644h-2.7801v-5.4541h-5.1176v5.4541h-2.7801z" stroke-width=".047153"/>
  <path d="m208.79 220.52h5.4541c3.276 0 5.7374 2.0541 5.7374 6.2509 0 3.6656-1.877 6.3926-5.7374 6.3926h-5.4541zm2.7802 10.306h2.4791c1.6114 0 3.152-0.99163 3.152-3.7895 0-2.55-0.88541-4.1791-3.6479-4.1791h-1.9833z" stroke-width=".047153"/>
 </g>
</svg>
