<svg width="600" height="216.17" version="1.1" viewBox="0 0 158.75 57.194633" xmlns="http://www.w3.org/2000/svg">
 <g transform="translate(-26.458 -210.95)" fill="#b70022">
  <polygon transform="matrix(1.4263 0 0 1.4263 26.458 210.95)" points="57.6 12.2 64.5 12.2 64.5 15.5 63 15.5 63 24.8 64.5 24.8 64.5 28.1 58.1 28.1 58.1 24.8 59.5 24.8 59.5 16.5 55.9 28.1 53.4 28.1 49.8 16.3 49.8 24.8 51.1 24.8 51.1 28.1 44.7 28.1 44.7 24.8 46.3 24.8 46.3 15.5 44.7 15.5 44.7 12.2 51.8 12.2 54.7 22.6"/>
  <path d="m128.72 233.06c-2.5674 0-4.991 0.99902-6.7026 2.7106-1.7116 1.7116-2.7105 3.9931-2.7105 6.5605 0 2.5674 0.99897 4.8489 2.7105 6.5605 1.8542 1.8542 4.1352 2.7106 6.7026 2.7106 2.5674 0 4.9938-0.99897 6.7053-2.7106 1.8542-1.7116 2.7105-3.9931 2.7105-6.5605 0-2.5674-0.99896-4.8489-2.7105-6.5605-1.8542-1.7116-4.138-2.7106-6.7053-2.7106zm0 4.9922c2.1394 0 3.9948 1.8542 3.9948 4.2789 0 2.4247-1.7127 4.2789-3.9948 4.2789-2.2821 0-4.1341-1.8542-4.1341-4.2789 0-2.4248 1.852-4.2789 4.1341-4.2789z"/>
  <polygon transform="matrix(1.4263 0 0 1.4263 26.458 210.95)" points="83.9 19.1 82.9 19.1 84.5 23.9 86.1 19.1 85.1 19.1 85.1 15.8 90.7 15.8 90.7 19.1 89.6 19.1 86.2 28.1 82.6 28.1 79.2 19.1 78.2 19.1 78.2 15.8 83.9 15.8"/>
  <path d="m159.39 238.19h-2.1395v-4.5642h7.1316v12.837h2.1394v4.5642h-9.4137v-4.5642h2.1395v-8.2727z"/>
  <path d="m159.39 228.35h4.9921v4.279h-4.9921z"/>
  <path d="m175.79 232.92c-2.5674 0-4.991 0.99896-6.7026 2.7105-1.8542 1.7116-2.7106 3.9931-2.7106 6.5605 0 2.5674 0.85633 4.8489 2.7106 6.5605 1.8542 1.8542 3.9926 2.7106 6.7026 2.7106 3.851 0 7.1315-1.9968 8.5579-5.7052h-5.9894c-0.71315 0.71315-1.57 0.9973-2.5684 0.9973-1.8542 0-3.28-0.99676-3.7079-2.5657h12.979c0.14285-0.71315 0.14501-1.4269 0.14501-1.9974 0-1.9969-0.57277-3.5652-1.5712-5.1342-1.7116-2.5674-4.5642-4.1368-7.8447-4.1368zm0 4.5631c2.1394 0 3.4242 1.1405 3.9948 2.9947h-7.8447c0.57051-1.8542 1.9957-2.9947 3.85-2.9947z"/>
  <path d="m26.458 210.95v57.195h57.195v-57.195zm47.782 15.832c1.7116 0 2.9947 1.4258 2.9947 2.9948 0 1.5689-1.2831 2.9974-2.9947 2.9974-1.7116 0-2.9947-1.4285-2.9947-2.9974 0-1.7116 1.4258-2.9948 2.9947-2.9948zm-41.221 1.5684h8.7c4.4216 0 7.8447 2.1406 7.8447 6.8474 0 3.1379-1.7093 5.7058-4.8472 6.2763l6.9867 9.129h-7.2736v0.14232l-5.5632-8.5579v8.5579h-5.8473zm5.8473 4.5659v5.5632h0.57108c1.8542 0 3.9948-0.28517 3.9948-2.8526 0-2.4247-2.1406-2.7105-3.9948-2.7105zm19.542 1.9974c1.7116 0 3.5641 0.71094 4.7052 1.9946v-1.4263h5.4211v15.263h-5.5632v-1.7132c-0.99842 1.5689-2.8515 2.1395-4.5631 2.1395-4.5642 0-7.7026-3.7073-7.7026-8.1289 0-4.4216 3.1384-8.1289 7.7026-8.1289zm13.121 0.71315h5.4211v15.118h-5.4211zm-11.837 4.1341c-2.1395 0-3.4237 1.5695-3.4237 3.4237 0 1.9969 1.2842 3.4238 3.4237 3.4238s3.4209-1.4269 3.4209-3.4238c0.14264-1.8542-1.1388-3.4237-3.4209-3.4237z"/>
 </g>
</svg>
