<svg xmlns="http://www.w3.org/2000/svg" height="141.07" width="600" version="1.1" viewBox="0 0 480 112.84929">
 <g fill="#dc513a" transform="matrix(2.0971 0 0 2.0971 86.998 369.8)">
  <g stroke-width=".36790">
   <path d="m89.413-153.88c2.0825-0.24724 4.2238 0.0622 6.1628 0.85654-0.58132 1.1119-1.1737 2.2179-1.7513 3.3301-1.0192-0.51142-2.1745-0.85102-3.3224-0.69759-0.35689 0.0526-0.75057 0.2042-0.9235 0.5449-0.13981 0.28772-0.16557 0.67257 0.05887 0.92865 0.18028 0.21156 0.44151 0.34732 0.70642 0.4279 0.84991 0.24982 1.7403 0.35063 2.5792 0.64166 0.76161 0.25424 1.5048 0.63357 2.0494 1.2373 0.57397 0.61481 0.91614 1.4257 1.0008 2.258 0.1067 1.078-0.07358 2.205-0.63284 3.1465-0.65859 1.1185-1.7661 1.9316-2.9802 2.3658-0.99708 0.35689-2.0604 0.50038-3.1127 0.5151-2.1413 0.0552-4.2569-0.59236-6.0818-1.677 0.62548-1.2153 1.2546-2.4302 1.8801-3.6447 1.0118 0.66043 2.1303 1.2083 3.3371 1.3989 0.4967 0.0725 1.0044 0.096 1.5011-0.004 0.33849-0.0703 0.68802-0.24651 0.8352-0.5747 0.14717-0.33886 0.13613-0.76713-0.09934-1.0637-0.195-0.24909-0.4967-0.38154-0.79104-0.47499-0.83887-0.26565-1.7109-0.40178-2.5608-0.63762-0.85359-0.21303-1.6741-0.64792-2.2333-1.336-0.5151-0.62658-0.72482-1.4485-0.74321-2.2462-0.03679-0.95551 0.19132-1.9279 0.70274-2.7429 0.4268-0.69465 1.0228-1.2922 1.7329-1.7039 0.8168-0.48052 1.7477-0.73659 2.6859-0.84844z"/>
   <path d="m-41.484-176.34v53.813h53.371v-53.813c-17.792-0.001-35.582-0.00057-53.371-0.00057zm45.866 14.989c0.5424 0.0122 1.0811 0.1792 1.5309 0.48578 0.6917 0.45991 1.1663 1.2258 1.2693 2.0489 0.1067 0.78994-0.13648 1.6173-0.6479 2.2277-0.5151 0.62732-1.3059 1.0276-2.119 1.0486-0.72482 0.0287-1.4531-0.24262-1.9903-0.72608-0.61444-0.53901-0.98248-1.344-0.98248-2.1604-0.00736-0.78222 0.31975-1.5575 0.879-2.1024 0.41208-0.4062 0.94971-0.68566 1.52-0.78242 0.17844-0.0309 0.35959-0.0437 0.54039-0.0397zm-40.678 1.6511h7.5327c0.62327 0.001 1.2458-0.005 1.8672 0.0552 1.6248 0.14497 3.2854 0.66705 4.4881 1.812 1.01 0.94558 1.5806 2.2915 1.7385 3.6517 0.15232 1.2443 0.05519 2.533-0.40472 3.7063-0.40398 1.0449-1.1163 1.9875-2.0512 2.6123-0.64019 0.436-1.376 0.70973-2.134 0.85543 2.2234 2.9412 4.4596 5.8639 6.6871 8.8004-2.2992 0.004-4.5993 0-6.8981 0-1.7193-2.7182-3.4421-5.4353-5.1596-8.1565-0.03201-0.0508-0.07101-0.0946-0.11958-0.12878-0.01177 2.7617 0.0037 5.5251 0 8.2853-1.8466 0.004-3.7002 0.004-5.5465 0zm5.5465 4.2772v5.362c0.75646 0.004 1.5201 0.0114 2.2622-0.15637 0.52062-0.11811 1.0434-0.32415 1.4349-0.69906 0.39846-0.37051 0.61039-0.90069 0.66227-1.4349 0.06328-0.64167-0.01656-1.3398-0.38632-1.8851-0.32194-0.47977-0.84476-0.77669-1.3889-0.93821-0.8374-0.25129-1.7184-0.2524-2.5841-0.24835zm19.8 2.111c0.40203 0.01 0.80291 0.0546 1.1981 0.13108 1.209 0.24173 2.3809 0.82048 3.1826 1.7752v-1.4257c1.7142-0.002 3.4278 0.001 5.1424 0v14.625h-5.1424c-0.00442-0.54821 0-1.1001-0.00918-1.6465-0.12215 0.0806-0.17587 0.22141-0.26675 0.32884-0.63872 0.83151-1.5979 1.3618-2.6031 1.612-1.925 0.46727-4.0457 0.0584-5.6569-1.0969-1.3621-0.96102-2.3516-2.4109-2.8417-3.9989-0.6917-2.2241-0.44519-4.7358 0.73586-6.7509 0.748-1.2841 1.8913-2.3525 3.2556-2.9526 0.81717-0.36572 1.7079-0.5655 2.6031-0.59788 0.1342-0.005 0.2684-0.006 0.40242-0.002zm12.695 0.48406c1.7145-0.00074 3.4286-0.00074 5.1395 0v14.621c-1.7109 0.004-3.4249 0.004-5.1395 0zm-11.579 4.0254c-0.11185 0.003-0.22039 0.006-0.33113 0.0184-0.93638 0.0913-1.8404 0.60577-2.3363 1.416-0.52871 0.8385-0.63247 1.9007-0.38632 2.8514 0.18544 0.71857 0.631 1.3665 1.2602 1.7661 0.76308 0.49191 1.7182 0.60708 2.6031 0.4691 0.74064-0.11847 1.4522-0.48272 1.9224-1.0762 0.60487-0.74762 0.79599-1.7664 0.66169-2.7043-0.11332-0.80981-0.52225-1.5891-1.1768-2.088-0.62437-0.48419-1.4331-0.67641-2.2168-0.6525z"/>
   <path d="m105.42-160.79c1.2436-0.29435 2.5424-0.35174 3.8117-0.18875 1.1332 0.15048 2.2407 0.53092 3.2083 1.1476 1.3981 0.89444 2.5424 2.2219 3.1016 3.7926 0.43783 1.2219 0.53717 2.5497 0.38632 3.8342-0.1251 1.0181-0.45255 2.0118-0.97133 2.8963-0.51878 0.9062-1.2178 1.6954-1.9647 2.418-1.2694 1.1763-2.5387 2.3551-3.8044 3.5325 2.3437-0.002 4.6837-0.00074 7.0274-0.00074v4.7566c-5.6992 0-11.398 0-17.098-0.004 0.0074-0.0846-0.02208-0.19133 0.05519-0.25019 1.744-1.8165 3.4843-3.6307 5.2282-5.4457 0.73218-0.78773 1.4938-1.5508 2.1781-2.3812 1.17-1.418 2.318-2.8882 3.0722-4.5781 0.39736-0.90327 0.6917-1.9129 0.48566-2.903-0.13613-0.64866-0.51878-1.2355-1.0339-1.6461-0.94926-0.76345-2.5387-0.58353-3.2304 0.43783-0.51877 0.75462-0.56293 1.744-0.38264 2.6156-2.0567 0.00074-4.1134 0-6.1738 0-0.0074-1.6178 0.33849-3.2753 1.2215-4.6499 1.1001-1.7131 2.9103-2.9206 4.8824-3.3838z"/>
   <path d="m125.41-161.09c-2.6601 4.6289-5.3017 9.2712-7.9582 13.903v0.00058c-0.0515 0.096-0.13257 0.18815-0.11786 0.307v3.6488c3.3923 0.001 6.7844-0.00059 10.177 0.00059v4.6117c1.6851 0.004 3.3739-0.00023 5.059 0.003v-4.6152c0.84991-0.00058 1.7037 0.00016 2.5536-0.00058v-4.4801c-0.84991-0.00073-1.7037 0.00068-2.5536-0.001v-13.374c-2.3878-0.003-4.7718 0.006-7.1596-0.004zm2.1006 4.7474v8.6308c-1.6435 0.001-3.2865 0.00042-4.9337 0.001 1.6446-2.8779 3.289-5.7555 4.9337-8.6319z"/>
   <path d="m15.062-160.3c1.939 0.00073 3.878-0.002 5.8169 0.001 3.5615 4.5156 7.1268 9.0289 10.692 13.543v-13.544c1.939-0.00074 3.8743-0.00074 5.8133 0v22.144c-1.939 0-3.8743-0.004-5.8133 0-3.5652-4.5211-7.1304-9.0418-10.696-13.562v13.562c-1.939 0-3.8743-0.004-5.8133 0z"/>
   <path d="m47.047-154.21c-0.43466-0.007-0.87003 0.0102-1.3033 0.0443-1.2841 0.11295-2.5718 0.4565-3.6793 1.1475-1.5821 0.98568-2.7114 2.6435-3.1492 4.464-0.32746 1.3657-0.36413 2.8061-0.1029 4.1869 0.33481 1.7484 1.3206 3.3584 2.7261 4.4324 0.71378 0.54784 1.5305 0.94856 2.3841 1.2061 1.1884 0.36425 2.4396 0.47486 3.6758 0.43807 1.2436-0.0442 2.4944-0.27974 3.6166-0.83531 0.72114-0.35689 1.3872-0.83837 1.9391-1.4315 0.73586-0.8065 1.2067-1.8266 1.5194-2.8704-1.6778 0-3.3594-0.001-5.0372 0.00059-0.29434 0.47646-0.7024 0.89388-1.2101 1.136-0.59972 0.29471-1.2879 0.32019-1.9391 0.24145-0.50406-0.0603-1.012-0.21268-1.4315-0.51107-0.36425-0.25461-0.64353-0.62147-0.82381-1.0314-0.24283-0.55704-0.31308-1.1742-0.31676-1.7787 3.6535-0.00058 7.3107 0.00017 10.964-0.00058 0.01104-0.87825-0.0072-1.7622-0.17649-2.6261-0.32378-1.7443-1.1884-3.4207-2.5571-4.5542-0.84991-0.70495-1.8764-1.1688-2.9434-1.4102-0.70826-0.16188-1.4308-0.23685-2.1553-0.24777zm-0.14372 3.3441c0.79179-0.0344 1.6021 0.15618 2.1926 0.70366 0.4967 0.46138 0.77242 1.1134 0.92327 1.7684-1.9868 0.00073-3.9736 0.00073-5.9604 0 0.07727-0.45586 0.22432-0.90605 0.48923-1.2883 0.36793-0.5438 0.95293-0.92233 1.5821-1.0791h-0.0034c0.25111-0.0567 0.51274-0.0932 0.77667-0.10463z"/>
   <path d="m54.684-154c1.9463-0.00074 3.8927-0.00074 5.839 0 1.1847 2.7532 2.3547 5.5145 3.5505 8.2633 1.2362-2.7547 2.4762-5.5093 3.7124-8.2633 1.1001 0.002 2.1965-0.005 3.293 0.003 1.2289 2.8371 2.4651 5.6712 3.6977 8.5068 1.2399-2.8356 2.4835-5.669 3.7161-8.5057 1.9427-0.0107 3.8853-0.002 5.8316-0.004-2.5828 5.2323-5.1767 10.456-7.7486 15.691-1.1663 0.0184-2.3363 0.004-3.5063 0.011-1.2326-2.8709-2.4651-5.7415-3.7014-8.6117-1.1847 2.8695-2.3621 5.7419-3.5468 8.6117-1.1737-0.004-2.3511 0-3.5247-0.004-2.5387-5.2327-5.0774-10.465-7.6124-15.699z"/>
  </g>
  <path d="m144.75-161.09c0.00089 7.4916-0.00061 14.983 0 22.474h42.651v-22.472c-14.217-0.006-28.435-0.0003-42.651-0.002zm9.9768 5.6554c1.1163 0 2.2333 0.002 3.3504 0 0.002 1.6585 0.00029 3.3173 0.0009 4.9758 1.606-0.0006 3.2126 0.00091 4.8187-0.002-0.0009-1.6577 0.00061-3.3144 0-4.972 1.1237-0.002 2.2481-0.00017 3.3725-0.00091 0 4.2928-0.0006 8.5862 0 12.88-1.1237 0.004-2.248 0.00091-3.3716 0.002-0.00091-1.7687-0.00031-3.5377-0.00091-5.3072-1.606 0-3.2117 0.00061-4.8178 0-0.002 1.7688 0.0006 3.5386 0 5.3072-1.1182 0.0006-2.2348 0.0006-3.3522 0 0-4.2936-0.00059-8.5882 0-12.882zm14.23 0c1.2988 0.0009 2.5973 0.00014 3.8961 0.0009 0.78508 0.008 1.5814-0.0482 2.354 0.12922 1.3488 0.27367 2.5496 1.0698 3.4473 2.0972 0.7577 0.84919 1.2977 1.8999 1.4979 3.0234 0.27603 1.5294 0.024 3.1738-0.81821 4.4936-0.70059 1.0994-1.693 2.0326-2.8776 2.5885-0.78193 0.36751-1.6464 0.54399-2.5081 0.54947-1.664 0.0006-3.3275 0-4.9914 0-0.00061-4.2936-0.00061-8.5882 0-12.882zm3.3522 2.8443c0 2.3982-0.0009 4.7959 0.00091 7.1948 0.57863-0.006 1.1651 0.0295 1.7343-0.0988 0.85465-0.17209 1.647-0.6738 2.1286-1.4064 0.48951-0.73891 0.62284-1.6636 0.53841-2.5331-0.12349-1.2605-0.9311-2.5214-2.1665-2.9311-0.72798-0.18611-1.4882-0.21437-2.2357-0.22533z" stroke-width=".078193"/>
 </g>
</svg>
