<svg width="600" height="182.09" version="1.1" viewBox="0 0 158.75 48.178751" xmlns="http://www.w3.org/2000/svg">
 <g transform="translate(-26.458 -215.46)" fill="#595959">
  <path d="m26.458 215.46v48.179h48.179v-48.179zm40.952 13.369c0.72268 0 1.3244 0.12018 1.9267 0.72222 0.48179 0.48178 0.84454 1.0859 0.84454 1.929 0 0.84313-0.24232 1.3244-0.84454 1.9267-0.48179 0.48178-1.204 0.72218-1.9267 0.72218-0.60223 0-1.3249-0.24036-1.8067-0.72218-0.48179-0.60227-0.84218-1.0836-0.84218-1.9267 0-0.84309 0.36041-1.4472 0.84218-1.929 0.48179-0.60222 1.2045-0.72222 1.8067-0.72222zm-36.374 1.4468h7.5867c2.0476 0 3.493 0.48086 4.8179 1.4444 1.3249 0.96359 1.9267 2.4099 1.9267 4.578 0 1.3249-0.47991 2.648-1.0821 3.4911-0.84313 0.84314-1.9286 1.6881-3.2535 1.929l6.1423 7.949h-6.3823l-4.6979-7.3468v7.4668h-5.0578zm5.0578 3.9734v4.6979h0.36227c2.4089 0 3.6134-0.7236 3.6134-2.169 0-1.6863-1.2045-2.5289-3.6134-2.5289zm17.225 1.9267c1.6863 0 3.2521 0.60269 4.2156 1.6867v-1.3244h4.8179v13.249h-4.8179v-1.4444h-0.12232c-0.36132 0.60223-0.96169 1.0831-1.6844 1.4444-0.48179 0.24082-1.2049 0.48227-2.289 0.48227-1.8067 0-3.493-0.84404-4.8179-2.169-1.3249-1.2044-1.9267-2.8898-1.9267-5.0578-0.12045-1.8067 0.48179-3.493 1.8067-4.8179 1.3249-1.3249 2.7703-2.049 4.8179-2.049zm11.802 0.36237h4.6979v13.249h-4.6979zm-10.598 3.4934c-0.96357 0-1.4468 0.2399-2.049 0.84218-0.48179 0.48181-0.84219 1.3264-0.84219 2.049 0 1.084 0.36041 1.6844 0.84219 2.2866 0.60223 0.60223 1.0854 0.84455 2.049 0.84455 0.96358 0 1.5639-0.24219 2.2866-0.84455 0.60224-0.48177 0.72457-1.2026 0.72457-2.2866 0-0.60227-0.12232-1.4468-0.72457-2.049-0.60223-0.48178-1.2026-0.84218-2.2866-0.84218z"/>
  <path d="m79.335 250.15v-19.271h5.0588l7.2268 9.8766c0.12064 0.24082 0.36146 0.60223 0.72268 1.2045 0.36145 0.60222 0.72268 1.3249 1.084 2.168-0.12064-0.84314-0.24082-1.4454-0.24082-2.168 0-0.60223-0.12064-1.2045-0.12064-1.6862v-9.5153h5.0588v19.272h-5.0588l-7.2268-9.8766c-0.12064-0.24081-0.36145-0.60222-0.72268-1.2045-0.36146-0.60223-0.72268-1.3249-1.084-2.168 0.12064 0.84314 0.24082 1.5658 0.24082 2.168 0 0.60227 0.12064 1.2045 0.12064 1.6863v9.5153z"/>
  <path d="m108.36 236.66c-2.168 0-3.8548 0.72409-5.3001 2.049-1.325 1.4454-2.0467 3.1302-2.0467 5.1778s0.60132 3.7353 2.0467 5.0602c1.3249 1.3249 3.2516 1.9267 5.5401 1.9267 1.5658 0 2.8916-0.24218 3.9757-0.8445 1.084-0.60228 1.9276-1.4454 2.289-2.409l-3.4935-1.4444c-0.24081 0.48182-0.60268 0.96359-1.0844 1.2045-0.48182 0.24082-1.084 0.36237-1.8067 0.36237-0.96359 0-1.6849-0.24219-2.1666-0.84455-0.60223-0.60223-0.84455-1.4454-0.84455-2.409h9.998v-0.12018c0-2.409-0.60178-4.3351-1.9267-5.6601-1.2044-1.3249-3.0121-2.049-5.1801-2.049zm0 2.6513c0.72268 0 1.3249 0.24037 1.8067 0.72219 0.48177 0.48181 0.72173 1.084 0.84218 1.8067h-5.2978c0.12064-0.84313 0.36055-1.5654 0.84218-1.9267 0.48177-0.36145 1.084-0.60223 1.8067-0.60223z"/>
  <path d="m128.84 236.9 1.9272 5.9019v0.12064c0.24082 0.84313 0.48177 1.4454 0.60222 1.9271 0-0.24081 0.12064-0.60222 0.24082-0.84313 0.12064-0.36146 0.24082-0.72268 0.36146-1.2045l2.0476-5.9019h4.8179l-5.5405 13.249h-3.2521l-1.9271-6.0224c-0.12064-0.36145-0.24082-0.72268-0.24082-1.084-0.12063-0.36145-0.12063-0.72268-0.24082-1.084-0.12063 0.48182-0.24081 1.2045-0.48177 1.9272v0.12064l-1.9272 6.0224h-3.6134l-5.5405-13.249h4.8179l1.9272 5.9019c0.12064 0.48182 0.24082 0.84313 0.36146 1.084 0.12063 0.36146 0.12063 0.60223 0.24081 0.96355 0.12064-0.48178 0.24082-1.084 0.48178-1.8067 0-0.12064 0.12063-0.24082 0.12063-0.24082l1.9271-5.9019h2.8907z"/>
  <path d="m138.71 249.06 0.96355-3.6134c0.72268 0.60227 1.4454 1.084 2.2885 1.325 0.84313 0.36146 1.6863 0.48178 2.5294 0.48178 0.60222 0 1.084-0.12064 1.3249-0.24082 0.36145-0.24082 0.48177-0.48177 0.48177-0.84314 0-0.60223-0.60223-0.96354-1.8067-1.3249-0.36146-0.12063-0.72268-0.12063-0.96359-0.24081-1.4454-0.36146-2.409-0.84314-3.0112-1.5658-0.60223-0.60223-0.96359-1.4454-0.96359-2.409 0-1.3249 0.48181-2.2885 1.4454-3.1316 0.96359-0.72268 2.2885-1.2045 3.9748-1.2045 0.84314 0 1.6863 0.12064 2.6498 0.24082 0.84313 0.24082 1.8067 0.48178 2.6499 0.96355l-0.96359 3.2521c-0.60223-0.36146-1.2045-0.72268-1.9271-0.96359-0.72268-0.24082-1.325-0.36146-1.9272-0.36146-0.48177 0-0.96354 0.12064-1.2044 0.24082-0.24082 0.12064-0.36146 0.36145-0.36146 0.72268 0 0.48182 0.60223 0.84314 1.8067 1.2045 0.24082 0.12064 0.48182 0.12064 0.60228 0.12064 1.5658 0.48177 2.7703 0.96354 3.3725 1.6862 0.60222 0.60223 0.96359 1.4454 0.96359 2.5294 0 1.3249-0.48182 2.4089-1.5658 3.252-1.084 0.84313-2.409 1.2045-4.0952 1.2045-1.2044 0-2.2884-0.12064-3.252-0.36146s-2.168-0.36145-3.0112-0.96359z"/>
  <path d="m167.5 250.15h-14.695l8.6722-10.238c0.48177-0.60223 0.96359-1.2045 1.2045-1.6863 0.24081-0.48177 0.36145-0.96354 0.36145-1.4454 0-0.72268-0.24082-1.2044-0.60223-1.6862-0.36145-0.48181-0.96354-0.60222-1.6862-0.60222-0.84314 0-1.4454 0.24081-1.9272 0.84309-0.48177 0.48182-0.60222 1.325-0.60222 2.2885v0.24081h-4.577v-0.12063c0-2.168 0.60227-3.8543 1.9272-5.1792 1.3249-1.2044 3.0112-1.9271 5.1792-1.9271 2.168 0 3.8543 0.60222 5.1792 1.6863 1.325 1.084 1.9272 2.6498 1.9272 4.4565 0 0.84313-0.24082 1.8067-0.60223 2.6499-0.36145 0.84314-1.084 1.8067-2.0476 2.7703l-3.493 3.8543h5.9019v4.0952z"/>
  <path d="m177.02 231.12-7.2268 10.96v3.7334h8.7936v4.4577h4.4556v-4.3356h2.169v-3.7357h-2.169v-11.08zm1.6867 3.2511c-0.12063 0.24081-0.12018 0.48323-0.12018 0.84454v6.8646h-4.6979l3.4934-5.4201c0.24082-0.36145 0.48132-0.84314 0.72223-1.2044 0.24082-0.36146 0.48177-0.72314 0.60223-1.0845z"/>
 </g>
</svg>
