<svg xmlns="http://www.w3.org/2000/svg" height="182.83" width="600" version="1.1" viewBox="0 0 480 146.25464">
 <g stroke-width=".99992" fill="#dc513a">
  <path d="m355.77 61.044c5.66-0.67198 11.48 0.16906 16.75 2.328-1.58 3.022-3.19 6.028-4.76 9.051-2.77-1.39-5.91-2.313-9.03-1.896-0.96999 0.14296-2.04 0.555-2.51 1.481-0.38 0.782-0.45 1.828 0.16001 2.524 0.49 0.575 1.2 0.94399 1.92 1.163 2.31 0.67899 4.73 0.95299 7.01 1.744 2.07 0.69101 4.09 1.722 5.57 3.363 1.56 1.671 2.49 3.875 2.72 6.137 0.29 2.93-0.19999 5.993-1.72 8.552-1.79 3.04-4.8 5.25-8.1 6.43-2.71 0.97-5.6 1.36-8.46 1.4-5.82 0.15003-11.57-1.61-16.53-4.558 1.7-3.303 3.41-6.605 5.11-9.906 2.75 1.795 5.79 3.284 9.07 3.802 1.35 0.19705 2.73 0.26092 4.08-0.01089 0.92001-0.19107 1.87-0.67 2.27-1.562 0.4-0.921 0.37-2.085-0.27-2.891-0.53-0.67701-1.35-1.037-2.15-1.291-2.28-0.72202-4.65-1.092-6.96-1.733-2.32-0.579-4.55-1.761-6.07-3.631-1.4-1.703-1.97-3.937-2.02-6.105-0.0999-2.597 0.52-5.24 1.91-7.455 1.16-1.888 2.78-3.512 4.71-4.631 2.22-1.306 4.75-2.002 7.3-2.306z"/>
  <path d="m0-0.0022989v146.26h145.06v-146.26c-48.359-0.0034499-96.709-0.0022499-145.06-0.0022499zm124.66 40.739c1.4742 0.03317 2.9384 0.48705 4.1609 1.3203 1.88 1.25 3.17 3.3317 3.45 5.5687 0.29 2.147-0.37093 4.3957-1.7609 6.0547-1.4 1.705-3.5494 2.793-5.7594 2.85-1.97 0.07801-3.9494-0.65942-5.4094-1.9734-1.67-1.465-2.6703-3.6529-2.6703-5.8719-0.02-2.126 0.86907-4.2331 2.3891-5.7141 1.12-1.104 2.5812-1.8636 4.1312-2.1266 0.485-0.08398 0.97734-0.11877 1.4688-0.10791zm-110.56 4.487h20.473c1.694 0.0027 3.386-0.01359 5.075 0.15003 4.416 0.39402 8.9294 1.813 12.198 4.925 2.745 2.57 4.296 6.228 4.725 9.925 0.414 3.382 0.15 6.8845-1.1 10.073-1.098 2.84-3.034 5.402-5.575 7.1-1.74 1.185-3.74 1.929-5.8 2.325 6.043 7.994 12.121 15.938 18.175 23.919-6.249 0.0109-12.5 0-18.748 0-4.673-7.388-9.3554-14.773-14.023-22.169-0.087-0.13807-0.193-0.25712-0.325-0.35001-0.03198 7.506 0.01011 15.017 0 22.519-5.019 0.0109-10.057 0.0109-15.075 0zm15.075 11.625v14.573c2.056 0.01089 4.1314 0.03099 6.1484-0.425 1.415-0.32102 2.836-0.88102 3.9-1.9 1.083-1.007 1.659-2.448 1.8-3.9 0.17199-1.744-0.04501-3.6415-1.05-5.1235-0.875-1.304-2.296-2.111-3.775-2.55-2.276-0.68299-4.6704-0.686-7.0234-0.675zm53.814 5.7375c1.0927 0.02718 2.1822 0.1484 3.2562 0.35626 3.286 0.657 6.471 2.23 8.65 4.825v-3.874c4.659-0.0054 9.3166 0.0027 13.977 0v39.748h-13.976c-0.01205-1.49 0-2.99-0.02495-4.475-0.332 0.21906-0.478 0.60178-0.725 0.89376-1.736 2.26-4.343 3.7012-7.075 4.3812-5.232 1.27-10.996 0.15873-15.375-2.9813-3.702-2.612-6.3914-6.5527-7.7234-10.869-1.88-6.045-1.21-12.871 2-18.348 2.033-3.49 5.1404-6.394 8.8484-8.025 2.221-0.994 4.642-1.537 7.075-1.625 0.36475-0.0136 0.72951-0.0163 1.0938-0.0054zm34.503 1.3156c4.66-0.0021 9.3188-0.0021 13.969 0v39.739c-4.65 0.0109-9.3088 0.0109-13.969 0zm-31.471 10.941c-0.304 0.0082-0.599 0.0163-0.9 0.05001-2.545 0.24815-5.002 1.6464-6.35 3.8484-1.437 2.279-1.719 5.166-1.05 7.75 0.504 1.953 1.715 3.714 3.425 4.8 2.074 1.337 4.67 1.65 7.075 1.275 2.013-0.32199 3.947-1.312 5.225-2.925 1.644-2.032 2.1634-4.801 1.7984-7.35-0.308-2.201-1.4194-4.319-3.1984-5.675-1.697-1.316-3.895-1.8384-6.025-1.7734z"/>
  <path d="m399.27 42.255c3.38-0.80002 6.91-0.956 10.36-0.51301 3.08 0.40899 6.09 1.443 8.72 3.119 3.8 2.431 6.91 6.039 8.43 10.308 1.19 3.321 1.46 6.93 1.05 10.421-0.34001 2.767-1.23 5.468-2.64 7.872-1.41 2.463-3.31 4.608-5.34 6.572-3.45 3.197-6.9 6.401-10.34 9.601 6.37-0.0054 12.73-0.0021 19.1-0.0021v12.928c-15.49 0-30.98 0-46.47-0.0109 0.0201-0.22994-0.06-0.52002 0.15001-0.68 4.74-4.937 9.47-9.868 14.21-14.801 1.99-2.141 4.06-4.215 5.92-6.472 3.18-3.854 6.3-7.85 8.35-12.443 1.08-2.455 1.88-5.199 1.32-7.89-0.36999-1.763-1.41-3.358-2.81-4.474-2.58-2.075-6.9-1.586-8.78 1.19-1.41 2.051-1.53 4.74-1.04 7.109-5.59 0.0021-11.18 0-16.78 0-0.0201-4.397 0.92001-8.902 3.32-12.638 2.99-4.655 7.91-7.937 13.27-9.196z"/>
  <path d="m453.6 41.424c-7.23 12.581-14.41 25.199-21.63 37.788v0.0016c-0.13997 0.26092-0.36031 0.51138-0.32033 0.8344v9.9172c9.22 0.0027 18.439-0.0016 27.659 0.0016v12.534c4.58 0.0109 9.17-0.00063 13.75 0.008v-12.545c2.31-0.0016 4.6306 0.000434 6.9406-0.0016v-12.176c-2.31-0.0019-4.6306 0.0018-6.9406-0.0027v-36.35c-6.49-0.0082-12.969 0.0163-19.459-0.01089zm5.7094 12.903v23.458c-4.4669 0.0027-8.9325 0.0011-13.409 0.0027 4.47-7.822 8.9394-15.643 13.409-23.461z"/>
  <path d="m153.69 43.585c5.27 0.0019 10.54-0.0054 15.81 0.0027 9.68 12.273 19.37 24.54 29.06 36.808v-36.811c5.27-0.0021 10.53-0.0021 15.8 0v60.185c-5.27 0-10.53-0.0109-15.8 0-9.69-12.288-19.38-24.575-29.07-36.86v36.86c-5.27 0-10.53-0.0109-15.8 0z"/>
  <path d="m240.62 60.124c-1.1814-0.01903-2.3647 0.02772-3.5422 0.1204-3.49 0.30699-6.99 1.2407-10 3.1187-4.3 2.679-7.3694 7.1848-8.5594 12.133-0.89 3.712-0.98969 7.6267-0.27969 11.38 0.91 4.752 3.5894 9.1279 7.4094 12.047 1.94 1.489 4.1597 2.5781 6.4797 3.2781 3.23 0.99 6.6306 1.2906 9.9906 1.1906 3.38-0.12013 6.7797-0.76031 9.8297-2.2703 1.96-0.97 3.7703-2.2786 5.2703-3.8906 2-2.192 3.2797-4.9646 4.1297-7.8016-4.56 0-9.1306-0.0027-13.691 0.0016-0.79999 1.295-1.9091 2.4295-3.2891 3.0875-1.63 0.801-3.5003 0.87025-5.2703 0.65624-1.37-0.16389-2.7506-0.57805-3.8906-1.3891-0.98998-0.69201-1.749-1.6891-2.239-2.8031-0.66001-1.514-0.85094-3.1914-0.86094-4.8344 9.93-0.0016 19.87 0.000462 29.8-0.0016 0.0301-2.387-0.0196-4.7895-0.47969-7.1375-0.88-4.741-3.23-9.2971-6.95-12.378-2.31-1.916-5.1-3.1768-8-3.8328-1.925-0.43998-3.8889-0.64374-5.8578-0.67342zm-0.39063 9.0891c2.152-0.09349 4.3544 0.42449 5.9594 1.9125 1.35 1.254 2.0994 3.0262 2.5094 4.8062-5.4 0.0019-10.8 0.0019-16.2 0 0.21002-1.239 0.6097-2.4626 1.3297-3.5016 1-1.478 2.59-2.5068 4.3-2.9328h-0.009c0.68251-0.15411 1.3936-0.25331 2.1109-0.28438z"/>
  <path d="m261.38 60.694c5.29-0.0021 10.58-0.0021 15.87 0 3.22 7.483 6.4 14.988 9.65 22.459 3.36-7.487 6.73-14.974 10.09-22.459 2.99 0.0054 5.97-0.0136 8.95 0.0082 3.34 7.711 6.7 15.414 10.05 23.121 3.37-7.707 6.75-15.408 10.1-23.118 5.28-0.02908 10.56-0.0054 15.85-0.01089-7.02 14.221-14.07 28.42-21.06 42.648-3.17 0.05-6.35 0.0109-9.53 0.0299-3.35-7.801-6.7-15.603-10.06-23.404-3.22 7.799-6.42 15.606-9.64 23.404-3.19-0.0109-6.39 0-9.58-0.0109-6.9-14.222-13.8-28.443-20.69-42.669z"/>
 </g>
</svg>
