<svg width="600" height="182.85" version="1.1" viewBox="0 0 158.75 48.37951" xmlns="http://www.w3.org/2000/svg">
 <g transform="translate(-18.101 -126.77)" fill="#595959">
  <path d="m18.101 126.77c0 16.126-4.8e-5 32.253 0 48.379 15.993 0 31.985 1e-3 47.978 0-5.64e-4 -16.126-5.16e-4 -32.253-5.16e-4 -48.378-15.993-1e-3 -31.985-5.2e-4 -47.978-5.2e-4zm41.224 13.475c0.48779 0.0109 0.97237 0.16079 1.3761 0.43666 0.62024 0.41327 1.0492 1.102 1.141 1.8418 0.09527 0.71005-0.12242 1.454-0.58239 2.003-0.46409 0.56367-1.1723 0.92368-1.9048 0.94258-0.65199 0.0258-1.3052-0.21852-1.7901-0.65319-0.55082-0.48428-0.88104-1.2081-0.8816-1.942-0.0088-0.7031 0.28543-1.4002 0.78807-1.8898 0.3713-0.3652 0.85382-0.61652 1.3679-0.70331 0.16039-0.0278 0.32316-0.0393 0.48576-0.0357zm-36.549 1.4852c2.2547 0 4.5087-9e-5 6.7634 0 0.5602 9e-4 1.1223-9e-3 1.681 0.045 1.4608 0.1305 2.9547 0.60338 4.0359 1.633 0.90803 0.84998 1.4198 2.0568 1.5617 3.2794 0.13695 1.1191 0.04797 2.2803-0.36535 3.3352-0.36321 0.93929-0.99707 1.7824-1.8376 2.344-0.57558 0.39199-1.2411 0.63737-1.9224 0.76842 1.9987 2.6442 4.0125 5.2772 6.0151 7.9184-2.0671 5.6e-4 -4.134 0-6.2007 0-1.5456-2.4452-3.0948-4.8887-4.639-7.335-0.02877-0.0456-0.06486-0.0839-0.10852-0.11472-0.0104 2.4829-0.0017 4.9667-0.0047 7.4497-1.6598 5.6e-4 -3.3193 5.6e-4 -4.979 0zm4.979 3.7972v4.8162c0.68028 4e-3 1.3687 9e-3 2.0361-0.14159 0.46791-0.10624 0.93494-0.28941 1.2867-0.62632 0.35825-0.33295 0.55074-0.81212 0.59738-1.2924 0.05706-0.57707-0.01068-1.1975-0.34313-1.6878-0.28928-0.43119-0.76184-0.70418-1.2511-0.84956-0.75272-0.22582-1.5474-0.22159-2.326-0.21859zm17.774 1.9451c0.36206 7e-3 0.72321 0.0454 1.0785 0.11421 1.0866 0.21733 2.1413 0.74031 2.8618 1.5989v-1.2785c1.5412-2e-3 3.0817-9e-5 4.623-1e-3 0.0011 4.3828 5.18e-4 8.7652 5.18e-4 13.148-1.5412 0-3.0823 5.7e-4 -4.623 0-0.0029-0.49336 0.0043-0.98667-0.0041-1.4795-0.10966 0.0724-0.16013 0.19842-0.24185 0.29662-0.57409 0.74626-1.441 1.2226-2.3446 1.4469-1.7307 0.42121-3.6345 0.048-5.0829-0.98805-1.2244-0.86551-2.1158-2.165-2.5564-3.5926-0.62173-1.9995-0.39574-4.2614 0.66611-6.073 0.67234-1.1541 1.6957-2.1122 2.9223-2.6515 0.73467-0.32873 1.5338-0.50864 2.3384-0.53743 0.12068-4e-3 0.24156-5e-3 0.36225-3e-3zm11.433 0.43563c1.5407-3.7e-4 3.0809-3.7e-4 4.6214 0v13.145c-1.5405 5.6e-4 -3.0808 5.6e-4 -4.6214 0-5.61e-4 -4.382-5.61e-4 -8.7636 0-13.145zm-10.425 3.5672c-0.10061 3e-3 -0.20082 0.0102-0.30024 0.0212-0.84208 0.0824-1.6535 0.54024-2.0996 1.2686-0.47535 0.75376-0.57327 1.7092-0.35192 2.5637 0.16672 0.64594 0.56813 1.2345 1.1338 1.5937 0.68623 0.44207 1.5457 0.54521 2.3409 0.42116 0.66589-0.10658 1.3063-0.4376 1.7291-0.971 0.54382-0.67224 0.71692-1.5873 0.59634-2.4303-0.10231-0.72791-0.4731-1.4263-1.0614-1.8748-0.5615-0.43554-1.2827-0.61361-1.987-0.59221z"/>
  <path d="m70.608 141.19c1.7434 4.8e-4 3.4862-2e-3 5.2295 1e-3 3.2031 4.0595 6.4081 8.1168 9.6119 12.175 0.0011-4.0584 0-8.1168 7.5e-4 -12.176 1.7422-5.4e-4 3.4845-5.4e-4 5.2268 0v19.906c-1.7422 5.6e-4 -3.484-5.6e-4 -5.2262 5.6e-4 -3.2051-4.0636-6.409-8.1279-9.6152-12.191-0.0011 4.0637 0 8.1268 0 12.191-1.7422 5.6e-4 -3.4845-5.7e-4 -5.2268 0-0.0013-6.6353-7.5e-4 -13.271-7.5e-4 -19.906z"/>
  <path d="m99.36 147.08c-0.39066-6e-3 -0.78166 9e-3 -1.1705 0.0393-1.1568 0.10163-2.3141 0.41055-3.3083 1.032-1.4217 0.88615-2.4393 2.3764-2.8329 4.0132-0.29305 1.2276-0.3278 2.5222-0.09147 3.7636 0.30064 1.5719 1.1882 3.0192 2.4495 3.9848 0.64152 0.49088 1.3767 0.85158 2.1461 1.0847 1.0673 0.32622 2.1915 0.4259 3.3026 0.3943 1.1162-0.0395 2.2423-0.25193 3.2504-0.75293 0.64818-0.32104 1.2475-0.75266 1.7425-1.2857 0.66434-0.72504 1.0858-1.642 1.3674-2.5802-1.5095 0-3.0184-1e-3 -4.5274 5.1e-4 -0.26635 0.42836-0.63132 0.80327-1.0873 1.0206-0.53936 0.26523-1.1587 0.28866-1.7441 0.21756-0.45501-0.0542-0.90909-0.19111-1.2867-0.4594-0.32828-0.22904-0.58103-0.55921-0.74001-0.92759-0.21921-0.50095-0.28319-1.0553-0.28629-1.5989 3.2854-5.6e-4 6.5708 4e-5 9.8568-5.2e-4 9e-3 -0.78924-5e-3 -1.584-0.15813-2.3606-0.29245-1.5682-1.069-3.0756-2.2986-4.0948-0.76354-0.63364-1.6875-1.0508-2.6474-1.2676-0.63531-0.14565-1.2852-0.21239-1.9363-0.22221zm-0.12919 3.0055c0.71073-0.0309 1.4383 0.14081 1.9699 0.63304 0.44736 0.41456 0.6953 1.0008 0.82992 1.5896-1.7864 5.6e-4 -3.5725 5.6e-4 -5.3583 0 0.06957-0.41 0.2038-0.81444 0.44028-1.1581 0.33196-0.48895 0.85545-0.82947 1.4211-0.97049 0.2253-0.0509 0.4602-0.0838 0.69711-0.0941z"/>
  <path d="m105.28 147.54c1.6743-5.6e-4 3.349-5.6e-4 5.0233 0 1.0188 2.3681 2.0237 4.7431 3.051 7.107 1.0652-2.3691 2.1294-4.7383 3.1953-7.107 0.94351 1e-3 1.887-4e-3 2.831 3e-3 1.0582 2.4401 2.121 4.8777 3.1818 7.3162 1.0648-2.4386 2.1331-4.8756 3.1948-7.3152 1.6708-9e-3 3.3425-1e-3 5.0138-4e-3 -2.2188 4.4999-4.4502 8.9928-6.6625 13.496-1.0044 0.0159-2.0097 2e-3 -3.0147 7e-3 -1.0622-2.4677-2.1226-4.9365-3.1848-7.4048-1.0188 2.4677-2.0306 4.9381-3.0495 7.4053-1.0108-1e-3 -2.0217 0-3.0321-5.6e-4 -2.1824-4.5014-4.3659-9.0019-6.5473-13.503z"/>
  <path d="m134.97 147.46c1.8723-0.22215 3.7965 0.0561 5.538 0.77013-0.52199 0.99948-1.0528 1.9937-1.5737 2.9937-0.91527-0.45967-1.953-0.76508-2.9851-0.62729-0.32248 0.0473-0.67448 0.18354-0.82949 0.48994-0.12717 0.25861-0.1494 0.60466 0.0501 0.83494 0.16439 0.19019 0.3969 0.31205 0.63671 0.38455 0.76394 0.22457 1.5628 0.31518 2.3174 0.57682 0.68489 0.22869 1.3552 0.56957 1.8434 1.1126 0.51629 0.55265 0.82223 1.2817 0.8977 2.0296 0.0978 0.96911-0.0661 1.9824-0.56585 2.8287-0.59389 1.0056-1.5876 1.7367-2.6823 2.1264-0.89513 0.32144-1.8502 0.4498-2.7981 0.46379-1.9225 0.0484-3.8239-0.53256-5.4663-1.508 0.56337-1.0925 1.1277-2.1844 1.6916-3.2764 0.91011 0.59389 1.9142 1.0864 2.998 1.2575 0.44597 0.0652 0.90545 0.0863 1.3504-4e-3 0.30337-0.0632 0.6192-0.2216 0.75193-0.51668 0.13287-0.30437 0.12251-0.68951-0.0894-0.95621-0.1757-0.22364-0.44652-0.34292-0.71109-0.42677-0.75515-0.23897-1.5407-0.36138-2.3029-0.57325-0.76602-0.19173-1.5061-0.58248-2.0073-1.201-0.46458-0.56338-0.65269-1.3022-0.66882-2.0194-0.0346-0.85905 0.17159-1.7331 0.63051-2.4657 0.38604-0.62466 0.91939-1.1619 1.5578-1.532 0.73451-0.43198 1.5732-0.66227 2.4167-0.76254z"/>
  <path d="m150.16 141.45c1.1189-0.26461 2.2869-0.31637 3.4263-0.16974 1.02 0.13541 2.0163 0.47743 2.8855 1.0317 1.2547 0.80407 2.2834 1.9973 2.7872 3.4095 0.39462 1.0984 0.48438 2.2922 0.34698 3.4464-0.11174 0.91532-0.40593 1.8086-0.87339 2.604-0.46637 0.81479-1.0932 1.524-1.7662 2.1737-1.1409 1.0574-2.2797 2.1173-3.4201 3.1757 2.1065-1e-3 4.213-5.6e-4 6.3195-5.6e-4 5.6e-4 1.425 0 2.85 0 4.2751-5.1243 0-10.249 5.6e-4 -15.373-5.7e-4 8e-3 -0.0769-0.0199-0.17277 0.0512-0.22819 1.5663-1.6312 3.1326-3.2624 4.6984-4.894 0.65909-0.70811 1.3433-1.3943 1.9604-2.1409 1.0507-1.2748 2.0839-2.5962 2.7605-4.1156 0.35775-0.81171 0.62222-1.7193 0.4367-2.6096-0.12251-0.58302-0.46593-1.1107-0.93076-1.4799-0.85131-0.68608-2.2803-0.52457-2.9025 0.39383-0.46592 0.67844-0.50745 1.5676-0.34287 2.3512-1.8498 5.6e-4 -3.7 0-5.5497 0-9e-3 -1.4543 0.30243-2.9444 1.0958-4.1802 0.98821-1.54 2.6176-2.6256 4.3899-3.0419z"/>
  <path d="m168.12 141.2c-2.3923 4.1602-4.7673 8.3325-7.1551 12.495-0.0466 0.0865-0.11845 0.16969-0.10645 0.27647 0 1.093-5e-5 2.1858 5.1e-4 3.2789 3.0496 1e-3 6.0986-4.8e-4 9.1483 5.2e-4 -1e-3 1.3821 4.8e-4 2.7644-5.2e-4 4.1465 1.5153 2e-3 3.0312-5e-5 4.5465 5.2e-4 5.8e-4 -1.3826-5e-5 -2.7644 5.2e-4 -4.1465 0.76438-5.6e-4 1.5295-4.7e-4 2.295-1e-3v-4.0261c-0.76547-5.6e-4 -1.5306-3e-5 -2.2955-1e-3 5.7e-4 -4.0068 0-8.013 0-12.02-2.1447-3e-3 -4.2891 5e-3 -6.4332-4e-3zm1.8872 4.2669c0 2.5853-4.1e-4 5.171 5.2e-4 7.7566-1.4798 1e-3 -2.9591 4.6e-4 -4.438 1e-3 1.4783-2.5863 2.9577-5.1724 4.4374-7.7577z"/>
 </g>
</svg>
