<?xml version="1.0" encoding="UTF-8" standalone="no"?>
<svg xmlns="http://www.w3.org/2000/svg" height="127.89" width="600" version="1.1" viewBox="0 0 158.75 33.838158">
 <g transform="translate(114.9 -131.91)">
  <g transform="matrix(.59711 0 0 .59711 -154.03 12.562)">
   <g stroke-width=".094639">
    <path d="m279.76 216.56c17.208 0.002 34.415-0.003 51.622 0.003v27.198c-17.207 0-34.414 0.00088-51.622 0 0-9.0673 0.00096-18.134-0.00097-27.201" fill="#006060"/>
    <path d="m291.84 223.4c-0.002 5.2023 0 10.405 0 15.607 1.3524 0.002 2.7048 0.00088 4.0572 0.00088 0.003-2.1426-0.00097-4.2852 0.002-6.4279 1.9439 0.002 3.8868 0 5.8307 0.00088-0.00097 2.1426-0.00097 4.2843 0 6.426 1.3618 0 2.7237 0.003 4.0865-0.00088 0-5.2013 0.00096-10.404-0.00096-15.605-1.3628 0-2.7246-0.003-4.0865 0.00088 0.002 2.0092-0.00096 4.0174 0.00097 6.0256-1.9439 0.004-3.8878 0.00088-5.8316 0.002-0.00096-2.0101 0.002-4.0202-0.00096-6.0304-1.3524 0.002-2.7048 0.00087-4.0572 0.00087" fill="#fff"/>
    <path d="m309.06 223.4c-0.002 5.2023-0.00096 10.403 0 15.605 1.9846 0.002 3.9705 0.001 5.9551 0.002 0.92841-0.009 1.8616-0.15551 2.7285-0.5 1.5918-0.62934 2.924-1.8258 3.8496-3.2539 1.7054-2.6414 1.5058-6.355-0.48828-8.7891-1.1073-1.4025-2.6491-2.513-4.4141-2.8887-0.98518-0.23187-2.0007-0.16727-3.002-0.17579-1.5436 0-3.0863 0.00088-4.6289 0zm4.0606 3.4551c0.75427-0.009 1.5072 0.0544 2.2539 0.16797 1.3363 0.19779 2.3668 1.3183 2.8144 2.543 0.37477 1.0458 0.37503 2.2134 0.0391 3.2695-0.35679 1.1111-1.2632 2.0069-2.3516 2.4082-0.87636 0.34827-1.8322 0.31522-2.7559 0.3086-0.004-2.8997-0.00094-5.7985 0-8.6973z" fill="#fff"/>
   </g>
   <rect height="56.67" width="56.837" y="199.88" x="65.524" fill="#006060"/>
   <g fill="#fff">
    <path d="m81.505 230.41 7.0849 9.237h-7.2948l-5.5304-8.6696h-0.0593v8.6696h-5.8597v-22.54h8.759c2.2321 0.0201 4.0955 0.58314 5.5901 1.6891s2.242 2.8648 2.242 5.2763c-0.00001 1.5546-0.42348 2.9347-1.2704 4.1405-0.84694 1.2058-2.0674 1.9479-3.6615 2.2265zm-5.7995-8.8192v5.6207h0.56745c0.0997 0.0195 0.19948 0.0292 0.29924 0.0292 0.0997 0.00002 0.18944 0.00002 0.26912 0 0.87702-0.0395 1.6792-0.24372 2.4066-0.61261 0.7274-0.36886 1.0911-1.1013 1.0911-2.1973-0.00001-1.096-0.36371-1.8284-1.0911-2.1973-0.72742-0.36886-1.5296-0.57306-2.4066-0.61261-0.0797 0.00002-0.16939 0.00002-0.26912 0-0.0998 0.00002-0.1995 0.00002-0.29924 0l-0.56745-0.0301z"/>
    <path d="m106.82 224.31v15.336h-5.441v-1.7042h-0.0593c-0.43853 0.71768-1.0365 1.2509-1.794 1.5997-0.75753 0.3488-1.5447 0.54297-2.3615 0.58251-0.0797 0.0201-0.15936 0.0301-0.23903 0.0301h-0.23902c-2.2722 0-4.1308-0.8121-5.5755-2.4363-1.4448-1.6242-2.1672-3.5326-2.1672-5.7251 0-2.192 0.71236-4.1 2.1371-5.7242s3.2732-2.4363 5.5454-2.4363c0.0997 0.00001 0.19948 0.00001 0.29923 0 0.0997 0.00001 0.19918 0.01 0.29833 0.0292 0.77727 0.0602 1.5396 0.2547 2.2871 0.58342 0.74746 0.32874 1.3703 0.79204 1.8684 1.3899v-1.52h5.441zm-8.759 4.2148c-1.096 0.0201-1.9529 0.37391-2.5709 1.0615-0.61793 0.68758-0.9269 1.4997-0.92689 2.4363-0.00001 0.97678 0.30896 1.7939 0.92689 2.4514 0.61793 0.65747 1.4749 0.9862 2.5709 0.9862 1.116 0 1.978-0.32873 2.5859-0.9862 0.60789-0.65746 0.91184-1.4746 0.91185-2.4514-0.00001-0.93661-0.30396-1.7487-0.91185-2.4363-0.6079-0.68756-1.4699-1.0313-2.5859-1.0314z"/>
    <path d="m115.86 224.31v15.336h-5.441v-15.336zm-2.7205-8.9387c0.83687 0.0201 1.5542 0.32906 2.1521 0.9269 0.59786 0.59788 0.89679 1.3152 0.8968 2.1521-0.00001 0.83751-0.29894 1.5552-0.8968 2.153-0.59786 0.59788-1.3152 0.89682-2.1521 0.8968-0.83689 0.00002-1.5543-0.29892-2.1521-0.8968-0.59787-0.59784-0.8968-1.3155-0.8968-2.153 0-0.83687 0.29893-1.5542 0.8968-2.1521 0.59786-0.59784 1.3152-0.89677 2.1521-0.8968z"/>
   </g>
   <g fill="#006060">
    <path d="m129.87 239.65v-22.54h8.9688c2.431 0.0201 4.4038 0.61796 5.9186 1.7936 1.5147 1.1757 2.2721 3.059 2.2721 5.6499-0.00002 2.6506-0.69261 4.5887-2.0778 5.8145s-3.3532 1.8388-5.904 1.8388l-3.318-0.0301v7.4736zm5.8597-17.817v5.6207h0.9862c1.0564 0.0195 2.023-0.0853 2.8998-0.31429 0.87671-0.22897 1.3151-1.031 1.3151-2.4062-0.00001-1.4153-0.41846-2.2474-1.2553-2.4965-0.83689-0.24904-1.8234-0.37357-2.9595-0.37359z"/>
    <path d="m154.92 224.31v2.5116h0.0593c0.51818-0.91716 1.2108-1.595 2.0778-2.0335 0.86698-0.4385 1.8287-0.65775 2.8852-0.65777l1.0464-0.0292v5.2311c-0.0797-0.0201-0.15449-0.05-0.22442-0.0899-0.07-0.0398-0.14477-0.0698-0.22443-0.0899-0.29864-0.1192-0.59742-0.19872-0.89633-0.23857-0.29895-0.0398-0.6178-0.0597-0.95655-0.0597-1.515 0.00001-2.5216 0.44338-3.0197 1.3301-0.49812 0.88677-0.74718 1.9879-0.74717 3.3034v6.158h-5.441v-15.336h5.441z"/>
    <path d="m178.78 232.33v0.56745h-11.449c0 1.1161 0.28889 1.9681 0.86669 2.5563 0.57778 0.58813 1.4247 0.88219 2.5408 0.88219 0.57779 0 1.0811-0.10962 1.5099-0.32888 0.42877-0.21926 0.79247-0.57794 1.0911-1.0761l5.2311-0.0301c-0.43792 1.8337-1.4092 3.169-2.9139 4.0059-1.5047 0.83688-3.1341 1.2553-4.8881 1.2553-2.5313 0-4.6439-0.69259-6.3378-2.0778-1.6938-1.3852-2.5408-3.403-2.5408-6.0536 0-2.5508 0.79218-4.5536 2.3765-6.0084 1.5844-1.4548 3.6221-2.1822 6.1133-2.1822 2.6706 0.00001 4.7383 0.76726 6.2032 2.3017 1.4648 1.5345 2.1973 3.6072 2.1973 6.2182zm-11.36-2.5709h6.3077c-0.1393-0.71766-0.503-1.2958-1.0911-1.7343-0.58814-0.4385-1.2508-0.65775-1.9879-0.65777-0.79736 0.00002-1.495 0.20437-2.0928 0.61307-0.59787 0.40872-0.97647 1.0118-1.1358 1.8091z"/>
    <path d="m186.69 224.31v1.9131h0.0593c0.638-0.83687 1.3605-1.4446 2.1676-1.8232 0.80707-0.37859 1.699-0.5679 2.6758-0.56791 1.116 0.00001 2.1275 0.23417 3.0343 0.70247 0.90681 0.46833 1.6391 1.2106 2.1968 2.2269 0.51817-0.95669 1.2556-1.6841 2.2123-2.1822 0.95668-0.4981 1.9532-0.74716 2.9896-0.74717 1.9529 0.00001 3.313 0.56792 4.0803 1.7037 0.76722 1.1358 1.1508 2.5908 1.1509 4.3649v9.7452h-5.441v-7.324c-0.00002 0.00001-0.00002-0.01 0-0.0301-0.00002-0.0201-0.00002-0.0398 0-0.0593-0.00002-0.19948-0.00002-0.41889 0-0.65822-0.00002-0.23932-0.01-0.4785-0.0292-0.71753-0.0602-0.67752-0.23479-1.2953-0.52366-1.8533-0.28892-0.55801-0.85181-0.83702-1.6887-0.83703-1.0163 0.00001-1.689 0.32889-2.018 0.98665-0.32905 0.65778-0.51333 1.3753-0.55285 2.1526-0.0201 0.17942-0.0301 0.35869-0.0301 0.5378-0.00002 0.17912-0.00002 0.34866 0 0.50861v7.2938h-5.441v-7.324c-0.00001-0.19948-0.00001-0.41874 0-0.65777-0.00001-0.23901-0.01-0.48807-0.0292-0.74717-0.0602-0.71767-0.24967-1.3754-0.56836-1.9733-0.31871-0.59785-0.92661-0.89678-1.8237-0.89679-0.8965 0.00001-1.5042 0.29894-1.8232 0.89679-0.31901 0.59787-0.50831 1.2556-0.56791 1.9733-0.0201 0.2591-0.0301 0.50816-0.0301 0.74717v0.68788 7.2938h-5.441v-15.33h5.441z"/>
    <path d="m216.23 224.31v15.336h-5.441v-15.336zm-2.7205-8.9387c0.83688 0.0201 1.5542 0.32906 2.1521 0.9269 0.59785 0.59788 0.89679 1.3152 0.89679 2.1521 0 0.83751-0.29894 1.5552-0.89679 2.153-0.59787 0.59788-1.3152 0.89682-2.1521 0.8968-0.83688 0.00002-1.5543-0.29892-2.1521-0.8968-0.59786-0.59784-0.89679-1.3155-0.89679-2.153 0-0.83687 0.29893-1.5542 0.89679-2.1521 0.59786-0.59784 1.3152-0.89677 2.1521-0.8968z"/>
    <path d="m219.75 224.31h5.441v8.1906c-0.00001 0.99685 0.17424 1.8041 0.52275 2.4217 0.34849 0.61764 1.0808 0.92645 2.1968 0.92645s1.8485-0.30881 2.1973-0.92645c0.34879-0.61762 0.52319-1.4148 0.5232-2.3916v-8.2208h5.441v9.237c-0.00002 2.5514-0.78216 4.2904-2.3464 5.217-1.5643 0.9266-3.5026 1.3899-5.815 1.3899-2.2917 0-4.2247-0.46329-5.799-1.3899-1.5743-0.92659-2.3615-2.6556-2.3615-5.1869z"/>
    <path d="m244.96 224.31v1.9131h0.0593c0.638-0.83687 1.3605-1.4446 2.1676-1.8232 0.80707-0.37859 1.699-0.5679 2.6758-0.56791 1.116 0.00001 2.1275 0.23417 3.0343 0.70247 0.90681 0.46833 1.6391 1.2106 2.1968 2.2269 0.51817-0.95669 1.2556-1.6841 2.2123-2.1822 0.95668-0.4981 1.9532-0.74716 2.9896-0.74717 1.9529 0.00001 3.313 0.56792 4.0803 1.7037 0.76722 1.1358 1.1508 2.5908 1.1509 4.3649v9.7452h-5.441v-7.324c-0.00002 0.00001-0.00002-0.01 0-0.0301-0.00002-0.0201-0.00002-0.0398 0-0.0593-0.00002-0.19948-0.00002-0.41889 0-0.65822-0.00002-0.23932-0.01-0.4785-0.0292-0.71753-0.0602-0.67752-0.23479-1.2953-0.52366-1.8533-0.28892-0.55801-0.85181-0.83702-1.6887-0.83703-1.0163 0.00001-1.689 0.32889-2.018 0.98665-0.32905 0.65778-0.51333 1.3753-0.55285 2.1526-0.0201 0.17942-0.0301 0.35869-0.0301 0.5378-0.00002 0.17912-0.00002 0.34866 0 0.50861v7.2938h-5.441v-7.324c-0.00002-0.19948-0.00002-0.41874 0-0.65777-0.00002-0.23901-0.01-0.48807-0.0292-0.74717-0.0602-0.71767-0.24968-1.3754-0.56836-1.9733-0.31871-0.59785-0.92661-0.89678-1.8237-0.89679-0.8965 0.00001-1.5042 0.29894-1.8232 0.89679-0.31901 0.59787-0.50831 1.2556-0.5679 1.9733-0.0201 0.2591-0.0301 0.50816-0.0301 0.74717-0.00001 0.23903-0.00001 0.46832 0 0.68788v7.2938h-5.441v-15.33h5.441z"/>
   </g>
  </g>
 </g>
</svg>
