<svg width="600" height="172.44" version="1.1" viewBox="0 0 158.75 45.625858" xmlns="http://www.w3.org/2000/svg">
 <g transform="translate(-354.54 -241.7)" fill="#e21f26">
  <path d="m404.69 255.89v18.255h4.7454v-7.021h0.0484l4.4788 7.021h5.9072l-5.7376-7.4808c2.5906-0.46022 3.9948-2.639 3.9948-5.1569 0-3.8979-2.7358-5.617-6.3432-5.617zm4.7451 3.6317h0.45982c1.5494 0 3.2928 0.29066 3.2928 2.2758s-1.7434 2.2755-3.2928 2.2755h-0.45982z"/>
  <path d="m426.14 261.31c-3.68 0-6.222 3.0505-6.222 6.6095 0 3.559 2.5906 6.6337 6.2706 6.6337 1.4527 0 2.9779-0.55676 3.7526-1.7915h0.0484v1.3798h4.4062v-12.42h-4.4062v1.2105c-0.91995-1.0895-2.4211-1.6222-3.8497-1.6222zm1.1624 3.8255c1.7915 0 2.8324 1.2831 2.8324 2.8082 0 1.5737-1.0409 2.7843-2.8324 2.7843-1.7915 0-2.8327-1.2106-2.8327-2.7843 0-1.5253 1.0412-2.8084 2.8327-2.8082z"/>
  <path d="m446.43 254.05v8.8854c-0.91996-1.0895-2.4212-1.6222-3.8497-1.6222-3.68 0-6.2219 3.0508-6.2219 6.6098 0 3.559 2.5906 6.6337 6.2706 6.6337 1.4526 0 2.9779-0.55676 3.7526-1.7915h0.0484v1.3798h4.4062v-20.095zm-2.6873 11.089c1.7915 0 2.8324 1.2831 2.8324 2.8082 0 1.5737-1.0407 2.7843-2.8324 2.7843s-2.8327-1.2106-2.8327-2.7843c0-1.5253 1.0412-2.8082 2.8327-2.8082z"/>
  <path d="m458.03 256.96c0 1.3559-1.1136 2.4695-2.4694 2.4695-1.3559 0-2.4695-1.1136-2.4695-2.4695 0-1.3559 1.1136-2.4695 2.4695-2.4695 1.3559 0 2.4694 1.1136 2.4694 2.4695z"/>
  <path d="m457.76 274.14h-4.4064v-12.42h4.4064z"/>
  <path d="m466.98 261.31c-3.9946 0-7.4808 2.3968-7.4808 6.6337s3.5103 6.6095 7.4808 6.6095c3.9948 0 7.4811-2.3969 7.4811-6.6095 0-4.2369-3.4863-6.6337-7.4811-6.6337zm0 3.8255c1.7917 0 2.8327 1.2831 2.8327 2.8082 0 1.5737-1.041 2.7843-2.8327 2.7843-1.7916 0-2.8327-1.2106-2.8327-2.7843 0-1.5253 1.041-2.8082 2.8327-2.8082z"/>
  <path d="m354.54 241.77v45.493h45.493v-45.493zm38.81 12.711c1.3559 0 2.4693 1.1137 2.4693 2.4696 0 1.3559-1.1136 2.4696-2.4693 2.4696-1.3557 0-2.4696-1.1139-2.4696-2.4696 0-1.3557 1.1137-2.4696 2.4696-2.4696zm-34.595 1.4043h7.0935c3.6074 0 6.3432 1.7191 6.3432 5.617 0 2.5179-1.4042 4.6967-3.9948 5.1569l5.738 7.4808h-5.9076l-4.4788-7.021h-0.0484v7.021h-4.7451zm4.7451 3.6314v4.5517h0.46013c1.5494 0 3.2925-0.29051 3.2925-2.2755 0-1.9852-1.7431-2.2761-3.2925-2.2761zm16.704 1.7918c1.4286 0 2.9294 0.53273 3.8494 1.6222v-1.2105h4.4066v12.42h-4.4062v-1.3798h-0.0484c-0.7747 1.2348-2.2999 1.7915-3.7526 1.7915-3.68 0-6.2706-3.0747-6.2706-6.6337 0-3.5592 2.542-6.6095 6.2219-6.6095zm10.943 0.41177h4.4062v12.42h-4.4062zm-9.7802 3.4134c-1.7917-1.6e-4 -2.8327 1.2832-2.8327 2.8085 0 1.5737 1.0412 2.7843 2.8327 2.7843 1.7916 0 2.8324-1.2106 2.8324-2.7843 0-1.5251-1.0409-2.8085-2.8324-2.8085z"/>
  <path d="m513.29 277.66v9.6606h-35.267l17.924-19.496c2.5606-2.7934 5.0048-6.7507 5.0048-10.766 0-2.7934-1.9787-5.7033-5.0048-5.7033-3.0845 0-4.7722 2.386-4.7722 5.354 0 0.58197 0.0581 1.2222 0.17462 1.8623h-12.57c0.34925-10.068 6.7508-16.877 17.11-16.877 9.1951 0 16.935 6.0523 16.935 15.597 0 6.2852-2.6189 9.9516-7.1001 14.025l-6.8089 6.3433h14.374z"/>
 </g>
</svg>
