<svg width="600" height="108.68" version="1.1" viewBox="0 0 158.75 28.75454" xmlns="http://www.w3.org/2000/svg">
 <g transform="translate(-26.458 -134.46)" fill="#564099">
  <path d="m56.794 142.99v11.042h2.8705v-4.2472h0.02914l2.7093 4.2472h3.5734l-3.4711-4.5253c1.567-0.2783 2.4166-1.5965 2.4166-3.1195 0-2.3578-1.655-3.3976-3.837-3.3976zm2.8705 2.1968h0.27812c0.9371 0 1.9915 0.17571 1.9915 1.3766 0 1.201-1.0544 1.3767-1.9915 1.3767h-0.27812z"/>
  <path d="m69.769 146.27c-2.226 0-3.7635 1.8454-3.7635 3.9982 0 2.1528 1.567 4.0125 3.7929 4.0125 0.87868 0 1.8013-0.33643 2.2699-1.0834h0.02946v0.83468h2.6653v-7.5127h-2.6656v0.73205c-0.55658-0.65913-1.4646-0.98134-2.3285-0.98134zm0.70321 2.314c1.0838 0 1.7134 0.77616 1.7134 1.6988 0 0.95187-0.6296 1.6842-1.7134 1.6842-1.0836 0-1.7137-0.73237-1.7137-1.6842 0-0.9225 0.63006-1.6988 1.7137-1.6988z"/>
  <path d="m82.041 141.88v5.3746c-0.55658-0.65913-1.4649-0.98134-2.3289-0.98134-2.2261 0-3.7638 1.8454-3.7638 3.9982 0 2.1528 1.5674 4.0125 3.7933 4.0125 0.87868 0 1.8015-0.33643 2.2699-1.0834h0.02946v0.83468h2.665v-12.155zm-1.6256 6.7072c1.0836 0 1.7134 0.77616 1.7134 1.6988 0 0.95187-0.62975 1.6842-1.7134 1.6842-1.0836 0-1.7134-0.73237-1.7134-1.6842 0-0.9225 0.62976-1.6988 1.7134-1.6988z"/>
  <path d="m89.055 143.64c0 0.8201-0.67358 1.4937-1.4937 1.4937s-1.4938-0.67358-1.4938-1.4937 0.67373-1.4937 1.4938-1.4937 1.4937 0.67358 1.4937 1.4937z"/>
  <path d="m88.894 154.04h-2.6653v-7.5127h2.6653z"/>
  <path d="m94.474 146.28c-2.4165 0-4.5253 1.4496-4.5253 4.0125s2.1236 3.9982 4.5253 3.9982c2.4165 0 4.5253-1.4499 4.5253-3.9982 0-2.5629-2.1088-4.0125-4.5253-4.0125zm0 2.3137c1.0838 0 1.7134 0.77616 1.7134 1.6988 0 0.95187-0.6296 1.6842-1.7134 1.6842-1.0838 0-1.7134-0.73237-1.7134-1.6842 0-0.9225 0.62959-1.6988 1.7134-1.6988z"/>
  <path d="m135.37 146.7c-0.58579-0.79073-1.5378-1.2154-2.5189-1.2154-1.7574 0-2.9435 1.3473-2.9435 3.0607 0 1.7428 1.2008 3.0021 2.9874 3.0021 0.93726 0 1.8747-0.45386 2.4751-1.1716v3.4415c-0.95187 0.29305-1.6402 0.5126-2.5335 0.5126-1.5378 0-3.0021-0.58578-4.1446-1.6256-1.2152-1.0984-1.7718-2.5336-1.7718-4.1738 0-1.5084 0.57119-2.9582 1.6256-4.0419 1.0835-1.113 2.6505-1.7866 4.2031-1.7866 0.92265 0 1.7721 0.20495 2.6214 0.55642v3.4415z"/>
  <path d="m139.61 154.04h-2.6654v-12.155h2.6654z"/>
  <path d="m144.44 146.27c-2.226 0-3.7638 1.8456-3.7638 3.9982s1.5671 4.0125 3.793 4.0125c0.87868 0 1.8016-0.33643 2.2702-1.0834h0.0292v0.83468h2.6653v-7.5127h-2.6653v0.73205c-0.55641-0.65913-1.4645-0.98134-2.3285-0.98134zm0.70322 2.3143c1.0836 0 1.7134 0.77585 1.7134 1.6985 0 0.95187-0.62975 1.6842-1.7134 1.6842-1.0838 0-1.7134-0.73237-1.7134-1.6842 0-0.9225 0.62959-1.6985 1.7134-1.6985z"/>
  <path d="m156.02 148.46c-0.41006-0.21955-0.98124-0.36608-1.4351-0.36608-0.30766 0-0.83487 0.13177-0.83487 0.51261 0 0.5126 0.83487 0.58563 1.2008 0.65897 1.2449 0.24892 2.1822 0.83471 2.1822 2.226 0 1.9769-1.8015 2.797-3.5441 2.797-1.0692 0-2.1236-0.3075-3.0316-0.86392l0.96679-1.8599c0.54165 0.38068 1.4497 0.76152 2.1087 0.76152 0.33687 0 0.83487-0.16113 0.83487-0.57118 0-0.58563-0.83487-0.61516-1.6696-0.83471-0.83487-0.21971-1.6697-0.62992-1.6697-1.9771 0-1.8453 1.6697-2.6654 3.3099-2.6654 0.84947 0 1.6986 0.13176 2.4751 0.48323z"/>
  <path d="m163.39 148.46c-0.41006-0.21955-0.98124-0.36608-1.4353-0.36608-0.3075 0-0.83471 0.13177-0.83471 0.51261 0 0.5126 0.83471 0.58563 1.2008 0.65897 1.2448 0.24892 2.182 0.83471 2.182 2.226 0 1.9769-1.8013 2.797-3.5439 2.797-1.069 0-2.1234-0.3075-3.0316-0.86392l0.96662-1.8599c0.54197 0.38068 1.4499 0.76152 2.1088 0.76152 0.3367 0 0.83486-0.16113 0.83486-0.57118 0-0.58563-0.83486-0.61516-1.6697-0.83471-0.83471-0.21971-1.6694-0.62992-1.6694-1.9771 0-1.8453 1.6694-2.6654 3.3096-2.6654 0.84963 0 1.699 0.13176 2.4751 0.48323z"/>
  <path d="m168.62 143.64c0 0.8201-0.67357 1.4937-1.4937 1.4937-0.8201 0-1.4938-0.67358-1.4938-1.4937s0.67373-1.4937 1.4938-1.4937c0.82011 0 1.4937 0.67358 1.4937 1.4937z"/>
  <path d="m168.46 154.04h-2.6654v-7.5127h2.6654z"/>
  <path d="m175.48 148.97c-0.39528-0.2929-0.86391-0.52705-1.3767-0.52705-1.025 0-1.8304 0.79073-1.8304 1.8305 0 1.0836 0.77612 1.8452 1.8745 1.8452 0.46863 0 0.98123-0.19033 1.3327-0.5126v2.2554c-0.58579 0.29289-1.2302 0.42466-1.8747 0.42466-2.2258 0-4.0857-1.6548-4.0857-3.9248 0-2.4165 1.8452-4.0859 4.2031-4.0859 0.61516 0 1.2303 0.14652 1.7574 0.43942v2.2552z"/>
  <path d="m180.21 146.27c-2.226 0-3.7638 1.8456-3.7638 3.9982s1.5674 4.0125 3.7933 4.0125c0.87868 0 1.8013-0.33643 2.2699-1.0834h0.0295v0.83468h2.6653v-7.5127h-2.6656v0.73205c-0.55642-0.65913-1.4645-0.98134-2.3285-0.98134zm0.70291 2.3143c1.0838 0 1.7137 0.77585 1.7137 1.6985 0 0.95187-0.62991 1.6842-1.7137 1.6842-1.0836 0-1.7134-0.73237-1.7134-1.6842 0-0.9225 0.62976-1.6985 1.7134-1.6985z"/>
  <path d="m26.458 134.46v27.519h27.519v-27.519zm23.476 7.6891c0.81994 0 1.4932 0.67376 1.4932 1.4939 0 0.82011-0.67314 1.4936-1.4932 1.4936-0.82026 0-1.4939-0.67344-1.4939-1.4936 0-0.8201 0.6736-1.4939 1.4939-1.4939zm-20.927 0.84925h4.2912c2.182 0 3.8367 1.0399 3.8367 3.3976 0 1.523-0.84926 2.8412-2.4163 3.1195l3.4708 4.5253h-3.5734l-2.7093-4.2472h-0.02915v4.2472h-2.8705zm2.8705 2.1968v2.7533h0.27812c0.93726 0 1.9918-0.17588 1.9918-1.3767 0-1.2008-1.0546-1.3766-1.9918-1.3766zm10.104 1.0836c0.86408 0 1.772 0.32205 2.3285 0.98134v-0.73236h2.6653v7.513h-2.6653v-0.83468h-0.02945c-0.46847 0.74692-1.3913 1.0834-2.2699 1.0834-2.2258 0-3.7929-1.8597-3.7929-4.0125 0-2.1528 1.5378-3.9982 3.7638-3.9982zm6.6188 0.24898h2.6656v7.513h-2.6656zm-5.9159 2.065c-1.0836 0-1.7134 0.77631-1.7134 1.6988 0 0.95187 0.62976 1.6842 1.7134 1.6842 1.0836 0 1.7134-0.73237 1.7134-1.6842 0-0.92265-0.62976-1.6988-1.7134-1.6988z"/>
  <path d="m111.36 140.59-0.47609 3.1485 2.27-0.18303c5.6382-0.43942 9.775 4.1737 9.775 9.885 0 2.8921-1.2812 5.6015-3.5512 7.4686-2.1966 1.7574-5.3084 2.3065-8.0543 2.3065-3.1485 0-6.3335-0.76882-9.0062-2.4897l1.0617-6.7729c2.1234 1.9037 4.8325 3.185 7.6883 3.185 2.27 0 4.3934-1.6474 4.3934-4.0638 0-3.3315-3.185-4.7228-6.0408-4.7228-1.8306 0-3.6246 0.36624-5.2721 1.1349l2.4165-14.974h14.351v6.0774h-9.5553z"/>
 </g>
</svg>
