<svg width="600" height="183.88" version="1.1" viewBox="0 0 158.75 48.650282" xmlns="http://www.w3.org/2000/svg">
 <g transform="translate(-569.23 -331.79)" fill="#0067a6">
  <path d="m622.8 346.87v19.499h5.0686v-7.4995h0.0517l4.7843 7.4995h6.3098l-6.1287-7.9908c2.7672-0.49133 4.2669-2.8189 4.2669-5.5081 0-4.1635-2.9223-5.9996-6.7754-5.9996zm5.0686 3.8788h0.49154c1.655 0 3.5169 0.31037 3.5169 2.431 0 2.1206-1.8618 2.431-3.5169 2.431h-0.49154z"/>
  <path d="m645.71 352.66c-3.9306 0-6.6461 3.2583-6.6461 7.0597 0 3.8016 2.767 7.0859 6.6978 7.0859 1.5515 0 3.1808-0.59478 4.0082-1.9138h0.052v1.474h4.7061v-13.266h-4.7061v1.293c-0.98282-1.1638-2.5862-1.7324-4.112-1.7324zm1.2412 4.0858c1.9136 0 3.0257 1.3706 3.0257 2.9998 0 1.6808-1.1121 2.974-3.0257 2.974-1.9137 0-3.0257-1.293-3.0257-2.974 0-1.6292 1.1118-3 3.0257-2.9998z"/>
  <path d="m667.38 344.9v9.4907c-0.98251-1.1638-2.5861-1.7324-4.1117-1.7324-3.9308 0-6.6461 3.2583-6.6461 7.0597 0 3.8016 2.7669 7.0859 6.6978 7.0859 1.5515 0 3.1803-0.59478 4.0079-1.9138h0.052v1.474h4.7064v-21.464zm-2.8705 11.844c1.9137 0 3.0254 1.3706 3.0254 2.9998 0 1.6808-1.1117 2.974-3.0254 2.974-1.9137 0-3.0257-1.293-3.0257-2.974 0-1.6292 1.112-2.9998 3.0257-2.9998z"/>
  <path d="m679.77 348c0 1.4481-1.1895 2.6376-2.6376 2.6376s-2.6376-1.1895-2.6376-2.6376c0-1.4483 1.1895-2.6376 2.6376-2.6376s2.6376 1.1894 2.6376 2.6376z"/>
  <path d="m679.48 366.36h-4.7065v-13.266h4.7065z"/>
  <path d="m689.33 352.66c-4.2667 0-7.9908 2.5601-7.9908 7.0856 0 4.5255 3.7499 7.06 7.9908 7.06 4.267 0 7.9908-2.5604 7.9908-7.06 0-4.5255-3.7238-7.0856-7.9908-7.0856zm0 4.0858c1.9139 0 3.0257 1.3706 3.0257 2.9998 0 1.6808-1.1118 2.974-3.0257 2.974-1.9137 0-3.0254-1.293-3.0254-2.974 0-1.6292 1.1117-3 3.0254-2.9998z"/>
  <path d="m569.23 331.79v48.593h48.593v-48.593zm41.454 13.578c1.4483-1.6e-4 2.6376 1.1894 2.6376 2.6376 0 1.4481-1.1895 2.6379-2.6376 2.6379-1.4481 0-2.6376-1.1898-2.6376-2.6379 0-1.4483 1.1895-2.6376 2.6376-2.6376zm-36.953 1.4999h7.5769c3.8532 0 6.7755 1.8361 6.7755 5.9996 0 2.6892-1.4999 5.0168-4.2669 5.5081l6.129 7.9908h-6.3098l-4.784-7.4995h-0.0517v7.4995h-5.0689zm5.0689 3.8788v4.8619h0.49124c1.6551 0 3.5169-0.31053 3.5169-2.431s-1.862-2.431-3.5169-2.431zm17.843 1.9138c1.5257 0 3.1291 0.5685 4.112 1.7324v-1.293h4.7064v13.266h-4.7064v-1.474h-0.0517c-0.82757 1.319-2.4569 1.9138-4.0085 1.9138-3.9306 0-6.6978-3.2843-6.6978-7.0859s2.7153-7.0597 6.6461-7.0597zm11.688 0.4398h4.7067v13.266h-4.7067zm-10.447 3.646c-1.9137 0-3.0254 1.3706-3.0254 2.9998 0 1.681 1.1117 2.974 3.0254 2.974s3.0257-1.2931 3.0257-2.974c0-1.6292-1.112-2.9998-3.0257-2.9998z"/>
  <path d="m706.78 338.88c4.0904-1.67 6.795-3.3347 9.2351-5.3086l11.965-5e-3v46.87h-12.954l2e-3 -35.522h-0.20971c-2.2485 1.1754-4.3151 1.9707-8.0548 3.2487l0.0165-9.2831"/>
 </g>
</svg>
