<svg width="600" height="179.11" version="1.1" viewBox="0 0 158.75 47.389312" xmlns="http://www.w3.org/2000/svg">
 <g transform="translate(-274.03 -125.14)" fill="#24a349">
  <path d="m324.2 139.34v18.262h4.747v-7.0238h0.0487l4.4807 7.0238h5.9094l-5.7401-7.4836c2.5916-0.46022 3.996-2.6402 3.996-5.1591 0-3.8994-2.7366-5.6189-6.3454-5.6189zm4.7473 3.633h0.46012c1.5502 0 3.2938 0.29064 3.2938 2.2768 0 1.9858-1.7437 2.2765-3.2938 2.2765h-0.46012z"/>
  <path d="m345.66 144.76c-3.6813 0-6.2244 3.0517-6.2244 6.612 0 3.5604 2.5915 6.6362 6.2728 6.6362 1.4534 0 2.9792-0.55722 3.7542-1.7924h0.0484v1.3807h4.4081v-12.425h-4.4081v1.2111c-0.92059-1.09-2.422-1.6228-3.8509-1.6228zm1.1627 3.8268c1.7921 0 2.8336 1.284 2.8336 2.8098 0 1.5742-1.0415 2.7853-2.8336 2.7853s-2.8339-1.2111-2.8339-2.7853c0-1.5259 1.0418-2.8098 2.8339-2.8098z"/>
  <path d="m365.95 137.5v8.8885c-0.92028-1.09-2.422-1.6228-3.8509-1.6228-3.6814 0-6.2244 3.0517-6.2244 6.612 0 3.5604 2.5915 6.6362 6.2728 6.6362 1.453 0 2.9789-0.55722 3.7539-1.7924h0.0487v1.3807h4.4081v-20.102zm-2.6882 11.092c1.7924 0 2.8336 1.284 2.8336 2.8098 0 1.5742-1.0412 2.7853-2.8336 2.7853-1.7923 0-2.8336-1.2111-2.8336-2.7853 0-1.5259 1.0413-2.8098 2.8336-2.8098z"/>
  <path d="m377.55 140.4c0 1.3564-1.1141 2.4703-2.4703 2.4703-1.3564 0-2.4705-1.114-2.4705-2.4703 0-1.3562 1.1141-2.4705 2.4705-2.4705s2.4703 1.1141 2.4703 2.4705z"/>
  <path d="m377.29 157.6h-4.4082v-12.425h4.4082z"/>
  <path d="m386.52 144.76c-3.9961 0-7.4839 2.398-7.4839 6.6365 0 4.2383 3.512 6.6117 7.4839 6.6117 3.9964 0 7.4839-2.3977 7.4839-6.6117 0-4.2385-3.4874-6.6365-7.4839-6.6365zm0 3.8268c1.7923 0 2.8339 1.284 2.8339 2.8098 0 1.5742-1.0416 2.7853-2.8339 2.7853-1.7923 0-2.8336-1.2111-2.8336-2.7853 1e-5 -1.5259 1.0414-2.8098 2.8336-2.8098z"/>
  <path d="m274.03 125.22v45.51h45.51v-45.51zm38.824 12.716c1.3564 0 2.4702 1.1142 2.4702 2.4705 0 1.3564-1.1139 2.4706-2.4702 2.4706-1.3562 0-2.4706-1.1142-2.4706-2.4706 0-1.3562 1.1144-2.4705 2.4706-2.4705zm-34.608 1.4049h7.0963c3.6086 0 6.3454 1.7195 6.3454 5.6189 0 2.5189-1.4044 4.6988-3.996 5.1591l5.7398 7.4836h-5.9097l-4.4804-7.0238h-0.0487v7.0238h-4.7467zm4.7467 3.6326v4.5535h0.46013c1.55 0 3.2941-0.29081 3.2941-2.2765 0-1.9861-1.744-2.2771-3.2941-2.2771zm16.711 1.7924c1.4289 0 2.9305 0.53287 3.8509 1.6228v-1.2111h4.4078v12.425h-4.4078v-1.3807h-0.0487c-0.77501 1.2352-2.3007 1.7924-3.7539 1.7924-3.6814 0-6.2728-3.0758-6.2728-6.6362 0-3.5604 2.543-6.612 6.2244-6.612zm10.946 0.41176h4.4081v12.425h-4.4081zm-9.7836 3.415c-1.7923 0-2.834 1.2838-2.834 2.8098 0 1.5742 1.0416 2.7853 2.834 2.7853 1.7923 0 2.8336-1.2111 2.8336-2.7853 0-1.5258-1.0413-2.8098-2.8336-2.8098z"/>
  <path d="m399.89 139.52c0.46577-4.5992 2.3287-8.0923 5.123-10.596 2.7946-2.5035 6.6951-3.7843 11.178-3.7843 7.8594 0 14.03 4.541 14.03 12.75 0 3.493-1.3973 7.219-4.5993 9.0237 4.6574 1.2225 7.1608 6.5786 7.1608 11.061 0 9.606-8.325 14.555-17.058 14.555-5.0067 0-9.5477-1.3391-13.099-4.9486-2.6199-2.678-5.1232-7.219-5.0068-11.061h11.644c0 3.493 2.5033 6.2292 6.1128 6.2292 3.4931 0 6.113-2.3287 6.113-5.8799 0-3.3184-2.8527-5.88-6.0547-5.88-0.69866 0-1.3391 0.17462-1.9795 0.34925v-7.6267h1.1643c2.911 0 5.0068-1.8048 5.0068-4.832 0-2.6781-1.9214-4.4247-4.4828-4.4247-2.9108 0-4.7157 2.2124-4.6574 5.0649h-10.595z"/>
 </g>
</svg>
