<svg width="600" height="121.95" version="1.1" viewBox="0 0 158.75 32.266561" xmlns="http://www.w3.org/2000/svg">
 <g transform="translate(-100.54 -199.22)" fill="#c5a477">
  <path d="m135.93 209.19v12.883h3.3489v-4.955h0.0341l3.161 4.955h4.169l-4.0494-5.2797c1.8283-0.3248 2.819-1.8626 2.819-3.6395 0-2.7508-1.9308-3.9638-4.4766-3.9638zm3.3489 2.5626h0.32432c1.0935 0 2.3239 0.20513 2.3239 1.6061 0 1.4011-1.2303 1.6064-2.3239 1.6064h-0.32432z"/>
  <path d="m151.07 213.01c-2.5971 0-4.3914 2.1529-4.3914 4.6645 0 2.5117 1.8285 4.6819 4.4255 4.6819 1.0252 0 2.1015-0.39305 2.6482-1.2644h0.0344v0.9739h3.1096v-8.7654h-3.1096v0.85452c-0.64928-0.76898-1.7087-1.145-2.7167-1.145zm0.82011 2.6997c1.2644 0 1.999 0.90572 1.999 1.9822 0 1.1106-0.73451 1.9648-1.999 1.9648s-1.9993-0.85422-1.9993-1.9648c0-1.0765 0.73482-1.9822 1.9993-1.9822z"/>
  <path d="m165.39 207.89v6.2709c-0.64929-0.76898-1.7084-1.145-2.7164-1.145-2.5972 0-4.3914 2.1529-4.3914 4.6645 0 2.5117 1.8283 4.6819 4.4255 4.6819 1.0252 0 2.1015-0.39305 2.6482-1.2644h0.0341v0.9739h3.1099v-14.182zm-1.8966 7.8256c1.2644 0 1.9993 0.90572 1.9993 1.9822 0 1.1106-0.73481 1.9648-1.9993 1.9648-1.2643 0-1.999-0.85422-1.999-1.9648 0-1.0765 0.73467-1.9822 1.999-1.9822z"/>
  <path d="m173.57 209.94c0 0.95679-0.78597 1.7428-1.7428 1.7428-0.95679 0-1.7429-0.78597-1.7429-1.7428 0-0.95678 0.78597-1.7429 1.7429-1.7429s1.7428 0.78597 1.7428 1.7429z"/>
  <path d="m173.39 222.07h-3.1096v-8.7652h3.1096z"/>
  <path d="m179.9 213.01c-2.8192 0-5.2797 1.6918-5.2797 4.6819 0 2.99 2.4776 4.6645 5.2797 4.6645 2.8192 0 5.28-1.6915 5.28-4.6645 0-2.9901-2.4608-4.6819-5.28-4.6819zm3.2e-4 2.6997c1.2644 0 1.9993 0.90572 1.9993 1.9822 0 1.1106-0.73482 1.9648-1.9993 1.9648s-1.9993-0.85422-1.9993-1.9648c0-1.0765 0.73482-1.9822 1.9993-1.9822z"/>
  <path d="m221.75 219.23h4.0154v2.8362h-7.3643v-12.883h3.3488z"/>
  <path d="m229.92 209.94c0 0.95679-0.78612 1.7429-1.7429 1.7429s-1.7429-0.78597-1.7429-1.7429c0-0.95694 0.78597-1.7428 1.7429-1.7428 0.95694 0 1.7429 0.78582 1.7429 1.7428z"/>
  <path d="m229.73 222.07h-3.1098v-8.7652h3.1098z"/>
  <path d="m235.51 213.01c-2.6827 0-4.4937 2.1868-4.4937 4.7498 0 2.5286 1.7595 4.4766 4.3225 4.4766 1.1617 0 1.9821-0.39278 2.7853-1.1959v0.40989c0 1.4181-0.3246 2.5118-1.9993 2.5118-0.29036 0-0.61495-0.0683-0.88832-0.20495-0.27337-0.13668-0.49564-0.35882-0.58105-0.66632h-3.4857c0.27336 2.3068 2.973 3.349 4.9892 3.349 3.2293 0 5.0747-1.5038 5.0747-5.2285h3.2e-4v-7.9112h-3.1099v0.92305h-0.0341c-0.61516-0.87154-1.5548-1.2133-2.58-1.2133zm0.71748 2.6312c1.2643 0 1.9993 0.90573 1.9993 1.9822 0 1.1105-0.73497 1.9648-1.9993 1.9648s-1.9993-0.85438-1.9993-1.9648c0-1.0765 0.73497-1.9822 1.9993-1.9822z"/>
  <path d="m246.12 207.89v6.527h0.0343c0.71771-0.95678 1.5889-1.401 2.8021-1.401 2.2212 0 3.2976 1.4694 3.2976 3.6906v5.365h-3.1098v-4.4937c0-1.025-0.15383-2.0844-1.4011-2.0844-1.2302 0-1.6232 1.0594-1.6232 2.0844v4.4937h-3.1096v-14.182z"/>
  <path d="m257.53 222.07h-3.1098v-6.2022h-1.0082v-2.563h1.0082v-2.6313h3.1098v2.6313h1.7597v2.563h-1.7599v6.2022z"/>
  <path d="m100.54 199.22v32.106h32.106v-32.106zm27.389 8.9709c0.95695 0 1.7428 0.78589 1.7428 1.7428 0 0.95678-0.78605 1.7428-1.7428 1.7428-0.95678 0-1.7428-0.78606-1.7428-1.7428 0-0.95679 0.78606-1.7428 1.7428-1.7428zm-24.415 0.99095h5.0062c2.5459 0 4.4766 1.2131 4.4766 3.9641 0 1.7769-0.99073 3.3147-2.819 3.6395l4.0494 5.2797h-4.169l-3.1607-4.955h-0.0344v4.955h-3.3489zm3.3489 2.5629v3.2125h0.32463c1.0935 0 2.3239-0.20529 2.3239-1.6061 0-1.4011-1.2304-1.6064-2.3239-1.6064zm11.789 1.2644c1.0081 0 2.0674 0.3759 2.7167 1.145v-0.85452h3.1099v8.7654h-3.1099v-0.9739h-0.0341c-0.54673 0.87138-1.6233 1.2644-2.6485 1.2644-2.5972 0-4.4252-2.1702-4.4252-4.6819s1.7939-4.6645 4.391-4.6645zm7.7223 0.29052h3.1099v8.7654h-3.1099zm-6.9022 2.4092c-1.2644 0-1.9989 0.90572-1.9989 1.9822 0 1.1106 0.73466 1.9648 1.9989 1.9648 1.2644 0 1.9993-0.85422 1.9993-1.9648 0-1.0765-0.73481-1.9822-1.9993-1.9822z"/>
  <path d="m199.81 199.28-12.43 20.204v5.3392h15.633v6.6635h7.7741v-6.6635h3.8869v-6.407h-3.8872v-19.136zm3.1186 6.749h0.0853v12.387h-7.603z"/>
 </g>
</svg>
