<svg xmlns="http://www.w3.org/2000/svg" height="162.23" width="600" version="1.1" viewBox="0 0 158.75 42.922753">
 <g transform="translate(-26.458 -127.37)" stroke-width=".21461" fill="#235ed1">
  <path d="m150.85 140.18v18.113h34.36v-18.113zm22.62 1.8242c0.87991 0.0215 1.7815-0.0427 2.6399 0.15049 1.5023 0.30045 2.8544 1.1804 3.863 2.3394 0.837 0.96575 1.4591 2.1244 1.6737 3.3906 0.30046 1.7169 0.0217 3.5626-0.92258 5.0434-0.77261 1.2233-1.8886 2.2749-3.2192 2.8973-0.87992 0.40777-1.8456 0.62246-2.8114 0.62246h-5.6018v-14.422c1.4594 0 2.9188-0.00035 4.3782-0.0218zm-20.195 0.0218h3.7344v5.58h5.4081v-5.58h3.7771v14.422h-3.7771v-5.9446h-5.3867v5.9446h-3.7557zm19.573 3.176v8.048c0.6653 0 1.3095 0.0429 1.9533-0.10731 0.9443-0.19315 1.8456-0.7509 2.3821-1.5664 0.53653-0.81553 0.68651-1.8674 0.60067-2.8332-0.12877-1.4164-1.0514-2.8326-2.4249-3.2833-0.81553-0.21461-1.6742-0.23633-2.5112-0.25779z"/>
  <path d="m83.116 145.16c-0.79407-0.6653-1.8242-1.116-2.8973-1.116-0.79407 0-1.8671 0.47215-1.8671 1.4164 0 0.98723 1.1804 1.3521 1.953 1.6096l1.116 0.34338c2.3393 0.68677 4.1635 1.8671 4.1635 4.5927 0 1.674-0.40777 3.3909-1.7384 4.5283-1.3091 1.116-3.0904 1.5882-4.7859 1.5882-2.1247 0-4.2064-0.70823-5.9233-1.9101l1.8671-3.5197c1.0945 0.96576 2.3822 1.7384 3.8845 1.7384 1.0301 0 2.1247-0.51507 2.1247-1.6954 0-1.2233-1.7169-1.6525-2.6612-1.9101-2.747-0.77261-4.5498-1.5023-4.5498-4.7644 0-3.4124 2.4251-5.6443 5.816-5.6443 1.6954 0 3.7772 0.53653 5.2795 1.395z"/>
  <path d="m95.8 149.93c-0.60092-0.45069-1.3091-0.79407-2.1032-0.79407-1.5667 0-2.79 1.2018-2.79 2.79 0 1.6525 1.1804 2.8114 2.8544 2.8114 0.70822 0 1.5023-0.30046 2.0388-0.77261v3.4338c-0.90138 0.45069-1.8671 0.64384-2.8544 0.64384-3.3909 0-6.2238-2.5324-6.2238-5.9877 0-3.6914 2.8114-6.2238 6.4169-6.2238 0.9443 0 1.8671 0.21462 2.6827 0.6653v3.4338z"/>
  <path d="m102.32 146.22v6.1165c0 1.4594 0.36485 2.4895 2.0388 2.4895s2.0388-1.0302 2.0388-2.4895v-6.1165h4.0562v6.9106c0 3.7772-2.6612 4.9361-6.095 4.9361s-6.095-1.1589-6.095-4.9361v-6.9106z"/>
  <path d="m119.09 145.83c-3.6914 0-6.9104 2.2105-6.9104 6.1165s3.2405 6.0951 6.9104 6.0951c3.6914 0 6.9108-2.2106 6.9108-6.0951 0-3.906-3.2194-6.1165-6.9108-6.1165zm0.0218 3.5198c1.6525 0 2.6181 1.1803 2.6181 2.5967 0 1.4594-0.96558 2.5754-2.6181 2.5754s-2.6185-1.116-2.6185-2.5754c0-1.4164 0.96601-2.5967 2.6185-2.5967z"/>
  <path d="m131.9 157.65h-4.0562v-18.521h4.0562z"/>
  <path d="m139.5 145.83c-3.4124 0-5.7518 2.8115-5.7518 6.0951s2.4037 6.1165 5.7946 6.1165c1.3306 0 2.747-0.51532 3.4552-1.6528h0.0431v1.2663h4.0559v-11.44h-4.0559v1.1158c-0.837-1.0087-2.232-1.5023-3.5411-1.5023zm1.0731 3.5198c1.6525 0 2.6181 1.1803 2.6181 2.5967 0 1.4594-0.96559 2.5754-2.6181 2.5754s-2.6186-1.116-2.6186-2.5754c0-1.4164 0.96602-2.5967 2.6186-2.5967z"/>
  <path d="m26.458 127.37v42.923h42.923v-42.923h-0.02141zm36.828 11.954c1.2662 0 2.318 1.0518 2.318 2.318s-1.0518 2.318-2.318 2.318-2.3176-1.0518-2.3176-2.318 1.0514-2.318 2.3176-2.318zm-32.643 1.3095h6.653c3.3909 0 5.9451 1.6095 5.9451 5.2794 0 2.3608-1.3091 4.421-3.7557 4.8502l5.4081 7.0177h-5.5586l-4.2063-6.5885h-0.04275v6.5885h-4.442zm4.4428 3.412v4.2923h0.42923c1.4594 0 3.0901-0.279 3.0901-2.1461s-1.6307-2.1461-3.0901-2.1461zm15.817 1.6955c1.3306 0 2.7472 0.49353 3.6057 1.5237v-1.1372h4.1418v11.653h-4.1418v-1.2877h-0.04315c-0.72968 1.1589-2.1677 1.6742-3.5197 1.6742-3.4553 0-5.8801-2.8973-5.8801-6.2238 0-3.348 2.382-6.2024 5.8373-6.2024zm10.301 0.38648h4.1422v11.653h-4.1422zm-9.207 3.1978c-1.6954 0-2.6613 1.2016-2.6613 2.6395 0 1.4808 0.98731 2.6185 2.6613 2.6185 1.6954 0 2.6613-1.1377 2.6613-2.6185 0-1.4379-0.96585-2.6395-2.6613-2.6395z"/>
 </g>
</svg>
