<svg width="600" height="147.43" version="1.1" viewBox="0 0 158.75 39.00641" xmlns="http://www.w3.org/2000/svg">
 <g transform="translate(-26.458 -220.04)" fill="#ff510c">
  <path d="m26.458 220.04v39.006h39.006v-39.006zm33.267 10.408c1.1673 0 2.1412 0.97387 2.1412 2.1412-0.09743 1.2646-0.9739 2.1392-2.1412 2.1392s-2.1392-0.97195-2.1392-2.1392c0-1.1673 0.97195-2.1412 2.1392-2.1412zm-29.376 1.2653h6.0302c3.1128 0 5.4488 1.4595 5.4488 4.7668 0 2.14-1.1673 3.9882-3.4046 4.3773l4.8637 6.4197h-4.9625v0.0971l-3.7922-6.0302v6.0302h-4.1835zm4.0848 3.112v3.8909h0.38945c1.3618 0 2.8213-0.29191 2.8213-1.9454 0-1.6536-1.4595-1.9455-2.8213-1.9455zm14.203 1.6548c1.2645 0 2.5276 0.48677 3.3058 1.3622v-1.0715h3.6972v10.603h-3.7941v-1.1665c-0.68092 1.07-1.9443 1.556-3.2089 1.556-3.1128 0-5.3501-2.6272-5.3501-5.6426 0-3.0155 2.14-5.6408 5.3501-5.6408zm9.1422 0.29081h3.794v10.603h-3.794zm-8.1695 2.9182c-1.5564 0-2.4318 1.07-2.4318 2.4318 0 1.3618 0.87548 2.3349 2.4318 2.3349s2.4318-1.0704 2.4318-2.3349c0-1.3618-0.87548-2.4318-2.4318-2.4318z"/>
  <path d="m79.278 235.8c-0.7782-0.58364-1.6537-1.07-2.7237-1.07-0.7782 0-1.7509 0.38908-1.7509 1.2646 0 0.87545 1.07 1.2646 1.8482 1.4591l1.07 0.29191c2.14 0.68093 3.891 1.7509 3.891 4.28 0 1.5564-0.38912 3.1128-1.6537 4.1828-1.2645 1.07-2.8209 1.4591-4.4746 1.4591-1.9455 0-3.8909-0.68093-5.4473-1.7509l1.7509-3.3073c0.97276 0.87548 2.2373 1.6536 3.5991 1.6536 0.97272 0 1.9455-0.48636 1.9455-1.5564 0-1.1673-1.5564-1.5564-2.4318-1.7509-2.5291-0.68092-4.1828-1.3618-4.1828-4.3773 0-3.21 2.2373-5.2528 5.3501-5.2528 1.5564 0 3.5019 0.48636 4.8637 1.2645z"/>
  <path d="m89.88 236.39c-1.1673 0-2.528 0.48599-3.2089 1.556v-1.1684h-3.7941v15.953h3.6972v-6.3228c0.77816 0.97277 2.0412 1.3622 3.3058 1.3622 3.21 0 5.3501-2.6272 5.3501-5.6426 0-3.1128-2.14-5.7376-5.3501-5.7376zm-0.87398 3.2089c1.5564 0 2.4318 1.1673 2.4318 2.4318 0 1.2646-0.87545 2.3349-2.4318 2.3349-1.5564 0-2.4318-0.97309-2.4318-2.3349 0-1.2646 0.87544-2.3346 2.4318-2.4318z"/>
  <path d="m102.43 236.39c-3.4046 0-6.4197 2.0416-6.4197 5.6407 0 3.5991 3.0151 5.6426 6.4197 5.6426 3.4046 0 6.4197-2.0435 6.4197-5.6426 0-3.5991-3.0151-5.6407-6.4197-5.6407zm0 3.2089c1.5564 0 2.4318 1.1673 2.4318 2.4318 0 1.2646-0.87544 2.3349-2.4318 2.3349-1.5564 0-2.4318-0.97309-2.4318-2.3349 0-1.2646 0.87545-2.3346 2.4318-2.4318z"/>
  <path d="m113.91 238.43c0.7782-1.2646 2.0428-1.8482 3.5018-1.8482h0.68093v3.5991c-0.48637-0.29191-0.97273-0.38908-1.5564-0.38908-2.0428 0-2.6264 1.3618-2.6264 3.21v4.28h-3.7937v-10.506h3.7937z"/>
  <path d="m123.73 247.38h-3.7937v-7.4901h-1.2646v-3.1128h1.2646v-3.21h3.7937v3.21h2.14v3.1128h-2.14z"/>
  <path d="m154.28 231.91v15.564h30.932v-15.564zm6.0302 3.2108h2.5288v3.6972h3.6002v-3.6972h2.5288v9.6305h-2.5288v-3.9878h-3.6002v3.9878h-2.5288zm11.576 0h3.5984c2.7236 0 4.8637 2.14 4.8637 4.8637 0 2.6264-2.2373 4.7668-4.8637 4.7668h-3.5984zm2.5287 2.0424v5.447h0.58328c1.4591 0 2.8213-0.77707 2.8213-2.7226-0.0971-1.7509-1.1676-2.7244-2.8213-2.7244z"/>
  <path d="m137.74 232.01h4.5719v5.5446h5.5446v4.5719h-5.5446v5.5446h-4.5719v-5.5446h-5.5446v-4.5719h5.5446z"/>
 </g>
</svg>
