<svg width="600" height="170.02" version="1.1" viewBox="0 0 158.75 44.985773" xmlns="http://www.w3.org/2000/svg">
 <g transform="translate(-326.57 -274.38)" fill="#5cbb46">
  <g stroke-width=".83035">
   <path d="m380.08 305.9h-3.4778v-5.8336h4.0387c0.22429 1.6828 0.67311 2.468 1.795 2.468 1.0097 0 1.795-0.67311 1.795-1.6828 0-0.56096-0.33666-1.1219-0.7853-1.4584-0.7853-0.44877-1.9071-0.7853-3.029-1.2341-2.5802-1.1219-3.8143-2.8047-3.8143-5.0484 0-3.1412 2.3559-5.4971 5.4971-5.4971 1.0096 0 1.9072 0.33666 2.8047 0.89753v-0.44873h3.3656v5.0484h-3.7021c-0.22431-1.2341-0.78531-1.9072-1.6828-1.9072-0.89752 0-1.5706 0.67312-1.5706 1.4584 0 0.67311 0.33667 1.1218 0.7853 1.4584 1.1218 0.56093 2.3559 0.78527 3.4778 1.4584 2.1315 1.1218 3.2534 2.6924 3.2534 4.8239 0 3.2534-2.5802 5.8337-5.6092 5.8337-1.0096 0-2.0193-0.33667-3.0289-1.0097v0.67311z"/>
   <path d="m396.8 306.24c-2.1315 0-3.8143-0.67311-5.2727-2.1315-1.4584-1.3462-2.1315-3.1412-2.1315-5.1605 0-2.0193 0.67311-3.7021 2.1315-5.1605 1.3462-1.3462 3.0289-2.1315 4.824-2.1315 1.4584 0 2.8046 0.56092 3.8143 1.5706v-1.2341h3.1412v5.0484h-3.7021c-0.56092-1.0096-1.4584-1.5706-2.6925-1.5706-1.9071 0-3.2534 1.4584-3.2534 3.3656s1.3462 3.3656 3.2534 3.3656c1.1218 0 2.1315-0.56097 2.5802-1.5706h4.4874c-1.0096 3.5899-3.5899 5.6092-7.1799 5.6092"/>
   <path d="m417.89 302.31h1.6828v3.5899h-5.3849v-1.795c-0.89752 1.3462-2.2438 2.0193-4.0386 2.0193-3.029 0-4.824-1.795-4.824-5.2727v-5.1605h-1.0096v-3.5899h5.0484v7.6286c0 1.9071 0.56093 2.8047 2.1315 2.8047 1.4584 0 2.356-1.0096 2.356-2.8047v-3.9265h-1.5706v-3.5899h5.4971v10.097z"/>
   <path d="m426.86 291.77c-2.0193 0-3.9279 0.78574-5.274 2.132-1.3462 1.3462-2.0176 3.1407-2.1298 5.1601 0 2.0193 0.78353 3.8139 2.1298 5.1601 1.4584 1.4584 3.2547 2.132 5.274 2.132s3.9256-0.78576 5.2718-2.132c1.4584-1.3462 2.1319-3.1407 2.1319-5.1601 0-2.0193-0.78572-3.8139-2.1319-5.1601-1.4584-1.3462-3.2525-2.132-5.2718-2.132zm0 3.9265c1.6828 0 3.1399 1.4584 3.1399 3.3656 0 1.9072-1.3449 3.3656-3.1399 3.3656s-3.1416-1.4584-3.2538-3.3656c0-1.9071 1.4588-3.3656 3.2538-3.3656z"/>
  </g>
  <polygon transform="matrix(1.1219 0 0 1.1219 326.57 274.38)" points="96.3 15.4 96.3 12.2 101.3 12.2 101.3 24.9 102.8 24.9 102.8 28.1 96.3 28.1 96.3 24.9 97.8 24.9 97.8 15.4"/>
  <path d="m448.85 291.99c-3.8143 0-6.7311 2.9177-6.7311 7.0686 0 4.1509 2.9168 7.0686 6.7311 7.0686 1.795 0 3.0285-0.56265 4.0382-1.7967v1.571h5.4975v-3.5891h-1.4592v-6.5076h1.4592v-3.589h-5.2718v1.6828c-1.1218-1.3462-2.3568-1.9085-4.2639-1.9085zm0.67265 3.4795c1.9071 0 3.3656 1.458 3.3656 3.4773s-1.4584 3.4772-3.3656 3.4772-3.2534-1.3457-3.3656-3.4772c0-2.0193 1.4584-3.4773 3.3656-3.4773z" stroke-width=".83035"/>
  <path d="m326.57 274.38v44.986h44.986v-44.986zm37.582 12.452c1.3462 0 2.3554 1.1214 2.3554 2.3554s-1.0092 2.3577-2.3554 2.3577c-1.3462 0-2.3554-1.1235-2.3554-2.3577 0-1.3462 1.1214-2.3554 2.3554-2.3554zm-32.422 1.2336h6.8429c3.4778 0 6.1702 1.6836 6.1702 5.3858 0 2.468-1.3445 4.4879-3.8126 4.9366l5.4953 7.1803h-5.721v0.11195l-4.3757-6.7311v6.7311h-4.5991zm4.5991 3.5912v4.3756h0.44918c1.4584 0 3.142-0.22431 3.142-2.2437 0-1.9071-1.6837-2.1319-3.142-2.1319zm15.371 1.571c1.3462 0 2.8033 0.55918 3.7008 1.5689v-1.1218h4.2639v12.005h-4.3756v-1.3476c-0.7853 1.2341-2.2428 1.6828-3.589 1.6828-3.5899 0-6.0585-2.9159-6.0585-6.3937s2.4685-6.3937 6.0585-6.3937zm10.32 0.56092h4.2639v11.891h-4.2639zm-9.3099 3.2516c-1.6828 0-2.6929 1.2345-2.6929 2.6929 0 1.5706 1.0101 2.6929 2.6929 2.6929 1.6828 0 2.6907-1.1223 2.6907-2.6929 0.1122-1.4584-0.8957-2.6929-2.6907-2.6929z" stroke-width=".83035"/>
  <path d="m462.58 293.86h2.658v4.6389h4.8928v-4.6389h2.658v12.088h-2.658v-5.2145h-4.8928v5.2145h-2.658z" stroke-width=".047153"/>
  <path d="m474.62 293.86h5.2146c3.1321 0 5.4854 1.9638 5.4854 5.9764 0 3.5046-1.7946 6.1119-5.4854 6.1119h-5.2146zm2.6581 9.8535h2.3702c1.5406 0 3.0136-0.94808 3.0136-3.6231 0-2.438-0.84653-3.9956-3.4877-3.9956h-1.8962z" stroke-width=".047153"/>
 </g>
</svg>
