<svg width="600" height="182.57" version="1.1" viewBox="0 0 158.75 48.30472" xmlns="http://www.w3.org/2000/svg">
 <g transform="translate(-223.01 -95.767)" fill="#d7db14">
  <path d="m280.83 129.62h-3.7343v-6.2639h4.3366c0.24085 1.8069 0.72276 2.6502 1.9274 2.6502 1.0842 0 1.9274-0.72277 1.9274-1.8069 0-0.60235-0.36149-1.2047-0.8432-1.566-0.8432-0.48188-2.0479-0.8432-3.2525-1.3251-2.7706-1.2047-4.0957-3.0116-4.0957-5.4207 0-3.3729 2.5297-5.9026 5.9026-5.9026 1.0841 0 2.0479 0.3615 3.0116 1.0842v-0.48187h3.4934v5.4207h-3.9752c-0.24084-1.3251-0.84319-2.0478-1.8069-2.0478s-1.6865 0.72277-1.6865 1.566c0 0.72276 0.3615 1.2046 0.8432 1.566 1.2046 0.60235 2.5297 0.8432 3.7343 1.566 2.2888 1.2047 3.4934 2.8911 3.4934 5.1798 0 3.4934-2.7706 6.2639-6.023 6.2639-1.0841 0-2.1683-0.3615-3.2525-1.0841z" stroke-width=".818"/>
  <polygon transform="matrix(1.2046 0 0 1.2046 223.01 95.767)" points="63.1 24.9 63.1 28.1 57.6 28.1 57.6 19.1 56.1 19.1 56.1 15.8 57.6 15.8 57.6 12.2 61.1 12.2 61.1 15.8 63.4 15.8 63.4 19.1 61.1 19.1 61.1 24.9"/>
  <g stroke-width=".818">
   <path d="m307.57 114.44c-2.1683 0-4.2152 0.84369-5.6607 2.2893-1.566 1.4456-2.2893 3.3725-2.2893 5.5408s0.84369 4.0952 2.2893 5.5407c1.566 1.566 3.4924 2.2893 5.6607 2.2893 2.1683 0 4.2175-0.84369 5.663-2.2893 1.566-1.4456 2.2893-3.3725 2.2893-5.5407s-0.84376-4.0952-2.2893-5.5408c-1.566-1.4456-3.4948-2.2893-5.663-2.2893zm-0.12019 4.2162c1.807 0 3.3738 1.566 3.3738 3.6139 0 2.0478-1.4465 3.6138-3.3738 3.6138-1.8069 0-3.3734-1.566-3.4939-3.6138 0-2.0479 1.5665-3.6139 3.4939-3.6139z"/>
   <path d="m317.81 118.78h-1.6865v-3.8548h5.6616v2.1683c0.84319-1.6864 2.1683-2.2887 3.9752-2.4092v4.0957c-2.7706 0.12064-3.8548 1.3251-3.8548 3.9752v3.0115h1.6865v3.8548h-7.7095v-3.8548h1.9274z"/>
   <path d="m328.89 118.78h-1.8069v-3.8548h6.023v10.842h1.9274v3.8548h-7.9504v-3.8548h1.8069z"/>
   <path d="m328.89 110.47h4.2162v3.6138h-4.2162z"/>
   <path d="m342.62 114.68c-4.0957 0-7.2276 3.133-7.2276 7.59 0 4.457 3.132 7.59 7.2276 7.59 1.9274 0 3.3725-0.60417 4.3361-1.9293v1.6869h5.903v-3.8538h-1.567v-6.9877h1.567v-3.8538h-5.663v1.8069c-1.2047-1.4456-2.5283-2.0493-4.5762-2.0493zm0.84229 3.7362c2.0478 0 3.6139 1.5656 3.6139 3.7339s-1.566 3.7338-3.6139 3.7338c-2.0479 0-3.6138-1.445-3.6138-3.7338 0-2.1683 1.566-3.7339 3.6138-3.7339z"/>
   <path d="m223.01 95.767v48.305h48.305v-48.305zm40.355 13.371c1.4455 0 2.5292 1.2041 2.5292 2.5292 0 1.3251-1.0837 2.5316-2.5292 2.5316-1.4455 0-2.5292-1.2065-2.5292-2.5316 0-1.4456 1.2042-2.5292 2.5292-2.5292zm-34.813 1.3246h7.3476c3.7343 0 6.6253 1.8079 6.6253 5.7831 0 2.6502-1.4436 4.8189-4.0938 5.3007l5.9008 7.7099h-6.143v0.12019l-4.6984-7.2279v7.2276h-4.9384zm4.9384 3.8562v4.6984h0.48231c1.566 0 3.3739-0.24085 3.3739-2.4092 0-2.0478-1.8079-2.2893-3.3739-2.2893zm16.505 1.6869c1.4455 0 3.0101 0.60043 3.9738 1.6846v-1.2046h4.5784v12.891h-4.6984v-1.447c-0.8432 1.3251-2.4083 1.8069-3.8538 1.8069-3.8548 0-6.5053-3.1311-6.5053-6.8653 0-3.7343 2.6506-6.8653 6.5053-6.8653zm11.081 0.60229h4.5784v12.768h-4.5784zm-9.9968 3.4915c-1.8069 0-2.8916 1.3255-2.8916 2.8915 0 1.6865 1.0846 2.8916 2.8916 2.8916 1.8069 0 2.8892-1.2051 2.8892-2.8916 0.12047-1.566-0.96181-2.8915-2.8892-2.8915z"/>
  </g>
  <path d="m357.34 116.68h2.8541v4.9812h5.2538v-4.9812h2.8541v12.98h-2.8541v-5.5992h-5.2538v5.5992h-2.8541z" stroke-width=".047153"/>
  <path d="m370.27 116.68h5.5993c3.3632 0 5.8901 2.1087 5.8901 6.4173 0 3.7631-1.927 6.5628-5.8901 6.5628h-5.5993zm2.8542 10.581h2.5451c1.6543 0 3.2359-1.018 3.2359-3.8904 0-2.6178-0.90898-4.2904-3.745-4.2904h-2.036z" stroke-width=".047153"/>
 </g>
</svg>
