<svg xmlns="http://www.w3.org/2000/svg" height="222.35" width="600" version="1.1" viewBox="0 0 158.75 58.828892">
 <g transform="translate(-6.838 -119.42)" fill="#cddc29">
  <path d="m6.838 119.42v58.829h58.829v-58.829zm50.475 16.384c1.7355 0 3.177 1.441 3.177 3.1764 0 1.7355-1.4415 3.177-3.177 3.177s-3.1764-1.4415-3.1764-3.177c0-1.7354 1.441-3.1764 3.1764-3.1764zm-44.739 1.7942h9.1185c4.6475 0 8.1481 2.206 8.1481 7.2358 0 3.2356-1.7943 6.0593-5.1475 6.6476l7.4122 9.6189h-7.6185l-5.7651-9.0306h-0.058v9.0306h-6.0891zm6.1184 4.677v5.8829h0.58829c2.0002 0 4.2358-0.38239 4.2358-2.9414 0-2.5591-2.2356-2.9414-4.2358-2.9414zm21.649 2.3239c1.8237 0 3.7653 0.67641 4.9419 2.0883v-1.5592h5.6766v15.972h-5.6766v-1.7649h-0.05918c-1.0001 1.5884-2.971 2.294-4.8241 2.294-4.7357 0-8.0591-3.971-8.0591-8.5302 0-4.5887 3.2648-8.5003 8.0005-8.5003zm14.119 0.52911h5.6772v15.972h-5.6772zm-12.619 4.3829c-2.3237 0-3.6475 1.6474-3.6475 3.6182 0 2.0296 1.3532 3.5883 3.6475 3.5883 2.3237-0.00001 3.6475-1.5588 3.6475-3.5883 0-1.9708-1.3238-3.6182-3.6475-3.6182z"/>
  <path d="m86.081 143.6c-0.55887-0.47064-1.206-0.85301-1.9119-1.1472-0.70595-0.29415-1.4119-0.4118-2.1767-0.4118-0.26473 0-0.55887 0.0295-0.88243 0.11769-0.32356 0.0883-0.58829 0.2059-0.85302 0.38239-0.26473 0.17648-0.47063 0.38239-0.64712 0.61771-0.17649 0.2353-0.23532 0.52945-0.23532 0.85301 0 0.35298 0.08824 0.61771 0.29414 0.88243 0.17649 0.26473 0.4118 0.47064 0.67653 0.64712s0.55888 0.32356 0.88244 0.44122c0.32356 0.1177 0.6177 0.2059 0.88243 0.29414l1.559 0.47063c0.8236 0.26473 1.5884 0.55888 2.2943 0.91185 0.70595 0.35298 1.3236 0.76478 1.8531 1.2648 0.52946 0.50005 0.94126 1.1178 1.2354 1.7943 0.29414 0.70595 0.44122 1.5296 0.44122 2.5002 0 1.1766-0.17649 2.3237-0.52946 3.4709s-1.0001 2.1178-1.9119 2.912c-0.94126 0.79417-2.0002 1.353-3.1473 1.706-1.1766 0.35298-2.3532 0.52946-3.5591 0.52946-1.5001 0-2.9709-0.23531-4.3533-0.70595-1.4119-0.47062-2.7355-1.1178-3.9415-2.0002l2.6473-4.9416c0.76478 0.67652 1.6178 1.2354 2.5002 1.7354 0.91185 0.50006 1.8825 0.73537 2.9709 0.73537 0.35297 0 0.70595-0.0295 1.0589-0.14707 0.35297-0.0883 0.67653-0.23532 0.94126-0.4118 0.29414-0.1765 0.52946-0.44123 0.67653-0.73536 0.17649-0.29415 0.26473-0.67654 0.26473-1.0883 0-0.44122-0.11766-0.7942-0.38239-1.0883-0.26473-0.29414-0.58829-0.52947-0.97068-0.76478-0.38239-0.20591-0.79419-0.38239-1.206-0.50005-0.44122-0.14707-0.8236-0.23531-1.1472-0.32355-0.97068-0.26473-1.8237-0.55888-2.6179-0.85302-0.79419-0.29415-1.4707-0.70595-2.0296-1.1766-0.55888-0.47063-1.0001-1.0883-1.2942-1.8237-0.29414-0.73537-0.47063-1.6766-0.47063-2.8238 0-1.1766 0.2059-2.2649 0.6177-3.265 0.4118-0.97067 0.97068-1.8237 1.706-2.5002 0.70595-0.67653 1.5884-1.2354 2.5591-1.5884 1.0001-0.38239 2.0884-0.55887 3.265-0.55887 0.6177 0 1.2354 0.0295 1.8825 0.14708 0.64712 0.0883 1.2942 0.23531 1.9119 0.38238 0.64712 0.17649 1.2648 0.38239 1.8825 0.61771s1.1766 0.50004 1.706 0.79418z"/>
  <path d="m98.523 161.16h-5.7064v-11.383h-1.8531v-4.7063h1.8531v-4.824h5.7064v4.824h3.2356v4.7063h-3.2356z"/>
  <path d="m112.38 144.54c-1.2942 0-2.53 0.20601-3.736 0.55898-1.1766 0.35299-2.2061 0.91174-3.0885 1.6471-0.88244 0.73536-1.5882 1.6476-2.1176 2.7065-0.52946 1.0589-0.79396 2.2943-0.79396 3.6768s0.2645 2.588 0.79396 3.6469 1.2356 1.9418 2.1475 2.6772c0.91186 0.73535 1.9412 1.294 3.1178 1.6764 1.1766 0.38238 2.412 0.559 3.6768 0.559 1.2942 0 2.5295-0.17662 3.7061-0.559 1.1766-0.38239 2.2061-0.94104 3.0885-1.6764 0.88243-0.73536 1.5881-1.6476 2.1176-2.7065 0.50005-1.0589 0.76524-2.2646 0.76524-3.6176 0-1.3825-0.23577-2.6179-0.76524-3.6768-0.52945-1.0883-1.2352-1.9711-2.1176-2.7065-0.88244-0.70595-1.912-1.2647-3.0885-1.6471-1.1766-0.38239-2.4119-0.55898-3.7061-0.55898zm0 4.9712c0.5883 0 1.1174 0.0883 1.5586 0.29415 0.47063 0.17649 0.85313 0.44111 1.1473 0.76467 0.29413 0.32354 0.52956 0.70605 0.70605 1.1473 0.17649 0.44121 0.26485 0.91207 0.26485 1.4121 0 1.0001-0.29449 1.8529-0.9416 2.5588-0.64713 0.67654-1.5293 1.0295-2.7059 1.0295s-2.0588-0.35298-2.7059-1.0295c-0.64712-0.67653-0.97092-1.5293-0.97092-2.5588 0-0.50004 0.059-0.9709 0.23556-1.4121 0.14707-0.44123 0.38192-0.82374 0.70548-1.1473 0.32356-0.29417 0.70607-0.55877 1.1473-0.76467 0.44122-0.2059 0.97092-0.29415 1.5592-0.29415z"/>
  <path d="m130.03 147.72h0.0588c0.52945-1.0001 1.2648-1.7354 2.1766-2.1767 0.91186-0.44121 1.912-0.67653 3.0297-0.67653h1.0883v5.4711c-0.38239-0.23532-0.79419-0.38238-1.1766-0.44121-0.38239-0.0589-0.79419-0.0882-1.2354-0.0882-0.79419 0-1.4413 0.11769-1.9708 0.38237-0.52946 0.23532-0.91185 0.5883-1.206 1.0295-0.29415 0.44121-0.50004 0.94125-0.61771 1.5295-0.11769 0.58829-0.17648 1.2354-0.17648 1.9119v6.5006h-5.7064v-16.09h5.7064z"/>
  <path d="m141.7 135.71c0.44121 0 0.85301 0.0883 1.2354 0.2353 0.38239 0.17648 0.73537 0.4118 1.0295 0.67654 0.29414 0.29415 0.52945 0.64712 0.67653 1.0295 0.17648 0.38239 0.23531 0.79418 0.23531 1.2354 0 0.44121-0.0883 0.85301-0.23531 1.2354-0.17649 0.38239-0.4118 0.73538-0.67653 1.0295-0.29414 0.29414-0.61771 0.52945-1.0295 0.70595-0.38239 0.14706-0.79419 0.23532-1.2354 0.23532-0.44122 0-0.85301-0.0883-1.2354-0.23532-0.38239-0.1765-0.73538-0.41181-1.0295-0.70595-0.29415-0.29413-0.52945-0.61771-0.67654-1.0295-0.17649-0.38239-0.23531-0.79419-0.23531-1.2354 0-0.44122 0.0883-0.85301 0.23531-1.2354 0.17648-0.38239 0.38239-0.73536 0.67654-1.0295 0.29413-0.29415 0.64712-0.52945 1.0295-0.67654 0.38239-0.17649 0.79418-0.2353 1.2354-0.2353z"/>
  <path d="m144.56 161.16h-5.7064v-16.09h5.7064z"/>
  <path d="m154.91 144.54c-1.1766 0-2.2648 0.23542-3.2649 0.70606-0.97068 0.44122-1.8236 1.0592-2.5295 1.8533-0.70593 0.7942-1.2358 1.7057-1.6476 2.7352-0.38239 1.0295-0.5883 2.1177-0.5883 3.2649s0.20591 2.2358 0.5883 3.2948c0.38238 1.0295 0.9416 1.941 1.677 2.7352 0.70594 0.79418 1.5587 1.412 2.5588 1.8826 0.97069 0.44121 2.0589 0.67677 3.2649 0.67677 0.94127 0 1.8532-0.17662 2.7651-0.559 0.88244-0.38239 1.5883-0.97068 2.0883-1.7648h0.0591v1.7942h5.7065v-16.06h-5.7065v1.5592c-0.5883-0.70595-1.3529-1.2355-2.2354-1.5885-0.88243-0.35297-1.7945-0.52969-2.7358-0.52969zm1.4707 4.9712c0.58828 0 1.118 0.0883 1.5592 0.29415 0.47062 0.17649 0.82313 0.44111 1.1467 0.76467 0.29414 0.32354 0.52957 0.70605 0.70606 1.1473 0.14707 0.44121 0.23555 0.91207 0.23555 1.4121 0 1.0001-0.29449 1.8529-0.94161 2.5588-0.64712 0.67654-1.5293 1.0295-2.7059 1.0295s-2.0588-0.35298-2.7059-1.0295c-0.61769-0.67653-0.94161-1.5293-0.94161-2.5588 0-0.50004 0.059-0.9709 0.23555-1.4121 0.14706-0.44123 0.3825-0.82374 0.70606-1.1473 0.32356-0.29417 0.70549-0.55877 1.1467-0.76467 0.44122-0.2059 0.9709-0.29415 1.5592-0.29415z"/>
 </g>
</svg>
