<svg width="600" height="204.76" version="1.1" viewBox="0 0 158.75 54.177154" xmlns="http://www.w3.org/2000/svg">
 <g transform="translate(-26.458 -212.46)" fill="#5cbb46">
  <path d="m90.904 250.42h-4.1883v-7.0255h4.8638c0.27013 2.0266 0.81064 2.9723 2.1617 2.9723 1.216 0 2.1617-0.81064 2.1617-2.0266 0-0.67558-0.40545-1.3511-0.94575-1.7564-0.94575-0.54046-2.2968-0.94576-3.6479-1.4862-3.1074-1.3511-4.5936-3.3777-4.5936-6.0798 0-3.783 2.8372-6.6202 6.6202-6.6202 1.2159 0 2.2968 0.40545 3.3777 1.0809v-0.54041h4.0532v6.0798h-4.4585c-0.27013-1.4862-0.94575-2.2968-2.0266-2.2968-1.0809 0-1.8915 0.81064-1.8915 1.7564 0 0.81064 0.40545 1.351 0.94575 1.7564 1.351 0.67553 2.8372 0.94571 4.1883 1.7564 2.567 1.351 3.9181 3.2425 3.9181 5.8095 0 3.9181-3.1074 7.0256-6.7553 7.0256-1.2159 0-2.4319-0.40545-3.6478-1.216v0.81064z"/>
  <path d="m111.03 250.83c-2.567 0-4.5936-0.81064-6.35-2.567-1.7564-1.6213-2.567-3.783-2.567-6.2149 0-2.4319 0.81064-4.4585 2.567-6.2149 1.6213-1.6213 3.6478-2.567 5.8096-2.567 1.7564 0 3.3776 0.67552 4.5936 1.8915v-1.4862h3.783v6.0798h-4.4585c-0.67552-1.2159-1.7564-1.8915-3.2426-1.8915-2.2968 0-3.9181 1.7564-3.9181 4.0532s1.6213 4.0532 3.9181 4.0532c1.351 0 2.567-0.67558 3.1074-1.8915h5.4042c-1.2159 4.3234-4.3234 6.7553-8.6468 6.7553"/>
  <path d="m136.43 246.1h2.0266v4.3234h-6.4851v-2.1617c-1.0809 1.6213-2.7022 2.4319-4.8638 2.4319-3.6478 0-5.8096-2.1617-5.8096-6.35v-6.2149h-1.2159v-4.3234h6.0798v9.1872c0 2.2968 0.67553 3.3777 2.567 3.3777 1.7564 0 2.8373-1.2159 2.8373-3.3777v-4.7287h-1.8915v-4.3234h6.6202v12.16z"/>
  <path d="m147.24 233.4c-2.4319 0-4.7304 0.94627-6.3516 2.5676-1.6213 1.6213-2.4298 3.7824-2.5649 6.2144 0 2.4319 0.94361 4.5931 2.5649 6.2144 1.7564 1.7564 3.9197 2.5676 6.3516 2.5676 2.4319 0 4.7276-0.94631 6.3489-2.5676 1.7564-1.6213 2.5675-3.7824 2.5675-6.2144 0-2.4319-0.94626-4.5931-2.5675-6.2144-1.7564-1.6213-3.917-2.5676-6.3489-2.5676zm0 4.7287c2.0266 0 3.7814 1.7564 3.7814 4.0532s-1.6197 4.0532-3.7814 4.0532c-2.1617 0-3.7835-1.7564-3.9186-4.0532 0-2.2968 1.7569-4.0532 3.9186-4.0532z"/>
  <polygon transform="matrix(1.3511 0 0 1.3511 26.458 212.46)" points="96.3 15.4 96.3 12.2 101.3 12.2 101.3 24.9 102.8 24.9 102.8 28.1 96.3 28.1 96.3 24.9 97.8 24.9 97.8 15.4"/>
  <path d="m173.72 233.67c-4.5936 0-8.1064 3.5138-8.1064 8.5128 0 4.999 3.5127 8.5128 8.1064 8.5128 2.1617 0 3.6473-0.67761 4.8633-2.1638v1.892h6.6207v-4.3224h-1.7574v-7.8372h1.7574v-4.3223h-6.3489v2.0266c-1.351-1.6213-2.8383-2.2984-5.1351-2.2984zm0.81008 4.1904c2.2968 0 4.0532 1.7559 4.0532 4.1878 0 2.4319-1.7564 4.1877-4.0532 4.1877s-3.9181-1.6207-4.0532-4.1877c0-2.4319 1.7564-4.1878 4.0532-4.1878z"/>
  <path d="m26.458 212.46v54.177h54.177v-54.177zm45.261 14.996c1.6213 0 2.8367 1.3505 2.8367 2.8367 0 1.4862-1.2154 2.8394-2.8367 2.8394-1.6213 0-2.8367-1.3531-2.8367-2.8394 0-1.6213 1.3505-2.8367 2.8367-2.8367zm-39.046 1.4856h8.241c4.1883 0 7.4309 2.0276 7.4309 6.4862 0 2.9723-1.6192 5.4048-4.5915 5.9452l6.6181 8.6473h-6.8899v0.13481l-5.2697-8.1064v8.1064h-5.5388zm5.5388 4.325v5.2696h0.54096c1.7564 0 3.784-0.27013 3.784-2.7021 0-2.2968-2.0277-2.5675-3.784-2.5675zm18.511 1.892c1.6213 0 3.3761 0.67343 4.4569 1.8894v-1.351h5.1351v14.458h-5.2696v-1.6229c-0.94575 1.4862-2.7011 2.0266-4.3223 2.0266-4.3234 0-7.2963-3.5117-7.2963-7.7 0-4.1883 2.9729-7.7 7.2963-7.7zm12.429 0.67552h5.1351v14.321h-5.1351zm-11.212 3.916c-2.0266 0-3.2431 1.4867-3.2431 3.2431 0 1.8915 1.2165 3.2431 3.2431 3.2431s3.2404-1.3516 3.2404-3.2431c0.13512-1.7564-1.0787-3.2431-3.2404-3.2431z"/>
 </g>
</svg>
