<svg width="600" height="239.64" version="1.1" viewBox="0 0 158.75 63.404534" xmlns="http://www.w3.org/2000/svg">
 <g transform="translate(-249.46 -259.12)" fill="#ff510c">
  <path d="m324.89 303.56h-4.9017v-8.2221h5.6922c0.31614 2.3717 0.94871 3.4786 2.5299 3.4786 1.4231 0 2.5299-0.9487 2.5299-2.3717 0-0.79058-0.4745-1.5812-1.1068-2.0555-1.1068-0.63245-2.688-1.1068-4.2692-1.7393-3.6367-1.5812-5.376-3.953-5.376-7.1153 0-4.4273 3.3204-7.7478 7.7478-7.7478 1.423 0 2.688 0.4745 3.9529 1.4231v-0.63245h4.7435v7.1153h-5.2178c-0.31614-1.7393-1.1068-2.688-2.3718-2.688-1.2649 0-2.2136 0.94871-2.2136 2.0555 0 0.9487 0.4745 1.5812 1.1068 2.0555 1.5812 0.79057 3.3204 1.1068 4.9016 2.0555 3.0042 1.5812 4.5854 3.7948 4.5854 6.7991 0 4.5854-3.6368 8.2222-7.9059 8.2222-1.4231 0-2.8461-0.4745-4.2692-1.4231v0.79058z"/>
  <path d="m351.45 283.95c-2.8461 0-4.5866 0.95056-6.0097 2.6898v-2.3717h-7.4303v5.0585h1.8962v15.339h-2.0537v5.0585h9.6446v-5.0585h-1.7387v-3.1624c1.265 1.5812 3.1617 2.3717 5.6916 2.3717 5.5341 0 9.487-4.1123 9.487-9.9626 0-5.8503-4.1111-9.9626-9.487-9.9626zm-1.2662 4.9041c2.688 0 4.7435 2.055 4.7435 4.9011 0 2.8461-2.0555 4.901-4.7435 4.901-2.688 0-4.5854-1.8968-4.7435-4.901 0-2.8461 2.0555-4.9011 4.7435-4.9011z"/>
  <path d="m372.16 283.63c-2.8461 0-5.5328 1.1074-7.4303 3.0048s-2.8467 4.4267-3.0048 7.2728c0 2.8461 1.1074 5.3754 3.0048 7.2728 2.0555 2.0555 4.5841 3.0049 7.4303 3.0049s5.536-1.1075 7.4334-3.0049c2.0555-1.8974 3.0017-4.4267 3.0017-7.2728 0-2.8461-1.1043-5.3754-3.0017-7.2728-2.0555-1.8974-4.5873-3.0048-7.4334-3.0048zm0 5.5341c2.3718 0 4.4285 2.0555 4.4285 4.7435 0 2.688-1.8986 4.7435-4.4285 4.7435-2.5299 0-4.4279-2.0555-4.586-4.7435 0-2.688 2.0561-4.7435 4.586-4.7435z"/>
  <path d="m385.76 289.32h-2.2136v-5.0597h7.4315v2.8461c1.1068-2.2137 2.8461-3.0042 4.7435-3.1624v5.376c-3.1624 0.15837-4.4273 1.7393-4.4273 5.2179v3.953h2.0555v5.0597h-10.12v-5.0597h2.5299z"/>
  <polygon transform="matrix(1.5812 0 0 1.5812 249.46 259.12)" points="93.6 19.1 93.6 15.8 94.7 15.8 94.7 12.2 98.2 12.2 98.2 15.8 100.4 15.8 100.4 19.1 98.2 19.1 98.2 24.9 100 24.9 100 28.1 94.7 28.1 94.7 19.1"/>
  <path d="m249.46 259.12v63.405h63.405v-63.405zm52.969 17.55c1.8974 0 3.3198 1.5806 3.3198 3.3198 0 1.7394-1.4224 3.323-3.3198 3.323s-3.3198-1.5836-3.3198-3.323c0-1.8974 1.5806-3.3198 3.3198-3.3198zm-45.697 1.7387h9.6446c4.9016 0 8.6964 2.373 8.6964 7.5909 0 3.4786-1.8949 6.3253-5.3735 6.9578l7.7453 10.12h-8.0634v0.15777l-6.1672-9.487v9.487h-6.4822zm6.4822 5.0616v6.1672h0.63311c2.0555 0 4.4285-0.31613 4.4285-3.1623 0-2.688-2.373-3.0048-4.4285-3.0048zm21.664 2.2143c1.8974 0 3.9511 0.78813 5.216 2.2112v-1.5812h6.0097v16.92h-6.1675v-1.8993c-1.1068 1.7393-3.1611 2.3717-5.0585 2.3717-5.0598 0-8.539-4.1098-8.539-9.0114 0-4.9017 3.4792-9.0115 8.539-9.0115zm14.546 0.79058h6.0097v16.76h-6.0097zm-13.122 4.583c-2.3718 0-3.7954 1.7399-3.7954 3.7954 0 2.2137 1.4236 3.7954 3.7954 3.7954 2.3717 0 3.7924-1.5818 3.7924-3.7954 0.15837-2.0555-1.2625-3.7954-3.7924-3.7954z"/>
 </g>
</svg>
