<svg width="600" height="233.64" version="1.1" viewBox="0 0 158.75 61.816331" xmlns="http://www.w3.org/2000/svg">
 <g transform="translate(-55.185 -111.88)" fill="#ffcf01">
  <path d="m55.185 111.88v61.816h61.812v-61.816zm53.047 17.189c1.8306 0 3.3383 1.5127 3.3383 3.3485 0 1.8358-1.5077 3.3391-3.3383 3.3391-1.8306 0-3.3391-1.5033-3.3391-3.3391 0-1.8358 1.5085-3.3485 3.3391-3.3485zm-47.018 1.9113h9.588c4.8845 0 8.5808 2.3261 8.5808 7.5948 0 3.4055-1.894 6.3542-5.4055 6.9711l7.761 10.122h-7.991v-4e-3l-6.0521-9.4944h-0.063v9.4943h-6.4183zm6.4183 4.9031v6.1552h0.61978c2.0963 0 4.4558-0.39035 4.4558-3.0729 0-2.683-2.3595-3.0824-4.4558-3.0824zm22.762 2.4287c1.9326 0 3.9651 0.7138 5.2126 2.1956v-1.6365h5.9473v16.793h-5.9473v-1.8712h-0.06851c-1.052 1.6774-3.1119 2.4319-5.0779 2.4319-4.9784 0-8.4769-4.1608-8.4769-8.9698 0-4.824 3.4355-8.9431 8.4107-8.9431zm14.861 0.55678h5.9513v16.795h-5.9513zm-13.289 4.6156c-2.4197 0-3.8289 1.7297-3.8289 3.8014 0 2.1173 1.4093 3.7628 3.8289 3.7628 2.4197 0 3.8336-1.6455 3.8336-3.7628 0-2.0685-1.414-3.8014-3.8336-3.8014z"/>
  <path d="m138.27 137.5c-0.59271-0.50844-1.258-0.90762-1.9959-1.1979-0.7298-0.30241-1.4959-0.45079-2.2862-0.45079-0.28627 0-0.59675 0.0484-0.91932 0.13628-0.33466 0.0819-0.63304 0.21774-0.90722 0.39636-0.27821 0.1754-0.49998 0.38708-0.67336 0.6411-0.18144 0.24798-0.27015 0.55644-0.27015 0.90723 0 0.34474 0.1008 0.65924 0.29837 0.91649 0.19355 0.27217 0.43951 0.49918 0.72175 0.68345 0.28628 0.19071 0.59675 0.33587 0.92739 0.46006 0.32256 0.12096 0.63706 0.22982 0.92335 0.31128l1.6451 0.49594c0.85481 0.26007 1.6532 0.57498 2.4072 0.94069 0.73787 0.36289 1.3951 0.80763 1.9394 1.331 0.54837 0.53506 0.9798 1.1612 1.2983 1.8931 0.32257 0.73828 0.47982 1.612 0.47982 2.6225 0 1.225-0.18144 2.4406-0.5403 3.6353-0.36289 1.1967-1.0403 2.2168-2.0282 3.0555-0.98786 0.83061-2.0927 1.4314-3.3265 1.7943-1.2298 0.36288-2.4757 0.53627-3.7257 0.53627-1.5766 0-3.1128-0.2379-4.5926-0.72982-1.4878-0.49594-2.8588-1.1975-4.1329-2.0926l2.766-5.2099c0.81045 0.70763 1.6894 1.3096 2.633 1.8144 0.95157 0.50522 1.9798 0.75643 3.0966 0.75643 0.37902 0 0.754-0.0484 1.125-0.14839 0.36692-0.0996 0.70561-0.24797 1.004-0.44151 0.29434-0.19677 0.5403-0.45361 0.72175-0.77416 0.1895-0.31451 0.28224-0.69272 0.28224-1.1375 0-0.45966-0.14112-0.84392-0.41127-1.1524-0.27419-0.30523-0.61691-0.56853-1.0242-0.79231-0.40725-0.21491-0.83061-0.40241-1.2862-0.54151-0.44757-0.14193-0.85078-0.25685-1.2016-0.34757-1.008-0.28748-1.9273-0.58989-2.7459-0.9044-0.82658-0.32055-1.5322-0.73182-2.129-1.2431-0.59272-0.50199-1.0483-1.1342-1.3628-1.9023-0.32256-0.77134-0.47982-1.7604-0.47982-2.9672 0-1.252 0.21371-2.3955 0.64111-3.4269 0.43143-1.0342 1.0161-1.9084 1.7782-2.6374 0.76206-0.7165 1.6612-1.2794 2.7015-1.6753 1.0443-0.39918 2.1894-0.59595 3.4474-0.59595 0.63305 0 1.2903 0.0484 1.9717 0.14516 0.67739 0.0968 1.3588 0.2391 2.0282 0.41732 0.66933 0.17257 1.3306 0.38708 1.9798 0.6411 0.63707 0.25403 1.2419 0.53264 1.7943 0.829l-2.5725 5.0087"/>
  <path d="m155.26 138.49c-0.9919 0-1.9515 0.20274-2.891 0.60796-0.93141 0.41128-1.6731 1.0283-2.2255 1.8601h-0.0606v-1.9145h-5.9954v25.341h5.9954v-10.044c0.63707 0.73788 1.4233 1.2905 2.3547 1.6372 0.93141 0.35483 1.8912 0.53158 2.8831 0.53158 1.25 0 2.3956-0.23761 3.4399-0.71743 1.0484-0.46369 1.935-1.1172 2.6728-1.9357 0.73384-0.82255 1.3108-1.7799 1.7302-2.8658 0.41934-1.0887 0.62057-2.2286 0.62057-3.4415 0-1.2129-0.20123-2.3623-0.62057-3.4659-0.41934-1.0919-1.0041-2.0571-1.742-2.8768-0.754-0.82254-1.6576-1.4824-2.7059-1.9751-1.0564-0.49595-2.2097-0.74106-3.4556-0.74106zm-1.5238 5.2024c0.61691 0 1.1616 0.10254 1.6333 0.31422 0.47579 0.20564 0.87437 0.48165 1.201 0.8143 0.33467 0.34757 0.585 0.74971 0.75838 1.2033 0.17741 0.46893 0.26618 0.95899 0.26618 1.4884 0 1.0798-0.33466 1.9775-1.008 2.6972-0.66933 0.729-1.621 1.0954-2.8508 1.0954-1.2258 0-2.1776-0.36644-2.8469-1.0954-0.67337-0.72295-1.0041-1.6207-1.0041-2.6972 0-0.52942 0.0849-1.0195 0.25831-1.4884 0.18547-0.45362 0.43168-0.85576 0.76231-1.2033 0.33064-0.33587 0.72597-0.61148 1.2018-0.8143 0.47579-0.21168 1.0117-0.31422 1.6286-0.31422z"/>
  <path d="m175.68 138.49c-1.3628 0-2.6527 0.19995-3.8825 0.58986-1.2338 0.4024-2.3146 0.9709-3.2501 1.7483-0.92738 0.77135-1.6732 1.7119-2.2216 2.828-0.54836 1.1221-0.82689 2.4109-0.82689 3.8596 0 1.4516 0.27853 2.7304 0.82689 3.8376 0.54837 1.1149 1.2938 2.0467 2.2374 2.8209 0.93947 0.76609 2.0361 1.3468 3.2619 1.742 1.2298 0.39918 2.5162 0.59221 3.8549 0.59221 1.3588 0 2.6613-0.19303 3.8911-0.59221 1.2298-0.39515 2.306-0.9759 3.2414-1.742 0.93545-0.77417 1.678-1.7138 2.2263-2.8327 0.54836-1.1282 0.82217-2.3952 0.82217-3.8258 0-1.4459-0.27381-2.7375-0.82217-3.8596-0.54837-1.1189-1.2909-2.0566-2.2263-2.828-0.93545-0.77738-2.0116-1.3459-3.2414-1.7483-1.2298-0.39314-2.5323-0.58986-3.8911-0.58986zm0 5.2055c0.61288 0 1.1575 0.10254 1.6333 0.31422 0.47579 0.20564 0.87437 0.48165 1.201 0.8143 0.3266 0.34757 0.58097 0.74971 0.75838 1.2033 0.17338 0.46893 0.27012 0.95899 0.27012 1.4884 0 1.0798-0.3386 1.9775-1.012 2.6972-0.66933 0.729-1.621 1.0954-2.8508 1.0954-1.2338 0-2.1776-0.36644-2.8469-1.0954-0.67337-0.72295-1.008-1.6207-1.008-2.6972 0-0.52942 0.0889-1.0195 0.26225-1.4884 0.17741-0.45362 0.42765-0.85576 0.76232-1.2033 0.3266-0.33587 0.72606-0.61148 1.1978-0.8143 0.47579-0.21168 1.0156-0.31422 1.6325-0.31422z"/>
  <path d="m194.05 141.82h0.0645c0.56853-1.0584 1.3266-1.8237 2.2701-2.2926 0.94754-0.47781 2.012-0.70441 3.2015-0.70441h1.1532v5.7615c-0.41933-0.24474-0.82658-0.39312-1.2378-0.46248-0.40321-0.0665-0.83868-0.094-1.3024-0.094-0.83464 0-1.5201 0.12702-2.0564 0.39636-0.5403 0.26289-0.96367 0.61086-1.2661 1.0677-0.31047 0.45361-0.52417 0.98867-0.64514 1.6148-0.12095 0.62619-0.18144 1.3036-0.18144 2.0265v6.8227h-5.9998v-16.907h5.9998v2.7705"/>
  <path d="m210.55 155.93h-6.0188v-11.947h-1.9357v-4.9602h1.9357v-5.0812h6.0188v5.0812h3.3875v4.9602h-3.3875v11.947"/>
 </g>
</svg>
