<svg xmlns="http://www.w3.org/2000/svg" height="167.39" width="600" version="1.1" viewBox="0 0 158.75 44.287293">
 <g transform="translate(-26.458 -126.69)" fill="#cddc29">
  <path d="m26.458 126.69v44.287h44.287v-44.287zm37.998 12.334c1.3065 0 2.3917 1.0848 2.3917 2.3912 0 1.3065-1.0852 2.3917-2.3917 2.3917s-2.3913-1.0852-2.3913-2.3917 1.0848-2.3912 2.3913-2.3912zm-33.68 1.3507h6.8645c3.4987 0 6.134 1.6607 6.134 5.4472 0 2.4358-1.3508 4.5615-3.8751 5.0044l5.58 7.2412h-5.7353l-4.3401-6.7984h-0.04411v6.7984h-4.584zm4.606 3.5209v4.4287h0.44287c1.5058 0 3.1888-0.28787 3.1888-2.2144s-1.683-2.2144-3.1888-2.2144zm16.298 1.7494c1.3729 0 2.8346 0.50921 3.7203 1.5721v-1.1738h4.2735v12.024h-4.274v-1.3286h-0.04455c-0.75288 1.1958-2.2366 1.727-3.6316 1.727-3.5651 0-6.067-2.9894-6.067-6.4217 0-3.4544 2.4578-6.3992 6.0229-6.3992zm10.629 0.39832h4.2739v12.024h-4.2739zm-9.4997 3.2995c-1.7493 0-2.7459 1.2402-2.7459 2.7238 0 1.5279 1.0187 2.7014 2.7459 2.7014 1.7493-0.00001 2.7459-1.1734 2.7459-2.7014 0-1.4836-0.99655-2.7238-2.7459-2.7238z"/>
  <path d="m86.113 144.89c-0.42073-0.3543-0.90789-0.64216-1.4393-0.8636-0.53145-0.22144-1.0629-0.31001-1.6386-0.31001-0.19929 0-0.42073 0.0222-0.66431 0.0886-0.24358 0.0665-0.44287 0.15501-0.64217 0.28787-0.19929 0.13286-0.3543 0.28787-0.48716 0.46502-0.13286 0.17714-0.17715 0.39858-0.17715 0.64216 0 0.26573 0.06643 0.46502 0.22144 0.66431 0.13286 0.19929 0.31001 0.3543 0.5093 0.48716s0.42073 0.24358 0.66431 0.33216c0.24358 0.0886 0.46502 0.155 0.66431 0.22143l1.1736 0.3543c0.62002 0.19929 1.1958 0.42073 1.7272 0.68645 0.53145 0.26573 0.99646 0.57574 1.395 0.95218 0.39859 0.37644 0.7086 0.84146 0.93003 1.3508 0.22144 0.53145 0.33216 1.1515 0.33216 1.8822 0 0.88575-0.13286 1.7494-0.39859 2.613-0.26572 0.86361-0.75288 1.5943-1.4393 2.1922-0.7086 0.59787-1.5058 1.0186-2.3694 1.2843-0.88575 0.26573-1.7715 0.39859-2.6794 0.39859-1.1293 0-2.2365-0.17715-3.2773-0.53145-1.0629-0.35429-2.0594-0.84146-2.9672-1.5058l1.9929-3.7201c0.57573 0.5093 1.2179 0.93003 1.8822 1.3065 0.68645 0.37645 1.4172 0.5536 2.2365 0.5536 0.26572 0 0.53145-0.0222 0.79717-0.11072 0.26572-0.0665 0.5093-0.17715 0.7086-0.31001 0.22144-0.13287 0.39859-0.33216 0.5093-0.55359 0.13286-0.22144 0.19929-0.50931 0.19929-0.81931 0-0.33216-0.08858-0.59789-0.28787-0.81932s-0.44287-0.39859-0.73074-0.57574c-0.28787-0.15501-0.59788-0.28787-0.90789-0.37644-0.33215-0.11072-0.62002-0.17715-0.8636-0.24358-0.73074-0.19929-1.3729-0.42073-1.9708-0.64216-0.59788-0.22144-1.1072-0.53145-1.5279-0.88575-0.42073-0.3543-0.75288-0.81932-0.97432-1.3729-0.22144-0.5536-0.3543-1.2622-0.3543-2.1258 0-0.88575 0.155-1.7051 0.46502-2.458 0.31001-0.73074 0.73074-1.3729 1.2843-1.8822 0.53145-0.5093 1.1958-0.93003 1.9265-1.1958 0.75288-0.28787 1.5722-0.42073 2.4579-0.42073 0.46502 0 0.93003 0.0222 1.4172 0.11073 0.48716 0.0665 0.97432 0.17714 1.4393 0.28786 0.48716 0.13286 0.95218 0.28787 1.4172 0.46502s0.88574 0.37644 1.2843 0.59787z"/>
  <path d="m95.48 158.11h-4.2959v-8.5696h-1.395v-3.543h1.395v-3.6316h4.2959v3.6316h2.4358v3.543h-2.4358z"/>
  <path d="m105.91 145.6c-0.97431 0-1.9046 0.15509-2.8125 0.42081-0.88574 0.26573-1.6608 0.68637-2.3251 1.24-0.66431 0.55359-1.1956 1.2403-1.5942 2.0375-0.39858 0.79718-0.5977 1.7272-0.5977 2.768s0.19912 1.9483 0.5977 2.7455c0.39859 0.79717 0.93021 1.4618 1.6167 2.0154 0.68646 0.55358 1.4614 0.97414 2.3471 1.262 0.88574 0.28786 1.8158 0.42082 2.768 0.42082 0.97433 0 1.9043-0.13296 2.79-0.42082 0.88574-0.28787 1.6608-0.70843 2.3251-1.262 0.66431-0.55359 1.1956-1.2403 1.5942-2.0375 0.37644-0.79717 0.57608-1.7048 0.57608-2.7234 0-1.0408-0.17749-1.9708-0.57608-2.768-0.39858-0.81931-0.92985-1.4839-1.5942-2.0375-0.66431-0.53145-1.4393-0.95209-2.3251-1.24-0.88575-0.28787-1.8157-0.42081-2.79-0.42081zm0 3.7424c0.44288 0 0.84121 0.0665 1.1734 0.22144 0.3543 0.13286 0.64225 0.33207 0.86369 0.57565 0.22143 0.24357 0.39866 0.53153 0.53153 0.86369 0.13286 0.33215 0.19938 0.68662 0.19938 1.0631 0 0.75289-0.2217 1.3949-0.70885 1.9263-0.48717 0.50931-1.1513 0.77504-2.037 0.77504-0.88576 0-1.5499-0.26573-2.037-0.77504-0.48716-0.5093-0.73092-1.1513-0.73092-1.9263 0-0.37644 0.0444-0.73091 0.17733-1.0631 0.11072-0.33216 0.28752-0.62012 0.5311-0.86369 0.24358-0.22145 0.53154-0.42065 0.86369-0.57565 0.33216-0.15501 0.73092-0.22144 1.1738-0.22144z"/>
  <path d="m119.2 147.99h0.0443c0.39858-0.75289 0.95217-1.3065 1.6386-1.6386 0.68646-0.33215 1.4393-0.5093 2.2808-0.5093h0.81931v4.1187c-0.28787-0.17715-0.59788-0.28786-0.88574-0.33215-0.28787-0.0443-0.59788-0.0664-0.93003-0.0664-0.59788 0-1.085 0.0886-1.4836 0.28786-0.39858 0.17715-0.68645 0.44288-0.90789 0.77504-0.22144 0.33215-0.37644 0.70859-0.46502 1.1515-0.0886 0.44288-0.13286 0.93004-0.13286 1.4393v4.8937h-4.2959v-12.113h4.2959z"/>
  <path d="m127.99 138.96c0.33215 0 0.64216 0.0665 0.93003 0.17714 0.28787 0.13286 0.5536 0.31001 0.77503 0.50931 0.22143 0.22144 0.39858 0.48716 0.5093 0.77503 0.13286 0.28787 0.17715 0.59787 0.17715 0.93003 0 0.33215-0.0665 0.64216-0.17715 0.93003-0.13286 0.28787-0.31001 0.5536-0.5093 0.77503-0.22143 0.22143-0.46502 0.39858-0.77503 0.53145-0.28787 0.11071-0.59788 0.17715-0.93003 0.17715-0.33216 0-0.64216-0.0665-0.93003-0.17715-0.28787-0.13287-0.5536-0.31002-0.77503-0.53145-0.22144-0.22143-0.39858-0.46502-0.50931-0.77503-0.13286-0.28787-0.17714-0.59788-0.17714-0.93003 0-0.33216 0.0665-0.64216 0.17714-0.93003 0.13286-0.28787 0.28787-0.55359 0.50931-0.77503 0.22143-0.22144 0.48716-0.39858 0.77503-0.50931 0.28787-0.13286 0.59787-0.17714 0.93003-0.17714z"/>
  <path d="m130.13 158.11h-4.2959v-12.113h4.2959z"/>
  <path d="m137.93 145.6c-0.88574 0-1.705 0.17723-2.4578 0.53153-0.73074 0.33216-1.3728 0.79735-1.9043 1.3952-0.53144 0.59788-0.93037 1.2841-1.2404 2.0591-0.28787 0.77503-0.44288 1.5943-0.44288 2.4579 0 0.86361 0.15501 1.6832 0.44288 2.4804 0.28786 0.77503 0.70885 1.4612 1.2624 2.0591 0.53144 0.59787 1.1734 1.063 1.9263 1.4173 0.73075 0.33215 1.55 0.50948 2.4579 0.50948 0.7086 0 1.3951-0.13296 2.0816-0.42082 0.66431-0.28787 1.1957-0.73074 1.5721-1.3286h0.0445v1.3507h4.296v-12.09h-4.296v1.1738c-0.44288-0.53145-1.0185-0.93012-1.6828-1.1958-0.66431-0.26572-1.3509-0.39876-2.0595-0.39876zm1.1072 3.7424c0.44287 0 0.84164 0.0665 1.1738 0.22144 0.35429 0.13286 0.61967 0.33207 0.86325 0.57565 0.22143 0.24357 0.39867 0.53153 0.53153 0.86369 0.11072 0.33215 0.17733 0.68662 0.17733 1.0631 0 0.75289-0.2217 1.3949-0.70886 1.9263-0.48716 0.50931-1.1513 0.77504-2.037 0.77504-0.88574 0-1.5499-0.26573-2.037-0.77504-0.46501-0.5093-0.70886-1.1513-0.70886-1.9263 0-0.37644 0.0444-0.73091 0.17733-1.0631 0.11071-0.33216 0.28795-0.62012 0.53153-0.86369 0.24358-0.22145 0.5311-0.42065 0.86325-0.57565 0.33216-0.15501 0.73091-0.22144 1.1738-0.22144z"/>
  <path d="m149.76 139.53v18.689h35.452v-18.689zm23.339 1.8602c0.90789 0.0222 1.8381-0.0444 2.7238 0.15483 1.5501 0.31002 2.9451 1.218 3.9858 2.4137 0.86361 0.99647 1.506 2.1924 1.7274 3.4989 0.31002 1.7715 0.022 3.6758-0.95235 5.2038-0.79717 1.2622-1.9486 2.3472-3.3216 2.9894-0.90788 0.42073-1.9043 0.64182-2.9007 0.64182h-5.7794v-14.88c1.5058 0 3.0112 0.0001 4.517-0.0221zm-20.837 0.0221h3.8531v5.7573h5.58v-5.7574h3.8976v14.88h-3.8976v-6.1336h-5.558v6.1336h-3.8751zm20.195 3.2995v8.3039c0.68645 0 1.3507 0.0443 2.015-0.11072 0.97431-0.19929 1.9043-0.7752 2.4578-1.6167 0.5536-0.84145 0.70877-1.9263 0.6202-2.9228-0.13286-1.4615-1.0852-2.9231-2.5024-3.3882-0.84146-0.22144-1.727-0.24341-2.5906-0.26555z"/>
 </g>
</svg>
