<svg width="600" height="223.19" version="1.1" viewBox="0 0 158.75 59.05165" xmlns="http://www.w3.org/2000/svg">
 <g transform="translate(-26.458 -210.02)" fill="#d7db14">
  <path d="m97.144 251.4h-4.5651v-7.6576h5.3014c0.29443 2.2089 0.88357 3.2398 2.3562 3.2398 1.3254 0 2.3562-0.88358 2.3562-2.2089 0-0.73636-0.44192-1.4727-1.0308-1.9144-1.0308-0.58909-2.5035-1.0308-3.9761-1.6199-3.387-1.4727-5.0069-3.6816-5.0069-6.6268 0-4.1233 3.0925-7.2159 7.2159-7.2159 1.3253 0 2.5035 0.44193 3.6816 1.3254v-0.58908h4.2706v6.6268h-4.8597c-0.29443-1.6199-1.0308-2.5034-2.2089-2.5034-1.1781 0-2.0617 0.88357-2.0617 1.9144 0 0.88357 0.44193 1.4726 1.0308 1.9144 1.4726 0.73636 3.0925 1.0308 4.5651 1.9144 2.798 1.4727 4.2706 3.5343 4.2706 6.3323 0 4.2706-3.387 7.6576-7.3631 7.6576-1.3253 0-2.6507-0.44193-3.9761-1.3253z"/>
  <polygon transform="matrix(1.4726 0 0 1.4726 26.458 210.02)" points="56.1 19.1 56.1 15.8 57.6 15.8 57.6 12.2 61.1 12.2 61.1 15.8 63.4 15.8 63.4 19.1 61.1 19.1 61.1 24.9 63.1 24.9 63.1 28.1 57.6 28.1 57.6 19.1"/>
  <path d="m129.84 232.85c-2.6507 0-5.153 1.0314-6.9202 2.7986-1.9144 1.7672-2.7986 4.1228-2.7986 6.7735 0 2.6507 1.0314 5.0063 2.7986 6.7735 1.9144 1.9144 4.2694 2.7986 6.9202 2.7986 2.6507 0 5.1559-1.0314 6.923-2.7986 1.9144-1.7672 2.7986-4.1228 2.7986-6.7735 0-2.6507-1.0315-5.0064-2.7986-6.7735-1.9144-1.7672-4.2723-2.7986-6.923-2.7986zm-0.14694 5.1542c2.209 0 4.1245 1.9144 4.1245 4.4179 0 2.5034-1.7683 4.4179-4.1245 4.4179-2.2089 0-4.1239-1.9144-4.2712-4.4179 0-2.5035 1.915-4.4179 4.2712-4.4179z"/>
  <path d="m142.35 238.15h-2.0617v-4.7124h6.9213v2.6507c1.0308-2.0616 2.6507-2.7979 4.8597-2.9452v5.0069c-3.387 0.14749-4.7124 1.6199-4.7124 4.8597v3.6815h2.0617v4.7124h-9.4248v-4.7124h2.3562z"/>
  <path d="m155.9 238.15h-2.2089v-4.7124h7.3631v13.254h2.3562v4.7124h-9.7193v-4.7124h2.2089z"/>
  <path d="m155.9 227.99h5.1542v4.4179h-5.1542z"/>
  <path d="m172.69 233.14c-5.0069 0-8.8357 3.83-8.8357 9.2787 0 5.4487 3.8288 9.2787 8.8357 9.2787 2.3562 0 4.1228-0.73859 5.3009-2.3585v2.0622h7.2164v-4.7112h-1.9156v-8.5424h1.9156v-4.7112h-6.923v2.2089c-1.4727-1.7672-3.0908-2.5052-5.5943-2.5052zm1.0297 4.5674c2.5034 0 4.4179 1.9139 4.4179 4.5646 0 2.6507-1.9144 4.5645-4.4179 4.5645s-4.4179-1.7665-4.4179-4.5645c0-2.6507 1.9144-4.5646 4.4179-4.5646z"/>
  <path d="m26.458 210.02v59.052h59.052v-59.052zm49.333 16.346c1.7671 0 3.0919 1.472 3.0919 3.0919 0 1.6199-1.3248 3.0948-3.0919 3.0948-1.7671 0-3.0919-1.4749-3.0919-3.0948 0-1.7672 1.4721-3.0919 3.0919-3.0919zm-42.559 1.6193h8.9824c4.5651 0 8.0994 2.2101 8.0994 7.0698 0 3.2398-1.7648 5.891-5.0046 6.4801l7.2136 9.4253h-7.5098v0.14694l-5.7438-8.836v8.8357h-6.0372zm6.0372 4.7141v5.7438h0.58963c1.9144 0 4.1245-0.29443 4.1245-2.9452 0-2.5034-2.2101-2.7986-4.1245-2.7986zm20.177 2.0622c1.7671 0 3.6798 0.73402 4.8579 2.0594v-1.4726h5.5971v15.759h-5.7438v-1.7689c-1.0308 1.6199-2.9441 2.2089-4.7112 2.2089-4.7124 0-7.9527-3.8277-7.9527-8.3928 0-4.5651 3.2403-8.3928 7.9527-8.3928zm13.547 0.7363h5.5971v15.609h-5.5971zm-12.221 4.2683c-2.2089 0-3.5349 1.6204-3.5349 3.5348 0 2.0617 1.3259 3.5349 3.5349 3.5349 2.2089 0 3.532-1.4732 3.532-3.5349 0.14727-1.9144-1.1758-3.5348-3.532-3.5348z"/>
 </g>
</svg>
