<svg width="600" height="146.94" version="1.1" viewBox="0 0 158.75 38.877311" xmlns="http://www.w3.org/2000/svg">
 <g transform="translate(-26.458 -129.39)" fill="#ffcf01">
  <path d="m26.458 129.39v38.877h38.875v-38.877zm33.362 10.811c1.1513 0 2.0995 0.95088 2.0995 2.1055 0 1.1546-0.94823 2.1-2.0995 2.1s-2.1-0.94543-2.1-2.1c0-1.1546 0.94873-2.1055 2.1-2.1055zm-29.57 1.2021h6.0301c3.0719 0 5.3966 1.4624 5.3966 4.776 0 2.1418-1.1912 3.9968-3.3996 4.3848l4.881 6.3659h-5.0256v-3e-3l-3.8063-5.9716h-0.03963v5.9716h-4.0366zm4.0366 3.0831v3.8711h0.38979c1.3184 0 2.8018-0.24549 2.8018-1.9326 0-1.6874-1.4834-1.9385-2.8018-1.9385zm14.316 1.528c1.2154 0 2.4937 0.44843 3.2783 1.3804v-1.0287h3.7404v10.561h-3.7404v-1.1768h-0.04309c-0.6616 1.0549-1.9571 1.5289-3.1936 1.5289-3.131 0-5.3312-2.6163-5.3312-5.6408 0-3.0339 2.1606-5.6244 5.2896-5.6244zm9.3465 0.34968h3.7429v10.563h-3.7429zm-8.3574 2.9029c-1.5218 0-2.4081 1.0878-2.4081 2.3907 0 1.3316 0.8863 2.3665 2.4081 2.3665 1.5218 0 2.411-1.0349 2.411-2.3665 0-1.3009-0.88928-2.3907-2.411-2.3907z"/>
  <path d="m78.712 145.51c-0.37277-0.31977-0.79119-0.57082-1.2552-0.7534-0.45899-0.1902-0.9408-0.28351-1.4378-0.28351-0.18005 0-0.37531 0.0304-0.57818 0.0857-0.21048 0.0515-0.39813 0.13694-0.57057 0.24927-0.17498 0.11031-0.31445 0.24345-0.42349 0.4032-0.11411 0.15596-0.1699 0.34995-0.1699 0.57057 0 0.21682 0.0634 0.41461 0.18765 0.5764 0.12172 0.17117 0.27641 0.31394 0.45392 0.42983 0.18005 0.11994 0.37531 0.21124 0.58325 0.28934 0.20287 0.0761 0.40066 0.14454 0.58071 0.19577l1.0346 0.31191c0.5376 0.16356 1.0397 0.36161 1.5139 0.59161 0.46406 0.22823 0.87741 0.50793 1.2197 0.83709 0.34488 0.3365 0.61621 0.73033 0.81654 1.1906 0.20287 0.46432 0.30177 1.0138 0.30177 1.6493 0 0.77039-0.11412 1.535-0.33981 2.2863-0.22822 0.75264-0.65425 1.3942-1.2755 1.9217-0.62128 0.52238-1.3161 0.90023-2.0921 1.1284-0.77344 0.22823-1.557 0.33727-2.3431 0.33727-0.99152 0-1.9577-0.14961-2.8883-0.45899-0.93573-0.31191-1.7979-0.75315-2.5992-1.3161l1.7396-3.2766c0.50971 0.44504 1.0625 0.82364 1.6559 1.1411 0.59846 0.31774 1.2451 0.47573 1.9475 0.47573 0.23837 0 0.4742-0.0304 0.7075-0.0933 0.23076-0.0626 0.44377-0.15596 0.63143-0.27768 0.18512-0.12375 0.3398-0.28528 0.45392-0.48688 0.11918-0.1978 0.17751-0.43566 0.17751-0.71537 0-0.28908-0.08876-0.53075-0.25866-0.72474-0.17244-0.19197-0.38799-0.35756-0.64411-0.4983-0.25612-0.13516-0.52239-0.25308-0.80894-0.34056-0.28148-0.0893-0.53506-0.16154-0.75568-0.2186-0.63396-0.1808-1.2121-0.37099-1.7269-0.56879-0.51985-0.2016-0.96363-0.46026-1.3389-0.7818-0.37277-0.31572-0.65932-0.71334-0.85712-1.1964-0.20287-0.48511-0.30176-1.1072-0.30176-1.8661 0-0.78739 0.1344-1.5066 0.4032-2.1552 0.27134-0.65045 0.63904-1.2002 1.1183-1.6587 0.47928-0.45062 1.0448-0.80463 1.699-1.0536 0.65679-0.25105 1.377-0.37481 2.1682-0.37481 0.39813 0 0.81148 0.0304 1.24 0.0913 0.42602 0.0609 0.85458 0.15037 1.2755 0.26246 0.42095 0.10853 0.83683 0.24344 1.2451 0.4032 0.40067 0.15976 0.78104 0.33498 1.1285 0.52137l-1.6179 3.15"/>
  <path d="m89.398 146.13c-0.62382 0-1.2273 0.1275-1.8182 0.38235-0.58578 0.25866-1.0523 0.64672-1.3997 1.1699h-0.03814v-1.204h-3.7706v15.937h3.7706v-6.3168c0.40067 0.46406 0.89512 0.81161 1.4809 1.0297 0.58578 0.22315 1.1894 0.33481 1.8132 0.33481 0.78612 0 1.5066-0.14944 2.1634-0.4512 0.65932-0.29163 1.2169-0.70264 1.681-1.2174 0.46153-0.51732 0.82441-1.1194 1.0881-1.8023 0.26373-0.68468 0.39028-1.4021 0.39028-2.1649 0-0.76278-0.12655-1.4857-0.39028-2.1797-0.26373-0.68671-0.6315-1.2937-1.0956-1.8093-0.4742-0.51732-1.0425-0.9318-1.7018-1.2417-0.66439-0.31191-1.3897-0.46606-2.1733-0.46606zm-0.95838 3.2714c0.38799 0 0.73053 0.065 1.0272 0.19811 0.29923 0.12933 0.54991 0.30242 0.75531 0.51163 0.21048 0.21859 0.36792 0.47151 0.47696 0.75679 0.11158 0.29492 0.1674 0.60313 0.1674 0.93609 0 0.6791-0.21048 1.2442-0.63396 1.6968-0.42095 0.45849-1.0195 0.68844-1.7929 0.68844-0.7709 0-1.3695-0.22995-1.7904-0.68844-0.42349-0.45468-0.63149-1.0198-0.63149-1.6968 0-0.33296 0.05341-0.64117 0.16245-0.93609 0.11665-0.28528 0.2715-0.5382 0.47944-0.75679 0.20794-0.21124 0.45657-0.38407 0.7558-0.51163 0.29923-0.13313 0.63626-0.19811 1.0242-0.19811z"/>
  <path d="m102.24 146.13c-0.85711 0-1.6683 0.12575-2.4417 0.37096-0.77597 0.25308-1.4557 0.61062-2.044 1.0995-0.58324 0.48511-1.0523 1.0762-1.3972 1.7781-0.34487 0.70573-0.52005 1.5163-0.52005 2.4274 0 0.91291 0.17517 1.7177 0.52005 2.414 0.34488 0.70117 0.81371 1.2867 1.4071 1.7736 0.59086 0.48181 1.2806 0.84705 2.0515 1.0956 0.77344 0.25105 1.5825 0.37295 2.4244 0.37295 0.85459 0 1.6738-0.1219 2.4472-0.37295 0.77344-0.24851 1.4503-0.61375 2.0386-1.0956 0.58832-0.48689 1.0553-1.0778 1.4002-1.7815 0.34487-0.70953 0.51707-1.5064 0.51707-2.4061 0-0.90936-0.1722-1.7217-0.51707-2.4274-0.34488-0.7037-0.81185-1.293-1.4002-1.7781-0.58832-0.48891-1.2652-0.84645-2.0386-1.0995-0.77344-0.24724-1.5926-0.37096-2.4472-0.37096zm0 3.2733c0.38545 0 0.72799 0.065 1.0272 0.19811 0.29923 0.12933 0.54991 0.30242 0.75531 0.51163 0.20541 0.21859 0.36538 0.47151 0.47696 0.75679 0.10904 0.29492 0.16988 0.60313 0.16988 0.93609 0 0.6791-0.21295 1.2442-0.63644 1.6968-0.42095 0.45849-1.0195 0.68844-1.7929 0.68844-0.77597 0-1.3695-0.22995-1.7904-0.68844-0.42349-0.45468-0.63396-1.0198-0.63396-1.6968 0-0.33296 0.05589-0.64117 0.16493-0.93609 0.11158-0.28528 0.26896-0.5382 0.47943-0.75679 0.2054-0.21124 0.45614-0.38407 0.75283-0.51163 0.29924-0.13313 0.63924-0.19811 1.0272-0.19811z"/>
  <path d="m113.79 148.23h0.0406c0.35755-0.66566 0.83429-1.147 1.4277-1.4419 0.59592-0.3005 1.2654-0.44301 2.0135-0.44301h0.72525v3.6235c-0.26372-0.15392-0.51985-0.24724-0.7785-0.29086-0.25359-0.0418-0.52746-0.0591-0.81908-0.0591-0.52493 0-0.95602 0.0799-1.2933 0.24927-0.3398 0.16534-0.60607 0.38418-0.79625 0.6715-0.19527 0.28528-0.32967 0.62178-0.40574 1.0156-0.0761 0.39382-0.11412 0.81984-0.11412 1.2745v4.2909h-3.7734v-10.633h3.7734v1.7424"/>
  <path d="m124.17 157.1h-3.7853v-7.5136h-1.2174v-3.1196h1.2174v-3.1956h3.7853v3.1956h2.1304v3.1196h-2.1304v7.5136"/>
  <path d="m154.32 141.5c3e-3 5.1899 3e-3 10.379 0 15.568 10.296 3e-3 20.588 3e-3 30.884 0v-15.566c-10.296-3e-3 -20.588-4.1e-4 -30.884-2e-3zm8.5432 3.0301c2e-3 1.2177 0 2.4357 0 3.6537h3.5324c0-1.2172-2e-3 -2.4345 0-3.6517 0.82668-3e-3 1.6531-1e-3 2.4824-1e-3v9.4555c-0.82668 2e-3 -1.6557 2e-3 -2.4824 9.7e-4 -2e-3 -1.2971 0-2.5934 0-3.8904-1.1766-5.6e-4 -2.3557 8.3e-4 -3.5324-5.6e-4v3.8914c-0.82162 0-1.6409 1e-3 -2.4626-5.6e-4 0-3.1521-2e-3 -6.3044 0-9.4565 0.82162-8.3e-4 1.6409 5.6e-4 2.4626-5.5e-4zm12.874 9.7e-4c0.29162 4e-3 0.5831 0.0202 0.8722 0.0778 0.78103 0.14353 1.5091 0.52044 2.1025 1.0426 0.73287 0.6365 1.3084 1.4731 1.5468 2.4204 0.30683 1.2094 0.14458 2.5528-0.52995 3.6131-0.67455 1.0618-1.7345 1.922-2.9796 2.1946-0.62128 0.14682-1.2606 0.10236-1.892 0.10946-0.91797-8.3e-4 -1.8334 9.7e-4 -2.7488-5.6e-4v-9.4564c0.91798-8.3e-4 1.8364 0 2.7518 0 0.29162 5e-3 0.58552-5e-3 0.87715-9.7e-4zm-1.1664 2.0956c0 1.7558 0 3.5115 2e-3 5.2674 0.40066-6e-3 0.80888 0.0234 1.207-0.0579 0.63903-0.11234 1.235-0.47376 1.6027-1.0119 0.36516-0.52999 0.47171-1.1996 0.42099-1.8306-0.0735-0.93674-0.65962-1.8811-1.5725-2.1966-0.5376-0.14505-1.1028-0.16505-1.6607-0.17038z"/>
  <path d="m137.71 141.5v5.5623h-5.5623v4.4456h5.5623v5.5623h4.4456v-5.5623h5.5623v-4.4456h-5.5623v-5.5623z"/>
 </g>
</svg>
