<svg xmlns="http://www.w3.org/2000/svg" height="213.49" width="600" version="1.1" viewBox="0 0 158.74998 56.484712">
 <g transform="translate(-7.4004 -120.59)" stroke-width=".28242" fill="#235ed1">
  <path d="m81.96 144c-1.045-0.87551-2.4006-1.4686-3.8127-1.4686-1.045 0-2.4571 0.62133-2.4571 1.864 0 1.2992 1.5533 1.7793 2.5701 2.1182l1.4686 0.45187c3.0784 0.90377 5.479 2.4571 5.479 6.0439 0 2.2029-0.53661 4.4623-2.2876 5.9591-1.7228 1.4686-4.0669 2.0899-6.298 2.0899-2.796 0-5.5355-0.932-7.7949-2.5136l2.4571-4.6317c1.4404 1.2709 3.1349 2.2876 5.1119 2.2876 1.3556 0 2.796-0.67781 2.796-2.2311 0-1.6098-2.2594-2.1747-3.5021-2.5136-3.615-1.0167-5.9874-1.977-5.9874-6.2698 0-4.4905 3.1914-7.4277 7.6537-7.4277 2.2311 0 4.9707 0.70605 6.9476 1.8358z"/>
  <path d="m98.652 150.27c-0.79079-0.59309-1.7228-1.045-2.7678-1.045-2.0617 0-3.6715 1.5816-3.6715 3.6715 0 2.1747 1.5533 3.6998 3.7562 3.6998 0.93199 0 1.977-0.3954 2.683-1.0167v4.5188c-1.1862 0.59309-2.4571 0.84727-3.7562 0.84727-4.4623 0-8.1903-3.3326-8.1903-7.8796 0-4.8577 3.6997-8.1903 8.4445-8.1903 1.2427 0 2.4571 0.28243 3.5303 0.87551v4.5188z"/>
  <path d="m107.24 145.39v8.0491c0 1.9205 0.48013 3.2761 2.683 3.2761s2.683-1.3556 2.683-3.2761v-8.0491h5.3378v9.094c0 4.9706-3.502 6.4957-8.0208 6.4957s-8.0208-1.5251-8.0208-6.4957v-9.094z"/>
  <path d="m129.29 144.88c-4.8577 0-9.0938 2.909-9.0938 8.0491s4.2644 8.0209 9.0938 8.0209c4.8577 0 9.0944-2.9091 9.0944-8.0209 0-5.1401-4.2367-8.0491-9.0944-8.0491zm0.0287 4.6319c2.1747 0 3.4454 1.5532 3.4454 3.4172 0 1.9205-1.2707 3.3891-3.4454 3.3891-2.1746 0-3.4459-1.4686-3.4459-3.3891 0-1.864 1.2712-3.4172 3.4459-3.4172z"/>
  <path d="m146.16 160.44h-5.3378v-24.373h5.3378z"/>
  <path d="m156.15 144.88c-4.4905 0-7.5692 3.6999-7.5692 8.021s3.1631 8.049 7.6254 8.049c1.751 0 3.6149-0.67814 4.5469-2.175h0.0567v1.6664h5.3374v-15.053h-5.3374v1.4684c-1.1015-1.3274-2.9372-1.977-4.66-1.977zm1.4121 4.6319c2.1746 0 3.4453 1.5532 3.4453 3.4172 0 1.9205-1.2707 3.3891-3.4453 3.3891-2.1747 0-3.4459-1.4686-3.4459-3.3891 0-1.864 1.2712-3.4172 3.4459-3.4172z"/>
  <path d="m7.4004 120.59v56.485h56.485v-56.485h-0.02817zm48.464 15.731c1.6663 0 3.0504 1.3841 3.0504 3.0504s-1.3841 3.0504-3.0504 3.0504-3.0498-1.3841-3.0498-3.0504 1.3835-3.0504 3.0498-3.0504zm-42.957 1.7232h8.7551c4.4623 0 7.8235 2.1181 7.8235 6.9475 0 3.1067-1.7228 5.8178-4.9424 6.3827l7.1168 9.235h-7.3149l-5.5354-8.6702h-0.05626v8.6702h-5.8465zm5.8465 4.4901v5.6485h0.56485c1.9205 0 4.0664-0.36716 4.0664-2.8242 0-2.4571-2.146-2.8242-4.0664-2.8242zm20.814 2.2312c1.751 0 3.6152 0.64947 4.7449 2.0051v-1.4965h5.4504v15.335h-5.4504v-1.6946h-0.05678c-0.96024 1.5251-2.8526 2.2031-4.6318 2.2031-4.547 0-7.738-3.8127-7.738-8.1903 0-4.4058 3.1347-8.1622 7.6817-8.1622zm13.556 0.50859h5.451v15.335h-5.451zm-12.116 4.2082c-2.2311 0-3.5022 1.5812-3.5022 3.4735 0 1.9487 1.2993 3.4459 3.5022 3.4459 2.2311 0 3.5022-1.4972 3.5022-3.4459 0-1.8922-1.271-3.4735-3.5022-3.4735z"/>
 </g>
</svg>
