<svg xmlns="http://www.w3.org/2000/svg" height="320.88" width="600" version="1.1" viewBox="0 0 158.75 84.900571">
 <g transform="translate(264.94 -307.89)">
  <path d="m-264.94 307.89v66.23h16.341l-0.1332 18.671 19.004-18.671h31.019v-66.23zm57.183 18.112c1.0033 0.0312 1.881 0.40736 2.6021 1.1284 0.72108 0.7211 1.0972 1.5988 1.0972 2.6021 0 1.0032-0.37616 1.881-1.0972 2.602-0.72109 0.7211-1.5988 1.0979-2.6021 1.0979-1.0032 0-1.8816-0.3768-2.6027-1.0979-0.72108-0.72108-1.0972-1.5988-1.0972-2.602 0-1.0033 0.37616-1.881 1.0972-2.6021 0.7211-0.72108 1.5995-1.0972 2.6027-1.0972zm-52.609 2.1002h10.66c2.7276 0.0312 4.9848 0.72105 6.8032 2.0378 1.8184 1.3481 2.7275 3.4804 2.7275 6.4275 0 1.8811-0.5014 3.5739-1.536 5.0474s-2.5082 2.3828-4.452 2.6963v-0.0313h-0.0624l8.6213 11.223h-8.8722l-6.7096-10.534h-0.0624v10.534h-7.1171zm7.1171 5.455v6.835h0.68968c0.12542 0.0314 0.25097 0.0313 0.37637 0.0313h0.31331c1.066-0.0626 2.0382-0.2818 2.916-0.75208 0.87785-0.43893 1.3163-1.3483 1.3163-2.6651s-0.43845-2.2262-1.3163-2.6651c-0.87784-0.43893-1.8501-0.68938-2.916-0.75209h-0.68968zm25.426 2.7594h0.37571c0.12542 0 0.25096-0.00015 0.37638 0.0313 0.94055 0.0626 1.8814 0.31329 2.7906 0.72087 0.9092 0.40757 1.6612 0.97223 2.2569 1.6933v-1.85h6.5841v18.591h-6.6153v-2.069h-0.0624c-0.53298 0.87785-1.2546 1.5053-2.1951 1.9442-0.90921 0.43892-1.8809 0.65817-2.8842 0.72087-0.094 0.0313-0.18806 0.0313-0.28212 0.0313h-0.28211c-2.759 0-5.0163-0.97207-6.772-2.9472-1.7557-1.9752-2.6332-4.2949-2.6332-6.9598s0.8777-4.9847 2.6021-6.9598c1.7243-1.9752 3.9818-2.9472 6.7408-2.9472zm16.741 0.53303h6.6153v18.654h-6.6153zm-15.018 5.1417c-1.3168 0.0313-2.3826 0.43861-3.1351 1.2851-0.75246 0.84649-1.1284 1.8186-1.1284 2.9472 0 1.1914 0.37598 2.1946 1.1284 2.9784 0.75245 0.78378 1.787 1.1915 3.1351 1.1915s2.414-0.40771 3.1351-1.1915c0.75245-0.78379 1.0979-1.7871 1.0979-2.9784 0-1.1287-0.37681-2.1321-1.0979-2.9472-0.75244-0.8465-1.7869-1.2539-3.1351-1.2539z" stroke-width=".33281" fill="#02ad45"/>
  <g stroke-width="1.2813">
   <path d="m-183.96 342.4-10.25-14.35h8.5844l5.125 7.5594 5.125-7.5594h8.5844l-10.25 14.35v13.325h-7.175z" fill="#fe0000"/>
   <path d="m-160.13 336.25c-2.9469 0-5.6376 0.89677-8.072 2.5624-2.1782 1.7938-3.3314 4.228-3.3314 7.4311s1.1532 5.7661 3.4594 7.4318c2.3063 1.6656 4.9971 2.5624 7.944 2.5624 3.075 0 5.6377-0.76864 7.944-2.5624 2.1781-1.6656 3.3314-4.0999 3.3314-7.303s-1.0251-5.638-3.3314-7.4317c-2.3063-1.7938-4.869-2.6905-7.944-2.6905zm0 5.7657c1.4094 0.12815 2.4346 0.51245 3.2033 1.2812 0.76876 0.76874 1.1532 1.7934 1.1532 2.9466 0 1.1531-0.3844 2.1785-1.1532 2.9472-0.76875 0.76875-1.7939 1.1531-3.2033 1.1531s-2.4346-0.38439-3.2033-1.1531c-0.76876-0.76876-1.1532-1.7941-1.1532-2.9472s0.3844-2.0497 1.1532-2.9466c0.76874-0.76875 1.9221-1.2812 3.2033-1.2812z" fill="#ffb502"/>
   <path d="m-141.81 342.4-10.25-14.35h8.5844l5.125 7.5594 5.125-7.5594h8.5844l-10.25 14.35v13.325h-7.175z" fill="#02ad45"/>
   <path d="m-117.47 336.25c-2.9469 0-5.6376 0.89677-8.072 2.5624-2.1781 1.7938-3.3314 4.228-3.3314 7.4311s1.1532 5.7661 3.4594 7.4318c2.3063 1.6656 4.9971 2.5624 7.944 2.5624 3.075 0 5.6377-0.76864 7.944-2.5624 2.1782-1.6656 3.3314-4.0999 3.3314-7.303s-1.0251-5.638-3.3314-7.4317c-2.3062-1.7938-4.869-2.6905-7.944-2.6905zm0 5.7657c1.4094 0.12815 2.4346 0.51245 3.2033 1.2812 0.76876 0.76874 1.1532 1.7934 1.1532 2.9466 0 1.1531-0.38439 2.1785-1.1532 2.9472-0.76875 0.76875-1.7939 1.1531-3.2033 1.1531s-2.4346-0.38439-3.2034-1.1531c-0.76875-0.76876-1.1531-1.7941-1.1531-2.9472s0.38439-2.1778 1.1531-2.9466c0.76876-0.76875 1.9221-1.2812 3.2034-1.2812z" fill="#03d5ed"/>
  </g>
 </g>
</svg>
