<svg xmlns="http://www.w3.org/2000/svg" height="235.12" width="600" version="1.1" viewBox="0 0 158.75 62.208233">
 <g transform="translate(243.73 -319.23)">
  <path d="m-243.73 319.23v48.528h11.973l-0.0976 13.68 13.924-13.68h22.728v-48.53zm41.899 13.271c0.73511 0.0229 1.3782 0.29848 1.9066 0.82683 0.52835 0.52836 0.80397 1.1715 0.80397 1.9066s-0.27562 1.3782-0.80397 1.9066c-0.52836 0.52836-1.1715 0.80445-1.9066 0.80445s-1.3787-0.27609-1.907-0.80445c-0.52835-0.52835-0.80397-1.1715-0.80397-1.9066 0-0.73511 0.27562-1.3782 0.80397-1.9066 0.52836-0.52835 1.172-0.80396 1.907-0.80396zm-38.547 1.5389h7.8106c1.9986 0.0229 3.6524 0.52833 4.9848 1.4932 1.3324 0.9878 1.9985 2.5502 1.9985 4.7095 0 1.3783-0.36738 2.6187-1.1255 3.6984-0.75807 1.0797-1.8378 1.7459-3.2621 1.9756v-0.0229h-0.0457l6.317 8.2236h-6.5008l-4.9162-7.7182h-0.0457v7.7182h-5.2149zm5.2148 3.997v5.0082h0.50534c0.0919 0.023 0.18389 0.0229 0.27577 0.0229h0.22957c0.78105-0.0459 1.4934-0.20648 2.1366-0.55106 0.64322-0.32161 0.96448-0.98795 0.96448-1.9528 0-0.96482-0.32126-1.6312-0.96448-1.9528-0.64321-0.32161-1.3556-0.50512-2.1366-0.55107h-0.50534zm18.63 2.0218h0.27529c0.0919 0 0.18388-0.00011 0.27578 0.0229 0.68916 0.0459 1.3785 0.22956 2.0447 0.5282 0.66619 0.29863 1.2172 0.71237 1.6537 1.2407v-1.3555h4.8243v13.622h-4.8472v-1.516h-0.0457c-0.39052 0.64322-0.91925 1.103-1.6084 1.4246-0.6662 0.32161-1.3782 0.48226-2.1133 0.5282-0.0689 0.0229-0.13779 0.0229-0.20671 0.0229h-0.20671c-2.0215 0-3.6755-0.71225-4.962-2.1595-1.2864-1.4472-1.9294-3.147-1.9294-5.0996s0.64311-3.6524 1.9066-5.0996c1.2634-1.4472 2.9176-2.1595 4.9391-2.1595zm12.267 0.39056h4.8472v13.668h-4.8472zm-11.004 3.7674c-0.96482 0.0229-1.7458 0.32138-2.2971 0.94162-0.55134 0.62024-0.82683 1.3325-0.82683 2.1595 0 0.87294 0.27549 1.608 0.82683 2.1824 0.55133 0.57429 1.3093 0.87303 2.2971 0.87303s1.7688-0.29874 2.2971-0.87303c0.55133-0.5743 0.80445-1.3094 0.80445-2.1824 0-0.82699-0.2761-1.5622-0.80445-2.1595-0.55133-0.62024-1.3093-0.91876-2.2971-0.91876z" stroke-width=".24386" fill="#02ad45"/>
  <g stroke-width=".93880">
   <path d="m-184.39 344.52-7.5104-10.515h6.29l3.7552 5.5389 3.7552-5.5389h6.29l-7.5104 10.515v9.7635h-5.2573z" fill="#fe0000"/>
   <path d="m-166.93 340.02c-2.1592 0-4.1308 0.65708-5.9145 1.8775-1.596 1.3143-2.441 3.0979-2.441 5.4449s0.84496 4.2249 2.5348 5.4454c1.6898 1.2204 3.6615 1.8775 5.8207 1.8775 2.2531 0 4.1308-0.5632 5.8207-1.8775 1.596-1.2204 2.441-3.0041 2.441-5.3511s-0.75113-4.131-2.441-5.4454c-1.6898-1.3143-3.5676-1.9714-5.8207-1.9714zm0 4.2247c1.0327 0.0939 1.7838 0.37548 2.3471 0.93876 0.56328 0.56327 0.84494 1.3141 0.84494 2.159 0 0.84492-0.28166 1.5962-0.84494 2.1595-0.56328 0.56328-1.3144 0.84493-2.3471 0.84493s-1.7839-0.28165-2.3471-0.84493c-0.56328-0.56328-0.84494-1.3146-0.84494-2.1595 0-0.84491 0.28166-1.5018 0.84494-2.159 0.56327-0.56328 1.4083-0.93876 2.3471-0.93876z" fill="#ffb502"/>
   <path d="m-153.51 344.52-7.5104-10.515h6.29l3.7552 5.5389 3.7552-5.5389h6.29l-7.5104 10.515v9.7635h-5.2573z" fill="#02ad45"/>
   <path d="m-135.67 340.02c-2.1592 0-4.1308 0.65708-5.9145 1.8775-1.596 1.3143-2.441 3.0979-2.441 5.4449s0.84496 4.2249 2.5348 5.4454c1.6898 1.2204 3.6614 1.8775 5.8207 1.8775 2.2531 0 4.1308-0.5632 5.8207-1.8775 1.596-1.2204 2.441-3.0041 2.441-5.3511s-0.75112-4.131-2.441-5.4454c-1.6898-1.3143-3.5676-1.9714-5.8207-1.9714zm0 4.2247c1.0327 0.0939 1.7838 0.37548 2.3471 0.93876 0.56328 0.56327 0.84493 1.3141 0.84493 2.159 0 0.84492-0.28165 1.5962-0.84493 2.1595-0.56328 0.56328-1.3145 0.84493-2.3471 0.84493-1.0327 0-1.7839-0.28165-2.3472-0.84493-0.56328-0.56328-0.84493-1.3146-0.84493-2.1595 0-0.84491 0.28165-1.5957 0.84493-2.159 0.56328-0.56328 1.4083-0.93876 2.3472-0.93876z" fill="#03d5ed"/>
  </g>
  <path d="m-124.02 335.22v20.582h39.042v-20.582zm25.703 2.0728c0.99982 0.0243 2.0242-0.049 2.9996 0.1705 1.707 0.34141 3.2433 1.3413 4.3895 2.6582 0.95105 1.0974 1.658 2.4144 1.9018 3.8532 0.3414 1.9509 0.0247 4.0481-1.0483 5.7307-0.87789 1.39-2.146 2.5849-3.6579 3.2921-0.99982 0.46332-2.0976 0.70728-3.1949 0.70728h-6.3646v-16.388c1.6582 0 3.3166 0.00009 4.9748-0.0242zm-22.947 0.0242h4.2432v6.3403h6.145v-6.3403h4.2918v16.388h-4.2918v-6.7552h-6.1208v6.7552h-4.2675zm22.24 3.6336v9.1447c0.75596 0 1.4874 0.0488 2.219-0.12193 1.073-0.21948 2.0976-0.8537 2.7072-1.7804 0.60965-0.92666 0.78006-2.1214 0.68252-3.2187-0.14632-1.6095-1.1946-3.2191-2.7553-3.7312-0.92666-0.24386-1.9024-0.26805-2.8534-0.29244z" stroke-width=".24386" fill="#02ad45"/>
 </g>
</svg>
