<svg width="654.28" height="481.36" version="1.1" viewBox="0 0 654.27899 481.3588" xmlns="http://www.w3.org/2000/svg">
 <path d="m194.85 480.73c-0.35892-0.35892-2.0811-0.61196-3.8271-0.56232-1.9966 0.0568-4.775-1.011-7.4882-2.8776-4.7465-3.2657-16.178-8.9054-18.054-8.9067-0.65356-4.3e-4 -2.6786 1.3679-4.5 3.0407-2.281 2.0949-3.9342 2.8584-5.3117 2.4533-1.1-0.32353-4.5622-0.85242-7.6938-1.1753-4.6629-0.48077-6.2712-0.22149-8.8828 1.4321l-3.189 2.0191-6.3871-2.9889-6.3871-2.9889-3.5036 2.6724c-1.927 1.4698-4.1947 2.5289-5.0393 2.3535-1.409-0.2925-3.3854-3.3583-6.3301-9.8188-1.029-2.2575-1.0976-2.2818-0.70699-0.25 0.57383 2.9852-0.24838 2.833-4.076-0.75463-2.1143-1.9818-4.2339-2.9954-6.2636-2.9954-1.6873 0-4.0742-0.51994-5.3042-1.1554-1.23-0.63548-2.9114-1.4787-3.7364-1.8737-1.5558-0.74503-1.8938-5.2146-0.61147-8.0849 0.55129-1.2339 0.02066-1.7541-2.2533-2.2089-3.7751-0.75502-4.4451-2.9262-3.0065-9.7431 1.3738-6.5098 1.3696-6.7661-0.32068-19.391l-1.3331-9.9566-4.2375-2.0423c-4.737-2.283-5.1528-3.4062-2.2375-6.0445 2.7641-2.5014 2.5009-6.1313-0.65674-9.0577-1.4612-1.3542-2.4737-2.5916-2.25-2.7498 0.2237-0.15817 1.5912-0.79491 3.039-1.415 2.0314-0.87003 2.8798-2.2288 3.7168-5.9525 1.9211-8.5464 2.4665-16.24 1.2548-17.7-0.85328-1.0282-0.77215-1.6555 0.33268-2.5724 0.80365-0.66697 1.9747-2.7688 2.6024-4.6707 0.94189-2.854 0.85946-3.8881-0.4719-5.92-0.88723-1.3541-2.2778-2.462-3.0901-2.462-1.7251 0-1.8066-0.4106-0.54859-2.7636 2.669-4.9922 5.0716-11.102 5.0716-12.897 0-2.333-2.9299-5.3393-5.2037-5.3393-0.88897 0-1.7814-1.1757-2.0994-2.7658-0.41091-2.0545-1.7289-3.337-5.125-4.987-4.0327-1.9592-6.0579-4.2472-3.7596-4.2472 1.1028 0 0.91474-7.1462-0.23506-8.9336-0.76137-1.1836-1.0401-1.0975-1.5982 0.49338-0.60306 1.7192-0.84597 1.5982-2.2525-1.1217-1.4894-2.8802-5.2917-5.4381-8.0838-5.4381-0.69471 0-2.6985 1.4034-4.4529 3.1187s-3.1967 2.7278-3.2052 2.25c-0.0084-0.47776-0.34592-0.3673-0.75 0.24547-0.86886 1.3176-9.0201 0.32132-13.951-1.7051-2.9453-1.2105-3.4202-1.1298-5.6438 0.95915l-2.4279 2.2809-4.174-2.1294c-2.3694-1.2088-5.5308-1.9976-7.3123-1.8245-3.0317 0.29454-3.2298 0.0684-5.8315-6.6543-1.4813-3.8276-3.6385-7.7247-4.7939-8.6603-2.6741-2.1654-3.1366-11.88-0.56554-11.88 1.1607 0 1.3034-0.43318 0.58479-1.7758-0.61116-1.142-0.58673-2.4256 0.0684-3.5964 0.70624-1.262 0.68023-2.1592-0.0848-2.9242-0.65468-0.65468-1.1036-5.0902-1.1036-10.904 0-8.4553 0.27347-10.073 1.9931-11.793 2.5459-2.5459 2.4845-9.2716-0.12446-13.625-1.4814-2.4719-1.8596-5.0622-1.8251-12.5 0.024-5.1601 0.40895-11.269 0.85556-13.576 0.44661-2.3069 0.46095-4.5569 0.0319-5-0.42908-0.44307-0.41816-2.7528 0.0243-5.1326 0.44242-2.3799 0.43454-9.3252-0.0175-15.434l-0.82192-11.107 3.0478-3.4712c2.4897-2.8356 2.9489-4.0804 2.5079-6.7977-0.2969-1.8296-0.11945-3.5863 0.39433-3.9039 0.51379-0.31754 0.93416-1.4186 0.93416-2.4469 0-3.9773 2.4939-4.9236 12.775-4.8471 5.3488 0.0398 11.116 0.5334 12.816 1.0969 2.4191 0.80184 4.1582 0.62987 8-0.79103 2.6999-0.99859 5.4517-2.2269 6.1151-2.7295 0.66341-0.50264 1.5856-0.67941 2.0493-0.39283s6.8959 0.60942 14.294 0.71743c7.3979 0.108 14.26 0.61465 15.249 1.1259 0.98889 0.51124 4.3639 1.0582 7.5 1.2156 3.6291 0.18207 7.5197 1.2009 10.702 2.8026 2.75 1.3841 6.7157 3.0722 8.8127 3.7513 3.313 1.0729 4.0614 1.0097 5.71-0.48228 1.4253-1.2898 2.7986-1.548 5.52-1.0374 2.5341 0.47541 4.3315 0.21518 5.9816-0.86602 4.3613-2.8576 10.651-4.5526 12.742-3.4336 2.768 1.4814 6.4359 0.24178 8.4713-2.863 1.5965-2.4354 1.8098-6.887 2.2626-47.234l0.5-44.545 25.434-0.26756c30.416-0.31997 33.47 0.24291 41.015 7.5589 5.0481 4.8949 8.0515 11.874 8.0515 18.709 0 9.7095-6.7358 20.341-15.228 24.035-2.3494 1.022-4.4335 1.9691-4.6313 2.1046-0.19782 0.13558 3.4022 5.1022 8 11.037 8.1658 10.54 8.3713 10.941 8.8597 17.284l0.5 6.4932 4.3909 0.74533c2.415 0.40993 4.7775 0.50641 5.25 0.2144 0.47248-0.29202 0.85906-20.311 0.85906-44.486v-43.955l31.25 0.26425 31.25 0.26425v14l-22 0.5-22 0.5-0.28597 9.7296-0.28596 9.7296 20.786 0.2704 20.786 0.2704v15l-20.5 0.5-20.5 0.5v22l22 0.5 22 0.5 0.29569 6.75 0.29569 6.75h8.9086v-88h24.322c28.59 0 31.366 0.56614 37.62 7.6718 8.0122 9.1023 7.3564 24.231-1.3666 31.526-1.1416 0.95473-2.6116 1.7508-3.2667 1.7691-2.539 0.0709-2.291 2.0893 0.38081 3.0988 11.151 4.2131 15.878 20.533 9.5602 33.004-1.598 3.1543-4.1734 6.3712-6.1479 7.6793l-3.3979 2.251h21.296v-87.029l31.25 0.26425 31.25 0.26425v14l-22 0.5-22 0.5-0.28597 9.7296-0.28596 9.7296 20.786 0.2704 20.786 0.2704v15l-20.5 0.5-20.5 0.5v22l22 0.5 22 0.5 0.29772 6.25 0.29771 6.25h7.8833l0.26063-43.25 0.26062-43.25h18l0.23178 35.5c0.12748 19.525 0.23998 36.063 0.25 36.75 0.027 1.8556 6.5784 1.547 8.527-0.40166 0.90841-0.90842 7.096-8.795 13.75-17.526 7.2944-9.5709 12.965-16.092 14.281-16.422 1.2006-0.30133 3.7077-0.40223 5.5713-0.2242l3.3884 0.32368 0.29567 6.7493 0.29568 6.7493-13.434 17.937c-9.9197 13.245-13.047 18.085-11.955 18.504 0.81299 0.31198 1.8876 0.31421 2.3879 5e-3 0.50037-0.30925 1.4723-0.21225 2.1598 0.21555s2.825 0.88481 4.75 1.0156c1.925 0.13077 5.6623 0.5296 8.3052 0.88629 3.7681 0.50856 5.2108 0.28139 6.6849-1.0527 1.5722-1.4228 3.6496-1.6548 12.695-1.4177 5.9483 0.15589 11.884-0.074 13.19-0.51092 1.4922-0.49913 2.6319-0.37848 3.0664 0.32464 0.5086 0.82294 1.5694 0.81297 4.0097-0.0377 2.2859-0.79687 6.9315-0.92727 14.934-0.41918 6.3885 0.40563 12.065 0.71753 12.615 0.6931 22.573-1.0027 36.01-0.85335 37.956 0.42179 2.4516 1.6063 9.0966 1.9428 18.092 0.91615 5.572-0.63594 6.2914-0.48525 9.1444 1.9153 1.7031 1.4331 3.6175 2.6056 4.2542 2.6056 0.63671 0 1.6316 1.3595 2.2108 3.0211s1.9634 3.5083 3.076 4.1037c1.9816 1.0605 1.9693 1.1322-0.60519 3.5194-1.4454 1.3402-2.628 3.0238-2.628 3.7413 0 1.5679 3.188 4.6145 4.8287 4.6145 2.2032 0 1.3877 8.1404-1.0787 10.768-1.9938 2.1243-2.2621 3.4983-2.3562 12.064-0.13817 12.583 0.0669 11.811-3.463 13.041-2.5697 0.89581-3.0172 1.5219-2.75 3.8478 0.19845 1.7275 1.1699 3.1512 2.5691 3.7651 1.3038 0.57201 2.25 1.8686 2.25 3.0833 0 1.1529 0.31477 2.411 0.69949 2.7957 0.38471 0.38472 0.56407 3.0472 0.39856 5.9167s-0.27402 6.2297-0.24115 7.4672c0.0329 1.2375 0.0381 2.925 0.0117 3.75-0.0992 3.0955 6e-3 11.565 0.16407 13.25 0.0905 0.9625-0.58319 3.7512-1.4971 6.1971-1.548 4.1431-1.5482 4.6986-3e-3 8.1261 1.6446 3.6471 1.6333 3.7145-1.3038 7.769-1.6295 2.2495-3.2379 5.7928-3.5742 7.8739-0.33624 2.0811-2.4723 7.3839-4.7468 11.784s-4.8718 10.121-5.7719 12.714c-1.2283 3.5386-3.122 5.9702-7.5931 9.75-6.3572 5.3742-7.5433 5.9253-7.5433 3.5043 0-0.84227-0.7875-1.8219-1.75-2.1771s-1.975-0.9035-2.25-1.2186c-0.54258-0.62223-7.7728-4.073-8.5335-4.073-0.25634 0-0.46958 0.5625-0.47387 1.25-0.01 1.5262-4.5279 3.7621-5.6702 2.806-0.45208-0.37838-2.7442-1.5185-5.0936-2.5336-4.1753-1.804-4.3042-1.8025-5.7182 0.066-1.3887 1.835-1.452 1.8115-1.5805-0.58839-0.1212-2.2629-0.23378-2.1883-1.187 0.78657-0.67686 2.1125-1.6228 3.2003-2.6479 3.0451-0.87717-0.13281-2.6337 0.33069-3.9035 1.03-1.4007 0.77144-3.5244 1.0044-5.4001 0.59246-2.7553-0.60516-3.0011-0.47646-2.2604 1.1834 1.5104 3.3848 0.85496 7.6943-1.3977 9.19-1.1732 0.77899-2.1331 2.0365-2.1331 2.7944 0 2.2341-3.7998 5.378-6.5 5.378-1.375 0-2.5 0.45-2.5 1s1.3754 1 3.0565 1h3.0565l-1.7334 2.9344c-1.4069 2.3817-1.4974 3.2188-0.48055 4.444 1.6573 1.9969 2.5142 22.419 1.0165 24.223-0.59649 0.71874-1.8773 2.8617-2.8462 4.7622-1.732 3.3973-1.7221 3.5059 0.59318 6.4643 3.3887 4.3299 3.9304 8.218 1.5539 11.153-1.6228 2.004-1.7871 3.0006-0.98309 5.9626 0.53094 1.956 1.6603 4.3383 2.5096 5.2939 0.84936 0.95563 1.5921 3.2436 1.6506 5.0843 0.0762 2.3993 0.95566 4.0765 3.1063 5.9242l3 2.5775 0.25034 23.838c0.22715 21.631 0.10775 23.654-1.2895 21.843-1.2302-1.594-1.7085-1.7222-2.3786-0.63799-0.91759 1.4847-6.0919 2.7752-15.975 3.9843-4.879 0.59692-6.8338 1.3273-8.2574 3.0854l-1.8651 2.3033-5.0899-2.1896c-2.7994-1.2043-5.6953-1.9573-6.4353-1.6733-0.73997 0.28396-2.6884 0.13112-4.3298-0.33963-2.4104-0.69131-3.3342-0.46934-4.8035 1.1542-1.548 1.7105-2.7673 1.9497-8.181 1.605l-6.3619-0.40509-2.0912 4.3043-2.0912 4.3043-9.0507 0.15753c-4.9779 0.0866-9.7257 0.0512-10.551-0.0788s-3.75-0.57597-6.5-0.99105c-16.846-2.5427-21.544-3.3853-26.231-4.7052-4.0657-1.1447-5.7132-1.215-7.3943-0.31528-1.6638 0.89043-3.0779 0.8557-6.1266-0.15048-3.7796-1.2474-4.2544-1.1512-10.228 2.0724l-6.264 3.3804-4.6044-1.7584c-2.5324-0.96714-5.0954-1.455-5.6954-1.0842-0.6162 0.38083-1.3288-0.235-1.6374-1.4151-0.65865-2.5187-2.319-1.7983-2.319 1.0062 0 1.1 0.45 1.7219 1 1.382s1-0.24972 1 0.20044c0 0.45015-0.84829 1.3482-1.8851 1.9957-1.4695 0.91771-2.9376 0.86051-6.6589-0.25946-6.644-1.9996-13.46-1.7935-20.635 0.62376l-6.1164 2.0605-4.1833-2.2192c-2.3008-1.2206-4.5967-3.1562-5.102-4.3014-0.50533-1.1452-2.3914-2.9862-4.1914-4.0913-2.7758-1.7042-3.2237-2.5024-2.9508-5.2591 0.35935-3.6296-0.95546-4.5319-1.4571-1-0.26301 1.8519-0.86109 2.1989-3.3805 1.9614-2.6103-0.24615-3.9241 0.61628-8.9241 5.8583-5.7564 6.035-5.9374 6.1342-9.9391 5.4445-2.2417-0.38637-6.7759-1.017-10.076-1.4014-3.3-0.38439-7.4402-1.467-9.2003-2.4058-4.4027-2.3482-6.5421-2.145-9.3754 0.89037-2.85 3.0534-8.1328 5.8681-12.615 6.7216-2.8158 0.53612-3.4275 0.22513-5.2006-2.6437-1.9281-3.1198-8.8152-7.8248-12.251-8.3694-0.90339-0.1432-3.3784 1.529-5.5 3.7161-2.5582 2.6371-4.7383 3.9767-6.4726 3.9773-1.4383 4.9e-4 -3.8451 0.96836-5.3483 2.1508-2.2552 1.7739-2.8882 1.9051-3.6195 0.75-0.4875-0.76995-0.89326-1.7309-0.90168-2.1355-8e-3 -0.40459-2.7251-2.1035-6.037-3.7753-5.0553-2.5519-6.1156-2.7949-6.607-1.5144-0.32193 0.83893-1.1152 1.5253-1.7627 1.5253-1.6814 0-4.6086 5.3381-4.6086 8.4043 0 2.2674-0.41539 2.5957-3.2847 2.5957-1.8066 0-5.8453-0.9-8.975-2-7.3552-2.5851-9.4217-2.5214-15.891 0.49023-5.2906 2.4629-8.903 3.1227-10.169 1.8572zm12.393-10.347c0.50968 0 0.92668-0.675 0.92668-1.5s-0.675-1.5-1.5-1.5c-1.0494 0-1.4652 0.97622-1.384 3.25 0.0638 1.7875 0.3218 2.4625 0.57333 1.5 0.25152-0.9625 0.87432-1.75 1.384-1.75zm-86.616-15.931c0.31644-0.512 0.11799-1.2136-0.44098-1.559s-1.0163 0.0734-1.0163 0.9309c0 1.7565 0.60006 2.0152 1.4573 0.62812zm236.23-1.2566c-0.31922-0.79773-0.55618-0.56078-0.60416 0.60417-0.0434 1.0542 0.19293 1.6448 0.52522 1.3125s0.36781-1.1948 0.0789-1.9167zm-137.65-10.1c0.52771-1.2169 1.8453-6.0017 2.9281-10.633 1.0827-4.6312 2.5461-8.7928 3.252-9.2481 0.70589-0.45526 8.6591-0.71612 17.674-0.57969l16.39 0.24806 1.3962 5c0.76793 2.75 1.855 6.8 2.4157 9 1.709 6.7058 3.3785 8.4855 7.7171 8.2265l3.7942-0.22651-0.39836-28.5-0.39835-28.5-6.4035-21.393c-3.5219-11.766-6.4035-21.779-6.4035-22.25 0-0.47114 3.117-0.85661 6.9267-0.85661 5.3232 0 7.0358 0.35177 7.3982 1.5196 0.32886 1.0598 0.42146 0.98417 0.30603-0.25-0.14525-1.5529-1.1429-1.741-8.1482-1.5357-22.963 0.67281-22.728 0.64519-23.559 2.7661-0.60792 1.5522-0.79905 1.6298-0.85359 0.34651-0.0824-1.9382-5.1594-2.5342-17.218-2.0211-6.9007 0.29364-7.6966 0.53788-8.1474 2.5-0.27475 1.196-1.5083 5.7746-2.7413 10.175-1.233 4.4-2.6002 9.8-3.0384 12s-1.715 7.375-2.8374 11.5c-8.0242 29.491-8.4955 32.016-8.8488 47.394-0.18818 8.1918-0.14032 15.42 0.10634 16.063 0.28778 0.74994 3.5449 1.2223 9.0901 1.3183 8.0339 0.13908 8.7091-6e-3 9.6011-2.063zm8.9635-35.657c0-1.0692 2.475-12.714 5.5-25.878 3.025-13.164 5.5-24.214 5.5-24.556 0-0.34227 0.675-0.62232 1.5-0.62232s1.5 0.68239 1.5 1.5164c0 1.7435 4.4196 18.402 9.6198 36.259 1.9661 6.7514 3.3201 12.939 3.0088 13.75-0.45865 1.1952-3.0357 1.4747-13.597 1.4747-12.239 0-13.031-0.11814-13.031-1.9439zm2.625-55.181c-0.89171-4.4585-0.80444-4.8811 0.875-4.2366 0.92551 0.35516 1.5 1.8751 1.5 3.9686 0 4.2576-1.5423 4.4316-2.375 0.26801zm52.141 79.125c0.24827-12.579 0.0675-14.114-2.6484-22.5l-2.9148-9-0.10163 22.601-0.10163 22.601 2.75-0.10092 2.75-0.10091zm39.554 13.431c1.2087-0.46381 1.4116-2.3632 1.0952-10.25-0.82967-20.678-1.2096-64.181-0.56052-64.181 0.63807 0 2.1147 2.431 11.145 18.349 1.925 3.3931 4.2573 7.2902 5.1829 8.6602 0.9256 1.37 2.7766 4.4297 4.1133 6.7994l2.4304 4.3086 0.69904-3.3086c0.38448-1.8197 0.9251-5.755 1.2014-8.7452s0.92325-6.223 1.4377-7.1843c0.51443-0.96121 0.93532-4.1663 0.93532-7.1225 0-5.1397-0.57507-6.3129-13.144-26.816-7.2292-11.793-14.057-23.016-15.172-24.941-3.4287-5.9182-4.761-7-8.6207-7-3.0706 0-4.5032 0.86971-9.345 5.6731-4.634 4.5972-5.7184 6.2928-5.7184 8.941 0 1.7974-0.45734 3.5506-1.0163 3.896s-0.79888 0.97994-0.53312 1.4099c0.26576 0.43001 0.77718 23.001 1.1365 50.159 0.58185 43.977 0.83154 49.512 2.2831 50.617 1.667 1.2689 19.534 1.8537 22.45 0.73485zm64.618-40.931c-0.10742-22.55-0.47492-49.775-0.81667-60.5l-0.62135-19.5h-24l0.11067 15c0.0978 13.249 0.30205 14.984 1.75 14.861 0.90163-0.0764 1.6393 0.26111 1.6393 0.75s-0.675 0.88889-1.5 0.88889c-2.1569 0-2.2398 4.5041-0.45097 24.5 0.59044 6.6 1.1585 13.079 1.2622 14.399 0.36987 4.7013-1.9011 2.9879-6.8201-5.1458l-4.9912-8.253-0.24015 4c-0.44218 7.3649-2.388 18.449-3.7285 21.238-0.72991 1.519-1.5939 3.8867-1.92 5.2617s-0.3282 1.9185-5e-3 1.2078c0.74122-1.6284 4.8669 4.7584 16.152 25.004 2.0578 3.6917 4.4164 6.9098 5.2414 7.1514 0.825 0.24158 5.4675 0.3711 10.317 0.28783l8.8167-0.15141-0.19532-41zm32.947 38.25c0.5719-1.7875 1.7688-6.5164 2.6597-10.509 1.1108-4.9777 2.2169-7.5783 3.5196-8.2755 1.1234-0.60125 8.2951-0.90413 17.551-0.74121l15.651 0.27548 2.2331 7c1.2282 3.85 2.5546 8.3475 2.9475 9.9944 1.0304 4.3186 2.3619 5.5056 6.1761 5.5056h3.3776l0.086-22.75c0.0473-12.512 0.42871-21.623 0.84763-20.246s0.68236 9.702 0.58541 18.5c-0.0969 8.798 0.0189 17.909 0.25741 20.246l0.43367 4.25h8.7899v-10.759c0-9.9257-0.35436-11.921-4.5736-25.75-2.5155-8.2449-4.9905-15.418-5.5-15.941-0.50955-0.5225-0.92641-1.9589-0.92641-3.1919 0-2.0655-2.1753-9.7351-10.1-35.608l-2.9862-9.75h-7.957c-6.4063 0-7.9571 0.29234-7.9571 1.5 0 0.825-0.45 1.5-1 1.5s-1-0.675-1-1.5c0-1.2494-1.9907-1.5-11.917-1.5-6.5642 0-12.066-0.42367-12.25-0.94325-0.18333-0.51879-4.2708-1.1901-9.0833-1.4918-7.3149-0.45856-8.75-0.30518-8.75 0.93519 0 1.2125 1.5995 1.4503 8.75 1.301 9.9978-0.20874 9.7053-0.60458 6.798 9.1988-1.9494 6.5734-1.9932 6.741-3.9276 15-0.83729 3.575-2.4662 10.1-3.6199 14.5-1.1536 4.4-2.3237 9.125-2.6002 10.5s-1.589 6.55-2.9167 11.5c-1.8456 6.8806-2.5326 12.508-2.9177 23.896-0.27702 8.1928-0.26615 15.28 0.0242 15.75 0.29032 0.46975 4.5164 0.85409 9.3913 0.85409h8.8634l1.0398-3.25zm8.1364-33.5c0.0116-0.4125 1.5955-7.725 3.5197-16.25s4.4295-19.775 5.5674-25c1.9094-8.7678 3.1925-12.033 4.2954-10.93 0.24029 0.24029 2.2458 7.4103 4.4566 15.933s5.1717 19.441 6.5798 24.262c4.0077 13.721 4.8552 12.735-10.94 12.735-7.425 0-13.49-0.3375-13.479-0.75zm46.058-10.833c0.048-1.165 0.28494-1.4019 0.60416-0.60417 0.28887 0.72187 0.25335 1.5844-0.0789 1.9167-0.33229 0.33229-0.56864-0.25834-0.52522-1.3125zm-42.846-45.399c-0.82652-3.2563-0.75567-4.0178 0.37386-4.0178 0.90254 0 1.3991 1.1453 1.409 3.25 0.0116 2.4662 0.24909 2.8883 0.98469 1.75 0.53316-0.825 0.97627-0.9926 0.98469-0.37244 8e-3 0.62015-0.60292 1.6406-1.3586 2.2678-1.1093 0.92067-1.5702 0.36665-2.3937-2.8776zm133.57 86.232 0.29771-6.25h-17.976c-15.009 0-18.236-0.25941-19.548-1.5714-1.3599-1.3599-1.589-6.0373-1.7018-34.75-0.0717-18.248-0.4092-41.729-0.75-52.179l-0.61963-19-13.334-0.27961-13.334-0.27961 0.78508 54.78c0.43179 30.129 0.67542 56.991 0.54139 59.694-0.15661 3.1582 0.21832 5.2104 1.0492 5.7426 0.71107 0.45547 15.468 0.71895 32.793 0.5855l31.5-0.24264zm-431.03-22c0.14695-13.888 0.63316-25.25 1.0805-25.25 0.8182 0 5.9351 6.6781 9.6524 12.597 1.1 1.7516 5.1889 7.8463 9.0864 13.544s8.4663 12.384 10.153 14.859c6.5187 9.5663 7.2219 10 16.213 10h8.0478l-0.0311-8.25-0.0311-8.25-15.531-21.957c-8.6406-12.216-15.346-22.642-15.114-23.5 0.22963-0.84861 7.0077-11.566 15.062-23.817l14.645-22.274v-12.953h-19.959l-7.0207 10.538c-3.8614 5.7961-7.0207 10.724-7.0207 10.95 0 0.22659-2.8125 4.6739-6.25 9.8829s-7.4764 11.531-8.9754 14.05c-1.499 2.5183-3.1865 4.5787-3.75 4.5787-0.65484 0-1.0718-6.2254-1.1553-17.25-0.0719-9.4875-0.40939-20.625-0.75-24.75l-0.6193-7.5h-26l0.0618 11.5c0.034 6.325 0.16982 28.15 0.30185 48.5 0.31823 49.054 0.42481 45.548-1.3636 44.862-1.2466-0.47838-1.5 0.6249-1.5 6.5314 0 5.6507 0.30737 7.107 1.5 7.107 0.93668 0 1.5511-1.0328 1.6362-2.75 0.13242-2.674 0.14759-2.681 0.54904-0.25 0.85892 5.2011 0.49465 5.0772 14.045 4.78l12.77-0.28003zm-27.535 14.75c0-1.925 0.2058-2.7125 0.45733-1.75 0.25152 0.9625 0.25152 2.5375 0 3.5-0.25153 0.9625-0.45733 0.175-0.45733-1.75zm91.267 10.002c0.33932-0.54903-0.0282-1.9193-0.8167-3.0451-1.2555-1.7925-1.5112-1.8447-2.0579-0.41997-1.0333 2.6928-0.70933 4.4633 0.8167 4.4633 0.79254 0 1.7186-0.44921 2.0579-0.99825zm78.693-55.663c-0.95392-2.619-1.035-2.4515-1.0454 2.1609-9e-3 4.185 0.15912 4.6478 1.0341 2.8391 0.72253-1.4935 0.726-3.0377 0.0113-5zm77.677-15.589c1.258-9.6454 1.1177-25.914-0.1937-22.462-0.46213 1.2165-0.63605 4.1017-0.38648 6.4115 0.24956 2.3098-0.14746 8.1598-0.88227 13-1.6181 10.659-1.6471 11.3-0.51024 11.3 0.49319 0 1.3809-3.7125 1.9727-8.25zm-78.153-17.5c-0.22912-1.5125-0.41659-0.275-0.41659 2.75s0.18747 4.2625 0.41659 2.75c0.22913-1.5125 0.22913-3.9875 0-5.5zm209.74-9.1798c0.45841-0.74171-3.2703-1.0267-12.148-0.92831-13.222 0.14648-11.321 1.1022 3.3386 1.6783 5.0501 0.19849 8.399-0.0866 8.809-0.75zm-267.74-0.69073c-1.1483-1.1483-16.713-1.5493-16.713-0.43059 0 0.65395 3.2747 1.0511 8.6667 1.0511 4.7667 0 8.3874-0.27923 8.0462-0.62051zm63.018-0.0725c-0.97297-0.25354-2.323-0.23687-3 0.0371-0.67703 0.27393 0.11903 0.48137 1.769 0.46099 1.65-0.0204 2.2039-0.2445 1.231-0.49804zm179.02-1.721c0.5091-0.50772-2.9747-11.176-4.3549-13.336-1.361-2.1299-2.083-2.25-13.522-2.25-10.213 0-11.997 0.22725-11.521 1.468 0.30982 0.80739 0.13297 1.734-0.39301 2.059-0.52598 0.32508-0.95633-0.3654-0.95633-1.5344 0-1.72-0.51437-2.0651-2.6963-1.809-2.3512 0.27592-2.9254 1.0843-4.4864 6.3164-2.7585 9.2458-2.7148 9.3534 3.9327 9.7001 5.9959 0.31272 33.567-0.18525 33.997-0.61404zm-202.06-6.836c-1.1462-3.9875-2.5569-7.5806-3.135-7.9847-0.57812-0.40408-6.3386-0.74158-12.801-0.75-9.7846-0.0127-11.75 0.23559-11.75 1.4847 0 0.825-0.43588 1.5-0.96862 1.5-0.53273 0-0.72519-0.63435-0.42767-1.4097 0.68518-1.7856-3.3889-3.2052-4.8901-1.7039-0.91368 0.91368-4.6048 13.012-4.6873 15.364-0.0145 0.4125 9.147 0.75 20.359 0.75h20.385zm19.232-8.1643c0.10694-9.8028-0.21161-15.649-0.87503-16.059-0.7077-0.43739-1.0432 4.5198-1.0432 15.414 0 8.8325 0.39376 16.059 0.87503 16.059s0.9507-6.9364 1.0432-15.414zm30.082-2.1789c0-0.28403-2.128-0.37926-4.7289-0.21162-4.6176 0.29761-4.7355 0.3872-5.0095 3.8048-0.50003 6.2366 0.42178 6.5093 5.2411 1.5506 2.4735-2.545 4.4972-4.8597 4.4972-5.1437zm157.81 2.0667c-0.30789-0.30789-0.86705 0.24711-1.2426 1.2333-0.54268 1.4252-0.42782 1.5401 0.5598 0.5598 0.68342-0.67834 0.99067-1.4852 0.68278-1.7931zm-14.238-2.2388c1.0926-0.75122 13.431-20.735 13.431-21.753 0-0.30929-3.6971-0.43165-8.2158-0.2719l-8.2158 0.29044-2.6235 8.5c-4.6232 14.979-4.6432 14.002 0.28615 13.985 2.348-8e-3 4.7499-0.34592 5.3377-0.75zm-220.89-2.4222c-0.31922-0.79773-0.55618-0.56078-0.60416 0.60417-0.0434 1.0542 0.19292 1.6448 0.52522 1.3125 0.33229-0.33229 0.36781-1.1948 0.0789-1.9167zm179.01-6.5435c-0.25354-0.97297-0.47766-0.41903-0.49804 1.231-0.0204 1.65 0.18706 2.4461 0.46099 1.769 0.27392-0.67703 0.29059-2.027 0.0371-3zm-200.1-1.014c-1.0755-1.0755-1.6464 0.43075-0.89148 2.3518 0.7082 1.8021 0.76169 1.8052 1.1119 0.0649 0.20237-1.0056 0.10317-2.093-0.22045-2.4167zm25.326-1.2551c-0.0362-0.98906-0.34772-0.81874-0.9144 0.5-1.1813 2.7491-1.1813 4.328 0 2.5 0.53316-0.825 0.94464-2.175 0.9144-3zm200.29 1.0528c0.2379-1.621 0.064-2.7194-0.3865-2.441-0.80176 0.49551-1.1945 5.3882-0.43256 5.3882 0.21258 0 0.58115-1.3262 0.81906-2.9472zm-266.33-5.025c2.6533-1.4456-0.46141-1.8418-7.8882-1.0033-4.1196 0.46512-10.078 0.58577-13.24 0.26811-3.8296-0.38467-5.75-0.21431-5.75 0.5101 0 0.59822 2.1375 1.2743 4.75 1.5024 6.0597 0.52903 20.324-0.29437 22.128-1.2773zm261.82-2.224c1.8137-1.7579 3.2976-3.5579 3.2976-4 0-1.6274-2.9631-0.74136-4 1.1962-1.7755 3.3176-2.5102 2.2846-2.311-3.2494l0.189-5.2506-1.0765 5c-0.59206 2.75-1.7146 5.3738-2.4944 5.8307-1.1036 0.64657-1.1568 1.1454-0.24008 2.25 1.7413 2.0981 2.9796 1.7665 6.6354-1.7769zm5.2976 0.19617c0-1.1-0.63287-2-1.4064-2-0.91405 0-1.2233 0.70014-0.88337 2 0.28766 1.1 0.92053 2 1.4064 2s0.88337-0.9 0.88337-2zm-256.31-4.7617c-0.25029-0.95609-0.446 0.0617-0.4349 2.2617 0.0111 2.2 0.21589 2.9822 0.45508 1.7383s0.23011-3.0439-0.0202-4zm432.28 3.0117c-0.0261-2.359-0.17597-2.5-1.0541-0.99208-0.56304 0.96686-0.7478 2.2044-0.41058 2.75 1.034 1.673 1.4965 1.1178 1.4647-1.7579zm-263.97-12.809c0-6.118-0.35997-9.3365-1-8.941-0.55 0.33992-1 4.6415-1 9.559 0 5.294 0.4079 8.941 1 8.941 0.59692 0 1-3.853 1-9.559zm131.62 1.4649c-0.25994-3.3518-0.73027-6.3518-1.0452-6.6667-0.75798-0.75798-0.71185 7.6391 0.0577 10.511 1.0676 3.9839 1.4723 2.4084 0.98741-3.8441zm-138.68-0.27121c-0.95091-0.87589-1.0842-0.7169-0.58467 0.69713 0.35595 1.0075 0.70846 2.5825 0.78336 3.5 0.0749 0.91751 0.338 0.60381 0.58467-0.69713 0.24666-1.3009-0.10585-2.8759-0.78336-3.5zm-325.27 1.9093c0-0.80081-0.375-1.2242-0.83333-0.94098-0.45833 0.28326-0.83333 0.93847-0.83333 1.456s0.375 0.94098 0.83333 0.94098c0.45833 0 0.83333-0.65521 0.83333-1.456zm66.016-0.73149c-0.31923-0.79773-0.55618-0.56078-0.60417 0.60417-0.04342 1.0542 0.19293 1.6448 0.52522 1.3125 0.33229-0.33229 0.36782-1.1948 0.07895-1.9167zm263.32 1.1875c0-0.55-0.45-1-1-1s-1 0.45-1 1 0.45 1 1 1 1-0.45 1-1zm-161.95-22.234c3.2631 5.7135 7.7393 9.1757 16.068 12.428 4.2526 1.6607 8.3156 2.1977 19.381 2.5614 16.544 0.54385 23.571-0.53804 32.5-5.0043 5.9305-2.9663 6.7848-3.8064 9.75-9.5885l3.25-6.3374v-49.484c0-42.045-0.21944-49.704-1.4597-50.944-1.1546-1.1546-4.0287-1.4009-13.75-1.1786l-12.29 0.2811v102.66l-3.3749 3.0188c-3.2722 2.9269-3.6292 3.0082-11.728 2.6713-7.4502-0.30994-8.6376-0.63234-10.989-2.9837-1.5302-1.5304-2.9894-4.4666-3.4788-7-0.46364-2.4001-0.91741-17.639-1.0084-33.864-0.091-16.225-0.44805-37.375-0.79355-47l-0.62817-17.5h-25l0.21951 3c0.12073 1.65 0.4746 24.375 0.78637 50.5 0.38738 32.461 0.24357 47.025-0.4542 46-0.71216-1.0462-0.95994 3.0379-0.81904 13.5l0.20202 15 0.31429-12.983 0.31428-12.983zm-111.27 13.724c8.2142-1.9366 13.185-4.5484 17.063-8.9654l3.1553-3.5937v-32.63l-2.8474-3.9307c-4.7723-6.588-11.637-11.876-29.728-22.901-18.103-11.032-21.936-14.343-22.967-19.839-1.4746-7.8605 4.0584-16.42 10.868-16.813 14.862-0.85794 17.918 2.7183 18.099 21.183l0.07387 7.5 13.25 0.27903 13.25 0.27902-0.0082-3.279c-0.01924-7.6896-2.1734-21.212-3.9199-24.607-1.9094-3.7117-5.5203-7.493-10.044-10.518-3.1225-2.088-3.771-2.0736-4.3382 0.0966-0.35687 1.3656-0.4828 1.274-0.57332-0.41714-0.16068-3.0018-6.928-4.3328-22.029-4.3328-11.847 0-20.187 1.0302-25.355 3.1318l-2.7678 1.1256 0.2678 23.621 0.2678 23.621 7 4.6155c3.85 2.5385 11.275 6.9897 16.5 9.8914 9.6957 5.3846 18.995 13.191 19.006 15.955 0.0034 0.84567 0.71491 2.8876 1.5812 4.5376 1.8254 3.477 1.1604 14.145-1.1621 18.642-1.454 2.8149-5.9018 4.8584-10.574 4.8584-1.5679 0-2.8508 0.43937-2.8508 0.97639 0 0.58589 6.8988 1.0959 17.25 1.2752 9.4875 0.16436 1.9928 0.39998-16.655 0.52361l-33.905 0.22478 1.905 2.1452c6.3917 7.1976 33.798 11.208 50.186 7.3443zm260.73 0.42327c3.2348-0.59799 7.5925-1.7718 9.6837-2.6086 3.1535-1.2618 3.8022-2.0059 3.8022-4.362v-2.8406l-31.676-0.0736-31.676-0.0736 1.9257 2.1293c1.0591 1.1711 3.5007 2.9281 5.4257 3.9045 3.0291 1.5364 5.8886 2.2965 16.5 4.3861 4.3323 0.85312 20.45 0.56725 26.014-0.46141zm267.73 0.19996c6.5027-0.92573 15.113-4.2407 19.245-7.4096 1.7947-1.3763-1.125-1.531-30-1.5894l-31.988-0.0647 2.784 2.2902c7.1586 5.8888 24.968 8.9077 39.959 6.7735zm-432.99-1.775c-0.80232-0.32374-1.25-2.6234-1.25-6.421v-5.9167h-14.809c-10.341 0-15.284-0.37713-16.383-1.25-1.3807-1.0965-1.6511-7.6185-2.202-53.113-0.34538-28.525-0.87465-52.262-1.1762-52.75-0.9079-1.469-26.408-1.1204-26.549 0.36301-0.18195 1.9087 0.14804 30.091 0.58838 50.25 0.21624 9.9 0.46307 29.025 0.54849 42.5 0.0963 15.195 0.54876 24.975 1.1912 25.75 0.78956 0.95271 8.2011 1.2312 31.163 1.171 16.57-0.0434 29.565-0.30592 28.878-0.58333zm227.12-37.088c-0.0727-20.488 0.17513-37.25 0.55074-37.25 0.3756 0 1.6719 1.9125 2.8807 4.25 1.2088 2.3375 4.8729 8.75 8.1426 14.25s7.2 12.198 8.734 14.885l2.7892 4.8852 0.77373-3.3852c0.42554-1.8618 0.93807-5.6352 1.1389-8.3852s0.87307-6.2668 1.4938-7.8151c0.62071-1.5483 1.1286-4.8708 1.1286-7.3832 0-4.0349-1.1866-6.5077-10.166-21.185-5.5913-9.1392-12.616-20.667-15.61-25.617-6.2437-10.323-7.4423-11.5-11.712-11.5-2.489 0-4.3973 1.2922-9.6167 6.5115l-6.5115 6.5115 0.2967 20.738c0.16318 11.406 0.47651 34.952 0.69629 52.324 0.30806 24.35 0.71146 32.087 1.7611 33.777 1.2862 2.0708 1.9699 2.1767 12.362 1.915l11-0.27707zm64.175-22.5c-0.39849-33.138-1.059-60.603-1.4677-61.034-0.40877-0.43137-5.8803-0.65637-12.159-0.5l-11.416 0.2843 0.0277 15c0.0251 13.571 0.19179 14.987 1.75 14.861 2.1527-0.1736 2.1964 0.57173 0.12227 2.0884-1.9593 1.4327-2.0631 7.8033-0.41574 25.516 0.63765 6.856 1.1803 12.706 1.206 13 0.45351 5.2011-1.65 3.6319-6.7167-5.0106-2.5941-4.4248-4.868-7.8937-5.0531-7.7086-0.18508 0.18508-0.5475 3.4679-0.80537 7.2952-0.61533 9.1329-1.688 15.459-2.6212 15.459-0.4128 0-1.2167 1.8364-1.7864 4.0809-0.5697 2.2445-0.78892 3.834-0.48714 3.5322 0.50012-0.50012 4.3763 5.4079 9.4391 14.387 1.0854 1.925 3.0653 5.3 4.3998 7.5s3.0962 5.4279 3.9148 7.1731c1.7938 3.824 2.5834 4.063 13.909 4.2109l8.8834 0.116zm81.458 55.8c0-2.1481 0.61459-3.7942 1.6284-4.3616 1.1133-0.62306 1.2715-1.1319 0.5-1.6087-0.62063-0.38357-1.1284-1.5607-1.1284-2.6158 0-1.8112-1.0201-1.9337-18.25-2.191l-18.25-0.27256v-41l17.5-0.5 17.5-0.5 0.31959-3.9047c0.17577-2.1476 0.0547-4.9601-0.26906-6.25-0.58827-2.3439-0.59902-2.3453-17.37-2.3453-11.719 0-17.143-0.36201-17.981-1.2-0.80236-0.80236-1.2-5.2482-1.2-13.417 0-8.8362-0.34589-12.357-1.25-12.724-0.96224-0.39043-0.92838-0.7319 0.14708-1.4832 0.9476-0.66202 1.2177-2.0815 0.83952-4.412-0.30667-1.8897-0.24029-3.9493 0.1475-4.5767 0.47651-0.77101 6.6876-1.2294 19.16-1.4142l18.455-0.27335 0.30507-5.3312c0.4687-8.1905 0.51893-8.1688-18.928-8.1688-14.336 0-16.878 0.22592-16.878 1.5 0 0.825-0.45 1.5-1 1.5s-1-0.675-1-1.5c0-1.2619-2.2222-1.5-14-1.5h-14v2.4167c0 1.3292 0.5625 2.6449 1.25 2.9239 0.99656 0.40436 0.99409 0.68819-0.0122 1.3999-0.95806 0.67759-1.0987 3.5272-0.5836 11.826 0.37322 6.0134 0.7009 23.628 0.72816 39.143 0.0273 15.515 0.3955 27.665 0.8183 27 0.42279-0.66526 0.77561 1.1529 0.78403 4.0404 0.0102 3.5169 0.42796 5.2551 1.2653 5.2653 0.93804 0.0115 0.91784 0.22588-0.0809 0.85903-1.0482 0.66449-1.1915 3.3696-0.67445 12.735 0.36106 6.54 0.83335 12.453 1.0495 13.141 0.30298 0.96353 7.2756 1.25 30.424 1.25h30.031zm-62-43.55c0-0.55 0.45-1 1-1s1 0.45 1 1-0.45 1-1 1-1-0.45-1-1zm3.1031-46.596c-2.5383-2.9193-2.1358-5.377 1.5274-9.3276l2.3834-2.5704-0.18735 6.7997c-0.10305 3.7399-0.48835 6.9858-0.85624 7.2131-0.36788 0.22737-1.6581-0.72431-2.8672-2.1148zm-1.0878-15.154c0.0119-2.1429 0.22931-2.4189 0.98469-1.25 1.2644 1.9565 1.2644 4 0 4-0.55 0-0.99311-1.2375-0.98469-2.75zm23.143-7.25c0-1.375 0.22698-1.9375 0.50439-1.25s0.27741 1.8125 0 2.5-0.50439 0.125-0.50439-1.25zm33.842-1.0314c0-1.0827 0.6-1.9686 1.3333-1.9686 0.73334 0 1.3333 0.65564 1.3333 1.457s-0.6 1.6872-1.3333 1.9686c-0.83285 0.3196-1.3333-0.22729-1.3333-1.457zm-59 113.83c0-1.6154-0.29571-1.9043-1.1129-1.0871-0.61207 0.61207-0.81052 1.6021-0.44098 2.2 1.0344 1.6737 1.5538 1.3016 1.5538-1.1129zm-123.91-18.3c0.0571-6.05 0.22291-13.025 0.36849-15.5 0.27063-4.601-1.5379-9.9879-4.0545-12.076-1.2037-0.99898-1.4027 2.1487-1.3719 21.704l0.036 22.872 2.4591-3c2.2632-2.7611 2.4673-3.8759 2.5629-14zm272.16 13.777c-1.7875-0.22182-3.25-0.60144-3.25-0.84358 0-0.24215 0.9-2.1195 2-4.1718 1.9253-3.5922 2-5.6421 2-54.88v-51.148l-2.25-0.60297c-1.2375-0.33164-4.3875-0.60913-7-0.61664-4.4036-0.0127-4.75 0.16864-4.75 2.4864 0 1.375-0.37323 2.5-0.8294 2.5s-0.79367-1.0125-0.75-2.25c0.0705-1.9973-0.46976-2.2849-4.8101-2.5605-2.6892-0.17077-5.3344 0.13444-5.8782 0.67823-1.0386 1.0386-1.1371 29.341-0.25455 73.132 0.31989 15.872 0.12114 25.639-0.56436 27.734-1.2629 3.8602-5.2694 7.2656-8.5482 7.2656-1.4189 0-2.3651 0.59069-2.3651 1.4764 0 1.2332 2.8409 1.5256 17.25 1.7752 9.4875 0.16436 18.6 0.32797 20.25 0.36357 2.8223 0.0609 2.8075 0.0409-0.25-0.33858zm-67.25-1.4766c0-0.93333 0.26667-0.93333 1.2 0 0.81303 0.81303 5.4889 1.2 14.5 1.2 11.582 0 13.3-0.20882 13.3-1.6166 0-1.1243-0.60908-1.4574-2-1.0936-1.1 0.28766-2 0.14546-2-0.31598 0-0.46145-0.90494-1.1262-2.011-1.4772-3.6273-1.1512-4.989-5.6181-4.989-16.365 0-5.4823-0.27314-10.68-0.60699-11.55-0.49962-1.302-2.4454-1.5818-11-1.5818h-10.393l-0.11535 4.25c-0.11043 4.0688-0.30217 5.6577-0.81457 6.75-0.88803 1.8931-0.99391 6.3869-0.17375 7.3751 0.61721 0.7437 0.64044 1.7435 0.0618 2.6585-1.4582 2.3056-1.1147 7.7979 0.6569 10.502 1.6817 2.5667 4.385 3.3464 4.385 1.2648zm0.25218-11.3c-0.0111-2.2 0.18461-3.2178 0.4349-2.2617s0.25937 2.7561 0.0202 4c-0.23919 1.2439-0.44398 0.46166-0.45508-1.7383zm-0.0943-13.5c0-1.375 0.22698-1.9375 0.50439-1.25s0.27741 1.8125 0 2.5-0.50439 0.125-0.50439-1.25zm-537.4 6.2295-0.25567-18.771-4.2245 0.0783c-2.3234 0.0431-4.5626 0.41649-4.9759 0.82979-1.0985 1.0985-0.47229 18.228 0.90055 24.633 1.3975 6.5204 4.6051 11.97 7.0555 11.988 1.6213 0.0114 1.7361-1.424 1.5-18.758zm29.244 17.85c0-0.5063-1.2935-1.2046-2.8744-1.5519-3.6421-0.79994-6.8934-4.2354-8.1555-8.6174-0.54018-1.8756-1.2711-8.4394-1.6243-14.586l-0.64216-11.176-7.3541-0.32382-7.3541-0.32382 0.0023 18.75 0.0024 18.75h14c7.8611 0 14-0.40365 14-0.92054zm233.18-2.995c-0.20537-2.1535 0.10655-4.741 0.69316-5.75 0.84618-1.4554 1.0729-0.64632 1.097 3.9155l0.0304 5.75h14c13.178 0 17.795-0.99092 10.974-2.3551-7.0766-1.4153-9.9744-8.5724-9.9744-24.635 0-4.8905-0.35104-9.1087-0.7801-9.3739-0.42905-0.26517-3.9166-0.59467-7.75-0.73221l-6.9699-0.25008 0.15065 12.923c0.0891 7.6463-0.18841 12.107-0.67972 10.923-0.4567-1.1-0.86199-6.9721-0.90064-13.049l-0.0703-11.049-3.6001 0.42029-3.6001 0.42029 0.56484 5.1289c1.6152 14.666 1.835 22.683 0.66081 24.098-0.97213 1.1714-0.78432 2.0606 0.94944 4.4954 1.1887 1.6694 2.93 3.0352 3.8696 3.0352 1.3838 0 1.6374-0.74378 1.3349-3.9155zm61.821-18.388v-22.304l-3.25-3.105c-1.7875-1.7078-11.439-8.1171-21.447-14.243-20.177-12.35-22.303-14.49-22.303-22.462 0-9.4273 5.0087-13.938 15.373-13.843 10.445 0.0953 13.387 4.6583 13.547 21.011l0.0805 8.25h18l0.0439-14.25c0.028-9.0728 0.51759-15.576 1.3477-17.9 1.6538-4.6296 2.2113-31.36 0.67384-32.31-0.73648-0.45516-1.0655 4.1389-1.0655 14.879v15.537l-4.742-3.0073c-4.3936-2.7863-4.8344-2.8809-6-1.2868-1.1547 1.5791-1.258 1.5446-1.258-0.42038 0-1.8187-0.90272-2.3184-6-3.3212-3.3-0.64924-6-1.3421-6-1.5398 0-0.19764 2.475-4.7904 5.5-10.206 3.025-5.4157 5.5-10.145 5.5-10.511s-2.1375-0.65317-4.75-0.64013l-4.75 0.0237-4.6286 9.7263-4.6287 9.7263-4.629-9.75-4.629-9.75h-4.9924c-2.7458-1e-5 -4.9924 0.15197-4.9924 0.33772 0 0.18576 2.6769 5.0184 5.9487 10.739l5.9488 10.401-8.1988 1.1868c-4.5093 0.65276-9.4362 1.659-10.949 2.236l-2.75 1.0492v17.691c0 9.7303-0.29535 17.396-0.65634 17.035-0.36099-0.36098-0.62325-5.2735-0.58281-10.917 0.0404-5.6432-0.22671-13.05-0.59366-16.461l-0.66719-6.2003-2.2722 1.7214c-1.9769 1.4977-2.3949 3.083-3.2163 12.2-1.5581 17.293-1.3223 23.314 1.0298 26.304 2.8174 3.5818 15.237 12.044 28.959 19.732 12.752 7.1444 20.345 13.912 21.466 19.134 0.39068 1.8198 0.9356 6.1566 1.2109 9.6372 0.8293 10.484-2.0674 14.838-10.54 15.842-10.014 1.186-4.9257 2.3298 10.363 2.3298h15.5zm-61.615-44.135c-0.30376-0.7916-0.0783-2.2541 0.50098-3.25 0.89503-1.5387 1.0578-1.3225 1.0837 1.4393 0.0321 3.4283-0.66033 4.2195-1.5847 1.8107zm-236.1 60.439c-0.28766-1.1-0.92053-2-1.4064-2-0.48585 0-0.88337 0.9-0.88337 2s0.63287 2 1.4064 2c0.91405 0 1.2233-0.70014 0.88337-2zm262.71 0.55902c0-0.79254-0.45-1.7191-1-2.059s-1 0.30852-1 1.441 0.45 2.059 1 2.059 1-0.64844 1-1.441zm276-0.55902c0-1.1-0.45-2-1-2s-1 0.9-1 2 0.45 2 1 2 1-0.9 1-2zm-539.5-4c0.33992-0.55 0.14148-1-0.44098-1s-1.059 0.45-1.059 1 0.19844 1 0.44098 1 0.7191-0.45 1.059-1zm429.18-12.188c-0.31922-0.79773-0.55618-0.56078-0.60416 0.60417-0.0434 1.0542 0.19293 1.6448 0.52522 1.3125s0.36781-1.1948 0.0789-1.9167zm-128.58-34.032c-0.12074-6.1766-0.41835-11.429-0.66136-11.672-1.3017-1.3017-1.5272 1.8515-0.88184 12.332 0.39349 6.3898 0.95108 11.382 1.2391 11.094 0.288-0.288 0.42486-5.5772 0.30412-11.754zm77.413-6.2805c1.0018-5.1865 1.2929-29.216 0.32214-26.592-0.40709 1.1005-0.9652 7.0839-1.2402 13.296-0.27504 6.2126-0.77518 13.321-1.1114 15.796-0.74342 5.4722 0.8746 3.4791 2.0295-2.5zm-403.73-33.194-0.28222-11.806l-4.3179 4.3635c-2.3748 2.3999-4.8026 5.5499-5.395 7-1.6608 4.0654-2.5746 12.292-1.7362 15.631 0.41523 1.6533 1.042 4.2824 1.3928 5.8424 0.35078 1.56 2.757 5.1036 5.3471 7.8746l4.7093 5.0382 0.28222-11.068c0.15522-6.0875 0.15522-16.381 0-22.875zm331.99 15.906c-0.37506-7.9128-1.0566-11.977-2.5574-15.25l-2.046-4.462-0.0843 15.25-0.0843 15.25h5.2832zm-175.11 6.538c-0.27741-0.6875-0.50439-0.125-0.50439 1.25s0.22698 1.9375 0.50439 1.25 0.27741-1.8125 0-2.5zm0.0712-13.974c-0.21125-2.352-0.38706-0.67643-0.39069 3.7236-4e-3 4.4 0.16921 6.3244 0.38408 4.2764 0.21488-2.048 0.21785-5.648 7e-3 -8zm-0.0464-10.538c-0.25029-0.95609-0.446 0.0617-0.4349 2.2617 0.0111 2.2 0.21589 2.9822 0.45508 1.7383s0.23011-3.0439-0.0202-4zm195.38-8.305c2.7143-2.7867 4.9351-5.2299 4.9351-5.4294s-2.3625-0.282-5.25-0.18335l-5.25 0.17937-0.30226 5.25c-0.16624 2.8875-0.0245 5.25 0.31492 5.25 0.33946 0 2.838-2.28 5.5523-5.0666zm-300.38-8.1208c-0.31923-0.79773-0.55618-0.56078-0.60417 0.60417-0.04342 1.0542 0.19293 1.6448 0.52522 1.3125 0.33229-0.3323 0.36782-1.1948 0.07895-1.9167zm408.32-3.7535c0-1.0675-0.45-2.2191-1-2.559-0.56716-0.35052-1 0.48962-1 1.941 0 1.4075 0.45 2.559 1 2.559s1-0.87344 1-1.941zm23.493 0.95243c0.35034-0.56686-0.0511-0.7345-0.94098-0.39301-1.7324 0.66479-2.0494 1.3816-0.61096 1.3816 0.51754 0 1.2159-0.44485 1.5519-0.98855zm-429.49-9.0749c0-1.0002-0.45-2.0966-1-2.4366s-1 0.0835-1 0.94098c0 0.85746-0.40787 1.559-0.90638 1.559-0.49851 0-0.66854 0.90948-0.37786 2.0211 0.41527 1.588 0.82378 1.776 1.9064 0.87755 0.75782-0.62894 1.3779-1.9619 1.3779-2.9621zm261.92-0.24559c-0.0434-1.755-0.33589-2.516-0.64994-1.691s-0.96876 1.761-1.4549 2.08c-1.1561 0.75854 0.11881 4.0783 1.2886 3.3553 0.49237-0.3043 0.85969-1.9892 0.81627-3.7443zm277.06 1.452c-8e-3 -0.90365-0.45153-2.318-0.98469-3.143-0.82843-1.2819-0.9716-1.2456-0.98469 0.25-8e-3 0.9625-0.42318 1.75-0.92169 1.75s-0.67917 0.86886-0.40146 1.9308c0.60015 2.295 3.3152 1.6454 3.2925-0.78779zm27.015 0.41601c0-0.79254-0.45-1.7191-1-2.059s-1 0.30852-1 1.441 0.45 2.059 1 2.059 1-0.64844 1-1.441zm-186.4-4.838c0.11427-0.67158 0.52439-2.0086 0.91138-2.9711 0.38698-0.9625 0.25795-1.75-0.28675-1.75-0.98472 0-2.1839 3.2105-2.21 5.9167-0.0156 1.6198 1.2714 0.64917 1.5853-1.1956zm4.8308-3.8348c-0.81352-1.3163-2.1437-1.074-2.7479 0.50051-0.37259 0.97094 0.0418 1.2367 1.3818 0.8863 1.0527-0.27527 1.6674-0.89934 1.3662-1.3868zm-253.77-0.49401c1.9582-0.52528 0.91103-2.2093-11.029-17.736l-13.192-17.156h-15.942v34l14.5 0.54195c7.975 0.29807 16.525 0.62943 19 0.73635 2.475 0.10691 5.4736-0.0668 6.6636-0.386zm142.22-16.501c5.3359-1.8601 7.8338-10.034 4.9803-16.296-2.0036-4.3975-6.341-5.5952-20.263-5.5952h-12.599v23h12.351c6.7929 0 13.782-0.49879 15.53-1.1084zm-147.29-38.197c3.4463-4.0104 3.4586-12.738 0.0228-16.173-3.1559-3.1559-6.6067-3.6738-22.112-3.3186l-13 0.29778-0.28837 9.9288c-0.1586 5.4608-0.0483 10.554 0.24505 11.319 0.43201 1.1258 3.5928 1.3294 16.627 1.0712l16.094-0.31888zm147.96-2.1488c3.1752-3.1752 3.4679-11.072 0.54427-14.685-1.8349-2.2676-2.4369-2.3608-15.25-2.3608h-13.34l-0.28621 9.75-0.28621 9.75h13.082c12.556 0 13.18-0.0987 15.536-2.4546zm-347.23 151.7c-0.34255-0.9625-0.81179-2.2-1.0428-2.75-0.23099-0.55 0.2884-0.12649 1.1542 0.94113 1.5721 1.9386 2.0468 3.5589 1.0428 3.5589-0.29226 0-0.81165-0.7875-1.1542-1.75zm480.37-157.9c-0.37533-0.37532-0.68241-3.7001-0.68241-7.3884 0-7.7278-1.0576-6.4511 19.767-23.861 13.616-11.383 17.233-16.327 17.233-23.549 0-6.1049-1.8799-9.1989-6.2948-10.36-3.7951-0.99816-9.3799 0.05521-11.492 2.1676-0.82812 0.82812-1.7849 3.2237-2.1262 5.3236l-0.62059 3.8179h-15.966l0.14822-4.5903c0.27537-8.5283 6.7956-17.212 15.016-19.998 5.0399-1.7083 17.831-1.7307 22.672-0.03971 4.9963 1.7452 10.235 6.4088 12.956 11.533 1.6915 3.1856 2.1648 5.7597 2.132 11.595-0.0675 12.027-3.759 17.465-22.437 33.058l-10.113 8.4422 17.313 0.5 17.313 0.5v13l-27.068 0.26574c-14.887 0.14615-27.375-0.0413-27.75-0.41667z" fill="#fff"/>
</svg>
