<svg width="600" height="100.53" version="1.1" viewBox="0 0 158.75 26.598518" xmlns="http://www.w3.org/2000/svg">
 <g transform="translate(-26.458 -135.53)" fill="#fff">
  <path d="m26.458 135.53v26.568h3.936v-23.033h6.7239c2.7256 0 4.9199 2.1943 4.9199 4.9199s-2.196 4.8246-4.9199 4.9199h-5.7399l9.1839 13.194h5.2479l-7.3492-9.5939c4.1677-0.5518 7.3594-4.0912 7.3594-8.4151v-0.0615c0-4.7095-3.7877-8.4971-8.4971-8.4971h-1.4042z"/>
  <path d="m46.958 135.53v3.6079h5.0224v22.96h3.608v-22.96h5.1454v-3.6079z"/>
  <path d="m63.46 135.53v26.568h14.001v-2.952h-10.393v-23.616z"/>
  <path d="m76.314 135.53v26.568h6.2319v-17.056l10.496 17.056h5.9039v-26.568h-6.2319v17.056l-10.496-17.056z"/>
  <path d="m102.55 135.53v26.568h6.8879v-26.568z"/>
  <path d="m112.07 135.53v5.7399h5.4119v20.828h6.8879v-20.828h5.4119v-5.7399z"/>
  <path d="m132.07 135.53v26.568l6.8879 0.0307v-20.694h6.9392c2.0897 0 3.772 1.6823 3.772 3.772s-1.6823 3.772-3.772 3.772h-6.2832l9.5119 13.12h7.8719l-7.1237-8.8046c3.9127-0.98692 6.7957-4.5155 6.7957-8.7431 0-4.997-4.0229-9.0199-9.0199-9.0199z"/>
  <path d="m171.43 135.53c-7.6082 0-13.776 5.9474-13.776 13.284 0 7.3364 6.1676 13.284 13.776 13.284 7.6082 0 13.776-5.9474 13.776-13.284 0-7.3365-6.1676-13.284-13.776-13.284zm0 5.8732c3.9852 0 7.2159 3.3164 7.2159 7.4004 0 4.084-3.2307 7.3902-7.2159 7.3902-3.9852 0-7.2159-3.3061-7.2159-7.3902 0-4.0841 3.2307-7.4004 7.2159-7.4004z"/>
 </g>
</svg>
