<?xml version="1.0" encoding="UTF-8"?>
<!-- Created with Inkscape (http://www.inkscape.org/) -->
<svg width="51.564" height="9.9123" version="1.1" viewBox="0 0 51.564 9.9123" xml:space="preserve" xmlns="http://www.w3.org/2000/svg" xmlns:cc="http://creativecommons.org/ns#" xmlns:dc="http://purl.org/dc/elements/1.1/" xmlns:rdf="http://www.w3.org/1999/02/22-rdf-syntax-ns#"><metadata><rdf:RDF><cc:Work rdf:about=""><dc:format>image/svg+xml</dc:format><dc:type rdf:resource="http://purl.org/dc/dcmitype/StillImage"/><dc:title/></cc:Work></rdf:RDF></metadata><defs><linearGradient id="linearGradient40" x2="1" gradientTransform="matrix(0 -7.1072 -7.1072 0 19.307 7.2749)" gradientUnits="userSpaceOnUse"><stop stop-color="#888887" offset="0"/><stop stop-color="#d9dada" offset=".020448"/><stop stop-color="#f7f6f5" offset=".052404"/><stop stop-color="#eff0ef" offset=".48766"/><stop stop-color="#f7f6f5" offset=".89549"/><stop stop-color="#ededed" offset=".92944"/><stop stop-color="#d9dada" offset=".96426"/><stop stop-color="#888887" offset="1"/></linearGradient><clipPath id="clipPath50"><path d="m0.011 0h38.662v7.434h-38.662z"/></clipPath><linearGradient id="linearGradient76" x2="1" gradientTransform="matrix(0 6.99 -6.99 0 16.895 .227)" gradientUnits="userSpaceOnUse"><stop stop-color="#004071" offset="0"/><stop stop-color="#006dad" offset=".078005"/><stop stop-color="#006dad" offset=".91173"/><stop stop-color="#0092ba" offset="1"/></linearGradient><clipPath id="clipPath86"><path d="m0.011 0h38.662v7.434h-38.662z"/></clipPath><clipPath id="clipPath114"><path d="m0.32791 7.0725h37.985v-6.2475h-37.985z"/></clipPath><clipPath id="clipPath118"><path d="m0.328 0.825h37.984v6.247h-37.984z"/></clipPath></defs><g transform="matrix(1.3333 0 0 -1.3333 0 9.9123)"><path d="m1.016 7.214c-0.551 0-0.747-0.325-0.747-0.865v-5.259c0-0.541 0.196-0.866 0.747-0.866h36.582c0.551 0 0.747 0.325 0.747 0.866v5.259c0 0.54-0.196 0.865-0.747 0.865z" fill="url(#linearGradient40)"/><g clip-path="url(#clipPath50)"><g transform="translate(37.587 .0037)"><path d="m0 0c0.818 0 1.068 0.51 1.068 1.018v5.395c0 0.509-0.25 1.018-1.068 1.018h-36.52c-0.818 0-1.067-0.509-1.067-1.018v-5.395c0-0.508 0.249-1.018 1.067-1.018zm-36.482 0.068c-0.551 0-0.924 0.327-0.924 0.868v5.559c0 0.541 0.373 0.866 0.924 0.866h36.444c0.551 0 0.924-0.325 0.924-0.866v-5.559c0-0.541-0.373-0.868-0.924-0.868z" fill="#a2a3a3"/></g></g><path d="m13.191 0.228h7.409v6.988h-7.409z" fill="url(#linearGradient76)"/><g clip-path="url(#clipPath86)"><g transform="translate(32.159 4.1678)"><path d="m0 0v0.987c0 0.267 0.107 0.438 0.659 0.438 0.068 0 0.126-5e-3 0.194-0.016v-3.237c0-0.267-0.106-0.437-0.659-0.437-0.068 0-0.127 5e-3 -0.194 0.015v1.471h-1.72v-1.049c0-0.267-0.107-0.437-0.66-0.437-0.067 0-0.125 5e-3 -0.194 0.015v3.237c0 0.267 0.107 0.438 0.66 0.438 0.068 0 0.126-5e-3 0.194-0.016v-1.409zm4.897-0.416c0 1.101-0.792 1.848-2.103 1.848h-0.892c-0.428 0-0.531-0.227-0.531-0.523v-2.656c0-0.283 0.103-0.515 0.531-0.515h0.892c1.311 0 2.103 0.746 2.103 1.846m-2.671-1.056v2.114h0.618c0.859 0 1.173-0.558 1.173-1.058s-0.314-1.056-1.173-1.056z" fill="#006dad"/></g><g transform="translate(4.7687,3.0496)"><path d="m0 0c0-0.598-0.391-1.036-1.186-1.122-0.575-0.062-1.409 0.011-1.805 0.058-0.014 0.063-0.026 0.143-0.026 0.208 0 0.522 0.283 0.642 0.548 0.642 0.276 0 0.709-0.048 1.032-0.048 0.355 0 0.463 0.121 0.463 0.235 0 0.15-0.143 0.214-0.419 0.266l-0.753 0.144c-0.628 0.121-0.962 0.555-0.962 1.015 0 0.56 0.396 1.029 1.175 1.115 0.589 0.064 1.306-8e-3 1.7-0.057 0.014-0.067 0.022-0.131 0.022-0.201 0-0.522-0.276-0.635-0.541-0.635-0.204 0-0.52 0.038-0.881 0.038-0.368 0-0.52-0.102-0.52-0.225 0-0.131 0.145-0.185 0.375-0.225l0.721-0.134c0.74-0.136 1.057-0.557 1.057-1.074m1.293-0.642c0-0.321-0.126-0.506-0.752-0.506-0.083 0-0.156 5e-3 -0.226 0.016v4.258c0 0.323 0.11 0.66 0.743 0.66 0.08 0 0.16-8e-3 0.235-0.024zm2.561-1.648c0.082-0.042 0.251-0.093 0.464-0.098 0.363-8e-3 0.562 0.131 0.709 0.457l1.952 4.355c-0.081 0.043-0.259 0.091-0.405 0.095-0.251 4e-3 -0.588-0.047-0.803-0.561l-0.632-1.492-1.24 2.019c-0.08 0.025-0.275 0.06-0.419 0.06-0.437 0-0.682-0.162-0.935-0.437l-1.206-1.318 0.97-1.526c0.179-0.278 0.415-0.42 0.799-0.42 0.25 0 0.459 0.057 0.556 0.104l-1.168 1.76 0.828 0.876 1.357-2.13z" fill="#006dad"/></g><g transform="translate(23.67 1.951)"><path d="m0 0c-0.075 0-0.147 3e-3 -0.215 0.011-0.068 7e-3 -0.127 0.013-0.175 0.022v1.29h-1.197c-9e-3 0.044-0.018 0.096-0.027 0.156-9e-3 0.059-0.013 0.128-0.013 0.208 0 0.167 0.035 0.285 0.106 0.35 0.07 0.067 0.156 0.1 0.258 0.1h0.873v0.92c0 0.1 0.031 0.185 0.092 0.254 0.062 0.069 0.177 0.102 0.344 0.102 0.075 0 0.147-3e-3 0.215-0.01 0.069-7e-3 0.127-0.013 0.175-0.022v-1.244h1.211c9e-3 -0.044 0.017-0.097 0.026-0.156s0.014-0.128 0.014-0.208c0-0.168-0.036-0.285-0.106-0.35-0.071-0.067-0.157-0.1-0.258-0.1h-0.887v-0.966c0-0.1-0.03-0.185-0.092-0.254s-0.176-0.103-0.344-0.103" fill="#006dad"/></g><g transform="translate(27.23 1.4734)"><path d="m0 0c-0.096 0-0.191 5e-3 -0.285 0.014s-0.173 0.02-0.237 0.034v3.234l-0.755-0.343c-0.037 0.046-0.076 0.096-0.117 0.151-0.041 0.056-0.078 0.124-0.11 0.206-0.032 0.083-0.048 0.165-0.048 0.247 0 0.11 0.03 0.204 0.089 0.282 0.06 0.078 0.142 0.142 0.248 0.193l1.002 0.473h0.804v-4.01c0-0.132-0.042-0.246-0.124-0.339-0.082-0.095-0.238-0.142-0.467-0.142" fill="#006dad"/></g><g transform="translate(15.811 4.4617)"><path d="m0 0c-0.053 0.047-0.1 0.087-0.173 0.206-0.18 0.293-0.186 0.68 0.193 0.818l1.378 0.467h0.679v-3.941c0-0.3-0.086-0.513-0.572-0.513-0.193 0-0.42 0.02-0.513 0.041v3.255z" fill="#fff"/></g><g clip-path="url(#clipPath114)" opacity=".39999"><g clip-path="url(#clipPath118)"><g transform="translate(37.694 1.8338)"><path d="m0 0c0.474-0.469 0.538-0.912 0.555-1.009 0.047 0 0.064 0.207 0.064 0.516l-2e-3 4.964c0 0.573-0.187 0.767-0.673 0.767-0.165 0-0.33-0.088-0.549-0.088h-35.536c-0.22 0-0.385 0.088-0.549 0.088-0.487 0-0.674-0.194-0.674-0.767l-1e-3 -4.964c0-0.309 0.017-0.516 0.063-0.516 0.017 0.097 0.031 0.574 0.555 1.009 4.183 3.229 32.374 3.948 36.747 0" fill="#fff"/></g></g></g></g></g></svg>
