<svg width="600" height="146.06" version="1.1" viewBox="0 0 158.75 38.645012" xmlns="http://www.w3.org/2000/svg">
 <defs>
  <linearGradient id="b" x2="1" gradientTransform="matrix(0 22.964 22.964 0 98.911 89.943)" gradientUnits="userSpaceOnUse">
   <stop stop-color="#888685" offset="0"/>
   <stop stop-color="#d9d9da" offset=".020448"/>
   <stop stop-color="#f5f5f6" offset=".052404"/>
   <stop stop-color="#eeefef" offset=".48766"/>
   <stop stop-color="#f5f5f6" offset=".89549"/>
   <stop stop-color="#ebebec" offset=".92944"/>
   <stop stop-color="#d9d9da" offset=".96426"/>
   <stop stop-color="#888685" offset="1"/>
  </linearGradient>
  <linearGradient id="a" x2="1" gradientTransform="matrix(0 -22.586 22.586 0 103.07 112.73)" gradientUnits="userSpaceOnUse">
   <stop stop-color="#810a32" offset="0"/>
   <stop stop-color="#a90e3a" offset=".10441"/>
   <stop stop-color="#a90e3a" offset=".89813"/>
   <stop stop-color="#b94556" offset=".99967"/>
   <stop stop-color="#b94556" offset="1"/>
  </linearGradient>
 </defs>
 <g transform="translate(-19.537 -89.439)">
  <path d="m174.84 113.44c2.6438 0 3.4511-1.6437 3.4511-3.2874v-17.434c0-1.6401-0.80732-3.2838-3.4511-3.2838h-151.85c-2.6438 0-3.4511 1.6437-3.4511 3.2838v17.434c0 1.6437 0.80731 3.2874 3.4511 3.2874h151.85m-151.73-0.22183c-1.7783 0-2.9856-1.051-2.9856-2.8002v-17.965c0-1.7492 1.2073-2.8002 2.9856-2.8002h151.6c1.7819 0 2.9856 1.051 2.9856 2.8002v17.965c0 1.7492-1.2037 2.8002-2.9856 2.8002h-151.6" fill="#a1a2a2"/>
  <path d="m22.84 90.138c-1.7783 0-2.4147 1.051-2.4147 2.8038v16.986c0 1.7455 0.6364 2.7965 2.4147 2.7965 50.715 1e-5 101.43 1e-5 152.15 2e-5 1.7783 0 2.411-1.051 2.411-2.7965v-16.986c0-1.7528-0.63277-2.8038-2.411-2.8038-50.715-1e-5 -101.43-1e-5 -152.15-2e-5z" fill="url(#b)"/>
  <path d="m61.998 90.149v22.587h82.142v-22.587z" fill="url(#a)"/>
  <g fill="#fff">
   <path d="m73.143 108.58c-1.0001 0-1.9237-0.18183-2.7711-0.54185s-1.5783-0.85823-2.2001-1.4946c-0.62185-0.6364-1.1055-1.3928-1.4583-2.2692-0.35274-0.87641-0.53094-1.8219-0.53094-2.8402 0-0.98914 0.17819-1.9165 0.53094-2.7783 0.35275-0.86186 0.83641-1.611 1.4583-2.2474 0.62185-0.63639 1.3528-1.1346 2.2001-1.4946s1.771-0.54185 2.7711-0.54185c0.72004 0 1.4183 0.08 2.0947 0.23274 0.6764 0.15637 1.3019 0.35638 1.8837 0.5964 0.12364 1.8801-0.33456 2.8183-1.3783 2.8183-0.18183 0-0.35275-0.0218-0.50548-0.0618-0.15637-0.0436-0.32365-0.0873-0.50912-0.12728-0.18183-0.0436-0.38911-0.0873-0.61094-0.12728-0.22547-0.0436-0.49457-0.0655-0.80368-0.0655-0.49457 0-0.96005 0.0909-1.3964 0.26547-0.44002 0.17819-0.81459 0.43274-1.1346 0.76367-0.31638 0.33092-0.5673 0.73095-0.74913 1.1964-0.18183 0.46911-0.27638 0.99277-0.27638 1.571 0 0.60731 0.09455 1.1528 0.27638 1.6328 0.18183 0.48003 0.43275 0.88733 0.74913 1.2182 0.32002 0.33457 0.69458 0.58912 1.1346 0.76367 0.43639 0.17819 0.90186 0.26547 1.3964 0.26547 0.3091 0 0.58185-0.0218 0.82186-0.0618 0.24001-0.0436 0.45457-0.0873 0.64731-0.12728 0.1891-0.0436 0.37093-0.0873 0.53821-0.12728 0.17092-0.0436 0.34547-0.0655 0.5273-0.0655 1.0291 0 1.491 0.94187 1.3783 2.822-0.57821 0.24001-1.2255 0.43639-1.9383 0.59276-0.70913 0.15637-1.4255 0.23274-2.1456 0.23274"/>
   <path d="m80.442 108.41c-0.29456 0-0.58912-0.0146-0.87641-0.0436-0.29092-0.0291-0.53457-0.0618-0.73095-0.10546v-12.277c0-0.41092 0.12728-0.76003 0.38184-1.051 0.25092-0.28729 0.73094-0.43275 1.4364-0.43275 0.2982 0 0.58912 0.0145 0.88004 0.04 0.28729 0.0291 0.53094 0.0655 0.72731 0.1091v12.277c0 0.41092-0.12728 0.76003-0.3782 1.0473-0.25456 0.29093-0.73458 0.43639-1.4401 0.43639"/>
   <path d="m86.227 108.41c-0.28365 0-0.55639-0.0146-0.8255-0.0436-0.26911-0.0291-0.49457-0.0618-0.6764-0.10546v-13.506c0.21092-0.0727 0.4873-0.13092 0.8255-0.18183 0.3382-0.0473 0.62549-0.0727 0.8655-0.0727 0.77822 0 1.3419 0.0982 1.6946 0.29456 0.35275 0.20001 0.64731 0.49094 0.88732 0.86914l4.8002 7.5713v-7.3785c0-0.18547 0.02545-0.35639 0.07637-0.52003 0.04727-0.16365 0.13091-0.30547 0.25092-0.43275 0.12001-0.12728 0.28729-0.22911 0.49821-0.2982 0.21092-0.0691 0.48002-0.10546 0.80368-0.10546 0.28365 0 0.55276 0.0145 0.81459 0.04 0.26183 0.0291 0.48366 0.0582 0.66549 0.0873v13.528c-0.19637 0.0982-0.43639 0.16728-0.7164 0.20001-0.28365 0.0364-0.56003 0.0546-0.8255 0.0546-0.66549 0-1.1564-0.0909-1.4801-0.27638-0.32729-0.18183-0.59276-0.43639-0.80368-0.76368l-5.1421-8.2259v7.8658c0 0.39639-0.12001 0.72731-0.36002 0.99642-0.24001 0.26911-0.69094 0.40366-1.3528 0.40366"/>
   <path d="m101.25 108.32c-0.39638 0-0.7164-0.0436-0.96369-0.12728-0.24728-0.0836-0.43638-0.20001-0.57094-0.34911-0.13455-0.1491-0.22546-0.33093-0.27274-0.54185-0.05091-0.21092-0.07637-0.43638-0.07637-0.67639v-10.393c0-0.24001 0.02545-0.46547 0.07637-0.67639 0.0473-0.21456 0.13819-0.39275 0.27274-0.54185 0.13456-0.1491 0.32366-0.26547 0.57094-0.34911 0.24729-0.0873 0.56731-0.12728 0.96369-0.12728h7.0004c0.0291 0.15637 0.0582 0.36729 0.0873 0.6364 0.0255 0.2691 0.04 0.54185 0.04 0.82549 0 0.59276-0.12001 1.0146-0.36002 1.2619-0.24001 0.24728-0.54185 0.37093-0.90914 0.37093h-4.313v2.4183h4.9675c0.0291 0.14182 0.0582 0.32728 0.0873 0.56002 0.0254 0.23637 0.04 0.4873 0.04 0.75277 0 0.5673-0.11273 0.95278-0.3382 1.1564-0.22547 0.20728-0.50548 0.3091-0.84369 0.3091h-3.9129v2.3965h5.6658c0.0291 0.15274 0.0582 0.37093 0.0873 0.64731 0.0255 0.27274 0.04 0.54549 0.04 0.81459 0 0.6073-0.12001 1.0328-0.36002 1.2728s-0.54185 0.36002-0.90914 0.36002h-6.0694"/>
   <path d="m111.42 108.41c-0.32366 0-0.61094-0.0327-0.85822-0.0945-0.24365-0.0655-0.46185-0.13819-0.64367-0.22183l1.2946-13.212c0.26548-0.11274 0.61822-0.20729 1.0546-0.27638 0.43639-0.0691 0.81095-0.10546 1.12-0.10546 0.44003 0 0.81459 0.0291 1.131 0.0836 0.32001 0.0582 0.58912 0.15274 0.81459 0.28729 0.22545 0.13455 0.40728 0.32002 0.54183 0.56003 0.13092 0.24001 0.23275 0.5382 0.30548 0.89095l0.54912 2.5674c0.15637 0.70549 0.32002 1.4873 0.49821 2.3419 0.17455 0.85459 0.33456 1.7346 0.47275 2.6401h0.0873c0.15274-0.9055 0.31638-1.7819 0.48366-2.6292 0.17092-0.84733 0.34547-1.6255 0.5273-2.331l0.67641-2.6947c0.17091-0.66548 0.44002-1.1164 0.81458-1.3564s0.95278-0.36002 1.7419-0.36002c0.39274 0 0.79276 0.0327 1.1928 0.0945 0.40366 0.0618 0.73458 0.13092 1.0037 0.20001l1.2364 13.299c-0.19638 0.0691-0.43275 0.13819-0.70914 0.21092-0.27274 0.0691-0.57456 0.10546-0.89822 0.10546-0.45093 0-0.83278-0.0764-1.1419-0.23274-0.3091-0.15637-0.48002-0.4473-0.50911-0.86914l-0.31638-4.5821c-0.0691-0.80367-0.13091-1.651-0.17818-2.5347-0.0509-0.88005-0.0836-1.7201-0.0982-2.5129h-0.04c-0.18546 0.73821-0.37093 1.531-0.56002 2.3856-0.19274 0.85822-0.38548 1.6437-0.58186 2.3674l-0.86913 3.6038c-0.21092 0.84732-0.88004 1.2728-2.0074 1.2728-0.28365 0-0.57094-0.0291-0.86914-0.0873-0.29456-0.0546-0.54912-0.12-0.76004-0.1891l-1.08-4.4948c-0.21092-0.83641-0.4073-1.6546-0.59277-2.4619-0.18182-0.80368-0.35274-1.611-0.50547-2.4147h-0.0655c-0.04 1.131-0.0982 2.1637-0.16729 3.1056-0.0727 0.93824-0.13455 1.7492-0.19274 2.4292l-0.33819 4.1348c-0.0254 0.40729-0.18182 0.69095-0.46548 0.84732-0.28001 0.15637-0.64731 0.23274-1.0982 0.23274"/>
   <path d="m131.38 102.62h3.1638l-1.5783-5.1966-1.5855 5.1966m-3.2984 5.833c-0.26911 0-0.57458-0.0254-0.92005-0.0764-0.34548-0.0473-0.63276-0.11637-0.85822-0.20001l4.3893-13.444c0.38183-0.0982 0.76731-0.17091 1.1564-0.21455 0.38911-0.04 0.7455-0.0618 1.0692-0.0618 0.46911 0 0.8655 0.0364 1.2001 0.10546 0.33093 0.0727 0.61094 0.17819 0.83641 0.32001 0.22911 0.14183 0.41457 0.3273 0.56366 0.56004 0.1491 0.23274 0.27274 0.50547 0.37093 0.81821l3.7602 11.895c-0.24001 0.0982-0.5273 0.17455-0.8655 0.22183-0.3382 0.0509-0.66913 0.0764-0.99642 0.0764-0.36365 0-0.72003-0.0618-1.0655-0.18182-0.34547-0.12001-0.59639-0.39275-0.75277-0.81823l-0.72003-2.1819h-4.6111l-0.61095 2.0583c-0.15637 0.49457-0.4182 0.80368-0.78186 0.93096-0.36729 0.12728-0.7564 0.19273-1.1637 0.19273"/>
  </g>
  <path d="m157.19 99.99v-3.1893c0-0.8655 0.34545-1.4146 2.1274-1.4146 0.22182 0 0.41092 0.0145 0.62911 0.0509v10.462c0 0.85823-0.34547 1.4073-2.131 1.4073-0.2182 0-0.40729-0.0145-0.62548-0.0473v-4.7493h-5.5567v3.3893c0 0.85823-0.34548 1.4073-2.1346 1.4073-0.21457 0-0.40367-0.0145-0.6255-0.0473v-10.459c0-0.8655 0.34548-1.4146 2.131-1.4146 0.22183 0 0.40728 0.0145 0.62912 0.0509v4.553h5.5567m15.823 1.3419c0-3.5529-2.5601-5.9639-6.7967-5.9639h-2.8802c-1.3819 0-1.7128 0.72731-1.7128 1.6837v8.5823c0 0.92005 0.3309 1.6655 1.7128 1.6655h2.8802c4.2366 0 6.7967-2.411 6.7967-5.9676m-8.6296 3.4147v-6.8258h1.9965c2.7747 0 3.7929 1.7965 3.7929 3.4111 0 1.6183-1.0182 3.4147-3.7929 3.4147h-1.9965" fill="#a90e3a"/>
  <path d="m34.799 103.6c0 1.9346-1.2655 3.3456-3.8329 3.6256-1.8583 0.20001-4.553-0.0364-5.8294-0.18183-0.04728-0.21091-0.08364-0.46911-0.08364-0.67276 0-1.6946 0.91278-2.0801 1.771-2.0801 0.88732 0 2.291 0.15637 3.3311 0.15637 1.1455 0 1.4983-0.38911 1.4983-0.76004 0-0.4873-0.46548-0.68731-1.3528-0.85823l-2.4365-0.46911c-2.0256-0.38911-3.1093-1.7892-3.1093-3.2765 0-1.811 1.2801-3.3238 3.8002-3.6038 1.9019-0.20364 4.2184 0.0291 5.4912 0.18547 0.04728 0.21819 0.0691 0.42183 0.0691 0.65093 0 1.6874-0.88732 2.051-1.7455 2.051-0.65822 0-1.6801-0.12364-2.8474-0.12364-1.1892 0-1.6801 0.32729-1.6801 0.72731 0 0.42184 0.46911 0.5964 1.2146 0.72731l2.3274 0.43275c2.3892 0.44002 3.4147 1.7965 3.4147 3.4693m4.1784 2.0765c0 1.0364-0.40729 1.6364-2.4329 1.6364-0.26547 0-0.50184-0.0218-0.72731-0.0546v-13.757c0-1.0437 0.35638-2.1346 2.4001-2.1346 0.25819 0 0.51639 0.0254 0.76004 0.0764v14.233m8.2768 5.3203c0.26183 0.13819 0.80731 0.30183 1.4946 0.32002 1.1746 0.0254 1.8183-0.42548 2.291-1.4764l6.3094-14.07c-0.26183-0.14183-0.8364-0.2982-1.3092-0.30911-0.81095-0.0145-1.8983 0.15274-2.5965 1.811l-2.0401 4.8221-4.0075-6.524c-0.2582-0.08-0.88732-0.19274-1.3528-0.19274-1.411 0-2.2038 0.52003-3.022 1.411l-3.8947 4.2584 3.1311 4.9312c0.57821 0.89823 1.3419 1.3564 2.582 1.3564 0.81095 0 1.4837-0.18547 1.7965-0.33457l-3.7711-5.6876 2.6729-2.8329 4.3857 6.884-2.6692 5.633" fill="#a90e3a"/>
  <path d="m22.781 90.512c-1.5746 0-2.1782 0.62579-2.1782 2.4841h-5.29e-4l-0.0036 16.034c0 1 0.05451 1.6691 0.2036 1.6691 0.05819-0.31275 0.10165-1.8545 1.7926-3.2618 0.6073-0.46548 1.4369-0.91648 2.4624-1.3565l0.0026 2e-3c1.3439-0.57026 3.0368-1.115 5.0229-1.6309 0.0023 1e-5 5e-3 -2e-5 0.0072 0 0.44366-0.11637 0.8982-0.22886 1.3746-0.34158 0.0011-1e-3 2e-3 -2e-3 0.0031-3e-3 1.0391-0.24339 2.1505-0.48686 3.3238-0.71934l5.29e-4 -2e-3c0.3382-0.0618 0.67666-0.12729 1.0258-0.19275 1.102-0.20847 2.2205-0.40544 3.159-0.55868v-2e-3c0.34463-0.058 0.69302-0.11249 1.0449-0.1669l0.0026-2e-3c1.0546-0.16729 2.1495-0.33094 3.2768-0.48731l1e-3 -2e-3c1.3237-0.1891 2.6983-0.36753 4.1129-0.54209-0.89433-1.4058-0.88652-1.393 0.0026 2e-3 1.0908-0.13454 2.1997-0.26186 3.3378-0.38912l0.0011 2e-3c0.3782-0.0436 0.7602-0.0835 1.142-0.12351 1.1484-0.12117 2.3118-0.24063 3.2902-0.33336l2.1601-4.8181c-0.19638-0.10364-0.56875-0.21728-0.94206-0.27233 0.3728 0.0535 0.74671 0.16714 0.94309 0.27078l-0.0011 2e-3 -2.159 4.8172c2.2001-0.21092 4.4732-0.41139 6.8078-0.59686 1.4437-0.11273 2.902-0.22167 4.3894-0.32349 0.08364-0.34548 0.19256-0.68712 0.32711-1.0144 0.35275-0.86186 0.83646-1.6146 1.4583-2.2474 0.62185-0.63639 1.3567-1.1386 2.2004-1.4986 0.84732-0.36001 1.7708-0.53795 2.7709-0.53795 0.7164 0 1.418 0.0798 2.0944 0.23255 0.6764 0.15637 1.3023 0.35269 1.8841 0.59634 0.12364 1.8765-0.33454 2.8184-1.3746 2.8184-0.18546 0-0.35679-0.0215-0.50953-0.0615-0.15637-0.0436-0.32718-0.0877-0.50901-0.13126-0.18546-0.04-0.38896-0.0834-0.61443-0.12712-0.22546-0.04-0.49082-0.062-0.80356-0.062-0.49094 0-0.96044 0.091-1.3932 0.26561-0.43998 0.17819-0.81423 0.43284-1.1342 0.76377-0.21092 0.22183-0.39296 0.46928-0.5457 0.75293 2.8147-0.17091 5.6803-0.32022 8.5969-0.45114v-2.9853c0-0.41092 0.12369-0.76018 0.38189-1.0475 0.25456-0.29093 0.73111-0.43666 1.4366-0.43666 0.2982 0 0.58912 0.0148 0.88004 0.0439 0.28729 0.0255 0.53069 0.0618 0.7307 0.10542v4.1744c0.81459-0.0327 1.6364-0.0613 2.4619-0.0904v-3.9785c0.21092-0.0691 0.48395-0.13099 0.82578-0.1819 0.3382-0.0509 0.62556-0.0729 0.86558-0.0729 0.77458 0 1.3417 0.0982 1.6945 0.29817 0.34911 0.19637 0.64727 0.48738 0.88728 0.86558l1.8293 2.8877c0.98914-0.0218 1.9781-0.0438 2.9709-0.0656v-2.6293c0-0.18547 0.02556-0.35624 0.07648-0.51625 0.04727-0.16365 0.13426-0.30886 0.25063-0.43615 0.12001-0.12727 0.28412-0.22544 0.49868-0.29817 0.21092-0.0691 0.47991-0.10593 0.80357-0.10593 0.28365 0 0.55261 0.0148 0.8108 0.0439 0.26183 0.0255 0.48738 0.0547 0.66921 0.0837v3.8075c0.82186-0.0109 1.6436-0.0185 2.4619-0.0295v-2.1673c0-0.24002 0.02558-0.46551 0.07286-0.67643 0.0509-0.21456 0.14192-0.39247 0.27647-0.54157s0.32374-0.2657 0.57102-0.34933c0.24729-0.0836 0.56688-0.12713 0.95963-0.12713h7.0006c0.0327 0.15273 0.0619 0.36705 0.0873 0.63252 0.0291 0.26911 0.0434 0.54576 0.0434 0.8294 0 0.59276-0.11965 1.0146-0.35967 1.2619-0.24001 0.24728-0.54221 0.37052-0.9095 0.37052h-4.3165v0.74568c0.84368-7e-3 1.691-7e-3 2.5383-7e-3 1.8474 0 3.6986 7e-3 5.535 0.0259l0.34157-3.5238c0.2691-0.1091 0.62194-0.20012 1.0583-0.27285 0.43639-0.0691 0.81072-0.10542 1.1198-0.10542 0.43639 0 0.81482 0.0291 1.1312 0.0873 0.31638 0.0545 0.58895 0.14916 0.81442 0.28371 0.22545 0.13455 0.40752 0.31962 0.54207 0.56327 0.13092 0.23637 0.2327 0.53504 0.30179 0.88779l0.46561 2.1673c0.75277 0.0145 1.5019 0.0324 2.2474 0.0507l0.58187-2.3203c0.17092-0.66548 0.44346-1.1196 0.81803-1.3596 0.37092-0.24001 0.9529-0.36018 1.7384-0.36018 0.39639 0 0.79265 0.0328 1.1963 0.0946 0.40002 0.0618 0.73447 0.13087 0.99994 0.2036l0.36741 3.9165c1.5928 0.0618 3.1709 0.12726 4.731 0.19998l1.3674-4.1822c0.38183-0.0982 0.76376-0.17082 1.1565-0.21446 0.3891-0.04 0.74551-0.062 1.0728-0.062 0.46546 0 0.86174 0.0364 1.1963 0.10542 0.33093 0.0727 0.60754 0.17859 0.83664 0.31678 0.22911 0.14546 0.41472 0.33053 0.56017 0.56327 0.15273 0.23274 0.27645 0.50944 0.37465 0.81855l0.97462 3.0871c2.5056 0.17092 4.931 0.3637 7.2765 0.57825 1.6182 0.15274 3.1963 0.31278 4.7309 0.48369l1e-3 -2e-3c4.0325 0.45453 7.7491 0.9854 11.073 1.5999v2e-3c0.57094 0.10546 1.1309 0.21076 1.6764 0.3235v-5.3e-4c0.96272 0.19619 1.8782 0.39593 2.7611 0.60667v-2e-3c1.5815 0.37813 3.0356 0.78179 4.3408 1.2035 1.0034 0.34856 2.0382 0.71692 2.8959 1.093l1e-3 -1e-3c1.5445 0.67978 2.7585 1.4178 3.6054 2.2066 1.531 1.5164 1.7417 2.949 1.7926 3.2618 0.15274 0 0.20723-0.66909 0.20722-1.6691l-4e-3 -16.034c0-1.8583-0.60405-2.4836-2.1787-2.4836-0.53458 0-1.0654 0.2837-1.7746 0.2837-9.7066-1e-3 -19.419-5.3e-4 -29.128-5.3e-4v5.3e-4l-82.142-5.2e-4h-37.438c-0.71276 0-1.2436-0.2837-1.7782-0.2837zm110.18 6.9132-0.50178 1.6474c0.34183 0.0218 0.6798 0.0402 1.0216 0.062zm-19.281 0.23306c-0.0109 0.26547-0.0216 0.52368-0.0326 0.77824 0.0873 0 0.16387-2.7e-4 0.25115 4e-3 -0.0545-0.26184-0.10567-0.52002-0.15658-0.78185zm7.9318 0.0212-0.0439 5.3e-4c-0.0727 0.29819-0.14895 0.60342-0.22532 0.92707 0.0982 0 0.19639 4e-3 0.29095 7e-3 -7e-3 -0.32001-0.0144-0.62935-0.0217-0.93482z" fill="#fff" opacity=".4" stroke-width="3.6366"/>
  <g transform="translate(4.3615e-6 4.7958e-6)">
   <path d="m76.412 128.08c-0.59745 0-1.1491-0.10678-1.6576-0.32287-0.50846-0.21356-0.94829-0.51355-1.3195-0.89999-0.37372-0.38643-0.66609-0.84659-0.87456-1.3805-0.21101-0.53389-0.31525-1.1186-0.31525-1.7491 0-0.6127 0.10424-1.1873 0.31525-1.7212 0.20847-0.53643 0.50084-0.99913 0.87456-1.3932 0.37118-0.3966 0.811-0.70423 1.3195-0.92795 0.50846-0.22372 1.0601-0.33559 1.6576-0.33559 0.44745 0 0.87456 0.0432 1.2813 0.1322 0.40677 0.0864 0.79575 0.20593 1.1644 0.35593 0.0076 0.061 0.01525 0.1144 0.02034 0.16271 0.0025 0.0483 0.0051 0.0991 0.0051 0.15 0 0.28219-0.06102 0.50083-0.18305 0.65846-0.12457 0.15762-0.27711 0.23643-0.46016 0.23643-0.08898 0-0.18559-0.0178-0.28982-0.0508-0.10424-0.0356-0.22627-0.0763-0.36101-0.11949-0.13728-0.0432-0.29745-0.0839-0.4805-0.11949-0.18305-0.033-0.39914-0.0508-0.64321-0.0508-0.37881 0-0.72965 0.0712-1.0525 0.2161-0.32542 0.14491-0.60762 0.3483-0.84914 0.61016-0.23898 0.2644-0.42965 0.58219-0.5644 0.95337-0.13729 0.37372-0.20339 0.78812-0.20339 1.2432 0 0.47288 0.0661 0.89744 0.20339 1.2686 0.13474 0.37372 0.32542 0.68897 0.5644 0.94829 0.24152 0.25677 0.52372 0.45253 0.84914 0.58473 0.32288 0.12966 0.67372 0.19576 1.0525 0.19576 0.24406 0 0.45762-0.0178 0.63558-0.0508 0.1805-0.0356 0.33559-0.0763 0.46779-0.11949 0.1322-0.0432 0.2466-0.0839 0.34067-0.11949 0.09661-0.0331 0.19322-0.0508 0.28982-0.0508 0.21864 0 0.39406 0.0712 0.52626 0.2161 0.1322 0.14491 0.1983 0.35847 0.1983 0.63812v0.17034c0 0.0534-0.01017 0.1144-0.02797 0.18559-0.36864 0.15762-0.74744 0.27711-1.144 0.36101-0.39406 0.0839-0.84151 0.12457-1.3398 0.12457"/>
   <path d="m80.775 127.97c-0.32542 0-0.53134-0.0636-0.62541-0.19067-0.09152-0.12712-0.13729-0.29237-0.13729-0.49321v-7.271c0-0.17542 0.05339-0.32033 0.16525-0.43982 0.10932-0.11949 0.30254-0.17796 0.58473-0.17796 0.13983 0 0.27711 8e-3 0.4144 0.0203 0.13474 0.0127 0.23898 0.028 0.30762 0.0458v7.1643h4.0626c0.0178 0.0966 0.03305 0.19576 0.04576 0.29746 0.01271 0.0992 0.02034 0.20338 0.02034 0.30762 0 0.28219-0.05847 0.47287-0.17796 0.57965-0.11695 0.10423-0.2822 0.15762-0.49321 0.15762z"/>
   <path d="m88.764 124.46h2.5296l-1.2584-3.8135zm-1.8381 3.5898c-0.12203 0-0.25932-0.0127-0.4144-0.0407-0.15254-0.0254-0.27203-0.0661-0.36101-0.11694l2.9135-8.4024c0.16779-0.0432 0.3305-0.0737 0.49321-0.0915 0.16271-0.0178 0.31779-0.0254 0.46779-0.0254 0.21101 0 0.38389 0.0153 0.51863 0.0458 0.13728 0.0305 0.24915 0.0788 0.34321 0.14492 0.09152 0.0636 0.16779 0.14745 0.22881 0.24914 0.06102 0.0992 0.11949 0.22627 0.17034 0.37373l2.6364 7.6931c-0.10678 0.0432-0.22627 0.0814-0.36355 0.11695-0.13474 0.0356-0.25932 0.0534-0.37372 0.0534-0.20084 0-0.37626-0.0254-0.52626-0.0737-0.15-0.0458-0.25932-0.17288-0.32796-0.37372l-0.63558-1.8788h-3.3533l-0.62541 1.8788c-0.07118 0.19322-0.17288 0.31525-0.30254 0.36864-0.1322 0.0508-0.29491 0.0788-0.48813 0.0788"/>
   <path d="m97.557 128.08c-0.42965 0-0.89744-0.0432-1.4008-0.1322-0.50338-0.0864-1.0195-0.21864-1.5432-0.39406 0-0.0356-0.0025-0.0661-0.0076-0.0915s-0.0076-0.0585-0.0076-0.0915c0-0.28982 0.05339-0.52372 0.15762-0.70422 0.10678-0.18051 0.27711-0.26949 0.51355-0.26949 0.1144 0 0.24915 0.0178 0.40677 0.0534 0.15762 0.0331 0.33559 0.0737 0.53389 0.11695 0.19576 0.0432 0.41694 0.0839 0.65592 0.11949 0.24152 0.0356 0.50846 0.0508 0.79575 0.0508 0.60507 0 1.0373-0.10932 1.2966-0.32796 0.25677-0.21864 0.38643-0.49575 0.38643-0.82879 0-0.16525-0.03051-0.30762-0.09152-0.42711-0.06102-0.11695-0.15-0.21864-0.26186-0.30254-0.1144-0.0814-0.25169-0.15508-0.4144-0.2161-0.16271-0.061-0.3483-0.12203-0.55931-0.18304l-1.0907-0.30254c-0.8593-0.23644-1.4593-0.56694-1.7949-0.98642-0.33813-0.42203-0.50592-0.90253-0.50592-1.4466 0-0.27203 0.0483-0.54915 0.14491-0.83389 0.09661-0.28474 0.26186-0.54151 0.4983-0.77032s0.55168-0.41694 0.94829-0.56439c0.39406-0.15 0.88727-0.22373 1.4847-0.22373 0.40169 0 0.83388 0.0381 1.294 0.11695 0.46016 0.0788 0.94066 0.20593 1.4415 0.38135v0.18559c0 0.29745-0.0508 0.5288-0.15254 0.69659-0.10169 0.16525-0.2644 0.24915-0.49321 0.24915-0.1144 0-0.23898-0.0152-0.37372-0.0458-0.13728-0.0305-0.28982-0.061-0.46016-0.0915-0.17288-0.0305-0.3661-0.061-0.58473-0.0915-0.22118-0.0305-0.46524-0.0483-0.73727-0.0483-0.30762 0-0.56185 0.0305-0.7627 0.0864-0.20084 0.0585-0.36355 0.13474-0.48558 0.23135-0.12457 0.0966-0.21101 0.20338-0.2644 0.32033-0.05085 0.11949-0.07881 0.23898-0.07881 0.36355 0 0.28728 0.09915 0.50592 0.29745 0.65592 0.19576 0.15 0.54914 0.29491 1.0576 0.43474l1.1568 0.32796c1.533 0.40423 2.3008 1.2 2.3008 2.3923 0 0.38644-0.0636 0.73728-0.19068 1.0525-0.12711 0.31525-0.32541 0.58728-0.59744 0.81609-0.27203 0.22627-0.61524 0.40423-1.0271 0.53135-0.41186 0.12711-0.90507 0.19067-1.4847 0.19067"/>
   <path d="m104.56 128.08c-0.42965 0-0.8949-0.0432-1.4008-0.1322-0.50338-0.0864-1.0195-0.21864-1.5432-0.39406 0-0.0356-3e-3 -0.0661-8e-3 -0.0915s-8e-3 -0.0585-8e-3 -0.0915c0-0.28982 0.0534-0.52372 0.15762-0.70422 0.10678-0.18051 0.27711-0.26949 0.51355-0.26949 0.1144 0 0.24915 0.0178 0.40677 0.0534 0.15763 0.0331 0.33559 0.0737 0.53389 0.11695 0.19576 0.0432 0.41694 0.0839 0.65592 0.11949 0.24152 0.0356 0.50846 0.0508 0.79575 0.0508 0.60507 0 1.0373-0.10932 1.2966-0.32796 0.25677-0.21864 0.38643-0.49575 0.38643-0.82879 0-0.16525-0.0305-0.30762-0.0915-0.42711-0.061-0.11695-0.15-0.21864-0.26186-0.30254-0.1144-0.0814-0.25169-0.15508-0.4144-0.2161-0.16271-0.061-0.3483-0.12203-0.55931-0.18304l-1.0907-0.30254c-0.8593-0.23644-1.4593-0.56694-1.7949-0.98642-0.33812-0.42203-0.50592-0.90253-0.50592-1.4466 0-0.27203 0.0483-0.54915 0.14491-0.83389 0.0966-0.28474 0.26186-0.54151 0.4983-0.77032s0.55168-0.41694 0.94829-0.56439c0.39406-0.15 0.88727-0.22373 1.4847-0.22373 0.40169 0 0.83388 0.0381 1.294 0.11695 0.46017 0.0788 0.94066 0.20593 1.4415 0.38135v0.18559c0 0.29745-0.0508 0.5288-0.15254 0.69659-0.10169 0.16525-0.2644 0.24915-0.49321 0.24915-0.1144 0-0.23898-0.0152-0.37372-0.0458-0.13729-0.0305-0.28982-0.061-0.46016-0.0915-0.17288-0.0305-0.36609-0.061-0.58473-0.0915-0.22119-0.0305-0.46525-0.0483-0.73728-0.0483-0.30762 0-0.56185 0.0305-0.76269 0.0864-0.20085 0.0585-0.36356 0.13474-0.48559 0.23135-0.12457 0.0966-0.21101 0.20338-0.2644 0.32033-0.0509 0.11949-0.0788 0.23898-0.0788 0.36355 0 0.28728 0.0991 0.50592 0.29745 0.65592 0.19576 0.15 0.54914 0.29491 1.0576 0.43474l1.1568 0.32796c1.533 0.40423 2.3008 1.2 2.3008 2.3923 0 0.38644-0.0635 0.73728-0.19067 1.0525-0.12712 0.31525-0.32542 0.58728-0.59745 0.81609-0.27202 0.22627-0.61524 0.40423-1.0271 0.53135-0.41186 0.12711-0.90507 0.19067-1.4847 0.19067"/>
   <path d="m109.87 128.04c-0.13983 0-0.27966-8e-3 -0.4144-0.0203-0.13474-0.0127-0.23898-0.028-0.30762-0.0458v-7.9676c0-0.17542 0.0534-0.32033 0.16271-0.43982 0.10932-0.11949 0.30508-0.17796 0.58473-0.17796 0.13983 0 0.27966 8e-3 0.4144 0.0203 0.13729 0.0127 0.23898 0.028 0.31017 0.0458v7.9676c0 0.17542-0.0559 0.32287-0.16526 0.43982-0.10932 0.11949-0.30507 0.17796-0.58473 0.17796"/>
   <path d="m116.06 128.08c-0.5949 0-1.1491-0.10678-1.6576-0.32287-0.50847-0.21356-0.94829-0.51355-1.3195-0.89999-0.37372-0.38643-0.66355-0.84659-0.87456-1.3805s-0.31525-1.1186-0.31525-1.7491c0-0.6127 0.10424-1.1873 0.31525-1.7212 0.21101-0.53643 0.50084-0.99913 0.87456-1.3932 0.37118-0.3966 0.811-0.70423 1.3195-0.92795 0.50846-0.22372 1.0627-0.33559 1.6576-0.33559 0.44745 0 0.87456 0.0432 1.2813 0.1322 0.40931 0.0864 0.79575 0.20593 1.1644 0.35593 8e-3 0.061 0.0153 0.1144 0.0203 0.16271 3e-3 0.0483 5e-3 0.0991 5e-3 0.15 0 0.28219-0.061 0.50083-0.18305 0.65846-0.12457 0.15762-0.27711 0.23643-0.46016 0.23643-0.089 0-0.18559-0.0178-0.28982-0.0508-0.10424-0.0356-0.22627-0.0763-0.36101-0.11949-0.13729-0.0432-0.29746-0.0839-0.4805-0.11949-0.18305-0.033-0.39915-0.0508-0.64321-0.0508-0.37881 0-0.72711 0.0712-1.0525 0.2161-0.32542 0.14491-0.60762 0.3483-0.84914 0.61016-0.23898 0.2644-0.42965 0.58219-0.56439 0.95337-0.13729 0.37372-0.20339 0.78812-0.20339 1.2432 0 0.47288 0.0661 0.89744 0.20339 1.2686 0.13474 0.37372 0.32541 0.68897 0.56439 0.94829 0.24152 0.25677 0.52372 0.45253 0.84914 0.58473 0.32541 0.12966 0.67371 0.19576 1.0525 0.19576 0.24406 0 0.45762-0.0178 0.63558-0.0508 0.1805-0.0356 0.33559-0.0763 0.46779-0.11949 0.1322-0.0432 0.2466-0.0839 0.34067-0.11949 0.0966-0.0331 0.19321-0.0508 0.28982-0.0508 0.21864 0 0.39406 0.0712 0.52626 0.2161 0.1322 0.14491 0.1983 0.35847 0.1983 0.63812v0.17034c0 0.0534-0.0102 0.1144-0.028 0.18559-0.3661 0.15762-0.74744 0.27711-1.144 0.36101-0.39406 0.0839-0.83896 0.12457-1.3398 0.12457"/>
   <path d="m122.32 128.08c-0.42965 0-0.8949-0.0432-1.4008-0.1322-0.50338-0.0864-1.0195-0.21864-1.5432-0.39406 0-0.0356-3e-3 -0.0661-8e-3 -0.0915s-8e-3 -0.0585-8e-3 -0.0915c0-0.28982 0.0534-0.52372 0.15762-0.70422 0.10678-0.18051 0.27711-0.26949 0.51355-0.26949 0.1144 0 0.24915 0.0178 0.40931 0.0534 0.15763 0.0331 0.33305 0.0737 0.53135 0.11695 0.19576 0.0432 0.41694 0.0839 0.65592 0.11949 0.24152 0.0356 0.50846 0.0508 0.79575 0.0508 0.60507 0 1.0373-0.10932 1.2966-0.32796 0.25677-0.21864 0.38643-0.49575 0.38643-0.82879 0-0.16525-0.0305-0.30762-0.0915-0.42711-0.061-0.11695-0.15-0.21864-0.26186-0.30254-0.1144-0.0814-0.25169-0.15508-0.4144-0.2161-0.16271-0.061-0.3483-0.12203-0.55931-0.18304l-1.0907-0.30254c-0.8593-0.23644-1.4593-0.56694-1.7949-0.98642-0.33812-0.42203-0.50592-0.90253-0.50592-1.4466 0-0.27203 0.0483-0.54915 0.14491-0.83389 0.0966-0.28474 0.26186-0.54151 0.4983-0.77032s0.55168-0.41694 0.94829-0.56439c0.39406-0.15 0.88727-0.22373 1.4847-0.22373 0.40169 0 0.83388 0.0381 1.294 0.11695 0.46017 0.0788 0.94066 0.20593 1.4415 0.38135v0.18559c0 0.29745-0.0508 0.5288-0.15254 0.69659-0.10169 0.16525-0.2644 0.24915-0.49321 0.24915-0.1144 0-0.23898-0.0152-0.37372-0.0458-0.13729-0.0305-0.28982-0.061-0.46016-0.0915s-0.36609-0.061-0.58473-0.0915c-0.22119-0.0305-0.46525-0.0483-0.73728-0.0483-0.30762 0-0.56185 0.0305-0.76269 0.0864-0.20085 0.0585-0.36356 0.13474-0.48559 0.23135-0.12457 0.0966-0.21101 0.20338-0.2644 0.32033-0.0508 0.11949-0.0788 0.23898-0.0788 0.36355 0 0.28728 0.0992 0.50592 0.29745 0.65592 0.19576 0.15 0.54914 0.29491 1.0576 0.43474l1.1568 0.32796c1.533 0.40423 2.3008 1.2 2.3008 2.3923 0 0.38644-0.0636 0.73728-0.19067 1.0525-0.12712 0.31525-0.32542 0.58728-0.59745 0.81609-0.27202 0.22627-0.61524 0.40423-1.0271 0.53135-0.41186 0.12711-0.90507 0.19067-1.4847 0.19067"/>
  </g>
 </g>
</svg>
