<svg width="600" height="184.44" version="1.1" viewBox="0 0 158.75 48.799435" xmlns="http://www.w3.org/2000/svg">
 <defs>
  <linearGradient id="a" x2="1" gradientTransform="matrix(0 -28.52 28.52 0 128.51 214.51)" gradientUnits="userSpaceOnUse">
   <stop stop-color="#810121" offset="0"/>
   <stop stop-color="#ad2b3e" offset=".10441"/>
   <stop stop-color="#ae2c3f" offset=".89813"/>
   <stop stop-color="#b94556" offset=".99967"/>
   <stop stop-color="#ba3b4b" offset="1"/>
  </linearGradient>
 </defs>
 <g transform="translate(-23.029 -185.09)">
  <g fill="#fff" stroke-width="1.2627">
   <path d="m73.967 233.89c-0.75443 0-1.451-0.13484-2.0931-0.4077-0.64206-0.26968-1.1974-0.64849-1.6662-1.1365-0.47191-0.48797-0.8411-1.069-1.1043-1.7432-0.26645-0.67417-0.39808-1.4125-0.39808-2.2087 0-0.77369 0.13163-1.4993 0.39808-2.1734 0.26324-0.67738 0.63243-1.2616 1.1043-1.7593 0.46871-0.50081 1.0241-0.88927 1.6662-1.1718 0.64206-0.2825 1.3386-0.42376 2.0931-0.42376 0.56502 0 1.1043 0.0546 1.618 0.16693 0.51365 0.1091 1.0048 0.26004 1.4703 0.44945 0.0096 0.077 0.01926 0.14446 0.02568 0.20546 0.0032 0.061 0.0064 0.12514 0.0064 0.18941 0 0.35634-0.07705 0.63243-0.23115 0.83147-0.1573 0.19904-0.34992 0.29855-0.58107 0.29855-0.11236 0-0.23435-0.0225-0.36597-0.0641-0.13163-0.045-0.28572-0.0963-0.45586-0.15089-0.17335-0.0546-0.3756-0.10594-0.60675-0.15089-0.23115-0.0417-0.50401-0.0641-0.81221-0.0641-0.47834 0-0.92136 0.0899-1.329 0.27288-0.41092 0.18298-0.76727 0.43981-1.0722 0.77047-0.30177 0.33387-0.54254 0.73516-0.7127 1.2039-0.17336 0.47191-0.25683 0.99519-0.25683 1.5698 0 0.59712 0.08347 1.1332 0.25683 1.6019 0.17014 0.47191 0.41092 0.86999 0.7127 1.1974 0.30498 0.32423 0.66132 0.57143 1.0722 0.73836 0.40772 0.16373 0.85074 0.2472 1.329 0.2472 0.30819 0 0.57786-0.0225 0.80258-0.0641 0.22793-0.045 0.42376-0.0964 0.5907-0.15089 0.16694-0.0546 0.31139-0.10594 0.43018-0.15088 0.122-0.0418 0.24399-0.0641 0.36597-0.0641 0.27609 0 0.4976 0.0899 0.66453 0.27288 0.16694 0.18299 0.2504 0.45266 0.2504 0.80578v0.2151c0 0.0674-0.01284 0.14446-0.03532 0.23435-0.4655 0.19904-0.94383 0.34992-1.4446 0.45587-0.4976 0.10594-1.0626 0.1573-1.6918 0.1573"/>
   <path d="m79.477 233.75c-0.41092 0-0.67095-0.0803-0.78974-0.24077-0.11557-0.16052-0.17336-0.36919-0.17336-0.6228v-9.1814c0-0.22151 0.06742-0.4045 0.20867-0.55538 0.13804-0.15089 0.38203-0.22472 0.73837-0.22472 0.17657 0 0.34992 0.0101 0.52328 0.0256 0.17014 0.016 0.30177 0.0354 0.38845 0.0578v9.0467h5.13c0.02248 0.12198 0.04173 0.2472 0.05778 0.37562 0.01605 0.12526 0.02568 0.25682 0.02568 0.38845 0 0.35633-0.07383 0.59711-0.22472 0.73195-0.14768 0.13161-0.35635 0.19903-0.6228 0.19903z"/>
   <path d="m89.565 229.32h3.1942l-1.589-4.8155zm-2.3211 4.533c-0.15409 0-0.32746-0.016-0.52328-0.0514-0.19262-0.0321-0.34351-0.0835-0.45587-0.14766l3.679-10.61c0.21188-0.0546 0.41734-0.0931 0.6228-0.11554 0.20546-0.0225 0.40129-0.0321 0.5907-0.0321 0.26645 0 0.48476 0.0193 0.6549 0.0578 0.17335 0.0385 0.31461 0.0995 0.43339 0.183 0.11557 0.0803 0.21188 0.18619 0.28893 0.3146 0.07705 0.12526 0.15088 0.28572 0.2151 0.47193l3.3291 9.7144c-0.13484 0.0546-0.28572 0.10279-0.45907 0.14768-0.17014 0.0449-0.32746 0.0674-0.47191 0.0674-0.25361 0-0.47512-0.0321-0.66453-0.0931-0.18941-0.0578-0.32746-0.21831-0.41413-0.47192l-0.80258-2.3724h-4.2344l-0.78973 2.3724c-0.08988 0.24399-0.2183 0.39808-0.38203 0.4655-0.16694 0.0641-0.3724 0.0995-0.61638 0.0995"/>
   <path d="m100.67 233.89c-0.54254 0-1.1332-0.0546-1.7688-0.16693-0.63565-0.10911-1.2874-0.27609-1.9487-0.4976 0-0.045-0.0032-0.0835-0.0096-0.11554-0.0064-0.0321-0.0096-0.0739-0.0096-0.11555 0-0.36596 0.06742-0.66132 0.19903-0.88925 0.13484-0.22794 0.34992-0.34029 0.64848-0.34029 0.14446 0 0.31461 0.0225 0.51365 0.0674 0.19903 0.0418 0.42376 0.0931 0.67416 0.14767 0.2472 0.0545 0.52649 0.10595 0.82827 0.15089 0.30497 0.045 0.64205 0.0642 1.0048 0.0642 0.76405 0 1.3098-0.13805 1.6373-0.41413 0.32424-0.27609 0.48797-0.62601 0.48797-1.0466 0-0.20866-0.0385-0.38844-0.11557-0.53933-0.077-0.14768-0.18941-0.27608-0.33066-0.38203-0.14446-0.10279-0.31782-0.19583-0.52328-0.27288-0.20547-0.077-0.43982-0.15409-0.70627-0.23113l-1.3773-0.38203c-1.0851-0.29857-1.8427-0.7159-2.2665-1.2456-0.42697-0.53292-0.63885-1.1397-0.63885-1.8267 0-0.34351 0.06099-0.69344 0.18298-1.053 0.12199-0.35956 0.33066-0.68379 0.62923-0.97272 0.29856-0.28893 0.69663-0.52649 1.1974-0.71268 0.4976-0.18942 1.1204-0.28252 1.8748-0.28252 0.50723 0 1.053 0.0481 1.634 0.14768 0.58107 0.0995 1.1878 0.26004 1.8202 0.48155v0.23435c0 0.37561-0.0641 0.66774-0.19262 0.87962-0.12841 0.20867-0.33387 0.31461-0.6228 0.31461-0.14445 0-0.30177-0.0192-0.47191-0.0578-0.17335-0.0385-0.36597-0.077-0.58107-0.11554-0.2183-0.0385-0.46229-0.077-0.73836-0.11554-0.2793-0.0385-0.58748-0.061-0.93099-0.061-0.38844 0-0.70947 0.0385-0.96309 0.1091-0.25361 0.0739-0.45908 0.17014-0.61317 0.29213-0.1573 0.12198-0.26645 0.25682-0.33387 0.4045-0.0642 0.15088-0.0995 0.30177-0.0995 0.45907 0 0.36276 0.12521 0.63885 0.37561 0.82826 0.24719 0.18941 0.69342 0.3724 1.3355 0.54897l1.4608 0.41413c1.9358 0.51044 2.9053 1.5153 2.9053 3.0209 0 0.48797-0.0803 0.931-0.24078 1.329-0.16051 0.39808-0.41091 0.74158-0.75441 1.0305-0.34351 0.28573-0.7769 0.51044-1.297 0.67096-0.52008 0.16051-1.1429 0.24077-1.8748 0.24077"/>
   <path d="m109.51 233.89c-0.54254 0-1.13-0.0546-1.7689-0.16693-0.63564-0.10911-1.2874-0.27609-1.9487-0.4976 0-0.045-4e-3 -0.0835-0.0101-0.11554-6e-3 -0.0321-0.0101-0.0739-0.0101-0.11555 0-0.36596 0.0674-0.66132 0.19903-0.88925 0.13484-0.22794 0.34992-0.34029 0.64848-0.34029 0.14446 0 0.31462 0.0225 0.51365 0.0674 0.19905 0.0418 0.42377 0.0931 0.67417 0.14767 0.2472 0.0545 0.52649 0.10595 0.82826 0.15089 0.30498 0.045 0.64206 0.0642 1.0048 0.0642 0.76405 0 1.3098-0.13805 1.6373-0.41413 0.32423-0.27609 0.48796-0.62601 0.48796-1.0466 0-0.20866-0.0385-0.38844-0.11554-0.53933-0.077-0.14768-0.18941-0.27608-0.33066-0.38203-0.14446-0.10279-0.31782-0.19583-0.52328-0.27288-0.20547-0.077-0.43982-0.15409-0.70627-0.23113l-1.3773-0.38203c-1.0851-0.29857-1.8427-0.7159-2.2665-1.2456-0.42696-0.53292-0.63885-1.1397-0.63885-1.8267 0-0.34351 0.061-0.69344 0.18298-1.053 0.12198-0.35956 0.33067-0.68379 0.62923-0.97272s0.69663-0.52649 1.1974-0.71268c0.4976-0.18942 1.1204-0.28252 1.8748-0.28252 0.50723 0 1.053 0.0481 1.634 0.14768 0.58108 0.0995 1.1878 0.26004 1.8202 0.48155v0.23435c0 0.37561-0.0641 0.66774-0.19262 0.87962-0.1284 0.20867-0.33387 0.31461-0.6228 0.31461-0.14445 0-0.30177-0.0192-0.47191-0.0578-0.17336-0.0385-0.36597-0.077-0.58106-0.11554-0.21831-0.0385-0.46228-0.077-0.73837-0.11554-0.27931-0.0385-0.58749-0.061-0.931-0.061-0.38844 0-0.70947 0.0385-0.96308 0.1091-0.25363 0.0739-0.45909 0.17014-0.61318 0.29213-0.1573 0.12198-0.26645 0.25682-0.33387 0.4045-0.0643 0.15088-0.0995 0.30177-0.0995 0.45907 0 0.36276 0.12513 0.63885 0.3756 0.82826 0.24719 0.18941 0.69342 0.3724 1.3355 0.54897l1.4608 0.41413c1.9358 0.51044 2.9053 1.5153 2.9053 3.0209 0 0.48797-0.0802 0.931-0.24076 1.329-0.16052 0.39808-0.41093 0.74158-0.75443 1.0305-0.34349 0.28573-0.77689 0.51044-1.297 0.67096-0.52007 0.16051-1.1429 0.24077-1.8748 0.24077"/>
   <path d="m116.22 233.84c-0.17657 0-0.35314-0.0101-0.52328-0.0256-0.17014-0.016-0.30177-0.0354-0.38845-0.0578v-10.061c0-0.22151 0.0674-0.40449 0.20547-0.55538 0.13804-0.15089 0.38523-0.22472 0.73836-0.22472 0.17657 0 0.35314 0.0101 0.52328 0.0256 0.17337 0.016 0.30178 0.0353 0.39167 0.0578v10.061c0 0.22151-0.0706 0.4077-0.20868 0.55538-0.13804 0.15089-0.38523 0.22472-0.73837 0.22472"/>
   <path d="m124.03 233.89c-0.75121 0-1.451-0.13484-2.0931-0.4077-0.64207-0.26968-1.1974-0.64849-1.6662-1.1365-0.47191-0.48797-0.83789-1.069-1.1044-1.7432-0.26645-0.6742-0.39808-1.4125-0.39808-2.2087 0-0.77369 0.13163-1.4993 0.39808-2.1734 0.26646-0.67738 0.63244-1.2616 1.1044-1.7593 0.46871-0.50081 1.0241-0.88927 1.6662-1.1718 0.64205-0.2825 1.3419-0.42376 2.0931-0.42376 0.56501 0 1.1043 0.0546 1.618 0.16693 0.51686 0.1091 1.0048 0.26004 1.4704 0.44945 0.0101 0.077 0.0193 0.14446 0.0256 0.20546 4e-3 0.061 6e-3 0.12514 6e-3 0.18941 0 0.35634-0.077 0.63243-0.23114 0.83147-0.1573 0.19904-0.34992 0.29855-0.58107 0.29855-0.11238 0-0.23435-0.0225-0.36597-0.0641-0.13163-0.045-0.28572-0.0963-0.45586-0.15089-0.17336-0.0546-0.37562-0.10594-0.60675-0.15089-0.23115-0.0417-0.50403-0.0641-0.81221-0.0641-0.47834 0-0.91816 0.0899-1.329 0.27288-0.41093 0.18298-0.76727 0.43981-1.0722 0.77047-0.30177 0.33387-0.54254 0.73516-0.71268 1.2039-0.17337 0.47191-0.25683 0.99519-0.25683 1.5698 0 0.59712 0.0835 1.1332 0.25683 1.6019 0.17014 0.47191 0.41091 0.86999 0.71268 1.1974 0.30498 0.32423 0.66132 0.57143 1.0722 0.73836 0.41091 0.16373 0.85072 0.2472 1.329 0.2472 0.30818 0 0.57786-0.0225 0.80257-0.0641 0.22793-0.045 0.42377-0.0964 0.5907-0.15089 0.16694-0.0546 0.3114-0.10594 0.43018-0.15088 0.12199-0.0418 0.24398-0.0641 0.36597-0.0641 0.27609 0 0.4976 0.0899 0.66454 0.27288 0.16693 0.18299 0.2504 0.45266 0.2504 0.80578v0.2151c0 0.0674-0.0129 0.14446-0.0354 0.23435-0.46229 0.19904-0.94383 0.34992-1.4446 0.45587-0.4976 0.10594-1.0594 0.1573-1.6918 0.1573"/>
   <path d="m131.94 233.89c-0.54254 0-1.13-0.0546-1.7689-0.16693-0.63564-0.10911-1.2874-0.27609-1.9487-0.4976 0-0.045-4e-3 -0.0835-0.0101-0.11554-6e-3 -0.0321-0.0101-0.0739-0.0101-0.11555 0-0.36596 0.0674-0.66132 0.19903-0.88925 0.13484-0.22794 0.34992-0.34029 0.64849-0.34029 0.14446 0 0.31461 0.0225 0.51685 0.0674 0.19905 0.0418 0.42056 0.0931 0.67096 0.14767 0.2472 0.0545 0.52649 0.10595 0.82826 0.15089 0.30498 0.045 0.64206 0.0642 1.0048 0.0642 0.76406 0 1.3098-0.13805 1.6373-0.41413 0.32424-0.27609 0.48797-0.62601 0.48797-1.0466 0-0.20866-0.0385-0.38844-0.11555-0.53933-0.077-0.14768-0.18941-0.27608-0.33066-0.38203-0.14446-0.10279-0.31782-0.19583-0.52328-0.27288-0.20546-0.077-0.43982-0.15409-0.70627-0.23113l-1.3773-0.38203c-1.0851-0.29857-1.8427-0.7159-2.2665-1.2456-0.42696-0.53292-0.63885-1.1397-0.63885-1.8267 0-0.34351 0.061-0.69344 0.18299-1.053 0.12198-0.35956 0.33066-0.68379 0.62922-0.97272 0.29857-0.28893 0.69663-0.52649 1.1974-0.71268 0.4976-0.18942 1.1204-0.28252 1.8748-0.28252 0.50724 0 1.053 0.0481 1.634 0.14768 0.58108 0.0995 1.1878 0.26004 1.8202 0.48155v0.23435c0 0.37561-0.0642 0.66774-0.19262 0.87962-0.12841 0.20867-0.33387 0.31461-0.6228 0.31461-0.14446 0-0.30177-0.0192-0.47192-0.0578-0.17336-0.0385-0.36596-0.077-0.58106-0.11554-0.2151-0.0385-0.46228-0.077-0.73837-0.11554-0.2793-0.0385-0.58749-0.061-0.931-0.061-0.38844 0-0.70947 0.0385-0.96308 0.1091-0.25362 0.0739-0.45908 0.17014-0.61318 0.29213-0.1573 0.12198-0.26645 0.25682-0.33387 0.4045-0.0641 0.15088-0.0995 0.30177-0.0995 0.45907 0 0.36276 0.12526 0.63885 0.3756 0.82826 0.2472 0.18941 0.69343 0.3724 1.3355 0.54897l1.4608 0.41413c1.9358 0.51044 2.9053 1.5153 2.9053 3.0209 0 0.48797-0.0803 0.931-0.24077 1.329-0.16052 0.39808-0.41092 0.74158-0.75443 1.0305-0.34349 0.28573-0.77689 0.51044-1.297 0.67096-0.52007 0.16051-1.1429 0.24077-1.8748 0.24077"/>
  </g>
  <path d="m76.65 185.99v28.521h100.96c2.1396 0 2.9659-1.2027 3.0461-3.219 6e-3 -7.2243 3e-3 -14.518 3e-3 -21.766 0-2.2074-0.79807-3.5328-3.0487-3.5328-34.826-5e-3 -71.003-4e-3 -100.96-4e-3z" fill="url(#a)"/>
  <g fill="#fff">
   <g stroke-width="1.2627">
    <path d="m90.729 209.27c-1.2627 0-2.4291-0.2296-3.499-0.68421-1.0699-0.45461-1.993-1.0837-2.7781-1.8873-0.78523-0.80361-1.3959-1.7587-1.8414-2.8654-0.44543-1.1067-0.67043-2.3006-0.67043-3.5863 0-1.249 0.225-2.42 0.67043-3.5082 0.44543-1.0882 1.0562-2.0342 1.8414-2.8378 0.78522-0.80359 1.7082-1.4327 2.7781-1.8873 1.0699-0.45461 2.2363-0.68421 3.499-0.68421 0.90921 0 1.7909 0.10102 2.645 0.29388 0.8541 0.19746 1.6439 0.45001 2.3786 0.75309 0.15614 2.374-0.42246 3.5587-1.7403 3.5587-0.2296 0-0.44542-0.0275-0.63828-0.078-0.19745-0.055-0.40868-0.11023-0.64288-0.16071-0.2296-0.0551-0.49134-0.11024-0.77145-0.16072-0.28469-0.0551-0.6245-0.0827-1.0148-0.0827-0.6245 0-1.2123 0.11478-1.7633 0.33521-0.55564 0.22501-1.0286 0.54643-1.4327 0.96432-0.3995 0.41786-0.71634 0.92299-0.94594 1.5107-0.2296 0.59236-0.34899 1.2536-0.34899 1.9837 0 0.76686 0.11933 1.4557 0.34899 2.0618 0.2296 0.60615 0.54644 1.1204 0.94594 1.5382 0.4041 0.42247 0.87706 0.7439 1.4327 0.96431 0.55103 0.22501 1.1388 0.33523 1.7633 0.33523 0.39032 0 0.73471-0.0275 1.0378-0.078 0.30307-0.0551 0.574-0.11024 0.81738-0.16073 0.23878-0.0551 0.46838-0.11024 0.67961-0.16072 0.21582-0.0551 0.43623-0.0827 0.66583-0.0827 1.2995 0 1.8827 1.1893 1.7403 3.5634-0.73012 0.30307-1.5475 0.55103-2.4475 0.74849-0.89544 0.19745-1.8 0.29389-2.7093 0.29389"/>
    <path d="m99.943 209.05c-0.37194 0-0.74388-0.0184-1.1066-0.0551-0.36737-0.0368-0.67503-0.078-0.92299-0.13317v-15.502c0-0.51889 0.16072-0.95972 0.48216-1.3271 0.31684-0.36276 0.92297-0.54644 1.8138-0.54644 0.37654 0 0.7439 0.0183 1.1112 0.0505 0.36277 0.0367 0.67044 0.0827 0.9184 0.13776v15.502c0 0.51888-0.16072 0.95971-0.47757 1.3224-0.32144 0.36738-0.92757 0.55105-1.8184 0.55105"/>
    <path d="m107.24 209.05c-0.35818 0-0.70258-0.0184-1.0424-0.0551-0.3398-0.0368-0.62451-0.078-0.85409-0.13317v-17.054c0.26633-0.0918 0.61531-0.16532 1.0424-0.2296 0.42706-0.0597 0.78985-0.0918 1.0929-0.0918 0.98269 0 1.6944 0.124 2.1398 0.37195 0.44542 0.25255 0.81738 0.61992 1.1204 1.0975l6.0613 9.5605v-9.3171c0-0.2342 0.0321-0.45002 0.0965-0.65666 0.0597-0.20664 0.16532-0.38572 0.31684-0.54644 0.15154-0.16072 0.36277-0.2893 0.62911-0.37655 0.26633-0.0873 0.60613-0.13316 1.0148-0.13316 0.35818 0 0.69798 0.0183 1.0286 0.0505 0.33064 0.0367 0.61075 0.0735 0.84035 0.11023v17.082c-0.24798 0.124-0.55104 0.21124-0.90464 0.25257-0.35817 0.046-0.70717 0.0689-1.0424 0.0689-0.84033 0-1.4602-0.11478-1.869-0.34899-0.41329-0.2296-0.7485-0.55104-1.0148-0.96432l-6.4931-10.387v9.9323c0 0.50054-0.15154 0.9184-0.4546 1.2582-0.30307 0.33981-0.87247 0.50971-1.7082 0.50971"/>
    <path d="m126.22 208.94c-0.50054 0-0.90463-0.0551-1.2169-0.16072-0.31225-0.10556-0.55103-0.25256-0.72094-0.44083-0.1699-0.18827-0.28469-0.41787-0.34439-0.68421-0.0643-0.26633-0.0965-0.55103-0.0965-0.85409v-13.124c0-0.30307 0.0321-0.58777 0.0965-0.85411 0.0597-0.27093 0.17449-0.49593 0.34439-0.6842 0.16991-0.18828 0.40869-0.33522 0.72094-0.44083 0.31225-0.11024 0.71634-0.16072 1.2169-0.16072h8.8396c0.0367 0.19745 0.0735 0.46378 0.11023 0.80359 0.0322 0.3398 0.0505 0.68421 0.0505 1.0424 0 0.74849-0.15154 1.2812-0.45462 1.5934-0.30306 0.31225-0.6842 0.46839-1.148 0.46839h-5.4461v3.0536h6.2726c0.0368 0.17908 0.0735 0.41327 0.11024 0.70715 0.0321 0.29848 0.0505 0.61534 0.0505 0.95056 0 0.71633-0.14235 1.2031-0.42705 1.4602-0.28471 0.26174-0.6383 0.39031-1.0654 0.39031h-4.9409v3.0261h7.1544c0.0367 0.19287 0.0735 0.46838 0.11023 0.81737 0.0322 0.3444 0.0505 0.68882 0.0505 1.0286 0 0.76685-0.15154 1.3041-0.45461 1.6072-0.30306 0.30306-0.6842 0.45461-1.148 0.45461h-7.664"/>
    <path d="m139.06 209.05c-0.40871 0-0.77146-0.0413-1.0837-0.11933-0.30766-0.0827-0.58319-0.1745-0.81279-0.28011l1.6347-16.683c0.33523-0.14236 0.78065-0.26175 1.3317-0.34899 0.55102-0.0873 1.024-0.13316 1.4142-0.13316 0.55564 0 1.0286 0.0367 1.4281 0.10556 0.40409 0.0735 0.74388 0.19287 1.0286 0.36277 0.28469 0.1699 0.51429 0.40409 0.68417 0.70716 0.16532 0.30307 0.2939 0.67961 0.38574 1.125l0.6934 3.2419c0.19746 0.89084 0.40411 1.878 0.6291 2.9572 0.22041 1.0791 0.42246 2.1903 0.59695 3.3337h0.11024c0.19288-1.1434 0.3995-2.25 0.61074-3.32 0.21581-1.07 0.43624-2.0526 0.66582-2.9434l0.85413-3.4027c0.21583-0.84033 0.55564-1.4097 1.0286-1.7128 0.47296-0.30306 1.2031-0.45461 2.1995-0.45461 0.49592 0 1.001 0.0413 1.5062 0.11933 0.5097 0.078 0.92756 0.16532 1.2674 0.25256l1.5612 16.793c-0.24798 0.0873-0.54645 0.17449-0.89545 0.26633-0.3444 0.0873-0.72552 0.13317-1.1342 0.13317-0.5694 0-1.0516-0.0965-1.4419-0.29389-0.39032-0.19745-0.60614-0.56482-0.64288-1.0975l-0.39949-5.7859c-0.0872-1.0148-0.16531-2.0848-0.225-3.2005-0.0643-1.1113-0.10557-2.172-0.124-3.1731h-0.0505c-0.23419 0.93216-0.46838 1.9332-0.70715 3.0124-0.24338 1.0837-0.48676 2.0755-0.73473 2.9894l-1.0975 4.5506c-0.26633 1.0699-1.1112 1.6072-2.5348 1.6072-0.35816 0-0.72094-0.0367-1.0975-0.11024-0.37195-0.0689-0.69339-0.15153-0.95974-0.23878l-1.3637-5.6757c-0.26633-1.0562-0.51431-2.0893-0.74849-3.1087-0.2296-1.0148-0.44543-2.0342-0.63829-3.0491h-0.0827c-0.0505 1.4281-0.124 2.7322-0.21123 3.9215-0.0918 1.1847-0.1699 2.2088-0.24339 3.0674l-0.42704 5.2211c-0.0321 0.5143-0.22958 0.87248-0.58776 1.0699-0.35358 0.19745-0.81739 0.29388-1.3867 0.29388"/>
    <path d="m164.27 201.74h3.995l-1.993-6.5619-2.002 6.5619m-4.1648 7.3655c-0.33981 0-0.72553-0.0321-1.1618-0.0965-0.43625-0.0597-0.79901-0.14694-1.0837-0.25256l5.5425-16.976c0.48214-0.124 0.9689-0.21581 1.4602-0.27092 0.49134-0.0505 0.94136-0.078 1.35-0.078 0.59236 0 1.0929 0.046 1.5154 0.13317 0.41787 0.0918 0.77146 0.22501 1.0562 0.40409 0.2893 0.17909 0.52349 0.41328 0.71176 0.70717s0.3444 0.63827 0.46838 1.0332l4.7481 15.02c-0.30306 0.124-0.66584 0.22042-1.0929 0.28012-0.42704 0.0643-0.84491 0.0965-1.2582 0.0965-0.45918 0-0.9092-0.078-1.3454-0.22958-0.43624-0.15154-0.75308-0.49594-0.95054-1.0332l-0.9092-2.7551h-5.8227l-0.77146 2.5991c-0.19746 0.62451-0.52806 1.0148-0.98728 1.1756-0.46378 0.16072-0.95512 0.24337-1.4694 0.24337"/>
    <path d="m42.316 202.98c0 2.4429-1.598 4.2246-4.8399 4.5781-2.3465 0.25256-5.7492-0.046-7.3609-0.22961-0.05973-0.26632-0.10556-0.59235-0.10556-0.84951 0-2.1398 1.1526-2.6266 2.2363-2.6266 1.1204 0 2.8929 0.19746 4.2063 0.19746 1.4465 0 1.8918-0.49135 1.8918-0.95973 0-0.61534-0.58776-0.86789-1.7082-1.0837l-3.0766-0.59235c-2.5578-0.49135-3.9261-2.2593-3.9261-4.1373 0-2.2868 1.6164-4.197 4.7986-4.5506 2.4016-0.25715 5.3267 0.0367 6.9339 0.2342 0.05973 0.27552 0.08726 0.53266 0.08726 0.82195 0 2.1307-1.1204 2.5898-2.2042 2.5898-0.83115 0-2.1215-0.15613-3.5955-0.15613-1.5016 0-2.1215 0.4133-2.1215 0.91841 0 0.53267 0.59236 0.7531 1.5337 0.91839l2.9389 0.54645c3.0169 0.55562 4.3118 2.2684 4.3118 4.3808m5.2762 2.622c0 1.3087-0.5143 2.0663-3.072 2.0663-0.33522 0-0.63369-0.0275-0.91839-0.0689v-17.371c0-1.3179 0.45002-2.6954 3.0307-2.6954 0.32602 0 0.65205 0.0321 0.95971 0.0965v17.972m10.451 6.7181c0.33062 0.1745 1.0194 0.38113 1.8873 0.4041 1.4832 0.0321 2.296-0.53727 2.8929-1.8643l7.967-17.767c-0.33062-0.17909-1.0561-0.37655-1.6532-0.39033-1.024-0.0183-2.397 0.19288-3.2787 2.2868l-2.5761 6.089-5.0604-8.238c-0.32602-0.10102-1.1204-0.24338-1.7082-0.24338-1.7817 0-2.7828 0.65666-3.816 1.7817l-4.9181 5.3772 3.9537 6.2268c0.73013 1.1342 1.6944 1.7128 3.2604 1.7128 1.024 0 1.8735-0.2342 2.2684-0.42248l-4.7619-7.1819 3.3751-3.5772 5.5379 8.6926-3.3705 7.1129"/>
   </g>
   <path d="m177.42 215.4c3.3389 0 4.3563-2.0749 4.3563-4.1497v-22.013c0-2.0749-1.0174-4.1497-4.3563-4.1497h-150.04c-3.3358 0-4.3532 2.0749-4.3532 4.1497v22.013c0 2.0749 1.0174 4.1497 4.3532 4.1497h150.04m-149.88-0.27746c-2.2506 0-3.7705-1.3288-3.7705-3.5362v-22.685c0-2.2074 1.5199-3.5362 3.7705-3.5362h149.73c2.2475 0 3.7674 1.3288 3.7674 3.5362v22.685c0 2.2074-1.5199 3.5362-3.7674 3.5362h-149.73" opacity=".75"/>
   <path d="m27.126 186.45c-1.9855 0-2.7465 0.79239-2.7465 3.1355l-0.0091 20.246c0 1.261 0.07052 2.1058 0.26167 2.1058 0.06782-0.39462 0.12649-2.3404 2.263-4.1162 0.81978-0.63179 1.8707-1.2419 3.1218-1.8336 1.8233-0.79927 3.6461-1.4819 5.21-1.9759 1.0854-0.33086 2.1777-0.64785 3.1016-0.89397 1.3659-0.35561 2.7419-0.69301 3.9036-0.95599 0.46832-0.10127 0.95184-0.20974 1.3546-0.29687 1.396-0.288 2.8039-0.57056 3.9909-0.79154 0.31635-0.0518 0.64395-0.11655 0.91753-0.16375 1.4238-0.25182 2.8671-0.49367 4.0803-0.6839 1.804-0.27644 3.632-0.5452 5.1714-0.7498 1.4676-0.19765 2.9564-0.3836 4.207-0.53186 0.81113-0.0933 1.6369-0.18975 2.3323-0.2668 1.459-0.15624 2.9368-0.31133 4.1821-0.43395 4.7798-0.45379 9.5405-0.82218 13.964-1.0891 1.8025-0.10367 3.6304-0.20608 5.172-0.27791 3.5889-0.16245 7.2334-0.29413 10.305-0.36939 1.5021-0.0367 3.0354-0.066 4.3237-0.0856 1.0821-0.0138 2.1847-0.0263 3.1127-0.032 1.0236-9e-3 2.0412-0.0126 3.0617-0.0126 1.5135 0 3.0269 9e-3 4.5312 0.0248 1.3462 0.0178 2.7134 0.0369 3.8663 0.0587 1.3103 0.0278 2.624 0.0618 3.925 0.10179 1.0451 0.0308 2.0746 0.0675 3.1074 0.10771 1.505 0.0635 3.0353 0.13064 4.3262 0.19706 3.4948 0.20243 7.0643 0.43099 10.078 0.68779 1.2346 0.10658 2.4942 0.22338 3.5557 0.32954 0.24131 0.0201 0.50016 0.0495 0.71129 0.0717 1.2291 0.12729 2.484 0.26775 3.54 0.39352 0.67646 0.0799 1.3686 0.166 1.9511 0.24145 1.0562 0.14206 2.1374 0.28918 3.0486 0.42153 0.35684 0.0528 0.72229 0.10721 1.0297 0.15468 1.3498 0.21143 2.7293 0.43712 3.8911 0.64667 1.5554 0.29023 3.1541 0.60074 4.494 0.89783 1.3212 0.29816 2.678 0.62093 3.8167 0.92328 0.10443 0.0313 0.21793 0.0604 0.30865 0.0847h8e-3c3.4838 0.94293 6.4906 2.0216 8.9183 3.2386v-1e-3c1.7542 0.88173 3.1998 1.8343 4.3035 2.864 1.93 1.9145 2.1952 3.7216 2.263 4.1162 0.18807 0 0.25905-0.8448 0.25905-2.1058l-6e-3 -20.246c0-2.3431-0.76109-3.1354-2.7465-3.1354-0.67518 0-1.3443 0.36085-2.2415 0.36085h-145.98c-0.80971 0.0588-1.5674-0.34797-2.2415-0.36081z" opacity=".4"/>
  </g>
 </g>
</svg>
