<svg xmlns="http://www.w3.org/2000/svg" height="144.42" width="600" version="1.1" viewBox="0 0 158.75 38.210972">
 <g transform="translate(-69.548 -139.56)">
  <g fill="#e20513">
   <path d="m225.28 153.28c1.6661 0 3.0182-1.3501 3.0182-3.0202 0-1.6621-1.3521-3.0122-3.0182-3.0122s-3.0162 1.3501-3.0162 3.0122c0 1.6701 1.3501 3.0202 3.0162 3.0202"/>
   <path d="m225.28 164.4c-1.6661 0-3.0162 1.3501-3.0162 3.0162 0 1.6641 1.3501 3.0142 3.0162 3.0142s3.0182-1.3501 3.0182-3.0142c0-1.6661-1.3521-3.0162-3.0182-3.0162"/>
   <path d="m225.28 155.83c-1.6661 0-3.0162 1.3481-3.0162 3.0142 0 1.6681 1.3501 3.0182 3.0162 3.0182s3.0182-1.3501 3.0182-3.0182c0-1.6662-1.3521-3.0142-3.0182-3.0142"/>
   <path d="m217.27 164.4c-1.6641 0-3.0142 1.3501-3.0142 3.0162 0 1.6641 1.3501 3.0142 3.0142 3.0142 1.6661 0 3.0162-1.3501 3.0162-3.0142 0-1.6661-1.3501-3.0162-3.0162-3.0162"/>
   <path d="m209.27 155.83c-1.6661 0-3.0162 1.3481-3.0162 3.0142 0 1.6681 1.3501 3.0182 3.0162 3.0182s3.0162-1.3501 3.0162-3.0182c0-1.6662-1.3501-3.0142-3.0162-3.0142"/>
   <path d="m217.27 155.83c-1.6641 0-3.0142 1.3481-3.0142 3.0142 0 1.6681 1.3501 3.0182 3.0142 3.0182 1.6661 0 3.0162-1.3501 3.0162-3.0182 0-1.6662-1.3501-3.0142-3.0162-3.0142"/>
   <path d="m217.27 147.25c-1.6641 0-3.0142 1.3501-3.0142 3.0122 0 1.6701 1.3501 3.0202 3.0142 3.0202 1.6661 0 3.0162-1.3501 3.0162-3.0202 0-1.6621-1.3501-3.0122-3.0162-3.0122"/>
   <path d="m209.27 147.25c-1.6661 0-3.0162 1.3501-3.0162 3.0122 0 1.6701 1.3501 3.0202 3.0162 3.0202s3.0162-1.3501 3.0162-3.0202c0-1.6621-1.3501-3.0122-3.0162-3.0122"/>
  </g>
  <g fill="#003d7f">
   <path d="m75.302 162.84c0.04536 2.6442 2.2602 3.7102 4.6463 3.7102 1.7481 0 3.9643-0.68201 3.9643-2.8142 0-1.8341-2.5122-2.4702-6.8625-3.4122-3.4963-0.76608-6.9905-2.0042-6.9905-5.8824 0-5.6284 4.8603-7.0785 9.5926-7.0785 4.8163 0 9.2506 1.6221 9.7166 7.0345h-5.7504c-0.17179-2.3422-1.9641-2.9822-4.1383-2.9822-1.3621 0-3.3682 0.254-3.3682 2.0462 0 2.1741 3.4103 2.4741 6.8645 3.2842 3.5402 0.81003 6.9925 2.0882 6.9925 6.1784 0 5.8004-5.0304 7.6765-10.063 7.6765-5.1143 0-10.103-1.9202-10.359-7.7605z"/>
   <path d="m92.003 139.56h6.0524v16.331l7.6325-7.9285h7.1624l-8.3106 8.0986 9.2506 13.941h-7.3345l-6.0564-9.8467-2.3441 2.2602v7.5865h-6.0524z"/>
   <path d="m125.98 172.78c-1.3221 3.5382-3.4102 4.9884-7.5885 4.9884-1.236 0-2.4722-0.0862-3.7102-0.21375v-4.9863c1.1521 0.0839 2.3462 0.25627 3.5382 0.21205 2.0922-0.21205 2.7722-2.3882 2.0922-4.1383l-7.7645-20.675h6.4844l4.9864 15.091h0.0862l4.8163-15.091h6.2684z"/>
   <path d="m136.51 139.56h6.0544v30.442h-6.05z"/>
   <path d="m145.45 147.97h6.0544v22.042h-6.0544z"/>
   <path d="m154.32 147.97h5.7564v3.0702h0.12813c1.5341-2.4741 4.1763-3.6682 6.7344-3.6682 6.4385 0 8.0606 3.6242 8.0606 9.0806v13.559h-6.0544v-12.453c0-3.6203-1.0641-5.4124-3.8803-5.4124-3.2842 0-4.6883 1.8341-4.6883 6.3104v11.555h-6.0564z"/>
   <path d="m178 139.56h6.0524v16.331l7.6325-7.9285h7.1624l-8.3125 8.0986 9.2506 13.941h-7.3325l-6.0524-9.8467-2.3482 2.2602v7.5865h-6.05z"/>
   <path d="m151.53 144.57h-6.0684v-5.0143h6.0684z"/>
  </g>
 </g>
</svg>
