<svg width="182.01mm" height="31.75mm" version="1.1" viewBox="0 0 182.01 31.75" xmlns="http://www.w3.org/2000/svg" xmlns:xlink="http://www.w3.org/1999/xlink">
 <defs>
  <linearGradient id="a" x1="-8599.2" x2="-8599.2" y1="-4719.4" y2="-4553.6" gradientTransform="rotate(180 -4107.9 -2290.4)" gradientUnits="userSpaceOnUse">
   <stop stop-color="#a80002" offset="0"/>
   <stop stop-color="#ea021a" offset="1"/>
  </linearGradient>
  <linearGradient id="b" x1="99.851" x2="99.851" y1="138.67" y2="-27.096" gradientUnits="userSpaceOnUse">
   <stop stop-color="#00043b" offset="0"/>
   <stop stop-color="#002672" offset="1"/>
  </linearGradient>
 </defs>
 <g transform="translate(236.87 3.6843)">
  <g transform="matrix(.26458 0 0 .26458 -236.87 -3.6843)">
   <path d="m682.2 0.4c0.5 0.2 1 0.4 1.4 0.6-0.4-0.3-0.8-0.5-1.4-0.6zm3.8 2.5c-0.5-0.6-1.1-1.1-1.7-1.5 0.7 0.4 1.3 0.9 1.7 1.5zm-2.3 116.1c-0.5 0.2-0.9 0.5-1.4 0.6 0.5-0.1 0.9-0.3 1.4-0.6zm-3.8 1c0.6 0 1.1-0.1 1.6-0.2-0.5 0.1-1.1 0.2-1.6 0.2zm0-120c0.6 0 1.1 0.1 1.6 0.2-0.5-0.1-1.1-0.2-1.6-0.2zm6.1 2.9c1.1 1.4 1.8 3.2 1.8 5.1v104c0 1.9-0.7 3.7-1.8 5.1 1.1-1.4 1.8-3.2 1.8-5.1v-104c0.1-1.9-0.6-3.7-1.8-5.1zm-1.7 115.7c0.6-0.4 1.2-1 1.7-1.5-0.4 0.6-1 1.1-1.7 1.5z" fill="#999"/>
   <path d="m682.4 120c3 0 5.5-2.5 5.5-5.5v-109c0-3-2.5-5.5-5.5-5.5h-115.4v120z" fill="#fff"/>
   <path d="m602.8 17.5c4.3 2 7.1 4.5 7.6 4.8-0.2-1.1-1.1-6.5-1.6-9.8 2.5 1.7 8.3 5.8 10.3 7.1 0.8-2.4 3.5-10.3 3.5-10.3s4.9 7.9 5.7 9.2c1-1.1 6.9-7.6 8.4-9.2 0.3 3.7 0.6 9.1 0.7 9.9 0.3-0.4 2.5-3.5 6.3-6.4-1.6 3.2-2.4 7.6-2.8 11.2-3.7-1-7.6-1.6-11.6-1.6-7.7 0-15 2-21.2 5.6-1.2-3.4-2.9-7.7-5.3-10.5m59 67.6-3.4-3.8c-1 10.2-5.9 18.8-15.1 24.8l-1.4-5.5c-7.8 5.6-21.1 9.2-32.5 2.8 1.4-7.3 2.7-14.6 0-23.4-6.3 9.8-12 13.7-12 13.7-4.3-7.2-3.9-21.6-2.6-25.9l-7.1 2.2c0-4.8 3.5-15.1 8.5-20.9l-4.5-0.7c3-6.2 7.5-11.5 13.1-15.5-1.7 2.6-1.7 9.1 3.2 11.6-2.1-3.6-2.3-8.1-0.2-10.4 2.2-2.3 5.8-1.5 8.1 0.3-0.7-2-2.7-4.6-5.7-4.7 5.7-2.9 12.2-4.6 19.1-4.6 1.3 0 2.5 0.1 3.8 0.2 2 0.8 4.9 3.6 6.3 5.4 0 0 0.1-2.1-1-4.6 7.4 1.8 11 4.8 12.5 6.3 0.3 3.2 1.3 5.1 2.5 8.2-2.4-2.7-8.5-7-11.3-8.1 0 0-0.2 2.8-1.2 4.1-5.7-4.2-8.6-5.2-8.6-5.2-6.3 0.9-10.4 3.3-12.6 5.3l1.9 1.6c-3.8 1.2-6.3 4.4-6.3 4.4 0 0.1 3.4 0.5 3.4 0.5s-0.3 4 4.6 6.4c4.2 2.1 10.4-0.5 16.1 1.8-3.8-4.4-6.4-6.3-6.4-6.3s-1.5-0.3-2.6-0.3c-1.3 0-3.3 0.3-5.5-0.6-1-0.4-2.2-1.1-3.2-1.7 0 0 2.7-2.7 6.5-3.3 0 0 3.5 1 6.3 3 1.8-1.8 3.8-1.7 3.8-1.7s-1.9 1.8-1.3 3.9c2.8 2.5 5.8 6 5.8 6 3.1-1.7 9.7-1.3 11.1 0.3-1.7-2.2-4.2-4.1-6.2-5.7-0.2-0.8-2.3-3.8-2.7-4 0 0 2 0.6 3.8 2.2 0.5-0.7 1.5-1.5 2.8-1.8 1.3 1.1 1.6 2.9 1.5 3.2-0.6 0.7-1.2 1-1.2 1l3.2 3.5 0.3-2.5c7.6 10.6 11.7 22.9 6.4 38.5m-14.1-23v-5.5s-2.5-0.8-5.1-2.8c-5.3 0.8-11.7 6.1-11.7 6.1s2.2 4.1 4.5 8.5c4.2 0.6 10.4-4.7 12.3-6.3m5.4 10s-0.4-2.3-2.2-4.4l-4.1 0.1s-5.6 4.8-8.9 4.9c0 0 1.9 3.5 2.8 5.3 1.9-0.4 5.1-1.9 6.5-3.4 0 0 0.9 2.8 0.7 6.1 1.7-1.1 4.3-4 5.2-8.6m1.6-18.1c-2.1 1.7-3.8 2.7-3.8 2.7v5.5c1.5 1.7 3 3 4.1 5.5 2.1-3.7 1.7-9.2-0.3-13.7" fill="#480c4d"/>
   <path d="m199.7 0h367.3v120h-367.3z" fill="url(#a)"/>
   <path d="m199.7 120h-191.7c-4.4 0-8-3.6-8-8v-104.1c0-4.2 3.5-7.9 7.9-7.9h191.8z" fill="url(#b)"/>
   <path d="m135 106.7c1.3 0.7 3.9 1.5 7.3 1.5 5.7 0.1 8.8-2.1 11.1-7.2l30.6-68.2c-1.3-0.7-4.1-1.4-6.3-1.5-3.9-0.1-9.2 0.7-12.6 8.8l-9.9 23.4-19.5-31.5c-1.3-0.4-4.3-0.9-6.6-0.9-6.8 0-10.7 2.5-14.7 6.8l-18.8 20.6 15.2 23.9c2.8 4.4 6.5 6.6 12.5 6.6 3.9 0 7.2-0.9 8.7-1.6l-18.3-27.6 13-13.7 21.3 33.4zm-40.1-25.8c0 5-2 7.9-11.8 7.9-1.3 0-2.4-0.1-3.5-0.3v-66.6c0-5.1 1.7-10.3 11.6-10.3 1.2 0 2.5 0.1 3.7 0.4zm-20.3-10c0 9.4-6.1 16.2-18.6 17.6-9 1-22.1-0.2-28.3-0.9-0.2-1-0.4-2.3-0.4-3.3 0-8.2 4.4-10.1 8.6-10.1 4.3 0 11.1 0.7 16.2 0.7 5.6 0 7.2-1.9 7.2-3.7 0-2.4-2.2-3.3-6.6-4.2l-11.7-2.1c-9.8-1.9-15-8.7-15-15.9 0-8.8 6.2-16.1 18.4-17.5 9.2-1 20.5 0.1 26.6 0.9 0.2 1.1 0.3 2.1 0.3 3.2 0 8.2-4.3 9.9-8.5 9.9-3.2 0-8.1-0.6-13.8-0.6-5.8 0-8.1 1.6-8.1 3.5 0 2 2.3 2.9 5.9 3.5l11.3 2.1c11.6 2.2 16.5 8.8 16.5 16.9m149.7 14.4c-0.6-4.7 0.9-7.2 3.4-7.2 2.7 0 9.2 3 18.4 3 9.8 0 13.5-3.6 13.5-8.2 0-3.2-1.4-5.8-10.4-8.3l-10-2.8c-10.7-2.9-15.1-8.3-15.1-15.1 0-8.2 6.5-15.8 21.6-15.8 6.8 0 15.2 1.6 20.2 3.6 0.6 4.6-0.9 7-3.2 7-2.5 0-8.6-2.8-17-2.8-9 0-12.4 3.3-12.4 7.6 0 2.8 1.3 5.4 9.5 7.7l10.2 3c11.3 3.2 15.9 8.5 15.9 15.6 0 8.8-6.9 16.6-23 16.6-7.4 0-16.3-1.8-21.6-3.9m110.6-25.3c0 18.1-12.7 29.1-27 29.1-8.6 0-15.5-4-19.6-9.8v24.5c0 2.1-1.2 3.5-4.8 3.5-1.6 0-3.4-0.2-4.2-0.5v-74.5c0.8-0.2 2.6-0.6 4.2-0.6 3.6 0 4.8 1.4 4.8 3.5v5.6c4.1-5.8 11-9.8 19.6-9.8 14.3 0.1 27 11 27 29m-9.2 0c0-12.4-8.3-20.9-19.4-20.9-7.7 0-14.8 4.4-18 10.9v20.3c3.2 6.4 10.3 10.9 18 10.9 11.1-0.1 19.4-8.6 19.4-21.2m18.1 0c0-16.6 12.3-28.9 28.7-28.9 16.5 0 28.7 12.4 28.7 28.9 0 16.7-12.3 29.1-28.7 29.1s-28.7-12.4-28.7-29.1m48.2 0c0-12.8-8.8-20.9-19.5-20.9s-19.5 8.1-19.5 20.9c0 13 8.8 21.1 19.5 21.1s19.5-8.1 19.5-21.1m54.2-23.9c0 3.4-1.5 4.2-4.8 4.2-6.4 0-15.5 2.1-20.1 12.4v32.2c0 2.2-1.2 3.5-4.8 3.5-1.6 0-3.4-0.2-4.2-0.5v-55.6c0.8-0.2 2.6-0.6 4.2-0.6 3.6 0 4.8 1.4 4.8 3.5v6.8c5.1-7.4 14-11.4 24.5-9.7 0.1 0.7 0.4 2.4 0.4 3.8m52 49.2c-0.6-4.7 0.9-7.2 3.4-7.2 2.7 0 9.2 3 18.4 3 9.8 0 13.5-3.6 13.5-8.2 0-3.2-1.4-5.8-10.4-8.3l-10-2.8c-10.7-2.9-15.1-8.3-15.1-15.1 0-8.2 6.5-15.8 21.6-15.8 6.8 0 15.2 1.6 20.2 3.6 0.6 4.6-0.9 7-3.2 7-2.4 0-8.6-2.8-17-2.8-9 0-12.4 3.3-12.4 7.6 0 2.8 1.3 5.4 9.5 7.7l10.2 2.8c11.3 3.2 15.9 8.5 15.9 15.6 0 8.8-6.9 16.6-23 16.6-7.3 0.2-16.2-1.6-21.6-3.7m-9.2 0c-4.8 2.3-10.4 3.7-16.1 3.7-11 0-17.6-6.3-17.6-17.2v-50c0-2.1 1.2-3.5 4.8-3.5 1.6 0 3.4 0.4 4.2 0.7v13.2h22.3c0.1 0.7 0.3 2.2 0.3 3.6 0 3.3-1.4 4.3-3.4 4.3h-19.3v30.9c0 6.8 3.3 9.7 9.6 9.7 5.7 0 9.1-2.2 11.8-2.2 2.6 0.2 3.9 2.5 3.4 6.8" fill="#fff"/>
   <path d="m8 0h559v46.3l-555.5 22.2c-6.4 0.2-11.5 5.5-11.5 11.9v-72.4c0-4.4 3.6-8 8-8z" fill="#fff" opacity=".2"/>
  </g>
 </g>
</svg>
