<?xml version="1.0" encoding="UTF-8" standalone="no"?>
<svg id="MIX_ARTWORK" xmlns="http://www.w3.org/2000/svg" enable-background="new 0 0 830.5 102.3" xml:space="preserve" viewBox="0 0 600 73.871481" height="73.871" width="600" version="1.1" y="0px" x="0px"><defs><linearGradient id="SVGID_1_" y2="-4.2401e-9" gradientUnits="userSpaceOnUse" y1="102.3" gradientTransform="scale(.72211)" x2="725.57" x1="725.57"><stop stop-color="#8F8F8F" offset="0"/><stop stop-color="#D1D1D1" offset=".0739"/><stop stop-color="#DADADC" offset="1"/></linearGradient><linearGradient id="SVGID_4_" y2="51.64" gradientUnits="userSpaceOnUse" y1="51.64" gradientTransform="scale(.72211)" x2="819.64" x1="745.15"><stop stop-color="#122D68" offset="0"/><stop stop-color="#122D68" offset="1"/></linearGradient><linearGradient id="SVGID_5_" y2="49.529" gradientUnits="userSpaceOnUse" y1="49.529" gradientTransform="scale(.72211)" x2="715.96" x1="641.79"><stop stop-color="#122D68" offset="0"/><stop stop-color="#122D68" offset="1"/></linearGradient><linearGradient id="SVGID_6_" y2="49.529" gradientUnits="userSpaceOnUse" y1="49.529" gradientTransform="scale(.72211)" x2="741.39" x1="725.04"><stop stop-color="#122D68" offset="0"/><stop stop-color="#122D68" offset="1"/></linearGradient><linearGradient id="SVGID_2_" y2="103.13" gradientUnits="userSpaceOnUse" x2="-3484.8" gradientTransform="matrix(-.72211 0 0 .72211 -2448.1 0)" y1="-0.89" x1="-3484.8"><stop stop-color="#091B4A" offset="0"/><stop stop-color="#122D68" offset=".036344"/><stop stop-color="#122D68" offset=".8955"/><stop stop-color="#091B4A" offset="1"/></linearGradient><linearGradient id="SVGID_3_" y2=".0000070110" gradientUnits="userSpaceOnUse" y1="102.3" gradientTransform="scale(.72211)" x2="404.64" x1="404.64"><stop stop-color="#552227" offset="0"/><stop stop-color="#C41C2B" offset=".073882"/><stop stop-color="#C41C2B" offset=".9114"/><stop stop-color="#FE3446" offset="1"/></linearGradient></defs><path d="m592.13 0h-144.28v73.871h144.28c5.8491 0 7.871-3.4661 7.871-9.1708v-55.529c0.07-5.7049-2.02-9.171-7.87-9.171z" stroke-width=".72211" fill="url(#SVGID_1_)"/><path stroke-width=".72211" fill="url(#SVGID_2_)" d="m7.871 73.871c-5.7769 0-7.871-3.466-7.871-9.17v-55.53c0-5.7049 2.0941-9.171 7.871-9.171h128.68v73.871z"/><path fill="#a1a2a2" display="none" d="m-103.25 90.286c-8.1 0-13.5-4.8-13.5-12.7v-81.3c0-7.9 5.5-12.7 13.5-12.7h807.1c8.1 0 13.5 4.8 13.5 12.7v81.4c0 7.9-5.5 12.7-13.5 12.7h-807.1zm807.7 1c12 0 15.6-7.4 15.6-14.9v-79c0-7.4-3.6-14.9-15.6-14.9h-808.2c-12 0.1-15.7 7.5-15.7 15v79c0 7.4 3.6 14.9 15.6 14.9h808.3z"/><rect height="73.871" width="311.3" y="1.9397e-7" x="136.55" stroke-width=".72211" fill="url(#SVGID_3_)"/><g stroke-width=".72211" fill="#fff"><path opacity=".4" d="m593.14 56.83c4.9825 4.9825 5.7046 9.604 5.8491 10.687 0.50547 0 0.64989-2.1663 0.64989-5.488v-52.425c0-6.0657-1.9497-8.1598-7.1488-8.1598-1.733 0-3.4661 0.93874-5.7768 0.93874h-573.13c-2.3108 0-4.0438-0.93874-5.7769-0.93874-5.127 0-7.1488 2.0219-7.1488 8.1598v52.425c0 3.2495 0.21663 5.488 0.6499 5.488 0.14442-1.0109 0.36105-6.0657 5.8491-10.687 44.193-34.083 538.33-44.554 585.99 0z"/><path d="m88.241 68.239c0.86652 0.43326 2.6718 1.0109 4.9103 1.0109 3.8272 0.07221 5.9213-1.372 7.5099-4.8381l20.652-45.998c-0.86653-0.43326-2.744-0.93874-4.2604-1.0109-2.6718-0.07221-6.2101 0.50548-8.5208 5.9213l-6.71 15.742-13.073-21.374c-0.86653-0.28884-2.8884-0.6499-4.4048-0.6499-4.6215 0-7.2211 1.7331-9.8929 4.6215l-12.781 14.008 10.254 16.103c1.8775 2.9606 4.4048 4.4048 8.4486 4.4048 2.6718 0 4.8381-0.57768 5.8491-1.0832l-12.349-18.631 8.738-9.243 14.37 22.53zm-27.006-17.475c0 3.3939-1.2998 5.3436-7.9432 5.3436-0.86653 0-1.6608-0.07221-2.383-0.14442v-44.987c0-3.3939 1.1554-7.0044 7.871-7.0044 0.86652 0 1.6608 0.07221 2.4552 0.21663zm-13.72-6.7878c0 6.3545-4.116 10.976-12.565 11.843-6.0657 0.6499-14.875-0.14442-19.064-0.57769-0.14443-0.6499-0.28885-1.5164-0.28885-2.1663 0-5.5602 2.9606-6.7878 5.7768-6.7878 2.8884 0 7.5099 0.50548 10.904 0.50548 3.755 0 4.9103-1.2998 4.9103-2.4552 0-1.5886-1.5164-2.2385-4.4048-2.8162l-7.9432-1.5164c-6.6434-1.2998-10.182-5.8491-10.182-10.687 0-5.9213 4.1882-10.904 12.42-11.77 6.2101-0.6499 13.792 0.07221 17.98 0.57768 0.14443 0.72211 0.21664 1.372 0.21664 2.1663 0 5.488-2.8884 6.7156-5.7046 6.7156-2.1663 0-5.488-0.43326-9.3152-0.43326-3.8994 0-5.488 1.0832-5.488 2.383 0 1.372 1.5164 1.9497 3.9716 2.383l7.5821 1.4442c7.871 1.2998 11.193 5.7769 11.193 11.193z"/><path d="m195.33 45.565c0-7.6543-4.9825-11.409-12.926-13.142l-13.937-3.1773c-2.5274-0.57768-4.6215-1.372-4.6215-3.8994 0-2.744 2.1663-3.8272 8.0154-3.8272 6.86 0 8.5208 0.36105 14.731 0.36105 2.8884 0 5.8491-1.372 5.8491-7.0044 0-0.72211-0.0722-1.4442-0.21663-2.1663-4.1882-0.36105-11.77-0.79432-21.013-0.79432-14.009 0-19.352 6.0657-19.352 13.792 0 7.2211 4.5493 11.265 12.637 13.142l13.937 3.2495c3.2495 0.79432 4.9825 2.1663 4.9825 4.1882 0 2.744-2.4552 3.8272-8.3042 3.8272-6.86 0-10.037-0.50547-16.32-0.50547-2.8884 0-5.8491 1.2998-5.8491 7.0044 0 0.72211 0.0722 1.4442 0.21663 2.1663 4.1882 0.43326 13.287 0.93874 22.53 0.93874 14.081 0.07221 19.641-5.9213 19.641-14.153z"/><path d="m310.22 33.217v-11.77h11.048c4.6937 0 8.4486 0.72211 8.4486 5.6324 0 4.116-2.8162 6.1379-8.4486 6.1379zm-0.0722 9.243h5.8491l11.265 13.431c2.0941 2.5996 4.116 3.9716 8.9541 3.9716 3.2495 0 5.4158-0.43326 7.1488-1.2998l-14.659-16.97c8.232-1.7331 12.348-7.0766 12.348-14.948 0-9.6762-5.9213-14.442-17.836-14.442l-17.042-0.07221c-5.5602 0.21663-7.3655 2.0941-7.3655 7.1489v39.788c0.86653 0.14442 1.8053 0.21663 2.8162 0.21663 7.0044 0 8.6653-2.0219 8.6653-5.7046z"/><path d="m211.87 34.444v-12.925h11.481c5.7046 0 8.5209 2.0941 8.5209 6.2823 0 4.4048-2.8162 6.6434-8.5209 6.6434zm-11.481 24.624c0.86653 0.14442 1.8053 0.21663 2.8162 0.21663 7.0044 0 8.6653-2.0219 8.6653-5.7046v-9.604h11.915c12.998 0 19.497-5.6324 19.497-16.175 0-10.182-6.499-15.597-18.703-15.597h-16.825c-5.6324 0-7.3655 2.1663-7.3655 7.1489z"/><path d="m281.33 35.022c0 5.4158-0.93874 9.1708-2.744 11.481-1.733 2.3107-4.6215 3.3939-8.5931 3.3939-3.9716-0.07221-6.86-1.2276-8.7375-3.3939-1.8053-2.1663-2.744-5.9935-2.744-11.481 0-5.4158 1.011-9.1708 2.8162-11.409 1.8053-2.2385 4.6937-3.3217 8.6653-3.3217s6.7156 1.0832 8.5931 3.3217c1.8053 2.2385 2.744 5.9935 2.744 11.409zm-11.337 24.191c7.3655 0 13.07-1.7331 17.114-5.3436 3.9716-3.5383 6.0657-9.8206 6.0657-18.847-0.0722-8.8819-2.0941-15.02-6.2823-18.703-4.116-3.6105-9.7484-5.4158-16.897-5.4158-7.0766 0-12.709 1.8053-16.897 5.4158-4.116 3.6827-6.2101 9.8206-6.2823 18.703 0 9.0263 2.0219 15.309 6.0657 18.847 4.0438 3.6105 9.7484 5.3436 17.114 5.3436z"/><path d="m371.23 21.808h9.243c3.0328 0 6.1379-1.372 6.1379-7.3655 0-0.72211-0.0722-1.5164-0.21663-2.2385h-35.744c-3.0328 0-6.1379 1.372-6.1379 7.3655 0 0.72211 0.0722 1.5164 0.21663 2.2385h15.092v37.261c0.86653 0.14442 1.8053 0.21663 2.8162 0.21663 7.0044 0 8.6653-2.0219 8.6653-5.7046v-31.773z"/><path d="m432.54 45.565c0-7.6543-4.9825-11.409-12.926-13.142l-13.937-3.1773c-2.5274-0.57768-4.6215-1.372-4.6215-3.8994 0-2.744 2.1663-3.8272 8.0154-3.8272 6.86 0 8.5208 0.36105 14.731 0.36105 2.8884 0 5.8491-1.372 5.8491-7.0044 0-0.72211-0.0722-1.4442-0.21663-2.1663-4.1882-0.36105-11.77-0.79432-21.013-0.79432-14.009 0-19.352 6.0657-19.352 13.792 0 7.2211 4.5493 11.265 12.637 13.142l13.937 3.2495c3.2495 0.79432 4.9825 2.1663 4.9825 4.1882 0 2.744-2.4552 3.8272-8.3042 3.8272-6.86 0-10.037-0.50547-16.32-0.50547-2.8884 0-5.8491 1.2998-5.8491 7.0044 0 0.72211 0.0722 1.4442 0.21663 2.1663 4.1882 0.43326 13.287 0.93874 22.53 0.93874 14.081 0.07221 19.641-5.9213 19.641-14.153z"/></g><g stroke-width=".72211"><path d="m589.89 4.7659c-1.2998 0.57768-2.6718 1.2998-3.755 2.2385-0.43326-0.21663-0.36105 0.36105-0.57768 0.50548-1.372 1.0109-2.383 2.2385-3.6105 3.1773 0.14442 0.07221 0.14442 0.28884 0 0.36105l-0.57769 0.43326 0.14442 0.14442c-1.5886 1.5164-3.3939 3.5383-5.0547 5.2714-0.14442 0.43326-0.28884 1.0109-0.72211 1.2276l0.14442 0.14442c-0.57768 0.43326-0.79431 0.72211-1.1554 1.2998 0.0722-0.14442-0.0722-0.21663-0.0722-0.28884l-0.28884 0.21663 0.14442 0.14442h-0.14442c-0.0722 0.07221-0.14442 0.14442-0.28884 0.21663 0.43326 0.57768-0.50548 0.57768-0.57769 1.0109-0.0722-0.07221-0.14442-0.21663-0.21663-0.14442l-0.14442 0.14442c0.0722 0.07221 0.14442 0.14442 0.0722 0.28884l-0.14442-0.14442c-0.0722 0.14442-0.36105 0.14442-0.28884 0.36105l0.14442 0.14442-0.28885 0.21663c0 0.36105 0-0.14442-0.14442-0.14442-0.57768 0.14442 0.0722 0.50547-0.28884 0.72211l-0.21663-0.28884c-0.0722 0.07221-0.21663 0.14442-0.14442 0.21663l0.21663 0.28884c-0.14442 0-0.28884 0-0.36105-0.14442-0.0722 0.07221-0.21664 0.14442-0.14442 0.21663 0.0722 0.07221 0.14442 0.21663 0.21663 0.14442-1.0832 0.50547-1.372 2.0219-2.383 2.5996-1.011 1.1554-1.372 2.383-2.3107 3.5383l0.14442 0.14442c0.50547-0.57768 0.86652-0.93874 1.2998-1.5886-0.6499 1.372-2.0219 2.383-2.383 3.8994l0.0722 0.14442c-0.0722 0.07221-0.14442 0.14442-0.14442 0.21663l0.14442 0.14442c0.28884-0.43326 0.64989-0.6499 1.011-1.0832-0.50548 1.8775-2.0219 2.8162-2.8162 4.5493 0.0722 0.28884 0.14442 0.50548 0.28884 0.6499 0-0.07221 0.0722 0.14442 0.0722 0.07221l0.93874 1.1554c-0.21663-0.07221-0.21663 0-0.36105-0.07221 0.21663 0.43326 0.43326 0.57768 0.72211 1.0832 0.0722 0.14442 0.14442 0.28884 0.21663 0.43326h0.14442c0 0.21663 0.0722 0.28884 0.14442 0.57769 0.0722 0.07221 0.0722 0.14442 0.14442 0.28884 0.14442 0.28884 0.28884 0.50548 0.50548 0.79432l0.43326 1.2998c0.14442 0.28884 0.36105 0.50547 0.50548 0.79432 0.50547 0.86653 1.2998 1.4442 1.8775 2.3107 0.79432 1.0109 1.4442 2.744 1.8775 3.6827 1.011 2.1663 2.5996 3.2495 3.5383 5.488 0.50547 1.2276 1.2276 2.0941 2.0219 3.1773 0.28884 0.36105 0.50547 0.72211 0.79431 1.0109 0.14443 0.14442 0.28885 0.28884 0.43327 0.43326 0.43326 0.6499 1.2998 1.372 0.93874 1.8053-0.14442 0.21663 0.64989 1.0832 1.011 1.8053 0.0722 0.14442 0.21663 0.28884 0.28884 0.36105 0.28884 0.43326 0.36105 0.93874 0.36105 0.93874 0.0722 0.07221 0.0722 0.14442 0.14442 0.21663 0.28885 0.28884 1.011 1.6608 1.372 2.3107 0 0.07221 0.0722 0.21663 0.0722 0.28884 0.0722 0.07221 0.0722 0.14442 0.0722 0.14442v0.07221c0.21663 0.72211 0.28884 1.4442 0.28884 2.1663 0 0.50547-0.0722 1.0109-0.14442 1.6608h-0.14442c-0.14443 0.43326 0.0722 0.79432-0.28885 1.0109l-0.28884-0.07221c0.14442 0.50547-0.36105 0.21663-0.57768 0.36105-0.57769-0.43326-0.57769 0.57768-1.372 0.43326-0.7221 0.57768-1.5164-0.72211-2.3107-0.28884-0.0722-1.0109-1.372-1.2276-1.5164-2.2385-0.6499-0.79432-1.7331-1.5164-2.1663-2.4552-0.72211-1.0109-0.86653-2.2385-1.5164-3.3217-0.36106-0.57768-0.0722 0.50548-0.43327-0.07221l0.14442 0.79432-0.36105-0.57768c-0.28884-0.43326-1.011-0.6499-1.2998-1.1554-0.0722-0.07221-0.0722-0.14442-0.14442-0.28884-0.86653-1.1554-1.6608-2.0941-2.383-3.3217l0.14442-0.14442c0.36105 0.14442 0.57768 0.57768 0.79432 0.86653l0.14442-0.14442c-0.72211-0.93874-1.372-1.8775-2.0219-2.8162-1.8053-1.5886-2.5274-3.6827-3.6105-5.7046-0.93874-1.8053-2.4552-2.744-3.6828-4.3326-0.43326-0.57768-0.86652-1.0832-1.0832-1.6608 0 0.28884 0.28884 0.50547 0.28884 0.79432 0.21663 0.43326 0.93874 1.0109 1.011 1.5886-0.21664-0.79432-1.1554-1.5164-1.8053-1.8053l-0.14442 0.14442-0.43326-0.57768c-0.36106 0.36105-0.50548 1.0109-1.011 1.0832 0.21663 0.57768-0.43327 0.6499-0.72211 1.0832 0.0722 0.43326-0.28884 0.93874-0.50547 1.372-0.43327 0.21663-0.57769 0.72211-0.72211 1.0832l-0.14442-0.14442c-0.0722 0.07221-0.21663 0.14442-0.14442 0.21663-0.0722 0.50547-0.50548 1.2276-0.93874 1.7331-1.7331 2.4552-3.0328 5.2714-4.6937 7.7987-1.1554 1.8053-2.5274 3.4661-4.3326 4.8381-0.50548 1.0832-1.7331 2.1663-3.0328 2.1663l-0.14442-0.14442c-0.14442 0.28884-0.36105-0.07221-0.50547-0.07221-0.14443-0.36105-1.011 0-1.372-0.36105-0.7221 0-0.93873-0.93874-1.5886-1.0109 0.50547-0.50547-0.21663-1.1554 0.28884-1.6608 0.28884-0.28884 0.57769-0.86653 1.011-1.0832 0-0.36105 0.14442-0.86653 0.36105-1.2276l0.14443 0.14442c0.0722-0.07221 0.21663-0.14442 0.14442-0.21663-0.0722-0.07221-0.14442-0.21663-0.21663-0.14442l0.28884-0.21663-0.14442-0.14442c0.14442-0.57768 0.43326-1.0832 0.7221-1.5164 0.79432-1.1554 1.9497-2.1663 2.4552-3.4661 3.6105-5.1992 6.5712-10.904 10.543-15.814 0.28884-0.43326 0.57768-1.0832 0.50547-1.5164-0.0722 0.07221-0.14442 0.14442-0.28884 0.14442-0.0722-0.07221-0.14442-0.14442-0.0722-0.28884l0.14442 0.14442c0.21663-0.50547-0.21663-1.0832-0.50547-1.5886-0.14443-0.07221-0.21664 0-0.28885 0.07221l0.0722 0.79432c-0.57768-1.1554-1.733-2.1663-2.0219-3.2495-0.93874-0.28884-0.79432-1.372-1.6608-1.9497-0.86653-2.0219-2.2385-3.4661-3.2495-5.5602-0.36105 0.21663 0 0.50547 0.0722 0.79432-1.5886-2.5274-3.105-5.488-4.6215-8.232 0-0.07221-0.0722-0.07221-0.0722-0.14442-0.50547-1.0109-0.43326-2.2385 0.14442-3.1773 0.28885-0.6499 1.1554-1.2276 1.6608-1.5164-0.28884-0.28884 0.14442-0.50547 0.21663-0.72211 0.57768-0.57769 0.86653-1.5886 1.8053-1.8053-0.21664-0.14442 0-0.43326 0.0722-0.6499 0.28884-0.07221 0.50547-0.36105 0.79431-0.57768 0.28885 0.07221 0.72211 0.07221 1.011 0.43326 1.6608 1.9497 2.9606 4.116 4.3326 6.2823 1.5164 2.4552 2.9606 4.9103 4.7659 7.1489l-0.14442 0.14442c0.0722 0.07221 0.36105 0.43326 0.36105 0.43326l0.14443-0.14442c1.0832 1.8775 2.4552 3.3939 3.8272 5.1992h0.28884c2.2385-2.383 3.9716-4.9103 6.2101-7.0766 0.50547-0.6499 1.0832-1.6608 1.8053-1.8775l0.14442-0.14442-0.14442-0.14442c0.43327-0.43326 0.6499-1.0109 1.2276-1.1554l-0.14442-0.14442c0.21663-0.21663 0.43327-0.50547 0.6499-0.72211 6.0657-6.2823 11.77-12.853 19.858-16.536 0.43327-0.43326 0.93874-0.57768 1.4442-0.79432 0 0.14442-0.36106 0.36105-0.0722 0.50548 0 0.57768-1.372 1.9497-2.1663 2.8162z" fill="url(#SVGID_4_)"/><path d="m468.65 59.646c-1.0832 0-2.0941-0.14442-2.9606-0.36105-0.86653-0.21663-1.5886-0.50547-2.2385-0.79432l4.4771-45.42c0.93874-0.36105 2.1663-0.72211 3.6105-0.93874 1.5164-0.21663 2.8162-0.36105 3.8272-0.36105 1.5164 0 2.8162 0.07221 3.8994 0.28884s2.0219 0.50548 2.8162 1.0109c0.79432 0.43326 1.372 1.0832 1.8775 1.9497 0.43326 0.79432 0.79432 1.8775 1.0832 3.0328l1.8775 8.8097c0.50547 2.4552 1.0832 5.127 1.733 8.0154 0.57769 2.9606 1.1554 5.9935 1.6608 9.0985h0.28884c0.50547-3.1051 1.0832-6.1379 1.6608-9.0263 0.57769-2.8884 1.1554-5.5602 1.8053-8.0154l2.3107-9.243c0.57768-2.3107 1.5164-3.8272 2.8162-4.6937 1.2998-0.79432 3.3217-1.2276 5.9935-1.2276 1.372 0 2.744 0.14442 4.116 0.36105s2.5274 0.43326 3.4661 0.72211l4.2604 45.709c-0.64989 0.21663-1.5164 0.50547-2.4552 0.72211-0.93874 0.21663-1.9497 0.36105-3.1051 0.36105-1.5886 0-2.8884-0.28884-3.8994-0.79432-1.0832-0.50547-1.6608-1.5164-1.7331-2.9606l-1.0832-15.742c-0.21663-2.744-0.43326-5.7046-0.64989-8.7375-0.14442-3.0328-0.28884-5.9213-0.36106-8.6653h-0.15c-0.64989 2.5274-1.2998 5.2714-1.9497 8.232s-1.2998 5.6324-2.0219 8.1598l-2.9606 12.42c-0.7221 2.8884-3.0328 4.4048-6.9322 4.4048-0.93874 0-1.9497-0.07221-2.9606-0.28884s-1.8775-0.43326-2.5996-0.6499l-3.69-15.453c-0.72211-2.8884-1.4442-5.7046-2.0219-8.4486-0.64989-2.744-1.2276-5.5602-1.733-8.3042h-0.21664c-0.14442 3.8994-0.36105 7.4377-0.57768 10.687-0.21663 3.2495-0.43327 5.9935-0.6499 8.3764l-1.1554 14.225c-0.0722 1.4442-0.64989 2.383-1.5886 2.8884-1.0832 0.43326-2.383 0.6499-3.8994 0.6499z" fill="url(#SVGID_5_)"/><path d="m529.09 59.646c-1.011 0-2.0219-0.07221-3.0328-0.14442-1.011-0.07221-1.8053-0.21663-2.5274-0.36105v-42.171c0-1.4442 0.43326-2.5996 1.2998-3.6105 0.86653-1.0109 2.5274-1.5164 4.9825-1.5164 1.0109 0 2.0219 0.07221 3.0328 0.14442 1.011 0.07221 1.8053 0.21663 2.5274 0.36105v42.171c0 1.4442-0.43326 2.5996-1.2998 3.6105-0.86652 1.0109-2.5274 1.5164-4.9825 1.5164z" fill="url(#SVGID_6_)"/><path opacity=".4" d="m599.64 9.604c0-6.0657-1.9497-8.1598-7.1488-8.1598-1.733 0-3.4661 0.93874-5.7768 0.93874h-138.86v27.946c73.366 4.2604 130.56 12.781 145.29 26.501 4.9825 4.9825 5.7046 9.604 5.8491 10.687 0.50547 0 0.64989-2.1663 0.64989-5.488z" fill="#fff"/></g></svg>
