<svg width="893.89" height="287" version="1.1" viewBox="0 0 893.89215 286.99579" xmlns="http://www.w3.org/2000/svg">
 <path d="m175.75 253h11v-112h-11v-34h58.696l1.8038 4c0.99206 2.2 1.9449 4 2.1174 4s3.1417-1.538 6.5981-3.4177c8.7665-4.7675 15.774-6.5823 25.417-6.5823 10.703 0 17.188 1.3966 26.084 5.6181 17.034 8.0834 28.489 24.665 32.348 46.83 1.5612 8.965 0.68308 29.255-1.5819 36.552-4.5214 14.568-12.498 26.07-23.084 33.288-10.11 6.8928-16.644 8.9292-30.424 9.4811-13.304 0.53291-21.203-1.0137-29.717-5.8188l-5.2574-2.9671v25.017h13v34h-76zm87.71-50.965c7.7338-4.7156 11.855-16.706 11.01-32.035-1.2343-12.252-5.5303-28.558-18.22-29.001-14.161 0.58554-17.442 22.965-17.488 29.932 0.0134 10.77 1.6117 18.044 5.3768 24.469 4.7083 8.0341 12.588 10.74 19.321 6.635zm277.66 35.472c-19.953-4.3393-35.441-16.171-44.28-33.828-5.0397-10.067-7.0852-19.646-7.0852-33.179 0-21.571 6.4632-37.497 20.378-50.215 15.828-13.849 33.287-16.674 47.622-16.716 16.573-0.0304 22.902 1.2667 35 7.1724 14.431 7.0446 25.005 21.184 28.612 38.258 1.7404 8.2386 1.4607 26.291-0.48419 31.25l-1.0785 2.75h-80.3l0.64384 3.25c1.2067 6.0913 5.7326 11.949 11.622 15.042 12.623 6.2044 22.338 4.6546 35.227-0.71214 3.7085-1.5326 8.5123-4.0684 10.675-5.6351l3.9323-2.8485 20.883 24.702c-4.3482 4.3433-23.252 16.147-34.234 18.667-14.786 3.3926-35.497 4.5731-47.135 2.0422zm37.169-84.257c-0.83229-5.7053-3.2045-9.619-6.8349-12.629-4.3328-3.592-16.158-4.1379-20.699-0.82596-4.2599 3.1064-9.0112 8.869-9.7046 14.039l-0.55876 4.1658h38.49zm-496.3 82.794c-9.6448-2.6056-21.566-8.9175-28.478-15.078-6.2177-5.5417-6.0673-5.6155-7.2053 3.5337-0.34206 2.75-0.86751 6.246-1.1677 7.7689l-0.54574 2.5h-44.597v-64.769h47.764v2.8037c0 5.2026 4.6692 12.725 10.31 16.61 9.0687 6.2458 25.531 8.1869 35.194 4.1495 3.8758-1.6194 8.4963-7.0126 8.4963-9.9171 0-5.8401-5.9891-9.3021-26.266-15.183-33.509-9.7186-45.062-14.981-56.275-25.632-11.425-10.853-15.435-20.291-15.435-36.331 0-15.632 4.1767-25.907 14.883-36.614 7.1796-7.1796 15.888-12.204 27.21-15.697 24.72-7.628 57.312 0.90162 68.595 17.952 1.4193 2.1447 2.7906 3.6894 3.0472 3.4328s0.98192-4.6533 1.6116-9.7703l1.145-9.3036h44.248v63.5h-46.485l-0.58581-4.9462c-1.4768-12.469-11.054-21.412-25.849-24.138-5.4316-1.0008-7.2741-0.93209-12.023 0.44845-10.352 3.0095-15.063 12.244-9.7152 19.043 3.1932 4.0595 15.76 9.8759 37.032 17.14 35.816 12.231 50.256 21.736 58.1 38.244 5.3367 11.232 4.913 28.588-1.0062 41.21-5.572 11.881-20.594 23.191-37.248 28.044-11.044 3.2181-34.596 3.7443-44.754 0.99986zm253.13-1.2806v-33.763h10.639v-61.198h-10.775v-32.802h24.611c2.9324 9.0062 5.1789 15.971 7.4143 24.5l7.9403-24.5h19.81v94h11.774v33.763zm79.639-33.763h10.758v-125h-10.758v-33h59.244v158h14.756v33.763h-74zm215.34 33.554v-33.554h10.66v-60.918h-9.9235v-33.082h47.537l7.5649 14.61c0.38984 0.24094 1.8848-1.5686 3.3222-4.0213 3.2527-5.5504 9.4648-11.244 14.883-13.641 3.9573-1.7505 14.643-3.925 19.366-3.9409l2.25-8e-3v45.804l-6.25 0.66477c-14.506 1.5429-23.169 5.6471-26.98 12.783-2.0851 3.9036-2.2962 5.7725-2.5977 22.999l-0.32814 18.75h12.93v33.554z"/>
 <path d="m757.68 146.62c-4.4284-1.6328-7.8058-5.5101-9.5803-9.5128-1.3194-2.9759-1.7101-8.1935-2.0178-26.941l-0.3816-23.25h-8.8129v-19.193h9v-15.232l27.217-7.7195v22.952h14.783v19.193h-14.5l-0.2472 18.5c-0.28475 21.31 0.1737 23.015 6.2866 22.973 2.1783-0.0148 7.4573-0.45536 8.3437-1.4222v18.905c-3.3625 1.3914-22.877 3.4073-30.09 0.74777zm77.44-1.3285-29.239-58.375h-6.9931v-19.193h46v19.193h-6.8837c4.2256 9.9332 8.9364 23.688 9.9401 28.256 0.6955 3.1659 1.4987 5.5221 1.7848 5.2359 0.2862-0.28612 1.3024-3.6002 2.2584-7.3647 0.956-3.7644 3.7997-10.949 6.3193-15.966 2.5196-5.0168 5.037-10.161 4.7826-10.161h-8.538v-19.193h39.336v19.193h-8.0457l-26.848 58.375zm-469.55-33.208c-0.99085-3.8464-4.4452-12.355-7.6763-18.908-6.6334-13.453-15.515-24.08-25.243-30.203l-5.4724-3.4442 5.6046-3.6412c9.9222-6.4462 18.063-16.209 24.871-29.828 3.3383-6.6776 6.876-15.271 7.8617-19.098l1.7921-6.9566 4.0399 12.224c6.3723 19.281 17.095 34.55 30.591 43.563l5.647 3.7709-5.5989 3.6351c-14.238 9.2438-24.738 24.556-31.461 45.878l-3.1534 10.001z" fill="#ed1b24"/>
</svg>
