<svg width="600" height="635.63" version="1.1" viewBox="0 0 158.75 168.17665" xmlns="http://www.w3.org/2000/svg">
 <g transform="translate(-124.7 82.472)">
  <path id="s" d="m249.79-82.472c-0.71027 0.71352-1.1088 1.1131-1.819 1.8266v37.993h-8.0098v-37.993c-0.71105-0.71354-1.1096-1.1131-1.8198-1.8266h-31.474c-0.71105 0.71352-1.1096 1.1131-1.8198 1.8266v38.358l21.562 21.836v16.164c0.71027 0.71352 1.1088 1.1131 1.819 1.8266h31.474c0.71025-0.71352 1.108-1.1131 1.819-1.8266v-16.351l21.924-22.013v-37.993c-0.70947-0.71354-1.108-1.1131-1.819-1.8266z"/>
  <path id="f" d="m194.56-82.472h-53.943l-15.92 15.983v22.016c0.71104 0.71352 1.1095 1.1138 1.8198 1.8211h34.021v7.8543h-34.022c-0.71027 0.71352-1.1088 1.1138-1.819 1.8274v28.682c0.71026 0.7143 1.1088 1.1139 1.819 1.8266h53.943l15.919-15.983v-22.381c-0.71027-0.71274-1.1088-1.1131-1.8198-1.8266h-34.02v-7.8543h34.021c0.71027-0.71354 1.1088-1.1131 1.819-1.8266v-28.313c-0.71027-0.71354-1.1088-1.1131-1.819-1.8266"/>
  <path id="y" d="m249.79 5.6932c-0.71103 0.71352-1.1088 1.1131-1.819 1.8266v37.993h-8.0106v-37.993c-0.71028-0.71354-1.1088-1.1131-1.819-1.8266h-31.474c-0.71026 0.71352-1.1088 1.1131-1.8198 1.8266v38.358l21.562 21.836v16.164c0.71025 0.71352 1.1096 1.1131 1.8198 1.8266h31.474c0.71028-0.71352 1.1096-1.1131 1.819-1.8266v-16.351l21.925-22.013v-37.993c-0.71028-0.71354-1.108-1.1131-1.819-1.8266z"/>
  <path d="m140.62 5.6932-15.919 15.983v62.201c0.71025 0.71352 1.1095 1.1139 1.819 1.8274h31.474c0.71028-0.71352 1.1088-1.1139 1.819-1.8274v-10.686h34.749c0.71026-0.71274 1.1088-1.1131 1.8198-1.8266v-24.025c-0.71103-0.71274-1.1095-1.1131-1.8198-1.8266h-34.749v-7.8543h34.749c0.71026-0.71354 1.1088-1.1131 1.8198-1.8266v-28.313c-0.71103-0.71354-1.1095-1.1131-1.8198-1.8266z"/>
 </g>
</svg>
