<svg width="600" height="147.11" version="1.1" viewBox="0 0 158.75 38.922394" xmlns="http://www.w3.org/2000/svg">
 <g transform="translate(-38.983 -96.445)">
  <path id="s" d="m99.835 96.445c-0.34552 0.3471-0.53937 0.54146-0.88489 0.88857v18.482h-3.8965v-18.482c-0.3459-0.34711-0.53975-0.54147-0.88526-0.88857h-15.311c-0.3459 0.3471-0.53975 0.54146-0.88527 0.88857v18.66l10.489 10.622v7.8631c0.34552 0.3471 0.53937 0.54147 0.88489 0.88857h15.311c0.34551-0.3471 0.53899-0.54147 0.88488-0.88857v-7.9543l10.665-10.709v-18.482c-0.34513-0.34711-0.53899-0.54147-0.88488-0.88857z"/>
  <path id="y" d="m181.36 96.445c-0.34589 0.3471-0.53937 0.54146-0.88488 0.88857v18.482h-3.8968v-18.482c-0.34552-0.34711-0.53937-0.54147-0.88489-0.88857h-15.311c-0.34551 0.3471-0.53937 0.54146-0.88526 0.88857v18.66l10.489 10.622v7.8631c0.34551 0.3471 0.53975 0.54147 0.88526 0.88857h15.311c0.34552-0.3471 0.53975-0.54147 0.88489-0.88857v-7.9543l10.666-10.709v-18.482c-0.34552-0.34711-0.53899-0.54147-0.88489-0.88857z"/>
  <path id="f" d="m72.968 96.445h-26.241l-7.7443 7.7752v10.71c0.3459 0.3471 0.53975 0.54184 0.88527 0.88589h16.55v3.8208h-16.55c-0.34552 0.3471-0.53937 0.54184-0.88489 0.88895v13.953c0.34552 0.34748 0.53937 0.54185 0.88489 0.88857h26.241l7.7439-7.7749v-10.888c-0.34552-0.34672-0.53937-0.54147-0.88527-0.88857h-16.549v-3.8208h16.55c0.34552-0.34711 0.53937-0.54147 0.88489-0.88857v-13.773c-0.34552-0.34711-0.53937-0.54147-0.88489-0.88857"/>
  <path d="m128.25 96.445-7.7439 7.7752v30.258c0.34551 0.3471 0.53974 0.54185 0.88488 0.88895h15.311c0.34552-0.3471 0.53937-0.54185 0.88489-0.88895v-5.1981h16.904c0.34551-0.34672 0.53937-0.54146 0.88526-0.88857v-11.687c-0.34589-0.34672-0.53975-0.54147-0.88526-0.88857h-16.904v-3.8208h16.904c0.34551-0.34711 0.53937-0.54147 0.88526-0.88857v-13.773c-0.34589-0.34711-0.53975-0.54147-0.88526-0.88857z"/>
 </g>
</svg>
