<svg width="600" height="443.54" version="1.1" viewBox="0 0 158.75 117.35405" xmlns="http://www.w3.org/2000/svg">
 <g>
  <g stroke-width=".69779">
   <path id="s" d="m87.282 0.0010169c-0.49561 0.49788-0.7737 0.7767-1.2692 1.2745v26.511h-5.5891v-26.511c-0.49617-0.4979-0.77427-0.77671-1.2698-1.2745h-21.962c-0.49617 0.49788-0.77427 0.7767-1.2698 1.2745v26.766l15.046 15.237v11.279c0.49562 0.49789 0.77371 0.77671 1.2692 1.2745h21.962c0.49561-0.49788 0.77315-0.77671 1.2692-1.2745v-11.409l15.299-15.361v-26.511c-0.49506-0.4979-0.77314-0.7767-1.2692-1.2745z"/>
   <path id="f" d="m48.751 0.0010169h-37.64l-11.108 11.152v15.363c0.49616 0.49789 0.7742 0.7772 1.2698 1.2707h23.74v5.4806h-23.74c-0.49562 0.49789-0.77371 0.7772-1.2692 1.2751v20.014c0.49561 0.49843 0.77371 0.77727 1.2692 1.2745h37.64l11.108-11.152v-15.618c-0.49562-0.49735-0.77371-0.77671-1.2698-1.2745h-23.739v-5.4806h23.74c0.49562-0.4979 0.77371-0.77671 1.2692-1.2745v-19.757c-0.49562-0.4979-0.77371-0.77671-1.2692-1.2745"/>
   <path id="y" d="m87.282 61.523c-0.49614 0.49789-0.7737 0.77671-1.2692 1.2745v26.511h-5.5897v-26.511c-0.49563-0.4979-0.77371-0.77671-1.2692-1.2745h-21.962c-0.49561 0.49789-0.77371 0.77671-1.2698 1.2745v26.766l15.046 15.237v11.279c0.49561 0.49789 0.77427 0.77671 1.2698 1.2746h21.962c0.49563-0.49788 0.77427-0.7767 1.2692-1.2746v-11.409l15.299-15.361v-26.511c-0.49563-0.4979-0.77315-0.77671-1.2692-1.2745z"/>
   <path d="m11.108 61.523-11.108 11.152v43.403c0.4956 0.49788 0.7742 0.77726 1.2692 1.2752h21.962c0.49563-0.49789 0.77371-0.77727 1.2692-1.2752v-7.4566h24.248c0.49561-0.49733 0.77371-0.7767 1.2698-1.2745v-16.765c-0.49615-0.49734-0.77419-0.77671-1.2698-1.2745h-24.248v-5.4806h24.248c0.49561-0.4979 0.77371-0.77671 1.2698-1.2745v-19.757c-0.49615-0.4979-0.77419-0.77671-1.2698-1.2745z"/>
  </g>
  <path d="m118.58 61.523v55.831h7.2329v-24.521h3.5v24.521h7.2329v-55.831h-7.2329v24.077h-3.5v-24.077z" stroke-width=".66323" style="font-variation-settings:normal"/>
  <path d="m140.78 61.523v55.831h13.746l4.2204-4.2192v-47.393l-4.2204-4.2192zm7.2329 7.2329h3.4987v41.365h-3.4987z" stroke-width=".66323" style="font-variation-settings:normal"/>
 </g>
</svg>
