<svg width="200mm" height="146.68mm" version="1.1" viewBox="0 0 200 146.68" xmlns="http://www.w3.org/2000/svg" xmlns:xlink="http://www.w3.org/1999/xlink">
 <defs>
  <linearGradient id="a" x1="-183.69" x2="-26.26" y1="240.19" y2="238.29" gradientUnits="userSpaceOnUse" xlink:href="#b"/>
  <linearGradient id="b">
   <stop stop-color="#075f9a" offset="0"/>
   <stop stop-color="#0d83e7" offset="1"/>
  </linearGradient>
  <linearGradient id="c" x1="-204.13" x2="-68.25" y1="196.65" y2="118.03" gradientUnits="userSpaceOnUse">
   <stop stop-color="#7c8994" offset="0"/>
   <stop stop-color="#b4d6dd" offset="1"/>
  </linearGradient>
 </defs>
 <g transform="translate(218.68 -5.1877)">
  <g transform="matrix(1.0914 0 0 1.0914 5.1309 -120.51)">
   <g fill="url(#a)">
    <text transform="scale(1.0544 .94841)" x="-75.89296" y="262.57843" font-family="'Brandon Grotesque'" font-size="28.695px" letter-spacing="0px" stroke-width=".71737" word-spacing="0px" style="line-height:1.25" xml:space="preserve"><tspan x="-75.89296" y="262.57843" fill="url(#a)" font-family="Verdana" stroke-width=".71737">O</tspan></text>
    <path class="st6" d="m-183.69 230.04h16.13v5.423h-5.2912v13.742h-5.5389v-13.742h-5.3z" stroke-width=".09515"/>
    <path class="st7" d="m-157.36 236.18v-0.0503c0-0.5819-0.61922-0.86279-1.8576-0.86279h-0.87006v2.2112h0.89778c1.22-0.01 1.8299-0.44275 1.8299-1.2981m0.30187 6.591v-0.0503c0-0.41257-0.15711-0.59108-0.47134-0.84264-0.31424-0.25156-0.78561-0.36588-1.414-0.37232h-1.1534v2.5021h1.1257c0.62845 0 1.0998-0.12074 1.4233-0.37232 0.33271-0.26162 0.48982-0.45195 0.48982-0.86452m6.5497 0.9157c0 0.75469-0.13863 1.449-0.42513 2.0829-0.27727 0.63394-0.7024 1.1874-1.2662 1.6603-0.56377 0.46289-1.2569 0.83519-2.098 1.0868-0.83178 0.26162-1.793 0.39244-2.8835 0.39244h-9.6117v-18.847h9.6949c1.2015 0 2.1996 0.14088 2.9759 0.43269 0.78558 0.29182 1.4325 0.70438 1.9408 1.2679 0.31422 0.34212 0.573 0.75468 0.76709 1.2377 0.19408 0.483 0.29574 1.0465 0.29574 1.7006v0.0503c0 1.127-0.27726 2.0427-0.84103 2.737-0.56376 0.69431-1.3124 1.2176-2.255 1.5798 1.1275 0.36225 2.024 0.88549 2.6894 1.5899 0.66543 0.70438 0.99814 1.7006 0.99814 2.9886v0.0402z" stroke-width=".096436"/>
    <path class="st6" d="m-137.3 230.12h5.8416v19.171h-5.2395l-6.547-8.8436v8.8436h-5.8415v-19.171h5.5123l6.2648 8.4649v-8.4649z" stroke-width=".098124"/>
    <path d="m-114.7 248.88h-13.192v-19.707h12.545v2.1897h-9.5708v6.1081h8.7948v2.1897h-8.7948v7.03h10.217z"/>
    <path d="m-97.355 243.48c0 1.8745-0.6193 3.3585-1.8579 4.452-1.1433 1.0934-3.0012 1.6402-5.5737 1.6402s-4.478-0.54673-5.7166-1.6402c-1.1433-1.0935-1.715-2.5774-1.715-4.452v-14.176h3.287v13.708c0 1.3278 0.38111 2.3041 1.1433 2.9289 0.76221 0.62482 1.7626 0.93724 3.0012 0.93724s2.239-0.31242 3.0012-0.93724c0.76221-0.62484 1.1433-1.6011 1.1433-2.9289v-13.708h3.287z"/>
    <path d="m-79.542 249.13h-3.067l-4.6004-8.5642h-3.3225v8.5642h-2.9392v-19.79h6.3895q3.067 0 4.9838 1.3888 1.9168 1.273 1.9168 4.2821 0 2.3146-1.2779 3.5877-1.2779 1.273-2.9392 1.6202zm-3.5781-14.119q0-1.6202-1.1501-2.5461-1.0223-0.92585-3.4503-0.92585h-2.8114v6.8282h3.5781q1.5335 0 2.6836-0.6944 1.1501-0.81013 1.1501-2.6618z"/>
    <path d="m-42.353 235.1c0 1.8871-0.55776 3.381-1.6733 4.4818-1.1155 1.1008-2.6693 1.6512-4.6613 1.6512h-3.4661v7.9021h-2.749v-20.168h6.2151c1.992 0 3.5458 0.5504 4.6613 1.6512 1.1155 1.1008 1.6733 2.5947 1.6733 4.4818zm-2.749 0c0-1.4939-0.35856-2.1854-1.0757-2.7358-0.71712-0.55039-1.7929-0.81327-3.2271-0.82559h-2.749v6.6975h2.749c1.4343 0 2.5099-0.27519 3.2271-0.82558 0.71712-0.55041 1.0757-0.81662 1.0757-2.3106z"/>
    <path d="m-26.277 248.85h-13.428v-19.507h12.77v2.1674h-9.7421v6.0459h8.9522v2.1674h-8.9522v6.9585h10.4z"/>
   </g>
   <path d="m-164.82 208.74-20.222 1.8899-19.088-13.985 60.098-19.277 19.655-61.232 36.475 52.539 65.201-1.1339-24.379 32.128-17.954 0.75595 14.93-20.411-44.601 1.1339-25.513-36.097-12.851 44.223-41.577 11.528z" fill="url(#c)" stroke="#999" stroke-width=".865"/>
  </g>
 </g>
</svg>
