<svg width="600" height="136.37" version="1.1" viewBox="0 0 158.75 36.081187" xmlns="http://www.w3.org/2000/svg">
 <g transform="translate(-99.05 -186.69)" fill="#fff">
  <path d="m112.18 186.69-13.127 36.081h107.54l13.127-36.081zm31.112 5.4879h21.063l-1.8172 5.1546h-13.758l-1.6312 4.6725h12.978l-1.8167 5.1541h-12.979l-1.78 5.0063h13.572l-1.8911 5.1546h-21.063zm47.428 0h21.174l-1.8167 5.1546h-13.758l-1.6317 4.6725h13.016l-1.8167 5.1541h-13.016l-1.78 5.0063h13.535l-1.8172 5.1546h-21.211zm-74.944 0.0372h24.586l-1.8911 5.1546h-8.5659l-7.2312 19.988h-7.3051l7.2307-19.988h-8.677zm52.509 0h7.3423l-7.0457 19.988h12.126l-1.8172 5.1546h-19.728z"/>
  <path d="m222.79 186.69-13.127 36.081h35.006l13.127-36.081zm3.5968 5.4507h21.063l-1.7062 4.6353h-15.723l-1.8544 4.858c1.9654-1.1125 5.3031-1.5201 7.2684-1.5201 5.1545 0 10.976 1.9279 9.6411 8.3432-1.335 6.3411-7.8243 9.0484-14.499 9.0484-5.1915 0-11.31-1.4834-10.235-8.0099h6.9718c0.11125 2.6328 1.2236 3.3746 4.116 3.3746 4.0049 0 6.1925-1.4094 6.7858-4.2276 0.74164-3.5599-3.0036-4.3015-5.0802-4.3015-1.7058 0-3.8936 0.44482-5.414 1.7056h-6.4154z"/>
 </g>
</svg>
