<svg version="1.1" viewBox="0 0 300 300.02" xmlns="http://www.w3.org/2000/svg">
 <g transform="translate(0 -.00065451)">
  <path d="m0 0h300v300.02h-300z" fill="#014f9d"/>
  <path d="m71.641 76.31-10.324 2.4102c0.45785 1.5978 0.76562 5.1852 0.76562 8.8105v44.598h10.24v-27.646c2.2519-2.0463 5.4759-3.543 7.9707-3.543 2.8779 0 3.9238 1.4312 3.9238 5.2715v25.918h9.8672v-26.965c0-3.7095-0.21386-4.9909-0.9707-7.168-1.2147-3.3918-5.1292-5.502-10.025-5.502-3.9244 0-8.2889 1.6728-10.924 4.1582 0-0.45785 0.1582-2.0481 0.1582-3.2441v-7.6895c0-3.6908-0.23314-7.2965-0.68164-9.4082zm-52.555 3.4609v8.7441h12.791v43.607h10.707v-43.607h12.502l1.7285-8.7441h-37.729zm98.634 12.945c-5.1297 0-8.9707 1.6642-12.129 5.2148-3.4011 3.7655-4.8203 8.3529-4.8203 15.305 0 12.1 7.1468 19.939 18.229 19.939 5.4101 0 10.082-1.7273 14.539-5.334l-3.9238-6.0371c-3.0928 2.5696-6.3358 3.8398-9.793 3.8398-5.1952 0-8.1191-3.382-8.1191-9.334v-0.3086h22.285v-2.3359c0-8.0637-1.5794-13.249-5.1113-16.865-2.5041-2.5602-6.7273-4.084-11.156-4.084zm0.14843 7.3926c2.0276 0 3.4584 0.76518 4.4395 2.2695 0.897 1.4203 1.2051 2.9338 1.2051 5.793v0.44921h-11.68v-0.14062c0-5.3446 2.1948-8.3711 6.0352-8.3711zm74.49 45.51-10.316 2.4121c0.4485 1.5978 0.74805 5.1949 0.74805 8.8203v44.588h10.25v-27.639c2.2425-2.0463 5.4857-3.5508 7.9805-3.5508 2.8685 0 3.9141 1.4401 3.9141 5.2617v25.928h9.8574v-26.975c0-3.6908-0.22319-4.9628-0.9707-7.168-1.2054-3.3731-5.1214-5.4942-10.018-5.4942-3.9244 0-8.2776 1.663-10.922 4.1484 0-0.43916 0.1582-2.0275 0.1582-3.2422v-7.6797c0-3.6908-0.24249-7.2891-0.68164-9.4102zm-173.65 3.4609 12.512 52.803h11.969l4.3633-21.453c1.5978-7.69 2.5039-15.062 2.5039-15.062 0.13081 1.4203 0.89704 8.1933 2.4668 15.201l4.6816 21.314h11.521l12.65-52.803h-11.072l-4.306 19.88c-1.0558 5.1297-2.7095 15.753-2.8496 17.416 0 0-1.2802-8.9691-2.252-13.865l-4.8418-23.436h-11.529l-4.6621 21.174c-1.5791 7.2228-2.4863 14.689-2.7012 16.717 0 0-0.68127-7.4484-2.793-17.25l-4.5137-20.641h-11.156zm150.54 2.1211-10.25 2.5586c-0.37375 2.8499-0.37305 5.3551-0.37305 9.1113h-3.8398v6.9141h3.8398v20.949c0 3.5226 0.0738 4.2786 0.67188 5.9512 1.2054 3.4012 5.28 5.6523 10.4 5.6523 2.635 0 5.2598-0.5314 8.2031-1.7461l-1.2793-6.0078c-1.8034 0.51391-2.7108 0.7461-3.6172 0.7461-3.4666 0-4.3633-1.2796-4.3633-6.1758v-19.369h6.4766l2.5684-6.9141h-9.0449c0-3.9244 0.22432-8.1473 0.60742-11.67zm98.533 10.76-9.0352 2.4297c0.8316 2.1771 1.4297 6.1013 1.4297 11.287v25.77h10.109v-27.273c1.8594-2.1864 3.9052-3.2324 6.1758-3.2324 1.1213 0 1.9358 0.22283 2.9355 0.74609l2.7734-8.8945c-1.5791-0.6821-2.2597-0.83203-3.7734-0.83203-1.1212 0-2.4672 0.24301-3.2988 0.60742-1.8968 0.84094-4.2896 2.9436-5.7285 4.8965-0.15884-2.1678-0.68154-3.9154-1.5879-5.5039zm-131.52 0.082c-3.5413 0-6.7829 0.67174-10.539 2.2695-2.7284 1.1119-4.2154 1.859-6.2617 3.1484l4.2988 7.252c4.1393-2.7938 7.9135-4.3926 11.146-4.3926 3.6908 0 4.5039 1.4393 4.5039 5.7188v1.5879c-0.81291-0.0654-1.4951-0.0644-2.252-0.0644-12.268 0-18.52 4.2052-18.52 13.25 0 7.6806 4.6639 12.053 13.27 12.053 3.1489 0 5.8582-0.75605 7.7363-2.1016 0.75685-0.5326 1.5791-1.3087 2.3359-2.0469 0.9811 1.9715 3.0918 3.6908 5.4277 4.6719l5.3457-6.1758c-2.9433-2.1958-3.6074-3.7665-3.6074-7.8965v-0.67188l0.21484-12.971c0.0748-4.158-0.1482-5.3525-0.66211-6.9316-1.5137-4.2888-5.9716-6.6992-12.438-6.6992zm-38.477 4e-3c-5.1204 0-8.952 1.6525-12.129 5.2031-3.3825 3.7656-4.8125 8.3447-4.8125 15.287 0 12.119 7.1576 19.959 18.221 19.959 5.4287 0 10.101-1.7292 14.549-5.3359l-3.9258-6.0449c-3.0928 2.5602-6.3151 3.8398-9.791 3.8398-5.1858 0-8.1289-3.3816-8.1289-9.3242v-0.32813h22.303v-2.3164c0-8.045-1.5787-13.259-5.1387-16.885-2.4761-2.5509-6.6988-4.0547-11.146-4.0547zm139.14 0c-5.1204 0-8.9614 1.6525-12.129 5.2031-3.3825 3.7656-4.8125 8.3447-4.8125 15.287 0 12.119 7.1576 19.959 18.221 19.959 5.4288 0 10.101-1.7292 14.539-5.3359l-3.916-6.0449c-3.0928 2.5602-6.3342 3.8398-9.8008 3.8398-5.1952 0-8.1289-3.3816-8.1289-9.3242v-0.32813h22.295v-2.3164c0-8.045-1.5794-13.259-5.1113-16.885-2.4948-2.5509-6.7086-4.0547-11.156-4.0547zm-138.98 7.3711c2.0369 0 3.4572 0.75779 4.457 2.2715 0.89701 1.4296 1.1953 2.9338 1.1953 5.793v0.44727h-11.67v-0.13867c0-5.3446 2.1679-8.373 6.0176-8.373zm139.13 0c2.0276 0 3.4662 0.75779 4.4473 2.2715 0.897 1.4296 1.207 2.9338 1.207 5.793v0.44727h-11.682v-0.13867c0-5.3446 2.187-8.373 6.0274-8.373zm-98.244 15.143h0.44726l-0.1582 8.2871c-1.5044 1.6445-3.3817 2.6367-5.2598 2.6367-2.5696 0-4.4668-2.0382-4.4668-5.0469 0-4.5878 2.4203-5.877 9.4375-5.877zm-64.91 31.539-10.336 2.4102c0.4485 1.5884 0.75781 5.1969 0.75781 8.8223v44.588h10.24v-27.639c2.2519-2.0463 5.5048-3.541 7.9902-3.541 2.8592 0 3.9043 1.4288 3.9043 5.2598v25.92h9.877v-26.957c0-3.7095-0.22404-4.9702-0.99023-7.166-1.2147-3.3918-5.1121-5.5039-10.018-5.5039-3.9151 0-8.2865 1.6634-10.912 4.1582 0-0.45785 0.14844-2.0466 0.14844-3.252v-7.6621c0-3.7095-0.2323-7.3165-0.66211-9.4375zm196.04 0.0801-10.314 2.3379c0.37376 3.4759 0.51367 6.5672 0.51367 11.604v28.779c0 5.4942 0.14981 6.6991 0.91601 8.6426 1.2147 3.2516 4.6613 5.2793 8.9688 5.2793 2.1771 0 4.2812-0.37413 6.0098-1.0469l-1.7285-6.0255c-0.52325 0.14016-0.73995 0.14063-1.123 0.14062-0.82226 0-1.6618-0.38346-2.0449-1.0469-0.58866-1.0558-0.66406-1.9631-0.66406-8.5879v-30.059c0-5.4007-0.15945-7.9059-0.5332-10.018zm-225.71 2.2617c-8.4375 0-15.968 4.523-20.051 12.129-2.392 4.513-3.5312 9.7176-3.5312 16.268 0 7.69 2.1106 14.017 6.334 18.754 4.2888 4.9055 9.8675 7.2226 17.1 7.2226 5.9613 0 10.39-1.5043 14.539-4.8867l-4.8223-6.6172c-3.0835 2.4761-5.8868 3.373-8.9609 3.373-4.5317 0-7.9879-2.0273-10.1-5.877-1.5884-2.8592-2.1777-6.8578-2.1777-14.006 0-6.0922 0.90599-10.474 2.9336-13.482 1.8781-2.7938 5.3361-4.5137 8.8867-4.5137 2.934 0 5.719 0.98073 8.3633 2.9336l4.736-7.14c-2.8685-2.4854-8.0646-4.1484-13.26-4.1484zm106.37 13.93-8.9512 2.5586c0.897 2.5695 1.3262 5.7279 1.3262 9.0449v27.947h10.102v-27.264c2.3546-2.093 4.9802-3.4668 7.0078-3.4668 2.635 0 3.3906 1.279 3.3906 5.6426v25.088h9.9512v-28.17c0-2.4107-0.23302-4.0645-0.76562-5.4941-1.196-3.3264-4.9616-5.5781-9.2598-5.5781-2.2612 0-4.8962 0.59803-6.9238 1.6445-1.6632 0.9157-2.9425 1.83-4.4375 2.8672 0-1.5791-0.5331-3.2412-1.4394-4.8203zm39.328 0-8.9785 2.5586c0.897 2.5695 1.3438 5.7279 1.3438 9.0449v27.947h10.102v-27.264c2.3266-2.093 4.9704-3.4668 6.998-3.4668 2.635 0 3.3926 1.279 3.3926 5.6426v25.088h9.9414v-28.17c0-2.4107-0.20653-4.0645-0.75781-5.4941-1.196-3.3264-4.9694-5.5781-9.2676-5.5781-2.2332 0-4.8775 0.59803-6.9238 1.6445-1.6445 0.9157-2.9351 1.83-4.4394 2.8672 0-1.5791-0.5225-3.2412-1.4102-4.8203zm-69.129 0.15039c-3.5506 0-6.7833 0.67175-10.549 2.2695-2.7097 1.1213-4.2232 1.861-6.2695 3.1504l4.3086 7.2402c4.13-2.7938 7.8944-4.3809 11.137-4.3809 3.7001 0 4.5312 1.4288 4.5312 5.7363v1.5703c-0.8316-0.0748-1.5123-0.0762-2.2598-0.0762-12.278 0-18.539 4.2247-18.539 13.27 0 7.6713 4.6728 12.043 13.26 12.043 3.1676 0 5.8762-0.73736 7.7637-2.1016 0.74751-0.53259 1.5791-1.2807 2.3359-2.0469 0.97176 1.9622 3.084 3.7006 5.4199 4.6816l5.3535-6.1855c-2.9433-2.1864-3.6152-3.7556-3.6152-7.9043v-0.67383l0.21484-12.969c0.0934-4.1206-0.14904-5.3443-0.68164-6.9141-1.495-4.3075-5.9536-6.709-12.41-6.709zm115.87 6e-3c-5.1204 0-8.9614 1.6431-12.129 5.2031-3.3825 3.7562-4.8125 8.3544-4.8125 15.297 0 12.11 7.1483 19.949 18.221 19.949 5.4288 0 10.091-1.7296 14.539-5.3457l-3.9238-6.0352c-3.0835 2.5602-6.3167 3.8496-9.7832 3.8496-5.1952 0-8.1387-3.4007-8.1387-9.334v-0.3086h22.295v-2.3359c0-8.045-1.5798-13.251-5.1211-16.857-2.4761-2.5696-6.7082-4.082-11.146-4.082zm0.14063 7.3711c2.0463 0 3.474 0.76713 4.4551 2.2715 0.90635 1.4296 1.1973 2.9435 1.1973 5.8027v0.44726h-11.67v-0.13867c0-5.354 2.1866-8.3828 6.0176-8.3828zm-113.46 15.133h0.46679l-0.1582 8.2871c-1.5044 1.6725-3.384 2.6445-5.2715 2.6445-2.5695 0-4.4277-2.0269-4.4277-5.0449 0-4.5785 2.3921-5.8867 9.3906-5.8867z" fill="#fff" fill-rule="evenodd"/>
 </g>
</svg>
