<svg version="1.0" viewBox="0 0 149.93 56.4" xmlns="http://www.w3.org/2000/svg">
 <g transform="translate(-66.372 -177.36)">
  <path d="m0.22078 141.26z" fill="#fff"/>
  <path d="m66.372 233.63h56.24v-56.266h-56.24z" fill="#244aa5"/>
  <path d="m77.196 218.65c-0.56594-0.46501-1.521-0.77502-2.5114-0.77502-1.5563 0-2.9712 0.83702-3.7494 2.2631-0.45982 0.83702-0.67206 1.829-0.67206 3.0381 0 1.457 0.42446 2.6351 1.2026 3.5341 0.81355 0.93003 1.8393 1.364 3.1834 1.364 1.1319 0 1.9808-0.31001 2.759-0.93003l-0.91966-1.24c-0.56593 0.46501-1.0965 0.62001-1.6978 0.62001-0.81353 0-1.4856-0.372-1.8747-1.085-0.28298-0.52702-0.42446-1.302-0.42446-2.6351 0-1.147 0.17686-1.953 0.56593-2.5421 0.35372-0.49601 0.9904-0.83702 1.6625-0.83702 0.56594 0 1.0611 0.18601 1.5563 0.55801" fill="#fff" fill-rule="evenodd"/>
  <path d="m78.328 217.88c0.07075 0.31001 0.14149 0.96103 0.14149 1.674v8.3392h1.91v-5.1771c0.42446-0.372 1.0258-0.68202 1.4856-0.68202 0.56594 0 0.74279 0.27901 0.74279 0.99202v4.8671h1.8393v-5.0531c0-0.68202-0.03538-0.93003-0.17686-1.333-0.21223-0.65101-0.95502-1.054-1.8747-1.054-0.74279 0-1.5563 0.34101-2.0515 0.80603 0-0.093 0.03537-0.40301 0.03537-0.62002v-1.426c0-0.71301-0.03537-1.395-0.14149-1.798" fill="#fff" fill-rule="evenodd"/>
  <path d="m89.611 224.73-0.03537 1.55c-0.28297 0.31-0.63668 0.49601-0.9904 0.49601-0.45982 0-0.81353-0.372-0.81353-0.93002 0-0.86802 0.45983-1.116 1.7686-1.116zm-3.714-3.1931 0.81354 1.333c0.77817-0.49601 1.4856-0.80602 2.0869-0.80602 0.67206 0 0.84892 0.27902 0.84892 1.085v0.27901h-0.42446c-2.2991 0-3.4664 0.77502-3.4664 2.4801 0 1.426 0.84891 2.2631 2.476 2.2631 0.6013 0 1.0965-0.155 1.4502-0.40301 0.14149-0.093 0.28298-0.248 0.42446-0.37201 0.21223 0.37201 0.60132 0.68202 1.0258 0.86802l1.0258-1.147c-0.56594-0.43401-0.70742-0.71301-0.70742-1.488v-0.124l0.07074-2.4491c0-0.77502-0.03537-0.99203-0.14149-1.302-0.28296-0.80603-1.0965-1.24-2.3345-1.24-0.67206 0-1.2734 0.124-1.9808 0.434-0.4952 0.18601-0.77817 0.34101-1.1672 0.58903" fill="#fff" fill-rule="evenodd"/>
  <path d="m92.972 220.95c0.14148 0.49602 0.24759 1.085 0.24759 1.705v5.2391h1.8747v-5.1151c0.45982-0.40301 0.95502-0.65102 1.3441-0.65102 0.45983 0 0.60132 0.24801 0.60132 1.054v4.7121h1.8747v-5.2701c0-0.46501-0.03538-0.77502-0.14149-1.054-0.21222-0.62002-0.91964-1.023-1.7332-1.023-0.42445 0-0.91966 0.093-1.3087 0.31002-0.28298 0.155-0.53057 0.34101-0.81355 0.52701 0-0.279-0.10611-0.58902-0.28296-0.89902" fill="#fff" fill-rule="evenodd"/>
  <path d="m100.33 220.95c0.17686 0.49602 0.24761 1.085 0.24761 1.705v5.2391h1.91v-5.1151c0.42446-0.40301 0.91965-0.65102 1.3087-0.65102 0.4952 0 0.63669 0.24801 0.63669 1.054v4.7121h1.8747v-5.2701c0-0.46501-0.0707-0.77502-0.17685-1.054-0.21223-0.62002-0.91966-1.023-1.7332-1.023-0.42445 0-0.91965 0.093-1.2734 0.31002-0.31834 0.155-0.56594 0.34101-0.84891 0.52701 0-0.279-0.10611-0.58902-0.2476-0.89902" fill="#fff" fill-rule="evenodd"/>
  <path d="m109.67 223.49v-0.031c0-0.99204 0.42446-1.55 1.1319-1.55 0.3891 0 0.67206 0.124 0.84891 0.40301 0.17687 0.27901 0.21223 0.55801 0.21223 1.085v0.093zm3.3249 2.4801c-0.56595 0.46501-1.1672 0.71302-1.8039 0.71302-0.9904 0-1.5563-0.62001-1.5563-1.767v-0.031h4.2092v-0.465c0-1.488-0.31834-2.4801-0.9904-3.1311-0.45982-0.49601-1.238-0.77501-2.0869-0.77501-0.95502 0-1.6624 0.31-2.2638 0.96102-0.63668 0.71302-0.88428 1.581-0.88428 2.8831 0 2.2631 1.3441 3.7511 3.3956 3.7511 1.0258 0 1.91-0.341 2.7236-1.023" fill="#fff" fill-rule="evenodd"/>
  <path d="m117.02 217.44-1.9454 0.43401c0.0707 0.65101 0.10612 1.24 0.10612 2.17v5.3942c0 1.023 0.0354 1.271 0.17686 1.643 0.21222 0.58902 0.84891 0.99203 1.6624 0.99203 0.42446 0 0.81353-0.093 1.1319-0.21701l-0.31835-1.116c-0.10611 0.031-0.14147 0.031-0.21222 0.031-0.14148 0-0.31834-0.093-0.38908-0.217-0.10612-0.18601-0.10612-0.37201-0.10612-1.612v-5.6111c0-1.023-0.0354-1.488-0.10611-1.891" fill="#fff" fill-rule="evenodd"/>
  <path d="m69.91 204.86 2.3345 9.9202h2.2638l0.81353-4.0301c0.28298-1.457 0.45983-2.8211 0.45983-2.8211 0.03537 0.24801 0.17685 1.519 0.45983 2.8521l0.88427 3.9991h2.1576l2.3699-9.9202h-2.0869l-0.77817 3.7201c-0.21223 0.96103-0.53057 2.9761-0.53057 3.2861 0 0-0.2476-1.705-0.45983-2.6041l-0.88428-4.4021h-2.1576l-0.88428 3.9681c-0.28298 1.364-0.45983 2.7591-0.4952 3.1311 0 0-0.14148-1.395-0.53057-3.2241l-0.84891-3.8751" fill="#fff" fill-rule="evenodd"/>
  <path d="m83.634 210.28v-0.031c0-1.023 0.42446-1.581 1.1319-1.581 0.38908 0 0.63668 0.155 0.81354 0.43401 0.17686 0.27901 0.2476 0.55801 0.2476 1.085v0.093zm3.3249 2.4491c-0.56594 0.49601-1.1672 0.74403-1.8393 0.74403-0.95502 0-1.521-0.65103-1.521-1.767v-0.062h4.1738v-0.43401c0-1.519-0.28297-2.4801-0.95502-3.1621-0.45983-0.46502-1.238-0.77502-2.0869-0.77502-0.95502 0-1.6624 0.34101-2.2638 0.99202-0.63669 0.71303-0.91966 1.581-0.91966 2.8521 0 2.294 1.3441 3.7511 3.431 3.7511 1.0258 0 1.8747-0.31001 2.7236-0.99202" fill="#fff" fill-rule="evenodd"/>
  <path d="m92.512 211.52-0.03537 1.55c-0.28296 0.31001-0.63668 0.49601-0.9904 0.49601-0.45982 0-0.81353-0.372-0.81353-0.96102 0-0.83702 0.45983-1.085 1.7686-1.085zm-3.714-3.2241 0.81355 1.364c0.77817-0.527 1.4856-0.80601 2.0869-0.80601 0.67206 0 0.84891 0.248 0.84891 1.054v0.31001c-0.17685-0.031-0.28296-0.031-0.42446-0.031-2.2991 0-3.4664 0.80602-3.4664 2.5111 0 1.426 0.84891 2.232 2.476 2.232 0.60131 0 1.0965-0.12401 1.4502-0.37201 0.14149-0.093 0.28297-0.24801 0.42446-0.40301 0.21222 0.372 0.60132 0.71302 1.0258 0.89902l1.0258-1.178c-0.56594-0.40301-0.70742-0.68202-0.70742-1.488v-0.124l0.03536-2.4181c0.03538-0.77502 0-0.99202-0.10611-1.302-0.28296-0.80601-1.1319-1.271-2.3345-1.271-0.67206 0-1.2734 0.155-1.9808 0.43401-0.4952 0.217-0.77817 0.372-1.1673 0.58901" fill="#fff" fill-rule="evenodd"/>
  <path d="m99.728 207.46h-1.6978c0-0.74401 0.03537-1.55 0.10611-2.201l-1.91 0.46501c-0.07074 0.55801-0.07074 1.023-0.07074 1.736h-0.7428v1.271h0.7428v3.9371c0 0.68202 0 0.80603 0.10611 1.116 0.24759 0.65102 0.9904 1.054 1.9454 1.054 0.49519 0 0.99039-0.093 1.5563-0.31002l-0.2476-1.147c-0.3537 0.093-0.49519 0.15501-0.67205 0.15501-0.67206 0-0.81354-0.24801-0.81354-1.178v-3.6271h1.2026" fill="#fff" fill-rule="evenodd"/>
  <path d="m100.54 204.67c0.0707 0.27901 0.14149 0.96103 0.14149 1.643v8.3702h1.91v-5.1771c0.42446-0.40301 1.0258-0.68202 1.4856-0.68202 0.53057 0 0.7428 0.27901 0.7428 0.99203v4.8671h1.8393v-5.0531c0-0.71302-0.0354-0.93002-0.17686-1.364-0.21222-0.62001-0.95502-1.023-1.8747-1.023-0.7428 0-1.5563 0.31002-2.0515 0.77503 0-0.062 0.0354-0.37201 0.0354-0.58902v-1.457c0-0.68202-0.0354-1.364-0.14148-1.767" fill="#fff" fill-rule="evenodd"/>
  <path d="m109.7 210.28v-0.031c0-1.023 0.42446-1.581 1.1672-1.581 0.35372 0 0.63669 0.155 0.81355 0.43401 0.17685 0.27901 0.21223 0.55801 0.21223 1.085v0.093zm3.3603 2.4491c-0.6013 0.49601-1.2026 0.74403-1.8393 0.74403-0.9904 0-1.521-0.65103-1.521-1.767v-0.062h4.1738v-0.43401c0-1.519-0.28297-2.4801-0.95503-3.1621-0.45981-0.46502-1.2734-0.77502-2.0869-0.77502-0.95502 0-1.6978 0.34101-2.2991 0.99202-0.63669 0.71303-0.88428 1.581-0.88428 2.8521 0 2.294 1.3441 3.7511 3.3956 3.7511 1.0258 0 1.91-0.31001 2.7236-0.99202" fill="#fff" fill-rule="evenodd"/>
  <path d="m114.9 207.74c0.17685 0.403 0.28297 1.147 0.28297 2.108v4.8361h1.8747v-5.1151c0.35371-0.40302 0.7428-0.62002 1.1672-0.62002 0.21223 0 0.38909 0.062 0.56595 0.155l0.49519-1.674c-0.28296-0.124-0.38908-0.155-0.67205-0.155-0.21223 0-0.4952 0.031-0.63669 0.12401-0.35371 0.155-0.81353 0.55801-1.0611 0.89901-0.0354-0.40301-0.14149-0.71302-0.31834-1.023" fill="#fff" fill-rule="evenodd"/>
  <path d="m69.98 191.87v1.643h2.4052v8.1842h2.0162v-8.1842h2.3345l0.31834-1.643" fill="#fff" fill-rule="evenodd"/>
  <path d="m77.903 191.68c0.07074 0.279 0.14149 0.96102 0.14149 1.643v8.3702h1.91v-5.2081c0.42445-0.37201 1.0258-0.65102 1.4856-0.65102 0.56594 0 0.7428 0.27901 0.7428 0.99203v4.8671h1.8393v-5.0841c0-0.68202-0.03537-0.93002-0.17685-1.333-0.21223-0.62001-0.95502-1.023-1.8747-1.023-0.74279 0-1.5563 0.31001-2.0515 0.77502 0-0.093 0.03538-0.372 0.03538-0.62001v-1.426c0-0.68202-0.03538-1.364-0.14149-1.767" fill="#fff" fill-rule="evenodd"/>
  <path d="m87.383 197.26v-0.031c0-0.99202 0.38908-1.55 1.1319-1.55 0.35372 0 0.63668 0.124 0.81355 0.43401 0.17685 0.248 0.21222 0.52701 0.21222 1.085v0.062zm3.3249 2.4801c-0.60132 0.49601-1.2026 0.71302-1.8393 0.71302-0.9904 0-1.521-0.62002-1.521-1.736v-0.062h4.1738v-0.43402c0-1.519-0.28296-2.4801-0.95502-3.1621-0.45983-0.49601-1.2734-0.77502-2.0869-0.77502-0.95502 0-1.6978 0.31001-2.2991 0.99203-0.60132 0.71302-0.88428 1.55-0.88428 2.8521 0 2.294 1.3441 3.7511 3.431 3.7511 0.9904 0 1.8747-0.341 2.7236-0.99202" fill="#fff" fill-rule="evenodd"/>
  <text x="124.41843" y="181.32959" fill="#244aa5" font-family="Arial" font-size="5px" style="line-height:0%" xml:space="preserve"><tspan x="124.41843" y="181.32959">®</tspan></text>
  <rect x="131.19" y="177.7" width="5.6821" height="56.063" ry="0" fill="#244aa5"/>
  <rect x="210.62" y="177.7" width="5.6821" height="56.063" ry="0" fill="#244aa5"/>
  <path transform="scale(1.1474 .8715)" d="m127.2 226.47h7.1507v8.0978h7.8137v-8.0978h7.1823v23.141h-7.1823v-9.3607h-7.8137v9.3607h-7.1507z" fill="#244aa5"/>
  <path transform="scale(1.1858 .84328)" d="m148.11 234.1h10.917c2.152 2e-5 3.8904 0.29201 5.2151 0.87595 1.3247 0.58399 2.4196 1.4221 3.2848 2.5143 0.86511 1.0922 1.4923 2.3629 1.8817 3.812 0.38928 1.4491 0.58394 2.9847 0.58396 4.6068-2e-5 2.5413-0.2893 4.5122-0.86783 5.9126-0.57859 1.4004-1.3815 2.5738-2.4089 3.52-1.0274 0.94624-2.1304 1.5762-3.3091 1.8898-1.6113 0.43257-3.0712 0.64885-4.3797 0.64885h-10.917zm7.3482 5.3855v12.993h1.8006c1.5356 1e-5 2.6278-0.17031 3.2767-0.51097 0.64883-0.34064 1.1571-0.93542 1.5248-1.7843 0.36766-0.8489 0.5515-2.225 0.55152-4.1283-2e-5 -2.5197-0.41096-4.2446-1.2328-5.1746-0.82189-0.93-2.1845-1.395-4.0878-1.395z" fill="#244aa5"/>
 </g>
</svg>
