<?xml version="1.0" encoding="UTF-8"?>
<!-- Created with Inkscape (http://www.inkscape.org/) -->
<svg width="3484" height="946.47" version="1.1" viewBox="0 0 3484 946.47" xmlns="http://www.w3.org/2000/svg" xmlns:cc="http://creativecommons.org/ns#" xmlns:dc="http://purl.org/dc/elements/1.1/" xmlns:rdf="http://www.w3.org/1999/02/22-rdf-syntax-ns#">
 <metadata>
  <rdf:RDF>
   <cc:Work rdf:about="">
    <dc:format>image/svg+xml</dc:format>
    <dc:type rdf:resource="http://purl.org/dc/dcmitype/StillImage"/>
    <dc:title/>
   </cc:Work>
  </rdf:RDF>
 </metadata>
 <g transform="translate(-89.466 -105.16)">
  <path d="m1139 1050.7c-0.825-0.5332-3.3-0.9784-5.5-0.9893-2.2-0.011-9.8642-0.8828-17.032-1.9373-35.237-5.1844-67.254-15.552-97.271-31.497-7.4997-3.9839-10.197-7.1363-10.197-11.917 0-1.4165 4.7319-9.7212 11.282-19.8 37.2-57.243 37.107-57.108 40.542-58.551 4.0894-1.7184 5.8227-1.2156 14.677 4.2572 33.05 20.429 74.767 27.609 115.5 19.878 53.831-10.217 90.266-45.044 102.57-98.042 1.116-4.8071 1.7617-14.053 2.1282-30.472 0.504-22.578 0.437-23.745-1.589-27.717-4.2019-8.2364-9.1776-8.417-25.109-0.9112-30.172 14.215-57.748 22.102-92.086 26.336-18.326 2.2599-57.531 2.2556-75.914-0.01-65.71-8.0932-119.67-33.47-160-75.253-36.788-38.108-58.542-85.236-66.646-144.38-2.1493-15.686-2.4275-55.462-0.5001-71.5 7.344-61.108 30.658-111.64 69.525-150.7 39.851-40.046 93.017-64.472 157.66-72.431 18.484-2.2761 57.648-2.2831 75.929-0.014 52.105 6.4689 96.078 23.455 133.5 51.568 12.022 9.0327 32.611 29.307 41.712 41.076 26.462 34.217 42.429 72.63 50.088 120.5l2.2399 14v138c0 141.47-0.1889 149.93-4.0721 182.38-6.6409 55.492-24.443 94.798-58.431 129.01-26.877 27.057-62.249 47.336-102.19 58.588-14.875 4.1902-37.014 8.3409-49.045 9.1949-4.8571 0.3447-9.0668 1.0083-9.355 1.4746-0.7322 1.1847-40.558 1.0417-42.406-0.1523zm21-337.47c22.286-3.0359 40.818-9.7805 58.027-21.117 39.968-26.331 62.973-73.426 62.973-128.91 0-76.108-42.81-132.91-111.31-147.69-13.802-2.9775-45.447-3.2309-59.152-0.4737-58.409 11.751-97.906 51.449-110.6 111.16-7.6806 36.138-3.0144 79.416 11.941 110.75 9.6316 20.18 28.124 42.087 45.127 53.461 29.578 19.785 66.008 27.857 102.99 22.818zm-605.5 107.8c-41.368-2.0203-79.501-11.484-114-28.292-47.116-22.955-82.624-57.198-106.84-103.04-25.9-49.018-35.267-111.65-26.101-174.5 6.275-43.028 25.042-86.763 51.278-119.5 41.106-51.29 102.82-82.842 178.17-91.092 16.594-1.8171 54.404-1.5497 71.5 0.5057 101.48 12.2 175.97 66.89 210.14 154.28 19.002 48.597 23.422 110.35 11.828 165.26-4.6697 22.117-10.481 38.988-20.508 59.543-35.345 72.45-103.29 120.32-189.44 133.46-20.502 3.1275-45.171 4.386-66.02 3.3677zm47-109.23c19.116-4.1874 33.382-9.9741 47.742-19.365 38.923-25.457 61.045-67.928 63.407-121.74 2.2845-52.037-16.98-99.191-52.148-127.64-26.525-21.46-57.799-31.35-95-30.04-30.095 1.059-52.856 8.061-75.754 23.305-19.116 12.726-34.189 30.222-45.145 52.402-10.382 21.018-15.295 41.371-16.288 67.478-2.9406 77.312 37.898 137.28 104.82 153.91 15.383 3.8239 22.542 4.5196 41.865 4.0683 12.401-0.2897 20.122-0.9832 26.5-2.3802zm1055 101.33c-45.442-5.16-86.276-21.158-122.51-47.996-13.512-10.009-36.543-33.155-45.21-45.434-34.7-49.165-51.999-112.85-47.882-176.27 5.6821-87.53 41.359-151.91 108.59-195.97 63.984-41.925 145.94-55.24 219.5-35.665 40.307 10.726 78.581 33.35 110.55 65.345 18.563 18.58 31.145 36.408 43.091 61.057 7.9736 16.453 12.535 29.064 17.36 48 7.3052 28.669 10.037 52.5 9.9143 86.5-0.096 26.742-0.7474 33.409-3.4644 35.463-1.6994 1.2853-26.317 1.4772-193.08 1.5049-163.85 0.027-191.3 0.2345-192.31 1.4517-2.0829 2.5097 5.5158 22.11 14.348 37.01 20.759 35.02 53.665 57.928 95.122 66.218 12.516 2.503 42.32 2.5117 54.964 0.016 19.465-3.842 34.073-9.4979 49.707-19.246 5.6613-3.5297 11.284-6.4179 12.496-6.418 5.3999-8e-4 7.2419 2.3036 31.491 39.396 26.61 40.703 27.007 41.563 21.783 47.132-3.3379 3.5583-29.538 16.258-44.977 21.802-15.839 5.6872-41.442 12.03-59.5 14.741-18.722 2.8102-60.908 3.5276-79.994 1.3604zm181.15-288.98c0.8675-2.2606-2.3481-17.387-6.1882-29.11-7.3724-22.507-18.087-40.068-34.412-56.401-19.161-19.171-40.428-30.431-69.183-36.631-12.106-2.6102-47.754-2.5747-59.875 0.06-28.28 6.1464-49.078 16.94-68.078 35.331-16.08 15.564-28.159 34.83-35.309 56.315-3.9318 11.814-7.2661 27.845-6.3098 30.337 0.5847 1.5237 11.354 1.651 139.7 1.651 124.73 0 139.12-0.1599 139.66-1.5513zm1126.8 289.9c-1.65-0.1923-7.275-0.8288-12.5-1.4143-67.08-7.5176-132.21-45.794-167.5-98.436-20.954-31.256-35.045-68.232-41.539-109-2.6913-16.895-3.6967-51.731-2.0347-70.495 5.6609-63.91 28.205-115.26 68.046-155.01 54.217-54.081 133.03-82.357 211.73-75.959 50.55 4.1099 90.633 19.117 130.3 48.785 15.016 11.23 39.534 35.618 49.64 49.376 34.585 47.088 51.136 108.55 48.799 181.23-0.6801 21.144-0.7883 22.012-3.0266 24.25l-2.3213 2.3212h-190.46c-104.76 0-191.18 0.2732-192.05 0.607-2.2577 0.8664-1.9872 3.1571 1.4852 12.575 12.99 35.232 38.492 63.935 70.433 79.274 11.165 5.3618 21.79 8.9279 34.896 11.712 13.575 2.8838 42.577 3.1456 56.104 0.5064 19.52-3.8085 36.736-10.556 51.801-20.301 9.231-5.9716 13.328-6.6127 17.485-2.7364 1.6886 1.5745 13.452 18.808 26.142 38.296 24.953 38.324 25.561 39.632 21.068 45.344-1.1254 1.4306-8.25 5.6138-16.25 9.5411-31.956 15.688-63.673 24.726-100.75 28.709-12.051 1.2949-50.848 1.8312-59.5 0.8225zm172.2-290.01c1.04-2.7101-1.6317-16.024-5.7175-28.493-14.248-43.48-44.473-74.773-85.322-88.337-16.187-5.3746-23.544-6.601-43.16-7.1948-15.442-0.4674-19.758-0.2444-30.371 1.5689-46.469 7.9396-82.202 34.828-101.63 76.476-7.403 15.868-14.782 43.386-12.402 46.253 0.971 1.17 22.78 1.3866 139.56 1.3866 128.02 0 138.46-0.1245 139.05-1.6595zm-935.4 277.7c-1.7576-1.0716-4.0076-3.1876-5-4.7022-1.7238-2.6308-1.8043-11.651-1.8043-202.3v-199.54l24.5-0.594c26.024-0.631 28.434-1.0399 37.525-6.3676 5.9645-3.4955 12.198-10.734 15.811-18.359l3.1645-6.6797v-125l-3.185-6.7233c-6.2162-13.122-17.695-21.828-31.39-23.808-3.5336-0.5108-15.537-0.9377-26.675-0.9487l-20.25-0.02 0.01-43.25c0.01-45.507 0.3286-49.333 4.4815-53.128 5.9936-5.4809 1.8288-5.1223 59.484-5.1223h53.524l3.3505 3c6.6103 5.9188 6.1495-5.0559 6.1495 146.45 0 136.72 0.019 138.07 2 140.05 3.5215 3.5215 4.5504 2.734 13.066-10 8.6365-12.914 29.243-33.491 41.862-41.802 16.085-10.594 33.466-18.234 52.572-23.109 35.435-9.0412 80.062-8.6621 119.36 1.0141 77.656 19.119 132.44 71.488 148.97 142.4 5.8148 24.947 5.5196 16.072 5.9194 178 0.2497 101.14 0.034 150.14-0.6706 152.54-0.5712 1.9478-2.4282 4.8728-4.1265 6.5l-3.088 2.9585h-94.708l-2.6724-2.5c-1.4698-1.375-3.1935-3.4-3.8305-4.5-0.8524-1.472-1.2939-34.082-1.6723-123.5l-0.5141-121.5-2.3143-10.97c-13.068-61.937-54.238-105.15-108.7-114.1-14.508-2.3827-38.356-1.4923-51.957 1.9399-24.977 6.3028-42.913 16.844-61.187 35.96-23.744 24.838-38.584 58.667-46.002 104.86-1.4363 8.9446-1.7308 24.548-2.233 118.3-0.6384 119.2-0.109 110.24-6.7733 114.64-2.6409 1.7412-5.9365 1.8496-56.305 1.8523-51.272 0-53.633-0.078-56.696-1.9456zm1088.9 0.6465c-1.2423-0.6985-3.0423-2.3771-4-3.7302-1.6373-2.3132-1.7244-10.262-1.4566-132.96 0.2385-109.26 0.5339-132.69 1.8154-143.96 9.3662-82.353 50.538-143.2 122.41-180.9 21.557-11.309 45.168-19.592 69.991-24.551 18.315-3.6594 30.225-4.5867 58.856-4.5825 23.801 0 25.878 0.1462 28.894 1.9853 1.7875 1.0898 3.25 2.406 3.25 2.9248s0.7875 1.7308 1.75 2.6933c1.6133 1.6133 1.75 5.1658 1.75 45.482v43.732l-4.1183 4.037c-4.8398 4.7441-4.4559 4.649-24.382 6.0442-42.424 2.9707-76.21 17.03-103.22 42.952-12.443 11.943-21.03 23.374-28.658 38.145-6.9555 13.471-11.292 25.326-14.195 38.801-1.8201 8.4504-2.1987 14.977-2.941 50.699-0.4685 22.55-0.8855 77-0.9266 121-0.046 49.381-0.4528 81.361-1.0627 83.557-0.5435 1.9563-2.3702 4.8813-4.0594 6.5l-3.0713 2.9431-47.185 0.2302c-36.641 0.1788-47.69-0.054-49.444-1.0397zm-3193.7-0.6438c-1.1-0.4546-3.125-2.1136-4.5-3.6866l-2.5-2.8601v-681.24l8.2647-8.2647h113.34l6.3915 5.9715 0.5 57.942c0.48808 56.561 0.54915 58.008 2.5618 60.702 1.134 1.5181 3.3076 3.6881 4.8303 4.8221 2.7199 2.0255 3.7643 2.0617 59.438 2.0617 52.495 0 56.861 0.13 59.266 1.7641 1.4277 0.9702 3.1152 2.9039 3.75 4.297 0.8278 1.817 1.1541 18.222 1.1541 58.036 0 59.725 0.019 59.496-5.1647 62.186-1.7311 0.8983-17 1.2772-59.013 1.4646-55.483 0.2474-56.736 0.2962-59.438 2.3145-1.5184 1.134-3.6885 3.3045-4.8224 4.8233l-2.0618 2.7614-0.24112 210.18c-0.18744 163.39-0.51348 210.7-1.4646 212.51-2.721 5.1935-2.4265 5.1695-62.495 5.1013-30.69-0.035-56.7-0.4354-57.8-0.89zm1893.3-1.9646-3.2658-2.918v-684.21l7.3665-6.9499h113.43l6.702 6.9009 0.044 54.3c0.024 29.865 0.4316 56.311 0.9059 58.769 0.6176 3.2011 1.8782 5.4006 4.4417 7.75l3.5794 3.2802h56.047c61.471 0 61.375-0.01 64.416 5.8716 1.3667 2.6429 1.5664 10.106 1.5664 58.532 0 39.813-0.3262 56.219-1.1541 58.036-0.6348 1.3931-2.3223 3.3268-3.75 4.297-2.3838 1.6199-7.3122 1.8049-60.328 2.264l-57.732 0.5-3.131 3.132c-2.0039 2.0045-3.4347 4.7043-3.9747 7.5-0.4641 2.4024-0.8634 97.89-0.8873 212.2l-0.044 207.83-2.9231 2.9231-2.9231 2.923h-115.12z" fill="#f0912b"/>
 </g>
</svg>
