<?xml version="1.0" encoding="UTF-8" standalone="no"?>
<!-- Generator: Adobe Illustrator 14.0.0, SVG Export Plug-In . SVG Version: 6.00 Build 43363)  -->

<svg
   xmlns:dc="http://purl.org/dc/elements/1.1/"
   xmlns:cc="http://creativecommons.org/ns#"
   xmlns:rdf="http://www.w3.org/1999/02/22-rdf-syntax-ns#"
   xmlns:svg="http://www.w3.org/2000/svg"
   xmlns="http://www.w3.org/2000/svg"
   xmlns:sodipodi="http://sodipodi.sourceforge.net/DTD/sodipodi-0.dtd"
   xmlns:inkscape="http://www.inkscape.org/namespaces/inkscape"
   version="1.1"
   id="Layer_1"
   x="0px"
   y="0px"
   width="455.21503"
   height="126.967"
   viewBox="0 0 455.21502 126.96701"
   enable-background="new 0 0 458.216 129.922"
   xml:space="preserve"
   inkscape:version="0.91 r13725"
   sodipodi:docname="tvcine1.default.svg"><metadata
     id="metadata15"><rdf:RDF><cc:Work
         rdf:about=""><dc:format>image/svg+xml</dc:format><dc:type
           rdf:resource="http://purl.org/dc/dcmitype/StillImage" /><dc:title></dc:title></cc:Work></rdf:RDF></metadata><defs
     id="defs13" /><sodipodi:namedview
     pagecolor="#ffffff"
     bordercolor="#666666"
     borderopacity="1"
     objecttolerance="10"
     gridtolerance="10"
     guidetolerance="10"
     inkscape:pageopacity="0"
     inkscape:pageshadow="2"
     inkscape:window-width="1920"
     inkscape:window-height="983"
     id="namedview11"
     showgrid="false"
     inkscape:zoom="1.4799088"
     inkscape:cx="199.19388"
     inkscape:cy="69.585691"
     inkscape:window-x="0"
     inkscape:window-y="27"
     inkscape:window-maximized="1"
     inkscape:current-layer="Layer_1"
     fit-margin-top="0"
     fit-margin-left="0"
     fit-margin-right="0"
     fit-margin-bottom="0" /><g
     id="g7"
     transform="translate(-9.8425101e-4,0)"
     style="fill:#000000"><path
       d="m 104.11,42.462 0,77.021 c 0,4.057 -3.429,7.484 -7.486,7.484 l -18.327,0 c -4.058,0 -7.486,-3.428 -7.486,-7.484 l 0,-78.84 C 70.811,29.8 74.869,20.146 82.634,12.102 90.397,4.337 100.052,0.28 111.175,0.28 l 45.051,0 18.329,0 c 4.059,0 7.135,3.077 7.135,7.135 l 0,79.47 c 0,3.428 1.259,6.505 4.058,9.303 2.519,2.519 5.597,3.428 9.304,3.428 l 4.687,0 c 3.708,0 6.857,-1.26 9.305,-3.707 3.428,-3.706 39.736,-52.814 59.322,-78.209 1.54,-2.519 3.428,-4.687 5.597,-6.856 C 281.095,3.708 289.771,0 300.054,0 l 76.041,0 c 3.707,0 6.857,3.076 6.857,6.855 l 0,12.45 c 0,3.709 -3.08,6.857 -6.857,6.857 l -69.605,0 c -3.428,0 -6.506,1.259 -9.024,3.428 -2.517,2.518 -3.706,5.599 -3.706,8.675 l 0,49.67 c 0,3.426 1.259,6.225 3.706,8.672 2.519,2.519 5.597,3.431 9.024,3.431 l 69.537,0 c 3.703,0 6.855,3.076 6.855,6.854 l 0,12.453 c 0,3.706 -3.078,6.856 -6.855,6.856 l -76.043,0 c -9.934,0 -18.607,-3.709 -26.094,-10.844 -7.135,-7.137 -10.842,-15.809 -10.842,-26.094 l 0,-13.99 c -15.809,20.146 -29.172,37.284 -31.69,39.734 -7.486,7.484 -16.439,11.193 -27.005,11.193 l -16.16,0 c -10.563,0 -19.586,-3.709 -27.002,-11.193 -7.486,-7.486 -11.192,-16.439 -11.192,-27.003 l 0,-59.951 -31.97,0 c -3.706,0 -7.136,1.259 -9.934,3.706 -2.795,3.917 -3.985,6.995 -3.985,10.703 l 0,0 z M 7.503,0.279 l 55.544,0 c 4.058,0 7.486,3.429 7.486,7.486 l 0,13.641 c 0,4.058 -3.428,7.485 -7.486,7.485 l -55.544,0 c -4.058,0 -7.486,-3.428 -7.486,-7.485 l 0,-13.641 C -0.263,3.708 3.164,0.279 7.503,0.279 l 0,0 z m 418.541,83.805 0,-43.79 c 0,-3.428 -0.631,-6.506 -3.428,-9.024 -2.801,-2.519 -5.877,-3.708 -9.305,-3.708 l -11.821,0 c -4.055,0 -7.135,-3.078 -7.135,-7.135 l 0,-13.012 c 0,-4.058 3.428,-7.135 7.135,-7.135 l 15.529,0 c 10.563,0 19.588,3.707 27.006,11.192 7.414,7.485 11.191,16.438 11.191,27.003 l 0,45.611 0,35.677 c 0,4.058 -3.705,7.137 -7.484,7.137 l -14.621,0 c -4.059,0 -7.135,-3.428 -7.135,-7.137 l 0,-35.677 0.068,0 0,-0.002 z"
       id="path9"
       inkscape:connector-curvature="0"
       style="fill:#000000" /></g></svg>