<?xml version="1.0" encoding="UTF-8" standalone="no"?>
<!-- Generator: Adobe Illustrator 14.0.0, SVG Export Plug-In . SVG Version: 6.00 Build 43363)  -->

<svg
   xmlns:dc="http://purl.org/dc/elements/1.1/"
   xmlns:cc="http://creativecommons.org/ns#"
   xmlns:rdf="http://www.w3.org/1999/02/22-rdf-syntax-ns#"
   xmlns:svg="http://www.w3.org/2000/svg"
   xmlns="http://www.w3.org/2000/svg"
   xmlns:sodipodi="http://sodipodi.sourceforge.net/DTD/sodipodi-0.dtd"
   xmlns:inkscape="http://www.inkscape.org/namespaces/inkscape"
   version="1.1"
   id="Layer_1"
   x="0px"
   y="0px"
   width="684.00806"
   height="126.967"
   viewBox="0 0 684.00804 126.967"
   enable-background="new 0 0 458.216 129.922"
   xml:space="preserve"
   inkscape:version="0.91 r13725"
   sodipodi:docname="tvcine2hd.light.svg"><metadata
     id="metadata15"><rdf:RDF><cc:Work
         rdf:about=""><dc:format>image/svg+xml</dc:format><dc:type
           rdf:resource="http://purl.org/dc/dcmitype/StillImage" /><dc:title></dc:title></cc:Work></rdf:RDF></metadata><defs
     id="defs13" /><sodipodi:namedview
     pagecolor="#ffffff"
     bordercolor="#666666"
     borderopacity="1"
     objecttolerance="10"
     gridtolerance="10"
     guidetolerance="10"
     inkscape:pageopacity="0"
     inkscape:pageshadow="2"
     inkscape:window-width="1920"
     inkscape:window-height="983"
     id="namedview11"
     showgrid="false"
     inkscape:zoom="1.2789818"
     inkscape:cx="348.31213"
     inkscape:cy="135.19698"
     inkscape:window-x="0"
     inkscape:window-y="27"
     inkscape:window-maximized="1"
     inkscape:current-layer="Layer_1"
     fit-margin-top="0"
     fit-margin-left="0"
     fit-margin-right="0"
     fit-margin-bottom="0"
     showguides="true"
     inkscape:guide-bbox="true"><inkscape:grid
       type="xygrid"
       id="grid4153"
       originx="1.5258789e-05"
       originy="-2.8686523e-06" /></sodipodi:namedview><g
     id="g4155"
     transform="translate(1.525879e-5,1.8543317e-6)"
     style="fill:#ffffff"><g
       id="g4200"
       style="fill:#ffffff"><g
         id="g7"
         transform="translate(-9.995098e-4,0)"
         style="fill:#ffffff"><path
           style="fill:#ffffff"
           d="m 104.11,42.462 0,77.021 c 0,4.057 -3.429,7.484 -7.486,7.484 l -18.327,0 c -4.058,0 -7.486,-3.428 -7.486,-7.484 l 0,-78.84 C 70.811,29.8 74.869,20.146 82.634,12.102 90.397,4.337 100.052,0.28 111.175,0.28 l 45.051,0 18.329,0 c 4.059,0 7.135,3.077 7.135,7.135 l 0,79.47 c 0,3.428 1.259,6.505 4.058,9.303 2.519,2.519 5.597,3.428 9.304,3.428 l 4.687,0 c 3.708,0 6.857,-1.26 9.305,-3.707 3.428,-3.706 39.736,-52.814 59.322,-78.209 1.54,-2.519 3.428,-4.687 5.597,-6.856 C 281.095,3.708 289.771,0 300.054,0 l 76.041,0 c 3.707,0 6.857,3.076 6.857,6.855 l 0,12.45 c 0,3.709 -3.08,6.857 -6.857,6.857 l -69.605,0 c -3.428,0 -6.506,1.259 -9.024,3.428 -2.517,2.518 -3.706,5.599 -3.706,8.675 l 0,49.67 c 0,3.426 1.259,6.225 3.706,8.672 2.519,2.519 5.597,3.431 9.024,3.431 l 69.537,0 c 3.703,0 6.855,3.076 6.855,6.854 l 0,12.453 c 0,3.706 -3.078,6.856 -6.855,6.856 l -76.043,0 c -9.934,0 -18.607,-3.709 -26.094,-10.844 -7.135,-7.137 -10.842,-15.809 -10.842,-26.094 l 0,-13.99 c -15.809,20.146 -29.172,37.284 -31.69,39.734 -7.486,7.484 -16.439,11.193 -27.005,11.193 l -16.16,0 c -10.563,0 -19.586,-3.709 -27.002,-11.193 -7.486,-7.486 -11.192,-16.439 -11.192,-27.003 l 0,-59.951 -31.97,0 c -3.706,0 -7.136,1.259 -9.934,3.706 -2.795,3.917 -3.985,6.995 -3.985,10.703 l 0,0 z"
           id="path4177"
           inkscape:connector-curvature="0" /><path
           style="fill:#ffffff"
           d="m 7.503,0.279 55.544,0 c 4.058,0 7.486,3.429 7.486,7.486 l 0,13.641 c 0,4.058 -3.428,7.485 -7.486,7.485 l -55.544,0 c -4.058,0 -7.486,-3.428 -7.486,-7.485 l 0,-13.641 C -0.263,3.708 3.164,0.279 7.503,0.279 l 0,0 z"
           id="path4175"
           inkscape:connector-curvature="0" /></g><g
         transform="matrix(1.0451554,0,0,1.0428906,2.605442e-4,0)"
         id="g11"
         style="fill:#ffffff"><g
           id="g13"
           style="fill:#ffffff"><path
             style="fill:#ffffff"
             d="m 493.771,39.271 c -0.59,8.858 -4.134,16.83 -10.334,23.031 -7.087,7.087 -15.354,10.63 -25.394,10.63 l -46.949,0 c -2.067,0.591 -3.839,1.477 -5.61,2.953 -2.362,2.362 -3.543,5.02 -3.543,8.563 0,2.953 1.181,5.61 3.543,7.973 2.362,2.363 5.314,3.543 8.858,3.543 l 73.523,0 c 3.544,0 6.792,2.953 6.792,6.792 l 0,12.106 c 0,3.543 -2.953,6.791 -6.792,6.791 l -79.725,0 c -9.743,0 -18.603,-3.543 -25.394,-10.63 -6.791,-6.791 -10.334,-15.06 -10.63,-25.394 0.296,-9.744 3.839,-21.556 10.63,-28.347 7.087,-7.087 15.354,-10.63 25.394,-10.63 l 46.653,0 c 2.067,-0.591 3.839,-1.477 5.611,-2.953 2.361,-2.362 3.543,-5.314 3.543,-8.563 -0.591,-2.067 -1.477,-4.134 -3.248,-5.905 -2.362,-2.362 -5.314,-3.544 -8.858,-3.544 l -39.862,0 c -3.543,0 -6.791,-2.952 -6.791,-6.791 l 0,-12.105 C 405.188,3.248 408.14,0 411.979,0 l 46.063,0 c 9.743,0 18.603,3.543 25.394,10.63 7.086,7.086 10.63,15.354 10.63,25.394 l -0.295,3.247 0,0 z"
             id="path15"
             inkscape:connector-curvature="0" /></g></g></g><g
       transform="matrix(0.72782557,0,0,0.72782562,221.40045,-317.58907)"
       style="opacity:1;fill:#ffffff"
       id="g4283"><g
         id="g4279"
         style="fill:#ffffff"><path
           id="path6"
           d="m 549.45066,480.40745 -6.73112,0 c -0.72425,0 -1.31357,0.94717 -1.31357,2.11116 l 0,33.16194 -42.27926,0 0,-33.16319 c 0,-1.16398 -0.58222,-2.11116 -1.30648,-2.11116 l -6.73111,0 c -0.72424,0 -1.31357,0.94716 -1.31357,2.11116 l 0,82.11874 c 0,1.16399 0.58934,2.11116 1.31357,2.11116 l 6.73111,0 c 0.72425,0 1.30648,-0.94716 1.30648,-2.11116 l 0,-35.6612 42.2972,0 0,35.6612 c 0,1.16399 0.58932,2.11116 1.31356,2.11116 l 6.73112,0 c 0.72424,0 1.31356,-0.94716 1.31356,-2.11116 l 0,-82.11749 c 0,-1.16398 -0.58932,-2.11116 -1.31356,-2.11116"
           style="opacity:1;fill:#ffffff;fill-rule:nonzero"
           inkscape:connector-curvature="0" /><path
           id="path8"
           d="m 614.68535,553.46423 -31.55276,0 0,-59.76315 32.60688,0 c 1.8638,0 3.53007,0.31953 4.93947,0.94716 1.28425,0.582 2.33801,1.70038 3.21391,3.43496 0.89571,1.76878 1.59376,4.35925 2.07455,7.69148 0.50053,3.46915 0.75083,8.12518 0.75083,13.83052 l 0,8.39904 c 0,5.8885 -0.30296,10.6356 -0.9023,14.08233 -0.57298,3.29803 -1.36985,5.78577 -2.3709,7.40622 -1.00105,1.63185 -2.17996,2.6704 -3.59594,3.16111 -1.53447,0.53635 -3.26662,0.81023 -5.16331,0.81023 m 19.97623,-50.38245 c -0.652,-5.62604 -1.84406,-10.17921 -3.53665,-13.55742 -1.71891,-3.40076 -4.02402,-5.81997 -6.8559,-7.16657 -2.71339,-1.28959 -6.15779,-1.95143 -10.24767,-1.95143 l -38.56721,0 c -0.67175,0 -1.21839,0.94717 -1.21839,2.11116 l 0,82.13002 c 0,1.164 0.54663,2.09976 1.21839,2.09976 l 38.36983,0 c 4.1491,0 7.65286,-0.75319 10.41251,-2.24809 2.87808,-1.55205 5.19628,-4.14251 6.90196,-7.69147 1.68601,-3.51476 2.87143,-8.09098 3.52349,-13.6376 0.61455,-5.32676 0.93989,-11.91129 0.93989,-19.59199 0,-8.19359 -0.32271,-15.0858 -0.94834,-20.49524"
           style="opacity:1;fill:#ffffff;fill-rule:nonzero"
           inkscape:connector-curvature="0" /></g><rect
         y="436.35324"
         x="447.22461"
         height="174.44701"
         width="9.3684502"
         id="rect4277"
         style="opacity:1;fill:#ffffff;fill-opacity:1;stroke:none;stroke-width:0.1;stroke-miterlimit:4;stroke-dasharray:none;stroke-opacity:1" /></g></g></svg>