<?xml version="1.0" encoding="UTF-8" standalone="no"?>
<!-- Created with Inkscape (http://www.inkscape.org/) -->

<svg
   xmlns:dc="http://purl.org/dc/elements/1.1/"
   xmlns:cc="http://creativecommons.org/ns#"
   xmlns:rdf="http://www.w3.org/1999/02/22-rdf-syntax-ns#"
   xmlns:svg="http://www.w3.org/2000/svg"
   xmlns="http://www.w3.org/2000/svg"
   xmlns:sodipodi="http://sodipodi.sourceforge.net/DTD/sodipodi-0.dtd"
   xmlns:inkscape="http://www.inkscape.org/namespaces/inkscape"
   width="104.21197mm"
   height="33.999027mm"
   viewBox="0 0 369.255 120.46899"
   id="svg4153"
   version="1.1"
   inkscape:version="0.91 r13725"
   sodipodi:docname="tvseries.light.svg">
  <defs
     id="defs4155" />
  <sodipodi:namedview
     id="base"
     pagecolor="#ffffff"
     bordercolor="#666666"
     borderopacity="1.0"
     inkscape:pageopacity="0.0"
     inkscape:pageshadow="2"
     inkscape:zoom="1.1115234"
     inkscape:cx="155.03266"
     inkscape:cy="-4.0528247"
     inkscape:document-units="px"
     inkscape:current-layer="g3"
     showgrid="false"
     inkscape:window-width="1920"
     inkscape:window-height="983"
     inkscape:window-x="0"
     inkscape:window-y="27"
     inkscape:window-maximized="1"
     fit-margin-top="0"
     fit-margin-left="0"
     fit-margin-right="0"
     fit-margin-bottom="0" />
  <metadata
     id="metadata4158">
    <rdf:RDF>
      <cc:Work
         rdf:about="">
        <dc:format>image/svg+xml</dc:format>
        <dc:type
           rdf:resource="http://purl.org/dc/dcmitype/StillImage" />
        <dc:title></dc:title>
      </cc:Work>
    </rdf:RDF>
  </metadata>
  <g
     inkscape:label="Layer 1"
     inkscape:groupmode="layer"
     id="layer1"
     transform="translate(-43.632772,-407.84038)">
    <g
       transform="translate(-32.189228,170.73838)"
       id="g3"
       style="fill:#000000">
      <g
         id="g4759"
         style="fill:#ffffff">
        <path
           id="path5"
           d="m 83.062,237.103 52.694,0 c 3.821,0 7.24,3.218 7.24,7.24 l 0,12.872 c 0,3.821 -3.218,7.24 -7.24,7.24 l -52.694,0 c -3.821,0 -7.039,-3.218 -7.24,-7.24 l 0,-13.073 c 0,-3.821 3.219,-7.039 7.24,-7.039 z m 238.731,47.666 c 2.011,7.039 5.431,10.86 8.246,13.877 0.805,0.805 0.805,1.006 0.402,1.811 -4.827,6.637 -6.235,8.647 -6.235,8.647 -14.883,19.106 -27.754,35.397 -29.967,37.609 -7.039,7.039 -15.688,10.659 -25.542,10.659 l -15.285,0 c -9.855,0 -18.503,-3.62 -25.542,-10.659 -7.04,-7.039 -10.66,-15.688 -10.66,-25.542 l 0,-56.716 -29.564,0 c -3.62,0 -6.838,1.207 -9.452,3.62 -2.615,2.614 -3.821,5.632 -3.821,9.051 l 0,73.006 c 0,3.821 -3.219,7.24 -7.241,7.24 l -17.497,0 c -3.821,0 -7.039,-3.218 -7.039,-7.24 l 0.201,-74.816 c 0,-10.458 3.821,-19.509 11.263,-26.95 7.442,-7.441 16.492,-11.263 26.95,-11.263 l 42.437,0 17.296,0 c 3.62,0 6.838,3.017 6.838,6.838 l 0,75.621 c 0,3.218 1.207,6.235 3.62,8.648 2.414,2.212 5.431,3.419 8.85,3.419 l 4.224,0 c 3.419,0 6.436,-1.207 8.85,-3.419 2.815,-3.017 40.626,-53.498 48.47,-64.157 0.201,-0.201 0.805,-0.201 0.604,0.402 -0.809,3.419 -2.618,11.867 -0.406,20.314 z"
           inkscape:connector-curvature="0"
           style="fill:#ffffff" />
        <path
           id="path7"
           d="m 364.229,306.288 c -10.86,0 -38.816,-5.028 -39.018,-34.392 0.201,-27.353 27.554,-34.392 38.816,-34.794 l 58.324,0 c 3.821,0 7.241,3.218 7.241,7.24 l 0,10.258 c 0,3.821 -3.219,7.24 -7.241,7.24 l -51.285,0 c -3.821,0 -14.279,-0.201 -14.48,8.245 0.201,6.839 8.648,7.442 10.86,7.442 l 6.234,0 31.777,0 c 10.86,0 20.514,4.021 28.156,11.865 7.643,7.643 11.264,16.492 11.464,27.151 -0.2,11.464 -3.821,21.52 -11.464,29.162 -7.843,7.844 -17.296,11.866 -28.357,11.866 l -78.034,0 c -4.022,0 -9.453,-4.625 -7.442,-7.441 2.012,-2.614 8.648,-11.263 11.665,-14.682 3.018,-3.419 5.229,-6.838 9.252,-6.838 l 57.722,0 c 3.821,0 8.849,-0.201 11.062,-2.213 2.212,-2.212 3.017,-6.033 3.017,-8.647 0,-2.816 -2.012,-6.437 -3.62,-8.045 -1.811,-1.609 -4.022,-2.815 -6.838,-3.017 l -31.777,0 -6.034,-0.4 z"
           inkscape:connector-curvature="0"
           style="fill:#ffffff" />
      </g>
    </g>
  </g>
</svg>
