<?xml version="1.0" encoding="UTF-8" standalone="no"?>
<!-- Created with Inkscape (http://www.inkscape.org/) -->

<svg
   xmlns:dc="http://purl.org/dc/elements/1.1/"
   xmlns:cc="http://creativecommons.org/ns#"
   xmlns:rdf="http://www.w3.org/1999/02/22-rdf-syntax-ns#"
   xmlns:svg="http://www.w3.org/2000/svg"
   xmlns="http://www.w3.org/2000/svg"
   xmlns:sodipodi="http://sodipodi.sourceforge.net/DTD/sodipodi-0.dtd"
   xmlns:inkscape="http://www.inkscape.org/namespaces/inkscape"
   width="149.51521mm"
   height="33.999027mm"
   viewBox="0 0 529.77831 120.46899"
   id="svg4153"
   version="1.1"
   inkscape:version="0.91 r13725"
   sodipodi:docname="tvserieshd.light.svg">
  <defs
     id="defs4155" />
  <sodipodi:namedview
     id="base"
     pagecolor="#ffffff"
     bordercolor="#666666"
     borderopacity="1.0"
     inkscape:pageopacity="0.0"
     inkscape:pageshadow="2"
     inkscape:zoom="1.7378241"
     inkscape:cx="291.1964"
     inkscape:cy="38.723446"
     inkscape:document-units="px"
     inkscape:current-layer="g3"
     showgrid="false"
     inkscape:window-width="1920"
     inkscape:window-height="983"
     inkscape:window-x="0"
     inkscape:window-y="27"
     inkscape:window-maximized="1"
     fit-margin-top="0"
     fit-margin-left="0"
     fit-margin-right="0"
     fit-margin-bottom="0">
    <inkscape:grid
       type="xygrid"
       id="grid4170"
       originx="0"
       originy="9.6139974e-06" />
  </sodipodi:namedview>
  <metadata
     id="metadata4158">
    <rdf:RDF>
      <cc:Work
         rdf:about="">
        <dc:format>image/svg+xml</dc:format>
        <dc:type
           rdf:resource="http://purl.org/dc/dcmitype/StillImage" />
        <dc:title></dc:title>
      </cc:Work>
    </rdf:RDF>
  </metadata>
  <g
     inkscape:label="Layer 1"
     inkscape:groupmode="layer"
     id="layer1"
     transform="translate(-43.632772,-407.84038)">
    <g
       transform="translate(-32.189228,170.73838)"
       id="g3"
       style="fill:#000000">
      <g
         id="g4172"
         style="fill:#ffffff">
        <g
           id="g4759"
           style="fill:#ffffff">
          <path
             style="fill:#ffffff"
             inkscape:connector-curvature="0"
             d="m 83.062,237.103 52.694,0 c 3.821,0 7.24,3.218 7.24,7.24 l 0,12.872 c 0,3.821 -3.218,7.24 -7.24,7.24 l -52.694,0 c -3.821,0 -7.039,-3.218 -7.24,-7.24 l 0,-13.073 c 0,-3.821 3.219,-7.039 7.24,-7.039 z m 238.731,47.666 c 2.011,7.039 5.431,10.86 8.246,13.877 0.805,0.805 0.805,1.006 0.402,1.811 -4.827,6.637 -6.235,8.647 -6.235,8.647 -14.883,19.106 -27.754,35.397 -29.967,37.609 -7.039,7.039 -15.688,10.659 -25.542,10.659 l -15.285,0 c -9.855,0 -18.503,-3.62 -25.542,-10.659 -7.04,-7.039 -10.66,-15.688 -10.66,-25.542 l 0,-56.716 -29.564,0 c -3.62,0 -6.838,1.207 -9.452,3.62 -2.615,2.614 -3.821,5.632 -3.821,9.051 l 0,73.006 c 0,3.821 -3.219,7.24 -7.241,7.24 l -17.497,0 c -3.821,0 -7.039,-3.218 -7.039,-7.24 l 0.201,-74.816 c 0,-10.458 3.821,-19.509 11.263,-26.95 7.442,-7.441 16.492,-11.263 26.95,-11.263 l 42.437,0 17.296,0 c 3.62,0 6.838,3.017 6.838,6.838 l 0,75.621 c 0,3.218 1.207,6.235 3.62,8.648 2.414,2.212 5.431,3.419 8.85,3.419 l 4.224,0 c 3.419,0 6.436,-1.207 8.85,-3.419 2.815,-3.017 40.626,-53.498 48.47,-64.157 0.201,-0.201 0.805,-0.201 0.604,0.402 -0.809,3.419 -2.618,11.867 -0.406,20.314 z"
             id="path5" />
          <path
             style="fill:#ffffff"
             inkscape:connector-curvature="0"
             d="m 364.229,306.288 c -10.86,0 -38.816,-5.028 -39.018,-34.392 0.201,-27.353 27.554,-34.392 38.816,-34.794 l 58.324,0 c 3.821,0 7.241,3.218 7.241,7.24 l 0,10.258 c 0,3.821 -3.219,7.24 -7.241,7.24 l -51.285,0 c -3.821,0 -14.279,-0.201 -14.48,8.245 0.201,6.839 8.648,7.442 10.86,7.442 l 6.234,0 31.777,0 c 10.86,0 20.514,4.021 28.156,11.865 7.643,7.643 11.264,16.492 11.464,27.151 -0.2,11.464 -3.821,21.52 -11.464,29.162 -7.843,7.844 -17.296,11.866 -28.357,11.866 l -78.034,0 c -4.022,0 -9.453,-4.625 -7.442,-7.441 2.012,-2.614 8.648,-11.263 11.665,-14.682 3.018,-3.419 5.229,-6.838 9.252,-6.838 l 57.722,0 c 3.821,0 8.849,-0.201 11.062,-2.213 2.212,-2.212 3.017,-6.033 3.017,-8.647 0,-2.816 -2.012,-6.437 -3.62,-8.045 -1.811,-1.609 -4.022,-2.815 -6.838,-3.017 l -31.777,0 -6.034,-0.4 z"
             id="path7" />
        </g>
        <g
           transform="matrix(0.69057644,0,0,0.69057648,166.66838,-64.233285)"
           style="opacity:1;fill:#ffffff"
           id="g4283">
          <g
             id="g4279"
             style="fill:#ffffff">
            <path
               id="path6"
               d="m 549.45066,480.40745 -6.73112,0 c -0.72425,0 -1.31357,0.94717 -1.31357,2.11116 l 0,33.16194 -42.27926,0 0,-33.16319 c 0,-1.16398 -0.58222,-2.11116 -1.30648,-2.11116 l -6.73111,0 c -0.72424,0 -1.31357,0.94716 -1.31357,2.11116 l 0,82.11874 c 0,1.16399 0.58934,2.11116 1.31357,2.11116 l 6.73111,0 c 0.72425,0 1.30648,-0.94716 1.30648,-2.11116 l 0,-35.6612 42.2972,0 0,35.6612 c 0,1.16399 0.58932,2.11116 1.31356,2.11116 l 6.73112,0 c 0.72424,0 1.31356,-0.94716 1.31356,-2.11116 l 0,-82.11749 c 0,-1.16398 -0.58932,-2.11116 -1.31356,-2.11116"
               style="opacity:1;fill:#ffffff;fill-rule:nonzero"
               inkscape:connector-curvature="0" />
            <path
               id="path8"
               d="m 614.68535,553.46423 -31.55276,0 0,-59.76315 32.60688,0 c 1.8638,0 3.53007,0.31953 4.93947,0.94716 1.28425,0.582 2.33801,1.70038 3.21391,3.43496 0.89571,1.76878 1.59376,4.35925 2.07455,7.69148 0.50053,3.46915 0.75083,8.12518 0.75083,13.83052 l 0,8.39904 c 0,5.8885 -0.30296,10.6356 -0.9023,14.08233 -0.57298,3.29803 -1.36985,5.78577 -2.3709,7.40622 -1.00105,1.63185 -2.17996,2.6704 -3.59594,3.16111 -1.53447,0.53635 -3.26662,0.81023 -5.16331,0.81023 m 19.97623,-50.38245 c -0.652,-5.62604 -1.84406,-10.17921 -3.53665,-13.55742 -1.71891,-3.40076 -4.02402,-5.81997 -6.8559,-7.16657 -2.71339,-1.28959 -6.15779,-1.95143 -10.24767,-1.95143 l -38.56721,0 c -0.67175,0 -1.21839,0.94717 -1.21839,2.11116 l 0,82.13002 c 0,1.164 0.54663,2.09976 1.21839,2.09976 l 38.36983,0 c 4.1491,0 7.65286,-0.75319 10.41251,-2.24809 2.87808,-1.55205 5.19628,-4.14251 6.90196,-7.69147 1.68601,-3.51476 2.87143,-8.09098 3.52349,-13.6376 0.61455,-5.32676 0.93989,-11.91129 0.93989,-19.59199 0,-8.19359 -0.32271,-15.0858 -0.94834,-20.49524"
               style="opacity:1;fill:#ffffff;fill-rule:nonzero"
               inkscape:connector-curvature="0" />
          </g>
          <rect
             y="436.35324"
             x="447.22461"
             height="174.44701"
             width="9.3684502"
             id="rect4277"
             style="opacity:1;fill:#ffffff;fill-opacity:1;stroke:none;stroke-width:0.1;stroke-miterlimit:4;stroke-dasharray:none;stroke-opacity:1" />
        </g>
      </g>
    </g>
  </g>
</svg>
