<svg width="600" height="291.44" version="1.1" viewBox="0 0 158.75 77.109596" xmlns="http://www.w3.org/2000/svg">
 <g transform="translate(-24.075 -97.725)">
  <path d="m24.075 157.74 18.673-8.4133 6.4386 11.674 26.416-63.274z" fill="#346ebf"/>
  <path d="m32.911 126.8 9.8737 22.475 38.383-15.844z" fill="#346ebf"/>
  <path d="m56.245 133.96 8.8726-20.253-16.478 19.187-9.791-1.3777 3.7199 8.4501-9.2675 10.801 11.527-5.1986 3.1688 7.2101 4.7853-10.912 14.2-6.4018z" fill="#83a7dd"/>
  <path d="m69.329 105.27-1.3594 1.5155-18.866 31.945-7.4122-10.627-2.7646 0.25717 9.3961 25.258 22.374-49.672z" fill="#233b73"/>
  <g fill="#fff">
   <path d="m68.134 106.39-0.22044 0.35821-2.7922 4.6659-16.937 27.931-6.5396-11.343-4.8955-0.68886 12.051 27.61 3.5913-12.785 17.91-37.392 0.95522-1.9839z"/>
   <path d="m70.469 155.23-4.6016-11.821h-8.3766v0.88174l7.5132 17.828h7.6142l8.0184-17.819v-0.89093h-5.5385z"/>
   <path d="m80.642 162.12h7.7704v-18.719h-7.7704z"/>
   <path d="m111.51 143.41h-5.3456l-4.6384 11.821-4.6016-11.821h-8.3674v0.88174l7.504 17.828h7.6234l7.8255-17.396v17.396h7.7704v-18.71h-7.5775z"/>
   <path d="m133.44 152.15c0 4.1883-1.5339 6.2273-4.7026 6.2273h-0.43168v-11.224h0.43168c1.7635 0 4.7026 0.65212 4.7026 4.9966m43.527-8.744-7.8347 10.664-1.1389-10.664h-8.1929v-9e-3h-18.755l-1.0195 3.9128c-0.57864-0.75317-1.3134-1.4237-2.1952-1.9748-2.0023-1.24-4.7761-1.9288-7.8347-1.9288h-9.5522v18.719h9.5522c2.884 0 5.7497-0.93685 7.8714-2.5718 2.4248-1.8737 3.7015-4.4271 3.7015-7.403 0-1.6441-0.40414-3.1045-1.194-4.3444h5.0057l-3.7107 14.319h7.8071l3.7107-14.319h5.4558l0.84501-3.2055 2.3697 17.525h7.651l12.969-17.626 0.0551-0.0735 0.29392-1.0195z"/>
  </g>
  <path d="m159.11 143.93h-17.653l-0.88174 3.3433h5.4925l-3.7199 14.319h6.7141l3.7199-14.319h5.4558z" fill="#243d78"/>
  <g fill="#4788ce">
   <path d="m65.355 161.59-7.3295-17.405v-0.24798h7.4765l4.969 12.758 4.9874-12.758h4.6475v0.24798l-7.8255 17.405z"/>
   <path d="m81.175 143.93h6.7141v17.653h-6.7141z"/>
   <path d="m112.04 143.93h6.7141v17.653h-6.7141z"/>
   <path d="m96.415 161.59-7.3295-17.405v-0.24798h7.4765l4.969 12.758 4.9966-12.758h4.6384v0.24798l-7.8255 17.405z"/>
  </g>
  <path d="m162.32 161.59-2.3513-17.405 0.0735-0.24798h7.4765l1.2308 11.545 8.4868-11.545h4.8863l-0.0735 0.24798-12.804 17.405z" fill="#243d78"/>
  <path d="m128.74 158.91c3.0126 0 5.2262-1.7543 5.2262-6.76 0-3.8025-2.2135-5.5293-5.2262-5.5293h-0.9644v12.289zm-7.7704 2.682v-17.653h9.0287c5.4007 0 11.04 2.1952 11.04 8.2112 0 6.0253-5.6395 9.442-11.04 9.442z" fill="#4788ce"/>
  <g fill="#fff">
   <path d="m118.35 170.5 1.0103-2.7463h-4.3536l0.43169-1.1573h4.6016l1.0012-2.7463h-7.5591l-3.9311 10.728h7.8163l1.0011-2.7463h-4.8496l0.4868-1.3318z"/>
   <path d="m131.52 163.85h-2.9575l-2.3146 6.3008c-0.10104 0.28473-0.23881 0.54191-0.41332 0.78072-0.17452 0.22962-0.37658 0.44087-0.60621 0.61539-0.22043 0.17451-0.45923 0.3031-0.70722 0.40412-0.47762 0.17452-1.0103 0.1837-1.341 0.0184-0.14696-0.0827-0.24799-0.18369-0.33066-0.31227-0.0735-0.14696-0.1194-0.31229-0.1194-0.52354 0-0.22044 0.0459-0.46843 0.14696-0.7348l2.3972-6.5488h-2.9575l-2.3421 6.3926c-0.22961 0.62457-0.34902 1.2216-0.3582 1.7543 0 0.56946 0.1194 1.0654 0.37657 1.488 0.25718 0.43168 0.64294 0.77152 1.1665 1.0103 0.49599 0.22044 1.1206 0.33984 1.8737 0.33984 0.71641 0 1.4145-0.11022 2.0482-0.33065 0.64294-0.22044 1.2216-0.52354 1.7359-0.91848 0.52353-0.38577 0.97359-0.84502 1.3594-1.3777 0.37658-0.52353 0.68885-1.1022 0.90929-1.7268z"/>
   <path d="m136.66 167.6c-0.13777 0.1194-0.29392 0.21125-0.45006 0.26636-0.17451 0.0551-0.3674 0.0919-0.55109 0.11022-0.22043 9e-3 -0.43168 0.0184-0.62457 0.0184h-0.7899l0.56946-1.5706h1.2032c0.17451 0 0.35821 9e-3 0.54191 0.0367 0.14695 0.0184 0.26636 0.0643 0.35821 0.11941 0.0551 0.0367 0.0918 0.0827 0.1194 0.14694 0 0.0276 0.0276 0.12859-0.0643 0.37659-0.0827 0.22043-0.1837 0.38576-0.31229 0.49598m3.2606-0.22962c0.23881-0.65213 0.32147-1.1848 0.24799-1.6441-0.0643-0.47761-0.26636-0.86337-0.58783-1.1481-0.3031-0.26636-0.69804-0.45925-1.1757-0.56947-0.45006-0.11022-0.94604-0.16532-1.4788-0.16532h-4.124l-3.9311 10.737h2.9575l1.4696-4.0138h0.54191l0.62456 4.0138h3.3984l-1.0195-4.3169c0.67049-0.1745 1.2675-0.49597 1.7727-0.95522 0.58783-0.53272 1.0287-1.1848 1.3042-1.938"/>
   <path d="m148.27 167.93c0 0.34903-0.0735 0.74397-0.22962 1.1665-0.16533 0.44088-0.37657 0.84501-0.64294 1.2032-0.27554 0.3674-0.58783 0.67969-0.93686 0.94605-0.34902 0.26636-0.73478 0.47761-1.1389 0.62457-0.39495 0.14695-0.81746 0.22043-1.2491 0.22043-0.41332 0-0.76235-0.0735-1.0287-0.20207-0.26636-0.12858-0.45924-0.30309-0.59701-0.53271-0.12859-0.23881-0.20207-0.51436-0.20207-0.84501-9e-3 -0.34903 0.0735-0.74397 0.22963-1.1757 0.15613-0.42251 0.37657-0.82664 0.64293-1.194 0.27555-0.36739 0.58783-0.68886 0.93686-0.95523 0.34902-0.26636 0.73478-0.47761 1.1389-0.62456 0.39495-0.14696 0.81744-0.22044 1.2491-0.22044 0.41333 0 0.76235 0.0735 1.0287 0.20207 0.26637 0.13776 0.45924 0.31228 0.59701 0.5419 0.12859 0.22962 0.20207 0.51435 0.20207 0.84501m3.1412-0.90931c-0.0276-0.71641-0.22962-1.341-0.57864-1.8462-0.34903-0.51434-0.84501-0.9093-1.4788-1.1848-0.60621-0.25718-1.341-0.39495-2.1676-0.39495-0.81745 0-1.6257 0.12859-2.4064 0.38576-0.78071 0.25718-1.5247 0.62458-2.1952 1.1022-0.67968 0.47762-1.2859 1.0654-1.8094 1.7359-0.53272 0.67968-0.95523 1.442-1.2583 2.2778-0.31229 0.84501-0.45006 1.6257-0.41332 2.3146 0.0276 0.71641 0.22044 1.341 0.57865 1.8462 0.34902 0.51435 0.84501 0.9093 1.4788 1.1848 0.6062 0.25717 1.341 0.39495 2.1676 0.39495 0.81746 0 1.6257-0.12859 2.4064-0.38577 0.7807-0.25718 1.5247-0.62457 2.1952-1.1022 0.67968-0.47761 1.2859-1.0563 1.8094-1.7359 0.53273-0.67969 0.95523-1.442 1.2583-2.2778 0.31227-0.83583 0.45005-1.6165 0.41331-2.3146"/>
   <path d="m157.79 167.13c-0.0735 0.19288-0.16533 0.34903-0.27555 0.46843-0.1194 0.1194-0.24799 0.22044-0.38576 0.29392-0.15615 0.0735-0.31229 0.12859-0.47762 0.15614-0.17451 0.0367-0.34901 0.0551-0.52353 0.0551h-0.96441l0.6062-1.6716h0.89093c0.1837 0 0.38576 9e-3 0.59702 0.0367 0.16532 0.0184 0.31228 0.0551 0.4225 0.1194 0.0827 0.0367 0.12859 0.10102 0.16533 0.1745 9e-3 0.0367 0.0275 0.13778-0.0551 0.3674m2.0758 1.8186c0.3582-0.4225 0.65212-0.95522 0.88174-1.5798 0.23881-0.65213 0.32147-1.194 0.25718-1.6533-0.0735-0.46843-0.27555-0.85419-0.59702-1.1389-0.3031-0.27555-0.69805-0.46843-1.1848-0.56947-0.45924-0.10103-0.96441-0.15614-1.4971-0.15614h-3.9679l-3.9403 10.737h2.9667l1.4328-3.9128h1.3685c0.54191 0 1.0838-0.0459 1.589-0.15614 0.52354-0.10104 1.0195-0.28473 1.4696-0.5419 0.45006-0.24799 0.86338-0.59702 1.2216-1.0287"/>
   <path d="m169.31 166.6 1.0103-2.7463h-7.5683l-3.9311 10.728h7.8163l1.0103-2.7463h-4.8588l0.4868-1.3318h4.3444l1.0103-2.7463h-4.3444l0.4225-1.1573z"/>
  </g>
  <g fill="#4788ce">
   <path d="m113.69 164.22h6.806l-0.74397 2.039h-4.6016l-0.67967 1.8645h4.3444l-0.75316 2.039h-4.3444l-0.74396 2.039h4.8496l-0.74398 2.039h-7.0632z"/>
   <path d="m128.72 170.38c-0.22043 0.59702-0.50516 1.1389-0.87256 1.6441-0.35821 0.49598-0.7899 0.92767-1.2767 1.3042-0.4868 0.36739-1.0379 0.65212-1.6349 0.86337-0.6062 0.20207-1.2583 0.30311-1.9472 0.30311-0.69805 0-1.2675-0.10104-1.7268-0.30311-0.45006-0.21125-0.78072-0.49598-1.0012-0.86337-0.22044-0.37658-0.33065-0.80827-0.32147-1.3042 0-0.50516 0.11021-1.0471 0.33065-1.6441l2.2595-6.1538h2.2044l-2.2227 6.0712c-0.11941 0.31228-0.17452 0.59701-0.17452 0.86338 9e-3 0.26636 0.0643 0.4868 0.17452 0.67968 0.10103 0.20206 0.26636 0.34902 0.47761 0.45923 0.20207 0.11022 0.45924 0.16533 0.75315 0.16533 0.29392 0 0.57865-0.0551 0.86338-0.16533 0.28474-0.11021 0.5511-0.25717 0.79908-0.45923 0.25718-0.19288 0.47762-0.41332 0.6705-0.67968 0.20207-0.26637 0.35821-0.5511 0.46843-0.86338l2.2227-6.0712h2.2136z"/>
   <path d="m133.7 168.37h1.3042c0.19288 0 0.40413-9e-3 0.63374-0.0184 0.22963-0.0184 0.44088-0.0643 0.65213-0.12859 0.20207-0.0735 0.39495-0.1837 0.56947-0.33065 0.16532-0.15615 0.3031-0.3674 0.40413-0.64295 0.0918-0.25718 0.1194-0.45924 0.0735-0.60619-0.0551-0.14696-0.13776-0.26636-0.27554-0.34903-0.12858-0.0827-0.29391-0.12859-0.4868-0.16533-0.20206-0.0275-0.39495-0.0367-0.59701-0.0367h-1.442zm-0.68887-4.1516h3.876c0.51435 0 0.97359 0.0551 1.3961 0.15615 0.4225 0.0918 0.76234 0.25718 1.0287 0.49598 0.25718 0.22962 0.41333 0.5419 0.47762 0.92767 0.0551 0.39495-0.0184 0.88174-0.23881 1.4696-0.25717 0.70724-0.6613 1.3042-1.2124 1.8002-0.5511 0.49599-1.2032 0.80827-1.9564 0.94605l1.0012 4.2342h-2.6544l-0.62457-4.0138h-1.093l-1.4604 4.0138h-2.2136z"/>
   <path d="m142.1 169.24c-0.17451 0.46843-0.25718 0.90012-0.25718 1.2951 9e-3 0.39495 0.0918 0.73479 0.25718 1.0195 0.16533 0.28473 0.41332 0.51434 0.73478 0.67048 0.33066 0.16533 0.72561 0.23881 1.194 0.23881 0.4776 0 0.92766-0.0735 1.3685-0.23881 0.44087-0.15614 0.85419-0.38575 1.2308-0.67048 0.38576-0.28474 0.71642-0.62458 1.0103-1.0195 0.28472-0.39494 0.51434-0.82663 0.68885-1.2951 0.17452-0.45925 0.25718-0.89093 0.25718-1.2859s-0.0918-0.74397-0.25718-1.0287c-0.16533-0.28472-0.41332-0.51434-0.73478-0.67048-0.33066-0.16533-0.72561-0.23881-1.194-0.23881-0.4776 0-0.92766 0.0735-1.3685 0.23881-0.44087 0.15614-0.85418 0.38576-1.2308 0.67048-0.37658 0.28474-0.71643 0.63376-1.0103 1.0287-0.28472 0.39495-0.52353 0.82663-0.68886 1.2859m-2.2962 0c0.29392-0.79909 0.69806-1.5247 1.2032-2.1768 0.50517-0.65212 1.0838-1.2124 1.7359-1.6625 0.65213-0.45923 1.3502-0.80826 2.1033-1.0562 0.74397-0.24799 1.5155-0.3674 2.2962-0.3674 0.78071 0 1.4604 0.11941 2.0298 0.3674s1.0195 0.59702 1.3318 1.0562c0.31229 0.45006 0.4868 1.0103 0.51436 1.6625 0.0275 0.65213-0.10103 1.3777-0.39495 2.1768s-0.69805 1.5247-1.2032 2.1768c-0.50517 0.65212-1.0838 1.2124-1.7359 1.6625-0.65213 0.45924-1.3502 0.81745-2.1033 1.0562-0.74398 0.24799-1.5155 0.3674-2.2962 0.3674-0.7807 0-1.4604-0.11941-2.0298-0.3674-0.56945-0.2388-1.0103-0.59701-1.3318-1.0562-0.31229-0.45006-0.47762-1.0103-0.51436-1.6625-0.0275-0.65213 0.10104-1.3777 0.39495-2.1768"/>
   <path d="m154.62 168.47h1.4696c0.20207 0 0.39495-0.0184 0.59701-0.0551 0.19289-0.0367 0.38577-0.10102 0.56028-0.19287 0.1837-0.0919 0.34903-0.21126 0.49599-0.3674 0.14695-0.15614 0.25717-0.34902 0.34902-0.58783 0.0918-0.25718 0.11021-0.45925 0.0459-0.61538-0.0643-0.15614-0.16533-0.27555-0.32147-0.35821-0.14696-0.0918-0.33985-0.13778-0.5511-0.16533-0.22044-0.0275-0.43169-0.0367-0.64294-0.0367h-1.1297zm-0.65213-4.2434h3.7199c0.52353 0 0.99196 0.0459 1.4236 0.13777 0.4225 0.0918 0.77153 0.25718 1.0287 0.4868 0.25717 0.22961 0.4225 0.5419 0.47761 0.93685 0.0643 0.39495-0.0184 0.88175-0.23881 1.4788-0.21125 0.58783-0.48679 1.0746-0.81744 1.4696-0.33984 0.39495-0.70724 0.71642-1.1298 0.95523-0.41331 0.22962-0.86337 0.40414-1.3594 0.49598-0.4868 0.10103-0.99196 0.14696-1.5247 0.14696h-1.6165l-1.4236 3.9127h-2.2136z"/>
   <path d="m162.97 164.22h6.806l-0.74398 2.039h-4.6016l-0.67968 1.8645h4.3444l-0.75317 2.039h-4.3444l-0.74397 2.039h4.8496l-0.74397 2.039h-7.0632z"/>
  </g>
 </g>
</svg>
