<svg width="259.28" height="111.94" version="1.1" viewBox="0 0 275.73 297.8" xmlns="http://www.w3.org/2000/svg">
 <defs>
  <clipPath id="b">
   <path d="m0 0h1190.6v841.89h-1190.6z"/>
  </clipPath>
  <clipPath id="a">
   <path d="m0 0h1190.6v841.89h-1190.6z"/>
  </clipPath>
 </defs>
 <rect x="-177.58" y="37.535" width="322.04" height="79.97" fill="#fff" stroke="#fff" stroke-width="3.2333"/>
 <g transform="translate(-120.79 -826.34)">
  <g transform="matrix(3.3255,0,0,-3.3255,-446.66,2386.3)">
   <g transform="translate(-1.0274e-6,-1.3318e-5)" clip-path="url(#b)">
    <g transform="translate(199.54,469.09)">
     <g transform="translate(-199.54,-469.09)">
      <g clip-path="url(#a)">
       <g transform="translate(199.54,469.09)">
        <path d="m0 0c-6.615 0-12.58-2.759-16.822-7.185-4.24 4.426-10.206 7.185-16.821 7.185-6.621 0-12.592-2.765-16.833-7.196-4.242 4.431-10.213 7.196-16.832 7.196-12.871 0-23.307-10.433-23.307-23.306 0-12.872 10.436-23.306 23.307-23.306 6.619 0 12.59 2.7617 16.832 7.1947 4.241-4.433 10.212-7.195 16.833-7.195 6.615 0 12.581 2.76 16.821 7.183 4.242-4.423 10.207-7.183 16.822-7.183 12.873 0 23.307 10.434 23.307 23.306 0 12.873-10.434 23.306-23.307 23.306m-54.983-18.738-9.174-14.089c-0.722-1.107-1.928-1.707-3.158-1.708-1.235 1e-3 -2.44 0.601-3.162 1.708l-9.172 14.089c-1.132 1.738-0.634 4.06 1.112 5.187 1.743 1.125 4.076 0.632 5.206-1.107l6.016-9.236 6.011 9.236c1.13 1.739 3.463 2.232 5.207 1.107 1.748-1.127 2.244-3.449 1.114-5.187m21.329-14.906c-5.716 0-10.347 4.631-10.347 10.349 0 5.713 4.631 10.347 10.347 10.347 5.715 0 10.348-4.634 10.348-10.347 0-5.718-4.631-10.349-10.348-10.349m33.644 0c-5.715 0-10.348 4.631-10.348 10.349 0 5.713 4.633 10.347 10.348 10.347s10.348-4.634 10.348-10.347c0-5.718-4.632-10.349-10.348-10.349" fill="#d4007a"/>
       </g>
      </g>
     </g>
    </g>
   </g>
  </g>
 </g>
 <text x="-197.52473" y="325.28302" fill="#000000" font-family="Nunito" font-size="185.86px" font-weight="900" letter-spacing="0px" stroke-width="2.6603" word-spacing="0px" style="font-feature-settings:normal;font-variant-caps:normal;font-variant-ligatures:normal;font-variant-numeric:normal;line-height:1.25" xml:space="preserve"><tspan x="-197.52473" y="493.0267" font-family="Nunito" font-weight="900" stroke-width="2.6603"/></text>
 <text x="382.78903" y="294.74026" fill="#000000" font-family="'Brandon Grotesque'" font-size="185.86px" letter-spacing="0px" stroke-width="2.6603" word-spacing="0px" style="font-feature-settings:normal;font-variant-caps:normal;font-variant-ligatures:normal;font-variant-numeric:normal;line-height:1.25" xml:space="preserve"><tspan x="382.78903" y="448.0762" stroke-width="2.6603"/></text>
 <text x="355.30048" y="51.924709" fill="#000000" font-family="'Brandon Grotesque'" font-size="185.86px" letter-spacing="0px" stroke-width="2.6603" word-spacing="0px" style="font-feature-settings:normal;font-variant-caps:normal;font-variant-ligatures:normal;font-variant-numeric:normal;line-height:1.25" xml:space="preserve"><tspan x="355.30048" y="205.26067" stroke-width="2.6603"/></text>
 <path d="m57.228 173.49c-37.138 0-62.979 27.453-62.979 61.349 0 35.51 25.841 62.957 62.979 62.957 37.138 0 61.333-27.447 62.948-62.957 0-33.896-25.81-61.349-62.948-61.349zm-219.62 1.6411c-24.22 0-41.976 14.508-41.976 37.106 0 37.125 53.297 35.53 53.297 51.671 0 4.8439-4.8566 8.0705-12.93 8.0705-9.6881 0-17.742-6.4538-20.972-8.0705-6.4588-3.2272-9.7006-3.2394-12.93 1.6105l-4.8566 8.0705c-4.8441 6.4563-1.5897 9.667 1.6398 12.894 6.4588 4.8439 22.58 11.318 38.727 11.318 27.45 0 41.982-17.781 40.367-33.922 0-38.739-53.266-33.883-53.266-51.639 0-4.8439 3.2105-8.0705 12.899-8.0705 8.0735 0 14.551 1.6289 19.395 4.8561 4.8441 1.6167 9.6691 3.2089 12.899-3.2455l3.2483-8.0705c1.6148-4.8439 1.5961-9.6664-3.2483-12.894-6.4587-4.8378-17.762-9.678-32.294-9.678zm67.836 0c-6.4586 0-9.6819 3.2211-9.6819 9.678v101.67c0 6.4575 3.2231 9.7097 9.6819 9.7097h11.29c6.4586 0 9.6818-3.2516 9.6818-9.7097v-27.428h21.004c22.606 0 38.765-17.749 37.15-41.961 0-24.212-16.153-41.961-38.759-41.961zm240.6 0c-6.4586 0-9.7133 3.2211-9.7133 9.678l-1.6084 100.06c0 6.4575 3.2231 9.6786 9.6818 9.6786h11.322c6.4586 0 9.6818-3.2211 9.6818-9.6786v-30.674h14.538l17.755 33.922c3.2294 4.8378 6.4458 6.4312 11.29 6.4312h12.93c8.0736 0 9.6946-4.8317 6.465-11.286l-17.755-30.674c-3.2296-4.8378-4.8567-6.463-4.8567-6.463 11.303-6.4563 17.755-19.369 17.755-32.283 0-17.755-9.6944-30.654-22.612-35.498-4.8441-1.6106-9.663-3.215-22.58-3.215zm93.633 0c-6.4586 0-9.6818 3.2211-9.6818 9.678l-1.6084 6.463c0 6.4575 3.2231 9.6786 9.6818 9.6786h27.437v85.529c0 6.4575 3.2545 9.7097 9.7133 9.7097h11.29c6.4586 0 9.6818-3.2516 9.6818-9.7097v-85.529h27.469c6.4586 0 9.6818-3.2211 9.6818-9.6786v-6.463c0-6.4569-3.2231-9.678-9.6818-9.678zm-313.26 25.82h14.539c9.6885 0 14.538 6.4563 14.538 16.141 0 9.6847-4.8503 16.141-14.538 16.141h-14.539zm130.82 0c17.762 0 32.294 14.521 32.294 33.89 0 19.369-12.918 35.498-32.294 35.498-19.376 0-32.294-14.515-32.294-35.498 0-19.369 12.918-33.89 32.294-33.89zm108.17 0h9.6818c4.8441 0 8.0922-9e-3 11.322 1.6106 4.844 1.6167 6.4336 6.4697 6.4336 12.926 0 9.6835-4.8189 14.502-14.507 14.502h-12.93z"/>
 <text transform="scale(1 1)" x="389.74484" y="297.22769" fill="#000000" font-family="Calibri" font-size="194.94px" font-weight="bold" letter-spacing="0px" stroke-width="2.7902" word-spacing="0px" style="font-feature-settings:normal;font-variant-caps:normal;font-variant-ligatures:normal;font-variant-numeric:normal;line-height:1.25" xml:space="preserve"><tspan x="389.74484" y="297.22769" fill="#000000" font-family="Calibri" font-weight="bold" stroke-width="2.7902">4</tspan></text>
</svg>
