<svg version="1.1" viewBox="0 0 657.52 149.94" xmlns="http://www.w3.org/2000/svg" xmlns:xlink="http://www.w3.org/1999/xlink">
 <defs>
  <clipPath id="c">
   <use width="744.09448" height="1052.3622" overflow="visible" xlink:href="#SVGID_1_"/>
  </clipPath>
 </defs>
 <g transform="translate(-34.426 -482)">
  <g transform="matrix(15.357 0 0 15.357 -4207.8 -4869.7)">
   <g transform="translate(-112.15 -239.7)" clip-path="url(#c)">
    <defs>
     <rect id="e" x="388.39" y="587.99" width="49.227" height="9.963"/>
    </defs>
    <clipPath id="b">
     <use width="566.92902" height="793.70099" overflow="visible" xlink:href="#e"/>
    </clipPath>
    <path d="m415.77 592.66 4.764 5.174h-2.608l-4.946-5.174h-2.729v2.79h-2.121v-4.546h6.615c0.132 0 0.264-0.048 0.393-0.145 0.13-0.098 0.193-0.232 0.193-0.405 0-0.126-0.031-0.226-0.094-0.301s-0.146-0.13-0.248-0.164c-0.102-0.033-0.209-0.05-0.321-0.05h-6.596v-1.704h8.044c0.375 0 0.696 0.134 0.965 0.402 0.27 0.27 0.403 0.593 0.403 0.97v1.827c0 0.322-0.065 0.573-0.197 0.752-0.131 0.179-0.288 0.302-0.47 0.37-0.183 0.067-0.392 0.115-0.629 0.143s-0.377 0.048-0.418 0.061m15.28 2.836h-2.101v-4.513c0-0.074-3e-3 -1.021-1e-3 -1.102-0.037 0.054-0.521 0.889-0.583 1.021l-2.522 4.594h-1.991s-3.16-5.568-3.186-5.617l-3e-3 1.033v6.053l-2.059-2.217-2e-3 -6.603c0.177 0 2.854-3e-3 2.999-0.01 9e-3 -1e-3 3.189 5.3 3.189 5.3l2.143-3.762c0.276-0.522 0.701-1.136 0.941-1.536l3.187 5e-3c5e-3 1e-3 -0.011 7.354-0.011 7.354m-32.118-7.187-1.894 2.117-1.264 1.414 3.422 3.437h-2.786l-2.524-2.608-2.515 2.618h-2.835l3.451-3.476-3.044-3.505h2.447l2.446 2.636 2.506-2.636h2.592zm0.914-0.173h7.521v1.704h-3.272v5.646h-2.05v-5.646h-3.723z" clip-path="url(#b)" clip-rule="evenodd" fill="#fff" fill-rule="evenodd"/>
    <polygon points="433.06 591.23 433.06 588.08 433.75 588.08 433.75 589.31 435.78 589.31 435.78 590 433.75 590 433.75 591.23" clip-path="url(#b)" fill="#fff"/>
    <polygon points="435.52 587.99 437.62 589.41 437.62 589.92 435.52 591.35 435.52 590.58 436.86 589.67 435.52 588.76" clip-path="url(#b)" fill="#fff"/>
   </g>
   <g transform="translate(-112.15 -239.7)" clip-path="url(#c)">
    <defs>
     <path id="d" d="m396.25 588.36-2.523 2.653-2.463-2.653h-2.463l3.063 3.529-3.475 3.499h2.854l2.532-2.637 2.541 2.627h2.807l-3.447-3.46 1.272-1.423 1.906-2.132 3e-3 -4e-3h-2.607zm3.527-0.169-1.534 1.714h3.749v5.686h2.063v-5.686h3.294v-1.714zm8.281 0v1.714h6.64c0.113 0 0.222 0.017 0.325 0.052 0.103 0.034 0.186 0.089 0.248 0.164 0.063 0.076 0.096 0.177 0.096 0.304 0 0.174-0.065 0.311-0.195 0.407-0.13 0.098-0.263 0.147-0.396 0.147h-6.661v4.576h2.138v-2.809h2.747l4.979 5.208h2.627l-4.796-5.208c0.04-0.014 0.18-0.034 0.419-0.062 0.238-0.027 0.45-0.075 0.633-0.145 0.185-0.069 0.343-0.192 0.475-0.372s0.197-0.433 0.197-0.758v-1.839c0-0.38-0.135-0.705-0.405-0.976s-0.595-0.405-0.972-0.405h-8.099zm10.604 9e-3 2e-3 6.646 2.072 2.232v-6.094l4e-3 -1.041c0.025 0.05 3.206 5.655 3.206 5.655h2.005l2.54-4.625c0.063-0.133 0.551-0.973 0.587-1.026-3e-3 0.08 2e-3 1.035 2e-3 1.108v4.543h2.114s0.016-7.403 0.012-7.403l-3.208-4e-3c-0.242 0.402-0.668 1.021-0.947 1.546l-2.158 3.788s-3.202-5.336-3.212-5.336c-0.145 7e-3 -2.842 0.011-3.019 0.011"/>
    </defs>
    <clipPath id="a">
     <use width="566.92902" height="793.70099" overflow="visible" xlink:href="#d"/>
    </clipPath>
    <rect x="388.39" y="588.19" width="42.816" height="9.765" clip-path="url(#a)" fill="#4e4c47"/>
    <path d="m380.71 589.44c5.786-25.062 17.225-44.188 25.551-42.72s10.385 22.975 4.599 48.037c-5.785 25.063-17.225 44.188-25.551 42.72-8.326-1.467-10.385-22.974-4.599-48.037" clip-path="url(#a)" fill="#141c1a"/>
    <path d="m380.8 589.46c5.753-24.92 17.127-43.938 25.406-42.478 8.278 1.459 10.326 22.844 4.573 47.765-5.753 24.919-17.128 43.937-25.406 42.477-8.279-1.46-10.326-22.844-4.573-47.764" clip-path="url(#a)" fill="#151d1b"/>
    <path d="m380.88 589.47c5.721-24.776 17.03-43.686 25.262-42.234 8.23 1.452 10.267 22.714 4.546 47.491-5.72 24.777-17.029 43.687-25.26 42.234-8.232-1.451-10.267-22.714-4.548-47.491" clip-path="url(#a)" fill="#161e1c"/>
    <path d="m380.97 589.49c5.687-24.635 16.932-43.435 25.116-41.992s10.208 22.584 4.52 47.218c-5.687 24.636-16.931 43.437-25.115 41.992-8.184-1.442-10.208-22.583-4.521-47.218" clip-path="url(#a)" fill="#161f1c"/>
    <path d="m381.06 589.5c5.654-24.493 16.834-43.184 24.971-41.749s10.149 22.453 4.494 46.945c-5.653 24.493-16.834 43.184-24.97 41.75-8.136-1.435-10.149-22.453-4.495-46.946" clip-path="url(#a)" fill="#17201d"/>
    <path d="m381.14 589.51c5.622-24.35 16.736-42.933 24.825-41.507 8.089 1.427 10.09 22.323 4.468 46.673-5.62 24.351-16.735 42.934-24.824 41.507s-10.091-22.323-4.469-46.673" clip-path="url(#a)" fill="#18211e"/>
    <path d="m381.23 589.53c5.589-24.208 16.638-42.682 24.68-41.264s10.031 22.191 4.442 46.399-16.639 42.683-24.681 41.264c-8.042-1.417-10.03-22.191-4.441-46.399" clip-path="url(#a)" fill="#19221f"/>
    <path d="m381.31 589.55c5.556-24.065 16.54-42.432 24.535-41.021s9.972 22.062 4.416 46.127c-5.557 24.065-16.54 42.431-24.535 41.021s-9.972-22.063-4.416-46.127" clip-path="url(#a)" fill="#1a2320"/>
    <path d="m381.4 589.56c5.523-23.923 16.442-42.18 24.391-40.777 7.946 1.4 9.913 21.931 4.39 45.854-5.522 23.923-16.443 42.179-24.39 40.778-7.948-1.403-9.914-21.933-4.391-45.855" clip-path="url(#a)" fill="#1b2422"/>
    <path d="m381.48 589.58c5.489-23.781 16.344-41.93 24.243-40.536 7.9 1.393 9.854 21.8 4.364 45.581-5.49 23.779-16.344 41.929-24.245 40.536-7.898-1.394-9.852-21.801-4.362-45.581" clip-path="url(#a)" fill="#1c2523"/>
    <path d="m381.57 589.59c5.457-23.638 16.247-41.678 24.099-40.293 7.854 1.386 9.795 21.67 4.338 45.309-5.457 23.638-16.247 41.678-24.099 40.293-7.853-1.385-9.795-21.671-4.338-45.309" clip-path="url(#a)" fill="#1d2724"/>
    <path d="m381.66 589.61c5.424-23.496 16.149-41.427 23.954-40.05 7.806 1.377 9.736 21.539 4.313 45.035-5.426 23.496-16.149 41.426-23.955 40.05s-9.736-21.538-4.312-45.035" clip-path="url(#a)" fill="#1e2825"/>
    <path d="m381.74 589.62c5.391-23.354 16.051-41.177 23.809-39.808 7.758 1.368 9.677 21.408 4.285 44.763-5.392 23.353-16.05 41.175-23.81 39.807-7.758-1.368-9.676-21.409-4.284-44.762" clip-path="url(#a)" fill="#1f2826"/>
    <path d="m381.83 589.63c5.358-23.211 15.953-40.925 23.664-39.564 7.711 1.359 9.618 21.278 4.259 44.489-5.358 23.211-15.953 40.925-23.664 39.564s-9.619-21.278-4.259-44.489" clip-path="url(#a)" fill="#212a28"/>
    <path d="m381.91 589.65c5.326-23.069 15.855-40.673 23.52-39.322 7.663 1.352 9.558 21.147 4.231 44.217-5.325 23.068-15.854 40.673-23.518 39.321-7.664-1.351-9.56-21.146-4.233-44.216" clip-path="url(#a)" fill="#222b29"/>
    <path d="m382 589.67c5.293-22.927 15.758-40.422 23.373-39.079 7.617 1.343 9.5 21.017 4.207 43.942-5.293 22.927-15.757 40.423-23.373 39.079-7.616-1.342-9.5-21.016-4.207-43.942" clip-path="url(#a)" fill="#242c2b"/>
    <path d="m382.08 589.68c5.26-22.784 15.659-40.171 23.228-38.836 7.569 1.334 9.441 20.886 4.182 43.67-5.261 22.784-15.659 40.171-23.229 38.836-7.568-1.335-9.44-20.886-4.181-43.67" clip-path="url(#a)" fill="#262f2d"/>
    <path d="m382.17 589.7c5.228-22.642 15.562-39.92 23.083-38.595 7.522 1.327 9.382 20.757 4.155 43.397-5.228 22.642-15.563 39.92-23.083 38.594-7.522-1.325-9.381-20.755-4.155-43.396" clip-path="url(#a)" fill="#283130"/>
    <path d="m382.26 589.71c5.194-22.499 15.465-39.669 22.938-38.351s9.323 20.625 4.129 43.124-15.464 39.669-22.938 38.351c-7.474-1.317-9.322-20.625-4.129-43.124" clip-path="url(#a)" fill="#2a3433"/>
    <path d="m382.34 589.73c5.161-22.357 15.365-39.418 22.793-38.108 7.427 1.311 9.263 20.494 4.102 42.852-5.161 22.356-15.366 39.418-22.793 38.107-7.427-1.309-9.263-20.494-4.102-42.851" clip-path="url(#a)" fill="#2c3635"/>
    <path d="m382.43 589.74c5.128-22.214 15.268-39.167 22.648-37.865 7.379 1.301 9.203 20.364 4.075 42.578-5.129 22.214-15.268 39.167-22.647 37.864-7.378-1.3-9.204-20.363-4.076-42.577" clip-path="url(#a)" fill="#2e3837"/>
    <path d="m382.51 589.76c5.097-22.072 15.17-38.916 22.502-37.623 7.333 1.294 9.146 20.234 4.052 42.307-5.097 22.071-15.17 38.915-22.504 37.622-7.331-1.295-9.145-20.234-4.05-42.306" clip-path="url(#a)" fill="#2f3a39"/>
    <path d="m382.6 589.77c5.063-21.929 15.071-38.665 22.356-37.38 7.286 1.285 9.087 20.103 4.025 42.032-5.063 21.93-15.073 38.665-22.358 37.38-7.285-1.284-9.086-20.103-4.023-42.032" clip-path="url(#a)" fill="#313c3b"/>
    <path d="m382.68 589.79c5.03-21.787 14.974-38.414 22.212-37.138s9.027 19.973 3.998 41.76c-5.03 21.787-14.975 38.414-22.212 37.138-7.238-1.277-9.028-19.973-3.998-41.76" clip-path="url(#a)" fill="#323e3d"/>
    <path d="m382.77 589.8c4.997-21.645 14.876-38.163 22.067-36.894 7.189 1.268 8.968 19.841 3.972 41.486-4.997 21.645-14.877 38.162-22.066 36.895-7.192-1.268-8.97-19.842-3.973-41.487" clip-path="url(#a)" fill="#33403f"/>
    <path d="m382.86 589.82c4.964-21.502 14.778-37.912 21.922-36.652 7.143 1.261 8.909 19.712 3.944 41.214-4.964 21.502-14.777 37.912-21.921 36.652s-8.91-19.712-3.945-41.214" clip-path="url(#a)" fill="#354241"/>
    <path d="m382.94 589.83c4.931-21.359 14.681-37.66 21.777-36.408 7.095 1.251 8.85 19.581 3.919 40.939-4.932 21.36-14.682 37.661-21.776 36.41-7.096-1.251-8.852-19.581-3.92-40.941" clip-path="url(#a)" fill="#364342"/>
    <path d="m383.03 589.85c4.898-21.217 14.583-37.409 21.631-36.166 7.049 1.243 8.792 19.45 3.895 40.667-4.898 21.218-14.583 37.41-21.631 36.167-7.05-1.244-8.793-19.451-3.895-40.668" clip-path="url(#a)" fill="#384543"/>
    <path d="m383.11 589.86c4.865-21.075 14.485-37.158 21.486-35.925 7.001 1.235 8.733 19.32 3.867 40.396-4.865 21.075-14.485 37.159-21.486 35.924s-8.731-19.321-3.867-40.395" clip-path="url(#a)" fill="#3a4644"/>
    <path d="m383.2 589.88c4.833-20.933 14.387-36.907 21.341-35.681s8.674 19.189 3.841 40.122-14.387 36.907-21.341 35.681c-6.955-1.226-8.674-19.189-3.841-40.122" clip-path="url(#a)" fill="#3c4845"/>
    <path d="m383.28 589.89c4.8-20.79 14.289-36.656 21.196-35.438 6.906 1.218 8.614 19.059 3.814 39.85-4.8 20.79-14.289 36.655-21.195 35.438-6.907-1.22-8.615-19.06-3.815-39.85" clip-path="url(#a)" fill="#3d4946"/>
    <path d="m383.37 589.91c4.768-20.647 14.191-36.404 21.052-35.195 6.858 1.21 8.555 18.929 3.788 39.576s-14.191 36.405-21.051 35.195c-6.859-1.21-8.556-18.927-3.789-39.576" clip-path="url(#a)" fill="#3f4b48"/>
    <path d="m383.45 589.92c4.733-20.505 14.093-36.153 20.904-34.953 6.813 1.202 8.497 18.799 3.764 39.304-4.734 20.506-14.095 36.154-20.906 34.953s-8.497-18.798-3.762-39.304" clip-path="url(#a)" fill="#404c49"/>
    <path d="m383.54 589.94c4.7-20.363 13.995-35.903 20.76-34.71s8.438 18.667 3.736 39.03c-4.7 20.362-13.996 35.902-20.761 34.71-6.763-1.193-8.436-18.666-3.735-39.03" clip-path="url(#a)" fill="#424e4b"/>
    <path d="m383.63 589.95c4.668-20.221 13.897-35.651 20.615-34.467s8.379 18.536 3.71 38.757c-4.668 20.221-13.897 35.652-20.615 34.468-6.716-1.185-8.378-18.536-3.71-38.758" clip-path="url(#a)" fill="#434f4c"/>
    <path d="m383.71 589.97c4.635-20.078 13.8-35.401 20.47-34.225 6.671 1.177 8.32 18.405 3.685 38.484-4.635 20.078-13.799 35.401-20.47 34.225s-8.319-18.406-3.685-38.484" clip-path="url(#a)" fill="#45514e"/>
    <path d="m383.8 589.98c4.602-19.937 13.701-35.15 20.324-33.982s8.262 18.276 3.658 38.212c-4.602 19.936-13.702 35.149-20.325 33.981s-8.259-18.275-3.657-38.211" clip-path="url(#a)" fill="#46524f"/>
    <path d="m383.88 590c4.569-19.793 13.604-34.898 20.18-33.738 6.575 1.159 8.201 18.145 3.631 37.938-4.568 19.794-13.604 34.899-20.179 33.739-6.576-1.16-8.202-18.146-3.632-37.939" clip-path="url(#a)" fill="#485451"/>
    <path d="m383.97 590.01c4.537-19.651 13.506-34.648 20.034-33.497 6.529 1.152 8.143 18.015 3.605 37.666-4.536 19.65-13.506 34.646-20.033 33.496-6.528-1.152-8.143-18.015-3.606-37.665" clip-path="url(#a)" fill="#495552"/>
    <path d="m384.06 590.03c4.504-19.509 13.408-34.396 19.89-33.254 6.48 1.144 8.084 17.885 3.58 37.394-4.505 19.508-13.408 34.396-19.89 33.253-6.48-1.144-8.084-17.883-3.58-37.393" clip-path="url(#a)" fill="#4b5754"/>
    <path d="m384.14 590.05c4.471-19.366 13.311-34.146 19.744-33.011 6.434 1.135 8.024 17.754 3.554 37.12-4.471 19.365-13.312 34.145-19.744 33.011-6.434-1.135-8.026-17.754-3.554-37.12" clip-path="url(#a)" fill="#4c5855"/>
    <path d="m384.23 590.06c4.438-19.224 13.213-33.894 19.599-32.768 6.387 1.126 7.967 17.623 3.528 36.847-4.438 19.224-13.213 33.894-19.599 32.768-6.387-1.127-7.966-17.624-3.528-36.847" clip-path="url(#a)" fill="#4d5a57"/>
    <path d="m384.31 590.08c4.405-19.081 13.115-33.644 19.454-32.525s7.906 17.492 3.501 36.574c-4.405 19.081-13.115 33.643-19.454 32.524-6.339-1.117-7.905-17.492-3.501-36.573" clip-path="url(#a)" fill="#4f5c58"/>
    <path d="m384.4 590.09c4.371-18.938 13.017-33.392 19.309-32.283 6.291 1.11 7.847 17.362 3.475 36.302-4.373 18.938-13.017 33.392-19.309 32.282-6.291-1.11-7.847-17.362-3.475-36.301" clip-path="url(#a)" fill="#515d5a"/>
    <path d="m384.48 590.1c4.339-18.797 12.919-33.142 19.163-32.04 6.245 1.101 7.789 17.23 3.45 36.028-4.341 18.796-12.92 33.141-19.164 32.039-6.244-1.1-7.788-17.23-3.449-36.027" clip-path="url(#a)" fill="#525e5b"/>
    <path d="m384.57 590.12c4.308-18.653 12.821-32.89 19.019-31.797 6.196 1.093 7.729 17.101 3.423 35.755s-12.821 32.891-19.019 31.797c-6.197-1.093-7.73-17.101-3.423-35.755" clip-path="url(#a)" fill="#55605d"/>
    <path d="m384.65 590.14c4.274-18.512 12.724-32.639 18.873-31.554 6.15 1.084 7.671 16.97 3.397 35.481s-12.724 32.64-18.873 31.555c-6.15-1.086-7.671-16.971-3.397-35.482" clip-path="url(#a)" fill="#57615e"/>
    <path d="m384.74 590.15c4.241-18.369 12.625-32.388 18.728-31.312s7.611 16.84 3.37 35.209c-4.24 18.369-12.625 32.388-18.727 31.312-6.104-1.075-7.612-16.839-3.371-35.209" clip-path="url(#a)" fill="#586360"/>
    <path d="m384.83 590.17c4.208-18.227 12.528-32.137 18.583-31.069s7.552 16.709 3.344 34.937c-4.208 18.227-12.526 32.137-18.582 31.068-6.056-1.068-7.553-16.709-3.345-34.936" clip-path="url(#a)" fill="#5a6461"/>
    <path d="m384.91 590.18c4.176-18.085 12.431-31.887 18.438-30.826 6.007 1.059 7.493 16.578 3.318 34.663-4.176 18.085-12.431 31.886-18.438 30.826s-7.493-16.578-3.318-34.663" clip-path="url(#a)" fill="#5c6562"/>
    <path d="m385 590.2c4.142-17.942 12.332-31.636 18.292-30.584 5.961 1.052 7.435 16.448 3.293 34.391-4.143 17.942-12.332 31.635-18.293 30.583-5.96-1.051-7.435-16.448-3.292-34.39" clip-path="url(#a)" fill="#5e6764"/>
    <path d="m385.08 590.21c4.109-17.8 12.234-31.384 18.146-30.341 5.913 1.043 7.375 16.317 3.267 34.117-4.109 17.8-12.234 31.384-18.147 30.341s-7.376-16.317-3.266-34.117" clip-path="url(#a)" fill="#5f6865"/>
    <path d="m385.17 590.22c4.076-17.658 12.137-31.133 18.002-30.099 5.866 1.034 7.316 16.188 3.24 33.845-4.077 17.657-12.136 31.133-18.002 30.098s-7.315-16.187-3.24-33.844" clip-path="url(#a)" fill="#616965"/>
    <path d="m385.26 590.24c4.044-17.515 12.038-30.882 17.856-29.854 5.818 1.025 7.257 16.056 3.214 33.571-4.044 17.515-12.038 30.882-17.856 29.855-5.819-1.027-7.258-16.056-3.214-33.572" clip-path="url(#a)" fill="#636b67"/>
    <path d="m385.34 590.26c4.011-17.373 11.94-30.631 17.712-29.613 5.771 1.019 7.198 15.926 3.188 33.299-4.012 17.373-11.941 30.631-17.713 29.613-5.77-1.018-7.197-15.926-3.187-33.299" clip-path="url(#a)" fill="#656d68"/>
    <path d="m385.43 590.27c3.979-17.229 11.843-30.379 17.567-29.369 5.724 1.009 7.139 15.795 3.161 33.024-3.978 17.231-11.842 30.38-17.566 29.37-5.723-1.009-7.139-15.795-3.162-33.025" clip-path="url(#a)" fill="#676e69"/>
    <path d="m385.51 590.29c3.944-17.088 11.744-30.128 17.421-29.127s7.081 15.664 3.136 32.752-11.745 30.129-17.422 29.128c-5.676-1.002-7.08-15.665-3.135-32.753" clip-path="url(#a)" fill="#696f6a"/>
    <path d="m385.6 590.3c3.912-16.945 11.646-29.877 17.275-28.886 5.63 0.993 7.021 15.535 3.109 32.48-3.912 16.946-11.646 29.878-17.276 28.885-5.628-0.993-7.02-15.535-3.108-32.479" clip-path="url(#a)" fill="#6a716c"/>
    <path d="m385.68 590.32c3.879-16.803 11.549-29.626 17.131-28.642s6.962 15.404 3.083 32.207-11.549 29.626-17.131 28.642-6.962-15.403-3.083-32.207" clip-path="url(#a)" fill="#6d726d"/>
    <path d="m385.77 590.33c3.846-16.661 11.45-29.375 16.985-28.398 5.535 0.976 6.903 15.272 3.058 31.934-3.847 16.66-11.451 29.375-16.986 28.399-5.535-0.977-6.904-15.274-3.057-31.935" clip-path="url(#a)" fill="#6e746f"/>
    <path d="m385.85 590.34c3.813-16.519 11.353-29.124 16.84-28.157 5.488 0.968 6.845 15.144 3.031 31.661-3.813 16.519-11.354 29.125-16.84 28.157-5.487-0.969-6.844-15.144-3.031-31.661" clip-path="url(#a)" fill="#6f7670"/>
    <path d="m385.94 590.36c3.781-16.376 11.255-28.873 16.695-27.914 5.439 0.96 6.786 15.013 3.005 31.389-3.78 16.376-11.255 28.873-16.695 27.914s-6.786-15.013-3.005-31.389" clip-path="url(#a)" fill="#717772"/>
    <path d="m386.02 590.38c3.748-16.233 11.157-28.622 16.551-27.671 5.393 0.951 6.727 14.882 2.979 31.115s-11.157 28.622-16.55 27.671c-5.394-0.951-6.728-14.882-2.98-31.115" clip-path="url(#a)" fill="#737873"/>
    <path d="m386.11 590.39c3.715-16.091 11.06-28.37 16.404-27.428 5.347 0.942 6.667 14.751 2.953 30.842-3.715 16.092-11.06 28.371-16.404 27.429-5.347-0.944-6.669-14.752-2.953-30.843" clip-path="url(#a)" fill="#757a75"/>
    <path d="m386.2 590.41c3.682-15.949 10.962-28.12 16.26-27.185 5.298 0.934 6.608 14.619 2.928 30.568-3.683 15.948-10.963 28.119-16.261 27.186-5.299-0.934-6.609-14.62-2.927-30.569" clip-path="url(#a)" fill="#767c77"/>
    <path d="m386.28 590.42c3.649-15.807 10.864-27.869 16.114-26.943 5.251 0.926 6.55 14.49 2.901 30.297s-10.864 27.868-16.115 26.942-6.549-14.49-2.9-30.296" clip-path="url(#a)" fill="#777d79"/>
    <path d="m386.37 590.44c3.615-15.664 10.766-27.618 15.969-26.699 5.204 0.918 6.491 14.359 2.875 30.022-3.617 15.664-10.767 27.618-15.97 26.7-5.203-0.916-6.491-14.358-2.874-30.023" clip-path="url(#a)" fill="#797f7a"/>
    <path d="m386.45 590.46c3.583-15.521 10.668-27.367 15.824-26.457 5.157 0.909 6.432 14.229 2.848 29.75-3.583 15.521-10.668 27.367-15.824 26.457-5.156-0.909-6.431-14.229-2.848-29.75" clip-path="url(#a)" fill="#7a817c"/>
    <path d="m386.54 590.46c3.55-15.379 10.57-27.116 15.68-26.215 5.108 0.9 6.372 14.099 2.821 29.478-3.55 15.379-10.569 27.115-15.679 26.214s-6.372-14.098-2.822-29.477" clip-path="url(#a)" fill="#7b827e"/>
    <path d="m386.63 590.48c3.518-15.236 10.472-26.863 15.533-25.972 5.063 0.893 6.314 13.968 2.797 29.205-3.518 15.236-10.473 26.864-15.534 25.971-5.062-0.891-6.314-13.966-2.796-29.204" clip-path="url(#a)" fill="#7d8480"/>
    <path d="m386.71 590.5c3.484-15.094 10.374-26.613 15.389-25.729 5.014 0.884 6.254 13.837 2.77 28.932-3.484 15.094-10.374 26.613-15.389 25.729s-6.255-13.838-2.77-28.932" clip-path="url(#a)" fill="#7e8582"/>
    <path d="m386.8 590.51c3.452-14.952 10.276-26.362 15.243-25.486 4.968 0.876 6.196 13.707 2.744 28.659-3.452 14.951-10.276 26.361-15.243 25.485s-6.196-13.707-2.744-28.658" clip-path="url(#a)" fill="#818783"/>
    <path d="m386.88 590.53c3.419-14.81 10.18-26.111 15.099-25.244 4.92 0.868 6.137 13.576 2.718 28.387-3.419 14.809-10.179 26.11-15.098 25.242-4.92-0.866-6.138-13.575-2.719-28.385" clip-path="url(#a)" fill="#828885"/>
    <path d="m386.97 590.54c3.386-14.667 10.081-25.86 14.953-25.001 4.873 0.858 6.078 13.445 2.691 28.113-3.386 14.666-10.081 25.859-14.954 25.001-4.871-0.86-6.075-13.446-2.69-28.113" clip-path="url(#a)" fill="#848986"/>
    <path d="m387.05 590.56c3.353-14.524 9.983-25.608 14.808-24.758 4.825 0.852 6.019 13.315 2.665 27.84-3.353 14.524-9.982 25.609-14.808 24.759-4.825-0.852-6.017-13.316-2.665-27.841" clip-path="url(#a)" fill="#868b88"/>
    <path d="m387.14 590.58c3.32-14.382 9.886-25.358 14.663-24.515 4.778 0.842 5.959 13.184 2.64 27.566-3.321 14.382-9.886 25.358-14.663 24.516-4.778-0.843-5.959-13.185-2.64-27.567" clip-path="url(#a)" fill="#888d89"/>
    <path d="m387.22 590.59c3.287-14.24 9.787-25.107 14.518-24.273s5.9 13.054 2.613 27.294c-3.288 14.24-9.788 25.107-14.519 24.273s-5.899-13.055-2.612-27.294" clip-path="url(#a)" fill="#8a8e8a"/>
    <path d="m387.31 590.6c3.255-14.098 9.689-24.855 14.373-24.029 4.683 0.826 5.841 12.923 2.586 27.021-3.254 14.098-9.689 24.856-14.372 24.03s-5.842-12.925-2.587-27.022" clip-path="url(#a)" fill="#8b8f8b"/>
    <path d="m387.4 590.62c3.223-13.955 9.591-24.605 14.228-23.787 4.636 0.817 5.783 12.793 2.561 26.748-3.221 13.955-9.591 24.605-14.227 23.787-4.636-0.817-5.784-12.793-2.562-26.748" clip-path="url(#a)" fill="#8d908c"/>
    <path d="m387.48 590.63c3.188-13.813 9.492-24.354 14.082-23.544 4.589 0.809 5.723 12.662 2.533 26.475-3.188 13.813-9.492 24.353-14.082 23.544-4.588-0.809-5.722-12.663-2.533-26.475" clip-path="url(#a)" fill="#8f928d"/>
    <path d="m387.57 590.65c3.156-13.67 9.396-24.103 13.937-23.302s5.664 12.532 2.509 26.202c-3.156 13.67-9.396 24.103-13.938 23.302-4.541-0.8-5.664-12.532-2.508-26.202" clip-path="url(#a)" fill="#91938f"/>
    <path d="m387.65 590.66c3.123-13.528 9.298-23.853 13.792-23.06 4.494 0.792 5.605 12.401 2.482 25.93-3.123 13.527-9.298 23.852-13.792 23.059-4.494-0.792-5.605-12.402-2.482-25.929" clip-path="url(#a)" fill="#929590"/>
    <path d="m387.74 590.68c3.09-13.386 9.199-23.601 13.646-22.815 4.446 0.784 5.546 12.27 2.456 25.656-3.09 13.385-9.2 23.6-13.647 22.815-4.445-0.784-5.546-12.271-2.455-25.656" clip-path="url(#a)" fill="#949691"/>
    <path d="m387.82 590.7c3.057-13.243 9.102-23.349 13.502-22.574 4.398 0.776 5.487 12.142 2.43 25.385-3.058 13.242-9.102 23.349-13.502 22.572-4.399-0.775-5.488-12.14-2.43-25.383" clip-path="url(#a)" fill="#959793"/>
    <path d="m387.91 590.71c3.024-13.101 9.004-23.099 13.356-22.33 4.352 0.767 5.428 12.009 2.403 25.109-3.023 13.102-9.004 23.1-13.355 22.331-4.353-0.766-5.428-12.008-2.404-25.11" clip-path="url(#a)" fill="#989994"/>
    <path d="m387.99 590.72c2.992-12.958 8.906-22.847 13.212-22.088 4.305 0.759 5.368 11.879 2.378 24.837-2.992 12.958-8.906 22.848-13.211 22.088-4.306-0.759-5.371-11.879-2.379-24.837" clip-path="url(#a)" fill="#989a95"/>
    <path d="m388.08 590.74c2.959-12.815 8.808-22.596 13.065-21.846 4.257 0.751 5.311 11.749 2.353 24.564-2.959 12.816-8.81 22.597-13.066 21.846-4.259-0.749-5.311-11.747-2.352-24.564" clip-path="url(#a)" fill="#9b9c97"/>
    <path d="m388.17 590.75c2.926-12.675 8.71-22.346 12.921-21.604 4.21 0.743 5.251 11.618 2.325 24.292-2.925 12.674-8.71 22.345-12.92 21.604-4.211-0.743-5.252-11.618-2.326-24.292" clip-path="url(#a)" fill="#9c9d98"/>
    <path d="m388.25 590.77c2.894-12.53 8.613-22.094 12.775-21.359 4.163 0.733 5.191 11.487 2.299 24.019-2.892 12.531-8.612 22.094-12.775 21.36-4.162-0.736-5.192-11.489-2.299-24.02" clip-path="url(#a)" fill="#9d9e9a"/>
    <path d="m388.34 590.78c2.859-12.389 8.515-21.843 12.63-21.117 4.116 0.725 5.133 11.357 2.272 23.745-2.859 12.389-8.514 21.843-12.63 21.118-4.114-0.726-5.132-11.357-2.272-23.746" clip-path="url(#a)" fill="#9fa09b"/>
    <path d="m388.42 590.8c2.827-12.246 8.417-21.592 12.485-20.874 4.067 0.718 5.073 11.227 2.246 23.473-2.826 12.247-8.417 21.592-12.484 20.875-4.068-0.719-5.074-11.228-2.247-23.474" clip-path="url(#a)" fill="#a0a19d"/>
    <path d="m388.51 590.82c2.794-12.104 8.319-21.341 12.34-20.632s5.016 11.096 2.222 23.2-8.319 21.341-12.34 20.632c-4.022-0.708-5.016-11.095-2.222-23.2" clip-path="url(#a)" fill="#a2a39f"/>
    <path d="m388.6 590.83c2.761-11.962 8.221-21.091 12.194-20.39 3.975 0.701 4.956 10.966 2.195 22.927-2.762 11.963-8.221 21.091-12.195 20.39-3.973-0.701-4.956-10.965-2.194-22.927" clip-path="url(#a)" fill="#a3a4a0"/>
    <path d="m388.68 590.84c2.729-11.818 8.123-20.839 12.049-20.146 3.927 0.691 4.898 10.834 2.169 22.652-2.728 11.82-8.123 20.839-12.049 20.147-3.927-0.692-4.898-10.834-2.169-22.653" clip-path="url(#a)" fill="#a5a6a2"/>
    <path d="m388.76 590.86c2.696-11.677 8.025-20.588 11.904-19.904 3.879 0.685 4.839 10.705 2.143 22.381-2.695 11.677-8.024 20.588-11.903 19.904-3.88-0.684-4.84-10.704-2.144-22.381" clip-path="url(#a)" fill="#a5a7a3"/>
    <path d="m388.85 590.87c2.662-11.534 7.928-20.337 11.759-19.661 3.832 0.676 4.779 10.574 2.116 22.107-2.662 11.535-7.928 20.338-11.759 19.661-3.832-0.675-4.779-10.573-2.116-22.107" clip-path="url(#a)" fill="#a7a9a5"/>
    <path d="m388.94 590.89c2.63-11.392 7.83-20.086 11.614-19.418 3.784 0.667 4.721 10.443 2.091 21.835-2.63 11.393-7.83 20.086-11.615 19.418-3.784-0.667-4.72-10.443-2.09-21.835" clip-path="url(#a)" fill="#a8aaa7"/>
    <path d="m389.02 590.9c2.597-11.249 7.732-19.835 11.469-19.176 3.737 0.658 4.661 10.313 2.064 21.563-2.597 11.249-7.731 19.834-11.469 19.175-3.737-0.658-4.661-10.313-2.064-21.562" clip-path="url(#a)" fill="#aaaca8"/>
    <path d="m389.11 590.92c2.564-11.106 7.635-19.583 11.324-18.933 3.689 0.651 4.603 10.183 2.038 21.29s-7.634 19.583-11.324 18.932c-3.689-0.649-4.602-10.182-2.038-21.289" clip-path="url(#a)" fill="#aaada9"/>
    <path d="m389.19 590.94c2.53-10.965 7.536-19.332 11.178-18.69 3.643 0.644 4.544 10.053 2.012 21.017-2.53 10.965-7.536 19.333-11.178 18.689-3.642-0.642-4.543-10.052-2.012-21.016" clip-path="url(#a)" fill="#acaeab"/>
    <path d="m389.28 590.95c2.498-10.822 7.438-19.081 11.033-18.447 3.596 0.634 4.484 9.921 1.986 20.743s-7.438 19.082-11.033 18.446c-3.596-0.633-4.484-9.921-1.986-20.742" clip-path="url(#a)" fill="#adafac"/>
    <path d="m389.36 590.96c2.467-10.68 7.341-18.83 10.889-18.205 3.548 0.626 4.426 9.791 1.96 20.472-2.465 10.68-7.34 18.829-10.889 18.203-3.548-0.625-4.425-9.79-1.96-20.47" clip-path="url(#a)" fill="#afb0ad"/>
    <path d="m389.45 590.98c2.433-10.538 7.241-18.579 10.742-17.962 3.5 0.618 4.366 9.66 1.934 20.198-2.432 10.536-7.242 18.578-10.743 17.961-3.501-0.616-4.367-9.659-1.933-20.197" clip-path="url(#a)" fill="#b0b1ae"/>
    <path d="m389.54 591c2.4-10.395 7.145-18.327 10.598-17.719 3.453 0.609 4.308 9.53 1.907 19.925-2.4 10.396-7.144 18.328-10.598 17.72-3.453-0.61-4.308-9.53-1.907-19.926" clip-path="url(#a)" fill="#b2b2ae"/>
    <path d="m389.62 591.01c2.367-10.253 7.047-18.076 10.453-17.476s4.248 9.399 1.881 19.652c-2.367 10.252-7.047 18.075-10.453 17.476-3.406-0.6-4.249-9.399-1.881-19.652" clip-path="url(#a)" fill="#b3b3af"/>
    <path d="m389.71 591.02c2.334-10.11 6.949-17.826 10.309-17.234 3.357 0.593 4.188 9.27 1.854 19.379-2.334 10.11-6.949 17.826-10.308 17.234-3.357-0.592-4.189-9.269-1.855-19.379" clip-path="url(#a)" fill="#b4b4b0"/>
    <path d="m389.8 591.04c2.301-9.969 6.851-17.575 10.161-16.991 3.313 0.584 4.132 9.138 1.83 19.105-2.302 9.969-6.851 17.575-10.163 16.991-3.31-0.583-4.129-9.137-1.828-19.105" clip-path="url(#a)" fill="#b6b5b1"/>
    <path d="m389.88 591.06c2.268-9.826 6.753-17.324 10.017-16.748s4.071 9.007 1.803 18.833c-2.268 9.825-6.753 17.324-10.017 16.748s-4.071-9.007-1.803-18.833" clip-path="url(#a)" fill="#b7b6b2"/>
    <path d="m389.97 591.07c2.235-9.684 6.655-17.073 9.872-16.505 3.217 0.566 4.012 8.876 1.777 18.56-2.236 9.683-6.656 17.072-9.872 16.505s-4.012-8.877-1.777-18.56" clip-path="url(#a)" fill="#b8b8b4"/>
    <path d="m390.05 591.09c2.203-9.541 6.558-16.821 9.728-16.262 3.169 0.559 3.953 8.746 1.75 18.287-2.202 9.54-6.557 16.821-9.727 16.262s-3.953-8.746-1.751-18.287" clip-path="url(#a)" fill="#bab9b5"/>
    <path d="m390.14 591.1c2.17-9.398 6.459-16.571 9.582-16.021 3.122 0.551 3.894 8.616 1.724 18.015-2.169 9.397-6.459 16.57-9.581 16.02-3.123-0.552-3.895-8.617-1.725-18.014" clip-path="url(#a)" fill="#bbbab6"/>
    <path d="m390.22 591.12c2.137-9.256 6.361-16.319 9.436-15.776 3.075 0.542 3.836 8.484 1.698 17.741-2.136 9.256-6.36 16.318-9.436 15.776s-3.835-8.484-1.698-17.741" clip-path="url(#a)" fill="#bbbbb6"/>
    <path d="m390.31 591.13c2.104-9.113 6.265-16.068 9.291-15.534 3.028 0.534 3.776 8.354 1.672 17.468-2.104 9.113-6.263 16.068-9.291 15.534-3.026-0.535-3.775-8.354-1.672-17.468" clip-path="url(#a)" fill="#bcbcb8"/>
    <path d="m390.4 591.15c2.07-8.971 6.166-15.817 9.146-15.292 2.98 0.526 3.717 8.225 1.646 17.196s-6.166 15.816-9.146 15.291-3.717-8.224-1.646-17.195" clip-path="url(#a)" fill="#bebdb9"/>
    <path d="m390.48 591.16c2.038-8.828 6.067-15.565 9.001-15.049 2.933 0.518 3.658 8.094 1.62 16.922-2.038 8.829-6.068 15.566-9.001 15.05-2.934-0.518-3.658-8.094-1.62-16.923" clip-path="url(#a)" fill="#bfbeba"/>
    <path d="m390.57 591.18c2.005-8.686 5.97-15.314 8.856-14.806 2.886 0.509 3.599 7.963 1.594 16.648-2.006 8.687-5.97 15.315-8.856 14.807-2.886-0.509-3.599-7.963-1.594-16.649" clip-path="url(#a)" fill="#c0bfbb"/>
    <path d="m390.65 591.19c1.974-8.544 5.872-15.064 8.71-14.563 2.84 0.5 3.54 7.832 1.568 16.376s-5.872 15.064-8.71 14.563c-2.839-0.5-3.54-7.832-1.568-16.376" clip-path="url(#a)" fill="#c1c0bc"/>
    <path d="m390.74 591.21c1.939-8.4 5.773-14.813 8.564-14.32s3.481 7.701 1.542 16.104c-1.939 8.401-5.773 14.813-8.564 14.321-2.791-0.494-3.482-7.703-1.542-16.105" clip-path="url(#a)" fill="#c2c1bd"/>
    <path d="m390.82 591.22c1.907-8.259 5.676-14.563 8.42-14.078s3.422 7.571 1.517 15.83c-1.907 8.259-5.678 14.562-8.422 14.078-2.743-0.484-3.422-7.572-1.515-15.83" clip-path="url(#a)" fill="#c3c2bf"/>
    <path d="m390.91 591.24c1.873-8.116 5.578-14.311 8.274-13.835s3.363 7.44 1.489 15.558c-1.873 8.117-5.578 14.311-8.275 13.835-2.695-0.476-3.362-7.441-1.488-15.558" clip-path="url(#a)" fill="#c4c3c0"/>
    <path d="m391 591.25c1.841-7.974 5.48-14.06 8.13-13.593 2.649 0.468 3.304 7.311 1.463 15.285s-5.48 14.06-8.13 13.593c-2.65-0.468-3.304-7.311-1.463-15.285" clip-path="url(#a)" fill="#c6c5c2"/>
    <path d="m391.08 591.27c1.808-7.832 5.383-13.81 7.985-13.351 2.601 0.459 3.244 7.181 1.436 15.013s-5.382 13.809-7.984 13.35c-2.602-0.46-3.245-7.18-1.437-15.012" clip-path="url(#a)" fill="#c6c6c4"/>
    <path d="m391.16 591.28c1.775-7.689 5.285-13.558 7.839-13.106 2.556 0.45 3.188 7.049 1.411 14.738-1.774 7.689-5.284 13.558-7.839 13.107s-3.186-7.048-1.411-14.739" clip-path="url(#a)" fill="#c7c7c5"/>
    <path d="m391.25 591.3c1.742-7.547 5.187-13.307 7.693-12.865 2.508 0.443 3.127 6.919 1.386 14.467-1.742 7.547-5.188 13.307-7.694 12.864-2.507-0.442-3.127-6.919-1.385-14.466" clip-path="url(#a)" fill="#c8c8c6"/>
    <path d="m391.34 591.31c1.709-7.405 5.089-13.057 7.549-12.622 2.46 0.434 3.068 6.789 1.359 14.192-1.71 7.405-5.089 13.057-7.549 12.622-2.459-0.434-3.068-6.787-1.359-14.192" clip-path="url(#a)" fill="#cacac8"/>
    <path d="m391.42 591.33c1.677-7.262 4.991-12.804 7.404-12.379 2.412 0.426 3.009 6.658 1.332 13.92-1.676 7.264-4.991 12.806-7.404 12.379-2.412-0.425-3.008-6.657-1.332-13.92" clip-path="url(#a)" fill="#cbcac8"/>
    <path d="m391.51 591.34c1.644-7.12 4.893-12.553 7.259-12.136 2.365 0.417 2.95 6.526 1.306 13.646s-4.894 12.554-7.259 12.137-2.95-6.527-1.306-13.647" clip-path="url(#a)" fill="#cbcbc9"/>
    <path d="m391.59 591.36c1.611-6.979 4.796-12.303 7.114-11.895 2.316 0.409 2.891 6.397 1.279 13.374-1.61 6.979-4.796 12.303-7.113 11.895-2.318-0.409-2.891-6.396-1.28-13.374" clip-path="url(#a)" fill="#ccccc9"/>
    <path d="m391.68 591.37c1.578-6.835 4.698-12.051 6.968-11.651 2.271 0.401 2.833 6.267 1.256 13.102-1.578 6.835-4.698 12.052-6.97 11.65-2.269-0.4-2.832-6.266-1.254-13.101" clip-path="url(#a)" fill="#cdcdca"/>
    <path d="m391.77 591.39c1.545-6.693 4.6-11.8 6.822-11.408 2.225 0.392 2.774 6.136 1.229 12.828s-4.601 11.8-6.823 11.408c-2.223-0.393-2.774-6.136-1.228-12.828" clip-path="url(#a)" fill="#cecdca"/>
    <path d="m391.85 591.4c1.512-6.55 4.502-11.549 6.678-11.165 2.176 0.383 2.714 6.004 1.202 12.556-1.514 6.55-4.502 11.549-6.679 11.164-2.175-0.384-2.714-6.005-1.201-12.555" clip-path="url(#a)" fill="#cfcecb"/>
    <path d="m391.94 591.42c1.479-6.408 4.404-11.298 6.533-10.923 2.128 0.376 2.655 5.875 1.176 12.283-1.48 6.407-4.405 11.298-6.533 10.922-2.129-0.375-2.654-5.874-1.176-12.282" clip-path="url(#a)" fill="#d0cfcb"/>
    <path d="m392.02 591.43c1.445-6.267 4.306-11.047 6.388-10.681 2.081 0.367 2.596 5.744 1.148 12.011-1.445 6.265-4.306 11.047-6.387 10.68-2.082-0.369-2.595-5.745-1.149-12.01" clip-path="url(#a)" fill="#d1d1cd"/>
    <path d="m392.11 591.45c1.414-6.123 4.208-10.796 6.243-10.437 2.033 0.359 2.537 5.613 1.123 11.736-1.414 6.124-4.208 10.796-6.242 10.437-2.035-0.357-2.538-5.613-1.124-11.736" clip-path="url(#a)" fill="#d2d1cd"/>
    <path d="m392.19 591.46c1.381-5.981 4.111-10.545 6.097-10.194 1.987 0.351 2.479 5.483 1.099 11.464s-4.111 10.544-6.099 10.194c-1.986-0.351-2.478-5.484-1.097-11.464" clip-path="url(#a)" fill="#d3d2ce"/>
    <path d="m392.28 591.48c1.349-5.839 4.014-10.294 5.952-9.952 1.939 0.342 2.419 5.352 1.071 11.19s-4.013 10.293-5.952 9.951c-1.938-0.342-2.419-5.352-1.071-11.189" clip-path="url(#a)" fill="#d4d3cf"/>
    <path d="m392.36 591.49c1.314-5.696 3.915-10.043 5.807-9.709s2.36 5.222 1.045 10.918c-1.314 5.696-3.915 10.042-5.807 9.709-1.893-0.334-2.361-5.222-1.045-10.918" clip-path="url(#a)" fill="#d5d4d0"/>
    <path d="m392.45 591.51c1.282-5.555 3.816-9.792 5.662-9.466 1.845 0.324 2.301 5.091 1.019 10.645-1.282 5.553-3.816 9.791-5.662 9.466-1.845-0.327-2.302-5.092-1.019-10.645" clip-path="url(#a)" fill="#d6d5d1"/>
    <path d="m392.54 591.53c1.249-5.411 3.72-9.54 5.518-9.223 1.797 0.317 2.241 4.96 0.992 10.371-1.25 5.412-3.719 9.541-5.517 9.224-1.798-0.316-2.242-4.96-0.993-10.372" clip-path="url(#a)" fill="#d6d5d1"/>
    <path d="m392.62 591.54c1.217-5.27 3.621-9.29 5.371-8.981 1.75 0.31 2.184 4.83 0.968 10.1-1.218 5.269-3.621 9.288-5.371 8.98-1.752-0.309-2.184-4.83-0.968-10.099" clip-path="url(#a)" fill="#d7d6d2"/>
    <path d="m392.71 591.55c1.184-5.126 3.522-9.039 5.226-8.738 1.703 0.3 2.124 4.699 0.941 9.826-1.185 5.126-3.524 9.038-5.227 8.738-1.702-0.301-2.124-4.7-0.94-9.826" clip-path="url(#a)" fill="#d8d7d3"/>
    <path d="m392.79 591.57c1.151-4.983 3.426-8.786 5.081-8.494 1.656 0.292 2.065 4.568 0.914 9.553-1.15 4.983-3.425 8.787-5.081 8.495s-2.065-4.569-0.914-9.554" clip-path="url(#a)" fill="#d9d8d4"/>
    <path d="m392.88 591.58c1.117-4.842 3.327-8.536 4.936-8.253 1.608 0.284 2.006 4.439 0.888 9.281-1.116 4.841-3.327 8.536-4.936 8.252s-2.006-4.439-0.888-9.28" clip-path="url(#a)" fill="#dad9d5"/>
    <path d="m392.96 591.6c1.085-4.699 3.229-8.285 4.791-8.011 1.561 0.275 1.947 4.309 0.861 9.007-1.085 4.699-3.229 8.285-4.79 8.011-1.561-0.276-1.947-4.309-0.862-9.007" clip-path="url(#a)" fill="#dbdad6"/>
    <path d="m393.05 591.61c1.052-4.557 3.132-8.034 4.646-7.767s1.888 4.177 0.836 8.733c-1.053 4.558-3.131 8.034-4.646 7.768-1.513-0.267-1.887-4.177-0.836-8.734" clip-path="url(#a)" fill="#dcdbd7"/>
    <path d="m393.13 591.63c1.02-4.414 3.034-7.783 4.5-7.524 1.468 0.258 1.829 4.046 0.811 8.461-1.02 4.414-3.034 7.783-4.5 7.524-1.466-0.258-1.829-4.047-0.811-8.461" clip-path="url(#a)" fill="#dcdbd8"/>
    <path d="m393.22 591.65c0.985-4.271 2.936-7.531 4.354-7.28 1.419 0.25 1.771 3.916 0.784 8.188-0.986 4.272-2.936 7.532-4.354 7.281-1.419-0.25-1.77-3.916-0.784-8.189" clip-path="url(#a)" fill="#dddcd9"/>
    <path d="m393.31 591.66c0.953-4.13 2.838-7.281 4.21-7.039s1.711 3.786 0.758 7.915c-0.954 4.13-2.839 7.281-4.21 7.039-1.372-0.242-1.711-3.785-0.758-7.915" clip-path="url(#a)" fill="#dedddb"/>
    <path d="m393.39 591.68c0.92-3.986 2.74-7.029 4.065-6.796s1.651 3.655 0.731 7.643c-0.921 3.986-2.74 7.029-4.064 6.796-1.325-0.234-1.652-3.656-0.732-7.643" clip-path="url(#a)" fill="#dfdedc"/>
    <path d="m393.48 591.69c0.888-3.845 2.642-6.778 3.919-6.553s1.593 3.524 0.706 7.369c-0.889 3.845-2.644 6.779-3.92 6.554-1.277-0.225-1.594-3.524-0.705-7.37" clip-path="url(#a)" fill="#e0dfdd"/>
    <path d="m393.56 591.7c0.854-3.702 2.545-6.528 3.773-6.311 1.23 0.217 1.534 3.395 0.681 7.097-0.855 3.702-2.545 6.528-3.775 6.311s-1.534-3.395-0.679-7.097" clip-path="url(#a)" fill="#e1e0de"/>
    <path d="m393.65 591.72c0.822-3.561 2.447-6.277 3.629-6.068 1.184 0.208 1.476 3.263 0.654 6.823s-2.447 6.276-3.63 6.067c-1.182-0.208-1.475-3.263-0.653-6.822" clip-path="url(#a)" fill="#e1e1e0"/>
    <path d="m393.74 591.73c0.789-3.417 2.349-6.026 3.483-5.825 1.135 0.2 1.416 3.133 0.627 6.551s-2.349 6.025-3.483 5.825c-1.136-0.2-1.416-3.133-0.627-6.551" clip-path="url(#a)" fill="#e2e1e0"/>
    <path d="m393.82 591.75c0.756-3.275 2.251-5.775 3.339-5.583 1.088 0.191 1.356 3.003 0.6 6.277-0.756 3.275-2.25 5.775-3.338 5.583-1.088-0.191-1.357-3.003-0.601-6.277" clip-path="url(#a)" fill="#e2e1e0"/>
    <path d="m393.9 591.77c0.723-3.133 2.153-5.522 3.194-5.34 1.04 0.185 1.298 2.872 0.573 6.005-0.723 3.134-2.152 5.524-3.192 5.341-1.041-0.185-1.298-2.873-0.575-6.006" clip-path="url(#a)" fill="#e3e1e0"/>
    <path d="m393.99 591.78c0.689-2.99 2.055-5.272 3.048-5.097 0.994 0.175 1.238 2.741 0.549 5.731-0.69 2.99-2.055 5.272-3.048 5.098-0.995-0.175-1.24-2.742-0.549-5.732" clip-path="url(#a)" fill="#e4e2e0"/>
    <path d="m394.08 591.8c0.658-2.849 1.957-5.021 2.903-4.854 0.945 0.166 1.18 2.61 0.522 5.458s-1.957 5.022-2.903 4.855-1.181-2.611-0.522-5.459" clip-path="url(#a)" fill="#e4e2e0"/>
    <path d="m394.16 591.81c0.625-2.706 1.859-4.77 2.758-4.612 0.899 0.159 1.121 2.481 0.497 5.187-0.625 2.706-1.859 4.77-2.759 4.612-0.898-0.16-1.121-2.481-0.496-5.187" clip-path="url(#a)" fill="#e5e3e1"/>
    <path d="m394.25 591.82c0.593-2.563 1.762-4.519 2.613-4.369 0.852 0.15 1.063 2.351 0.47 4.913-0.592 2.563-1.762 4.52-2.612 4.369-0.852-0.15-1.063-2.349-0.471-4.913" clip-path="url(#a)" fill="#e6e4e1"/>
    <path d="m394.33 591.84c0.559-2.421 1.664-4.269 2.468-4.126 0.804 0.142 1.003 2.219 0.444 4.64-0.56 2.421-1.664 4.268-2.469 4.126-0.804-0.142-1.003-2.219-0.443-4.64" clip-path="url(#a)" fill="#e6e4e1"/>
    <path d="m394.42 591.85c0.526-2.277 1.565-4.017 2.323-3.884 0.756 0.134 0.943 2.089 0.418 4.367-0.526 2.279-1.566 4.018-2.323 3.884-0.756-0.132-0.944-2.088-0.418-4.367" clip-path="url(#a)" fill="#e6e5e1"/>
    <path d="m394.5 591.87c0.493-2.136 1.468-3.767 2.178-3.642s0.886 1.958 0.393 4.095c-0.494 2.136-1.468 3.766-2.178 3.641s-0.886-1.958-0.393-4.094" clip-path="url(#a)" fill="#e7e5e2"/>
    <path d="m394.59 591.89c0.46-1.993 1.37-3.515 2.031-3.397 0.663 0.117 0.827 1.828 0.366 3.821-0.46 1.993-1.37 3.515-2.032 3.397-0.661-0.117-0.825-1.827-0.365-3.821" clip-path="url(#a)" fill="#e7e6e2"/>
    <path d="m394.67 591.9c0.427-1.851 1.271-3.264 1.887-3.155s0.768 1.697 0.34 3.549c-0.428 1.851-1.272 3.264-1.887 3.154-0.615-0.107-0.766-1.696-0.34-3.548" clip-path="url(#a)" fill="#e8e6e2"/>
    <path d="m394.76 591.92c0.396-1.709 1.174-3.014 1.742-2.913 0.567 0.1 0.708 1.566 0.313 3.275-0.394 1.708-1.174 3.013-1.741 2.912-0.568-0.099-0.707-1.565-0.314-3.274" clip-path="url(#a)" fill="#e9e7e4"/>
    <path d="m394.85 591.93c0.362-1.565 1.077-2.762 1.598-2.67 0.52 0.092 0.648 1.437 0.287 3.003s-1.076 2.761-1.598 2.669c-0.519-0.091-0.647-1.436-0.287-3.002" clip-path="url(#a)" fill="#e9e8e5"/>
    <path d="m394.93 591.95c0.329-1.424 0.979-2.511 1.452-2.427 0.473 0.082 0.59 1.305 0.261 2.729s-0.979 2.511-1.452 2.427c-0.473-0.083-0.59-1.305-0.261-2.729" clip-path="url(#a)" fill="#eae8e5"/>
    <path d="m395.02 591.96c0.296-1.282 0.881-2.26 1.306-2.185 0.427 0.075 0.531 1.175 0.235 2.456-0.296 1.282-0.88 2.26-1.306 2.186-0.426-0.075-0.531-1.176-0.235-2.457" clip-path="url(#a)" fill="#ebe9e6"/>
    <path d="m395.1 591.98c0.264-1.139 0.783-2.009 1.161-1.941 0.379 0.066 0.473 1.044 0.209 2.184-0.263 1.139-0.783 2.008-1.161 1.942-0.378-0.068-0.472-1.046-0.209-2.185" clip-path="url(#a)" fill="#ebe9e7"/>
    <path d="m395.19 591.99c0.229-0.997 0.685-1.757 1.016-1.699 0.331 0.059 0.413 0.914 0.184 1.911-0.23 0.996-0.686 1.757-1.017 1.699-0.331-0.059-0.414-0.914-0.183-1.911" clip-path="url(#a)" fill="#eceae7"/>
    <path d="m395.28 592.01c0.197-0.854 0.587-1.506 0.871-1.455 0.284 0.05 0.354 0.782 0.157 1.638-0.198 0.854-0.587 1.506-0.871 1.456s-0.354-0.785-0.157-1.639" clip-path="url(#a)" fill="#ecebe8"/>
    <path d="m395.36 592.02c0.164-0.712 0.489-1.255 0.727-1.213 0.235 0.041 0.295 0.653 0.131 1.365-0.165 0.712-0.49 1.255-0.727 1.213s-0.295-0.653-0.131-1.365" clip-path="url(#a)" fill="#edebe9"/>
    <path d="m395.44 592.04c0.131-0.57 0.391-1.005 0.58-0.972 0.188 0.033 0.235 0.522 0.104 1.092-0.132 0.569-0.392 1.005-0.581 0.972-0.188-0.034-0.236-0.523-0.103-1.092" clip-path="url(#a)" fill="#eeecea"/>
    <path d="m395.53 592.05c0.099-0.427 0.294-0.753 0.435-0.728 0.143 0.024 0.178 0.392 0.079 0.818-0.099 0.428-0.294 0.753-0.436 0.729-0.143-0.025-0.177-0.393-0.078-0.819" clip-path="url(#a)" fill="#efeeeb"/>
    <path d="m395.62 592.07c0.066-0.285 0.196-0.502 0.29-0.485 0.095 0.017 0.118 0.261 0.052 0.546-0.064 0.284-0.194 0.502-0.29 0.485-0.094-0.016-0.118-0.261-0.052-0.546" clip-path="url(#a)" fill="#f0eeec"/>
    <path d="m395.7 592.08c0.032-0.142 0.098-0.251 0.145-0.241 0.047 8e-3 0.059 0.13 0.026 0.272s-0.099 0.251-0.146 0.242c-0.047-7e-3 -0.059-0.13-0.025-0.273" clip-path="url(#a)" fill="#f0efed"/>
   </g>
  </g>
 </g>
</svg>
