<svg width="600" height="159.96" version="1.1" viewBox="0 0 158.75 42.322228" xmlns="http://www.w3.org/2000/svg">
 <g transform="translate(-6.1636 -127.67)" fill="#fff">
  <path d="m69.072 167.24h18.953v2.7508h-18.953z"/>
  <path d="m6.2187 139.88h20.513v6.133l-11.258 14.884h11.593v6.133h-20.903v-6.133l11.203-14.884h-11.148z"/>
  <path d="m28.402 149.36c0-6.412 2.7866-10.036 9.1421-10.036 2.2336 0 5.0744 0.3358 6.9129 0.7806v-11.317l8.0302-1.1144v39.358h-6.3004l-0.83554-2.1743c-1.897 1.2254-5.41 2.7334-8.3608 2.7334-5.5198 0-8.5883-3.4032-8.5883-10.037v-8.193zm16.055-2.3967c-1.3929-0.33578-3.4538-0.6698-5.1291-0.6698-2.115 0-2.8956 1.2821-2.8956 3.0665v8.193c0 1.8978 0.78059 3.0665 2.8956 3.0665 1.8438 0 3.9589-1.1146 5.1291-2.1176v-11.539z"/>
  <path d="m72.997 134.75c-1.1164-0.22329-2.6191-0.39075-3.5672-0.39075-2.565 0-2.7325 1.1164-2.7325 2.9008v3.1773h6.4088l-0.55731 6.577h-5.8515v20.014h-8.0302v-20.014h-4.1217v-6.577h4.1217v-4.0695c0-5.5767 2.6235-8.6974 9.2004-8.6974 2.2834 0 3.9579 0.33316 6.133 0.78058l-1.0039 6.2986z"/>
  <path d="m105.84 167.03v-17.95c0-1.228-0.5582-1.9519-1.9519-1.9519-1.4469 0-4.1263 1.0038-5.8515 1.9519v17.95h-8.0302v-27.149h5.9649l0.83991 2.0636c3.3413-1.6161 7.69-2.6217 10.812-2.6217 4.6304 0 6.2464 3.4564 6.2464 8.6974v19.01h-8.0302z"/>
  <path d="m124 156.27v0.7806c0 3.1232 1.2254 3.9589 4.9024 3.9589 2.5101 0 5.8557-0.44479 8.2524-1.1713l1.1713 6.0214c-2.4508 0.89137-6.4096 1.7295-10.199 1.7295-8.8108 0-12.156-4.3496-12.156-11.04v-6.3545c0-5.8532 2.6182-10.871 11.652-10.871 9.0322 0 10.981 5.3517 10.981 11.261v5.6858h-14.604zm7.0228-7.1902c0-1.8952-0.55906-3.4564-3.3456-3.4564s-3.677 1.5612-3.677 3.4564v1.1722h7.0228v-1.1722z"/>
  <path d="m140.38 156.61v-6.3004c0-5.5742 2.6192-10.983 12.265-10.983 9.6454 0 12.265 5.4093 12.265 10.983v6.3004c0 5.5742-2.6191 10.983-12.265 10.983-9.6461 0-12.265-5.4092-12.265-10.983m16.5 0.22154v-6.7444c0-2.565-1.3344-4.0147-4.2344-4.0147-2.9008 0-4.2351 1.4496-4.2351 4.0147v6.7444c0 2.5659 1.3344 4.0154 4.2351 4.0154 2.9 0 4.2344-1.4496 4.2344-4.0154"/>
 </g>
</svg>
