<svg width="600" height="119.06" version="1.1" viewBox="0 0 158.75 31.501228" xmlns="http://www.w3.org/2000/svg">
 <g transform="translate(-26.458 -133.08)" fill="#fff">
  <g>
   <path d="m73.282 162.54h14.107v2.0475h-14.107z"/>
   <path d="m26.499 142.17h15.268v4.5649l-8.3794 11.078h8.6287v4.5649h-15.559v-4.5649l8.3387-11.078h-8.2977z"/>
   <path d="m43.01 149.22c0-4.7726 2.0741-7.4701 6.8046-7.4701 1.6625 0 3.777 0.24994 5.1454 0.58101v-8.4231l5.977-0.82948v29.295h-4.6895l-0.62191-1.6184c-1.4119 0.91208-4.0267 2.0345-6.2231 2.0345-4.1085 0-6.3924-2.5331-6.3924-7.4706v-6.0982zm11.95-1.7839c-1.0367-0.24993-2.5707-0.49855-3.8177-0.49855-1.5742 0-2.1552 0.95428-2.1552 2.2825v6.0982c0 1.4126 0.58101 2.2825 2.1552 2.2825 1.3724 0 2.9467-0.82963 3.8177-1.5762v-8.5885z"/>
   <path d="m76.203 138.35c-0.83093-0.1662-1.9495-0.29084-2.6551-0.29084-1.9092 0-2.0338 0.83093-2.0338 2.1591v2.3649h4.7702l-0.41482 4.8954h-4.3554v14.896h-5.977v-14.896h-3.0679v-4.8954h3.0679v-3.029c0-4.1508 1.9527-6.4736 6.848-6.4736 1.6995 0 2.9459 0.24798 4.5649 0.581l-0.74719 4.6882z"/>
   <path d="m100.65 162.38v-13.361c0-0.91404-0.41548-1.4528-1.4528-1.4528-1.077 0-3.0713 0.74718-4.3554 1.4528v13.361h-5.977v-20.208h4.4398l0.62516 1.5359c2.487-1.2029 5.7238-1.9514 8.0477-1.9514 3.4465 0 4.6493 2.5727 4.6493 6.4736v14.149h-5.977z"/>
   <path d="m114.17 154.37v0.58101c0 2.3247 0.91208 2.9467 3.6489 2.9467 1.8683 0 4.3585-0.33107 6.1424-0.87183l0.87184 4.4818c-1.8242 0.66346-4.7708 1.2873-7.5915 1.2873-6.558 0-9.048-3.2375-9.048-8.2173v-4.7297c0-4.3567 1.9488-8.0918 8.6729-8.0918 6.7229 0 8.1731 3.9834 8.1731 8.3821v4.2321h-10.87zm5.2272-5.3518c0-1.4106-0.41612-2.5727-2.4902-2.5727s-2.7369 1.162-2.7369 2.5727v0.87248h5.2272v-0.87248z"/>
   <path d="m126.36 154.62v-4.6895c0-4.149 1.9495-8.1749 9.1293-8.1749 7.1793 0 9.1288 4.0262 9.1288 8.1749v4.6895c0 4.149-1.9495 8.1749-9.1288 8.1749-7.1798 0-9.1293-4.0262-9.1293-8.1749m12.281 0.16489v-5.02c0-1.9092-0.99323-2.9882-3.1518-2.9882-2.1591 0-3.1523 1.0789-3.1523 2.9882v5.02c0 1.9099 0.99323 2.9888 3.1523 2.9888 2.1585 0 3.1518-1.0789 3.1518-2.9888"/>
  </g>
  <path d="m152.58 152.27v-10.496h4.7308v8.4265h6.8004v-8.4265h4.7308v20.993h-4.7308v-8.4265h-6.8004v8.4265h-4.7308z"/>
  <path d="m170.05 141.76v21.035l5.143-0.0579c4.7215-0.0521 5.2081-0.0812 6.0524-0.3638 1.7952-0.6008 2.9816-1.5705 3.6381-2.9766 0.31222-0.67417 0.32016-0.8189 0.32016-7.1171 0-6.2569-7e-3 -6.4458-0.3142-7.1108-0.64696-1.3992-1.8519-2.3844-3.6463-2.9848-0.84432-0.28256-1.3309-0.31169-6.0524-0.36382l-5.143-0.0579zm4.7295 4.126 2.034 0.0661c2.2338 0.073 2.9134 0.26146 3.3984 0.97566 0.24477 0.36055 0.26458 0.81554 0.26458 5.3497 0 5.5516 0.0105 5.4798-1.0832 6.0029-0.41132 0.19664-1.0476 0.27237-2.5797 0.32248l-2.034 0.0662v-12.783z"/>
 </g>
</svg>
